<?xml version="1.0" standalone="no"?><?xml-stylesheet type="text/css" href="https://fonts.googleapis.com/css?family=Euphoria+Script|Helvetica,+Arial,+sans-serif|Rationale"?><!DOCTYPE svg PUBLIC
        "-//W3C//DTD SVG 1.1//EN" "http://www.w3.org/Graphics/SVG/1.1/DTD/svg11.dtd">
<svg id="SvgjsSvg1001" width="968" height="752" xmlns="http://www.w3.org/2000/svg" version="1.1"
     xmlns:xlink="http://www.w3.org/1999/xlink" xmlns:svgjs="http://svgjs.com/svgjs" viewBox="0 0 560 400">
    <image id="jd_bg" xlink:href="/design/templates/0020001-0.jpg" width="600" height="400"></image>
    <svg id="jd_nt" style="overflow: visible;">
        <text
       clip-path="url(#clipPath12645)"
       id="text12557"
       y="365"
       x="325"
       style="font-style:normal;font-variant:normal;font-weight:normal;font-stretch:normal;font-size:180px;line-height:125%;font-family:Broadway;-inkscape-font-specification:Broadway;letter-spacing:0px;word-spacing:0px;fill:#000000;fill-opacity:1;stroke:none;stroke-width:1px;stroke-linecap:butt;stroke-linejoin:miter;stroke-opacity:1"
       xml:space="preserve"><tspan
         y="365"
         x="325"
         id="tspan12559">M</tspan></text>
        <rect
                y="285"
                x="321"
                height="3"
                width="169"
                id="rect12649"
                style="fill:#000000;fill-opacity:1;stroke:none;stroke-width:1;stroke-miterlimit:0;stroke-dasharray:none;stroke-opacity:1"/>
        <rect
                y="331.5"
                x="321.5"
                height="3"
                width="169"
                id="rect12649-4"
                style="fill:#000000;fill-opacity:1;stroke:none;stroke-width:1;stroke-miterlimit:0;stroke-dasharray:none;stroke-opacity:1"/>
        <text
       id="text13221"
       y="323"
       x="328"
       style="font-style:normal;font-weight:normal;font-size:30px;line-height:125%;font-family:'Showcard Gothic';letter-spacing:0px;word-spacing:0px;fill:#000000;fill-opacity:1;stroke:none;stroke-width:1px;stroke-linecap:butt;stroke-linejoin:miter;stroke-opacity:1;-inkscape-font-specification:'Showcard Gothic';font-stretch:normal;font-variant:normal;"
       xml:space="preserve"><tspan
         style="font-style:normal;font-variant:normal;font-weight:normal;font-stretch:normal;font-size:40px;font-family:Broadway;-inkscape-font-specification:'Broadway, Normal';text-anchor:start;text-align:start;writing-mode:lr;line-height:140%"
         y="323"
         x="328"
         id="tspan13223">Garrett</tspan></text>
    </svg>
    <defs id="SvgjsDefs1002">
        <clipPath
                id="clipPath12645"
                clipPathUnits="userSpaceOnUse">
            <path
                    id="path12647"
                    d="m 323,369 172.99432,0.043 0.76719,-36.07263 -174.67785,-0.54529 -1.06335,-46.42512 174.9823,2.84665 -0.002,-45.84658 -173.98912,-3.954 L 322,370"
                    style="fill:none;fill-rule:evenodd;stroke:#fa0000;stroke-width:1px;stroke-linecap:butt;stroke-linejoin:miter;stroke-opacity:1"/>
        </clipPath>
        <clipPath id="SvgjsClipPath1011">
            <path id="jd_bd"
                  d="M304.85999 421.86261A22.859842 24.3596 0 0 1 283.37451 446.17815A22.859842 24.3596 0 0 1 259.30556 424.78635A22.859842 24.3596 0 0 1 277.89696000000004 397.89863A22.859842 24.3596 0 0 1 304.20137000000005 416.05740000000003M110.64062 363.55935C82.235266 363.1175 53.511262 378.43139 32 396.36208C27.936798 402.04298 24.256625 408.00889 21.173828 414.28005C3.2747002000000016 446.54118 13.598364 486.57800000000003 36.658203 513.37575C44.593646 525.56655 61.766067 533.55386 56.085938 550.07106C45.117669 563.76295 31.587711 577.07845 23.382812 593.33669C4.5663623000000015 623.73461 9.001579900000001 664.13051 31.636719 691.17653C43.010683 709.56637 66.288542 713.66116 86.019531 717.39528C127.72342 724.1173 164.19881 694.47037 184 660.36208L379 661.36208C387.21659999999997 679.31834 398.85147 696.21928 414.94336 707.97341C442.40817999999996 729.6359199999999 482.2072 724.2257199999999 508.98438 704.2448899999999C534.2985 691.12047 546.03364 665.46458 547.64062 637.90505C553.21794 604.42383 532.91684 572.48243 504.65039 556.03005C499.10992 550.45214 504.81314000000003 539.2885 504 531.36208C536.33403 510.57698999999997 555.95102 468.8318 544.07617 431.12185C534.34717 395.39477999999997 499.28932000000003 373.45754 464.29102000000006 368.22927C430.6012600000001 361.36877999999996 401.6436800000001 385.17494 382.5332000000001 410.18044C377.6949100000001 423.55386 364.7983500000001 420.24886999999995 353.8164100000001 420.907C338.59368000000006 424.71475999999996 333.8608700000001 417.51081999999997 332.8105500000001 402.50466C325.2584700000001 376.73408 295.86052000000007 366.55877 271.3945300000001 370.7156C243.29816000000008 371.43467 231.9732800000001 399.70236 222.00000000000009 421.36208L184.00000000000009 420.36208C175.2678300000001 401.04353 162.2927400000001 382.55993 143.38867000000008 372.10231C132.82208000000008 366.31717 121.75577000000007 363.73224 110.64062000000007 363.55935Z "
                  transform="matrix(1,0,0,1,0,-350)"></path>
        </clipPath>
        <filter id="SvgjsFilter1013">
            <feColorMatrix id="SvgjsFeColorMatrix1014" type="luminanceToAlpha" result="SvgjsFeColorMatrix1014Out"
                           in="SourceGraphic"></feColorMatrix>
        </filter>
        <filter id="SvgjsFilter1104">
            <feColorMatrix id="SvgjsFeColorMatrix1105" type="saturate" values="0" result="SvgjsFeColorMatrix1105Out"
                           in="SourceGraphic"></feColorMatrix>
            <feColorMatrix id="SvgjsFeColorMatrix1106" type="matrix"
                           values="1 0 0 0 0 0 1 0 0 0 0 0 1 0 0 -0.5 -0.5 -0.5 1.5 0"
                           result="SvgjsFeColorMatrix1106Out" in="SvgjsFeColorMatrix1105Out"></feColorMatrix>
        </filter>
    </defs>
</svg>