<?xml version="1.0" encoding="UTF-8" standalone="no"?>
<?xml-stylesheet type="text/css" href="https://fonts.googleapis.com/css?family=Ewert"?>
<svg
        xmlns:dc="http://purl.org/dc/elements/1.1/"
        xmlns:cc="http://creativecommons.org/ns#"
        xmlns:rdf="http://www.w3.org/1999/02/22-rdf-syntax-ns#"
        xmlns:svg="http://www.w3.org/2000/svg"
        xmlns="http://www.w3.org/2000/svg"
        xmlns:xlink="http://www.w3.org/1999/xlink"
        width="1600"
        height="1000"
        viewBox="0 0 1600 1000"
        id="svg4197"
        version="1.1">
    <defs
            id="defs4199">
        <clipPath
                id="clipPath4206"
                clipPathUnits="userSpaceOnUse">
            <path
                    id="jd_bd"
                    d="m 896.61017,552.54236 357.62713,0 0,318.64404 -357.62713,0 z"
                    style="fill:none;fill-opacity:1;stroke:#000000;stroke-width:1;stroke-linecap:round;stroke-linejoin:bevel;stroke-miterlimit:4;stroke-dasharray:none;stroke-opacity:1"/>
        </clipPath>
    </defs>
    <metadata
            id="metadata4202">
        <rdf:RDF>
            <cc:Work
                    rdf:about="">
                <dc:format>image/svg+xml</dc:format>
                <dc:type
                        rdf:resource="http://purl.org/dc/dcmitype/StillImage"/>
                <dc:title></dc:title>
            </cc:Work>
        </rdf:RDF>
    </metadata>
    <image
            xlink:href="/designs/templateimgs/002000301-0.jpg"
            y="0"
            x="0"
            id="jd_bg"
            height="1000"
            width="1600"
            style="stroke-width:1;stroke-miterlimit:4;stroke-dasharray:none"/>
    <g
            clip-path="url(#clipPath4206)"
            id="jd_nt">
        <path
                id="path4151"
                d="M 1063.9647,866.47082 C 1018.738,848.86779 973.85435,804.1262 941.26027,744.15485 916.04119,697.75301 902.54048,653.99657 902.10295,617.24411 l -0.20468,-17.19435 22.9117,-10.68874 c 26.51467,-12.36956 53.5901,-21.06888 85.18313,-27.36915 20.8924,-4.16638 25.0977,-4.45016 65.5055,-4.42028 40.0306,0.0295 44.7891,0.35075 65.2478,4.40373 12.1375,2.4045 31.5684,7.37788 43.1797,11.05193 22.3215,7.06292 58.8683,22.9241 62.6966,27.21012 2.9091,3.25692 -0.3013,38.51246 -5.5002,60.40203 -15.2204,64.08299 -61.5759,140.76297 -106.9076,176.84375 -21.038,16.74486 -49.5408,32.07927 -59.2073,31.8534 -2.1533,-0.0503 -7.1227,-1.33992 -11.0429,-2.86573 z m 25.8478,-37.6882 c 14.0891,-8.55305 43.8465,-33.74371 43.8465,-37.11743 0,-3.40615 -17.9788,-13.86663 -30.1156,-17.52194 -8.3661,-2.51974 -15.8795,-3.40383 -28.9262,-3.40383 -13.0467,0 -20.5598,0.88409 -28.926,3.40383 -11.822,3.56051 -30.1157,14.08704 -30.1157,17.32922 0,2.23408 24.276,24.53049 34.3676,31.56511 9.1109,6.35092 22.3611,13.60398 24.8887,13.6238 1.0873,0.008 7.8286,-3.53692 14.9807,-7.87876 z m -88.7812,-72.97267 c 21.9948,-14.54615 43.775,-20.66167 73.5859,-20.66167 29.8779,0 51.5868,6.11113 73.7232,20.75326 6.222,4.11562 9.1107,5.16983 10.7346,3.91763 2.6746,-2.06242 23.4928,-40.58948 24.2676,-44.91047 0.7415,-4.13589 -25.1302,-18.65262 -45.37,-25.45728 -38.8246,-13.05298 -86.4739,-13.43994 -125.7705,-1.02138 -13.6566,4.31581 -37.40955,15.50938 -45.27211,21.33456 l -4.84881,3.5924 12.86573,21.94915 c 12.34916,21.06782 15.60596,26.04307 17.04748,26.04307 0.36371,0 4.43038,-2.49268 9.03691,-5.53927 z m -38.41452,-82.95508 c 33.17515,-18.31248 70.75962,-27.77228 110.34152,-27.77228 39.2895,0 64.8205,5.7136 102.0854,22.84565 17.3512,7.97705 25.0266,10.75476 25.9436,9.3889 2.4943,-3.71607 8.7884,-31.49658 9.7252,-42.92577 l 0.9436,-11.51 -12.1213,-5.53034 c -27.2497,-12.43257 -63.5845,-21.39253 -100.2433,-24.71943 -46.897,-4.25602 -102.02247,4.58251 -145.84183,23.38356 l -15.4214,6.61664 0,6.98745 c 0,11.66051 8.91549,49.85206 11.6376,49.85206 0.53036,0 6.3583,-2.97739 12.95091,-6.61644 z"
                style="fill:#000000"/>
        <text
       xml:space="preserve"
       style="font-style:normal;font-variant:normal;font-weight:normal;font-stretch:normal;font-size:40px;line-height:125%;font-family:Ewert;-inkscape-font-specification:'Ewert, Normal';text-align:center;letter-spacing:0px;word-spacing:0px;writing-mode:lr-tb;text-anchor:middle;fill:#000000;fill-opacity:1;stroke:none;stroke-width:1px;stroke-linecap:butt;stroke-linejoin:miter;stroke-opacity:1"
       id="text4153"
       text-align="middle"><textPath
         xlink:href="#path4161"
         id="textPath4167"
         startOffset="50%"><tspan
   id="text01"
   style="font-style:normal;font-variant:normal;font-weight:normal;font-stretch:normal;font-size:40px;line-height:125%;font-family:Ewert;-inkscape-font-specification:'Ewert, Normal';text-align:center;writing-mode:lr-tb;text-anchor:middle;fill:#000000;fill-opacity:1">Stephanie</tspan></textPath></text>
    <text
       id="text4172"
       style="font-style:normal;font-variant:normal;font-weight:normal;font-stretch:normal;font-size:40px;line-height:125%;font-family:Ewert;-inkscape-font-specification:'Ewert, Normal';text-align:center;letter-spacing:0px;word-spacing:0px;writing-mode:lr-tb;text-anchor:middle;fill:#000000;fill-opacity:1;stroke:none;stroke-width:1px;stroke-linecap:butt;stroke-linejoin:miter;stroke-opacity:1"
       xml:space="preserve"><textPath
         startOffset="50%"
         id="textPath4176"
         xlink:href="#path4170"><tspan
   style="font-style:normal;font-variant:normal;font-weight:normal;font-stretch:normal;font-size:40px;line-height:125%;font-family:Ewert;-inkscape-font-specification:'Ewert, Normal';text-align:center;writing-mode:lr-tb;text-anchor:middle"
   id="text02">Wilson</tspan></textPath></text>
        <path
                id="path4170"
                d="m 991.52542,754.23729 c 52.62288,-34.86969 107.26528,-37.428 164.40678,0 l -1.6949,-1.69492"
                style="fill:none;fill-rule:evenodd;stroke:none;stroke-width:1px;stroke-linecap:butt;stroke-linejoin:miter;stroke-opacity:1"/>
        <path
                id="path4161"
                d="M 949.15254,673.35593 C 1018.3951,629.67124 1099.1725,620.59106 1200,671.66102 l 0,0"
                style="fill:none;fill-rule:evenodd;stroke:none;stroke-width:1px;stroke-linecap:butt;stroke-linejoin:miter;stroke-opacity:1"/>
    </g>
</svg>
