<?xml version="1.0" encoding="utf-8"?>
<?xml-stylesheet type="text/css" href="https://fonts.googleapis.com/css?family=Alex+Brush"?>
<svg xmlns:dc="http://purl.org/dc/elements/1.1/" xmlns:cc="http://creativecommons.org/ns#" xmlns:rdf="http://www.w3.org/1999/02/22-rdf-syntax-ns#" xmlns:svg="http://www.w3.org/2000/svg" xmlns="http://www.w3.org/2000/svg" xmlns:xlink="http://www.w3.org/1999/xlink" id="svg1680" width="1600" height="1000" viewBox="0 0 1600 1000" version="1.1">
  <metadata id="metadata10">
    <rdf:RDF>
      <cc:Work rdf:about="">
        <dc:format>
          image/svg+xml
        </dc:format>
        <dc:type rdf:resource="http://purl.org/dc/dcmitype/StillImage">
        </dc:type>
        <dc:title>
        </dc:title>
      </cc:Work>
    </rdf:RDF>
  </metadata>
  <defs id="defs8">
    <filter id="filter4304" style="color-interpolation-filters:sRGB;">
      <feGaussianBlur id="feGaussianBlur4306" stdDeviation="0.5" in="SourceGraphic" result="result0">
      </feGaussianBlur>
      <feTurbulence id="feTurbulence4308" type="fractalNoise" result="result1" numOctaves="10" seed="300" baseFrequency="0.2">
      </feTurbulence>
      <feGaussianBlur id="feGaussianBlur4310" result="result91" stdDeviation="0.5">
      </feGaussianBlur>
      <feDisplacementMap id="feDisplacementMap4312" in2="result91" in="result0" result="result6" scale="5" xChannelSelector="R">
      </feDisplacementMap>
      <feComposite id="feComposite4314" in="result6" in2="result1" operator="in" result="result2">
      </feComposite>
      <feComposite id="feComposite4316" operator="arithmetic" in="result0" in2="result2" k3="3">
      </feComposite>
      <feBlend id="feBlend4318" in2="result2" mode="multiply" result="fbSourceGraphic">
      </feBlend>
      <feColorMatrix id="feColorMatrix4320" result="fbSourceGraphicAlpha" in="fbSourceGraphic" values="1 0 0 -1 0 1 0 1 -1 0 1 0 0 -1 0 -1.8 -0.5 0 5.7 -3.5 ">
      </feColorMatrix>
      <feGaussianBlur id="feGaussianBlur4322" result="result0" in="fbSourceGraphicAlpha" stdDeviation="0.5">
      </feGaussianBlur>
      <feDiffuseLighting id="feDiffuseLighting4324" diffuseConstant="0.6" surfaceScale="50" result="result5">
        <feDistantLight id="feDistantLight4326" elevation="10" azimuth="225">
        </feDistantLight>
      </feDiffuseLighting>
      <feComposite id="feComposite4328" operator="in" result="result2" in="result5" in2="fbSourceGraphicAlpha">
      </feComposite>
      <feComposite id="feComposite4330" in2="result2" k3="0.7" k2="1" operator="arithmetic" result="result4" in="fbSourceGraphic">
      </feComposite>
    </filter>
    <filter style="color-interpolation-filters:sRGB;" id="filter4575">
      <feGaussianBlur result="result0" in="SourceAlpha" stdDeviation="4" id="feGaussianBlur4577">
      </feGaussianBlur>
      <feOffset dx="5" dy="5" result="result4" id="feOffset4579">
      </feOffset>
      <feComposite in="SourceGraphic" in2="result4" operator="xor" result="result3" id="feComposite4581">
      </feComposite>
    </filter>
    <filter style="color-interpolation-filters:sRGB;" id="filter4587">
      <feGaussianBlur result="result0" in="SourceAlpha" stdDeviation="4" id="feGaussianBlur4589">
      </feGaussianBlur>
      <feOffset dx="5" dy="5" result="result4" id="feOffset4591">
      </feOffset>
      <feComposite in="SourceGraphic" in2="result4" operator="xor" result="result3" id="feComposite4593">
      </feComposite>
    </filter>
    <clipPath clipPathUnits="userSpaceOnUse" id="clipPath4169">
      <path style="opacity:1;fill:none;fill-opacity:1;fill-rule:nonzero;stroke:#ffc300;stroke-width:2.20000005;stroke-linecap:butt;stroke-linejoin:miter;stroke-miterlimit:4;stroke-dasharray:none;stroke-dashoffset:0;stroke-opacity:1" d="m 362.10565,317.99731 861.94485,0 0,542.04773 -861.94485,0 z" id="jd_bd">
      </path>
    </clipPath>
  </defs>
  <image xlink:href="/designs/templates/002000301-0.jpg" id="jd_bg" height="1000" width="1600" style="fill:#d10981;fill-opacity:1;stroke-width:1;stroke-miterlimit:4;stroke-dasharray:none">
  </image>
  <g id="jd_nt" clip-path="url(#clipPath4169)">
    <g transform="matrix(1.3824506,0,0,1.3824506,228.56998,116.31584)" id="g3" style="fill:#917c6f">
      <path style="clip-rule:evenodd;fill:#917c6f;fill-rule:evenodd" d="m 542.063,449.126 c -0.356,-1.35 -0.186,-2.299 1.331,-2.22 0.505,1.46 -0.19,2.013 -1.331,2.22 z" id="path5">
      </path>
      <path style="clip-rule:evenodd;fill:#917c6f;fill-rule:evenodd" d="m 141.285,365.197 c 1.433,2.515 1.026,4.568 -1.267,5.882 -2.865,-0.389 0.61,-3.504 -2.13,-3.796 -1.934,0.322 -2.457,1.724 -3.289,2.883 2.907,15.554 19.166,-2.065 18.127,-10.976 -0.483,-4.118 -3.631,-6.162 -6.491,-8.929 -15.317,-4.477 -28.117,5.042 -28.453,19.279 -0.511,21.905 21.608,34.599 38.658,36.083 1.099,-2.402 1.791,-5.103 3.104,-7.348 -1.359,-4.24 -0.152,-5.724 0.889,-8.692 1.169,-3.358 3.23,-7.956 9.011,-8.941 3.202,1.32 6.613,4.987 6.597,9.732 -0.035,6.703 -8.195,11.137 -10.119,16.027 27.335,4.252 53.534,0.262 82.356,-9.695 -0.432,-4.459 -2.689,-6.527 -4.486,-9.197 0.321,-2.153 1.852,-3.388 3.026,-4.89 1.892,-0.28 2.404,1.247 3.873,1.527 3.087,-3.358 2.833,-12.459 10.511,-9.969 -2.599,6.058 -0.985,15.346 -9.606,16.782 0.351,1.271 1.057,2.074 1.277,3.504 13.95,-5.286 26.058,-11.989 38.342,-18.552 -0.467,-3.175 -3.841,-5.168 -3.575,-8.502 0.21,-2.634 5.968,-6.441 8.721,-8.09 4.162,-2.5 7.267,-3.601 10.074,-7.05 3.291,-4.033 4.186,-9.528 9.819,-9.054 3.472,1.831 2.499,6.566 4.241,10.456 13.259,-10.62 25.5,-22.025 36.664,-34.243 -0.47,-6.628 -13.952,-24.83 -0.434,-24.833 2.389,5.974 5.052,11.59 6.91,18.261 18.285,-15.388 34.435,-32.464 52.313,-48.553 17.76,-15.99 39.607,-27.869 63.267,-39.813 -1.055,-4.632 -3.243,-8.502 -4.064,-12.107 1.197,-1.968 3.274,-3.266 5.996,-4.059 1.581,5.927 5.314,9.058 9.323,11.818 25.39,-10.596 53.154,-16.436 80.644,-16.407 -0.427,-11.099 -14.525,-30.118 0.935,-36.035 3.288,2.45 3.169,6.055 6.971,6.423 7.208,0.703 15.442,-8.097 23.98,-6.854 6.783,0.992 12.331,8.073 14.209,14.841 0.491,1.765 2.806,6.431 -0.703,7.03 -2.438,0.414 -6.683,-6.299 -9.94,-7.246 -7.46,-2.181 -11.172,5.012 -17.401,7.199 -4.522,1.592 -7.305,1.09 -12.451,-1.607 1.311,4.795 2.594,11.105 3.432,16.682 12.164,2.337 26.31,4.995 38.16,10.849 2.974,1.469 5.943,4.434 9.136,7.357 5.532,5.059 13.28,12.538 12.866,23.181 -0.423,10.972 -18.838,18.61 -26.918,9.279 -0.312,-3.619 -2.5,-5.392 -1.118,-8.418 1.738,-3.794 9.597,-4.293 9.489,0.783 -2.699,2.465 -3.893,-2.263 -5.824,-0.86 -3.546,6.603 3.393,11.827 11.058,9.553 9.505,-2.831 11.78,-11.266 7.416,-20.979 -2.676,-5.946 -10.118,-12.91 -16.481,-16.583 -11.435,-6.595 -25.084,-9.048 -36.154,-11.116 0.678,20.579 7.635,39.91 9.288,60.786 0.438,5.569 -0.564,10.319 -2.041,15.362 6.338,1.945 12.602,2.912 18.999,4.828 7.418,2.219 14.736,5.446 22.527,6.803 8.256,1.442 20.986,4.936 32.073,1.864 9.595,-2.661 17.901,-9.659 14.632,-21.929 -2.742,-10.289 -22.522,-17.005 -22.393,-2.741 1.236,0.264 2.678,-4.08 5.347,-2.752 1.518,3.313 -2.028,7.053 -6.128,6.116 -3.546,-3.613 -1.169,-9.956 1.216,-12.401 13.695,-4.031 24.946,4.089 24.219,19.638 -0.126,2.763 -0.042,5.75 -1.037,7.478 -1.867,3.227 -8.227,6.51 -12.381,8.172 -10.822,4.329 -23.013,0.88 -33.169,-0.905 -14.898,-2.614 -30.478,-8.984 -44.39,-11.654 -4.293,8.234 -10.769,14.802 -22.139,17.625 14.067,4.814 30.612,8.391 42.325,17.641 1.917,1.516 4.027,3.639 6.01,5.324 5.908,5.017 15.375,20.868 10.774,32.026 -2.591,6.286 -13.709,10.429 -21.763,8.193 -7.694,-2.141 -15.482,-12.448 -9.898,-22.353 2.349,-2.649 6.33,-3.644 10.264,-2.591 4.513,3.215 2.676,12.46 -3.133,10.21 -0.593,-3.665 2.997,-2.184 2.97,-5.283 -0.015,-1.612 -1.267,-3.087 -2.883,-3.297 -7.065,-0.9 -7.522,9.942 -5.569,13.391 4.723,8.336 18.132,11.283 26.458,2.609 0.362,-2.713 2.637,-4.24 2.144,-8.443 -0.613,-1.308 0.023,1.131 -1.154,0.56 1.241,-5.994 -2.293,-10.93 -4.343,-17.376 -1.995,-3.461 -6.51,-4.738 -9.186,-7.757 -0.882,-0.994 -1.04,-2.485 -2.086,-3.395 -1.207,-1.063 -2.654,-0.984 -4.328,-1.875 -3.096,-1.651 -5.943,-4.317 -9.775,-6.046 -6.627,-2.994 -12.662,-5.728 -20.626,-7.872 -5.363,-1.44 -10.047,-2.69 -14.866,-1.291 -15.103,-6.872 -37.973,-6.599 -58.073,-4.131 -8.254,1.02 -17.208,8.123 -25.048,4.953 -12.968,3.262 -24.713,9.261 -36.121,13.774 -5.392,2.13 -10.704,3.338 -15.451,6.532 -8.952,6.031 -19.747,12.121 -29.706,19.042 -19.9,13.829 -38.474,29.675 -59.176,42.935 -0.443,6.052 -6.847,11.581 -13.234,7.877 -3.326,2.378 -6.983,4.501 -10.99,6.35 1.23,4.124 -3.44,11.715 -8.639,11.757 -3.238,0.025 -3.472,-3.163 -6.308,-4.465 -3.484,1.825 0.427,5.067 -0.54,8.23 25.568,-8.838 46.743,-24.294 69.512,-35.741 3.665,-4.313 8.415,-5.505 12.834,-7.822 6.998,-3.678 12.717,-9.369 19.465,-13.191 1.861,-1.052 4.349,-1.414 6.209,-2.457 8.47,-4.741 15.966,-11.289 26.518,-15.349 5.096,-1.962 10.588,-3.437 15.62,-5.337 15.39,-5.8 30.504,-8.853 48.647,-8.49 18.822,0.376 42.099,8.511 53.867,18.556 2.994,2.561 6.332,7.235 10.068,11.31 3.495,3.82 7.251,8.157 9.375,12.228 3.551,6.77 5.007,12.84 6.375,20.364 1.306,7.22 2.077,10.912 -1.268,18.126 -0.619,1.338 -2.03,2.67 -2.734,4.033 -4.738,9.203 -9.588,16.678 -19.441,22.572 -12.253,7.33 -29.718,9.604 -43.563,3.741 -5.92,-2.512 -14.916,-13.169 -16.16,-20.298 -2.275,-13.083 4.466,-27.913 19.958,-27.943 6.338,-0.018 15.168,3.297 16.433,10.054 0.592,3.211 -1.493,10.334 -7.603,10.395 -2.57,0.024 -5.94,-2.324 -5.097,-4.629 3.281,-1.74 3.128,2.396 5.985,2.062 2.69,-0.316 4.51,-4.659 4.463,-6.308 -0.161,-5.237 -7.143,-8.856 -12.259,-9.385 -13.876,-1.429 -24.263,13.686 -18.191,28.929 5.394,13.576 23.007,20.529 38.259,17.779 17.285,-3.12 27.636,-14.561 34.307,-27.402 2.065,-3.966 4.427,-7.84 4.924,-12.08 0.696,-5.864 -1.16,-13.668 -2.954,-19.19 -2.909,-8.996 -8.549,-16.665 -15.03,-24.116 -6.054,-6.973 -12.965,-14.084 -20.249,-17.308 -1.377,-0.614 -2.684,-1.335 -4.563,-0.62 -1.06,-2.206 -4.317,-2.691 -7.005,-3.557 -8.116,-2.618 -20.541,-5.692 -30.785,-4.483 -12.586,-1.592 -30.998,1.165 -42.289,7.24 -10.527,2.725 -20.472,6.745 -29.461,11.66 -41.965,22.96 -76.564,50.915 -124.253,69.114 -1.703,1.697 -2.679,3.954 -5.02,5.158 -0.815,1.661 -0.585,4.118 -2.174,5.182 -1.635,-0.079 -1.65,-0.079 -3.203,0.426 -1.814,-0.45 -1.323,-3.917 -2.348,-5.401 -17.235,5.773 -35.478,12.275 -55.228,14.264 -16.78,1.685 -35.095,4.106 -49.88,-0.724 0.766,10.578 -10.842,17.846 -17.641,8.455 1.332,-3.528 -0.41,-6.995 2.546,-8.497 4.688,-2.384 7.167,4.897 7.874,7.117 4.065,-0.487 0.713,-7.67 -0.931,-10.079 -9.714,2.384 -18.292,-0.481 -19.394,-10.894 -5.096,-5.012 -11.035,-9.902 -16.318,-15.377 -8.082,-8.37 -12.503,-18.57 -16.256,-33.344 -2.891,-11.394 0.591,-22.747 8.923,-28.106 10.468,-6.736 33.08,-2.664 30.191,12.311 -1.025,5.322 -5.211,9.982 -7.869,14.512 -5.099,3.467 -12.489,3.333 -14.908,-1.691 -1.786,-5.36 1.98,-11.567 8.559,-9.305 z m 7.74,49.161 c 1.49,-2.22 3.522,-4.026 4.869,-6.356 -12.852,-0.018 -22.112,-7.889 -29.871,-16.033 5.174,11.599 12.47,20.412 25.002,22.389 z m -0.719,3.771 c -1.236,-0.189 0.846,-0.73 0.187,-1.661 -3.317,-1.162 -6.674,-2.263 -9.17,-4.495 1.889,3.182 5.188,7.026 8.983,6.156 z m 18.217,14.306 c -0.405,-0.219 -0.595,-1.545 -0.827,-3.157 -3.371,-0.918 -6.373,-2.336 -9.46,-3.631 1.534,4.422 7.169,5.992 10.287,6.788 z m -6.839,-8.473 c -0.205,-2.092 -2.25,-1.764 -3.583,-2.384 0.046,0.517 -0.435,0.62 -0.24,1.265 1.19,0.475 2.508,0.797 3.823,1.119 z m 0.321,-3.716 c -0.526,-0.779 -3.526,-2.622 -3.77,-0.724 1.191,0.329 2.431,0.596 3.77,0.724 z m 0.78,-3.37 c 0.36,-2.074 0.023,-4.684 -1.144,-5.559 -0.444,1.946 -2.466,2.682 -2.173,5.188 1.158,0.061 2.169,0.31 3.317,0.371 z m 73.611,-4.866 c 4.075,-0.639 8.943,-2.579 12.509,-4.112 1.197,-2.561 2.643,-4.939 5.268,-6.405 -1.074,-0.481 -0.858,-2.64 -1.676,-3.455 -18.658,6.381 -42.07,13.637 -63.566,12.925 -5.208,-0.177 -11.579,-1.405 -17.268,-0.979 -1.513,0.122 -4.794,-0.754 -4.196,2.19 4.186,0.438 11.504,0.158 12.291,6.532 11.904,1.429 29.733,0.347 43.221,-3.285 -2.372,-10.716 15.616,-14.305 13.417,-3.411 z m -65.823,-13.303 c 0.067,-4.172 0.096,-7.031 -2.474,-9.464 -0.743,3.771 -4.114,12.67 2.474,9.464 z m 3.882,29.27 c -0.231,-1.259 0.889,-1.484 0.435,-2.907 -1.098,-0.298 -2.094,-0.724 -3.716,-0.329 0.231,1.496 0.598,1.083 0.321,2.403 1.134,0.085 1.807,0.784 2.96,0.833 z m 1.926,8.315 c 9.767,2.944 21.808,5.462 33.992,4.057 3.744,-0.432 7.349,-1.721 11.167,-1.885 22.183,-1.004 45.139,-7.804 62.1,-14.768 -0.175,-2.95 -1.261,-3.023 -1.142,-5.56 -16.18,6.557 -32.388,12.19 -50.768,14.081 -1.224,0.499 -1.002,2.111 -2.997,2.031 -2.149,0.614 -2.187,-1.533 -4.223,-1.077 -14.262,1.369 -32.999,2.293 -47.12,-1.502 -0.753,1.515 -2.406,2.39 -1.009,4.623 z m 20.23,-4.313 c 10.475,0.876 20.166,-1.271 29.534,-1.879 -0.131,-3.272 -0.18,-6.399 -1.118,-8.424 -13.871,2.403 -32.081,5.31 -45.622,3.607 0.852,2.092 -0.798,2.269 -0.725,3.765 5.937,0.078 12.033,2.432 17.931,2.931 z m 11.208,-10.876 c -7.974,0.602 -18.958,0.986 -27.688,0.408 -0.182,-0.602 -0.674,0.036 -0.753,0.505 9.006,0.614 19.124,1.514 28.441,-0.913 z m 7.967,-1.465 c -1.711,0.438 -2.497,0.213 -3.158,0.827 0.446,0.298 3.617,0.651 3.158,-0.827 z m 8.763,-1.57 c -2.83,0.712 -6.66,0.663 -8.257,2.318 3.184,-1.156 6.561,0.213 8.257,-2.318 z m 7.485,7.166 c 0.178,1.338 0.354,2.676 0.531,4.008 16.654,-1.198 36.015,-7.5 49.1,-14.264 -0.861,-2.944 -1.7,-5.924 -2.765,-8.607 -6.498,3.345 -19.14,5.267 -25.96,10.377 -7.568,-1.362 -15.707,2.506 -23.496,4.337 0.514,1.837 -0.365,5.487 2.59,4.149 z m 16.152,-13.565 c -3.948,1.484 -10.986,1.752 -13.607,5.073 3.016,-1.648 13.798,-0.918 13.607,-5.073 z m 18.58,-10.626 c 0.94,-6.721 10.001,-14.154 14.89,-7.688 5.315,-2.658 9.848,-5.9 14.734,-8.887 -0.316,-2.567 -1.645,-3.808 -2.057,-6.259 -12.63,6.295 -24.586,13.114 -38.334,18.552 1.282,2.263 2.994,5.87 3.468,7.701 2.021,-1.454 5.029,-2.153 7.299,-3.419 z m 1.25,6.363 c -0.131,-1.709 -0.967,-2.488 -1.684,-3.449 -1.978,1.362 -4.898,2.013 -6.894,3.357 0.508,1.357 -0.389,1.624 -0.024,2.859 3.735,-1.016 5.306,-1.843 8.602,-2.767 z m 14.866,-10.949 c 0.923,0.839 0.59,3.303 1.737,3.85 4.985,-2.664 10.696,-4.775 14.84,-8.09 -1.182,-0.9 -0.964,-2.561 -1.492,-5.103 -5.552,2.713 -10.509,5.888 -15.085,9.343 z m 5.338,15.608 c 0,-0.596 0.924,-0.486 1.551,-0.608 -2.515,-2.804 3.204,-6.429 5.35,-2.749 -0.008,-0.602 0.922,-0.499 1.552,-0.614 -0.789,-5.651 5.073,-7.287 3.213,-12.67 -5.278,2.208 -9.67,5.085 -14.947,7.287 1.196,3.855 1.407,6.233 3.281,9.354 z m 1.251,6.368 c 0.736,-1.898 1.214,-2.366 1.819,-4.732 -1.277,0.462 -2.99,0.596 -2.99,2.031 1.157,-0.097 0.02,2.799 1.171,2.701 z m 17.945,-61.541 c -4.486,3.826 -11.697,6.171 -14.058,10.842 -0.006,1.274 1.182,6.632 3.254,6.096 0.561,-2.079 -2.048,-3.019 -1.09,-5.16 5.908,-2.141 10.986,-5.225 14.331,-8.838 2.044,-2.214 2.781,-7.11 7.623,-7.129 0.163,1.657 1.028,2.415 0.984,4.355 4.542,-1.435 -0.131,-8.001 -1.04,-10.879 -4.609,2.662 -5.944,7.258 -10.004,10.713 z m 1.098,45.143 c -1.302,-3.321 -2.134,-7.244 -3.787,-10.109 -1.189,0.055 -1.11,1.071 -2.307,1.125 0.488,2.658 1.074,3.595 2.058,6.259 -1.642,2.342 -4.214,3.972 -4.763,7.153 3.57,-1.782 5.726,-2.579 8.799,-4.428 z m -0.782,3.369 c -2.114,1.624 -5.587,2.202 -7.193,4.221 1.787,1.8 3.487,1.721 6.181,0.396 0.451,-1.229 1.332,-3.996 1.012,-4.617 z m -8.743,-22.912 c 3.23,-1.186 -0.926,-3.735 -0.853,-6.417 -3.411,0.808 0.88,4.16 0.853,6.417 z m 2.713,8.205 c 1.233,-0.146 1.995,-0.633 2.252,-1.521 -1.194,-1.752 -1.49,-4.38 -2.702,-4.945 -2.13,1.192 -0.043,4.544 0.45,6.466 z m 10.528,-28.322 c 1.122,-0.994 3.788,-2.013 2.725,-4.036 -4.072,3.495 -9.572,8.99 -15.512,12.257 0.052,0.517 -0.435,0.62 -0.242,1.259 4.763,-2.409 9.384,-6.275 13.029,-9.48 z m -12.153,13.03 c 0.988,1.071 1.505,2.743 2.193,4.197 5.532,-4.045 10.423,-8.587 15.86,-12.711 -1.244,-1.609 -0.554,-3.899 -1.837,-4.65 -4.631,4.979 -11.637,8.145 -16.216,13.164 z m 5.724,12.299 c 6.943,-3.09 11.414,-8.059 17.16,-12.068 -1.518,-1.776 -1.814,-5.15 -3.706,-6.44 -4.629,4.858 -11.254,8.186 -15.355,13.453 0.491,1.88 1.617,2.92 1.901,5.055 z m 1.224,3.102 c 2.161,2.257 3.425,7.445 4.191,10.054 3.487,-1.648 6.744,-3.479 9.892,-5.389 -1.784,-5.772 0.73,-10.821 4.763,-13.284 -0.087,-2.391 -0.96,-3.759 -2.243,-4.599 -4.605,5.117 -11.653,8.371 -16.603,13.218 z m 26.57,-2.706 c -0.067,-5.949 -3.479,-9.3 -5.524,-13.959 -1.276,-0.128 -0.621,1.204 -1.901,1.07 0.519,3.005 3.583,4.939 3.76,6.843 -2.55,3.455 -7.279,5.231 -6.232,11.435 4.01,-1.253 6.731,-3.491 9.897,-5.389 z m -11.077,-25.053 c 1.244,-1.81 -0.113,-2.418 -0.636,-4.812 -1.458,0.091 -1.314,1.402 -2.653,1.576 0.13,2.342 1.331,3.291 3.289,3.236 z m 2.183,10.315 c 1.142,-0.687 2.343,-1.322 2.492,-2.775 -0.947,-1.594 -2.094,-2.911 -2.348,-5.395 -4.108,-0.198 -1.506,5.425 -0.144,8.17 z m 7.769,18.564 c -2.077,1.052 -4.649,1.721 -5.643,3.601 3.36,-0.074 4.728,-1.667 5.643,-3.601 z m -7.07,-31.71 c 11.355,-11.487 25.314,-20.959 36.485,-32.583 -0.262,-2.325 -1.021,-4.001 -1.945,-5.453 -10.804,12.266 -23.406,23.149 -36.32,33.787 0.158,1.98 0.714,3.458 1.78,4.249 z m 0.784,2.752 c 0.627,2.628 2.199,4.026 2.906,6.551 13.89,-9.294 23.701,-21.709 36.579,-31.778 -0.105,-3.315 -1.486,-4.954 -2.21,-7.46 -11.891,11.31 -25.223,21.51 -37.275,32.687 z m 34.136,-16.359 c 1.998,-2.552 5.493,-3.564 5.724,-6.061 -6.072,5.295 -12.047,10.529 -17.84,16.234 -5.687,5.614 -12.658,10.057 -17.836,16.239 1.656,4.738 5.534,6.575 5.818,13.102 8.409,-4.915 16.773,-11.167 23.85,-17.036 2.353,-1.946 5.599,-3.418 6.528,-6.168 -0.961,1.068 -3.85,0.651 -5.561,1.144 -7.421,-4.513 -4.846,-12.129 -0.683,-17.454 z m 1.063,14.139 c 12.285,1.25 16.031,-15.444 10.15,-25.01 -0.427,0.876 -1.147,1.531 -2.202,1.927 -0.283,2.305 1.501,3.692 1.039,4.753 -5.03,4.121 -15.662,9.83 -8.987,18.33 z m -0.138,-44.047 c 1.063,0.546 2.12,-1.314 2.547,-2.377 -2.161,-6.231 -3.598,-11.207 -6.698,-16.657 -3.034,5.186 2.668,13.641 4.151,19.034 z m 3.131,8.156 c 0.506,-1.168 1.311,-2.12 2.485,-2.775 -0.296,-1.814 -1.347,-2.635 -1.793,-4.253 -3.58,1.073 -2.042,5.014 -0.692,7.028 z m 48.555,6.205 c -8.447,-2.18 -4.08,-15.004 3.54,-16.382 -0.061,-4.468 -2.453,-5.892 -2.936,-9.81 -7.316,3.281 -13.348,7.551 -18.766,12.282 1.312,1.11 1.264,3.989 1.994,5.851 3.327,-4.621 10.176,-2.057 10.209,3.136 0.032,3.471 -7.57,11.414 -12.434,7.769 -2.193,-4.746 -1.587,-9.574 -5.063,-13.61 -2.646,2.205 -5.072,4.112 -8.081,6.788 -1.509,1.344 -6.919,5.254 -7.164,7.478 -0.121,1.06 0.9,2.239 1.276,3.502 2.372,7.848 1.635,14.913 -1.857,19.828 -1.852,0.985 -3.459,2.156 -4.379,3.847 14.509,-10.254 28.859,-20.643 43.661,-30.679 z m -43.919,4.194 c 0.265,-1.121 1.445,-1.533 2.146,-2.322 -1.189,-2.535 -2.083,-5.435 -3.128,-8.155 -4.985,2.424 -0.887,6.491 0.982,10.477 z m 17.085,-37.353 c -6.86,5.541 -13.108,11.884 -19.292,17.654 0.356,1.425 0.882,2.622 1.339,3.902 12.401,-11.035 25.971,-21.174 39.041,-31.702 -0.367,-2.969 -1.598,-4.81 -2.558,-7.006 -6.043,5.116 -11.73,11.651 -18.53,17.152 z m -16.622,25.462 c 1.513,2.102 2.059,5.465 3.467,7.697 6.067,-3.883 9.873,-9.49 16.211,-13.167 -0.584,-3.941 -2.637,-5.964 -3.689,-9.302 -5.611,4.705 -11.617,9.116 -15.989,14.772 z m 22.704,-16.477 c -0.553,2.243 0.363,5.494 1.358,7.164 6.657,-3.551 11.449,-8.523 18.882,-11.481 -1.014,-4.004 -2.761,-7.062 -3.902,-10.907 -7.369,4.198 -13.835,9.095 -19.707,14.447 1.703,-0.498 2.544,0.125 3.369,0.777 z m 21.16,11.878 c -4.317,3.417 -2.107,10.573 2.99,10.213 3.64,-0.255 9.846,-5.602 9.651,-10.255 -0.117,-2.869 -2.492,-6.215 -3.68,-9.303 -1.153,-2.999 -1.102,-6.253 -3.467,-7.699 -0.692,0.672 -1.624,1.162 -2.651,1.572 1.157,4.609 3.338,7.874 4.51,12.456 -2.318,2.93 -4.675,0.901 -7.353,3.016 z m -3.855,-32.125 c 2.608,-0.648 3.744,-2.419 6.095,-3.259 -2.102,-1.955 -5.41,-2.339 -7.848,-3.855 0.059,3.05 1.454,4.368 1.753,7.114 z m 1.34,3.902 c -0.514,3.272 3.46,6.306 3.838,10.505 1.608,-0.088 1.892,-1.192 3.507,-1.281 -0.117,-3.835 -7.258,-9.542 -3.044,-10.616 1.765,-0.445 3.072,2.018 4.834,2.626 1.543,0.529 3.957,-0.154 5.774,0.458 2.077,0.692 2.508,2.868 4.384,2.275 -1.738,-5.883 -5.486,-9.142 -10.766,-10.401 -2.166,3.042 -7.975,2.864 -8.527,6.434 z m -1.17,-14.94 c 1.6,4.016 6.347,3.94 10.074,5.19 20.442,-10.187 46.414,-17.82 69.907,-23.554 -1.157,-11.971 -4.59,-20.974 -7.707,-30.395 -28.295,13.828 -52.41,28.758 -72.274,48.759 z m 11.963,22.483 c 0.727,-1.236 3.858,-0.649 3.744,-2.537 -2.532,0.087 -3.59,-1.235 -5.427,-0.912 0.356,1.422 0.512,3.093 1.683,3.449 z m 6.5,24.433 c 15.466,-6.172 29.882,-13.392 46.625,-17.606 -3.865,-10.099 2.318,-17.299 8.514,-21.943 -18.436,3.357 -33.988,6.371 -48.919,12.611 0.265,4.162 1.682,9.214 -2.334,10.103 -2.472,-1.344 -0.964,-6.23 -3.865,-7.647 -2.105,0.914 -4.962,1.25 -6.151,2.855 1.841,5.34 8.476,15.183 6.13,21.627 z m 5.501,-29.289 c 18.355,-7.515 40.61,-11.222 59.688,-14.449 -0.821,-6.729 -2.013,-11.1 -2.847,-18.392 -23.474,5.266 -47.927,12.112 -66.802,22.329 4.867,1.486 6.976,6.572 9.961,10.512 z m 60.274,-10.037 c -12.839,0.039 -20.793,11.066 -15.648,20.437 4.98,-2.334 10.027,-0.995 15.13,-2.824 6.169,-2.212 9.486,-11.919 7.871,-20.627 -4.063,0.355 -5.273,0.929 -7.353,3.014 z m -9.985,-59.875 c 1.75,-0.582 3.152,-1.429 5.056,-1.892 -3.207,-2.553 -5.43,-6.4 -8.202,-9.521 -0.301,4.577 2.419,7.609 3.146,11.413 z m 0.827,3.157 c 2.854,10.527 6.362,18.091 7.653,29.994 1.559,-0.131 2.961,-0.383 3.952,-0.937 -0.658,-3.479 -1.18,-9.15 -2.55,-13.123 -0.712,-2.05 -3.471,-4.361 -0.292,-5.269 2.365,0.427 2.669,2.539 4.192,3.934 4.226,3.875 11.248,5.277 13.33,11.288 3.406,-0.312 4.758,-0.934 7.167,-1.357 -4.608,-15.156 -16.08,-21.34 -27.352,-27.789 -1.844,1.231 -5.347,1.193 -6.1,3.259 z m 11.385,51.935 c 1.603,-0.213 3.204,-0.427 4.807,-0.64 -1.921,-8.523 -1.708,-11.946 -4.159,-19.031 -1.888,0.438 -1.667,0.406 -3.61,0.477 0.008,4.985 2.381,12.172 2.962,19.194 z m 54.745,22.112 c -3.59,-8.16 1.524,-14.896 4.214,-20.548 -15.34,-1.773 -34.793,-1.386 -50.57,0.179 0.064,8.094 -0.888,15.413 -5.517,19.911 15.847,-1.733 36.715,-2.816 51.873,0.458 z m -51.711,-45.361 c 2.253,-0.853 5.927,-1.039 9.118,-2.03 -1.674,-3.244 -4.778,-5.427 -7.483,-7.164 -1.569,-1.008 -3.471,-2.377 -4.329,-1.873 1.406,3.986 2.025,8.37 2.694,11.067 z m 5.035,22.591 c 14.023,-0.961 26.941,-2.346 40.685,-0.911 3.747,0.392 9.328,1.668 11.946,0.862 3.128,-0.967 6.834,-6.924 10.261,-8.707 4.81,-2.502 8.502,-2.111 12.463,-4.506 -2.923,0.271 -2.784,-4.516 -0.242,-4.868 1.762,0.774 1.186,4.31 4.594,3.879 -0.458,-4.06 -0.225,-7.12 -1.133,-11.683 -16.322,-4.405 -41.815,-2.76 -61.057,1.165 0.455,6.104 -1.429,9.341 -3.558,13.12 -1.27,2.249 -2.238,5.576 -4.869,6.358 -2.544,-0.688 -0.75,-3.695 -0.799,-6.014 -0.087,-3.715 -1.559,-7.46 -2.241,-10.719 -2.457,0.452 -8.307,1.28 -10.608,3.041 2.377,6.206 1.976,13.133 4.558,18.983 z m 16.35,-27.469 c 22.902,-4.249 42.663,-5.73 61.797,-1.67 -2.141,-13.436 -4.991,-29.457 -8.502,-42.524 -26.211,0.319 -56.032,5.184 -78.643,16.14 10.217,7.045 21.377,12.846 25.348,28.054 z m -7.833,5.529 c 1.522,2.401 1.514,6.794 2.879,9.408 2.029,-3.128 2.655,-7.33 3.374,-11.466 -2.12,0.66 -5.383,0.44 -6.253,2.058 z m 41.931,45.437 c 13.075,3.199 29.946,-4.649 32.078,-16.496 -8.992,-1.901 -18.079,-3.669 -28.273,-4.001 -3.581,4.703 -8.651,12.792 -3.805,20.497 z M 586.11,282.94 c 1.495,-5.22 2.871,-12.84 0.76,-18.873 -2.006,0.263 -0.64,3.119 -2.384,3.581 -10.41,-0.652 -21.192,3.934 -25.907,10.777 9.706,0.811 19.152,1.966 27.531,4.515 z M 567.815,178.872 c 0.455,7.611 4.27,16.429 5.757,24.945 1.218,0.293 2.585,0.391 4.112,0.269 -0.856,-6.893 -4.51,-13.061 -3.811,-19.486 3.475,-0.909 5.746,2.293 8.906,2.488 6.828,0.414 10.158,-4.799 15.742,-7.393 6.006,-2.788 9.754,-0.649 15.477,2.843 -1.713,-6.133 -6.055,-11.398 -11.832,-12.302 -6.379,-0.996 -14.225,6.046 -21.516,6.936 -4.671,0.567 -7.159,-1.58 -10.828,-4.684 -2.297,1.515 -2.145,4.067 -2.007,6.384 z m 12.974,57.85 c 1.09,5.576 -0.129,12.712 4.727,14.063 -1.552,-13.744 -6.386,-27.356 -7.006,-43.548 -1.347,-0.841 -2.789,-1.093 -4.116,-0.272 2.051,8.588 4.578,20.444 6.395,29.757 z m 4.266,25.954 c 3.277,-1.531 1.149,-9.048 -1.679,-9.569 0.189,4.052 0.099,6.082 1.679,9.569 z" id="path7">
      </path>
    </g>
    <text id="text3340" y="831.49939" x="893.00592">
      <tspan style="font-style:normal;font-variant:normal;font-weight:normal;font-stretch:normal;font-size:70px;line-height:125%;font-family:'Alex Brush';-inkscape-font-specification:'Alex Brush, Normal';text-align:center;letter-spacing:0px;word-spacing:0px;writing-mode:lr-tb;text-anchor:middle;fill:#917c6f;fill-opacity:1;stroke:none;stroke-width:1px;stroke-linecap:butt;stroke-linejoin:miter;stroke-opacity:1;;" y="831.49939" x="893.00592" id="text01">
        YOUR NAME
      </tspan>
    </text>
  </g>
</svg>