<?xml version="1.0" encoding="utf-8"?>
<svg xmlns:dc="http://purl.org/dc/elements/1.1/" xmlns:cc="http://creativecommons.org/ns#" xmlns:rdf="http://www.w3.org/1999/02/22-rdf-syntax-ns#" xmlns:svg="http://www.w3.org/2000/svg" xmlns="http://www.w3.org/2000/svg" xmlns:xlink="http://www.w3.org/1999/xlink" version="1.1" x="0px" y="0px" width="1600" height="1000" viewBox="0 0 1600 1000" enable-background="new 15 -23.3 1569.9 1046.6" xml:space="preserve" id="svg2">
  <metadata id="metadata293">
    <rdf:RDF>
      <cc:Work rdf:about="">
        <dc:format>
          image/svg+xml
        </dc:format>
        <dc:type rdf:resource="http://purl.org/dc/dcmitype/StillImage">
        </dc:type>
        <dc:title>
        </dc:title>
      </cc:Work>
    </rdf:RDF>
  </metadata>
  <defs id="defs291">
    <clipPath id="clipPath4452" clipPathUnits="userSpaceOnUse">
      <path id="jd_bd" d="m 930.26093,590.10608 246.58717,0 0,257.69482 -246.58717,0 z" style="opacity:1;fill:none;fill-opacity:1;fill-rule:nonzero;stroke:#ffc300;stroke-width:2.20000005;stroke-linecap:butt;stroke-linejoin:miter;stroke-miterlimit:4;stroke-dasharray:none;stroke-dashoffset:0;stroke-opacity:1">
      </path>
    </clipPath>
  </defs>
  <image xlink:href="/designs/templates/002000101-0.jpg" overflow="visible" enable-background="new    " width="600" height="400" id="jd_bg" transform="matrix(2.6165 0 0 2.6165 15.0452 -23.303)">
  </image>
  <g clip-path="url(#clipPath4452)" id="jd_nt">
    <g id="graphic">
      <g id="g8">
        <linearGradient id="SVGID_1_" gradientUnits="userSpaceOnUse" x1="969.2249" y1="749.2556" x2="1025.1575" y2="749.2556">
          <stop offset="0" style="stop-color:#99693D" id="stop11">
          </stop>
          <stop offset="0.5" style="stop-color:#AA8059" id="stop13">
          </stop>
          <stop offset="1" style="stop-color:#C7AA8D" id="stop15">
          </stop>
        </linearGradient>
        <path fill="url(#SVGID_1_)" d="M1015.7,752.2c-4-7.4-8.2-14.6-12.2-22c-5.9-10.7-10.1-22-12.2-34.3c-0.4-2.1-0.6-4.3-0.9-6.4    c0-0.1-0.2-0.1-0.2,0c-1.1,10.9-0.3,21.5,1.8,32.1c2.4,11.8,6.4,22.9,11.6,33.6c3.2,6.6,6.2,13.4,8,20.7c1.4,5.7,1.5,12-3.7,15.6    c-4.1,2.9-9.4,2.4-13.8,0.7c-4-1.5-8.2-3.8-10.4-8c-2.3-4.5,0.1-9.6,3.8-12.1c6.1-4,13.1-1.4,19.6,0.2c0.2,0,0.8,0.2,1.2,0.3    c0.2,0.1,0.4-0.1,0.3-0.4c-0.1-0.5-0.4-1.3-0.5-1.7c-1.9-4.6-3.8-9.2-5.7-13.8c-0.2-0.5-0.5-1-0.9-1.2c-4.6-1.8-9.4-3.2-14.4-2.7    c-6.2,0.7-10.7,4.5-14,10c-4.4,7.3-5.2,14.9-2.1,23c1.8,4.6,4.2,8.7,7.1,12.6c3.2,4.2,7.4,6.5,12.3,7c5.5,0.5,11,0.8,16.6,0.8    c5.7,0,11.3,0.4,16.8,2.2c0.3,0.1,0.6,0.1,0.9,0.2c0,0,0.1,0,0.1-0.1c0.1-0.2,0.1-0.3,0.1-0.5c0.1-11.8,0.2-23.6-1.9-35.3    C1021.9,765.7,1019.2,758.8,1015.7,752.2z" id="path17">
        </path>
        <linearGradient id="SVGID_2_" gradientUnits="userSpaceOnUse" x1="1005.929" y1="687.7791" x2="1072.3264" y2="687.7791">
          <stop offset="0" style="stop-color:#99693D" id="stop20">
          </stop>
          <stop offset="0.5" style="stop-color:#AA8059" id="stop22">
          </stop>
          <stop offset="1" style="stop-color:#C7AA8D" id="stop24">
          </stop>
        </linearGradient>
        <path fill="url(#SVGID_2_)" d="M1072.1,631.4c-11.3-4-22.6-4.3-33.8,0.7c-5.8,2.6-11,6.3-15.5,11c-7.5,7.9-12.1,17.5-14.2,28.6    c-2.2,11.6-3.3,23.2-2.3,34.9c1,11.9,5,22.6,12,32c2.7,3.7,5.8,6.6,10.1,7.8c5,1.5,9.7,0.9,14.1-2c8.4-5.4,13.2-17.1,11-27    c-0.4-1.9-1.1-3.6-2.6-5.3c-0.1-0.1-0.2,0-0.2,0.1c1.4,5,0.7,9.5-1.8,13.3c-3.6,5.4-10.2,11-16.8,9.6    c-7.2-1.6-10.3-10.8-11.9-17.5c-2.2-9.3-2.1-18.7-0.8-28.1c1.5-11.1,4.4-21.9,9.1-31.9c6.8-14.6,18-22.9,33-25.3    c3.6-0.6,7.3-0.6,10.8-0.9C1072.4,631.6,1072.2,631.4,1072.1,631.4z" id="path26">
        </path>
        <linearGradient id="SVGID_3_" gradientUnits="userSpaceOnUse" x1="1017.4739" y1="726.4109" x2="1094.4993" y2="726.4109">
          <stop offset="0" style="stop-color:#99693D" id="stop29">
          </stop>
          <stop offset="0.5" style="stop-color:#AA8059" id="stop31">
          </stop>
          <stop offset="1" style="stop-color:#C7AA8D" id="stop33">
          </stop>
        </linearGradient>
        <path fill="url(#SVGID_3_)" d="M1088.3,731.1c1.5-7.4,3.1-12.3,6.2-19.2c0-0.1-0.1-0.2-0.1-0.1c-4.1,2.8-8.3,5.6-12.5,8.5    c-0.1,0-0.1,0-0.1-0.1c-0.4-1.6-0.8-3.1-1.2-4.6c-1.7-6.3-4.2-12.3-7.8-17.6c-2.7-4-3.2-8.1-2-12.7c0.1-0.4,0.2-0.8,0.2-1.2    c0-0.1-0.1-0.2-0.2-0.1c-2.2,2.8-4.3,5.8-4.9,9.6c-0.2,1.5,0,3.1,0.4,4.6c1.2,4.9,2.8,9.8,3.8,14.8c2.8,13.9-1.6,25.1-11.5,34.1    c-5.3,4.9-11.6,7.7-18.5,9.1c-3.2,0.6-6.2-0.2-9.1-1.5c-4.3-1.9-11.1-8.5-13.2-10.6c-0.1-0.1-0.4,0-0.3,0.2    c2.1,5.2,4.7,10,8.6,13.8c6.2,6.3,13.3,10.4,22.1,10.7c3.9,0.1,7.6-0.9,11.1-2.5c10.5-4.9,19.3-11.9,25.1-22.9    C1086.3,739.6,1087.5,735.4,1088.3,731.1z" id="path35">
        </path>
        <linearGradient id="SVGID_4_" gradientUnits="userSpaceOnUse" x1="975.553" y1="686.2214" x2="1028.2405" y2="686.2214">
          <stop offset="0" style="stop-color:#99693D" id="stop38">
          </stop>
          <stop offset="0.5" style="stop-color:#AA8059" id="stop40">
          </stop>
          <stop offset="1" style="stop-color:#C7AA8D" id="stop42">
          </stop>
        </linearGradient>
        <path fill="url(#SVGID_4_)" d="M991.2,682.6c1.6,10.5,3.5,20.4,7.2,29.9c3.5,9,8.4,17.1,14.3,24.6c0.1,0.2,0.4,0,0.3-0.2    c-2.1-4.7-8.3-19.2-8.9-29.8c-0.4-6-0.2-12,0.1-18c0.4-7.8,1.3-15.6,3.2-23.1c2.1-8.6,6.5-15.8,12.2-22c2.6-2.9,5.6-5.5,8.6-8.4    c0.1-0.1,0-0.2-0.1-0.2c-4.7,1.2-8.8,2.8-12.7,5c-11.6,6.4-21,15.5-27.9,27.4c-3.7,6.4-5.8,13.6-7.6,20.9    c-2.1,8.3-3.4,16.7-4.3,25.3c0,0.1,0.2,0.2,0.2,0c3.6-11.1,7.5-22.2,15.3-31.4C991.1,682.5,991.2,682.5,991.2,682.6z" id="path44">
        </path>
        <linearGradient id="SVGID_5_" gradientUnits="userSpaceOnUse" x1="1037.3684" y1="704.3923" x2="1069.2122" y2="704.3923">
          <stop offset="0" style="stop-color:#99693D" id="stop47">
          </stop>
          <stop offset="0.5" style="stop-color:#AA8059" id="stop49">
          </stop>
          <stop offset="1" style="stop-color:#C7AA8D" id="stop51">
          </stop>
        </linearGradient>
        <path fill="url(#SVGID_5_)" d="M1049.8,743.9c-2.8,4.5-6.6,7.7-11.2,10c-0.4,0.2-0.7,0.4-1.1,0.6c0,0,0,0.1-0.2,0.4    c1-0.1,2-0.1,2.8-0.3c13.7-3.5,24.1-12.3,28.4-29.1c1.6-6.5,0.1-12.8-2.1-18.9c-1.3-3.8-2.8-7.5-3.9-11.4c-1.5-5-0.1-9.1,3.5-12.4    c0,0,0,0,0,0c-0.2-0.4-0.1-0.3-0.3-0.7c-3.6,1.3-7.2,2.7-11,4.1c-0.1,0-0.1,0-0.1-0.1c-3-9.5,4.2-29,5.3-32c0-0.1-0.1-0.2-0.2-0.1    c-3.3,3.2-5.8,6.6-7.3,8.5c-6.1,7.6-8.3,17.2-9,27.2c-0.3,3.5,0.6,7.1,3.2,9.4c2.1,1.9,4.7,2.9,6.9,4.7c2.9,2.5,4.2,6.9,4.5,10.8    c0.3,5.2-0.6,10.9-2,15.8C1054.5,735.2,1052.4,739.7,1049.8,743.9z" id="path53">
        </path>
        <linearGradient id="SVGID_6_" gradientUnits="userSpaceOnUse" x1="968.259" y1="727.6589" x2="999.9192" y2="727.6589">
          <stop offset="0" style="stop-color:#99693D" id="stop56">
          </stop>
          <stop offset="0.5" style="stop-color:#AA8059" id="stop58">
          </stop>
          <stop offset="1" style="stop-color:#C7AA8D" id="stop60">
          </stop>
        </linearGradient>
        <path fill="url(#SVGID_6_)" d="M988.6,689.7c-5,5.7-14.8,33.2-16.1,44.7c0,0.1,0.1,0.2,0.2,0.1c3-6.9,5.8-13.6,9.8-19.7    c0.1-0.1,0.2,0,0.2,0c1,8.7,2.1,17.3,4.8,25.8c0,0.1,0,0.1-0.1,0.1c-3.5,0.8-6.7,1.9-9.4,4.4c-0.1,0.1-0.2,0-0.2-0.1    c0.7-2.9,1.3-5.9,2-8.9c0-0.1-0.1-0.2-0.2-0.1c-3.4,4.7-9.8,21.3-11.4,29.5c0,0.1,0.1,0.2,0.2,0.1c0.3-0.3,0.4-0.5,0.6-0.8    c2.2-2.8,4.4-5.6,6.7-8.3c5.2-5.9,11.7-7.4,19-6.2c1.6,0.3,3.2,0.8,5.1,1.3c0.1,0,0.1-0.1,0.1-0.1c-8-19.7-13.6-39.7-11.1-61.7    C988.8,689.7,988.7,689.6,988.6,689.7z" id="path62">
        </path>
        <linearGradient id="SVGID_7_" gradientUnits="userSpaceOnUse" x1="1027.4954" y1="817.2849" x2="1043.9143" y2="817.2849">
          <stop offset="0" style="stop-color:#99693D" id="stop65">
          </stop>
          <stop offset="0.5" style="stop-color:#AA8059" id="stop67">
          </stop>
          <stop offset="1" style="stop-color:#C7AA8D" id="stop69">
          </stop>
        </linearGradient>
        <path fill="url(#SVGID_7_)" d="M1034.8,822.6c-0.9-0.2-1.3-0.6-1.4-1.6c-1.2-6.2-2.4-12.4-3.6-18.6c-0.6-3-1.2-6-2-8.9    c-0.1-0.2-0.3-0.2-0.3,0v40.1c0,0.1,0.1,0.2,0.3,0.1c1.1-0.7,2.1-1.5,3.2-2.2c3.2-1.8,5-1.5,7.5,1.3c2,2.3,3.7,4.9,3.7,8.2    c0,0.2,0.2,0.2,0.3,0.1c1.8-4.2,1.9-8.4-0.3-12.6C1040.6,825.4,1038.2,823.2,1034.8,822.6z" id="path71">
        </path>
        <linearGradient id="SVGID_8_" gradientUnits="userSpaceOnUse" x1="1080.7092" y1="693.2595" x2="1094.0286" y2="693.2595">
          <stop offset="0" style="stop-color:#99693D" id="stop74">
          </stop>
          <stop offset="0.5" style="stop-color:#AA8059" id="stop76">
          </stop>
          <stop offset="1" style="stop-color:#C7AA8D" id="stop78">
          </stop>
        </linearGradient>
        <path fill="url(#SVGID_8_)" d="M1091.1,674.7c0.7-1.4,1.5-2.7,2.1-4.2c0-0.1-0.1-0.2-0.2-0.1c-2.5,2.8-11.2,11.1-12.2,22.1    c-0.4,7.9,0.6,15.6,2.2,23.2c0,0.1,0.1,0.2,0.2,0.4c0,0,0.1,0.1,0.1,0c3.4-1.9,6.8-3.9,10.6-6c0.1,0,0.1-0.2,0-0.2    c-1.8-0.4-3.3-0.7-4.7-1.1c-0.4-0.1-1-0.6-1.1-0.9c-1.3-6.8-2.5-13.6-1.6-20.6C1087,682.7,1089,678.7,1091.1,674.7z" id="path80">
        </path>
        <linearGradient id="SVGID_9_" gradientUnits="userSpaceOnUse" x1="1020.4641" y1="766.0115" x2="1042.1926" y2="766.0115">
          <stop offset="0" style="stop-color:#99693D" id="stop83">
          </stop>
          <stop offset="0.5" style="stop-color:#AA8059" id="stop85">
          </stop>
          <stop offset="1" style="stop-color:#C7AA8D" id="stop87">
          </stop>
        </linearGradient>
        <path fill="url(#SVGID_9_)" d="M1042.1,769.2c-7.2-1.5-12.8-6.1-17.8-11c0,0,0,0-0.1,0l-3.7-0.2c-0.1,0-0.1,0.1-0.1,0.1    c1,2.5,1.9,5.1,2.7,7.5c0.8,2.6,1.4,4.9,2.2,7.5c0.1,0.4,0.6,1,1,1c5.5-0.2,10.6-2.1,15.9-4.7    C1042.2,769.4,1042.2,769.2,1042.1,769.2z" id="path89">
        </path>
        <linearGradient id="SVGID_10_" gradientUnits="userSpaceOnUse" x1="1067.8323" y1="775.9216" x2="1083.1018" y2="775.9216">
          <stop offset="0" style="stop-color:#99693D" id="stop92">
          </stop>
          <stop offset="0.5" style="stop-color:#AA8059" id="stop94">
          </stop>
          <stop offset="1" style="stop-color:#C7AA8D" id="stop96">
          </stop>
        </linearGradient>
        <path fill="url(#SVGID_10_)" d="M1082.9,752.1c-2.7,2.4-5.3,4.7-7.9,7.1c-0.3,0.2-0.4,0.6-0.5,1c-2.5,8.1-4.8,16.2-6.1,24.5    c-0.8,5-0.6,10-0.1,15c0,0.1,0.2,0.1,0.2,0c0.6-3.6,1.1-7.3,1.8-10.9c1.5-8.9,4.4-17.4,8.2-25.5c1.5-3.3,2.9-6.7,4.3-10.1    c0.1-0.3,0.3-0.6,0.4-1C1083.1,752.1,1083,752,1082.9,752.1z" id="path98">
        </path>
        <linearGradient id="SVGID_11_" gradientUnits="userSpaceOnUse" x1="1047.1282" y1="787.5017" x2="1055.5471" y2="787.5017">
          <stop offset="0" style="stop-color:#99693D" id="stop101">
          </stop>
          <stop offset="0.5" style="stop-color:#AA8059" id="stop103">
          </stop>
          <stop offset="1" style="stop-color:#C7AA8D" id="stop105">
          </stop>
        </linearGradient>
        <path fill="url(#SVGID_11_)" d="M1047.3,804.7c3.4-11.2,7.6-22.3,8.2-34.4c0-0.1-0.1-0.1-0.1-0.1c-2.6,0.6-5,1.1-7.5,1.7    c-0.1,0-0.1,0.1-0.1,0.1c1.9,10.9,0.6,21.8-0.7,32.7C1047.1,804.8,1047.3,804.9,1047.3,804.7z" id="path107">
        </path>
        <linearGradient id="SVGID_12_" gradientUnits="userSpaceOnUse" x1="1048.5559" y1="824.073" x2="1064.3518" y2="824.073">
          <stop offset="0" style="stop-color:#99693D" id="stop110">
          </stop>
          <stop offset="0.5" style="stop-color:#AA8059" id="stop112">
          </stop>
          <stop offset="1" style="stop-color:#C7AA8D" id="stop114">
          </stop>
        </linearGradient>
        <path fill="url(#SVGID_12_)" d="M1057.3,822.2c-1.1-0.1-1.8-0.5-2.5-1.4c-1.6-2.3-4.6-6.2-5.9-7.5c-0.2-0.2-0.4,0-0.4,0.2    c1.3,4.2,2.5,8.4,3.8,12.6c0.5,1.6,1.5,2.3,3,2.3c3.8-0.2,6.5,1.5,8,5.3c0.2,0.4,0.3,0.8,0.5,1.2c0,0,0.1,0,0.3,0    c0.1,0,0.2-0.1,0.2-0.2c-0.3-2.6-0.3-5.1-0.9-7.4C1062.6,824.1,1060.3,822.5,1057.3,822.2z" id="path116">
        </path>
        <linearGradient id="SVGID_13_" gradientUnits="userSpaceOnUse" x1="1043.6155" y1="828.5974" x2="1055.1125" y2="828.5974">
          <stop offset="0" style="stop-color:#99693D" id="stop119">
          </stop>
          <stop offset="0.5" style="stop-color:#AA8059" id="stop121">
          </stop>
          <stop offset="1" style="stop-color:#C7AA8D" id="stop123">
          </stop>
        </linearGradient>
        <path fill="url(#SVGID_13_)" d="M1051.5,827.5c-0.4-0.3-0.9-0.7-1.3-0.7c-1.7,0-2.3-1.4-2.9-2.8c-0.8-1.9-2.6-5.8-3.3-7.1    c-0.1-0.2-0.3-0.1-0.3,0.1c0,4.7-0.4,10,1.5,14.5c0,0.1,0.1,0.1,0.2,0.1c3.8-0.9,6.8,1.9,8.2,8.6c0,0.2,0.2,0.2,0.3,0.1    C1056.2,836.2,1055.2,830.2,1051.5,827.5z" id="path125">
        </path>
        <linearGradient id="SVGID_14_" gradientUnits="userSpaceOnUse" x1="986.0286" y1="825.4939" x2="997.6155" y2="825.4939">
          <stop offset="0" style="stop-color:#99693D" id="stop128">
          </stop>
          <stop offset="0.5" style="stop-color:#AA8059" id="stop130">
          </stop>
          <stop offset="1" style="stop-color:#C7AA8D" id="stop132">
          </stop>
        </linearGradient>
        <path fill="url(#SVGID_14_)" d="M991.3,826.9c0.6-2.9,0.4-5.8-0.7-8.6c-0.6-1.6-1.6-2.9-3.2-3.8c-0.2-0.1-0.4,0.1-0.4,0.3    c0.1,0.6,0.1,1,0.2,1.5c0.2,2,0.3,4-0.4,6c-1.5,4-0.7,7.8,1.8,11.1c2,2.7,6.1,3.8,9.1,2.5c-0.1-0.1-0.2-0.2-0.3-0.2    C993.1,835.5,990.3,831.3,991.3,826.9z" id="path134">
        </path>
        <linearGradient id="SVGID_15_" gradientUnits="userSpaceOnUse" x1="1071.2551" y1="695.4919" x2="1080.8528" y2="695.4919">
          <stop offset="0" style="stop-color:#99693D" id="stop137">
          </stop>
          <stop offset="0.5" style="stop-color:#AA8059" id="stop139">
          </stop>
          <stop offset="1" style="stop-color:#C7AA8D" id="stop141">
          </stop>
        </linearGradient>
        <path fill="url(#SVGID_15_)" d="M1075.7,693.1c-1.5-2.2-2.8-5-3-8.9c-1.6,3.5-2.3,6.8-0.3,10.2c1.9,3.3,3.8,6.5,5.7,9.8    c0.6,1,1.1,2,1.7,3.3c-0.4-4.4-0.8-8.3-1-12.3c-0.2-4,0.8-7.9,2-11.7C1078,685.9,1076.2,689.1,1075.7,693.1z" id="path143">
        </path>
        <linearGradient id="SVGID_16_" gradientUnits="userSpaceOnUse" x1="999.1282" y1="828.5369" x2="1010.4055" y2="828.5369">
          <stop offset="0" style="stop-color:#99693D" id="stop146">
          </stop>
          <stop offset="0.5" style="stop-color:#AA8059" id="stop148">
          </stop>
          <stop offset="1" style="stop-color:#C7AA8D" id="stop150">
          </stop>
        </linearGradient>
        <path fill="url(#SVGID_16_)" d="M1005.2,818.5c-0.2-0.2-0.5,0-0.4,0.3c0.6,1.6,1.1,3,1.4,4.5c0.4,2.2,0.7,4.5,0.4,6.6    c-0.5,3.6-4.3,5.1-7,3.3c-0.2-0.1-0.4,0-0.4,0.3c0.2,2.2,2.1,4.3,4.4,5c2.5,0.7,4.5-0.1,5.7-2.4c1.3-2.5,1.5-5.3,1-8.1    C1009.6,824.2,1007.7,821.3,1005.2,818.5z" id="path152">
        </path>
        <linearGradient id="SVGID_17_" gradientUnits="userSpaceOnUse" x1="1000.1448" y1="819.4324" x2="1017.9788" y2="819.4324">
          <stop offset="0" style="stop-color:#99693D" id="stop155">
          </stop>
          <stop offset="0.5" style="stop-color:#AA8059" id="stop157">
          </stop>
          <stop offset="1" style="stop-color:#C7AA8D" id="stop159">
          </stop>
        </linearGradient>
        <path fill="url(#SVGID_17_)" d="M1017.8,809.2c-5.7-1.5-11.5-0.2-17.4,0.1c-0.3,0-0.3,0.4-0.1,0.5c7.4,4.6,11.4,11.3,11.7,20.4    c0,0.3,0.4,0.4,0.5,0.1c1.8-5.1,2.4-10.3,0.4-15.5c-0.7-1.7-0.3-2.6,1-3.3c1.3-0.6,2.6-1.2,4-1.7    C1018.1,809.6,1018,809.2,1017.8,809.2z" id="path161">
        </path>
        <linearGradient id="SVGID_18_" gradientUnits="userSpaceOnUse" x1="1051.0413" y1="782.408" x2="1063.3557" y2="782.408">
          <stop offset="0" style="stop-color:#99693D" id="stop164">
          </stop>
          <stop offset="0.5" style="stop-color:#AA8059" id="stop166">
          </stop>
          <stop offset="1" style="stop-color:#C7AA8D" id="stop168">
          </stop>
        </linearGradient>
        <path fill="url(#SVGID_18_)" d="M1063.4,766.7c0-0.1-0.1-0.2-0.1-0.1c-1.5,0.6-2.9,1.1-4.2,1.7c-0.2,0.1-0.4,0.6-0.5,1    c-1,9.6-4.2,18.5-7.2,27.5c-0.1,0.4-0.2,0.7-0.3,1.1c0,0.1,0.1,0.2,0.1,0.4C1055.9,788.1,1060.7,778,1063.4,766.7z" id="path170">
        </path>
        <linearGradient id="SVGID_19_" gradientUnits="userSpaceOnUse" x1="1066.3147" y1="683.3005" x2="1162.7327" y2="683.3005">
          <stop offset="0" style="stop-color:#99693D" id="stop173">
          </stop>
          <stop offset="0.5" style="stop-color:#AA8059" id="stop175">
          </stop>
          <stop offset="1" style="stop-color:#C7AA8D" id="stop177">
          </stop>
        </linearGradient>
        <path fill="url(#SVGID_19_)" d="M1159.6,684c-0.9-0.8-15.3-9.1-16.1-9.7c-0.3-0.2-0.4-0.5-0.4-0.9c0.1-1.7,0-3.3-0.8-4.8    c-0.5-1-1.3-1.8-2.3-2.3c-2.6-1.4-5.2-2.9-7.9-4.3c-6.1-3-12.1-5.5-17.2-10.2c-4.6-4.2-8.6-9.2-13.7-12.5    c-5.1-3.3-13.6-5.2-19.5-5.2c-5.2,0-10.4,0.9-15.3,2.8c-0.1,0-0.1,0.2,0,0.2c2.9-0.3,13-1.2,18.9,0.2c8.9,2,18.5,6.9,30.7,27.1    c2.1,3.4-7.4,5.1-10.6,3.9c-1.2-0.5-2.1-1.2-2.8-2.3c-0.1-0.1-0.2,0-0.2,0.1c0,0.7,0.1,1.5,0.3,2.1c0.3,1.5,0.6,3,1.1,4.4    c0.5,1.6,0.7,3.3,0,4.9c-0.5,1.4-1.5,2-2.8,2.1c-1.4,0.1-2.7-0.4-4-1c-0.2-0.1-0.4-0.2-0.6-0.3c-0.1,0-0.2,0-0.1,0.1    c0.2,0.5,0.3,1,0.5,1.3c0.4,0.8,0.8,1.5,1.2,2.3c1.2,2.1,1.4,4.3,0.6,6.7c-0.3,0.8-0.5,1.5-0.8,2.3c-1.1,2.9,0,5.1,1.6,6.7    c0.7,0.7,1.6,1.3,2.4,1.9c2.6,1.7,5.2,3.4,7.4,5.7c0.9,0.9,1.7,2,2.3,3.1c1.1,2.1,0.5,4.4-0.4,6.5c-0.7,1.7-1.8,3.3-3,4.6    c-5.8,5.9-15.2,11.4-17.2,12.5c-0.1,0.1-0.1,0.2,0.1,0.2c25.9-0.4,43.5-12.2,43.8-12.4c0,0,0,0,0,0c0.4-0.4,0.8-0.7,1.2-1.1    c0.1-0.1,0-0.2,0-0.2c-0.3-0.1-0.6-0.2-0.8-0.3c-0.5-0.2-1-0.4-1.1-1.1c-0.1-0.6,0.3-1,0.7-1.4c0.8-0.8,1.5-1.6,2.2-2.6    c0.4-0.5,0.6-1.1,0.8-1.7c-0.1-0.2-0.1-0.2-0.2-0.4c-0.3,0-0.7,0.1-1,0.1c-2.2,0.6-4.5,0.6-6.7,0.1c-4.2-1.1-4.5-5-3.6-7.7    c0.6-1.8,1.7-3.2,3-4.5c2.5-2.6,5.3-4.7,8.5-6.2c0.8-0.4,1.6-0.6,2.4-0.7c3-0.5,5.1,1.3,5.5,4.5c0.3,3-0.4,5.7-2.5,7.9    c-0.5,0.5-0.9,0.9-1.3,1.4c-0.4,0.4-0.3,0.6,0.2,0.8c0.1,0.1,0.3,0.1,0.5,0.1c2.8,0,5.6-0.4,8-2.2c0.7-0.5,1.4-1.2,2.1-1.7    c0.5-0.4,1.1-0.8,1.6-1.1c0.6-0.3,1.2-0.4,1.8-0.1c0.4,0.2,0.6,0.1,0.9-0.1c1.9-1.4,3.1-3.5,3.8-5.8c0.3-0.9,0.5-1.9,0.8-2.9    c0.2-0.7-0.1-1.2-0.5-1.7c-0.9-0.9-1.8-1.8-2.7-2.7c-0.1-0.1,0-0.2,0.1-0.2c1.3,0,3.9,1.8,4,1.8c0.7-1,0.9-1.4,0.3-2.7    C1161.8,686.1,1160.8,685,1159.6,684z M1128,716.7c0.2,0.1,0.3,0.2,0.6,0.4c-4.3,0.1-8.4,0.5-12.1,2.5c-0.1,0-0.2-0.1-0.1-0.2    c1.1-1.7,1.7-3.6,1.6-5.7c-0.2-3.6-1.4-6.7-3.7-9.3c-1.8-2-3.8-3.8-5.8-5.7c-1.9-1.8-3.8-3.7-5.1-6.1c-0.4-0.7-0.7-1.5-1-2.3    c0,0,0.1,0,0.1-0.1c0.3,0.6,0.7,1.2,1,1.8c1.2,2.1,2.9,3.5,5.3,3.8c0.7,0.1,1.1-0.2,1.4-0.7c0.2-0.3,0.3-0.7,0.4-1.1    c0.2-2.1-0.1-4-1.5-5.5c-1.2-1.3-2.5-2.4-3.8-3.6c-0.2-0.2-0.4-0.4-0.5-0.5c-0.1-0.1,0-0.2,0-0.2c0.3-0.1,0.5-0.1,0.7,0    c1.5,0.1,2.9,0,4.3-0.4c2-0.7,3-2.2,2.7-4.3c-0.1-0.9-0.4-1.9-0.9-2.6c-0.5-1-1.3-1.8-1.9-2.6c-0.2-0.3-0.4-0.5-0.6-0.8    c-0.2-0.3-0.4-0.5-0.6-0.8c0.2,0,0.2,0.1,0.3,0.1c4.1,3.5,7.4,7.8,9.7,12.9c1,2.3,2.1,4.7,3.1,7c0,0,0,0.1,0,0.1    c-0.1,0.1-0.2,0.2-0.3,0.3c-1.4,1.4-2.5,3.2-2.9,5.2c-0.8,3.9-0.2,7.5,1.7,10.9C1122.2,712.5,1124.9,714.8,1128,716.7z     M1136.9,677.2c-1.2-0.4-2.4-0.8-3.6-1.2c-1.8-0.5-3.4-1.2-4.8-2.6c-0.9-1-1.7-2-2.4-2.8c-0.1-0.1,0-0.2,0.1-0.2    c0.5,0.2,1.1,0.5,1.8,0.8c2.1,1,4.2,1.9,6.2,3c1.2,0.6,2.1,1.6,2.8,2.8C1137.1,677.2,1137,677.3,1136.9,677.2z" id="path179">
        </path>
        <linearGradient id="SVGID_20_" gradientUnits="userSpaceOnUse" x1="1055.6555" y1="674.9675" x2="1112.3694" y2="674.9675">
          <stop offset="0" style="stop-color:#99693D" id="stop182">
          </stop>
          <stop offset="0.5" style="stop-color:#AA8059" id="stop184">
          </stop>
          <stop offset="1" style="stop-color:#C7AA8D" id="stop186">
          </stop>
        </linearGradient>
        <path fill="url(#SVGID_20_)" d="M1109.3,665.8c4.7-0.7,3-1.2,1.1-4.3c-1.9-3.1-16.2-29.4-41.2-19.8c0,0,29.8,6.4,24.2,19.8    c-4.9,11.7-27.6-0.3-30-7.9c0,0-9.3,16-7.5,28.9c0,0,3-15.5,11.9-15.8c9-0.3,17.2,10,29.3-1.3c0,0-13.9,26.3-6.3,40.6l6.5,2.9    c0,0,8.6-0.7,11,1c2.5,1.8,0-4-7.2-7.2c-7.2-3.2-7.2-8.6-5.6-11.1s2.5-7.5-0.6-13.6c-1-1.9,1.1-0.3,4.5-0.3c3.4,0,2.9-3.1,1.7-6.9    c-1.3-3.8-0.2-8.1,0.8-9.2C1102,661.6,1104.7,666.6,1109.3,665.8z" id="path188">
        </path>
        <linearGradient id="SVGID_21_" gradientUnits="userSpaceOnUse" x1="1112.1184" y1="649.9783" x2="1131.4211" y2="649.9783">
          <stop offset="0" style="stop-color:#99693D" id="stop191">
          </stop>
          <stop offset="0.5" style="stop-color:#AA8059" id="stop193">
          </stop>
          <stop offset="1" style="stop-color:#C7AA8D" id="stop195">
          </stop>
        </linearGradient>
        <path fill="url(#SVGID_21_)" d="M1119.5,653C1119.5,653,1119.5,653.1,1119.5,653c3,2.2,6.9,4.6,11.8,6.6c0.1,0,0.2-0.1,0.1-0.2    c-1.2-1.9-8-13.5-6.2-18.9c0-0.1,0-0.1-0.1-0.1c-1.1-0.2-9.8-1.3-13,5.8c0,0,0,0.1,0,0.1l3.5,3.6c0.1,0.1,0.2,0,0.2-0.1    c0.1-0.6,0.5-2.4,2-3.7c0.6-0.5,0.9-0.6,1.2-0.7c0.1,0,0.2,0.1,0.1,0.2C1117.6,648.9,1119.3,652.7,1119.5,653z" id="path197">
        </path>
        <linearGradient id="SVGID_22_" gradientUnits="userSpaceOnUse" x1="1022.3821" y1="686.6199" x2="1089.8245" y2="686.6199">
          <stop offset="0" style="stop-color:#99693D" id="stop200">
          </stop>
          <stop offset="0.5" style="stop-color:#AA8059" id="stop202">
          </stop>
          <stop offset="1" style="stop-color:#C7AA8D" id="stop204">
          </stop>
        </linearGradient>
        <path fill="url(#SVGID_22_)" d="M1079.8,657.2c-7.1,1.7-13-4.3-14-5.4c-0.1-0.1-0.2,0-0.2,0.1c0.3,3.6,18.7,18.5,23.7,7.9    c5.2-10.9-33.1-21.1-43-15.8c-9.9,5.3-17.8,13.7-22.6,47.5c-1.4,9.9-1.6,17.3-0.9,22.9c0.3,2.5,0.4,5,1.2,7.5    c1.7,5.3,6,9,11.3,8.9c2.8-0.1,5.6-1.2,7.8-3c2.8-2.2,4.9-5.5,5.5-9.2c1.1-6.3-2.4-14-8.9-14.3c-3.1-0.2-5.8,1.4-7.5,4.2    c-1.8,2.9-2.2,7.2-0.2,10c1.5,2.1,3.8,3.4,6.2,3.6c0.2,0,0.4,0,0.5-0.2c0.5-0.4-3.1-1.9-3-4c0,0,0,0,0,0c1.2-6,11-0.4,5.1,5.9    c-4.9,5.3-13.6-3.1-11.5-13.4c1.5-7,8-8.2,8.8-8.4c0,0,0.1,0,0.1-0.1c2.4-33.3,13.4-47.1,23-51.7    C1071,645.4,1087.6,655.3,1079.8,657.2z" id="path206">
        </path>
        <linearGradient id="SVGID_23_" gradientUnits="userSpaceOnUse" x1="1046.7327" y1="638.1638" x2="1071.2727" y2="638.1638">
          <stop offset="0" style="stop-color:#99693D" id="stop209">
          </stop>
          <stop offset="0.5" style="stop-color:#AA8059" id="stop211">
          </stop>
          <stop offset="1" style="stop-color:#C7AA8D" id="stop213">
          </stop>
        </linearGradient>
        <path fill="url(#SVGID_23_)" d="M1066.3,634.4c0.1-0.1,0-0.2-0.1-0.2c-2.2,0.2-13.4,1.4-19.4,7c-0.1,0.1,0,0.2,0.1,0.2    c1.7-0.4,8.8-1.8,18.8,0.8c0,0,0,0,0.1,0l5.4-2.9c0.1,0,0.1-0.2,0-0.2l-9.1-0.2c-0.1,0-0.1-0.1-0.1-0.1    C1062.7,636.9,1065.3,635,1066.3,634.4z" id="path215">
        </path>
        <linearGradient id="SVGID_24_" gradientUnits="userSpaceOnUse" x1="1058.3752" y1="674.9304" x2="1087.4641" y2="674.9304">
          <stop offset="0" style="stop-color:#99693D" id="stop218">
          </stop>
          <stop offset="0.5" style="stop-color:#AA8059" id="stop220">
          </stop>
          <stop offset="1" style="stop-color:#C7AA8D" id="stop222">
          </stop>
        </linearGradient>
        <path fill="url(#SVGID_24_)" d="M1073.3,669.6c-8.3-3.7-14,6.6-14.9,11.4c0,0,5.5-9.4,13.2-5.5c7.7,3.9,14.6-2.1,15.9-2.8    C1087.5,672.7,1081.5,673.3,1073.3,669.6z" id="path224">
        </path>
        <linearGradient id="SVGID_25_" gradientUnits="userSpaceOnUse" x1="1027.5139" y1="796.4167" x2="1046.5637" y2="796.4167">
          <stop offset="0" style="stop-color:#99693D" id="stop227">
          </stop>
          <stop offset="0.5" style="stop-color:#AA8059" id="stop229">
          </stop>
          <stop offset="1" style="stop-color:#C7AA8D" id="stop231">
          </stop>
        </linearGradient>
        <path fill="url(#SVGID_25_)" d="M1043.7,771.5c0-0.1-0.1-0.1-0.1,0c-0.9,0.6-7.8,4.8-15.9,5.6c-0.1,0-0.1,0.1-0.1,0.1l7.1,42.2    c0,0.1,0,0.1,0.1,0.1c0.5,0,2.9,0,5.1,2c0.1,0.1,0.2,0,0.2-0.1l0.8-18.9c0-0.7,0.9-0.8,1.1-0.2l4.3,15c0,0.1,0.2,0.1,0.2,0    c-0.4-3-1.3-9.9-0.6-14C1046.7,797.8,1047.5,779.7,1043.7,771.5z" id="path233">
        </path>
        <linearGradient id="SVGID_26_" gradientUnits="userSpaceOnUse" x1="1057.2288" y1="798.3474" x2="1092.2043" y2="798.3474">
          <stop offset="0" style="stop-color:#99693D" id="stop236">
          </stop>
          <stop offset="0.5" style="stop-color:#AA8059" id="stop238">
          </stop>
          <stop offset="1" style="stop-color:#C7AA8D" id="stop240">
          </stop>
        </linearGradient>
        <path fill="url(#SVGID_26_)" d="M1076,816.2c-0.5,0.1-1.1-0.1-1.4-0.4c-4.7-5.6-7.9-12.1-8.1-19.8c-0.1-5.1,0.4-10,1.2-15l0-0.1    l4.5-19.7c0-0.1-0.1-0.2-0.2-0.1l-6.7,4.9c0,0,0,0,0,0.1c-2.5,12.8-7.7,22.6-8.1,23.3c0,0,0,0.1,0,0.1l4.2,15.4    c0.1,0.5,0.2,1,0.4,1.4c1.8,5.5,3.5,11,5.2,16.6c0,0.1,0.1,0.1,0.1,0.1c0.8-0.2,1.3-0.3,1.7-0.4c3-0.6,5.3,0.5,6.4,3.5    c0.9,2.4,1.3,5,1.9,7.6c0.1,0.6,0.1,1.3,0.2,2c0,0.1,0.1,0.1,0.2,0.1c2.9-2.8,3.4-7.6,1.4-13.7c0-0.1,0-0.1,0.1-0.1    c2.8-0.1,5.5,0,7.8,1.7c1,0.7,1.9,2,2.3,3.3c0.7,2.1,1.1,4.4,1.7,6.9c0,0.1,0.1,0.1,0.2,0c1.2-2.7,1.4-5.4,0.6-8.1    C1089.7,818.7,1082.4,814.4,1076,816.2z" id="path242">
        </path>
        <linearGradient id="SVGID_27_" gradientUnits="userSpaceOnUse" x1="966.2551" y1="805.5505" x2="1004.6057" y2="805.5505">
          <stop offset="0" style="stop-color:#99693D" id="stop245">
          </stop>
          <stop offset="0.5" style="stop-color:#AA8059" id="stop247">
          </stop>
          <stop offset="1" style="stop-color:#C7AA8D" id="stop249">
          </stop>
        </linearGradient>
        <path fill="url(#SVGID_27_)" d="M1001.2,831.8c-0.1,0.2,0,0.4,0.2,0.4c2.9,0.4,3.3-3.7,3.3-6.1c0-4-1.6-8.1-4.4-10.8    c-3.5-3.3-7.7-4.7-12.1-5.9c-6.7-1.9-11.3-6.6-15.3-12.1c-1.8-2.4-2.8-5.1-3.6-8c-0.9-3.5-1.7-7-2.6-10.5    c-0.1,0.1-0.2,0.2-0.2,0.3c-0.4,6.2-0.5,12.4,1.1,18.5c0.6,2.3,1.7,4.3,3.2,6c1.9,2.2,3.8,4.5,5.7,6.7c2,2.3,3.1,5,2.8,8.2    c-0.4,5.1,2.2,8.6,5.5,11.9c0.2,0.2,0.5,0,0.4-0.3c-0.4-1.8-0.8-3.4-1.1-5c-0.2-1-0.2-2.1,0.1-3c1-3.2,1.2-6.3,0.1-9.4    c-0.1-0.2,0.1-0.4,0.2-0.4c8.1,0.6,8.4,8.2,8.4,9.6c0,0.1,0.1,0.2,0.2,0.3c0.4,0.2,1.9,0.8,5.9,3.2    C1003.4,827.9,1001.9,830.8,1001.2,831.8z" id="path251">
        </path>
        <linearGradient id="SVGID_28_" gradientUnits="userSpaceOnUse" x1="1069.9202" y1="802.5164" x2="1096.3206" y2="802.5164">
          <stop offset="0" style="stop-color:#99693D" id="stop254">
          </stop>
          <stop offset="0.5" style="stop-color:#AA8059" id="stop256">
          </stop>
          <stop offset="1" style="stop-color:#C7AA8D" id="stop258">
          </stop>
        </linearGradient>
        <path fill="url(#SVGID_28_)" d="M1092.2,816.8c-1.4-1.4-3.4-1.6-5.1-2.2c-1.9-0.7-3.6-1.7-5.1-3.2c-2-1.9-4.1-3.9-5.7-6.3    c-1.6-2.4-2-5.3-2.5-8.2c-0.9-5.6,0.1-12.7,0.7-17.5c0-0.3-0.4-0.5-0.5-0.2l-1.2,3.9c-2.2,6.8-2.4,10.7-2.8,16.4    c-0.3,5.3,2.6,10.6,5.6,14.5c0,0,0,0,0.1,0c2.1-0.1,4.3,0.1,6.4,0.5c1.5,0.3,3,0.7,4.3,1.6c1.3,0.9,2.4,2.1,3.5,3.2    c0.5,0.5,1.3,0.4,2,0.6c1.8,0.5,3.2,2.4,3.8,4.2c0.2,0.5,0.3,1,0.7,1.5c0-0.3,0.1-0.7,0-1C1095.8,821.6,1094.4,819,1092.2,816.8z" id="path260">
        </path>
        <linearGradient id="SVGID_29_" gradientUnits="userSpaceOnUse" x1="945.6653" y1="746.5486" x2="967.0862" y2="746.5486">
          <stop offset="0" style="stop-color:#99693D" id="stop263">
          </stop>
          <stop offset="0.5" style="stop-color:#AA8059" id="stop265">
          </stop>
          <stop offset="1" style="stop-color:#C7AA8D" id="stop267">
          </stop>
        </linearGradient>
        <path fill="url(#SVGID_29_)" d="M966.7,764.6C966.7,764.6,966.7,764.6,966.7,764.6C966.7,764.6,966.7,764.6,966.7,764.6    L966.7,764.6L966.7,764.6L966.7,764.6C966.8,764.6,966.7,764.6,966.7,764.6c0,0-0.1,0-0.1-0.1c-0.1,0-0.1-0.1-0.2-0.1    c-0.3-0.2-0.7-0.5-1.2-1.1c-0.3-0.3-0.5-0.7-0.8-1.1c-0.2-0.2-0.3-0.5-0.5-0.7c-0.1-0.1-0.2-0.3-0.2-0.4l-0.1-0.1l0-0.1    c-0.1-0.2,0.1,0.2,0.1,0.2l0,0c0-0.1-0.1-0.2-0.2-0.3c-0.2-0.4-0.4-0.8-0.6-1.2c-0.1-0.2-0.2-0.4-0.3-0.6    c-0.1-0.1-0.1-0.2-0.1-0.3l-0.1-0.2c-0.3-0.7-0.6-1.3-1-2.2c-0.2-0.4-0.3-0.8-0.5-1.3c-0.2-0.4-0.3-0.9-0.5-1.4    c-0.1-0.2-0.2-0.5-0.2-0.7c-0.1-0.2-0.1-0.5-0.2-0.7c-0.1-0.5-0.3-1-0.4-1.5c-0.5-2.1-1-4.3-1.3-6.8c-0.3-2.4-0.4-5-0.4-7.8    c0-2.7,0.2-5.6,0.6-8.6c0.1-0.7,0.2-1.4,0.3-2.2c0.1-0.8,0.3-1.6,0.4-2.5c0.1-0.7,0.3-1.5,0.5-2.2c0.2-0.8,0.4-1.6,0.5-2.4    c0.2-1,0.5-1.9,0.8-2.9c0.1-0.5-0.3-0.9-0.7-0.8l-11.2,4.1c-0.2,0.1-0.3,0.2-0.4,0.4c-0.1,0.4-0.2,0.8-0.3,1.3    c-0.2,0.8-0.4,1.6-0.6,2.4c-0.2,0.9-0.4,1.8-0.5,2.7c-0.6,3.5-1.1,6.9-1.3,10.2c-0.2,3.3-0.2,6.5,0,9.6c0.2,3.1,0.6,6,1.1,8.7    c0.1,0.7,0.3,1.3,0.4,2c0.1,0.3,0.2,0.7,0.2,1c0.1,0.3,0.2,0.6,0.3,1c0.2,0.6,0.4,1.2,0.5,1.9c0.2,0.6,0.4,1.2,0.6,1.8    c0.4,1.1,0.9,2.3,1.3,3.4c0.1,0.1,0.1,0.3,0.2,0.4c0.1,0.1,0.1,0.3,0.2,0.4c0.1,0.2,0.2,0.4,0.3,0.6c0.2,0.4,0.4,0.8,0.6,1.2    c0,0.1,0.1,0.2,0.1,0.3c0.1,0.2,0.2,0.4,0.3,0.5c0.1,0.2,0.2,0.5,0.4,0.7c0.2,0.4,0.5,0.9,0.7,1.3c0.5,0.9,1,1.7,1.6,2.4    c1.1,1.5,2.3,2.8,3.5,3.7c0.3,0.2,0.6,0.5,0.8,0.7c0.3,0.2,0.5,0.4,0.8,0.5c0.1,0.1,0.2,0.2,0.4,0.2l0.1,0.1l0.1,0.1    c0.1,0,0.1,0.1,0.2,0.1c0.3,0.2,0.5,0.3,0.7,0.4c0.1,0,0.1,0.1,0.2,0.1c0.3,0.1,0.7,0,0.8-0.3l4.9-12.9    C967.2,765.1,967,764.7,966.7,764.6z" id="path269">
        </path>
        <linearGradient id="SVGID_30_" gradientUnits="userSpaceOnUse" x1="949.7512" y1="658.6599" x2="991.2815" y2="658.6599">
          <stop offset="0" style="stop-color:#99693D" id="stop272">
          </stop>
          <stop offset="0.5" style="stop-color:#AA8059" id="stop274">
          </stop>
          <stop offset="1" style="stop-color:#C7AA8D" id="stop276">
          </stop>
        </linearGradient>
        <path fill="url(#SVGID_30_)" d="M956.8,637.7c1,0.1,2.6,0.4,3.4,0.9c0.3,0.2,0.7,0,0.8-0.4c1.9-8.4,2.6-16.8,8.5-23.4    c3.1-3.5,9.8-5.4,13-0.9c2.1,3.1,2.4,7.8,2.1,11.4c-1.3,15.5-8.5,30-15.3,43.3c-3.6,6.9-7.2,13.8-10.5,20.7    c-3.3,6.9-6.2,13.9-8.3,20.9c-0.2,0.6-0.5,1.8-0.7,2.6c-0.1,0.3,0.2,0.6,0.5,0.5l11.4-3.9c0.2-0.1,0.3-0.2,0.3-0.4    c1.4-5,3.3-10.1,5.4-15.4c2.8-6.8,6-13.8,9.2-21c1.6-3.6,3.2-7.3,4.7-11.1c3.5-8.6,7-17.3,8.5-26.6c1.5-9,3.4-23.1-4.9-28.9    c-1.2-0.9-2.7-1.5-4.1-1.8c-5.1-1.2-10.9,0.4-14.9,3.9c-4.5,3.9-7,10.8-8.1,16.8c-0.6,3.4-1.5,9.6-1.8,11.8    C956.1,637.2,956.4,637.6,956.8,637.7z" id="path278">
        </path>
        <linearGradient id="SVGID_31_" gradientUnits="userSpaceOnUse" x1="942.7932" y1="661.1208" x2="964.1809" y2="661.1208">
          <stop offset="0" style="stop-color:#99693D" id="stop281">
          </stop>
          <stop offset="0.5" style="stop-color:#AA8059" id="stop283">
          </stop>
          <stop offset="1" style="stop-color:#C7AA8D" id="stop285">
          </stop>
        </linearGradient>
        <path fill="url(#SVGID_31_)" d="M949.3,658.3c0.4-1.9,1.2-5.9,3.8-4.5c1.9,1,1.4,4.5,0.3,5.9c-4,4.8-5.8,16.3-4.5,21.4    c0.1,0.3,0.5,0.3,0.6-0.1c0.3-3,1.7-10.2,8.2-14.5c8.3-5.5,6.3-17.6,6.3-17.6s-0.8-4.4-4-6.8c-1.2-0.9-2.8-1.4-4.8-1.4    c-0.1,0-0.1,0-0.2,0c-7.1,0.4-9.6,5.8-9.7,14.9c-0.1,5.4-1.5,8.6-2.5,10.3c-0.2,0.3,0.2,0.6,0.4,0.4    C946.2,664.4,948.4,662.1,949.3,658.3z" id="path287">
        </path>
      </g>
    </g>
  </g>
</svg>