<?xml version="1.0" encoding="UTF-8" standalone="no"?>
<?xml-stylesheet type="text/css" href="https://fonts.googleapis.com/css?family=sans-serif|Meie+Script"?>
<svg xmlns:dc="http://purl.org/dc/elements/1.1/" xmlns:cc="http://creativecommons.org/ns#"
     xmlns:rdf="http://www.w3.org/1999/02/22-rdf-syntax-ns#" xmlns:svg="http://www.w3.org/2000/svg"
     xmlns="http://www.w3.org/2000/svg" xmlns:xlink="http://www.w3.org/1999/xlink" version="1.1" id="svg1680" x="0px"
     y="0px" viewBox="0 0 1600 1000" style="enable-background:new 0 0 1600 1000;">
    <metadata id="metadata76">
        <rdf:RDF>
            <cc:Work rdf:about="">
                <dc:format>image/svg+xml</dc:format>
                <dc:type rdf:resource="http://purl.org/dc/dcmitype/StillImage"/>
                <dc:title></dc:title>
            </cc:Work>
        </rdf:RDF>
    </metadata>
    <defs id="defs74">
        <clipPath id="clipPath4163" clipPathUnits="userSpaceOnUse">
            <path id="jd_bd" d="m 364.28571,192.85715 828.57149,0 0,650 -828.57149,0 z"
                  style="opacity:1;fill:none;fill-opacity:1;stroke:#ffffff;stroke-width:2.21399999;stroke-linecap:butt;stroke-linejoin:miter;stroke-miterlimit:4;stroke-dasharray:none;stroke-dashoffset:0;stroke-opacity:1"/>
        </clipPath>
    </defs>
    <style type="text/css" id="style3">
        .st0{fill:none;stroke:#FFFFFF;stroke-width:2.3288;stroke-dasharray:9.3151,2.3288;}
        .st1{fill:#FF9966;}
        .st2{fill:none;stroke:#FF9966;stroke-miterlimit:10;}
    </style>
    <image xlink:href="/designs/templates/002000101-0.jpg" style="overflow:visible;enable-background:new    ;"
           width="600" height="400" id="jd_bg" transform="matrix(2.6165 0 0 2.6165 15.0453 -23.3031)"/>
    <g clip-path="url(#clipPath4163)" id="jd_nt">
        <g id="g8">
            <g id="g10">
                <path class="st1"
                      d="M879.3,314.7c16.3,10,33.5,19.6,52.7,22.3c16,2.2,29.8,1,41-2.6c9.7,2,19.7,2.7,29.5,2.2    c13.4-0.7,22.7-4.8,29.1-10.8c5.8,1.8,11.8,3.4,17.8,4.8c23.3,5.5,42.7-9.4,37-31c-3.8-14.6-25.3-25.6-45.7-17.8    c-7.5-18-26.1-25.8-52.9-23.2c-10.3-7.3-24.3-11.4-40.8-11.2c-13.7,0.2-26,3-37.5,7.5c-3.1-1.9-6.3-3.7-9.5-5.5    c-29.9-16.2-68.1-27.2-102.2-23.6c-54.1,5.5-92.4,57.8-53.3,98.8c-24.1-39.6-0.6-84.1,55.4-89.5c34.2-3.2,60.9,4.7,91.5,19.9    c2.6,1.3,5.3,2.8,8.2,4.4c-7.8,3.9-15.5,8.5-23,13.6c-21.7-10.9-43.5-21.7-76.7-21.7c-26.3,0-49.2,22.1-36.5,47.6    c-4.7-24.1,16.8-62.7,106.3-21.1c-6.2,4.5-12.3,9.1-18.4,13.7c-10.4-3.7-20.7-5-32.3-3.4c11.2,0.6,20.8,4.6,30.8,9.3    C860.1,302.2,869.7,308.8,879.3,314.7L879.3,314.7z M900.6,295.9c-8.7-5.7-17.6-11.2-27-16c-6.2,4.3-12.2,8.7-18.3,13.3    c10.4,4.5,19.6,10.8,28.9,17.1c14.6,10,29.3,20,48.2,22.7c12.5,1.8,23.4,1.3,32.6-0.6c-8.1-2.4-16-5.7-23.5-10.1    C927.4,314,914.3,304.8,900.6,295.9L900.6,295.9z M906.1,291.5c8-6,14.8-10.2,24.2-13.8c19,11.4,41.3,24.4,66.4,35.3    c-4.9,7.2-12.7,13.3-23.4,17.1c-9.5-2.2-18.9-6-28.3-11.8C931.5,310.2,919,300.5,906.1,291.5L906.1,291.5z M903.1,289.3    c-7.3-5-14.6-9.9-22.4-14.2c7.6-5,15.2-9.5,23.2-13.3c6.8,3.9,14.3,8.5,22.5,13.4C917.7,278.9,910.4,283.6,903.1,289.3    L903.1,289.3z M1000.5,314.6c8.5,3.6,17.4,6.8,26.4,9.9c-5.8,4.6-13.8,7.7-24.6,8.3c-7.5,0.3-14.8,0-21.9-1.1    C989.3,327.3,996.1,321.4,1000.5,314.6L1000.5,314.6z M982,259.3c-13.4,1.9-28.9,6-46.4,12.4c-7.3-4.9-14.4-9.6-21.8-14.2    c10.8-4,21.9-6.5,33.9-6.7C961.5,250.5,973.2,253.8,982,259.3L982,259.3z M987.4,263c9.6,7.7,15.1,18.1,15.8,28.3    c0.3,5.8-1,12.1-4.1,17.8c-23.1-10.4-41.7-22.8-59.6-34.8C957.9,267.8,973.8,264.1,987.4,263L987.4,263z M1002.7,310.8    c3.2-6.4,4.6-13.3,3.9-20.4c-1-10.9-5.9-20.4-13.8-27.8c21.9-0.6,37.1,5.9,44,20.8c-5.2,2.7-10.9,5.8-15.8,11.2    c6.3-3.4,12.1-5.7,17.4-7.3c2.7,8.7,1.6,23.3-8,33.6C1020.5,318,1011.4,314.5,1002.7,310.8L1002.7,310.8z M1035,322.4    c9.1-11.2,9.6-26.4,7.4-35.9c49.9-11.9,52.5,50.3,5.8,39.3C1043.6,324.7,1039.2,323.6,1035,322.4L1035,322.4z"
                      id="path12"/>
                <path class="st1"
                      d="M684.7,314.7c-16.3,10-33.5,19.6-52.7,22.3c-16,2.2-29.8,1-41-2.6c-9.7,2-19.7,2.7-29.5,2.2    c-13.4-0.7-22.7-4.8-29.1-10.8c-5.8,1.8-11.8,3.4-17.8,4.8c-23.3,5.5-42.7-9.4-37-31c3.8-14.6,25.3-25.6,45.7-17.8    c7.5-18,26.1-25.8,52.9-23.2c10.3-7.3,24.3-11.4,40.8-11.2c13.7,0.2,26,3,37.5,7.5c3.1-1.9,6.3-3.7,9.5-5.5    c29.9-16.2,68.1-27.2,102.2-23.6c54.1,5.5,92.4,57.8,53.3,98.8c24.1-39.6,0.6-84.1-55.4-89.5c-34.2-3.2-60.9,4.7-91.5,19.9    c-2.6,1.3-5.3,2.8-8.2,4.4c7.8,3.9,15.5,8.5,23,13.6c21.7-10.9,43.5-21.7,76.7-21.7c26.3,0,49.2,22.1,36.5,47.6    c4.7-24.1-16.8-62.7-106.3-21.1c6.2,4.5,12.3,9.1,18.4,13.7c10.4-3.7,20.7-5,32.3-3.4c-11.2,0.6-20.8,4.6-30.8,9.3    C704.1,302.2,694.4,308.8,684.7,314.7L684.7,314.7z M663.4,295.9c8.7-5.7,17.6-11.2,27-16c6.2,4.3,12.2,8.7,18.3,13.3    c-10.4,4.5-19.6,10.8-28.9,17.1c-14.7,10-29.3,20-48.2,22.7c-12.5,1.8-23.4,1.3-32.6-0.6c8.1-2.4,16-5.7,23.5-10.1    C636.7,314,649.8,304.8,663.4,295.9L663.4,295.9z M657.9,291.5c-8-6-14.8-10.2-24.2-13.8c-19,11.4-41.3,24.4-66.4,35.3    c4.9,7.2,12.7,13.3,23.4,17.1c9.5-2.2,18.9-6,28.3-11.8C632.6,310.2,645.2,300.5,657.9,291.5L657.9,291.5z M661,289.3    c7.3-5,14.6-9.9,22.4-14.2c-7.6-5-15.2-9.5-23.2-13.3c-6.8,3.9-14.3,8.5-22.5,13.4C646.3,278.9,653.8,283.6,661,289.3L661,289.3z     M563.5,314.6c-8.5,3.6-17.4,6.8-26.4,9.9c5.8,4.6,13.8,7.7,24.6,8.3c7.5,0.3,14.8,0,21.9-1.1C574.8,327.3,568,321.4,563.5,314.6    L563.5,314.6z M582,259.3c13.4,1.9,28.9,6,46.4,12.4c7.3-4.9,14.4-9.6,21.8-14.2c-10.8-4-21.9-6.5-33.9-6.7    C602.5,250.5,591,253.8,582,259.3L582,259.3z M576.7,263c-9.6,7.7-15.1,18.1-15.8,28.3c-0.3,5.8,1,12.1,4,17.8    c23.1-10.4,41.7-22.8,59.6-34.8C606.2,267.8,590.2,264.1,576.7,263L576.7,263z M561.3,310.8c-3.2-6.4-4.6-13.3-3.9-20.4    c1-10.9,5.9-20.4,13.8-27.8c-21.9-0.6-37.1,5.9-44,20.8c5.2,2.7,10.9,5.8,15.8,11.2c-6.3-3.4-12.1-5.7-17.4-7.3    c-2.7,8.7-1.6,23.3,8,33.6C543.5,318,552.8,314.5,561.3,310.8L561.3,310.8z M529.1,322.4c-9.1-11.2-9.6-26.4-7.4-35.9    c-49.9-11.9-52.5,50.3-5.8,39.3C520.5,324.7,524.9,323.6,529.1,322.4L529.1,322.4z"
                      id="path14"/>
            </g>
            <g id="g16">
                <g id="g18">
                    <path class="st1"
                          d="M796,289.4c-8.4-2.6-14.1,1.7-15.8,6.6c-1.9,5.7,0.3,13.2,9.9,17.9c12.5,6,27.7,1.8,41.4-1.5l1.2-0.3     c52.6-12.4,55.7,22.5,34.7,22.1c8.4,2.6,14.1-1.7,15.8-6.6c1.9-5.7-0.3-13.2-9.9-17.9c-12.5-6-27.7-1.8-41.4,1.5l-1.2,0.3     C778.1,323.9,775.1,289,796,289.4L796,289.4z"
                          id="path20"/>
                    <path class="st1"
                          d="M877.8,339.7c6.7,2,11.3-1.3,12.7-5.3c1.6-4.6-0.2-10.6-7.8-14.3c-10-4.9-22.2-1.5-33.3,1.2l-1,0.2     c-42.2,10-44.7-18-27.9-17.7c-6.7-2-11.3,1.3-12.7,5.3c-1.6,4.6,0.2,10.6,8,14.3c10,4.9,22.2,1.5,33.3-1.2l1-0.2     C892.1,312.2,894.6,340.2,877.8,339.7L877.8,339.7z"
                          id="path22"/>
                </g>
                <g id="g24">
                    <path class="st1"
                          d="M768.1,289.4c8.4-2.6,14.1,1.7,15.8,6.6c1.9,5.7-0.3,13.2-9.9,17.9c-12.5,6-27.7,1.8-41.4-1.5l-1.2-0.3     c-52.6-12.4-55.7,22.5-34.7,22.1c-8.4,2.6-14.1-1.7-15.8-6.6c-1.9-5.7,0.3-13.2,9.9-17.9c12.5-6,27.7-1.8,41.4,1.5l1.2,0.3     C786,323.9,789.1,289,768.1,289.4L768.1,289.4z"
                          id="path26"/>
                    <path class="st1"
                          d="M686.4,339.7c-6.7,2-11.3-1.3-12.7-5.3c-1.6-4.6,0.2-10.6,8-14.3c10-4.9,22.2-1.5,33.3,1.2l1,0.2     c42.2,10,44.7-18,27.9-17.7c6.7-2,11.3,1.3,12.7,5.3c1.6,4.6-0.2,10.6-8,14.3c-10,4.9-22.2,1.5-33.3-1.2l-1-0.2     C671.9,312.2,669.6,340.2,686.4,339.7L686.4,339.7z"
                          id="path28"/>
                </g>
            </g>
        </g>
        <g id="g30">
            <g id="g32">
                <g id="g34">
                    <path class="st1"
                          d="M801.7,747c-10.2,3.1-17.1-2-19.2-8c-2.4-7,0.4-16.2,12-21.8c15.2-7.4,33.6-2.2,50.4,1.8l1.5,0.3     c64,15.1,67.7-27.4,42.3-26.8c10.2-3.1,17.1,2,19.2,8.1c2.4,7-0.4,16.1-12,21.8c-15.2,7.4-33.6,2.2-50.4-1.8l-1.5-0.3     C779.8,705.1,776.1,747.5,801.7,747L801.7,747z"
                          id="path36"/>
                    <path class="st1"
                          d="M901.1,685.9c8.2-2.5,13.8,1.6,15.4,6.5c1.8,5.6-0.3,12.9-9.6,17.5c-12.2,5.9-27.1,1.7-40.4-1.4l-1.2-0.3     c-51.3-12.1-54.3,22-33.8,21.5c-8.2,2.5-13.8-1.6-15.4-6.5c-1.8-5.6,0.3-12.9,9.6-17.5c12.2-5.9,27.1-1.7,40.4,1.4l1.2,0.3     C918.5,719.5,921.4,685.4,901.1,685.9L901.1,685.9z"
                          id="path38"/>
                </g>
                <g id="g40">
                    <path class="st1"
                          d="M767.7,747c10.2,3.1,17.1-2,19.2-8c2.4-7-0.4-16.2-12-21.8c-15.2-7.4-33.6-2.2-50.4,1.8l-1.5,0.3     c-64,15.1-67.7-27.4-42.3-26.8c-10.2-3.1-17.1,2-19.2,8.1c-2.4,7,0.4,16.1,12,21.8c15.2,7.4,33.6,2.2,50.4-1.8l1.5-0.3     C789.5,705.1,793.2,747.5,767.7,747L767.7,747z"
                          id="path42"/>
                    <path class="st1"
                          d="M668.3,685.9c-8.2-2.5-13.8,1.6-15.4,6.5c-1.8,5.6,0.3,12.9,9.6,17.5c12.2,5.9,27.1,1.7,40.4-1.4l1.2-0.3     c51.3-12.1,54.3,22,33.8,21.5c8.2,2.5,13.8-1.6,15.4-6.5c1.8-5.6-0.3-12.9-9.6-17.5c-12.2-5.9-27.1-1.7-40.4,1.4l-1.2,0.3     C650.8,719.5,647.9,685.4,668.3,685.9L668.3,685.9z"
                          id="path44"/>
                </g>
            </g>
            <g id="g46">
                <path class="st1"
                      d="M878.3,727.2c15.7-9.6,32.2-18.9,50.8-21.5c15.4-2.2,28.7-1,39.5,2.6c9.4-1.9,19-2.6,28.3-2.2    c12.9,0.6,21.9,4.7,28,10.3c5.6-1.7,11.3-3.2,17.1-4.6c22.4-5.3,41.1,9.1,35.6,29.8c-3.7,14-24.4,24.7-44,17.1    c-7.2,17.4-25.1,24.8-50.9,22.3c-9.9,7-23.4,11-39.2,10.8c-13.2-0.2-25-2.9-36.1-7.2c-3,1.8-6.1,3.6-9.2,5.3    c-28.8,15.6-65.5,26.1-98.4,22.7c-52.1-5.3-88.9-55.6-51.3-95.1c-23.2,38.2-0.5,81,53.4,86.1c32.9,3.1,58.6-4.5,88.1-19.2    c2.5-1.3,5.1-2.7,7.9-4.2c-7.5-3.8-14.9-8.2-22.1-13c-20.9,10.5-41.8,20.9-73.8,20.9c-25.3,0-47.3-21.2-35.1-45.8    c-4.5,23.2,16.2,60.4,102.3,20.3c-5.9-4.3-11.9-8.7-17.7-13.2c-10,3.6-19.9,4.7-31,3.2c10.8-0.5,20-4.4,29.6-8.9    C859.8,739.1,869,732.9,878.3,727.2L878.3,727.2z M898.8,745.3c-8.4,5.5-17,10.8-26,15.4c-5.9-4.1-11.7-8.4-17.6-12.8    c10-4.3,18.9-10.3,27.8-16.5c14-9.6,28.2-19.3,46.4-21.9c12.1-1.7,22.5-1.3,31.4,0.5c-7.8,2.3-15.4,5.5-22.6,9.7    C924.6,727.8,911.9,736.8,898.8,745.3L898.8,745.3z M904.1,749.6c7.7,5.8,14.2,9.8,23.3,13.3c18.3-11,39.8-23.5,63.9-34    c-4.7-6.9-12.2-12.8-22.5-16.5c-9.2,2.2-18.2,5.8-27.3,11.3C928.5,731.6,916.5,740.7,904.1,749.6L904.1,749.6z M901.2,751.6    c-7,4.9-14,9.5-21.6,13.7c7.3,4.9,14.7,9.2,22.3,12.8c6.6-3.8,13.8-8.2,21.7-12.9C915.3,761.7,908.2,757,901.2,751.6L901.2,751.6z     M994.9,727.3c8.2-3.4,16.7-6.6,25.4-9.5c-5.6-4.4-13.3-7.4-23.7-8c-7.2-0.3-14.2,0-21.1,1.1C984.2,715,990.7,720.7,994.9,727.3    L994.9,727.3z M977.2,780.5c-12.9-1.8-27.8-5.8-44.6-12c-7,4.7-13.9,9.3-21,13.7c10.3,3.9,21.1,6.3,32.7,6.5    C957.4,788.9,968.6,785.7,977.2,780.5L977.2,780.5z M982.3,777c9.3-7.4,14.6-17.5,15.2-27.3c0.3-5.6-1-11.6-4-17.1    c-22.2,10-40.1,22-57.3,33.5C954,772.3,969.3,775.9,982.3,777L982.3,777z M997.1,730.9c3.1,6.1,4.4,12.8,3.8,19.6    c-1,10.5-5.7,19.6-13.3,26.7c21.1,0.5,35.7-5.7,42.4-20c-5-2.6-10.5-5.6-15.2-10.8c6,3.2,11.6,5.5,16.7,7    c2.6-8.4,1.5-22.4-7.7-32.3C1014.2,724,1005.4,727.3,997.1,730.9L997.1,730.9z M1028.1,719.8c8.7,10.8,9.3,25.4,7.1,34.6    c48.1,11.4,50.6-48.4,5.6-37.8C1036.4,717.6,1032.2,718.6,1028.1,719.8L1028.1,719.8z"
                      id="path48"/>
                <path class="st1"
                      d="M691,727.2c-15.7-9.6-32.2-18.9-50.8-21.5c-15.4-2.2-28.7-1-39.5,2.6c-9.4-1.9-19-2.6-28.3-2.2    c-12.9,0.6-21.9,4.7-28,10.3c-5.6-1.7-11.3-3.2-17.1-4.6c-22.4-5.3-41.1,9.1-35.6,29.8c3.7,14,24.4,24.7,44,17.1    c7.2,17.4,25.1,24.8,50.9,22.3c9.9,7,23.4,11,39.2,10.8c13.2-0.2,25-2.9,36.1-7.2c3,1.8,6,3.6,9.2,5.3    c28.8,15.6,65.5,26.1,98.4,22.7c52.1-5.3,88.9-55.6,51.3-95.1c23.2,38.2,0.5,81-53.4,86.1c-32.9,3.1-58.6-4.5-88.1-19.2    c-2.5-1.3-5.1-2.7-7.9-4.2c7.5-3.8,14.9-8.2,22.1-13c20.9,10.5,41.8,20.9,73.8,20.9c25.3,0,47.3-21.2,35.1-45.8    c4.5,23.2-16.2,60.4-102.3,20.3c5.9-4.3,11.9-8.7,17.7-13.2c10,3.6,19.9,4.7,31,3.2c-10.8-0.5-20-4.4-29.6-8.9    C709.6,739.1,700.3,732.9,691,727.2L691,727.2z M670.5,745.3c8.4,5.5,16.9,10.8,26,15.4c5.9-4.1,11.7-8.4,17.6-12.8    c-10-4.3-18.9-10.3-27.8-16.5c-14-9.6-28.2-19.3-46.4-21.9c-12.1-1.7-22.5-1.3-31.4,0.5c7.8,2.3,15.4,5.5,22.6,9.7    C644.7,727.8,657.3,736.8,670.5,745.3L670.5,745.3z M665.2,749.6c-7.7,5.8-14.2,9.8-23.3,13.3c-18.3-11-39.8-23.5-63.9-34    c4.7-6.9,12.2-12.8,22.5-16.5c9.2,2.2,18.2,5.8,27.3,11.3C640.8,731.6,652.9,740.7,665.2,749.6L665.2,749.6z M668.1,751.6    c7,4.9,14,9.5,21.6,13.7c-7.3,4.9-14.7,9.2-22.3,12.8c-6.6-3.8-13.8-8.2-21.7-12.9C654,761.7,661.2,757,668.1,751.6L668.1,751.6z     M574.3,727.3c-8.2-3.4-16.7-6.6-25.4-9.5c5.6-4.4,13.3-7.4,23.7-8c7.2-0.3,14.2,0,21.1,1.1C585.2,715,578.6,720.7,574.3,727.3    L574.3,727.3z M592.1,780.5c12.9-1.8,27.8-5.8,44.6-12c7,4.7,13.9,9.3,21,13.7c-10.3,3.9-21.1,6.3-32.7,6.5    C611.9,788.9,600.7,785.7,592.1,780.5L592.1,780.5z M587.1,777c-9.3-7.4-14.6-17.5-15.2-27.3c-0.3-5.6,1-11.6,3.9-17.1    c22.2,10,40.1,22,57.3,33.5C615.4,772.3,600,775.9,587.1,777L587.1,777z M572.2,730.9c-3.1,6.1-4.4,12.8-3.8,19.6    c1,10.5,5.7,19.6,13.3,26.7c-21.1,0.5-35.7-5.7-42.4-20c5-2.6,10.5-5.6,15.2-10.8c-6,3.2-11.6,5.5-16.7,7    c-2.6-8.4-1.5-22.4,7.7-32.3C555,724,564,727.3,572.2,730.9L572.2,730.9z M541.2,719.8c-8.7,10.8-9.3,25.4-7.1,34.6    c-48.1,11.4-50.6-48.4-5.6-37.8C532.9,717.6,537.1,718.6,541.2,719.8L541.2,719.8z"
                      id="path50"/>
            </g>
        </g>
        <text style="font-style:normal;font-weight:normal;font-size:40px;line-height:125%;font-family:sans-serif;letter-spacing:0px;word-spacing:0px;fill:#000000;fill-opacity:1;stroke:none;stroke-width:1px;stroke-linecap:butt;stroke-linejoin:miter;stroke-opacity:1"
              x="764.28571" y="536.50793" id="text4204">
            <tspan id="text01" x="764.28571" y="536.50793"
                   style="font-style:normal;font-variant:normal;font-weight:normal;font-stretch:normal;font-size:90px;line-height:125%;font-family:'Meie Script';-inkscape-font-specification:'Meie Script, Normal';text-align:center;writing-mode:lr-tb;text-anchor:middle;fill:#ff9955">
                John Bryan
            </tspan>
        </text>
    </g>
</svg>
 


