<?xml version="1.0" encoding="utf-8"?>
<svg xmlns:dc="http://purl.org/dc/elements/1.1/" xmlns:cc="http://creativecommons.org/ns#" xmlns:rdf="http://www.w3.org/1999/02/22-rdf-syntax-ns#" xmlns:svg="http://www.w3.org/2000/svg" xmlns="http://www.w3.org/2000/svg" xmlns:xlink="http://www.w3.org/1999/xlink" version="1.1" x="0px" y="0px" width="1600px" height="1000px" viewBox="0 0 1600 1000" enable-background="new 0 0 1600 1000" xml:space="preserve" id="svg2">
  <metadata id="metadata61">
    <rdf:RDF>
      <cc:Work rdf:about="">
        <dc:format>
          image/svg+xml
        </dc:format>
        <dc:type rdf:resource="http://purl.org/dc/dcmitype/StillImage">
        </dc:type>
        <dc:title>
        </dc:title>
      </cc:Work>
    </rdf:RDF>
  </metadata>
  <defs id="defs59">
    <clipPath id="clipPath4164" clipPathUnits="userSpaceOnUse">
      <path id="jd_bd" d="m 489.44324,490.90762 684.14866,0 0,376.90696 -684.14866,0 z" style="opacity:1;fill:none;fill-opacity:1;fill-rule:nonzero;stroke:#ffc300;stroke-width:2.20000005;stroke-linecap:butt;stroke-linejoin:miter;stroke-miterlimit:4;stroke-dasharray:none;stroke-dashoffset:0;stroke-opacity:1">
      </path>
    </clipPath>
  </defs>
  <image xlink:href="/designs/templates/002000301-2.jpg" overflow="visible" enable-background="new    " width="600" height="400" id="jd_bg" style="overflow:visible" transform="matrix(2.6667,0,0,2.5,2.441406e-4,-2.441406e-4)">
  </image>
  <g clip-path="url(#clipPath4164)" id="jd_nt">
    <g id="Layer_2" transform="matrix(1.0846078,0,0,0.87586231,6.6692046,108.0855)">
      <path d="m 484.4,508.1 58.5,50 0,4.2 -1,0 -46,-39.1 0,23.6 c 0,5.1 0.7,8.7 2,10.7 1.3,2 3.4,3.3 6.2,3.9 l 0,0.9 c -5.1,-0.4 -8.6,-0.6 -10.4,-0.6 -2.1,0 -5.2,0.2 -9.3,0.6 l 0,-0.9 c 2.9,-0.7 4.9,-2 5.9,-4.1 1,-2.1 1.6,-5.7 1.6,-11 l -0.1,-26.5 -3.7,-3.1 c -5.1,-4.3 -9.4,-7.1 -12.8,-8.2 l 0,-0.9 9.1,0.5 z m 58.4,45 -52.8,-45 6,0 42.7,36.4 0,-21.1 c 0,-3.5 -0.2,-6.2 -0.7,-8.1 -0.5,-1.8 -1.4,-3.3 -2.9,-4.5 -1.5,-1.2 -3.3,-2 -5.6,-2.3 l 0,-0.9 c 0,0 0.6,0.1 1.8,0.2 4.4,0.3 7.4,0.5 9,0.5 1.5,0 4.9,-0.2 10.4,-0.6 l 0,0.9 c -1.8,0.2 -3.3,1 -4.6,2.2 -1.3,1.2 -2.2,2.6 -2.6,4.3 -0.5,1.7 -0.7,4.1 -0.7,7.3 l 0,30.7 z" id="path8" style="fill:#dcbb88">
      </path>
      <path d="m 566.1,508.1 1.7,0 0,53.5 -3.4,0 c -1.2,0 -3.7,0.2 -7.5,0.6 l 0,-0.9 c 1.8,-0.5 3.2,-1.3 4.2,-2.6 1,-1.3 1.6,-2.8 2,-4.4 0.4,-1.8 0.6,-5.5 0.6,-11.2 l 0,-21.3 c 0,-4.9 -0.7,-8.3 -2,-10.1 -1.3,-1.8 -2.9,-2.9 -4.7,-3.4 l 0,-0.9 c 2,0.3 5,0.5 9.1,0.7 z m 25.6,53.6 -20.3,0 0,-53.5 14.8,0 c 2.8,0 8,-0.2 15.7,-0.6 -0.1,1 -0.1,1.8 -0.1,2.3 0,0.7 0.1,2.3 0.3,4.7 0.1,1.7 0.2,2.6 0.2,2.7 l 0,1.3 -0.9,0 c -1.2,-2.9 -2.6,-4.8 -4.2,-5.6 -1.6,-0.8 -4.5,-1.2 -8.8,-1.2 l -8.1,0 c -1.3,0 -2.5,0.1 -3.6,0.3 -0.6,1.2 -1,3.9 -1.1,8.2 l -0.1,3.5 0,8.3 11,0 c 4.1,0 6.9,-0.4 8.2,-1.1 1.4,-0.7 2.4,-2.4 3.3,-5.1 l 1.1,0 c -0.3,3 -0.4,5.7 -0.4,7.9 0,1.4 0.1,3.3 0.3,5.6 0.1,0.7 0.2,2 0.3,4 l -1.1,0 c -0.3,-3 -1.2,-5 -2.7,-6.1 -1.5,-1.1 -3.9,-1.7 -7.2,-1.7 l -12.7,0 0,11.1 c 0,4.3 0.2,8 0.7,11.2 1.4,0.2 2.9,0.3 4.6,0.3 l 7.7,0 c 4.2,0 7.4,-0.5 9.5,-1.4 2.2,-1 4.4,-3.2 6.6,-6.5 l 1,0 c -0.4,1.6 -0.9,3.4 -1.7,5.4 -0.9,2.6 -1.6,4.9 -2,6.9 -3.8,-0.7 -7.2,-0.9 -10.3,-0.9 z" id="path10" style="fill:#dcbb88">
      </path>
      <path d="m 619.3,508.1 22.4,50.6 -1.8,3.9 -0.9,0 -19,-43 c -2.9,-6.6 -6.3,-10.4 -10.1,-11.2 l 0,-0.9 c 1.9,0.3 5,0.5 9.4,0.6 z m 28.8,0 21.2,50.5 -1.6,4 -1.1,0 -13.1,-31 -9.8,22.5 -20.3,-45.9 c 0.2,0 1.9,-0.1 5.1,-0.2 l 2.2,-0.2 3.3,-0.3 0,0.9 c -2.1,0.8 -3.2,2.2 -3.2,4 0,1.8 0.8,4.6 2.5,8.3 l 10.4,23.7 7.8,-17.6 -3.2,-7.6 c -1.4,-3.4 -2.8,-5.9 -4.1,-7.3 -1.3,-1.5 -3.2,-2.6 -5.7,-3.4 l 0,-0.9 c 3.3,0.3 6.5,0.5 9.6,0.5 z m 13.7,13.1 9.5,22.7 8,-19.5 c 1.8,-4.4 2.7,-7.7 2.7,-10.1 0,-3.1 -1.5,-5.1 -4.5,-5.8 l 0,-0.9 c 3.8,0.4 6.5,0.6 8.2,0.6 3,0 6,-0.2 8.9,-0.6 l 0,0.9 c -2.4,1.4 -4.2,3 -5.6,4.9 -1.5,2 -3.3,5.6 -5.4,10.8 L 671.3,554 652.1,508.2 c 4.1,-0.2 7.7,-0.4 10.8,-0.6 l 0,0.9 c -2.3,0.8 -3.5,2.2 -3.5,4.3 0.1,1.8 0.8,4.7 2.4,8.4 z" id="path12" style="fill:#dcbb88">
      </path>
      <g id="g14">
        <path d="m 464.9,581.3 26.3,27.9 0,25.6 -1.2,0 c -2.9,0 -6.3,0.2 -10.2,0.6 l 0,-0.9 c 2.2,-0.5 4,-1.6 5.3,-3.4 1.3,-1.7 1.9,-4.9 1.9,-9.6 l 0,-11.1 -16.1,-17.1 c -6.2,-6.5 -11.7,-10.4 -16.7,-11.7 l 0,-0.9 c 2.8,0.4 5.9,0.6 9.1,0.6 l 1.6,0 z m 30.2,53.5 0,-27.1 -25.4,-26.5 1.4,0 c 4,0 8.2,-0.2 12.5,-0.6 l 0,0.9 c -2,0.6 -3,1.5 -3,2.8 0,1.8 2,4.8 6.1,9 l 10.7,11.2 10.1,-11.7 c 2.2,-2.6 3.4,-4.9 3.4,-7 0,-2.3 -1.2,-3.8 -3.5,-4.3 l 0,-0.9 c 0.8,0 2.9,0.1 6.2,0.4 1.4,0.1 2.6,0.2 3.7,0.2 0.6,0 3.6,-0.2 8.9,-0.6 l 0,0.9 c -2.5,0.7 -4.6,1.8 -6.2,3.1 -1.5,1.3 -3.3,3.2 -5.2,5.5 -0.1,0.2 -0.3,0.5 -0.7,0.9 l -14.8,17.3 0,12.9 c 0,7.8 2.4,12.2 7.3,13.2 l 0,0.9 c -6.2,-0.4 -9.4,-0.6 -9.6,-0.6 l -1.9,0 z" id="path16" style="fill:#dcbb88">
        </path>
        <path d="m 535.5,586 c -3.7,5.8 -5.6,13.1 -5.6,22.1 0,8.1 1.8,15.2 5.3,21.1 -6.8,-4.5 -10.3,-11.7 -10.3,-21.6 0.1,-10.2 3.6,-17.4 10.6,-21.6 z m 42.8,21.8 c 0,6.2 -0.9,11.5 -2.8,15.8 -1.9,4.3 -4.5,7.4 -7.9,9.4 -3.3,2.1 -7.2,3.1 -11.6,3.1 -7,0 -12.5,-2.5 -16.3,-7.6 -3.9,-5 -5.8,-12 -5.8,-20.8 0,-9.2 2,-16.2 5.9,-21.1 3.9,-4.8 9.3,-7.3 16.1,-7.3 6.9,0 12.4,2.4 16.5,7.3 3.9,4.8 5.9,11.9 5.9,21.2 z m -4.8,0 c 0,-16.2 -5.9,-24.3 -17.7,-24.3 -11.5,0 -17.3,8.3 -17.3,24.9 0,15.6 5.8,23.5 17.5,23.5 11.7,0 17.5,-8 17.5,-24.1 z m 2.9,21.7 c 3.7,-5 5.5,-12.6 5.5,-22.6 0,-8.9 -1.8,-15.8 -5.5,-20.8 7,4.2 10.5,11.3 10.5,21.4 0.1,9.9 -3.4,17.3 -10.5,22 z" id="path18" style="fill:#dcbb88">
        </path>
        <path d="m 604.2,581.3 0,53.5 -2.2,0 c -0.8,0 -2.2,0.1 -4,0.3 -1.6,0.2 -3.4,0.3 -5.5,0.3 l 0,-0.9 c 2.2,-0.2 4,-1.3 5.4,-3.2 1.4,-1.9 2.1,-5.6 2.1,-11 l 0,-26.1 c 0,-7.4 -2.5,-11.6 -7.5,-12.6 l 0,-0.9 c 2.2,0.2 6.1,0.4 11.7,0.6 z m 5.2,53.5 -1.5,0 0,-53.5 c 2,0 4.2,-0.1 6.5,-0.3 2.6,-0.2 4.8,-0.4 6.4,-0.4 4.6,0 8.1,1.4 10.4,4.3 2.3,2.8 3.4,6.3 3.4,10.4 0,7 -3,11.5 -8.9,13.5 2.9,0.4 5.4,1.3 7.4,2.6 2.1,1.5 5.4,4.4 9.7,8.7 6.6,6.7 12,10.1 16.1,10.1 0.8,0 1.7,-0.3 2.6,-0.9 l 0.2,0.9 c -1.4,1.8 -3.2,2.6 -5.6,2.6 -2.6,0 -5.3,-1 -8.1,-2.9 -2.6,-1.8 -6.6,-5.4 -11.8,-10.8 -6.3,-6.5 -12.4,-9.7 -18.4,-9.7 3.7,1.2 8.7,5 15,11.6 4.4,4.6 8,8 10.7,10.1 2.7,2.1 5.3,3.1 7.8,3.1 l 0,0.5 c -1.2,0.4 -2.3,0.6 -3.4,0.6 -3.3,0 -6.1,-0.8 -8.5,-2.5 -1.3,-0.9 -2.9,-2.3 -4.9,-4.2 -2,-1.9 -4.4,-4.3 -7.1,-7.3 -4.1,-4.3 -7.1,-7.3 -9,-8.8 -2.1,-1.6 -4.1,-2.7 -6.1,-3.3 l 0,12 c 0,8.1 2.4,12.5 7.3,13.2 l 0,0.9 c -4.2,-0.3 -7.6,-0.5 -10.2,-0.5 z m 2.7,-39.6 0,11 c 2,0.5 4.2,0.8 6.5,0.8 7.6,0 11.4,-4 11.4,-11.9 0,-7.4 -3.8,-11.1 -11.3,-11.1 -2.4,0 -4.3,0.5 -5.7,1.5 -0.6,1.3 -0.9,4.6 -0.9,9.7 z m 23,11 c 2.2,-3.5 3.3,-7.3 3.3,-11.5 0,-3.8 -1.3,-7.7 -3.8,-11.5 5.8,2.5 8.7,6.4 8.7,11.7 0.1,5.3 -2.7,9.1 -8.2,11.3 z" id="path20" style="fill:#dcbb88">
        </path>
        <path d="m 675.4,581.3 0,53.5 c -1.7,0 -5.2,0.2 -10.3,0.6 l 0,-0.9 c 4.1,-0.8 6.1,-4 6.1,-9.4 l 0,-33.6 c 0,-3 -0.4,-5.2 -1.3,-6.7 -0.8,-1.4 -2.5,-2.5 -4.9,-3.1 l 0,-0.9 c 3.3,0.2 6.7,0.4 10.4,0.5 z m 10.2,22.5 28.2,31 -5.6,0 -24.8,-27.6 0,17.8 c 0,2.8 0.5,4.9 1.4,6.3 0.9,1.4 2.5,2.5 4.9,3.1 l 0,0.9 c -4.5,-0.4 -8,-0.6 -10.5,-0.6 l 0,-53.5 c 4.6,-0.2 8.1,-0.4 10.5,-0.6 l 0,0.9 c -2.5,0.6 -4.2,1.7 -5,3.4 -0.8,1.7 -1.3,5.4 -1.3,11.2 l 0,9.3 2.2,-1.6 z m 35.2,31 -2.1,0 -30.3,-33.3 11.6,-9.3 c 4,-3.2 6,-5.6 6,-7.3 0,-1.3 -1.1,-2.4 -3.3,-3.3 l 0,-0.9 c 1.5,0 3.6,0.1 6.1,0.4 2.3,0.2 4,0.3 5.1,0.3 1,0 2.4,-0.1 4,-0.2 2.3,-0.2 4.4,-0.3 6.4,-0.4 l 0,0.9 c -4.8,1.2 -10,4 -15.6,8.4 l -3.4,2.6 c -0.3,0.2 -0.5,0.4 -0.7,0.5 l -10.7,8.6 20.2,22.4 c 6.1,6.8 10.7,10.3 13.9,10.4 l 0,0.9 c -4.5,-0.5 -7,-0.7 -7.2,-0.7 z" id="path22" style="fill:#dcbb88">
        </path>
      </g>
      <g id="g24">
        <path d="m 457,688.8 1.2,0 c 0.2,4.3 2,7.9 5.2,10.7 3.2,2.8 6.8,4.2 11,4.2 3.2,0 5.8,-0.9 7.8,-2.7 2,-1.8 3,-3.9 3,-6.4 0,-2.6 -1,-4.7 -2.9,-6.1 -1.9,-1.4 -5.5,-3 -11,-4.8 -4.4,-1.5 -7.5,-2.7 -9.4,-3.6 -2.2,-1.1 -3.9,-2.6 -5.1,-4.5 -1.3,-1.9 -2,-4.1 -2,-6.5 0,-2.7 0.9,-5.3 2.7,-7.9 -0.4,1.3 -0.6,2.5 -0.6,3.5 0,2.6 0.6,5 1.9,7 1.3,2.1 2.9,3.6 4.8,4.7 1.9,1.1 5.1,2.3 9.5,3.7 5.8,1.8 10,3.7 12.5,5.8 2.5,2.1 3.7,4.8 3.7,8.3 0,3.4 -1.3,6.5 -3.9,9.3 -2.6,2.8 -6.5,4.2 -11.7,4.2 -2.1,0 -5,-0.4 -8.7,-1.2 -3.3,-0.7 -5.7,-1 -7.3,-1.1 l -0.4,-0.4 c 0,-0.6 0.1,-1.3 0.1,-2.2 0,-1.1 -0.1,-2.8 -0.3,-5 -0.2,-2.3 -0.3,-4 -0.3,-5.1 0,-1.6 0.1,-2.9 0.2,-3.9 z m 35.9,-21.2 -1.1,0 c 0,-3.9 -1.6,-6.8 -4.7,-8.7 -3,-1.9 -6.7,-2.8 -11,-2.8 -3.4,0 -6.2,0.7 -8.4,2.2 -2.2,1.5 -3.4,3.2 -3.4,5.2 0,2.2 0.9,3.9 2.6,5.1 1.8,1.4 5.4,3 10.8,4.8 5,1.7 8.5,3.1 10.5,4.2 2.1,1.2 3.9,2.9 5.3,5.1 1.4,2.3 2.1,4.8 2.1,7.6 0,4.2 -1.6,7.5 -4.7,10 1.2,-1.6 1.7,-3.8 1.7,-6.7 0,-2.7 -0.6,-5.1 -1.9,-7.2 -1.3,-2.1 -2.9,-3.8 -4.9,-5.1 -2,-1.3 -5.2,-2.7 -9.6,-4.1 -6.7,-2.2 -11,-4.1 -13,-5.6 -2,-1.6 -3,-4.1 -3,-7.4 0,-3.9 1.6,-6.9 4.7,-9.1 3.1,-2.1 7.5,-3.2 13.3,-3.2 3.9,0 8.6,0.7 14.3,2 l 0,0.4 0.1,1.9 c 0,1 0,2.2 0.1,3.7 0.1,1.7 0.2,3.2 0.2,4.6 0.1,0.7 0,1.8 0,3.1 z" id="path26" style="fill:#dcbb88">
        </path>
        <path d="m 512,652.9 16.8,0 0,53.5 -1.5,0 c -2.2,0 -5.5,0.2 -9.9,0.6 l 0,-0.9 c 2.8,-0.7 4.7,-2.1 5.8,-4.3 1,-2.1 1.5,-5.7 1.5,-10.7 l 0,-34.7 -12.9,0 c -3.3,0 -5.6,0.7 -7,2 -1.4,1.3 -2.5,3.9 -3.4,7.7 l -1.2,0 c 0,-0.4 -0.1,-0.9 -0.1,-1.4 0,-0.7 0.1,-1.5 0.2,-2.6 0.4,-3.6 0.6,-6.9 0.6,-9.8 1.8,0.2 4,0.4 6.7,0.5 l 4.4,0.1 z m 21.9,53.5 -1.3,0 0,-53.5 18.3,0 c 3.4,0 6.7,-0.2 9.9,-0.6 0,0.6 -0.1,1.8 -0.2,3.5 -0.1,1.6 -0.2,3.5 -0.2,5.8 0,1.5 -0.1,3 -0.3,4.5 l -1.1,0 c -0.1,-2.8 -0.8,-5.1 -2.1,-6.9 -1.4,-1.9 -4.2,-2.8 -8.6,-2.8 l -11.5,0 0,36.4 c 0,4.2 0.6,7.3 1.8,9.4 1.2,2.1 3,3.4 5.5,3.9 l 0,0.9 c -6.1,-0.4 -9.4,-0.6 -10.2,-0.6 z" id="path28" style="fill:#dcbb88">
        </path>
        <path d="m 600.4,694.1 -4.5,-9.4 -19.1,0 -4.8,9.4 -0.3,0.7 c 0,0 -0.3,0.5 -0.8,1.5 -0.7,1.4 -1.1,2.9 -1.1,4.4 0,2.6 1.4,4.4 4.3,5.5 l 0,0.9 c -0.6,0 -1.6,-0.1 -3,-0.3 -2,-0.2 -3.8,-0.4 -5.4,-0.4 -1.5,0 -3.2,0.1 -5.4,0.4 -1.5,0.2 -2.4,0.3 -2.9,0.3 l 0,-0.9 c 3.7,-1.9 7.1,-5.8 10.2,-11.7 l 16.9,-32.8 c -1.3,-2.6 -3.1,-4.6 -5.3,-6 -2.3,-1.4 -4.9,-2.2 -7.9,-2.3 l 0,-0.9 1.8,0 c 1.6,0 3.8,0.1 6.6,0.3 2.9,0.2 4.8,0.3 5.7,0.3 l 25.6,53.5 c -3.3,0.1 -7.2,0.3 -11.8,0.6 l 0,-0.9 c 2.6,-0.4 3.9,-1.8 3.9,-4.2 -0.1,-1.9 -1,-4.5 -2.7,-8 z m -21.6,-13.2 15.3,0 -7.4,-15.4 -7.9,15.4 z m 36.2,25.5 -25.6,-53.5 5,0 c 0.7,1.8 1.6,4 2.8,6.7 1.4,2.9 2.1,4.6 2.3,5.1 0.2,0.3 0.3,0.7 0.5,1.1 l 11.9,24.7 c 4.2,8.6 8.6,13.8 13.3,15.6 l 0,0.9 c -4.6,-0.4 -8,-0.6 -10.2,-0.6 z" id="path30" style="fill:#dcbb88">
        </path>
        <path d="m 629.3,652.9 16.8,0 0,53.5 -1.5,0 c -2.2,0 -5.5,0.2 -9.9,0.6 l 0,-0.9 c 2.8,-0.7 4.7,-2.1 5.8,-4.3 1,-2.1 1.5,-5.7 1.5,-10.7 l 0,-34.7 -12.9,0 c -3.3,0 -5.6,0.7 -7,2 -1.4,1.4 -2.5,3.9 -3.4,7.7 l -1.2,0 c 0,-0.4 -0.1,-0.9 -0.1,-1.4 0,-0.7 0.1,-1.5 0.2,-2.6 0.4,-3.6 0.6,-6.9 0.6,-9.8 1.8,0.2 4,0.4 6.7,0.5 l 4.4,0.1 z m 21.9,53.5 -1.3,0 0,-53.5 18.3,0 c 3.4,0 6.7,-0.2 9.9,-0.6 0,0.6 -0.1,1.8 -0.2,3.5 -0.1,1.6 -0.2,3.5 -0.2,5.8 0,1.5 -0.1,3 -0.3,4.5 l -1.2,0 c -0.1,-2.8 -0.8,-5.1 -2.1,-6.9 -1.4,-1.9 -4.2,-2.8 -8.6,-2.8 l -11.5,0 0,36.4 c 0,4.2 0.6,7.3 1.8,9.4 1.2,2.1 3,3.4 5.5,3.9 l 0,0.9 c -6,-0.4 -9.4,-0.6 -10.1,-0.6 z" id="path32" style="fill:#dcbb88">
        </path>
        <path d="m 692.6,652.9 1.7,0 0,53.5 -3.3,0 c -1.2,0 -3.7,0.2 -7.5,0.6 l 0,-0.9 c 1.8,-0.5 3.2,-1.3 4.2,-2.6 1,-1.3 1.6,-2.8 2,-4.4 0.4,-1.8 0.6,-5.5 0.6,-11.2 l 0,-21.3 c 0,-4.9 -0.7,-8.3 -2,-10.1 -1.3,-1.8 -2.9,-2.9 -4.7,-3.4 l 0,-0.9 c 1.9,0.2 5,0.4 9,0.7 z m 25.7,53.5 -20.3,0 0,-53.5 14.8,0 c 2.8,0 8,-0.2 15.7,-0.6 -0.1,1 -0.1,1.8 -0.1,2.3 0,0.7 0.1,2.3 0.3,4.7 0.1,1.7 0.2,2.6 0.2,2.7 l 0,1.3 -0.9,0 c -1.2,-2.9 -2.6,-4.8 -4.2,-5.6 -1.6,-0.8 -4.5,-1.2 -8.8,-1.2 l -8.1,0 c -1.3,0 -2.5,0.1 -3.6,0.3 -0.6,1.2 -1,3.9 -1.1,8.2 l -0.1,3.5 0,8.3 11,0 c 4.1,0 6.9,-0.4 8.2,-1.1 1.4,-0.7 2.4,-2.4 3.3,-5.1 l 1.1,0 c -0.3,3 -0.4,5.7 -0.4,7.9 0,1.4 0.1,3.3 0.3,5.6 0.1,0.7 0.2,2 0.3,4 l -1.1,0 c -0.3,-3 -1.2,-5 -2.7,-6.1 -1.5,-1.1 -3.9,-1.7 -7.2,-1.7 l -12.7,0 0,11.1 c 0,4.3 0.2,8 0.7,11.2 1.4,0.2 2.9,0.3 4.6,0.3 l 7.7,0 c 4.2,0 7.4,-0.5 9.5,-1.4 2.2,-1 4.4,-3.2 6.6,-6.5 l 1,0 c -0.4,1.6 -0.9,3.4 -1.7,5.4 -0.9,2.6 -1.6,4.9 -2,6.9 -3.8,-0.7 -7.3,-0.9 -10.3,-0.9 z" id="path34" style="fill:#dcbb88">
        </path>
      </g>
      <g id="g36">
        <path d="m 536.9,725.2 c -3.7,5.8 -5.6,13.1 -5.6,22.1 0,8.1 1.8,15.2 5.3,21.1 -6.8,-4.5 -10.3,-11.7 -10.3,-21.6 0,-10.2 3.5,-17.4 10.6,-21.6 z m 42.7,21.8 c 0,6.2 -0.9,11.5 -2.8,15.8 -1.9,4.3 -4.5,7.4 -7.9,9.4 -3.3,2.1 -7.2,3.1 -11.6,3.1 -7,0 -12.5,-2.5 -16.3,-7.6 -3.9,-5 -5.8,-12 -5.8,-20.8 0,-9.2 2,-16.2 5.9,-21.1 3.9,-4.8 9.3,-7.3 16.1,-7.3 6.9,0 12.4,2.4 16.5,7.3 3.9,4.8 5.9,11.8 5.9,21.2 z m -4.8,0 c 0,-16.2 -5.9,-24.3 -17.7,-24.3 -11.5,0 -17.3,8.3 -17.3,24.9 0,15.6 5.8,23.5 17.5,23.5 11.7,0 17.5,-8 17.5,-24.1 z m 3,21.7 c 3.7,-5 5.5,-12.6 5.5,-22.6 0,-8.9 -1.8,-15.8 -5.5,-20.8 7,4.2 10.5,11.3 10.5,21.4 0,9.9 -3.5,17.3 -10.5,22 z" id="path38" style="fill:#dcbb88">
        </path>
        <path d="m 605.2,720.5 0,53.5 c -3,0 -6.5,0.2 -10.7,0.6 l 0,-0.9 c 2.3,-0.7 4,-2.2 5,-4.3 1,-2.1 1.5,-5.6 1.5,-10.5 l 0,-25.1 c 0,-4.6 -0.6,-7.8 -1.8,-9.6 -1.3,-1.8 -2.8,-2.9 -4.7,-3.3 l 0,-1 c 3.7,0.2 7.2,0.5 10.7,0.6 z m 5.9,53.5 -2,0 0,-53.5 12.6,0 c 3.7,0 8.5,-0.2 14.5,-0.6 0,0.9 -0.1,2 -0.1,3.5 0,0.8 0.1,2.3 0.2,4.6 0.1,2.5 0.2,3.8 0.2,3.9 l 0,1.3 -1.1,0 c -0.9,-6.1 -3.8,-9.1 -8.6,-9.1 l -9.9,0 c -1.1,0 -2.1,0.2 -3,0.5 -0.4,2.7 -0.7,6.2 -0.7,10.7 l 0,10.5 8.9,0 c 3.8,0 6.6,-0.5 8.4,-1.4 1.7,-0.9 2.8,-2.6 3.4,-4.9 l 1.1,0 c -0.2,3.7 -0.4,6.2 -0.4,7.6 0,0.8 0.1,2.3 0.2,4.3 0.1,1.9 0.2,3.3 0.2,4.2 l 0,1.7 -1.1,0 c -0.2,-5.3 -3,-8 -8.6,-8 l -12,0 0,11.8 c 0,7.6 2.3,12 7,12.9 l 0,0.9 c -4.9,-0.7 -7.9,-0.9 -9.2,-0.9 z" id="path40" style="fill:#dcbb88">
        </path>
      </g>
      <g id="g42">
        <path d="m 478.5,784.9 23.2,49.3 -2.3,4.8 -21,-44.8 -1.3,30.3 c -0.1,3 -0.1,4.3 -0.1,3.8 0,5.9 2.3,9.2 6.9,9.8 l 0,0.9 c 0,0 -0.5,-0.1 -1.4,-0.2 -3.8,-0.3 -6.3,-0.5 -7.5,-0.5 -1.6,0 -4.6,0.2 -8.8,0.6 l 0,-0.9 c 4.3,-1.1 6.6,-5.5 7,-13.2 l 1.5,-34.7 c -2,-2.5 -4.8,-4.2 -8.5,-5 l 0,-0.9 c 2.7,0.3 5.7,0.5 8.8,0.5 l 3.5,0.2 z m 25.2,35.3 16.2,-35.4 3.9,0 2.4,53.5 -2,0 c -1.4,0 -3.3,0.1 -5.6,0.3 l -3.4,0.3 0,-0.9 c 4.1,-1.1 6.1,-4.8 6.1,-10.9 0,0.1 0,-1 -0.1,-3.4 l -1.3,-29.6 -16.2,35.6 -21,-44.9 4.3,0 16.7,35.4 z m 26.2,18.2 -2.4,-53.5 1.7,0 c 2.5,0 5.9,-0.2 10.4,-0.6 l 0,0.9 c -2.3,0.4 -4.1,1.5 -5.4,3.3 -1.3,1.8 -2,3.9 -2,6.4 l 0.1,5.4 1.1,24.3 c 0.2,4.4 0.9,7.7 2.1,9.8 1.2,2.1 3,3.4 5.6,3.7 l 0,0.9 c -4.9,-0.4 -8.7,-0.6 -11.2,-0.6 z" id="path44" style="fill:#dcbb88">
        </path>
        <path d="m 559.3,784.9 0,53.5 c -2.4,0 -6.1,0.2 -11.1,0.6 l 0,-0.9 c 2.6,-0.7 4.4,-2.1 5.4,-4.4 1,-2.2 1.5,-6.3 1.5,-12.1 l 0,-22.7 c 0,-4.4 -0.5,-7.6 -1.6,-9.7 -1,-2 -2.8,-3.4 -5.4,-4 l 0,-0.9 c 4.3,0.3 8,0.5 11.2,0.6 z m 3.9,53.5 0,-53.5 c 4.2,0 7.9,-0.2 11.2,-0.6 l 0,0.9 c -2,0.4 -3.7,1.5 -5,3.3 -1.4,1.9 -2,5.7 -2,11.5 l 0,24.2 c 0,5.2 0.7,8.7 2.1,10.5 1.4,1.8 3,2.9 4.9,3.4 l 0,0.9 c -3.3,-0.4 -7,-0.6 -11.2,-0.6 z" id="path46" style="fill:#dcbb88">
        </path>
        <path d="m 590.5,784.9 58.5,50 0,4.2 -1,0 -46,-39.1 0,23.6 c 0,5.1 0.7,8.7 2,10.7 1.3,2 3.4,3.3 6.2,3.9 l 0,0.9 c -5.1,-0.4 -8.6,-0.6 -10.4,-0.6 -2.1,0 -5.2,0.2 -9.3,0.6 l 0,-0.9 c 2.9,-0.7 4.9,-2 5.9,-4.1 1,-2.1 1.6,-5.7 1.6,-11 l -0.1,-26.5 -3.7,-3.1 c -5.1,-4.3 -9.4,-7.1 -12.8,-8.2 l 0,-0.9 9.1,0.5 z m 58.5,44.9 -52.8,-45 6,0 42.7,36.4 0,-21.1 c 0,-3.5 -0.2,-6.2 -0.7,-8.1 -0.5,-1.8 -1.4,-3.3 -2.9,-4.5 -1.5,-1.2 -3.3,-2 -5.6,-2.3 l 0,-0.9 c 0,0 0.6,0.1 1.8,0.2 4.4,0.3 7.4,0.5 9,0.5 1.5,0 4.9,-0.2 10.4,-0.6 l 0,0.9 c -1.8,0.2 -3.3,1 -4.6,2.2 -1.3,1.2 -2.2,2.6 -2.6,4.3 -0.5,1.7 -0.7,4.1 -0.7,7.3 l 0,30.7 z" id="path48" style="fill:#dcbb88">
        </path>
        <path d="m 673.7,784.9 0,53.5 c -2.4,0 -6.2,0.2 -11.3,0.6 l 0,-0.9 c 2.6,-0.7 4.4,-2.2 5.5,-4.6 1,-2.2 1.6,-6.9 1.6,-13.9 l 0,-21 c 0,-4.3 -0.5,-7.4 -1.6,-9.4 -1,-1.9 -2.9,-3.3 -5.5,-4.1 l 0,-0.9 c 4.4,0.4 8.2,0.6 11.3,0.7 z m 6.7,53.5 -3.1,0 0,-53.5 c 4.7,-0.1 7.9,-0.2 9.8,-0.4 2.8,-0.2 4.7,-0.3 5.8,-0.3 5.1,0 9.4,1.2 13,3.5 3.6,2.4 6.2,5.5 8,9.3 1.8,3.8 2.6,8.5 2.6,14.3 0,8.8 -2.1,15.6 -6.3,20.4 -4.3,4.8 -10,7.2 -17.3,7.2 -3.4,0 -7.2,-0.2 -11.5,-0.6 -0.1,0.1 -0.5,0.1 -1,0.1 z m 2,-48.8 c -0.5,1.5 -0.8,6.9 -0.8,16 l 0,12.4 c 0,7.4 0.5,12.8 1.5,16.2 2.6,0.8 5.6,1.2 8.9,1.2 6.3,0 11.2,-2 14.8,-5.9 3.6,-4 5.4,-9.9 5.4,-17.6 0,-7.6 -1.8,-13.5 -5.4,-17.7 -3.6,-4.2 -8.9,-6.3 -15.8,-6.3 -3.7,0 -6.5,0.6 -8.6,1.7 z m 29.5,44.8 c 5.6,-4.3 8.4,-11.7 8.4,-22.3 0,-10.4 -2.3,-17.7 -6.9,-21.9 3.9,2.5 6.8,5.6 8.7,9.3 2,3.7 2.9,7.8 2.9,12.5 0.1,9.7 -4.3,17.2 -13.1,22.4 z" id="path50" style="fill:#dcbb88">
        </path>
      </g>
    </g>
    <svg id="svg30" preserveAspectRatio="xMidYMid meet" height="361.43066" width="264.70587" y="494.76682" x="880.88239" viewBox="0 0 264.70587 361.43066" version="1.1">
      <image xlink:href="/designs/templates/girl1.png" id="image21" height="361.43066" width="264.70587">
      </image>
    </svg>
  </g>
</svg>