<?xml version="1.0" encoding="utf-8"?>
<?xml-stylesheet type="text/css" href="https://fonts.googleapis.com/css?family=Roboto+Condensed"?>
<svg xmlns:dc="http://purl.org/dc/elements/1.1/" xmlns:cc="http://creativecommons.org/ns#" xmlns:rdf="http://www.w3.org/1999/02/22-rdf-syntax-ns#" xmlns:svg="http://www.w3.org/2000/svg" xmlns="http://www.w3.org/2000/svg" xmlns:xlink="http://www.w3.org/1999/xlink" version="1.1" x="0px" y="0px" width="1600px" height="1000px" viewBox="0 0 1600 1000" xml:space="preserve" id="svg2">
  <metadata id="metadata17">
    <rdf:RDF>
      <cc:Work rdf:about="">
        <dc:format>
          image/svg+xml
        </dc:format>
        <dc:type rdf:resource="http://purl.org/dc/dcmitype/StillImage">
        </dc:type>
        <dc:title>
        </dc:title>
      </cc:Work>
    </rdf:RDF>
  </metadata>
  <defs id="defs15">
    <clipPath clipPathUnits="userSpaceOnUse" id="clipPath4142">
      <path id="jd_bd" d="m 497.10351,242.63918 630.19779,0 0,532.87636 -630.19779,0 z" style="opacity:1;fill:none;fill-opacity:1;fill-rule:nonzero;stroke:#ffc300;stroke-width:1.76409984;stroke-linecap:butt;stroke-linejoin:miter;stroke-miterlimit:4;stroke-dasharray:none;stroke-dashoffset:0;stroke-opacity:1">
      </path>
    </clipPath>
  </defs>
  <image xlink:href="/designs/templates/002001001-3.jpg" width="600" height="400" id="jd_bg" transform="matrix(2.6165,0,0,2.6165,15.0452,-23.3027)">
  </image>
  <g id="jd_nt" clip-path="url(#clipPath4142)">
    <g style="fill:#ac9393" id="Layer_2" transform="matrix(0.89700262,0,0,0.94593097,-66.030892,48.839961)">
      <path stroke-miterlimit="10" d="m 828.13899,531.29717 c -0.397,4.636 -2.646,6.75 -7.35,7.587 -6.542,1.165 -13.176,2.091 -19.124,5.412 -0.503,0.28 -1.138,0.444 -1.717,0.456 -2.307,0.045 -4.732,0.441 -6.892,-0.13 -1.879,-0.498 -3.273,0.758 -5.146,0.366 -2.416,-0.508 -3.627,-0.754 -3.629,-3.785 -0.002,-2.388 -0.738,-4.882 -0.493,-7.352 0.187,-1.89 0.649,-3.685 3.363,-2.833 1.264,0.399 2.438,-0.321 3.278,-1.147 3.495,-3.442 7.364,-6.136 12.356,-6.872 0.326,-0.051 0.799,-0.374 0.88,-0.663 1.345,-4.802 6.343,-5.214 9.456,-7.88 1.929,-1.654 4.238,-2.913 5.971,-4.737 1.411,-1.483 2.891,-2.749 4.618,-3.772 2.939,-1.745 4.458,-4.252 4.613,-7.722 0.056,-1.27 -1.001,-3.141 1.328,-3.719 0.655,-0.165 0.005,-0.261 -0.094,-0.38 -1.638,-1.964 -1.565,-4.388 -1.972,-6.735 -0.41,-2.367 -2.198,-4.41 -1.938,-6.985 0.488,-4.868 -2.777,-9.064 -2.314,-14.021 0.248,-2.643 0.116,-5.842 1.725,-7.431 2.893,-2.86 2.663,-5.999 2.985,-9.402 0.144,-1.561 0.215,-3.682 2.068,-4.76 0.195,-0.114 0.407,-0.637 0.331,-0.726 -2.162,-2.48 0.443,-3.732 1.389,-5.374 2.903,-5.022 5.356,-10.219 5.521,-16.142 0.088,-3.212 2.332,-4.96 4.286,-6.826 2.671,-2.544 4.312,-5.697 5.379,-9.043 1.279,-4.034 2.448,-7.989 5.746,-10.933 0.473,-0.422 0.602,-1.236 0.865,-1.879 0.304,-0.739 0.379,-1.919 0.9,-2.165 4.701,-2.195 4.802,-8.063 8.763,-10.817 0.543,-0.376 1.127,-1.064 1.208,-1.671 0.817,-6.199 6.919,-8.538 9.653,-13.323 0.182,-0.321 0.597,-0.71 0.92,-0.723 4.843,-0.22 7.309,-4.486 11.077,-6.538 1.821,-0.994 3.105,-2.82 3.012,-5.202 -0.048,-1.199 0.228,-2.271 1.707,-2.342 3.548,-0.177 5.587,-2.741 7.2,-5.245 2.794,-4.333 6.449,-5.781 11.479,-5.951 2.218,-0.076 4.772,-1.96 7.147,-1.813 3.437,0.212 5.083,-2.948 8.027,-3.331 3.113,-0.405 6.074,-1.33 8.811,-2.855 1.685,-0.94 3.551,-0.521 5.271,-0.997 3.477,-0.965 5.763,-4.185 9.332,-5.045 0.263,-0.063 0.501,-0.614 0.589,-0.979 1.267,-5.313 3.652,-9.792 8.363,-12.994 1.861,-1.265 2.043,-4.183 3.399,-5.837 2.458,-2.99 2.43,-6.15 2.289,-9.57 -0.116,-2.802 -0.207,-5.625 0.582,-8.374 0.22,-0.766 0.26,-1.702 0.736,-2.259 3.622,-4.229 3.298,-9.774 3.366,-14.476 0.056,-3.92 0.516,-7.797 0.63,-11.699 0.222,-7.658 3.07,-14.573 5.649,-21.573 0.754,-2.043 2.281,-3.796 4.567,-2.451 1.771,1.042 3.579,2.813 1.412,5.296 -0.564,0.645 0.265,0.688 0.569,0.989 1.831,1.824 3.391,3.746 3.697,6.518 0.549,4.959 2.321,9.663 2.796,14.713 0.279,3.007 1.316,6.118 1.703,9.251 0.178,1.434 1.793,1.788 2.393,2.997 2.233,4.486 5.162,8.811 4.041,14.177 -0.434,2.086 1.247,2.828 2.004,4.062 1.826,2.984 2.779,6.522 2.367,9.524 -0.771,5.579 4.43101,9.213 3.65401,14.628 -0.354,2.463 2.293,4.066 5.222,4.064 3.291,-0.002 6.565,-0.392 9.879,-0.336 2.21,0.036 4.577,-0.516 6.932,-0.165 1.063,0.157 2.203,0.468 2.385,1.49 0.399,2.253 2.1,2.443 3.759,2.772 1.768,0.354 4.019,-0.147 4.314,2.614 1.477,-0.303 1.904,1.283 3.103,1.682 4.531,1.515 8.702,3.761 12.071,7.251 1.535,1.593 3.54,0.366 5.311,1.017 1.584,0.576 3.25,0.665 4.295,2.256 0.642,0.981 1.689,1.411 2.842,1.462 4.558,0.199 8.305,1.74 10.371,6.145 0.162,0.344 0.392,0.896 0.643,0.926 4.653,0.546 5.347,4.59 7.068,7.792 0.903,1.682 2.615,2.708 3.973,3.99 2.327,2.198 5.159,3.473 7.426,5.23 2.461,1.907 5.323,3.983 7.469,6.583 3.042,3.685 5.406,7.845 7.45,12.046 0.89,1.833 1.785,1.532 2.587,1.272 1.709,-0.556 2.463,-0.311 2.506,1.57 0.038,1.705 1.174,2.112 2.663,2.142 3.263,0.066 6.452,0.316 9.724,0.936 3.372,0.637 7.41,0.114 10.595,-1.232 3.801,-1.605 8.414,-0.958 11.558,-4.216 0.174,-0.182 0.561,-0.23 0.847,-0.222 1.685,0.055 3.938,-0.491 4.911,0.379 1.268,1.135 2.567,-2.236 3.124,0.399 0.126,0.607 0.268,0.291 0.288,-0.053 0.18,-3.058 2.814,-2.542 4.648,-3.214 3.396,-1.244 6.706,-2.828 10.194,-3.702 3.985,-1.002 8.12,-0.956 12.159,0.167 0.273,0.075 0.541,0.278 0.743,0.485 1.821,1.892 0.709,9.969 -1.238,11.795 -2.952,2.764 -6.042,4.907 -10.266,4.907 -0.863,0 -1.365,0.751 -1.909,1.35 -1.333,1.472 -2.65,2.921 -4.963,2.686 -1.41,-0.141 -2.405,0.954 -3.432,1.68 -3.467,2.453 -7.576,4.474 -10.053,7.718 -2.542,3.326 -4.857,6.242 -8.543,8.543 -3.015,1.882 -5.532,4.765 -8.959,6.128 -2.825,1.123 -5.162,2.339 -4.634,5.953 0.04,0.286 -0,0.63 -0.132,0.885 -1.236,2.446 -1.591,4.754 -0.556,7.559 0.96,2.6 0.239,5.629 1.62,8.358 0.833,1.646 0.921,4.046 -0.015,5.566 -1.285,2.077 -0.88,3.766 -0.131,5.647 0.581,1.464 0.778,3.009 0.103,4.383 -0.574,1.163 -0.355,2.129 0.016,3.161 0.7,1.958 0.307,3.829 -0.698,5.483 -1.384,2.289 -1.481,2.225 -0.258,4.711 0.177,0.362 0.493,0.761 0.447,1.105 -0.545,4.267 1.042,8.7 -1.406,12.855 -1.706,2.896 -2.312,5.981 -0.217,9.279 1.766,2.776 -0.03,5.859 -0.337,8.756 -0.188,1.795 -0.899,3.685 -1.532,5.449 -0.668,1.864 -0.733,4.33 -3.751,4.693 -1.451,0.178 -0.923,2.014 -0.947,3.145 -0.059,2.572 0.409,5.078 -2.501,6.876 -0.858,0.528 -1.559,2.741 -0.838,4.903 1.408,4.239 -0.797,8.086 -3.409,11.198 -3.234,3.861 -7.078,7.208 -10.611,10.822 -0.762,0.78 -1.366,1.718 -1.409,2.921 -0.035,1.031 -0.355,2.276 -1.229,2.627 -2.653,1.078 -2.549,3.612 -3.328,5.67 -0.318,0.843 -0.453,1.933 0.495,2.451 2.221,1.212 1.761,3.02 1.473,4.967 -0.375,2.509 0.356,5.114 -0.85,7.587 -0.491,1.004 0.728,1.088 1.39,1.489 2.006,1.21 2.009,2.835 0.491,4.61 -1.58,1.852 -1.064,3.996 0.033,5.857 0.94,1.597 1.78,3.131 1.653,5.041 -0.021,0.29 -0,0.655 0.15,0.877 4.744,6.879 3.685,15.604 7.313,22.911 1.369,2.754 -0.551,6.226 -0.029,9.404 0.07,0.445 -0.466,1.117 -0.893,1.494 -1.407,1.24 -9.416,0.577 -10.855,-0.64 -3.443,-2.908 -6.282,-6.257 -8.666,-10.105 -1.058,-1.707 -2.653,-3.242 -5.205,-3.272 -1.477,-0.016 -3.245,-4.975 -2.387,-6.864 0.523,-1.147 0.462,-1.416 -0.458,-2.326 -1.424,-1.408 -1.818,-3.565 -2.123,-5.528 -0.642,-4.143 -2.387,-6.082 -6.46,-6.178 -2.427,-0.059 -3.068,-1.358 -3.329,-3.352 -0.513,-3.899 -2.842,-4.8 -6.123,-2.528 -4.603,3.191 -9.741,5.355 -14.921,7.399 -1.765,0.695 -3.628,1.06 -4.861,2.776 -0.484,0.678 -1.413,1.274 -2.234,1.437 -6.583,1.305 -12.102,5.068 -18.072,7.77 -2.216,1.002 -4.477,0.902 -6.688,0.885 -5.075,-0.04 -10.141,0.377 -15.204,0.453 -2.87501,0.043 -5.87501,1.583 -9.03801,1.454 -5.761,-0.235 -11.477,-0.501 -17.217,-1.5 -3.085,-0.536 -6.525,-0.715 -9.82,-0.293 -2.532,0.32 -4.954,0.414 -7.385,-0.999 -0.503,-0.294 -2.256,-0.534 -3.457,-0.359 -0.296,0.04 -0.753,0.121 -0.88,-0.03 -3.435,-4.133 -8.705,-1.267 -12.71,-3.371 -4.545,-2.385 -9.507,-2.582 -14.573,-2.625 -4.036,-0.035 -7.243,-2.496 -10.146,-5.212 -1.538,-1.437 -3.796,-1.67 -5.382,-3.18 -1.735,-1.649 -4.861,-2.038 -4.501,-5.47 0.061,-0.564 -0.999,-0.652 -1.196,-0.399 -1.642,2.121 -3.07,0.525 -4.355,-0.31 -2.163,-1.405 -3.576,-0.845 -4.104,1.852 -0.056,0.294 -0.132,0.61 -0.299,0.845 -4.564,6.484 -4.888,14.848 -9.544,21.362 -1.386,1.945 -1.872,4.613 -1.662,7.352 0.483,6.247 -4.261,11.001 -10.545,11.004 -1.305,0 -2.623,-0.105 -3.917,0.021 -2.969,0.289 -3.936,-1.837 -4.815,-3.961 -0.41,-0.993 -0.524,-2.139 -0.632,-3.229 -0.359,-3.566 -0.303,-7.421 0.425,-10.628 0.958,-4.213 1.487,-8.978 3.434,-12.573 2.479,-4.57 1.876,-8.907 2.1,-13.429 0.121,-2.496 -0.129,-5.003 0.511,-7.483 0.404,-1.568 -0.481,-2.531 -1.608,-3.786 -3.834,-4.267 -9.307,-6.723 -12.724,-11.224 -3.842,-5.059 -9.736,-8.018 -13.146,-13.222 -2.212,-3.379 -6.871,-5.526 -6.14,-10.647 0.038,-0.261 -0.359,-0.683 -0.655,-0.872 -2.469,-1.581 -3.513,-4.057 -4.046,-6.735 -0.284,-1.423 -0.551,-2.071 -2.251,-1.861 -1.557,0.196 -3.271,-0.057 -4.108,-1.946 z m 170.562,50.35 c 0.502,-1.513 1.037,-2.458 2.63901,-2.089 0.756,0.175 1.611,0.061 2.397,-0.07 2.212,-0.37 4.873,0.616 6.241,-2.335 0.45,-0.974 1.586,-0.594 2.329,0.099 1.447,1.349 2.519,1.268 3.367,-0.668 0.32,-0.726 1.103,-1.112 1.947,-1.279 2.061,-0.405 4.147,-0.741 6.159,-1.319 5.596,-1.614 11.232,-2.775 15.964,-6.902 2.506,-2.188 5.188,-4.752 8.925,-5.597 3.024,-0.683 3.565,-2.812 2.848,-5.87 -0.525,-2.248 -2.866,-3.215 -3.409,-5.086 -1.224,-4.186 -3.69,-7.989 -3.578,-12.647 0.038,-1.58 0.78,-3.761 -0.82,-5.05 -2.521,-2.041 -3.933,-4.467 -4.714,-7.681 -0.453,-1.871 -1.09,-3.92 -2.281,-5.738 -1.561,-2.383 -3.255,-5.132 -3.477,-7.84 -0.415,-4.975 -1.988,-9.302 -3.87,-13.866 -1.648,-4.003 -3.134,-8.677 -1.604,-13.402 0.216,-0.665 -0.088,-1.606 -0.396,-2.311 -2.079,-4.762 -4.313,-9.18 -9.19,-12.106 -2.514,-1.508 -4.249,-1.922 -6.968,-1.187 -8.09,2.198 -16.27101,4.062 -24.42501,6.032 -0.245,0.058 -0.566,-0.099 -0.829,-0.215 -0.986,-0.435 -2.941,-0.44 -3.058,0.048 -0.728,3.035 -3.228,-0.142 -4.383,1.279 -0.091,0.112 0.063,0.395 0.033,0.584 -0.382,2.322 -1.798,3.356 -4.102,3.576 -2.883,0.273 -5.715,0.913 -8.646,0.928 -5.584,0.027 -11.292,0.045 -15.968,3.672 -3.017,2.339 -6.477,3.955 -9.35,6.612 -2.139,1.979 -3.626,3.723 -4.807,6.513 -1.275,3.012 -3.424,5.703 -4.869,8.879 -2.117,4.648 -4.941,9.016 -6.809,13.852 -1.56,4.041 -4.529,7.71 -4.256,12.229 0.275,4.545 -4.681,8.132 -2.079,12.954 0.071,0.129 -0.041,0.406 -0.142,0.566 -1.831,2.799 -2.061,5.976 -2.369,9.188 -0.243,2.524 2.759,7.173 5.313,7.12 2.739,-0.06 4.795,1.038 6.892,2.473 1.063,0.726 2.317,1.728 3.452,1.687 4.274,-0.149 6.256,2.878 8.46,5.47 2.361,-1.489 4.943,-1.534 7.543,-1.261 0.997,0.105 1.915,0.599 2.387,1.626 0.84,1.833 2.4,2.248 4.239,2.174 1.209,-0.048 2.334,0.162 3.47,0.747 3.556,1.825 6.953,3.515 11.34,3.535 5.703,0.025 11.401,1.478 17.097,2.337 3.703,0.562 7.296,0.807 10.603,-1.589 1.748,-1.265 2.74,-0.444 2.754,1.928 z m -59.537,-211.495 c -1.204,-0.218 -1.836,0.243 -2.279,0.723 -3.553,3.887 -7.875,6.123 -13.186,6.173 -0.784,0.007 -0.43,0.448 -0.529,0.68 -1.525,3.596 -4.506,5.842 -7.784,7.407 -2.362,1.128 -4.157,2.952 -6.414,4.095 -4.511,2.291 -6.727,7.87 -12.333,8.573 -0.397,0.051 -0.837,0.327 -0.673,0.814 0.73,2.167 -0.964,2.929 -2.16,4.127 -2.206,2.213 -4.353,4.517 -6.265,6.985 -3.078,3.978 -5.286,8.563 -7.951,12.731 -2.228,3.479 -3.755,6.854 -4.562,10.677 -0.45,2.124 -2.17,3.568 -2.476,5.675 -0.517,3.528 -2.479,6.648 -2.787,10.263 -0.124,1.441 -0.799,2.835 -1.818,4.046 -1.103,1.315 -1.475,2.779 -0.964,4.674 0.688,2.559 0.235,5.2 -1.383,7.427 -0.63,0.865 -0.716,1.753 -0.92,2.739 -0.888,4.282 -0.395,8.601 -0.536,12.898 -0.023,0.718 -1.146,1.917 0.404,2.177 0.961,0.16 1.985,0.135 2.752,-1.141 3.042,-5.052 8.32,-6.282 13.565,-7.258 3.303,-0.617 6.211,-1.851 8.601,-4.137 4.353,-4.158 9.371,-6.634 15.475,-6.626 4.912,0.008 7.342,-2.311 7.774,-7.106 0.733,-8.143 1.682,-16.276 5.763,-23.58 1.652,-2.959 3.26,-5.726 2.122,-9.347 -0.845,-2.696 1.067,-4.754 2.408,-6.77 2.198,-3.306 1.315,-7.767 4.241,-10.779 0.417,-0.43 0.422,-1.307 0.519,-1.995 0.318,-2.223 0.991,-4.234 2.83,-5.726 0.498,-0.405 1.196,-0.721 1.186,-1.613 -0.074,-5.367 3.004,-9.868 4.193,-14.901 0.293,-1.24 0.425,-3.061 2.489,-3.354 1.153,-0.165 0.938,-1.444 0.536,-1.94 -1.795,-2.213 -0.711,-4.325 0.162,-6.611 z m 49.677,17.632 c 0.678,-1.252 0.007,-1.669 -0.734,-2.109 -1.264,-0.751 -2.214,-2.008 -2.485,-3.275 -0.862,-4.066 -2.339,-8.012 -2.413,-12.253 -0.028,-1.664 -0.253,-3.439 -2.097,-4.36 -2.309,-1.155 -3.29,-3.164 -3.166,-5.637 0.043,-0.855 0.033,-1.27 -0.86,-1.495 -0.903,-0.226 -1.846,-0.122 -1.965,0.771 -0.362,2.744 -2.169,4.898 -2.797,7.529 -0.86,3.619 -1.49,7.333 -3.639,10.525 -0.309,0.456 -0.933,0.937 -0.625,1.599 1.151,2.479 -0.612,4.208 -1.598,6.085 -0.417,0.792 -1.138,1.444 -0.933,2.417 0.695,3.293 -0.339,6.555 -0.119,9.851 0.149,2.213 -0.341,4.441 -1.555,6.328 -1.368,2.132 -1.55,4.337 -1.538,6.808 0.01,1.752 1.839,5.136 -2.562,4.843 -0.147,-0.01 -0.4,0.812 -0.521,1.267 -0.318,1.188 -0.966,2.112 -1.841,2.997 -1.341,1.355 -2.084,2.934 -2.375,4.985 -0.347,2.427 1.277,5.09 -0.131,7.061 -2.016,2.825 -3.29,5.445 -2.612,9.048 0.384,2.031 -1.985,2.805 -3.139,4.15 -1.712,2.003 -0.746,5.228 -2.916,7.182 -0.384,0.349 0.048,1.017 0.413,1.315 0.703,0.577 0.905,-0.413 1.279,-0.638 1.138,-0.685 1.844,-1.98 3.553,-1.745 3.364,0.46 6.525,-0.422 9.63,-1.697 1.844,-0.756 3.779,-1.444 5.733,-1.735 1.876,-0.281 3.75,-0.387 5.597,-0.957 1.806,-0.559 3.804,-0.569 5.546,-1.251 1.728,-0.678 4.023,-2.494 4.967,-2.251 2.511,0.643 2.086,-1.778 3.3,-2.18 0.285,-0.096 0.576,-0.172 0.862,-0.263 4.529,-1.457 8.713,-4.006 13.80301,-3.647 2.413,0.172 4.373,-1.034 4.748,-3.953 0.541,-4.216 -0.709,-8.272 -2.734,-11.512 -3.09601,-4.952 -5.49601,-9.898 -6.76801,-15.642 -0.813,-3.677 -2.785,-7.213 -4.782,-10.478 -1.553,-2.531 -3.166,-4.795 -2.526,-7.683 z m 102.79301,47.391 c -0.498,3.017 -0.498,3.017 -4.448,1.259 0.778,1.682 0.482,2.921 -1.087,3.73 -1.778,0.92 -3.433,2.342 -5.312,2.741 -2.628,0.557 -4.734,2.428 -7.473,2.565 -0.757,0.038 -1.169,-0.417 -1.741,-0.648 -0.139,3.252 -1.835,2.289 -3.604,1.384 -0.478,-0.243 -0.966,0.081 -1.12,0.68 -0.548,2.124 -2.269,2.572 -4.089,2.756 -3.541,0.362 -6.596,2.269 -10.006,3.068 -1.344,0.316 -2.021,0.829 -0.451,2.372 2.364,2.324 4.293,4.898 5.143,8.53 0.704,3.004 2.079,5.71 0.964,8.857 -0.076,0.217 0.01,0.599 0.162,0.769 2.888,3.164 5.751,6.322 4.763,11.15 -0.043,0.223 0.215,0.574 0.425,0.769 4.567,4.254 4.721,9.937 3.978,15.308 -0.776,5.589 2.049,9.803 4.017,14.296 0.85,1.942 1.394,3.827 0.597,5.283 -0.979,1.78 -0.078,2.049 0.986,2.601 2.517,1.305 5.548,1.795 7.075,4.644 0.301,0.561 0.946,0.414 1.225,-0.092 1.143,-2.076 3.399,-3.788 1.61,-6.723 -1.141,-1.873 -0.538,-3.881 0.896,-5.527 1.345,-1.546 2.139,-3.369 2.769,-5.278 0.628,-1.902 1.398,-3.715 2.339,-5.503 1.958,-3.726 1.409,-8.454 4.586,-11.727 -1.29,-4.481 1.795,-8.649 0.931,-13.133 -0.233,-1.222 -0.218,-2.587 0.713,-3.733 0.69,-0.85 0.455,-1.894 0.269,-2.896 -0.754,-3.98 -1.217,-8.241 0.131,-11.896 1.978,-5.359 0.943,-10.796 1.682,-16.153 0.598,-4.339 -2.897,-7.01 -5.93,-9.453 z m -73.313,-67.021 c 1.184,2.453 0.6,5.068 0.774,7.625 0.068,0.969 -0.278,2.173 0.736,2.779 2.587,1.553 2.554,3.996 2.038,6.373 -0.248,1.139 0.402,1.533 0.68,2.292 1.63,4.433 4.863,7.989 6.513,12.465 0.868,2.354 2.006,4.848 3.419,6.929 2.205,3.25 4.322,6.128 2.904,10.412 -0.725,2.185 1.52,5.013 3.09,4.532 3.334,-1.021 6.815,-1.735 9.932,-3.214 2.315,-1.103 4.773,-0.946 7.073,-1.823 5.169,-1.973 9.426,-5.918 15.201,-6.656 2.501,-0.321 3.359,-2.949 1.546,-4.201 -2.109,-1.454 -3.364,-3.333 -4.871,-5.263 -1.135,-1.451 -2.269,-3.646 -3.836,-4.334 -3.432,-1.51 -5.316,-4.314 -7.739,-6.788 -1.103,-1.127 -1.527,-3.186 -3.379,-3.449 -4.168,-0.589 -6.601,-3.847 -9.643,-6.14 -0.73,-0.551 -1.315,-1.057 -2.269,-1.234 -5.654,-1.065 -10.483,-4.027 -15.333,-6.889 -2.175,-1.284 -3.502,-4.177 -6.836,-3.416 z m -137.07101,173.358 c 0.276,-4.26 0.293,-7.739 1.836,-11.29 1.039,-2.388 1.375,-5.263 2.994,-7.564 0.577,-0.816 0.708,-1.303 0.018,-2.296 -1.055,-1.518 0.268,-6.36 1.611,-7.499 0.404,-0.344 1.583,0.229 1.212,-0.788 -0.286,-0.782 -1.042,-1.078 -1.951,-0.375 -2.68,2.082 -6.095,2.732 -9.175,3.197 -3.02,0.455 -4.327,2.349 -6.292,3.917 -3.025,2.413 -1.414,4.658 -0.273,7.059 0.162,0.344 0.253,0.819 0.157,1.176 -0.799,2.926 0.508,4.878 2.916,6.26 3.085,1.769 3.839,5.487 6.947,8.203 z" id="path9" style="fill:#ac9393;fill-rule:evenodd;stroke:#ffffff;stroke-width:0.28349999;stroke-miterlimit:10">
      </path>
    </g>
    <text style="font-style:normal;font-variant:normal;font-weight:bold;font-stretch:normal;font-size:50px;line-height:125%;font-family:'Roboto Condensed';-inkscape-font-specification:'Roboto Condensed, Bold';text-align:start;writing-mode:lr-tb;text-anchor:start;fill:#ac9393;stroke-miterlimit:10" y="761.20203" x="799.8374" stroke-miterlimit="10" font-size="71.3207" id="text1131">
      <tspan y="761.20203" x="799.8374" id="text31" style="font-style:normal;font-variant:normal;font-weight:bold;font-stretch:normal;font-size:50px;line-height:125%;font-family:'Roboto Condensed';-inkscape-font-specification:'Roboto Condensed, Bold';text-align:center;writing-mode:lr-tb;text-anchor:middle;fill:#ac9393">
        I MAKE MY OWN FREEDOM
      </tspan>
    </text>
  </g>
</svg>