<?xml version="1.0" encoding="utf-8"?>
<?xml-stylesheet type="text/css" href="https://fonts.googleapis.com/css?family=MyriadPro-SemiboldIt|Anton|MyriadPro-It"?>
<svg xmlns:dc="http://purl.org/dc/elements/1.1/" xmlns:cc="http://creativecommons.org/ns#" xmlns:rdf="http://www.w3.org/1999/02/22-rdf-syntax-ns#" xmlns:svg="http://www.w3.org/2000/svg" xmlns="http://www.w3.org/2000/svg" xmlns:xlink="http://www.w3.org/1999/xlink" version="1.1" id="Layer_1" x="0px" y="0px" width="1600px" height="1000px" viewBox="0 0 1600 1000" enable-background="new 0 0 1600 1000" xml:space="preserve">
  <metadata id="metadata27">
    <rdf:RDF>
      <cc:Work rdf:about="">
        <dc:format>
          image/svg+xml
        </dc:format>
        <dc:type rdf:resource="http://purl.org/dc/dcmitype/StillImage">
        </dc:type>
        <dc:title>
        </dc:title>
      </cc:Work>
    </rdf:RDF>
  </metadata>
  <defs id="defs25">
    <clipPath id="clipPath4162" clipPathUnits="userSpaceOnUse">
      <path id="jd_bd" d="m 418.64407,545.7627 830.50853,0 0,315.25427 -830.50853,0 z" style="opacity:1;fill:none;fill-opacity:1;fill-rule:nonzero;stroke:#ffc300;stroke-width:2.20000005;stroke-linecap:butt;stroke-linejoin:miter;stroke-miterlimit:4;stroke-dasharray:none;stroke-dashoffset:0;stroke-opacity:1">
      </path>
    </clipPath>
  </defs>
  <image xlink:href="/designs/templates/002000101-2.jpg" overflow="visible" enable-background="new    " width="600" height="400" id="jd_bg" transform="matrix(2.6667 0 0 2.5 2.441406e-004 -2.441406e-004)">
  </image>
  <g clip-path="url(#clipPath4162)" id="jd_nt">
    <g id="quotes" transform="translate(-54.237288,-40.677966)">
      <text y="627.77124" x="892.16083" font-size="30" id="text4156" style="font-size:30px;line-height:125%;font-family:MyriadPro-SemiboldIt;fill:#9a8479">
        <tspan style="font-style:normal;font-variant:normal;font-weight:normal;font-stretch:normal;font-size:35px;line-height:125%;font-family:Anton;-inkscape-font-specification:'Anton, Normal';text-align:center;writing-mode:lr-tb;text-anchor:middle" id="text21">
          “Just trust yourself and you'll learn the art of living.”
        </tspan>
      </text>
    </g>
    <g id="from" transform="translate(23.728814,-5.0847458)">
      <text y="684.33032" x="985.41504" font-size="22" id="text4160" style="font-size:22px;line-height:125%;font-family:MyriadPro-It;fill:#9a8479">
        <tspan style="font-style:normal;font-variant:normal;font-weight:normal;font-stretch:normal;font-size:27.5px;line-height:125%;font-family:Anton;-inkscape-font-specification:'Anton, Normal';text-align:center;writing-mode:lr-tb;text-anchor:middle" id="text22">
          from  Anna to MIchael, 23.07 2017.
        </tspan>
      </text>
    </g>
    <g id="graphic">
      <g id="g7">
        <path fill="#9A8479" d="M489.1,807.9c0,0-8.3,7.2-10.9,7.7c0,0-10.7,3.9-11.8,6.3c-1.1,2.4-3.1,4.2-4.4,2    c-1.3-2.2-1.5-3.7,0.9-6.1c2.4-2.4,5.5-4.8,7.4-6.3c2-1.5,2.8-1.3,5.2-2.4c2.4-1.1,9.8-7,11.8-10.9c2-3.9,2-16.6,9.4-20.6    c0,0-7.9-1.7-17.5,10.7c0,0-10.1,12.9-22.7,0c0,0-4.2-5.7,2.2-2.2c0,0,7.9,7.9,14.9,1.3c0,0,13.8-18.8,29.7-17.3    c0,0,8.1-2.8,20.6-3.9c0,0,31.3-0.9,38-1.5c6.8-0.7,22.3-2,25.6-3.3c0,0,5.9-3.9,7-2l5-0.2c0,0-1.5-10.7,1.3-9.6    c0,0,0.5-5.2,2.2-3.4c0.3,0.3,0.5,0.7,0.8,1.2c2.4,4.6,3.1,6.6,4.6,7.9c1.5,1.3,12.7,1.1,15.7,11.6c0,0,12.2,3.5,9,9    c0,0-0.9,5.9-11.6,2.9c0,0-2,4.4-6.1,4.6c-4.2,0.2-7,1.5-7.9,1.1c0,0-4.8,2.8-5.5,2.8c-0.7,0-3.5-0.4-3.5-0.4s0.4,7-0.4,9.6    c0,0,13.8,12.2,17.3,13.3c3.5,1.1,7.4,3.7,9.6,5.7c2.2,2,6.1,3.3,7.9,3.5c1.8,0.2,5.5,3.1,2.8,5.2c-2.6,2.2-3.5,0.7-5.7-1.1    c-2.2-1.8-3.9-1.5-5.5-2.2c-1.5-0.7-4.8-2.2-7.7-3.5c-2.8-1.3-20.1-8.5-22.1-10.5s-3.5-3.5-3.5-0.7s1.8,24.1,5,28    c3.3,3.9,5.7,5.2,8.1,5.7c2.4,0.4,6.8,0.2,5.5,3.5c0,0,0,2.6-9,0s-5.7-2.6-7.7-3.7c-2-1.1-4.6-3.3-4.8-6.1c-0.2-2.8-5-12.5-5.7-16    s-3.5-6.6-3.1-10.1c0.4-3.1-0.2-7-2.2-6.9c-0.3,0-0.6,0.1-0.9,0.3c-2.6,1.5-19,0-25.8-2.6c-6.8-2.6-17.7-5.9-21.2-5    c-3.5,0.9-15.1-0.9-18.4,5.5c-3.3,6.3-4.6,11.4-10.5,15.5c-5.9,4.2-9.6,7.7-13.1,9.8c-3.5,2.2-7.2,1.8-7,5c0.2,3.3,0,9.4,1.7,10.5    c1.8,1.1,8.1,1.1,7,3.7c-1.1,2.6-1.3,2-5.7,0.2c-4.4-1.7-2.8-0.9-4.4-1.7c-1.5-0.9-3.9-2-3.5-5.2c0.4-3.3,0.4-9.8,0.2-11.2    c-0.2-1.3-0.7-2.6,3.5-5.5C483.8,817.1,490,811.8,489.1,807.9z" id="path9">
        </path>
        <path fill="#9A8479" d="M832.4,769.7c-0.4-7-12.5-10.7-12.5-10.7c-2.4-6.1-11.4-1.5-11.4-1.5c-2.4-2-6.1,0-5-0.2    c1.1-0.2,3.5,5.5,3.5,5.5l-5.3,1.1c-4.4-1.7-10.3,2.4-10.3,2.4c-5.5,1.8-32.6-2.6-32.6-2.6c-26.9-4.1-43.3,5.7-43.3,5.7    c-16.6-2.4-22.1,11.4-22.1,11.4c-7.9,11.4-18.6,7.2-18.6,7.2c-8.1-4.1-4.8-0.4-4.8-0.4c9.8,11.1,21.9,0.6,21.9,0.6    c13.8-16.8,19.2-12.7,19.2-12.7c-10.1,3.9-7.6,17.5-7.6,17.5s-0.4,1.1-2.2,1.8c-1.8,0.7-4.4,0.4-7.2,0.9c-2.8,0.4-3.3,2-3.9,3.7    c-0.7,1.7-6.1,8.5-6.1,8.5c-2,0.4-3.1,3.1-4.6,3.5c-1,0.3-1.3,2.7-1.5,4.4l-5.5,2.9c-4.6,1.1-7.9,3.9-7.9,3.9    c-4.6,6.6,4.2,4.6,5.9,3.1c1.7-1.5,6.3-3.7,9.6-5c3.3-1.3,8.1-2.8,14.2-4.6c6.1-1.7,11.2-1.3,19.7-4.8s10.1-11.4,13.1-15.3    c3.1-3.9,7.9-4.4,11.6-4.8c3.7-0.4,14.2,2.8,16.8,4.8c2.6,2,9,6.8,9,6.8s2.8-3.9,0.9,0c-2,3.9,0.9,4.8,0.9,4.8s-0.7,2.6-2.2,5.5    c-1.5,2.8-1.7,7.4-5,12.7c-3.3,5.2-1.5,6.3-0.2,9.6s-2,5,4.8,8.3c6.8,3.3,9,1.3,9,1.3c2.6-2.4-4.2-3.5-5-4.4    c-0.9-0.9-2.6-2.8-3.7-5.7c-1.1-2.8,6.1-12,7.6-16.6c1.5-4.6,11.1-12,11.1-12c3.5,0,14.4-4.4,14.4-4.4l-0.9,4.8    c-1.7,4.6,11.2,12.9,13.8,15.3c2.6,2.4,14,12.9,16.8,14.9s5.5,5,10.3,3.3c4.8-1.8-2.6-5.5-5.7-6.6c-3.1-1.1-8.3-6.3-8.3-6.3    c-14.9-16.8-16.8-25.1-16.8-25.1c0.9-3.3,1.1-12.2,1.1-12.2l1.7,1.1l5.9-4.2c9.6,3.3,15.3-2.4,15.3-2.4c4.8-0.2,9.4-5.7,9.4-5.7    C843.7,773.4,832.4,769.7,832.4,769.7z M700.8,803.7c-0.8,1.6-10,5.9-12.7,7.4c3-8.5,12-7.2,12-7.2S701.6,801.9,700.8,803.7z" id="path11">
        </path>
        <path fill="#9A8479" d="M936.5,792.6c0,0-1.7,12.2-7.9,13.3c-6.1,1.1-9.8,0.7-10.9,2.4c-1.1,1.7-2.2,3.3-2,4.6s2.6,7.2,6.1,8.5    s1.5,3.5-0.2,4.6c0,0-3.7-0.9-5.5-3.7c-1.7-2.8-4.2-11.4-8.1-11.8c0,0-2.6-1.1-1.3-2.2c0,0-7,4.8-8.7,8.5c-1.7,3.7-2.4,7-3.9,8.3    s-10.9,1.3-7.4-2.6c3.5-3.9,2.6-2.6,4.4-2.4c0,0,2.2-3.1,3.3-6.6s4.8-9.8,5.9-11.6c1.1-1.8,0.9-3.1,4.4-2.8    c3.5,0.2,9.6,1.3,10.1-0.4c0,0-2.2-7.4-4.6-8.1c0,0-7.9-5.9-2.2-14c0,0-3.5-4.4-8.1,5.9c-4.6,10.3-15.5,11.4-17.1,11.4    c-1.5,0-12.2-2.4-11.6-8.3c0,0-0.7-3.9,2.2,0c0,0,7.4,7.6,13.8,2.6c0,0,5.5-2.2,9.2-9.2s8.3-9.2,14.2-9.8c0,0,8.1-12,36.5-8.1    c0,0,11.6,3.5,19.7,3.9c8.1,0.4,17.3,1.7,20.6-0.2c3.3-2,4.8-1.5,4.8-1.5l4.6-2l3.5-0.7c0,0-1.5-2.2,0.7-3.3    c2.2-1.1,5.5-3.7,6.8-1.7c0,0,13.3,0.2,15.1,9.4c0,0,9.8,2.2,7.9,7c0,0-2.2,5.7-5,6.6c0,0-14.6,4.4-21.2,1.3l0.2,2.4l-6.6,3.5    c0,0-5,5.7-6.3,7.9c-1.3,2.2-12.5,13.6-17.7,15.5c0,0-2.6,15.1-1.1,19.5c1.5,4.4,2.6,6.8,5.2,7.4c2.6,0.7,7-1.5,5.9,3.9    c0,0-2,1.7-8.8,0.2s-6.3-3.5-7.2-6.3c-0.9-2.8-2.4-2.4-2.6-7.4s-0.7-10.3-0.7-10.3s-6.1,8.7-8.3,12c-2.2,3.3-2.6,3.9-5,4.8    c-2.4,0.9-15.5,2.4-17.1-3.3c-1.5-5.7,5.5-3.1,8.1-0.7c2.6,2.4,4.2,0.7,5.9-0.9c1.8-1.5,7.4-19.7,8.5-21.4c1.1-1.8,2-3.1,2-3.1    s-9.4-6.3-12-7.9C944.1,794.4,936.3,790.7,936.5,792.6z" id="path13">
        </path>
        <path fill="#9A8479" d="M1207.3,761.1c-3.3-7.7-9-8.7-16.4-8.1c-7.4,0.7-10.9,7.9-10.9,7.9l-2.4-0.4l-5.5,3.5c0,0,0,0-2.6,1.3    c-2.6,1.3-10.5,0.9-21.6-1.1c-11.2-2-24.7-3.5-24.7-3.5c-19.5-1.5-26.2,11.8-26.2,11.8c-5,0.7-7.9,2-11.8,6.3    c-3.9,4.4-4.4,6.6-7.6,12.5c-3.3,5.9-9.6,3.7-9.6,3.7c-4.6-2.2-4.2-10.5-4.2-10.5c-0.7-5.7-2.2,0.7-2.2,0.7    c-3.3,10.1,4.4,13.6,6.6,14.2c2.2,0.7,12.5-0.9,15.7-8.8c3.3-7.9,12.2-12,12.2-12c-3.5,12,8.5,18.6,15.3,20.1s-2.2,9-2.2,9    c-3.1,3.1,6.1,14.4,6.1,14.4s9.6,7,8.3,8.5s-5.7,8.1-3.5,9.6s4.6,2.8,6.6,0.4c2-2.4-0.4-3.1,0.4-4.8c0.9-1.8,6.3-5.5,6.3-5.5    s5.9,5,7.9,5.2c2,0.2,7.2,0.9,7.7-1.5c0.4-2.4-1.1-3.1-4.4-3.1s-6.6-3.5-6.6-3.5c0.9-0.4,17-17.5,17-17.5    c1.5-0.2,7.7,15.1,7.7,15.1s1.7-0.9,0,0.9c-1.8,1.7-1.5,1.3-7.7,1.3c-6.1,0-3.5,8.1,2.2,5.9c5.7-2.2,12.7-7.2,12.7-7.2    c2.4-3.5-3.1-18.8-3.5-21c-0.4-2.2,3.3-4.4,3.3-4.4c6.1,0,13.8-15.7,13.8-15.7l3.5,0.7l4.6-3.1l0.7-2.4c1.7-0.7,13.3-2.8,16.6-3.5    c3.3-0.7,3.3-3.9,3.3-3.9c2.6-0.4,2.8-5.9,2.8-5.9C1216.9,761.5,1207.3,761.1,1207.3,761.1z M1118.6,814.7    c-3.5-3.9,2.8-7.7,2.8-7.7c-0.9,1.7,2.2,13.6,2.2,13.6S1122.1,818.6,1118.6,814.7z M1133,820.1c-3.7-3.9-0.9-23.4-0.9-23.4    c0.2-3.7,12.9,7.9,12.9,7.9C1142.6,811.4,1133,820.1,1133,820.1z" id="path15">
        </path>
      </g>
    </g>
  </g>
</svg>