<?xml version="1.0" encoding="utf-8"?>
<svg xmlns:dc="http://purl.org/dc/elements/1.1/" xmlns:cc="http://creativecommons.org/ns#" xmlns:rdf="http://www.w3.org/1999/02/22-rdf-syntax-ns#" xmlns:svg="http://www.w3.org/2000/svg" xmlns="http://www.w3.org/2000/svg" xmlns:xlink="http://www.w3.org/1999/xlink" version="1.1" x="0px" y="0px" width="1600px" height="1000px" viewBox="0 0 1600 1000" enable-background="new 0 0 1600 1000" xml:space="preserve" id="svg2">
  <metadata id="metadata77">
    <rdf:RDF>
      <cc:Work rdf:about="">
        <dc:format>
          image/svg+xml
        </dc:format>
        <dc:type rdf:resource="http://purl.org/dc/dcmitype/StillImage">
        </dc:type>
        <dc:title>
        </dc:title>
      </cc:Work>
    </rdf:RDF>
  </metadata>
  <defs id="defs75">
    <clipPath clipPathUnits="userSpaceOnUse" id="clipPath4171">
      <path style="opacity:1;fill:none;fill-opacity:1;fill-rule:nonzero;stroke:#ffc300;stroke-width:1.92468047;stroke-linecap:butt;stroke-linejoin:miter;stroke-miterlimit:4;stroke-dasharray:none;stroke-dashoffset:0;stroke-opacity:1" d="m 484.54371,129.15155 610.32429,0 0,640.47141 -610.32429,0 z" id="jd_bd">
      </path>
    </clipPath>
  </defs>
  <image xlink:href="/designs/templates/002000301-1.jpg" overflow="visible" enable-background="new    " width="600" height="400" id="jd_bg" transform="matrix(2.6667,0,0,2.5,2.441406e-4,-2.441406e-4)" style="overflow:visible">
  </image>
  <g clip-path="url(#clipPath4171)" id="jd_nt" transform="translate(-33.333333,47.916667)">
    <g id="graphic" transform="matrix(0.88175262,0,0,0.88175262,58.01617,16.658768)">
      <g id="g9">
        <path d="m 938.3,579.3 c 12.2,-21.8 25,-43.2 37.2,-65 17.8,-31.6 30.8,-65.1 37.1,-101.3 1.1,-6.3 1.9,-12.6 2.8,-19 0.1,-0.4 0.6,-0.4 0.6,0 3.5,32.1 0.9,63.6 -5.6,95 -7.2,35 -19.6,67.7 -35.3,99.4 -9.7,19.6 -19,39.8 -24.4,61.2 -4.2,16.8 -4.7,35.6 11.2,46.2 12.6,8.4 28.5,7.1 42.1,2.2 12.2,-4.4 25,-11.4 31.5,-23.6 7,-13.2 -0.2,-28.4 -11.7,-35.7 -18.7,-11.8 -40,-4.2 -59.5,0.7 -0.6,0.1 -2.4,0.7 -3.7,1 -0.6,0.2 -1.2,-0.4 -1,-1 0.4,-1.5 1.1,-3.8 1.6,-4.9 5.7,-13.6 11.4,-27.2 17.3,-40.8 0.6,-1.3 1.6,-3 2.7,-3.5 14.1,-5.4 28.6,-9.5 43.7,-7.9 19,2 32.5,13.4 42.6,29.6 13.5,21.5 16,44 6.3,68 -5.5,13.6 -12.8,25.8 -21.7,37.1 -9.8,12.4 -22.4,19.3 -37.5,20.6 -16.8,1.4 -33.6,2.3 -50.5,2.3 -17.4,0 -34.5,1.2 -51.2,6.6 -0.8,0.3 -1.7,0.4 -2.7,0.6 -0.2,0 -0.3,-0.1 -0.4,-0.2 -0.2,-0.5 -0.4,-0.9 -0.4,-1.4 -0.4,-35 -0.5,-69.9 5.7,-104.5 4.1,-21.9 12.5,-42.4 23.2,-61.7 z" id="path11" style="fill:#9b6550">
        </path>
        <path d="m 766.7,221.8 c 34.5,-11.8 68.9,-12.6 102.9,2.2 17.7,7.7 33.4,18.6 47.1,32.5 22.9,23.3 36.9,51.7 43.2,84.6 6.6,34.2 9.9,68.5 6.9,103.3 -3.1,35.3 -15.4,66.7 -36.4,94.6 -8.2,10.8 -17.7,19.4 -30.6,23.2 -15.1,4.4 -29.5,2.6 -43.1,-5.9 -25.4,-16.1 -40.1,-50.7 -33.6,-79.7 1.3,-5.6 3.4,-10.7 7.8,-15.8 0.2,-0.2 0.6,0 0.5,0.3 -4.4,14.8 -2.2,28.1 5.5,39.4 10.9,16 31.1,32.6 51.1,28.4 22,-4.6 31.3,-31.9 36.2,-51.8 6.8,-27.4 6.5,-55.2 2.6,-83 -4.7,-32.9 -13.5,-64.6 -27.7,-94.4 -20.7,-43.2 -54.8,-67.7 -100.3,-74.8 -11,-1.7 -22.3,-1.8 -33,-2.6 -0.1,0.1 0.4,-0.3 0.9,-0.5 z" id="path13" style="fill:#9b6550">
        </path>
        <path d="m 717.1,516.8 c -4.5,-21.8 -9.4,-36.5 -18.8,-56.9 -0.1,-0.3 0.2,-0.6 0.4,-0.4 12.6,8.3 25.2,16.7 38.2,25.2 0.2,0.1 0.4,0 0.5,-0.2 1.3,-4.7 2.4,-9.1 3.6,-13.5 5.1,-18.8 12.7,-36.5 23.6,-52.2 8.4,-12 9.7,-24 6.1,-37.5 -0.3,-1.2 -0.6,-2.4 -0.7,-3.7 0,-0.3 0.3,-0.5 0.5,-0.2 6.8,8.4 13.1,17.2 14.9,28.3 0.7,4.4 0,9.3 -1.1,13.6 -3.7,14.6 -8.6,29 -11.7,43.7 -8.6,41.1 5,74.4 34.9,101 16.2,14.4 35.3,22.8 56.2,26.9 9.8,1.9 18.9,-0.6 27.9,-4.4 13.2,-5.7 33.9,-25.1 40.2,-31.3 0.4,-0.4 1.1,0.1 0.9,0.6 -6.3,15.3 -14.3,29.5 -26.1,40.9 -18.9,18.5 -40.6,30.9 -67.1,31.7 -11.8,0.4 -23.1,-2.6 -33.8,-7.5 -31.8,-14.6 -58.8,-35.3 -76.3,-67.7 -6.2,-11.3 -9.7,-23.7 -12.3,-36.4 z" id="path15" style="fill:#9b6550">
        </path>
        <path d="m 1012.8,373.3 c -5,30.9 -10.8,60.4 -22,88.4 -10.7,26.7 -25.7,50.6 -43.4,72.7 -0.4,0.6 -1.3,0 -1,-0.7 6.3,-13.8 25.1,-56.9 27.1,-88.2 1.3,-17.6 0.5,-35.5 -0.4,-53.2 -1.1,-23.1 -4,-46 -9.7,-68.4 -6.4,-25.4 -19.6,-46.6 -37.1,-65.1 -8,-8.5 -16.9,-16.2 -26.2,-24.9 -0.2,-0.2 0,-0.6 0.3,-0.6 14.2,3.5 26.7,8.4 38.7,14.8 35.4,18.9 63.9,45.9 84.9,81.1 11.4,19 17.7,40.3 23.2,61.8 6.3,24.5 10.5,49.4 13.2,74.7 0,0.4 -0.5,0.5 -0.6,0.1 -11,-32.9 -22.7,-65.6 -46.6,-92.8 -0.1,0 -0.4,0.1 -0.4,0.3 z" id="path17" style="fill:#9b6550">
        </path>
        <path d="m 834.3,554.8 c 8.4,13.4 20.1,22.8 34,29.5 1.1,0.5 2.2,1.1 3.3,1.6 0.1,0 0.1,0.2 0.6,1.1 -3.1,-0.3 -5.9,-0.3 -8.6,-0.9 -41.8,-10.5 -73.5,-36.2 -86.3,-85.9 -4.9,-19.1 -0.2,-37.8 6.3,-55.8 4,-11.2 8.4,-22.3 11.9,-33.6 4.6,-14.7 0.4,-26.9 -10.8,-36.8 0,0 0,0 0,0 0.6,-1.2 0.4,-0.9 1,-2 11,4 22.1,8 33.4,12.1 0.2,0.1 0.3,0 0.4,-0.2 9.1,-28.2 -12.9,-85.8 -16,-94.6 -0.1,-0.3 0.3,-0.6 0.5,-0.3 10.1,9.3 17.5,19.4 22.3,25.1 18.7,22.6 25.3,51 27.4,80.4 0.8,10.5 -1.8,20.9 -9.7,27.7 -6.4,5.5 -14.5,8.5 -20.9,14 -8.9,7.5 -12.8,20.5 -13.6,32 -1,15.3 1.8,32.3 6.2,46.8 4.3,14 10.9,27.3 18.6,39.8 z" id="path19" style="fill:#9b6550">
        </path>
        <path d="m 1020.6,394.3 c 15.2,17 45.1,98.2 49.1,132.3 0,0.4 -0.4,0.5 -0.6,0.2 -9.1,-20.5 -17.6,-40.3 -29.8,-58.1 -0.2,-0.2 -0.5,-0.1 -0.5,0.1 -3.1,25.6 -6.5,51 -14.6,76.2 -0.1,0.2 0,0.4 0.2,0.4 10.6,2.4 20.5,5.6 28.6,13.1 0.2,0.2 0.6,0 0.5,-0.3 -2,-8.7 -4.1,-17.4 -6.2,-26.5 -0.1,-0.3 0.3,-0.5 0.5,-0.3 10.4,14 30,62.9 34.8,87.2 0.1,0.3 -0.3,0.5 -0.5,0.3 -0.8,-1 -1.3,-1.6 -1.9,-2.3 -6.8,-8.2 -13.3,-16.7 -20.4,-24.5 -15.8,-17.5 -35.7,-22 -57.7,-18.4 -5,0.8 -9.8,2.3 -15.6,3.8 -0.2,0.1 -0.4,-0.2 -0.3,-0.4 24.3,-58.2 41.3,-117.5 33.8,-182.4 0.1,-0.4 0.4,-0.6 0.6,-0.4 z" id="path21" style="fill:#9b6550">
        </path>
        <path d="m 879.9,787.3 c 2.9,-0.6 3.8,-1.9 4.3,-4.6 3.6,-18.4 7.3,-36.7 11,-55.1 1.8,-8.8 3.7,-17.6 6.1,-26.4 0.2,-0.6 1,-0.5 1,0.1 l 0,118.5 c 0,0.4 -0.4,0.7 -0.8,0.4 -3.2,-2.1 -6.4,-4.5 -9.9,-6.4 -9.8,-5.4 -15.3,-4.5 -22.9,3.9 -6.2,6.9 -11.2,14.4 -11.4,24.3 0,0.5 -0.7,0.7 -1,0.2 -5.6,-12.5 -5.7,-25 1,-37.3 5.2,-9.2 12.5,-15.6 22.6,-17.6 z" id="path23" style="fill:#9b6550">
        </path>
        <path d="m 708.8,350 c -2.1,-4.1 -4.4,-8.1 -6.3,-12.4 -0.1,-0.3 0.2,-0.6 0.5,-0.4 7.6,8.2 34.2,32.9 37,65.5 1.3,23.3 -1.9,46.1 -6.8,68.7 -0.1,0.3 -0.3,0.6 -0.7,1.1 -0.1,0.1 -0.3,0.2 -0.4,0.1 -10.4,-5.7 -20.8,-11.5 -32.3,-17.8 -0.3,-0.1 -0.2,-0.5 0.1,-0.6 5.4,-1.2 10,-2.1 14.4,-3.3 1.3,-0.4 3.2,-1.6 3.4,-2.8 3.9,-20.1 7.6,-40.3 5,-60.9 -1.6,-13.5 -7.8,-25.4 -13.9,-37.2 z" id="path25" style="fill:#9b6550">
        </path>
        <path d="m 857.8,629.5 c 21.9,-4.4 38.9,-18.1 54.2,-32.6 0.1,0 0.1,-0.1 0.2,-0.1 l 11.3,-0.7 c 0.2,0 0.4,0.2 0.3,0.4 -2.9,7.5 -5.9,15.1 -8.2,22.2 -2.5,7.6 -4.3,14.6 -6.6,22.3 -0.4,1.2 -1.9,2.9 -2.9,2.9 -16.8,-0.6 -32.3,-6.2 -48.3,-13.9 -0.3,0 -0.3,-0.5 0,-0.5 z" id="path27" style="fill:#9b6550">
        </path>
        <path d="m 733.5,578.9 c 8.2,7.1 16.2,14 24.1,21 0.8,0.7 1.2,1.9 1.6,3 7.6,23.8 14.7,47.8 18.7,72.6 2.4,14.7 1.9,29.5 0.3,44.3 0,0.4 -0.5,0.4 -0.6,0 -1.8,-10.8 -3.5,-21.5 -5.4,-32.3 -4.7,-26.4 -13.4,-51.4 -24.9,-75.4 -4.7,-9.8 -8.8,-19.9 -13.1,-29.9 -0.4,-0.9 -0.8,-1.9 -1.2,-3 -0.1,-0.3 0.3,-0.6 0.5,-0.3 z" id="path29" style="fill:#9b6550">
        </path>
        <path d="m 842,734.6 c -10.4,-33.2 -23.1,-65.9 -25,-101.8 0,-0.2 0.2,-0.4 0.4,-0.3 7.9,1.7 15.1,3.2 22.9,4.9 0.2,0 0.3,0.2 0.2,0.4 -5.8,32.3 -1.8,64.5 2.1,96.8 0,0.2 -0.5,0.4 -0.6,0 z" id="path31" style="fill:#9b6550">
        </path>
        <path d="m 811.7,786.4 c 3.3,-0.3 5.5,-1.5 7.5,-4.3 4.7,-6.7 14,-18.3 17.8,-22.3 0.5,-0.5 1.3,0 1.1,0.7 -3.9,12.5 -7.7,24.9 -11.6,37.4 -1.5,4.7 -4.5,6.9 -9.2,6.7 -11.5,-0.5 -19.7,4.5 -24.2,15.7 -0.5,1.2 -1.1,2.3 -1.6,3.5 0,0.1 -0.2,0.1 -0.8,0.2 -0.3,0 -0.6,-0.2 -0.6,-0.6 0.9,-7.6 1,-15 2.8,-22 2.5,-9.6 9.7,-14.2 18.8,-15 z" id="path33" style="fill:#9b6550">
        </path>
        <path d="m 829.2,801.9 c 1.2,-0.9 2.7,-2.1 4,-2.1 5.3,-0.1 7,-4 8.8,-8.2 2.6,-5.8 8,-17.1 10.2,-21.1 0.2,-0.5 0.9,-0.3 0.9,0.3 0.1,13.9 1.2,29.7 -4.5,43 -0.1,0.2 -0.3,0.3 -0.6,0.3 -11.5,-2.8 -20.6,5.7 -24.9,25.5 -0.1,0.4 -0.7,0.6 -0.9,0.2 -7.3,-12.1 -4.2,-29.8 7,-37.9 z" id="path35" style="fill:#9b6550">
        </path>
        <path d="m 1012.6,800.1 c -1.9,-8.7 -1.2,-17.2 2.2,-25.4 2,-4.7 4.8,-8.7 9.7,-11.1 0.6,-0.3 1.2,0.2 1.1,0.8 -0.2,1.7 -0.4,3.1 -0.5,4.5 -0.6,6 -1,11.9 1.2,17.9 4.5,12 2.1,23 -5.4,32.9 -6,7.8 -18.7,11.1 -27.6,7.3 0.4,-0.3 0.7,-0.6 1,-0.6 12.7,-0.8 21.2,-13.1 18.3,-26.3 z" id="path37" style="fill:#9b6550">
        </path>
        <path d="m 755.4,404.4 c 4.6,-6.6 8.7,-14.7 9,-26.3 4.8,10.5 7,20.1 1,30.1 -5.8,9.6 -11.5,19.3 -17.2,29 -1.7,2.9 -3.2,5.9 -5.3,9.8 1.1,-12.9 2.5,-24.7 3,-36.5 0.5,-11.9 -2.3,-23.4 -6,-34.7 8.8,7.4 14.2,16.7 15.5,28.6 z" id="path39" style="fill:#9b6550">
        </path>
        <path d="m 970.2,775.2 c 0.6,-0.6 1.6,0 1.3,0.9 -1.7,4.8 -3.4,8.9 -4.1,13.2 -1.1,6.4 -2.2,13.2 -1.3,19.6 1.6,10.5 13,15.1 21.5,9.9 0.5,-0.3 1.3,0.1 1.2,0.8 -0.7,6.4 -6.4,12.8 -13.2,14.8 -7.6,2.2 -13.6,-0.2 -17.2,-7.2 -3.9,-7.5 -4.6,-15.7 -3.2,-24 1.6,-11.1 7.2,-19.7 15,-28 z" id="path41" style="fill:#9b6550">
        </path>
        <path d="m 931.9,747.7 c 17.4,-4.3 35,-0.6 53,0.3 0.8,0 1,1.1 0.4,1.5 -22.5,13.6 -34.6,33.4 -35.6,60.3 0,0.9 -1.2,1.1 -1.5,0.3 -5.4,-15.1 -7.4,-30.4 -1.1,-46 2,-4.9 0.9,-7.7 -3.2,-9.6 -4,-1.9 -8.1,-3.5 -12.1,-5.2 -0.7,-0.4 -0.6,-1.4 0.1,-1.6 z" id="path43" style="fill:#9b6550">
        </path>
        <path d="m 793.2,622.1 c -0.1,-0.2 0.2,-0.5 0.4,-0.4 4.6,1.7 8.8,3.2 12.8,4.9 0.7,0.3 1.3,1.8 1.4,2.8 3.2,28.4 12.8,54.8 21.9,81.4 0.4,1.1 0.7,2.2 1,3.3 0.1,0.2 -0.2,0.5 -0.4,1.2 -14.6,-30 -29,-59.8 -37.1,-93.2 z" id="path45" style="fill:#9b6550">
        </path>
        <path d="m 491.5,388.4 c -1.5,3.8 -1,5.1 1.1,8.1 0.1,0.2 8,-5.3 12,-5.2 0.3,0 0.4,0.4 0.2,0.5 -2.8,2.8 -5.5,5.5 -8.2,8.1 -1.5,1.4 -2.2,2.9 -1.6,4.9 0.7,2.8 1.3,5.7 2.3,8.5 2.3,6.8 5.8,12.8 11.6,17.1 0.9,0.6 1.6,0.9 2.7,0.3 1.8,-1 3.7,-0.8 5.5,0.2 1.7,1 3.3,2.1 4.9,3.3 2.1,1.6 4.1,3.4 6.3,5 7.3,5.5 15.6,6.5 24.3,6.7 0.5,0 1,-0.2 1.4,-0.3 1.5,-0.6 1.7,-1.3 0.6,-2.5 -1.3,-1.5 -2.6,-2.9 -4,-4.2 -6.4,-6.4 -8.7,-14.4 -7.7,-23.4 1,-9.5 7.6,-14.8 16.6,-13.3 2.5,0.4 5,1.2 7.4,2.2 9.8,4.4 18.3,10.8 26,18.4 3.8,3.8 7.1,8 9,13.2 2.9,8.1 1.8,19.6 -10.9,22.8 -6.8,1.7 -13.6,1.5 -20.4,-0.2 -1,-0.2 -2.1,-0.3 -3.1,-0.4 -0.3,0.5 -0.4,0.6 -0.7,1.1 0.8,1.8 1.4,3.6 2.6,5.1 2,2.7 4.4,5.1 6.7,7.6 1.1,1.2 2.3,2.2 2,4 -0.3,2 -1.8,2.8 -3.4,3.3 -0.8,0.3 -1.6,0.5 -2.5,0.8 -0.2,0.1 -0.3,0.4 -0.1,0.5 1.3,1.2 2.4,2.3 3.5,3.3 0,0 0,0 0,0 1.1,0.7 54.5,35.5 133.4,36.7 0.3,0 0.4,-0.4 0.2,-0.6 -6,-3.3 -34.7,-19.5 -52.4,-37.1 -3.9,-3.8 -7,-8.4 -9.3,-13.5 -2.7,-6.2 -4.5,-12.8 -1.2,-19.2 1.8,-3.4 4.3,-6.5 7,-9.3 6.6,-6.8 14.5,-11.9 22.5,-16.9 2.6,-1.6 5.2,-3.5 7.4,-5.6 5,-4.6 8.3,-11.2 4.9,-19.9 -0.9,-2.2 -1.6,-4.5 -2.4,-6.8 -2.4,-6.9 -1.8,-13.4 1.8,-19.7 1.3,-2.2 2.6,-4.5 3.8,-6.8 0.6,-1.2 1,-2.4 1.5,-4 0.1,-0.3 -0.2,-0.5 -0.4,-0.4 -0.8,0.4 -1.3,0.6 -1.9,0.9 -3.8,1.7 -7.8,3.1 -12.1,2.9 -4,-0.2 -6.9,-2.1 -8.5,-6.2 -1.9,-4.9 -1.4,-9.8 0.1,-14.6 1.4,-4.4 2.2,-8.7 3.2,-13.1 0.5,-2 0.8,-4.1 0.9,-6.3 0,-0.3 -0.4,-0.4 -0.5,-0.2 -2.3,3.2 -5.1,5.4 -8.6,6.8 -9.8,3.7 -38.6,-1.4 -32.3,-11.5 37.3,-59.9 66.3,-74.2 93.5,-80.2 18.1,-4 48.9,-1.4 57.6,-0.6 0.4,0 0.5,-0.5 0.1,-0.6 -15,-5.6 -30.7,-8.3 -46.6,-8.3 -18.2,0 -44,5.4 -59.5,15.3 -15.7,10 -27.9,24.7 -41.8,37.1 -15.6,14 -34,21.3 -52.5,30.2 -8.1,3.9 -16.1,8.4 -24.1,12.6 -2.9,1.5 -5.3,3.8 -6.9,6.7 -2.4,4.5 -2.7,9.4 -2.3,14.3 0.1,1.2 -0.2,2 -1.1,2.6 -2.5,1.6 -46.1,26.3 -49,28.6 -3.6,3.2 -6.8,6.6 -8.6,11.2 z m 128.3,63.5 c 5.8,-10.1 7.8,-20.9 5.3,-32.3 -1.3,-6 -4.4,-11.3 -8.8,-15.3 -0.3,-0.3 -0.7,-0.6 -1,-0.9 -0.1,-0.1 -0.1,-0.2 -0.1,-0.4 3.2,-7 6.3,-13.9 9.4,-20.8 6.9,-15.2 17,-27.7 29.5,-38.2 0.2,-0.2 0.5,-0.4 1,-0.4 -0.6,0.8 -1.2,1.6 -1.8,2.4 -0.6,0.8 -1.3,1.5 -1.9,2.3 -2,2.6 -4.3,5 -5.9,7.8 -1.3,2.3 -2.3,5.1 -2.7,7.8 -0.9,6.3 2.2,10.8 8.3,12.8 4.3,1.4 8.6,1.7 13.1,1.3 0.6,-0.1 1.3,-0.1 2.1,0.1 0.2,0.1 0.3,0.4 0.1,0.5 -0.5,0.5 -1.1,1.1 -1.6,1.6 -3.8,3.6 -7.8,7 -11.5,10.8 -4.2,4.5 -5.4,10.2 -4.6,16.3 0.1,1.1 0.6,2.2 1.2,3.2 0.9,1.7 2.2,2.4 4.3,2.1 7.3,-0.9 12.5,-4.9 16.2,-11.2 1.1,-1.8 2.1,-3.6 3.1,-5.4 0.1,0.1 0.3,0.1 0.4,0.2 -1,2.2 -1.9,4.5 -3,6.7 -3.8,7.2 -9.5,12.7 -15.4,18.1 -6,5.5 -12.1,10.8 -17.6,16.8 -7,7.6 -10.5,17 -11.1,27.5 -0.4,6.3 1.6,11.8 4.9,17 0.2,0.3 -0.1,0.6 -0.4,0.5 -11.5,-5.9 -23.9,-7.2 -37,-7.5 0.9,-0.6 1.4,-0.9 1.9,-1.2 9.4,-5.5 17.9,-12.3 23.6,-22.2 z M 568.9,357 c 1.9,-3.4 4.8,-6.4 8.4,-8.3 6.2,-3.2 12.5,-6 18.8,-8.9 2,-0.9 3.9,-1.7 5.4,-2.3 0.3,-0.1 0.5,0.3 0.3,0.5 -2.1,2.4 -4.6,5.3 -7.3,8.2 -4,4.3 -9,6.4 -14.5,7.8 -3.7,1 -7.4,2.3 -11,3.5 0,0.1 -0.3,-0.2 -0.1,-0.5 z" id="path47" style="fill:#9b6550">
        </path>
        <path d="m 653.2,323.7 c -14.2,-2.2 -9.2,-3.5 -3.4,-12.6 5.8,-9.1 49.4,-86.9 125.6,-58.5 0,0 -90.7,18.9 -73.7,58.5 14.9,34.7 84.1,-0.9 91.4,-23.4 0,0 28.5,47.2 22.8,85.4 0,0 -9,-45.9 -36.3,-46.8 -27.3,-0.9 -52.3,29.6 -89.1,-3.9 0,0 42.3,77.8 19.1,120.1 l -19.9,8.5 c 0,0 -26.1,-2.2 -33.6,3 -7.5,5.2 0,-11.7 22,-21.2 22,-9.5 22,-25.6 17,-32.9 -5,-7.4 -7.5,-22.3 1.8,-40.3 2.9,-5.7 -3.4,-0.9 -13.8,-0.9 -10.4,0 -9,-9.1 -5.1,-20.4 3.9,-11.3 0.5,-23.8 -2.4,-27.3 -0.1,0.2 -8.2,14.9 -22.4,12.7 z" id="path49" style="fill:#9b6550">
        </path>
        <path d="m 622.4,285.9 c 0,0 -0.1,0.1 -0.1,0.1 -9.1,6.4 -21,13.4 -35.9,19.5 -0.3,0.1 -0.5,-0.2 -0.4,-0.5 3.6,-5.7 24.3,-40 19,-56 -0.1,-0.2 0,-0.4 0.2,-0.4 3.3,-0.5 29.7,-3.9 39.5,17.2 0.1,0.1 0,0.3 -0.1,0.4 l -10.8,10.7 c -0.2,0.2 -0.5,0.1 -0.5,-0.2 -0.3,-1.8 -1.6,-7.1 -6.2,-10.9 -1.7,-1.4 -2.9,-1.9 -3.5,-2.1 -0.3,-0.1 -0.5,0.2 -0.3,0.5 4.8,9.5 -0.5,20.7 -0.9,21.7 z" id="path51" style="fill:#9b6550">
        </path>
        <path d="m 743.1,298.2 c 21.5,5.1 39.5,-12.7 42.6,-16 0.2,-0.2 0.5,-0.1 0.5,0.2 -0.8,10.6 -56.8,54.8 -72.2,23.5 -15.8,-32.1 100.8,-62.3 131.1,-46.7 30.3,15.6 54.1,40.4 68.8,140.4 4.3,29.4 4.8,51.3 2.8,67.6 -0.9,7.5 -1.3,14.9 -3.7,22.2 -5.2,15.8 -18.2,26.7 -34.4,26.2 -8.5,-0.2 -16.9,-3.6 -23.8,-8.9 -8.5,-6.6 -14.9,-16.4 -16.9,-27.2 -3.5,-18.5 7.4,-41.3 27.1,-42.3 9.5,-0.5 17.5,4.1 22.8,12.4 5.5,8.6 6.7,21.4 0.7,29.6 -4.5,6.2 -11.5,10 -18.8,10.7 -0.7,0.1 -1.3,-0.1 -1.7,-0.5 -1.6,-1.2 9.5,-5.5 9.1,-11.9 0,0 0,0 0,-0.1 -3.5,-17.7 -33.4,-1.2 -15.6,17.5 14.9,15.5 41.5,-9.2 34.9,-39.8 -4.5,-20.6 -24.3,-24.4 -26.7,-24.8 -0.1,0 -0.2,-0.1 -0.3,-0.3 -7.2,-98.6 -40.7,-139.3 -70.1,-153 -29.3,-13.7 -79.9,15.5 -56.2,21.2 z" id="path53" style="fill:#9b6550">
        </path>
        <path d="m 784.3,230.7 c -0.3,-0.2 -0.1,-0.6 0.2,-0.6 6.8,0.6 40.7,4.2 59.2,20.7 0.2,0.2 0,0.6 -0.3,0.5 -5.2,-1.2 -26.9,-5.3 -57.4,2.5 -0.1,0 -0.1,0 -0.2,0 l -16.6,-8.7 c -0.3,-0.1 -0.2,-0.6 0.1,-0.6 l 27.8,-0.6 c 0.2,0 0.4,-0.2 0.3,-0.4 -2.2,-5.3 -10.2,-10.9 -13.1,-12.8 z" id="path55" style="fill:#9b6550">
        </path>
        <path d="m 763,335 c 25.2,-10.8 42.6,19.5 45.3,33.6 0,0 -16.8,-27.7 -40.2,-16.2 -23.4,11.6 -44.6,-6.4 -48.4,-8.4 0.1,0.1 18.1,1.8 43.3,-9 z" id="path57" style="fill:#9b6550">
        </path>
        <path d="m 853.1,636.2 c 0.1,-0.2 0.3,-0.2 0.4,-0.1 2.6,1.6 23.8,14.3 48.5,16.6 0.2,0 0.3,0.2 0.3,0.4 l -21.7,124.8 c 0,0.2 -0.2,0.3 -0.3,0.3 -1.4,0 -8.8,0.1 -15.6,6 -0.2,0.2 -0.5,0 -0.5,-0.2 l -2.3,-55.9 c -0.1,-2 -2.8,-2.4 -3.4,-0.5 L 845.3,772 c -0.1,0.4 -0.6,0.3 -0.6,-0.1 1.3,-9 3.9,-29.4 1.8,-41.5 -2.8,-16.2 -5,-69.8 6.6,-94.2 z" id="path59" style="fill:#9b6550">
        </path>
        <path d="m 754.7,768.4 c 1.4,0.4 3.3,-0.2 4.2,-1.3 14.4,-16.7 23.9,-35.7 24.6,-58.7 0.4,-15 -1.1,-29.7 -3.6,-44.3 l -0.1,-0.3 -13.8,-58.1 c -0.1,-0.3 0.2,-0.5 0.5,-0.3 l 20.4,14.4 c 0.1,0 0.1,0.1 0.1,0.2 7.5,38 23.6,66.9 24.7,68.9 0,0.1 0.1,0.2 0,0.2 L 799,734.6 c -0.3,1.4 -0.7,2.9 -1.2,4.3 -5.4,16.2 -10.6,32.5 -15.9,49 0,0.1 -0.2,0.2 -0.4,0.2 -2.4,-0.5 -3.8,-0.9 -5.3,-1.1 -9,-1.7 -16.1,1.5 -19.5,10.4 -2.7,7.1 -4,14.9 -5.8,22.4 -0.4,1.9 -0.4,3.9 -0.6,5.9 0,0.3 -0.3,0.4 -0.5,0.2 -8.9,-8.2 -10.4,-22.6 -4.3,-40.7 0.1,-0.2 -0.1,-0.4 -0.3,-0.4 -8.5,-0.2 -16.8,0.1 -23.9,5.1 -3.1,2.2 -5.7,6 -7,9.6 -2.2,6.3 -3.4,13.1 -5.1,20.4 -0.1,0.3 -0.5,0.3 -0.6,0.1 -3.8,-8.1 -4.4,-16 -2,-24.1 6.3,-20.2 28.6,-32.8 48.1,-27.5 z" id="path61" style="fill:#9b6550">
        </path>
        <path d="m 982.5,814.5 c 0.4,0.5 0.1,1.2 -0.5,1.3 -8.8,1.3 -10,-10.9 -10,-17.9 0.1,-11.8 4.8,-24 13.2,-31.8 10.5,-9.8 23.5,-13.9 36.7,-17.5 20.3,-5.5 34.3,-19.4 46.6,-35.8 5.4,-7.1 8.5,-15.1 10.8,-23.6 2.8,-10.3 5.3,-20.6 8,-31 0.2,0.3 0.5,0.6 0.5,0.8 1.3,18.4 1.4,36.6 -3.4,54.6 -1.8,6.8 -5.1,12.7 -9.7,17.9 -5.9,6.5 -11.5,13.3 -17.3,19.9 -6,6.9 -9.3,14.7 -8.6,24.4 1.1,15 -6.6,25.5 -16.8,35.1 -0.6,0.5 -1.5,0 -1.3,-0.8 1.2,-5.2 2.4,-10 3.2,-14.9 0.5,-2.9 0.6,-6.2 -0.3,-8.9 -3.1,-9.5 -3.8,-18.7 -0.3,-27.9 0.2,-0.6 -0.2,-1.2 -0.8,-1.1 -24.6,1.8 -25.5,24.4 -25.4,28.3 0,0.3 -0.2,0.6 -0.5,0.8 -1.3,0.5 -5.8,2.4 -18.1,9.5 -12.7,7.3 -8.1,15.7 -6,18.6 z" id="path63" style="fill:#9b6550">
        </path>
        <path d="m 705.4,770.3 c 4.3,-4.2 10.3,-4.6 15.7,-6.4 5.8,-1.9 11.1,-5.2 15.6,-9.3 6.2,-5.7 12.5,-11.4 17.2,-18.5 4.8,-7.1 6.2,-15.8 7.6,-24.2 2.7,-16.6 -0.5,-37.6 -2.3,-51.8 -0.1,-1 1.2,-1.4 1.6,-0.5 l 3.8,11.6 c 6.6,20.2 7.5,31.6 8.5,48.5 1,15.7 -7.9,31.2 -17.1,43 -0.1,0.1 -0.1,0.1 -0.2,0.1 -6.4,-0.3 -13,0.2 -19.3,1.4 -4.5,0.8 -9.2,1.9 -13.1,4.7 -3.8,2.7 -7.4,6.3 -10.8,9.5 -1.6,1.6 -3.9,1.3 -5.9,1.9 -5.5,1.6 -9.7,7 -11.5,12.5 -0.5,1.5 -1,2.9 -2.2,4.4 0,-1 -0.2,-2 -0.1,-3 1.4,-9.7 5.8,-17.5 12.5,-23.9 z" id="path65" style="fill:#9b6550">
        </path>
        <path d="m 1087.4,615.8 c 0,0 0,-0.1 0,0 0,0 -0.1,0 -0.1,0.1 l 0,0 0,0 0,0 c 0,0 0,-0.1 0.1,-0.1 0.1,0 0.3,-0.1 0.4,-0.2 0.2,-0.1 0.3,-0.2 0.5,-0.3 0.8,-0.5 2,-1.4 3.6,-3.3 0.8,-0.9 1.6,-2 2.6,-3.3 0.5,-0.7 1,-1.4 1.4,-2.2 0.2,-0.4 0.5,-0.8 0.8,-1.2 l 0.2,-0.3 0.1,-0.2 c 0.3,-0.5 -0.3,0.6 -0.2,0.5 l 0.1,-0.1 c 0.2,-0.3 0.3,-0.6 0.5,-0.8 0.6,-1.1 1.3,-2.3 1.9,-3.5 0.3,-0.6 0.7,-1.2 1,-1.8 0.2,-0.3 0.3,-0.6 0.4,-0.8 l 0.3,-0.7 c 0.9,-2 2,-3.9 2.9,-6.5 0.5,-1.2 1,-2.5 1.5,-3.8 0.5,-1.3 0.9,-2.7 1.4,-4 0.2,-0.7 0.5,-1.4 0.7,-2.1 0.2,-0.7 0.4,-1.4 0.6,-2.2 0.4,-1.5 0.9,-2.9 1.3,-4.5 1.6,-6.1 2.9,-12.8 3.9,-20 0.9,-7.2 1.3,-14.9 1.3,-23.1 0,-8.1 -0.6,-16.7 -1.8,-25.5 -0.3,-2.1 -0.6,-4.3 -0.9,-6.4 -0.4,-2.4 -0.9,-4.8 -1.3,-7.3 -0.5,-2.2 -0.9,-4.4 -1.4,-6.6 -0.5,-2.3 -1.1,-4.6 -1.6,-7 -0.7,-2.9 -1.5,-5.8 -2.3,-8.7 -0.4,-1.4 0.9,-2.7 2.3,-2.3 l 34.1,12 c 0.6,0.2 1,0.7 1.1,1.3 0.3,1.2 0.7,2.5 1,3.7 0.6,2.4 1.2,4.8 1.7,7.2 0.6,2.7 1.1,5.3 1.6,8 2,10.3 3.2,20.4 3.8,30.2 0.6,9.8 0.6,19.3 0,28.4 -0.7,9.1 -1.8,17.7 -3.5,25.8 -0.4,2 -0.9,4 -1.4,5.9 -0.2,1 -0.5,1.9 -0.7,2.9 -0.2,1 -0.5,1.9 -0.8,2.8 -0.5,1.9 -1.1,3.7 -1.6,5.5 -0.6,1.8 -1.2,3.5 -1.8,5.2 -1.1,3.3 -2.6,6.9 -4,10.1 -0.2,0.4 -0.3,0.8 -0.5,1.2 -0.2,0.4 -0.3,0.8 -0.5,1.1 -0.3,0.6 -0.6,1.3 -0.9,1.9 -0.6,1.2 -1.1,2.4 -1.7,3.6 -0.1,0.3 -0.3,0.6 -0.4,0.9 -0.3,0.5 -0.5,1 -0.8,1.6 -0.4,0.7 -0.7,1.3 -1.1,2 -0.7,1.3 -1.5,2.6 -2.2,3.9 -1.5,2.5 -3.2,5 -4.9,7.2 -3.4,4.5 -7.1,8.3 -10.6,11.1 -0.8,0.7 -1.7,1.3 -2.6,1.9 -0.8,0.6 -1.6,1.1 -2.4,1.6 -0.4,0.2 -0.7,0.5 -1.1,0.7 l -0.3,0.2 -0.3,0.2 c -0.2,0.1 -0.4,0.2 -0.6,0.3 -0.8,0.5 -1.6,0.8 -2.3,1.2 -0.2,0.1 -0.3,0.2 -0.5,0.2 -0.9,0.4 -2,0 -2.4,-1 l -15,-38.1 c 0,-1.1 0.4,-2.2 1.4,-2.5 z" id="path67" style="fill:#9b6550">
        </path>
        <path d="m 1117.6,240.5 c -2.9,0.4 -8.1,1.3 -10.4,2.6 -0.9,0.5 -2.1,0 -2.3,-1.1 -5.8,-25 -7.9,-49.6 -25.8,-69.1 -9.5,-10.3 -29.9,-16.1 -39.5,-2.7 -6.5,9.1 -7.3,22.9 -6.4,33.7 4.1,46 25.7,88.6 46.6,128.1 10.8,20.5 22,40.7 31.9,61.2 10,20.4 18.8,41.1 25.2,61.8 0.5,1.7 1.5,5.4 2.1,7.8 0.3,1 -0.6,1.9 -1.6,1.6 L 1102.6,453 c -0.5,-0.2 -0.9,-0.6 -1,-1.1 -4.4,-14.8 -10,-30 -16.5,-45.5 -8.4,-20.1 -18.2,-40.7 -28,-62.1 -4.9,-10.7 -9.8,-21.6 -14.4,-32.7 -10.6,-25.4 -21.3,-51.2 -26,-78.7 -4.6,-26.5 -10.3,-68.2 15,-85.6 3.8,-2.6 8.1,-4.3 12.5,-5.3 15.4,-3.4 33.1,1.1 45.3,11.4 13.8,11.7 21.3,31.8 24.5,49.5 1.9,10 4.6,28.4 5.5,34.9 0.2,1.3 -0.7,2.5 -1.9,2.7 z" id="path69" style="fill:#9b6550">
        </path>
        <path d="m 1140.3,301.6 c -1.4,-5.6 -3.7,-17.5 -11.6,-13.3 -5.6,3 -4.4,13.2 -0.9,17.4 12.1,14.3 17.7,48.2 13.7,63.3 -0.3,1 -1.6,0.9 -1.8,-0.2 -1,-8.8 -5.3,-30.2 -24.9,-42.8 -25.2,-16.2 -19.1,-52 -19.1,-52 0,0 2.3,-13.1 12.1,-20 3.7,-2.6 8.4,-4.3 14.5,-4 0.2,0 0.3,0 0.5,0 21.7,1.1 29.2,17.1 29.6,44.2 0.3,15.9 4.4,25.5 7.6,30.6 0.5,0.9 -0.5,1.9 -1.3,1.3 -8.8,-6.5 -15.7,-13.5 -18.4,-24.5 z" id="path71" style="fill:#9b6550">
        </path>
      </g>
    </g>
  </g>
</svg>