<?xml version="1.0" encoding="UTF-8" standalone="no"?>
<svg xmlns:dc="http://purl.org/dc/elements/1.1/" xmlns:cc="http://creativecommons.org/ns#"
     xmlns:rdf="http://www.w3.org/1999/02/22-rdf-syntax-ns#" xmlns:svg="http://www.w3.org/2000/svg"
     xmlns="http://www.w3.org/2000/svg" xmlns:xlink="http://www.w3.org/1999/xlink" version="1.1" viewBox="0 0 1600 1000"
     height="1000" width="1600" id="svg1680">
    <metadata id="metadata10">
        <rdf:RDF>
            <cc:Work rdf:about="">
                <dc:format>image/svg+xml</dc:format>
                <dc:type rdf:resource="http://purl.org/dc/dcmitype/StillImage"/>
                <dc:title></dc:title>
            </cc:Work>
        </rdf:RDF>
    </metadata>
    <defs id="defs8">
        <linearGradient xlink:href="#grad528" id="grad529" x1="295.90553" y1="1815.4938" x2="295.90553" y2="1857.5301"
                        gradientTransform="scale(1.3822469,0.72345975)" gradientUnits="userSpaceOnUse"/>
        <linearGradient id="grad528">
            <stop offset="0%" stop-color="#f07e3d" stop-opacity="1" id="stop7760"/>
            <stop offset="100%" stop-color="#fabd6d" stop-opacity="1" id="stop7762"/>
        </linearGradient>
        <linearGradient xlink:href="#grad530" id="grad531" x1="307.5147" y1="1815.4954" x2="307.5147" y2="1857.5317"
                        gradientTransform="scale(1.3822481,0.72345913)" gradientUnits="userSpaceOnUse"/>
        <linearGradient id="grad530">
            <stop offset="0%" stop-color="#e30079" stop-opacity="1" id="stop7770"/>
            <stop offset="100%" stop-color="#eeacc2" stop-opacity="1" id="stop7772"/>
        </linearGradient>
        <linearGradient xlink:href="#grad532" id="grad533" x1="259.52198" y1="1785.869" x2="259.52198" y2="1857.5304"
                        gradientTransform="scale(1.3822471,0.72345966)" gradientUnits="userSpaceOnUse"/>
        <linearGradient id="grad532">
            <stop offset="0%" stop-color="#172378" stop-opacity="1" id="stop7780"/>
            <stop offset="100%" stop-color="#0099d1" stop-opacity="1" id="stop7782"/>
        </linearGradient>
        <linearGradient xlink:href="#grad532" id="grad535" x1="109.09023" y1="4437.3584" x2="109.09023" y2="4474.9899"
                        gradientTransform="scale(3.2915394,0.30380922)" gradientUnits="userSpaceOnUse"/>
        <linearGradient xlink:href="#grad532" id="grad537" x1="24.159219" y1="20226.809" x2="24.159219" y2="20235.122"
                        gradientTransform="scale(14.861925,0.06728604)" gradientUnits="userSpaceOnUse"/>
        <linearGradient gradientTransform="scale(4.2325557,0.23626387)" xlink:href="#grad530" id="grad539"
                        x1="84.801696" y1="5774.9917" x2="84.801696" y2="5804.1785" gradientUnits="userSpaceOnUse"/>
        <linearGradient xlink:href="#grad530" id="grad541" x1="228.55006" y1="2092.1633" x2="228.55006" y2="2139.1209"
                        gradientTransform="scale(1.6308121,0.61319143)" gradientUnits="userSpaceOnUse"/>
        <clipPath id="clipPath4199" clipPathUnits="userSpaceOnUse">
            <path id="jd_bd" d="m 873.72266,730.65692 175.18254,0 0,120.43792 -175.18254,0 z"
                  style="opacity:0.97000002;fill:none;fill-opacity:1;stroke:#000000;stroke-width:1;stroke-linecap:butt;stroke-linejoin:miter;stroke-miterlimit:4;stroke-dasharray:none;stroke-dashoffset:0;stroke-opacity:1"/>
        </clipPath>
    </defs>
    <image xlink:href="/designs/templates/002001001-0.jpg" id="jd_bg" height="1000" width="1600"
           style="stroke-width:1;stroke-miterlimit:4;stroke-dasharray:none"/>
    <g id="jd_nt" clip-path="url(#clipPath4199)">
        <g transform="matrix(1.2236775,0,0,1.1399116,443.0405,-720.44093)" id="g7755">
            <defs id="defs7757">
                <linearGradient id="linearGradient9052">
                    <stop offset="0%" stop-color="#f07e3d" stop-opacity="1" id="stop9054"/>
                    <stop offset="100%" stop-color="#fabd6d" stop-opacity="1" id="stop9056"/>
                </linearGradient>
                <linearGradient xlink:href="#grad528" id="linearGradient9058" x1="0" y1="0" x2="0" y2="1"
                                gradientTransform="matrix(-0.9998477,-0.01745241,0.01745241,-0.9998477,0.99119764,1.0086501)"
                                gradientUnits="objectBoundingBox"/>
            </defs>
            <path d="m 439.4261,1313.4367 -30.4116,30.4116 43.6227,0 -16.1465,-0.9891 30.6284,-1.7295 -0.4619,-0.462 -31.8613,-1.8256 28.4059,-1.6297 -1.291,-1.291 -27.554,-1.7864 24.349,-1.4186 -1.9063,-1.9063 -21.8151,-1.2566 19.4439,-1.1146 -2.4301,-2.4301 -15.884,-0.9114 14.1042,-0.8685 -3.0531,-3.0531 -8.9172,-0.5346 7.8613,-0.5212 -3.5779,-3.578 -1.7102,-0.1056 1.5012,-0.1033 -2.8964,-2.8964 z"
                  style="fill:url(#grad529)" id="path7765"/>
            <defs id="defs7767">
                <linearGradient id="linearGradient9062">
                    <stop offset="0%" stop-color="#e30079" stop-opacity="1" id="stop9064"/>
                    <stop offset="100%" stop-color="#eeacc2" stop-opacity="1" id="stop9066"/>
                </linearGradient>
                <linearGradient xlink:href="#grad530" id="linearGradient9068" x1="0" y1="0" x2="0" y2="1"
                                gradientTransform="matrix(-0.9998477,-0.01745241,0.01745241,-0.9998477,0.99119764,1.0086501)"
                                gradientUnits="objectBoundingBox"/>
            </defs>
            <path d="m 455.4733,1313.4367 -30.4117,30.4116 43.6228,0 -16.1465,-0.9891 30.6284,-1.7295 -0.462,-0.462 -31.8612,-1.8256 28.4059,-1.6297 -1.291,-1.291 -27.554,-1.7864 24.349,-1.4186 -1.9063,-1.9063 -21.8151,-1.2566 19.4439,-1.1146 -2.4301,-2.4301 -15.884,-0.9114 14.1042,-0.8685 -3.0532,-3.0531 -8.9171,-0.5346 7.8613,-0.5212 -3.5779,-3.578 -1.7102,-0.1056 1.5012,-0.1033 -2.8964,-2.8964 z"
                  style="fill:url(#grad531)" id="path7775"/>
            <defs id="defs7777">
                <linearGradient id="linearGradient9072">
                    <stop offset="0%" stop-color="#172378" stop-opacity="1" id="stop9074"/>
                    <stop offset="100%" stop-color="#0099d1" stop-opacity="1" id="stop9076"/>
                </linearGradient>
                <linearGradient xlink:href="#grad532" id="linearGradient9078" x1="0" y1="0" x2="0" y2="1"
                                gradientTransform="matrix(-1,0,0,-1,1,1)" gradientUnits="objectBoundingBox"/>
            </defs>
            <path d="m 405.9331,1292.0042 51.8441,51.8441 -74.3658,0 27.5258,-1.6862 -52.2137,-2.9483 0.7875,-0.7876 54.3153,-3.1122 -48.4248,-2.7782 2.2008,-2.2008 46.9726,-3.0453 -41.5089,-2.4185 3.2498,-3.2498 37.1892,-2.1422 -33.1469,-1.9001 4.1427,-4.1427 27.0782,-1.5536 -24.044,-1.4805 5.2048,-5.2048 15.2015,-0.9114 -13.4016,-0.8885 6.0995,-6.0995 2.9153,-0.1801 -2.5591,-0.1762 4.9377,-4.9376 z"
                  style="fill:url(#grad533)" id="path7785"/>
            <defs id="defs7787">
                <linearGradient id="linearGradient9082">
                    <stop offset="0%" stop-color="#172378" stop-opacity="1" id="stop9084"/>
                    <stop offset="100%" stop-color="#0099d1" stop-opacity="1" id="stop9086"/>
                </linearGradient>
                <linearGradient xlink:href="#grad532" id="linearGradient9088" x1="0" y1="0" x2="0" y2="1"
                                gradientTransform="matrix(-1,0,0,-1,1,1)" gradientUnits="objectBoundingBox"/>
            </defs>
            <defs id="defs7797">
                <linearGradient id="linearGradient9092">
                    <stop offset="0%" stop-color="#172378" stop-opacity="1" id="stop9094"/>
                    <stop offset="100%" stop-color="#0099d1" stop-opacity="1" id="stop9096"/>
                </linearGradient>
                <linearGradient xlink:href="#grad532" id="linearGradient9098" x1="0" y1="0" x2="0" y2="1"
                                gradientTransform="matrix(-1,0,0,-1,1,1)" gradientUnits="objectBoundingBox"/>
            </defs>
            <path d="m 359.0525,1360.9818 123.5364,0 0,0.5593 -123.5364,0 0,-0.5593 z" style="fill:url(#grad537)"
                  id="path7805"/>
            <defs id="defs7807">
                <linearGradient id="linearGradient9102">
                    <stop offset="0%" stop-color="#e30079" stop-opacity="1" id="stop9104"/>
                    <stop offset="100%" stop-color="#eeacc2" stop-opacity="1" id="stop9106"/>
                </linearGradient>
                <linearGradient xlink:href="#grad530" id="linearGradient9108" x1="0" y1="0" x2="0" y2="1"
                                gradientUnits="objectBoundingBox"/>
            </defs>
            <defs id="defs7817">
                <linearGradient id="linearGradient9112">
                    <stop offset="0%" stop-color="#e30079" stop-opacity="1" id="stop9114"/>
                    <stop offset="100%" stop-color="#eeacc2" stop-opacity="1" id="stop9116"/>
                </linearGradient>
                <linearGradient xlink:href="#grad530" id="linearGradient9118" x1="0" y1="0" x2="0" y2="1"
                                gradientTransform="matrix(-0.98768834,0.15643447,-0.15643447,-0.98768834,1.0720614,0.91562694)"
                                gradientUnits="objectBoundingBox"/>
            </defs>
            <path d="m 418.1128,1283.4472 c 6.2909,1.0423 12.0006,3.483 16.8655,6.9516 1.8063,-0.9102 3.9071,-1.2764 6.055,-0.9205 5.3832,0.8918 9.0254,5.9805 8.1336,11.3636 -0.8919,5.3832 -5.9806,9.0254 -11.3638,8.1335 -5.383,-0.8918 -9.0253,-5.9805 -8.1334,-11.3637 0.1498,-0.9041 0.4181,-1.7595 0.7862,-2.5522 -4.5906,-3.2317 -9.961,-5.5063 -15.8697,-6.4852 -17.9801,-2.9789 -35.1162,7.0053 -41.864,23.1163 5.778,-19.2142 25.0721,-31.6096 45.3906,-28.2434 z m 20.9078,8.0063 c 0.8277,-0.2156 1.7073,-0.285 2.6061,-0.1788 3.8887,0.4536 6.6733,3.9737 6.218,7.8603 -0.1921,1.6443 -0.9329,3.092 -2.0191,4.1798 0.4026,-0.8581 0.6775,-1.8062 0.7961,-2.815 0.5277,-4.5153 -2.2949,-8.5566 -6.3023,-9.0236 -0.4379,-0.052 -0.8732,-0.057 -1.2988,-0.023 z"
                  style="fill:url(#grad541)" id="path7825"/>
            <text style="font-style:normal;font-weight:normal;font-size:33.86810684px;line-height:125%;font-family:sans-serif;letter-spacing:0px;word-spacing:0px;fill:#00ffff;fill-opacity:1;stroke:none;stroke-width:1px;stroke-linecap:butt;stroke-linejoin:miter;stroke-opacity:1"
                  x="435.38437" y="1312.7048" id="text9255" transform="scale(0.96516619,1.036091)">
                <tspan id="text01" x="435.38437" y="1312.7048"
                       style="font-style:normal;font-variant:normal;font-weight:normal;font-stretch:normal;font-size:16.93405342px;line-height:125%;font-family:Anton;-inkscape-font-specification:'Anton, Normal';text-align:center;writing-mode:lr-tb;text-anchor:middle;fill:#00ffff">
                    John Bryan
                </tspan>
            </text>
            <text style="font-style:normal;font-weight:normal;font-size:33.86810684px;line-height:125%;font-family:sans-serif;letter-spacing:0px;word-spacing:0px;fill:#000000;fill-opacity:1;stroke:none;stroke-width:1px;stroke-linecap:butt;stroke-linejoin:miter;stroke-opacity:1"
                  x="435.91824" y="1323.6487" id="text9259" transform="scale(0.96516619,1.036091)">
                <tspan id="text02" x="435.91824" y="1323.6487"
                       style="font-style:normal;font-variant:normal;font-weight:normal;font-stretch:normal;font-size:10.58378315px;line-height:125%;font-family:'Gill Sans Ultra Bold';-inkscape-font-specification:'Gill Sans Ultra Bold, Normal';text-align:center;writing-mode:lr-tb;text-anchor:middle;fill:#ff00ff">
                    JITDIY.COM
                </tspan>
            </text>
        </g>
    </g>
</svg>
 

