<?xml version="1.0" encoding="utf-8"?>
<?xml-stylesheet type="text/css" href="https://fonts.googleapis.com/css?family=Bookman+Old+Style"?>
<svg xmlns:dc="http://purl.org/dc/elements/1.1/" xmlns:cc="http://creativecommons.org/ns#" xmlns:rdf="http://www.w3.org/1999/02/22-rdf-syntax-ns#" xmlns:svg="http://www.w3.org/2000/svg" xmlns="http://www.w3.org/2000/svg" xmlns:xlink="http://www.w3.org/1999/xlink" version="1.1" viewBox="0 0 1600 1000" height="1000" width="1600" id="svg1683">
  <metadata id="metadata10">
    <rdf:RDF>
      <cc:Work rdf:about="">
        <dc:format>
          image/svg+xml
        </dc:format>
        <dc:type rdf:resource="http://purl.org/dc/dcmitype/StillImage">
        </dc:type>
        <dc:title>
        </dc:title>
      </cc:Work>
    </rdf:RDF>
  </metadata>
  <defs id="defs8">
    <clipPath id="clipPath4141" clipPathUnits="userSpaceOnUse">
      <path id="jd_bd" d="m 456.8328,285.98753 627.8418,0 0,486.35834 -627.8418,0 z" style="opacity:1;fill:none;fill-opacity:1;fill-rule:nonzero;stroke:#ffc300;stroke-width:1.95284832;stroke-linecap:butt;stroke-linejoin:miter;stroke-miterlimit:4;stroke-dasharray:none;stroke-dashoffset:0;stroke-opacity:1">
      </path>
    </clipPath>
  </defs>
  <image xlink:href="/designs/templates/002000201-1.jpg" width="1600" height="1000" id="jd_bg" x="0" y="0">
  </image>
  <g id="jd_nt" clip-path="url(#clipPath4141)">
    <path style="fill:#ac9d93" id="path3" d="m 824.7899,456.38524 c 15.94099,-19.10258 38.12266,-29.93591 61.09217,-32.01096 22.97319,-2.07288 46.73245,4.6114 65.84074,20.55438 2.99488,2.49894 5.78658,5.1527 8.37381,7.93946 36.20799,-155.96135 -326.44397,-0.70447 -479.79081,87.76297 191.76866,-119.80277 574.22319,-267.74327 491.95457,-71.20436 6.46849,11.33392 10.31797,23.84531 11.46942,36.59669 0.66215,7.29988 0.4319,14.68178 -0.69446,21.96747 C 1194.635,222.77604 740.33172,390.03216 567.41883,481.9858 782.49187,356.90742 1254.6364,207.23636 969.22234,563.73807 c -1.84129,2.78916 -3.85657,5.49769 -6.04443,8.12112 -1.60466,1.92256 -3.27355,3.76239 -5.00158,5.5185 l -0.0321,0.0399 0,-0.006 c -15.41131,15.65603 -35.41079,24.5963 -56.05495,26.45944 -22.97159,2.07184 -46.73528,-4.61411 -65.83764,-20.553 -19.10331,-15.94392 -29.93882,-38.1219 -32.01089,-61.0956 -1.36841,-15.14507 1.07206,-30.63816 7.4689,-44.91219 -13.40181,-65.26369 -199.45181,4.9903 -283.83501,50.23896 95.0255,-55.93221 263.34243,-115.16721 292.85877,-65.91807 1.28052,-1.78471 2.63311,-3.53482 4.06033,-5.24634 l 0,0 z m 114.77339,57.2319 c -13.39276,0.70398 -12.72025,0.11975 -18.80268,12.05689 -6.5149,12.79035 -6.5592,11.8432 1.25845,23.88088 7.82135,12.03989 6.97787,11.61027 21.31522,10.85795 3.96121,-0.20916 7.92003,-0.41681 11.88174,-0.62516 6.21931,-8.32717 10.49824,-17.55828 12.88318,-27.12678 -1.98499,-3.05463 -3.96974,-6.11053 -5.95409,-9.16437 -8.11598,-12.4955 -7.8587,-10.64996 -22.58176,-9.87939 l 0,0 z m -2.78016,-52.90574 c -14.34379,0.75642 -13.5499,0.23773 -20.06627,13.03469 -6.51438,12.79113 -6.56354,11.84709 1.25368,23.88052 8.30073,12.77939 7.59209,10.66471 22.58568,9.88027 13.38956,-0.70536 12.71739,-0.11903 18.79525,-12.05779 1.76686,-3.45816 3.52865,-6.9188 5.29133,-10.37996 -3.74389,-9.12445 -9.3035,-17.63588 -16.62796,-24.94453 -3.74623,0.19556 -7.4871,0.39229 -11.2317,0.58681 l 0,0 z m -67.21625,69.25254 c -7.54707,-11.61782 -6.85016,-10.99463 -20.7031,-10.26798 -14.34161,0.75276 -13.54889,0.23935 -20.06791,13.03572 -1.80013,3.53395 -3.60005,7.07005 -5.4018,10.60503 3.73453,9.04413 9.25108,17.47746 16.50838,24.73252 3.82186,-0.19622 7.64328,-0.39669 11.46417,-0.59798 14.3443,-0.75561 13.55043,-0.23692 20.06788,-13.03571 6.66524,-13.08286 6.15012,-12.12797 -1.86762,-24.4716 l 0,0 z m -24.62973,-63.96729 c -3.57485,0.18826 -7.14653,0.3779 -10.71869,0.5633 -6.64568,8.34412 -11.26681,17.67238 -13.9184,27.3852 1.94059,2.98872 3.88369,5.97585 5.82448,8.96672 7.82237,12.0415 6.97626,11.61129 21.31411,10.85981 14.34484,-0.75482 13.55154,-0.23877 20.0679,-13.03573 6.5149,-12.79033 6.56082,-11.84422 -1.25368,-23.88052 -7.82406,-12.03701 -6.9789,-11.61188 -21.31573,-10.85877 l 0,0 z m 29.19367,-25.63562 c -1.51369,2.96936 -3.02437,5.93451 -4.53271,8.90157 -6.78319,13.307 -6.75513,11.5437 1.25529,23.87948 7.81819,12.03849 6.97787,11.61028 21.3131,10.8582 14.34591,-0.75666 13.5488,-0.2359 20.06788,-13.03572 6.51439,-12.79114 6.56508,-11.84467 -1.25685,-23.88191 -1.83525,-2.82553 -3.6738,-5.65462 -5.50896,-8.48361 -6.08649,-0.91841 -12.25341,-1.09727 -18.35215,-0.54751 -4.38048,0.39536 -8.72794,1.16934 -12.98562,2.30951 l 0,0 z m 22.42053,103.00977 c -14.34212,0.75194 -13.5483,0.23669 -20.06841,13.0349 -6.51167,12.78828 -6.5587,11.84401 1.25794,23.88007 2.07051,3.18847 4.14287,6.37801 6.2124,9.56485 5.61456,0.73964 11.28509,0.85076 16.89939,0.3426 4.50014,-0.40712 8.96551,-1.20988 13.33815,-2.40648 1.64815,-3.22449 3.28925,-6.45467 4.93161,-9.68114 6.51543,-12.78955 6.56398,-11.84284 -1.25579,-23.88031 -7.81878,-12.03583 -6.97737,-11.60945 -21.31529,-10.85449 l 0,0 z">
    </path>
    <text id="text3342" y="738.46411" x="754.99945" style="font-style:normal;font-variant:normal;font-weight:300;font-stretch:normal;font-size:70px;line-height:125%;font-family:'Bookman Old Style';-inkscape-font-specification:'Bookman Old Style, Light';text-align:start;letter-spacing:0px;word-spacing:0px;writing-mode:lr-tb;text-anchor:start;fill:#5f8dd3;fill-opacity:1;stroke:none;stroke-width:1px;stroke-linecap:butt;stroke-linejoin:miter;stroke-opacity:1">
      <tspan style="font-style:normal;font-variant:normal;font-weight:300;font-stretch:normal;font-size:70px;line-height:125%;font-family:'Bookman Old Style';-inkscape-font-specification:'Bookman Old Style, Light';text-align:center;writing-mode:lr-tb;text-anchor:middle;fill:#5f8dd3" y="738.46411" x="754.99945" id="text11">
        JUST TO IT!
      </tspan>
    </text>
  </g>
</svg>