<?xml version="1.0" encoding="UTF-8" standalone="no"?>
<?xml-stylesheet type="text/css" href="https://fonts.googleapis.com/css?family=sans-serif|Meie+Script"?>
<svg xmlns:dc="http://purl.org/dc/elements/1.1/" xmlns:cc="http://creativecommons.org/ns#"
     xmlns:rdf="http://www.w3.org/1999/02/22-rdf-syntax-ns#" xmlns:svg="http://www.w3.org/2000/svg"
     xmlns="http://www.w3.org/2000/svg" xmlns:xlink="http://www.w3.org/1999/xlink" version="1.1" id="svg1683" x="0px"
     y="0px" viewBox="0 0 1600 1000" width="1600" height="1000" style="enable-background:new 0 0 1600 1000;">
    <metadata id="metadata44">
        <rdf:RDF>
            <cc:Work rdf:about="">
                <dc:format>image/svg+xml</dc:format>
                <dc:type rdf:resource="http://purl.org/dc/dcmitype/StillImage"/>
                <dc:title></dc:title>
            </cc:Work>
        </rdf:RDF>
    </metadata>
    <defs id="defs42">
        <clipPath id="clipPath4147" clipPathUnits="userSpaceOnUse">
            <path id="jd_bd" d="m 369.49155,162.71187 844.06785,0 0,666.10174 -844.06785,0 z"
                  style="opacity:1;fill:none;fill-opacity:1;stroke:#ffffff;stroke-width:2.21399999;stroke-linecap:butt;stroke-linejoin:miter;stroke-miterlimit:4;stroke-dasharray:none;stroke-dashoffset:0;stroke-opacity:1"/>
        </clipPath>
    </defs>
    <style type="text/css" id="style3">
        .st0{fill:none;stroke:#FFFFFF;stroke-width:2.3578;stroke-dasharray:9.4312,2.3578;}
        .st1{fill:#FF9966;}
        .st2{fill:none;stroke:#FF9966;stroke-miterlimit:10;}
    </style>
    <image xlink:href="/designs/templates/002000101-1.jpg" style="overflow:visible;enable-background:new    ;"
           width="600" height="400" id="jd_bg" transform="matrix(2.6165 0 0 2.6165 15.0453 -23.3031)"/>
    <g clip-path="url(#clipPath4147)" id="jd_nt">
        <g id="g8">
            <path class="st1"
                  d="M897.4,559.2c16.4-10,33.6-19.5,52.8-22.3c16.1-2.3,29.8-1,41,2.7c9.8-2,19.7-2.7,29.5-2.2   c13.5,0.7,22.7,4.9,29.1,10.8c5.8-1.8,11.7-3.3,17.8-4.8c23.3-5.5,42.7,9.4,37,31c-3.8,14.6-25.4,25.6-45.7,17.8   c-7.6,18.1-26.2,25.7-52.9,23.2c-10.3,7.2-24.3,11.5-40.8,11.1c-13.7-0.2-26-3-37.6-7.6c-3.1,1.9-6.4,3.7-9.6,5.5   c-29.9,16.3-68.1,27.2-102.3,23.7c-54.1-5.5-92.5-57.9-53.4-98.8c-24.1,39.7-0.6,84.2,55.5,89.5c34.2,3.2,61-4.7,91.5-20.1   c2.6-1.3,5.4-2.8,8.1-4.3c-7.9-3.9-15.5-8.5-23-13.6c-21.7,10.8-43.5,21.7-76.8,21.7c-26.3,0-49.2-22.1-36.6-47.6   c-4.8,24.1,16.8,62.8,106.3,21.1c-6.1-4.5-12.4-9-18.4-13.7c-10.5,3.8-20.7,5-32.2,3.3c11.1-0.6,20.8-4.6,30.8-9.3   C878,571.7,887.7,565.2,897.4,559.2L897.4,559.2z M918.7,578.1c-8.8,5.7-17.6,11.3-27,16.1c-6.1-4.3-12.3-8.8-18.3-13.3   c10.4-4.6,19.6-10.8,29-17.2c14.6-9.9,29.4-20.1,48.3-22.7c12.6-1.8,23.4-1.3,32.7,0.6c-8.1,2.3-16.1,5.7-23.5,10.1   C945.5,560,932.4,569.3,918.7,578.1L918.7,578.1z M924.1,582.5c8,6,14.8,10.1,24.2,13.8c19.1-11.5,41.4-24.4,66.5-35.3   c-4.9-7.1-12.7-13.4-23.4-17.2c-9.6,2.2-18.9,6-28.4,11.8C949.5,563.8,936.9,573.4,924.1,582.5L924.1,582.5z M921.1,584.7   c-7.2,5-14.5,9.9-22.4,14.2c7.6,5,15.3,9.6,23.2,13.3c6.8-3.9,14.4-8.6,22.5-13.5C935.8,595.1,928.4,590.3,921.1,584.7L921.1,584.7   z M1018.6,559.4c8.5-3.6,17.3-6.9,26.4-9.8c-5.8-4.6-13.8-7.8-24.6-8.2c-7.5-0.3-14.8,0-22,1.1   C1007.4,546.7,1014.2,552.6,1018.6,559.4L1018.6,559.4z M1000.1,614.8c-13.5-1.9-29-6-46.5-12.5c-7.2,4.9-14.5,9.7-21.8,14.3   c10.7,4.1,22,6.6,34,6.8C979.6,623.5,991.2,620.1,1000.1,614.8L1000.1,614.8z M1005.5,611c9.7-7.7,15.2-18.2,15.8-28.3   c0.3-5.9-1-12-4.1-17.8c-23.1,10.5-41.7,22.9-59.6,34.9C976,606.2,992,610,1005.5,611L1005.5,611z M1020.9,563.1   c3.2,6.4,4.6,13.3,3.9,20.4c-1,10.9-5.9,20.4-13.8,27.8c22,0.7,37.1-6,44-20.8c-5.1-2.7-10.8-5.8-15.8-11.3   c6.2,3.3,12,5.7,17.4,7.4c2.8-8.8,1.6-23.4-7.9-33.6C1038.7,556,1029.5,559.5,1020.9,563.1L1020.9,563.1z M1053.1,551.7   c9,11.3,9.6,26.4,7.4,35.9c49.9,11.9,52.6-50.3,5.8-39.3C1061.8,549.2,1057.3,550.4,1053.1,551.7L1053.1,551.7z"
                  id="path10"/>
            <path class="st1"
                  d="M702.6,559.2c-16.4-10-33.6-19.5-52.8-22.3c-16.1-2.3-29.8-1-41,2.7c-9.8-2-19.7-2.7-29.5-2.2   c-13.5,0.7-22.7,4.9-29.1,10.8c-5.8-1.8-11.7-3.3-17.8-4.8c-23.3-5.5-42.7,9.4-37,31c3.9,14.6,25.4,25.6,45.7,17.8   c7.6,18.1,26.2,25.7,52.9,23.2c10.3,7.2,24.3,11.5,40.8,11.1c13.7-0.2,26-3,37.6-7.6c3.1,1.9,6.4,3.7,9.6,5.5   c29.9,16.3,68.1,27.2,102.3,23.7c54.1-5.5,92.5-57.9,53.4-98.8c24.1,39.7,0.6,84.2-55.5,89.5c-34.2,3.2-61-4.7-91.5-20.1   c-2.6-1.3-5.4-2.8-8.1-4.3c7.9-3.9,15.5-8.5,23-13.6c21.7,10.8,43.5,21.7,76.8,21.7c26.3,0,49.2-22.1,36.6-47.6   c4.7,24.1-16.8,62.8-106.3,21.1c6.1-4.5,12.3-9,18.4-13.7c10.4,3.8,20.7,5,32.2,3.3c-11.1-0.6-20.8-4.6-30.8-9.3   C721.9,571.7,712.3,565.2,702.6,559.2L702.6,559.2z M681.2,578.1c8.8,5.7,17.6,11.3,27,16.1c6.1-4.3,12.3-8.8,18.3-13.3   c-10.4-4.6-19.6-10.8-29-17.2c-14.6-9.9-29.4-20.1-48.3-22.7c-12.6-1.8-23.4-1.3-32.7,0.6c8.1,2.3,16.1,5.7,23.5,10.1   C654.5,560,667.6,569.3,681.2,578.1L681.2,578.1z M675.8,582.5c-7.9,6-14.8,10.1-24.2,13.8c-18.9-11.5-41.2-24.4-66.4-35.3   c4.9-7.1,12.7-13.4,23.4-17.2c9.6,2.2,18.9,6,28.4,11.8C650.5,563.8,663,573.4,675.8,582.5L675.8,582.5z M678.9,584.7   c7.2,5,14.5,9.9,22.4,14.2c-7.6,5-15.3,9.6-23.2,13.3c-6.8-3.9-14.4-8.6-22.5-13.5C664.1,595.1,671.6,590.3,678.9,584.7   L678.9,584.7z M581.2,559.4c-8.5-3.6-17.3-6.9-26.4-9.8c5.8-4.6,13.8-7.8,24.6-8.2c7.5-0.3,14.8,0,22,1.1   C592.6,546.7,585.8,552.6,581.2,559.4L581.2,559.4z M599.9,614.8c13.5-1.9,29-6,46.5-12.5c7.2,4.9,14.5,9.7,21.8,14.3   c-10.7,4.1-22,6.6-34,6.8C620.3,623.5,608.8,620.1,599.9,614.8L599.9,614.8z M594.5,611c-9.7-7.7-15.2-18.2-15.8-28.3   c-0.3-5.9,1-12,4.1-17.8c23.1,10.5,41.7,22.9,59.6,34.9C623.9,606.2,608,610,594.5,611L594.5,611z M579.1,563.1   c-3.2,6.4-4.6,13.3-3.9,20.4c1,10.9,5.9,20.4,13.8,27.8c-22,0.7-37.1-6-44-20.8c5.1-2.7,10.8-5.8,15.8-11.3   c-6.2,3.3-12,5.7-17.4,7.4c-2.7-8.8-1.6-23.4,7.9-33.6C561.3,556,570.4,559.5,579.1,563.1L579.1,563.1z M546.9,551.7   c-9,11.3-9.6,26.4-7.4,35.9c-49.9,11.9-52.6-50.3-5.8-39.3C538.2,549.2,542.6,550.4,546.9,551.7L546.9,551.7z"
                  id="path12"/>
        </g>
        <g id="g14">
            <path class="st1"
                  d="M588.4,280.2c8.7-28.9,26.1-52.9,51.3-67c59.2-33.1,138.9,2,177.9,78.4c26,50.6,27.4,106.7,8.2,148.4   c11.8-39.1,7.7-87.2-14.8-131.1c-39-76.4-118.7-111.4-177.9-78.4C613.1,241.8,598.1,259.2,588.4,280.2L588.4,280.2z M594.7,308.3   c7.7-25.6,23.2-46.9,45.5-59.4c52.5-29.3,123.2,1.8,157.8,69.4c23,44.9,24.3,94.6,7.2,131.6c10.5-34.7,6.8-77.2-13.2-116.3   c-34.7-67.7-105.3-98.9-157.8-69.6C616.7,274.2,603.3,289.6,594.7,308.3L594.7,308.3z M507.3,326.3c49.9-19.6,100.5-14.5,131-0.3   c42.6,19.7,61.2,60.7,62.2,84.4c0.9,21-13.2,30.8-20.1,34.7c-20.4,11.4-65.9,2.6-86.2-37.9c-12.4-24.6-13.3-51.7-4-71.9   c-5.7,18.9-7.7,34.3,7.1,63.4c14.9,29.1,66.2,45.8,82.6,18.6c6.7-11-1.7-55.8-45-81.5C608.1,320,573.7,312.3,507.3,326.3   L507.3,326.3z M822.8,447.6c-4.3,13-16.4,33.9-34.4,43.5c-22.4,11.9-54.8,1.4-70.4-26.6c-10.4-18.6-11.6-39.6-5-55.4   c-3.9,14.8-1.8,32.8,7.2,48.9c15.6,28.1,44.1,37.9,67,26.9C802.1,477.5,817.7,458.1,822.8,447.6L822.8,447.6z M802.7,456.3   c-12.8,31.9-58,33.7-77.8-2c-9.1-16.5-10.4-35.1-4.5-49.2c-3.5,13.2-1.6,29,6.4,43.4C745.1,481.1,782.4,483.2,802.7,456.3   L802.7,456.3z"
                  id="path16"/>
            <path class="st1"
                  d="M1011.6,280.2c-8.7-28.9-26.1-52.9-51.3-67c-59.2-33.1-138.9,2-177.9,78.4c-26,50.6-27.4,106.7-8.2,148.4   c-11.8-39.1-7.7-87.2,14.8-131.1c39-76.4,118.7-111.4,177.9-78.4C986.8,241.8,1001.8,259.2,1011.6,280.2L1011.6,280.2z    M1005.3,308.3c-7.7-25.6-23.2-46.9-45.5-59.4c-52.5-29.3-123.2,1.8-157.8,69.4c-23,44.9-24.3,94.6-7.2,131.6   c-10.5-34.7-6.8-77.2,13.2-116.3c34.7-67.7,105.3-98.9,157.8-69.6C983.3,274.2,996.7,289.6,1005.3,308.3L1005.3,308.3z    M1092.7,326.3c-49.9-19.6-100.5-14.5-131.1-0.3c-42.6,19.7-61.2,60.7-62.2,84.4c-0.9,21,13.2,30.8,20.1,34.7   c20.4,11.4,65.9,2.6,86.2-37.9c12.4-24.6,13.3-51.7,4-71.9c5.7,18.9,7.7,34.3-7.1,63.4c-14.9,29.1-66.2,45.8-82.6,18.6   c-6.7-11,1.7-55.8,45-81.5C991.8,320,1026.2,312.3,1092.7,326.3L1092.7,326.3z M777.2,447.6c4.3,13,16.4,33.9,34.4,43.5   c22.4,11.9,54.8,1.4,70.4-26.6c10.4-18.6,11.6-39.6,5-55.4c3.9,14.8,1.8,32.8-7.2,48.9c-15.6,28.1-44.3,37.9-67,26.9   C797.9,477.5,782.2,458.1,777.2,447.6L777.2,447.6z M797.3,456.3c12.8,31.9,58,33.7,77.8-2c9.1-16.5,10.4-35.1,4.5-49.2   c3.5,13.2,1.6,29-6.4,43.4C854.8,481.1,817.4,483.2,797.3,456.3L797.3,456.3z"
                  id="path18"/>
        </g>
        <text style="font-style:normal;font-weight:normal;font-size:40px;line-height:125%;font-family:sans-serif;letter-spacing:0px;word-spacing:0px;fill:#000000;fill-opacity:1;stroke:none;stroke-width:1px;stroke-linecap:butt;stroke-linejoin:miter;stroke-opacity:1"
              x="784.55219" y="766.64294" id="text4172">
            <tspan id="text11" x="784.55219" y="766.64294"
                   style="font-style:normal;font-variant:normal;font-weight:normal;font-stretch:normal;font-size:90px;line-height:125%;font-family:'Meie Script';-inkscape-font-specification:'Meie Script, Normal';text-align:center;writing-mode:lr-tb;text-anchor:middle;fill:#ff9955">
                John Bryan
            </tspan>
        </text>
    </g>
</svg>
 


