<?xml version="1.0" encoding="UTF-8" standalone="no"?>
<svg xmlns:dc="http://purl.org/dc/elements/1.1/" xmlns:cc="http://creativecommons.org/ns#"
     xmlns:rdf="http://www.w3.org/1999/02/22-rdf-syntax-ns#" xmlns:svg="http://www.w3.org/2000/svg"
     xmlns="http://www.w3.org/2000/svg" xmlns:xlink="http://www.w3.org/1999/xlink" id="svg1680" width="1600"
     height="1000" viewBox="0 0 1600 1000" version="1.1">
    <metadata id="metadata10">
        <rdf:RDF>
            <cc:Work rdf:about="">
                <dc:format>image/svg+xml</dc:format>
                <dc:type rdf:resource="http://purl.org/dc/dcmitype/StillImage"/>
                <dc:title></dc:title>
            </cc:Work>
        </rdf:RDF>
    </metadata>
    <defs id="defs8">
        <linearGradient xlink:href="#grad296" id="grad297" x1="377.19668" y1="556.11596" x2="377.19668" y2="620.21643"
                        gradientTransform="scale(1.0271778,0.97354129)" gradientUnits="userSpaceOnUse"/>
        <linearGradient id="grad296">
            <stop offset="0%" stop-color="#9edbf4" stop-opacity="1" id="stop6194"/>
            <stop offset="100%" stop-color="#ffffff" stop-opacity="1" id="stop6196"/>
        </linearGradient>
        <clipPath id="clipPath4153" clipPathUnits="userSpaceOnUse">
            <path id="jd_bd" d="m 1104.089,728.83728 165.2247,0 0,141.89882 -165.2247,0 z"
                  style="opacity:0.97000002;fill:none;fill-opacity:1;stroke:#000000;stroke-width:1;stroke-linecap:butt;stroke-linejoin:miter;stroke-miterlimit:4;stroke-dasharray:none;stroke-dashoffset:0;stroke-opacity:1"/>
        </clipPath>
    </defs>
    <image xlink:href="/designs/templates/002000701-0.jpg" id="jd_bg" height="1000" width="1600"
           style="stroke-width:1;stroke-miterlimit:4;stroke-dasharray:none"/>
    <g clip-path="url(#clipPath4153)" id="jd_nt">
        <g id="g6189" transform="matrix(1.5487796,0,0,1.4762964,534.61929,-46.844686)">
            <defs id="defs6191">
                <linearGradient id="linearGradient9028">
                    <stop offset="0%" stop-color="#9edbf4" stop-opacity="1" id="stop9030"/>
                    <stop offset="100%" stop-color="#ffffff" stop-opacity="1" id="stop9032"/>
                </linearGradient>
                <linearGradient xlink:href="#grad296" id="linearGradient9034" x1="0" y1="0" x2="0" y2="1"
                                gradientTransform="matrix(-0.70710678,-0.70710678,0.70710678,-0.70710678,0.5,1.2071068)"
                                gradientUnits="objectBoundingBox"/>
            </defs>
            <path d="M 388.1349,570.9331 415.758,543.31 c 2.5442,-2.5442 6.7075,-2.5442 9.2519,0 l 27.5734,27.5735 c 0.9431,0.943 0.9431,2.4861 0,3.4292 l -27.5938,27.5937 c -2.5331,2.5332 -6.6781,2.5332 -9.2112,0 l -27.6434,-27.6433 c -0.9158,-0.9159 -0.9158,-2.4142 0,-3.33 z m 44.9966,-13.5553 c 3.2842,0 5.9475,2.6634 5.9475,5.9476 0,3.2842 -2.6633,5.9476 -5.9475,5.9476 -3.2842,0 -5.9476,-2.6634 -5.9476,-5.9476 0,-3.2842 2.6634,-5.9476 5.9476,-5.9476 z"
                  style="fill:url(#grad297)" id="path6199"/>
            <path d="m 414.5086,535.1985 -35.3026,35.3025 -0.001,10e-4 c 0,0 1e-4,0 0,1e-4 l 0,-1e-4 0,1e-4 c -0.5752,0.576 -0.8629,1.3349 -0.8629,2.0939 0,0.7593 0.2881,1.5188 0.8636,2.0947 l 0,10e-5 c 0,0 1e-4,0 0,-10e-5 l 0,10e-5 7e-4,6e-4 35.3285,35.3285 0.001,10e-4 c 0,0 0,-2e-4 2e-4,0 l -2e-4,0 2e-4,0 c 1.6091,1.6084 3.7307,2.413 5.8519,2.413 2.1216,0 4.2434,-0.8047 5.8529,-2.4138 l 10e-5,0 c 0,0 0,-10e-5 -10e-5,0 l 10e-5,0 6e-4,-7e-4 35.2651,-35.2652 10e-4,-10e-4 c 0,0 -10e-5,0 0,-10e-5 l 0,10e-5 0,-10e-5 c 0.5925,-0.5932 0.8889,-1.3752 0.8889,-2.1573 0,-0.7823 -0.2967,-1.5647 -0.8896,-2.158 l 0,-1e-4 c 0,0 -1e-4,0 0,1e-4 l 0,-1e-4 -7e-4,-6e-4 -35.2392,-35.2392 -0.001,-10e-4 c 0,0 0,10e-5 -10e-5,0 l 10e-5,0 -10e-5,0 c -1.6166,-1.6156 -3.7473,-2.4237 -5.8781,-2.4237 -2.1309,0 -4.2622,0.8084 -5.8786,2.4244 l -10e-5,0 c 0,0 0,1e-4 10e-5,0 l -10e-5,0 -6e-4,8e-4 z m -31.9604,35.4166 32.385,-32.3851 7e-4,-5e-4 0,0 c 1.4995,-1.4993 3.4762,-2.2491 5.4523,-2.2491 1.9764,0 3.9525,0.7496 5.4521,2.2483 l 10e-5,0 0.001,10e-4 32.3267,32.3269 7e-4,7e-4 0,10e-5 c 0.5607,0.5611 0.8411,1.3004 0.8411,2.0393 0,0.7389 -0.2802,1.4777 -0.8404,2.0387 l 0,10e-5 -0.001,10e-4 -32.3506,32.3507 -6e-4,6e-4 -10e-5,0 c -1.4933,1.4928 -3.4611,2.2392 -5.429,2.2392 -1.967,0 -3.9349,-0.7462 -5.4279,-2.2385 l 0,0 -0.001,-0.001 -32.4088,-32.4088 -7e-4,-7e-4 0,-10e-5 c -0.5447,-0.545 -0.8172,-1.2631 -0.8172,-1.9812 0,-0.7178 0.2723,-1.4355 0.8166,-1.9805 l 0,-1e-4 0.001,-10e-4 z"
                  style="fill:#008bd0;fill-rule:evenodd" id="path6201"/>
            <path d="m 415.2453,539.9005 -30.865,30.8649 -10e-4,10e-4 c 0,0 10e-5,0 0,10e-5 l 0,-10e-5 0,10e-5 c -0.5029,0.5035 -0.7544,1.1671 -0.7544,1.8307 0,0.6638 0.2519,1.3279 0.755,1.8313 l 0,10e-5 c 0,0 10e-5,0 0,-10e-5 l 0,10e-5 6e-4,6e-4 30.8876,30.8876 10e-4,0.001 c 0,0 0,-2e-4 1e-4,0 l -1e-4,0 1e-4,0 c 1.4069,1.4062 3.2618,2.1096 5.1164,2.1096 1.8548,0 3.71,-0.7035 5.1171,-2.1103 l 10e-5,0 c 0,0 0,-10e-5 -10e-5,0 l 10e-5,0 5e-4,-6e-4 30.8322,-30.8323 10e-4,-10e-4 c 0,0 -10e-5,0 0,-10e-5 l 0,10e-5 0,-10e-5 c 0.518,-0.5187 0.7771,-1.2024 0.7771,-1.8861 0,-0.684 -0.2594,-1.368 -0.7777,-1.8868 l 0,-10e-5 c 0,0 -10e-5,0 0,10e-5 l 0,-10e-5 -7e-4,-5e-4 -30.8095,-30.8095 -10e-4,-10e-4 c 0,0 0,10e-5 -10e-5,0 l 10e-5,0 -10e-5,0 c -1.4133,-1.4126 -3.2762,-2.119 -5.1391,-2.119 -1.8631,0 -3.7265,0.7067 -5.1397,2.1196 l -10e-5,0 c 0,0 0,10e-5 10e-5,0 l -10e-5,0 -5e-4,7e-4 z m -29.561,30.8795 29.6995,-29.6996 7e-4,-6e-4 2e-4,0 c 1.3751,-1.3748 3.1878,-2.0625 5.0003,-2.0625 1.8122,0 3.6245,0.6874 4.9998,2.0618 l 1e-4,0 10e-4,10e-4 29.6461,29.6463 7e-4,6e-4 0,10e-5 c 0.5142,0.5144 0.7713,1.1925 0.7713,1.8703 0,0.6775 -0.257,1.3551 -0.7706,1.8695 l 0,10e-5 -10e-4,10e-4 -29.6681,29.6682 -5e-4,6e-4 -1e-4,0 c -1.3693,1.3689 -3.1741,2.0535 -4.9786,2.0535 -1.8042,0 -3.6087,-0.6844 -4.978,-2.0529 l -1e-4,0 -10e-4,-10e-4 -29.7215,-29.7214 -6e-4,-6e-4 0,-10e-5 c -0.4994,-0.4999 -0.7493,-1.1585 -0.7493,-1.8169 0,-0.6582 0.2496,-1.3166 0.7488,-1.8163 l 0,-2e-4 10e-4,-10e-4 z"
                  style="fill:#9edbf4;fill-rule:evenodd" id="path6203"/>
        </g>
        <text x="1185.5148" y="812.67621" id="text9075">
            <tspan id="text01" x="1185.5148" y="812.67621"
                   style="font-style:normal;font-variant:normal;font-weight:normal;font-stretch:normal;font-size:35px;line-height:125%;font-family:Anton;-inkscape-font-specification:'Anton, Normal';text-align:center;letter-spacing:0px;word-spacing:0px;writing-mode:lr-tb;text-anchor:middle;fill:#000000;fill-opacity:1;stroke:none;stroke-width:1px;stroke-linecap:butt;stroke-linejoin:miter;stroke-opacity:1">
                JWB
            </tspan>
        </text>
    </g>
</svg>
 

