<?xml version="1.0" encoding="utf-8"?>
<svg xmlns:dc="http://purl.org/dc/elements/1.1/" xmlns:cc="http://creativecommons.org/ns#" xmlns:rdf="http://www.w3.org/1999/02/22-rdf-syntax-ns#" xmlns:svg="http://www.w3.org/2000/svg" xmlns="http://www.w3.org/2000/svg" xmlns:xlink="http://www.w3.org/1999/xlink" version="1.1" x="0px" y="0px" width="1600px" height="1000px" viewBox="0 0 1600 1000" enable-background="new 0 0 1600 1000" xml:space="preserve" id="svg2">
  <metadata id="metadata293">
    <rdf:RDF>
      <cc:Work rdf:about="">
        <dc:format>
          image/svg+xml
        </dc:format>
        <dc:type rdf:resource="http://purl.org/dc/dcmitype/StillImage">
        </dc:type>
        <dc:title>
        </dc:title>
      </cc:Work>
    </rdf:RDF>
  </metadata>
  <defs id="defs291">
    <clipPath id="clipPath4295" clipPathUnits="userSpaceOnUse">
      <path id="jd_bd" d="m 928.44275,593.74244 246.58715,0 0,257.69482 -246.58715,0 z" style="opacity:1;fill:none;fill-opacity:1;fill-rule:nonzero;stroke:#ffc300;stroke-width:2.20000005;stroke-linecap:butt;stroke-linejoin:miter;stroke-miterlimit:4;stroke-dasharray:none;stroke-dashoffset:0;stroke-opacity:1">
      </path>
    </clipPath>
  </defs>
  <image xlink:href="/designs/templates/002000301-0.jpg" overflow="visible" enable-background="new    " width="600" height="400" id="jd_bg" transform="matrix(2.6667,0,0,2.5,-1.9998,-2.441406e-4)" style="overflow:visible">
  </image>
  <g clip-path="url(#clipPath4295)" id="jd_nt" transform="translate(58.110517,15.793227)">
    <g id="graphic">
      <g id="g8">
        <linearGradient id="SVGID_1_" gradientUnits="userSpaceOnUse" x1="969.22491" y1="749.25562" x2="1025.1575" y2="749.25562">
          <stop offset="0" style="stop-color:#99693D" id="stop11">
          </stop>
          <stop offset="0.5" style="stop-color:#AA8059" id="stop13">
          </stop>
          <stop offset="1" style="stop-color:#C7AA8D" id="stop15">
          </stop>
        </linearGradient>
        <path d="m 1015.7,752.2 c -4,-7.4 -8.2,-14.6 -12.2,-22 -5.9,-10.7 -10.1,-22 -12.2,-34.3 -0.4,-2.1 -0.6,-4.3 -0.9,-6.4 0,-0.1 -0.2,-0.1 -0.2,0 -1.1,10.9 -0.3,21.5 1.8,32.1 2.4,11.8 6.4,22.9 11.6,33.6 3.2,6.6 6.2,13.4 8,20.7 1.4,5.7 1.5,12 -3.7,15.6 -4.1,2.9 -9.4,2.4 -13.8,0.7 -4,-1.5 -8.2,-3.8 -10.4,-8 -2.3,-4.5 0.1,-9.6 3.8,-12.1 6.1,-4 13.1,-1.4 19.6,0.2 0.2,0 0.8,0.2 1.2,0.3 0.2,0.1 0.4,-0.1 0.3,-0.4 -0.1,-0.5 -0.4,-1.3 -0.5,-1.7 -1.9,-4.6 -3.8,-9.2 -5.7,-13.8 -0.2,-0.5 -0.5,-1 -0.9,-1.2 -4.6,-1.8 -9.4,-3.2 -14.4,-2.7 -6.2,0.7 -10.7,4.5 -14,10 -4.4,7.3 -5.2,14.9 -2.1,23 1.8,4.6 4.2,8.7 7.1,12.6 3.2,4.2 7.4,6.5 12.3,7 5.5,0.5 11,0.8 16.6,0.8 5.7,0 11.3,0.4 16.8,2.2 0.3,0.1 0.6,0.1 0.9,0.2 0,0 0.1,0 0.1,-0.1 0.1,-0.2 0.1,-0.3 0.1,-0.5 0.1,-11.8 0.2,-23.6 -1.9,-35.3 -1.1,-7 -3.8,-13.9 -7.3,-20.5 z" id="path17" style="fill:url(#SVGID_1_)">
        </path>
        <linearGradient id="SVGID_2_" gradientUnits="userSpaceOnUse" x1="1005.929" y1="687.77911" x2="1072.3264" y2="687.77911">
          <stop offset="0" style="stop-color:#99693D" id="stop20">
          </stop>
          <stop offset="0.5" style="stop-color:#AA8059" id="stop22">
          </stop>
          <stop offset="1" style="stop-color:#C7AA8D" id="stop24">
          </stop>
        </linearGradient>
        <path d="m 1072.1,631.4 c -11.3,-4 -22.6,-4.3 -33.8,0.7 -5.8,2.6 -11,6.3 -15.5,11 -7.5,7.9 -12.1,17.5 -14.2,28.6 -2.2,11.6 -3.3,23.2 -2.3,34.9 1,11.9 5,22.6 12,32 2.7,3.7 5.8,6.6 10.1,7.8 5,1.5 9.7,0.9 14.1,-2 8.4,-5.4 13.2,-17.1 11,-27 -0.4,-1.9 -1.1,-3.6 -2.6,-5.3 -0.1,-0.1 -0.2,0 -0.2,0.1 1.4,5 0.7,9.5 -1.8,13.3 -3.6,5.4 -10.2,11 -16.8,9.6 -7.2,-1.6 -10.3,-10.8 -11.9,-17.5 -2.2,-9.3 -2.1,-18.7 -0.8,-28.1 1.5,-11.1 4.4,-21.9 9.1,-31.9 6.8,-14.6 18,-22.9 33,-25.3 3.6,-0.6 7.3,-0.6 10.8,-0.9 0.1,0.2 -0.1,0 -0.2,0 z" id="path26" style="fill:url(#SVGID_2_)">
        </path>
        <linearGradient id="SVGID_3_" gradientUnits="userSpaceOnUse" x1="1017.4739" y1="726.41089" x2="1094.4993" y2="726.41089">
          <stop offset="0" style="stop-color:#99693D" id="stop29">
          </stop>
          <stop offset="0.5" style="stop-color:#AA8059" id="stop31">
          </stop>
          <stop offset="1" style="stop-color:#C7AA8D" id="stop33">
          </stop>
        </linearGradient>
        <path d="m 1088.3,731.1 c 1.5,-7.4 3.1,-12.3 6.2,-19.2 0,-0.1 -0.1,-0.2 -0.1,-0.1 -4.1,2.8 -8.3,5.6 -12.5,8.5 -0.1,0 -0.1,0 -0.1,-0.1 -0.4,-1.6 -0.8,-3.1 -1.2,-4.6 -1.7,-6.3 -4.2,-12.3 -7.8,-17.6 -2.7,-4 -3.2,-8.1 -2,-12.7 0.1,-0.4 0.2,-0.8 0.2,-1.2 0,-0.1 -0.1,-0.2 -0.2,-0.1 -2.2,2.8 -4.3,5.8 -4.9,9.6 -0.2,1.5 0,3.1 0.4,4.6 1.2,4.9 2.8,9.8 3.8,14.8 2.8,13.9 -1.6,25.1 -11.5,34.1 -5.3,4.9 -11.6,7.7 -18.5,9.1 -3.2,0.6 -6.2,-0.2 -9.1,-1.5 -4.3,-1.9 -11.1,-8.5 -13.2,-10.6 -0.1,-0.1 -0.4,0 -0.3,0.2 2.1,5.2 4.7,10 8.6,13.8 6.2,6.3 13.3,10.4 22.1,10.7 3.9,0.1 7.6,-0.9 11.1,-2.5 10.5,-4.9 19.3,-11.9 25.1,-22.9 1.9,-3.8 3.1,-8 3.9,-12.3 z" id="path35" style="fill:url(#SVGID_3_)">
        </path>
        <linearGradient id="SVGID_4_" gradientUnits="userSpaceOnUse" x1="975.55298" y1="686.22137" x2="1028.2405" y2="686.22137">
          <stop offset="0" style="stop-color:#99693D" id="stop38">
          </stop>
          <stop offset="0.5" style="stop-color:#AA8059" id="stop40">
          </stop>
          <stop offset="1" style="stop-color:#C7AA8D" id="stop42">
          </stop>
        </linearGradient>
        <path d="m 991.2,682.6 c 1.6,10.5 3.5,20.4 7.2,29.9 3.5,9 8.4,17.1 14.3,24.6 0.1,0.2 0.4,0 0.3,-0.2 -2.1,-4.7 -8.3,-19.2 -8.9,-29.8 -0.4,-6 -0.2,-12 0.1,-18 0.4,-7.8 1.3,-15.6 3.2,-23.1 2.1,-8.6 6.5,-15.8 12.2,-22 2.6,-2.9 5.6,-5.5 8.6,-8.4 0.1,-0.1 0,-0.2 -0.1,-0.2 -4.7,1.2 -8.8,2.8 -12.7,5 -11.6,6.4 -21,15.5 -27.9,27.4 -3.7,6.4 -5.8,13.6 -7.6,20.9 -2.1,8.3 -3.4,16.7 -4.3,25.3 0,0.1 0.2,0.2 0.2,0 3.6,-11.1 7.5,-22.2 15.3,-31.4 0,-0.1 0.1,-0.1 0.1,0 z" id="path44" style="fill:url(#SVGID_4_)">
        </path>
        <linearGradient id="SVGID_5_" gradientUnits="userSpaceOnUse" x1="1037.3684" y1="704.39227" x2="1069.2122" y2="704.39227">
          <stop offset="0" style="stop-color:#99693D" id="stop47">
          </stop>
          <stop offset="0.5" style="stop-color:#AA8059" id="stop49">
          </stop>
          <stop offset="1" style="stop-color:#C7AA8D" id="stop51">
          </stop>
        </linearGradient>
        <path d="m 1049.8,743.9 c -2.8,4.5 -6.6,7.7 -11.2,10 -0.4,0.2 -0.7,0.4 -1.1,0.6 0,0 0,0.1 -0.2,0.4 1,-0.1 2,-0.1 2.8,-0.3 13.7,-3.5 24.1,-12.3 28.4,-29.1 1.6,-6.5 0.1,-12.8 -2.1,-18.9 -1.3,-3.8 -2.8,-7.5 -3.9,-11.4 -1.5,-5 -0.1,-9.1 3.5,-12.4 0,0 0,0 0,0 -0.2,-0.4 -0.1,-0.3 -0.3,-0.7 -3.6,1.3 -7.2,2.7 -11,4.1 -0.1,0 -0.1,0 -0.1,-0.1 -3,-9.5 4.2,-29 5.3,-32 0,-0.1 -0.1,-0.2 -0.2,-0.1 -3.3,3.2 -5.8,6.6 -7.3,8.5 -6.1,7.6 -8.3,17.2 -9,27.2 -0.3,3.5 0.6,7.1 3.2,9.4 2.1,1.9 4.7,2.9 6.9,4.7 2.9,2.5 4.2,6.9 4.5,10.8 0.3,5.2 -0.6,10.9 -2,15.8 -1.5,4.8 -3.6,9.3 -6.2,13.5 z" id="path53" style="fill:url(#SVGID_5_)">
        </path>
        <linearGradient id="SVGID_6_" gradientUnits="userSpaceOnUse" x1="968.25897" y1="727.65887" x2="999.91919" y2="727.65887">
          <stop offset="0" style="stop-color:#99693D" id="stop56">
          </stop>
          <stop offset="0.5" style="stop-color:#AA8059" id="stop58">
          </stop>
          <stop offset="1" style="stop-color:#C7AA8D" id="stop60">
          </stop>
        </linearGradient>
        <path d="m 988.6,689.7 c -5,5.7 -14.8,33.2 -16.1,44.7 0,0.1 0.1,0.2 0.2,0.1 3,-6.9 5.8,-13.6 9.8,-19.7 0.1,-0.1 0.2,0 0.2,0 1,8.7 2.1,17.3 4.8,25.8 0,0.1 0,0.1 -0.1,0.1 -3.5,0.8 -6.7,1.9 -9.4,4.4 -0.1,0.1 -0.2,0 -0.2,-0.1 0.7,-2.9 1.3,-5.9 2,-8.9 0,-0.1 -0.1,-0.2 -0.2,-0.1 -3.4,4.7 -9.8,21.3 -11.4,29.5 0,0.1 0.1,0.2 0.2,0.1 0.3,-0.3 0.4,-0.5 0.6,-0.8 2.2,-2.8 4.4,-5.6 6.7,-8.3 5.2,-5.9 11.7,-7.4 19,-6.2 1.6,0.3 3.2,0.8 5.1,1.3 0.1,0 0.1,-0.1 0.1,-0.1 -8,-19.7 -13.6,-39.7 -11.1,-61.7 0,-0.1 -0.1,-0.2 -0.2,-0.1 z" id="path62" style="fill:url(#SVGID_6_)">
        </path>
        <linearGradient id="SVGID_7_" gradientUnits="userSpaceOnUse" x1="1027.4954" y1="817.28491" x2="1043.9143" y2="817.28491">
          <stop offset="0" style="stop-color:#99693D" id="stop65">
          </stop>
          <stop offset="0.5" style="stop-color:#AA8059" id="stop67">
          </stop>
          <stop offset="1" style="stop-color:#C7AA8D" id="stop69">
          </stop>
        </linearGradient>
        <path d="m 1034.8,822.6 c -0.9,-0.2 -1.3,-0.6 -1.4,-1.6 -1.2,-6.2 -2.4,-12.4 -3.6,-18.6 -0.6,-3 -1.2,-6 -2,-8.9 -0.1,-0.2 -0.3,-0.2 -0.3,0 l 0,40.1 c 0,0.1 0.1,0.2 0.3,0.1 1.1,-0.7 2.1,-1.5 3.2,-2.2 3.2,-1.8 5,-1.5 7.5,1.3 2,2.3 3.7,4.9 3.7,8.2 0,0.2 0.2,0.2 0.3,0.1 1.8,-4.2 1.9,-8.4 -0.3,-12.6 -1.6,-3.1 -4,-5.3 -7.4,-5.9 z" id="path71" style="fill:url(#SVGID_7_)">
        </path>
        <linearGradient id="SVGID_8_" gradientUnits="userSpaceOnUse" x1="1080.7092" y1="693.25952" x2="1094.0286" y2="693.25952">
          <stop offset="0" style="stop-color:#99693D" id="stop74">
          </stop>
          <stop offset="0.5" style="stop-color:#AA8059" id="stop76">
          </stop>
          <stop offset="1" style="stop-color:#C7AA8D" id="stop78">
          </stop>
        </linearGradient>
        <path d="m 1091.1,674.7 c 0.7,-1.4 1.5,-2.7 2.1,-4.2 0,-0.1 -0.1,-0.2 -0.2,-0.1 -2.5,2.8 -11.2,11.1 -12.2,22.1 -0.4,7.9 0.6,15.6 2.2,23.2 0,0.1 0.1,0.2 0.2,0.4 0,0 0.1,0.1 0.1,0 3.4,-1.9 6.8,-3.9 10.6,-6 0.1,0 0.1,-0.2 0,-0.2 -1.8,-0.4 -3.3,-0.7 -4.7,-1.1 -0.4,-0.1 -1,-0.6 -1.1,-0.9 -1.3,-6.8 -2.5,-13.6 -1.6,-20.6 0.5,-4.6 2.5,-8.6 4.6,-12.6 z" id="path80" style="fill:url(#SVGID_8_)">
        </path>
        <linearGradient id="SVGID_9_" gradientUnits="userSpaceOnUse" x1="1020.4641" y1="766.01147" x2="1042.1926" y2="766.01147">
          <stop offset="0" style="stop-color:#99693D" id="stop83">
          </stop>
          <stop offset="0.5" style="stop-color:#AA8059" id="stop85">
          </stop>
          <stop offset="1" style="stop-color:#C7AA8D" id="stop87">
          </stop>
        </linearGradient>
        <path d="m 1042.1,769.2 c -7.2,-1.5 -12.8,-6.1 -17.8,-11 0,0 0,0 -0.1,0 l -3.7,-0.2 c -0.1,0 -0.1,0.1 -0.1,0.1 1,2.5 1.9,5.1 2.7,7.5 0.8,2.6 1.4,4.9 2.2,7.5 0.1,0.4 0.6,1 1,1 5.5,-0.2 10.6,-2.1 15.9,-4.7 0,0 0,-0.2 -0.1,-0.2 z" id="path89" style="fill:url(#SVGID_9_)">
        </path>
        <linearGradient id="SVGID_10_" gradientUnits="userSpaceOnUse" x1="1067.8323" y1="775.92157" x2="1083.1018" y2="775.92157">
          <stop offset="0" style="stop-color:#99693D" id="stop92">
          </stop>
          <stop offset="0.5" style="stop-color:#AA8059" id="stop94">
          </stop>
          <stop offset="1" style="stop-color:#C7AA8D" id="stop96">
          </stop>
        </linearGradient>
        <path d="m 1082.9,752.1 c -2.7,2.4 -5.3,4.7 -7.9,7.1 -0.3,0.2 -0.4,0.6 -0.5,1 -2.5,8.1 -4.8,16.2 -6.1,24.5 -0.8,5 -0.6,10 -0.1,15 0,0.1 0.2,0.1 0.2,0 0.6,-3.6 1.1,-7.3 1.8,-10.9 1.5,-8.9 4.4,-17.4 8.2,-25.5 1.5,-3.3 2.9,-6.7 4.3,-10.1 0.1,-0.3 0.3,-0.6 0.4,-1 -0.1,-0.1 -0.2,-0.2 -0.3,-0.1 z" id="path98" style="fill:url(#SVGID_10_)">
        </path>
        <linearGradient id="SVGID_11_" gradientUnits="userSpaceOnUse" x1="1047.1282" y1="787.50171" x2="1055.5471" y2="787.50171">
          <stop offset="0" style="stop-color:#99693D" id="stop101">
          </stop>
          <stop offset="0.5" style="stop-color:#AA8059" id="stop103">
          </stop>
          <stop offset="1" style="stop-color:#C7AA8D" id="stop105">
          </stop>
        </linearGradient>
        <path d="m 1047.3,804.7 c 3.4,-11.2 7.6,-22.3 8.2,-34.4 0,-0.1 -0.1,-0.1 -0.1,-0.1 -2.6,0.6 -5,1.1 -7.5,1.7 -0.1,0 -0.1,0.1 -0.1,0.1 1.9,10.9 0.6,21.8 -0.7,32.7 0,0.1 0.2,0.2 0.2,0 z" id="path107" style="fill:url(#SVGID_11_)">
        </path>
        <linearGradient id="SVGID_12_" gradientUnits="userSpaceOnUse" x1="1048.5559" y1="824.073" x2="1064.3518" y2="824.073">
          <stop offset="0" style="stop-color:#99693D" id="stop110">
          </stop>
          <stop offset="0.5" style="stop-color:#AA8059" id="stop112">
          </stop>
          <stop offset="1" style="stop-color:#C7AA8D" id="stop114">
          </stop>
        </linearGradient>
        <path d="m 1057.3,822.2 c -1.1,-0.1 -1.8,-0.5 -2.5,-1.4 -1.6,-2.3 -4.6,-6.2 -5.9,-7.5 -0.2,-0.2 -0.4,0 -0.4,0.2 1.3,4.2 2.5,8.4 3.8,12.6 0.5,1.6 1.5,2.3 3,2.3 3.8,-0.2 6.5,1.5 8,5.3 0.2,0.4 0.3,0.8 0.5,1.2 0,0 0.1,0 0.3,0 0.1,0 0.2,-0.1 0.2,-0.2 -0.3,-2.6 -0.3,-5.1 -0.9,-7.4 -0.8,-3.2 -3.1,-4.8 -6.1,-5.1 z" id="path116" style="fill:url(#SVGID_12_)">
        </path>
        <linearGradient id="SVGID_13_" gradientUnits="userSpaceOnUse" x1="1043.6155" y1="828.59741" x2="1055.1125" y2="828.59741">
          <stop offset="0" style="stop-color:#99693D" id="stop119">
          </stop>
          <stop offset="0.5" style="stop-color:#AA8059" id="stop121">
          </stop>
          <stop offset="1" style="stop-color:#C7AA8D" id="stop123">
          </stop>
        </linearGradient>
        <path d="m 1051.5,827.5 c -0.4,-0.3 -0.9,-0.7 -1.3,-0.7 -1.7,0 -2.3,-1.4 -2.9,-2.8 -0.8,-1.9 -2.6,-5.8 -3.3,-7.1 -0.1,-0.2 -0.3,-0.1 -0.3,0.1 0,4.7 -0.4,10 1.5,14.5 0,0.1 0.1,0.1 0.2,0.1 3.8,-0.9 6.8,1.9 8.2,8.6 0,0.2 0.2,0.2 0.3,0.1 2.3,-4.1 1.3,-10.1 -2.4,-12.8 z" id="path125" style="fill:url(#SVGID_13_)">
        </path>
        <linearGradient id="SVGID_14_" gradientUnits="userSpaceOnUse" x1="986.02863" y1="825.4939" x2="997.61548" y2="825.4939">
          <stop offset="0" style="stop-color:#99693D" id="stop128">
          </stop>
          <stop offset="0.5" style="stop-color:#AA8059" id="stop130">
          </stop>
          <stop offset="1" style="stop-color:#C7AA8D" id="stop132">
          </stop>
        </linearGradient>
        <path d="m 991.3,826.9 c 0.6,-2.9 0.4,-5.8 -0.7,-8.6 -0.6,-1.6 -1.6,-2.9 -3.2,-3.8 -0.2,-0.1 -0.4,0.1 -0.4,0.3 0.1,0.6 0.1,1 0.2,1.5 0.2,2 0.3,4 -0.4,6 -1.5,4 -0.7,7.8 1.8,11.1 2,2.7 6.1,3.8 9.1,2.5 -0.1,-0.1 -0.2,-0.2 -0.3,-0.2 -4.3,-0.2 -7.1,-4.4 -6.1,-8.8 z" id="path134" style="fill:url(#SVGID_14_)">
        </path>
        <linearGradient id="SVGID_15_" gradientUnits="userSpaceOnUse" x1="1071.2551" y1="695.49188" x2="1080.8528" y2="695.49188">
          <stop offset="0" style="stop-color:#99693D" id="stop137">
          </stop>
          <stop offset="0.5" style="stop-color:#AA8059" id="stop139">
          </stop>
          <stop offset="1" style="stop-color:#C7AA8D" id="stop141">
          </stop>
        </linearGradient>
        <path d="m 1075.7,693.1 c -1.5,-2.2 -2.8,-5 -3,-8.9 -1.6,3.5 -2.3,6.8 -0.3,10.2 1.9,3.3 3.8,6.5 5.7,9.8 0.6,1 1.1,2 1.7,3.3 -0.4,-4.4 -0.8,-8.3 -1,-12.3 -0.2,-4 0.8,-7.9 2,-11.7 -2.8,2.4 -4.6,5.6 -5.1,9.6 z" id="path143" style="fill:url(#SVGID_15_)">
        </path>
        <linearGradient id="SVGID_16_" gradientUnits="userSpaceOnUse" x1="999.12817" y1="828.53693" x2="1010.4055" y2="828.53693">
          <stop offset="0" style="stop-color:#99693D" id="stop146">
          </stop>
          <stop offset="0.5" style="stop-color:#AA8059" id="stop148">
          </stop>
          <stop offset="1" style="stop-color:#C7AA8D" id="stop150">
          </stop>
        </linearGradient>
        <path d="m 1005.2,818.5 c -0.2,-0.2 -0.5,0 -0.4,0.3 0.6,1.6 1.1,3 1.4,4.5 0.4,2.2 0.7,4.5 0.4,6.6 -0.5,3.6 -4.3,5.1 -7,3.3 -0.2,-0.1 -0.4,0 -0.4,0.3 0.2,2.2 2.1,4.3 4.4,5 2.5,0.7 4.5,-0.1 5.7,-2.4 1.3,-2.5 1.5,-5.3 1,-8.1 -0.7,-3.8 -2.6,-6.7 -5.1,-9.5 z" id="path152" style="fill:url(#SVGID_16_)">
        </path>
        <linearGradient id="SVGID_17_" gradientUnits="userSpaceOnUse" x1="1000.1448" y1="819.43237" x2="1017.9788" y2="819.43237">
          <stop offset="0" style="stop-color:#99693D" id="stop155">
          </stop>
          <stop offset="0.5" style="stop-color:#AA8059" id="stop157">
          </stop>
          <stop offset="1" style="stop-color:#C7AA8D" id="stop159">
          </stop>
        </linearGradient>
        <path d="m 1017.8,809.2 c -5.7,-1.5 -11.5,-0.2 -17.4,0.1 -0.3,0 -0.3,0.4 -0.1,0.5 7.4,4.6 11.4,11.3 11.7,20.4 0,0.3 0.4,0.4 0.5,0.1 1.8,-5.1 2.4,-10.3 0.4,-15.5 -0.7,-1.7 -0.3,-2.6 1,-3.3 1.3,-0.6 2.6,-1.2 4,-1.7 0.2,-0.2 0.1,-0.6 -0.1,-0.6 z" id="path161" style="fill:url(#SVGID_17_)">
        </path>
        <linearGradient id="SVGID_18_" gradientUnits="userSpaceOnUse" x1="1051.0413" y1="782.40802" x2="1063.3557" y2="782.40802">
          <stop offset="0" style="stop-color:#99693D" id="stop164">
          </stop>
          <stop offset="0.5" style="stop-color:#AA8059" id="stop166">
          </stop>
          <stop offset="1" style="stop-color:#C7AA8D" id="stop168">
          </stop>
        </linearGradient>
        <path d="m 1063.4,766.7 c 0,-0.1 -0.1,-0.2 -0.1,-0.1 -1.5,0.6 -2.9,1.1 -4.2,1.7 -0.2,0.1 -0.4,0.6 -0.5,1 -1,9.6 -4.2,18.5 -7.2,27.5 -0.1,0.4 -0.2,0.7 -0.3,1.1 0,0.1 0.1,0.2 0.1,0.4 4.7,-10.2 9.5,-20.3 12.2,-31.6 z" id="path170" style="fill:url(#SVGID_18_)">
        </path>
        <linearGradient id="SVGID_19_" gradientUnits="userSpaceOnUse" x1="1066.3147" y1="683.30048" x2="1162.7327" y2="683.30048">
          <stop offset="0" style="stop-color:#99693D" id="stop173">
          </stop>
          <stop offset="0.5" style="stop-color:#AA8059" id="stop175">
          </stop>
          <stop offset="1" style="stop-color:#C7AA8D" id="stop177">
          </stop>
        </linearGradient>
        <path d="m 1159.6,684 c -0.9,-0.8 -15.3,-9.1 -16.1,-9.7 -0.3,-0.2 -0.4,-0.5 -0.4,-0.9 0.1,-1.7 0,-3.3 -0.8,-4.8 -0.5,-1 -1.3,-1.8 -2.3,-2.3 -2.6,-1.4 -5.2,-2.9 -7.9,-4.3 -6.1,-3 -12.1,-5.5 -17.2,-10.2 -4.6,-4.2 -8.6,-9.2 -13.7,-12.5 -5.1,-3.3 -13.6,-5.2 -19.5,-5.2 -5.2,0 -10.4,0.9 -15.3,2.8 -0.1,0 -0.1,0.2 0,0.2 2.9,-0.3 13,-1.2 18.9,0.2 8.9,2 18.5,6.9 30.7,27.1 2.1,3.4 -7.4,5.1 -10.6,3.9 -1.2,-0.5 -2.1,-1.2 -2.8,-2.3 -0.1,-0.1 -0.2,0 -0.2,0.1 0,0.7 0.1,1.5 0.3,2.1 0.3,1.5 0.6,3 1.1,4.4 0.5,1.6 0.7,3.3 0,4.9 -0.5,1.4 -1.5,2 -2.8,2.1 -1.4,0.1 -2.7,-0.4 -4,-1 -0.2,-0.1 -0.4,-0.2 -0.6,-0.3 -0.1,0 -0.2,0 -0.1,0.1 0.2,0.5 0.3,1 0.5,1.3 0.4,0.8 0.8,1.5 1.2,2.3 1.2,2.1 1.4,4.3 0.6,6.7 -0.3,0.8 -0.5,1.5 -0.8,2.3 -1.1,2.9 0,5.1 1.6,6.7 0.7,0.7 1.6,1.3 2.4,1.9 2.6,1.7 5.2,3.4 7.4,5.7 0.9,0.9 1.7,2 2.3,3.1 1.1,2.1 0.5,4.4 -0.4,6.5 -0.7,1.7 -1.8,3.3 -3,4.6 -5.8,5.9 -15.2,11.4 -17.2,12.5 -0.1,0.1 -0.1,0.2 0.1,0.2 25.9,-0.4 43.5,-12.2 43.8,-12.4 0,0 0,0 0,0 0.4,-0.4 0.8,-0.7 1.2,-1.1 0.1,-0.1 0,-0.2 0,-0.2 -0.3,-0.1 -0.6,-0.2 -0.8,-0.3 -0.5,-0.2 -1,-0.4 -1.1,-1.1 -0.1,-0.6 0.3,-1 0.7,-1.4 0.8,-0.8 1.5,-1.6 2.2,-2.6 0.4,-0.5 0.6,-1.1 0.8,-1.7 -0.1,-0.2 -0.1,-0.2 -0.2,-0.4 -0.3,0 -0.7,0.1 -1,0.1 -2.2,0.6 -4.5,0.6 -6.7,0.1 -4.2,-1.1 -4.5,-5 -3.6,-7.7 0.6,-1.8 1.7,-3.2 3,-4.5 2.5,-2.6 5.3,-4.7 8.5,-6.2 0.8,-0.4 1.6,-0.6 2.4,-0.7 3,-0.5 5.1,1.3 5.5,4.5 0.3,3 -0.4,5.7 -2.5,7.9 -0.5,0.5 -0.9,0.9 -1.3,1.4 -0.4,0.4 -0.3,0.6 0.2,0.8 0.1,0.1 0.3,0.1 0.5,0.1 2.8,0 5.6,-0.4 8,-2.2 0.7,-0.5 1.4,-1.2 2.1,-1.7 0.5,-0.4 1.1,-0.8 1.6,-1.1 0.6,-0.3 1.2,-0.4 1.8,-0.1 0.4,0.2 0.6,0.1 0.9,-0.1 1.9,-1.4 3.1,-3.5 3.8,-5.8 0.3,-0.9 0.5,-1.9 0.8,-2.9 0.2,-0.7 -0.1,-1.2 -0.5,-1.7 -0.9,-0.9 -1.8,-1.8 -2.7,-2.7 -0.1,-0.1 0,-0.2 0.1,-0.2 1.3,0 3.9,1.8 4,1.8 0.7,-1 0.9,-1.4 0.3,-2.7 -1,-1.3 -2,-2.4 -3.2,-3.4 z m -31.6,32.7 c 0.2,0.1 0.3,0.2 0.6,0.4 -4.3,0.1 -8.4,0.5 -12.1,2.5 -0.1,0 -0.2,-0.1 -0.1,-0.2 1.1,-1.7 1.7,-3.6 1.6,-5.7 -0.2,-3.6 -1.4,-6.7 -3.7,-9.3 -1.8,-2 -3.8,-3.8 -5.8,-5.7 -1.9,-1.8 -3.8,-3.7 -5.1,-6.1 -0.4,-0.7 -0.7,-1.5 -1,-2.3 0,0 0.1,0 0.1,-0.1 0.3,0.6 0.7,1.2 1,1.8 1.2,2.1 2.9,3.5 5.3,3.8 0.7,0.1 1.1,-0.2 1.4,-0.7 0.2,-0.3 0.3,-0.7 0.4,-1.1 0.2,-2.1 -0.1,-4 -1.5,-5.5 -1.2,-1.3 -2.5,-2.4 -3.8,-3.6 -0.2,-0.2 -0.4,-0.4 -0.5,-0.5 -0.1,-0.1 0,-0.2 0,-0.2 0.3,-0.1 0.5,-0.1 0.7,0 1.5,0.1 2.9,0 4.3,-0.4 2,-0.7 3,-2.2 2.7,-4.3 -0.1,-0.9 -0.4,-1.9 -0.9,-2.6 -0.5,-1 -1.3,-1.8 -1.9,-2.6 -0.2,-0.3 -0.4,-0.5 -0.6,-0.8 -0.2,-0.3 -0.4,-0.5 -0.6,-0.8 0.2,0 0.2,0.1 0.3,0.1 4.1,3.5 7.4,7.8 9.7,12.9 1,2.3 2.1,4.7 3.1,7 0,0 0,0.1 0,0.1 -0.1,0.1 -0.2,0.2 -0.3,0.3 -1.4,1.4 -2.5,3.2 -2.9,5.2 -0.8,3.9 -0.2,7.5 1.7,10.9 2.1,3.3 4.8,5.6 7.9,7.5 z m 8.9,-39.5 c -1.2,-0.4 -2.4,-0.8 -3.6,-1.2 -1.8,-0.5 -3.4,-1.2 -4.8,-2.6 -0.9,-1 -1.7,-2 -2.4,-2.8 -0.1,-0.1 0,-0.2 0.1,-0.2 0.5,0.2 1.1,0.5 1.8,0.8 2.1,1 4.2,1.9 6.2,3 1.2,0.6 2.1,1.6 2.8,2.8 0.1,0.2 0,0.3 -0.1,0.2 z" id="path179" style="fill:url(#SVGID_19_)">
        </path>
        <linearGradient id="SVGID_20_" gradientUnits="userSpaceOnUse" x1="1055.6555" y1="674.96753" x2="1112.3694" y2="674.96753">
          <stop offset="0" style="stop-color:#99693D" id="stop182">
          </stop>
          <stop offset="0.5" style="stop-color:#AA8059" id="stop184">
          </stop>
          <stop offset="1" style="stop-color:#C7AA8D" id="stop186">
          </stop>
        </linearGradient>
        <path d="m 1109.3,665.8 c 4.7,-0.7 3,-1.2 1.1,-4.3 -1.9,-3.1 -16.2,-29.4 -41.2,-19.8 0,0 29.8,6.4 24.2,19.8 -4.9,11.7 -27.6,-0.3 -30,-7.9 0,0 -9.3,16 -7.5,28.9 0,0 3,-15.5 11.9,-15.8 9,-0.3 17.2,10 29.3,-1.3 0,0 -13.9,26.3 -6.3,40.6 l 6.5,2.9 c 0,0 8.6,-0.7 11,1 2.5,1.8 0,-4 -7.2,-7.2 -7.2,-3.2 -7.2,-8.6 -5.6,-11.1 1.6,-2.5 2.5,-7.5 -0.6,-13.6 -1,-1.9 1.1,-0.3 4.5,-0.3 3.4,0 2.9,-3.1 1.7,-6.9 -1.3,-3.8 -0.2,-8.1 0.8,-9.2 0.1,0 2.8,5 7.4,4.2 z" id="path188" style="fill:url(#SVGID_20_)">
        </path>
        <linearGradient id="SVGID_21_" gradientUnits="userSpaceOnUse" x1="1112.1184" y1="649.97827" x2="1131.4211" y2="649.97827">
          <stop offset="0" style="stop-color:#99693D" id="stop191">
          </stop>
          <stop offset="0.5" style="stop-color:#AA8059" id="stop193">
          </stop>
          <stop offset="1" style="stop-color:#C7AA8D" id="stop195">
          </stop>
        </linearGradient>
        <path d="m 1119.5,653 c 0,0 0,0.1 0,0 3,2.2 6.9,4.6 11.8,6.6 0.1,0 0.2,-0.1 0.1,-0.2 -1.2,-1.9 -8,-13.5 -6.2,-18.9 0,-0.1 0,-0.1 -0.1,-0.1 -1.1,-0.2 -9.8,-1.3 -13,5.8 0,0 0,0.1 0,0.1 l 3.5,3.6 c 0.1,0.1 0.2,0 0.2,-0.1 0.1,-0.6 0.5,-2.4 2,-3.7 0.6,-0.5 0.9,-0.6 1.2,-0.7 0.1,0 0.2,0.1 0.1,0.2 -1.5,3.3 0.2,7.1 0.4,7.4 z" id="path197" style="fill:url(#SVGID_21_)">
        </path>
        <linearGradient id="SVGID_22_" gradientUnits="userSpaceOnUse" x1="1022.3821" y1="686.61987" x2="1089.8245" y2="686.61987">
          <stop offset="0" style="stop-color:#99693D" id="stop200">
          </stop>
          <stop offset="0.5" style="stop-color:#AA8059" id="stop202">
          </stop>
          <stop offset="1" style="stop-color:#C7AA8D" id="stop204">
          </stop>
        </linearGradient>
        <path d="m 1079.8,657.2 c -7.1,1.7 -13,-4.3 -14,-5.4 -0.1,-0.1 -0.2,0 -0.2,0.1 0.3,3.6 18.7,18.5 23.7,7.9 5.2,-10.9 -33.1,-21.1 -43,-15.8 -9.9,5.3 -17.8,13.7 -22.6,47.5 -1.4,9.9 -1.6,17.3 -0.9,22.9 0.3,2.5 0.4,5 1.2,7.5 1.7,5.3 6,9 11.3,8.9 2.8,-0.1 5.6,-1.2 7.8,-3 2.8,-2.2 4.9,-5.5 5.5,-9.2 1.1,-6.3 -2.4,-14 -8.9,-14.3 -3.1,-0.2 -5.8,1.4 -7.5,4.2 -1.8,2.9 -2.2,7.2 -0.2,10 1.5,2.1 3.8,3.4 6.2,3.6 0.2,0 0.4,0 0.5,-0.2 0.5,-0.4 -3.1,-1.9 -3,-4 0,0 0,0 0,0 1.2,-6 11,-0.4 5.1,5.9 -4.9,5.3 -13.6,-3.1 -11.5,-13.4 1.5,-7 8,-8.2 8.8,-8.4 0,0 0.1,0 0.1,-0.1 2.4,-33.3 13.4,-47.1 23,-51.7 9.8,-4.8 26.4,5.1 18.6,7 z" id="path206" style="fill:url(#SVGID_22_)">
        </path>
        <linearGradient id="SVGID_23_" gradientUnits="userSpaceOnUse" x1="1046.7327" y1="638.16382" x2="1071.2727" y2="638.16382">
          <stop offset="0" style="stop-color:#99693D" id="stop209">
          </stop>
          <stop offset="0.5" style="stop-color:#AA8059" id="stop211">
          </stop>
          <stop offset="1" style="stop-color:#C7AA8D" id="stop213">
          </stop>
        </linearGradient>
        <path d="m 1066.3,634.4 c 0.1,-0.1 0,-0.2 -0.1,-0.2 -2.2,0.2 -13.4,1.4 -19.4,7 -0.1,0.1 0,0.2 0.1,0.2 1.7,-0.4 8.8,-1.8 18.8,0.8 0,0 0,0 0.1,0 l 5.4,-2.9 c 0.1,0 0.1,-0.2 0,-0.2 l -9.1,-0.2 c -0.1,0 -0.1,-0.1 -0.1,-0.1 0.7,-1.9 3.3,-3.8 4.3,-4.4 z" id="path215" style="fill:url(#SVGID_23_)">
        </path>
        <linearGradient id="SVGID_24_" gradientUnits="userSpaceOnUse" x1="1058.3752" y1="674.93042" x2="1087.4641" y2="674.93042">
          <stop offset="0" style="stop-color:#99693D" id="stop218">
          </stop>
          <stop offset="0.5" style="stop-color:#AA8059" id="stop220">
          </stop>
          <stop offset="1" style="stop-color:#C7AA8D" id="stop222">
          </stop>
        </linearGradient>
        <path d="m 1073.3,669.6 c -8.3,-3.7 -14,6.6 -14.9,11.4 0,0 5.5,-9.4 13.2,-5.5 7.7,3.9 14.6,-2.1 15.9,-2.8 0,0 -6,0.6 -14.2,-3.1 z" id="path224" style="fill:url(#SVGID_24_)">
        </path>
        <linearGradient id="SVGID_25_" gradientUnits="userSpaceOnUse" x1="1027.5139" y1="796.41669" x2="1046.5637" y2="796.41669">
          <stop offset="0" style="stop-color:#99693D" id="stop227">
          </stop>
          <stop offset="0.5" style="stop-color:#AA8059" id="stop229">
          </stop>
          <stop offset="1" style="stop-color:#C7AA8D" id="stop231">
          </stop>
        </linearGradient>
        <path d="m 1043.7,771.5 c 0,-0.1 -0.1,-0.1 -0.1,0 -0.9,0.6 -7.8,4.8 -15.9,5.6 -0.1,0 -0.1,0.1 -0.1,0.1 l 7.1,42.2 c 0,0.1 0,0.1 0.1,0.1 0.5,0 2.9,0 5.1,2 0.1,0.1 0.2,0 0.2,-0.1 l 0.8,-18.9 c 0,-0.7 0.9,-0.8 1.1,-0.2 l 4.3,15 c 0,0.1 0.2,0.1 0.2,0 -0.4,-3 -1.3,-9.9 -0.6,-14 0.8,-5.5 1.6,-23.6 -2.2,-31.8 z" id="path233" style="fill:url(#SVGID_25_)">
        </path>
        <linearGradient id="SVGID_26_" gradientUnits="userSpaceOnUse" x1="1057.2288" y1="798.34741" x2="1092.2043" y2="798.34741">
          <stop offset="0" style="stop-color:#99693D" id="stop236">
          </stop>
          <stop offset="0.5" style="stop-color:#AA8059" id="stop238">
          </stop>
          <stop offset="1" style="stop-color:#C7AA8D" id="stop240">
          </stop>
        </linearGradient>
        <path d="m 1076,816.2 c -0.5,0.1 -1.1,-0.1 -1.4,-0.4 -4.7,-5.6 -7.9,-12.1 -8.1,-19.8 -0.1,-5.1 0.4,-10 1.2,-15 l 0,-0.1 4.5,-19.7 c 0,-0.1 -0.1,-0.2 -0.2,-0.1 l -6.7,4.9 c 0,0 0,0 0,0.1 -2.5,12.8 -7.7,22.6 -8.1,23.3 0,0 0,0.1 0,0.1 l 4.2,15.4 c 0.1,0.5 0.2,1 0.4,1.4 1.8,5.5 3.5,11 5.2,16.6 0,0.1 0.1,0.1 0.1,0.1 0.8,-0.2 1.3,-0.3 1.7,-0.4 3,-0.6 5.3,0.5 6.4,3.5 0.9,2.4 1.3,5 1.9,7.6 0.1,0.6 0.1,1.3 0.2,2 0,0.1 0.1,0.1 0.2,0.1 2.9,-2.8 3.4,-7.6 1.4,-13.7 0,-0.1 0,-0.1 0.1,-0.1 2.8,-0.1 5.5,0 7.8,1.7 1,0.7 1.9,2 2.3,3.3 0.7,2.1 1.1,4.4 1.7,6.9 0,0.1 0.1,0.1 0.2,0 1.2,-2.7 1.4,-5.4 0.6,-8.1 -1.9,-7.1 -9.2,-11.4 -15.6,-9.6 z" id="path242" style="fill:url(#SVGID_26_)">
        </path>
        <linearGradient id="SVGID_27_" gradientUnits="userSpaceOnUse" x1="966.25513" y1="805.55048" x2="1004.6057" y2="805.55048">
          <stop offset="0" style="stop-color:#99693D" id="stop245">
          </stop>
          <stop offset="0.5" style="stop-color:#AA8059" id="stop247">
          </stop>
          <stop offset="1" style="stop-color:#C7AA8D" id="stop249">
          </stop>
        </linearGradient>
        <path d="m 1001.2,831.8 c -0.1,0.2 0,0.4 0.2,0.4 2.9,0.4 3.3,-3.7 3.3,-6.1 0,-4 -1.6,-8.1 -4.4,-10.8 -3.5,-3.3 -7.7,-4.7 -12.1,-5.9 -6.7,-1.9 -11.3,-6.6 -15.3,-12.1 -1.8,-2.4 -2.8,-5.1 -3.6,-8 -0.9,-3.5 -1.7,-7 -2.6,-10.5 -0.1,0.1 -0.2,0.2 -0.2,0.3 -0.4,6.2 -0.5,12.4 1.1,18.5 0.6,2.3 1.7,4.3 3.2,6 1.9,2.2 3.8,4.5 5.7,6.7 2,2.3 3.1,5 2.8,8.2 -0.4,5.1 2.2,8.6 5.5,11.9 0.2,0.2 0.5,0 0.4,-0.3 -0.4,-1.8 -0.8,-3.4 -1.1,-5 -0.2,-1 -0.2,-2.1 0.1,-3 1,-3.2 1.2,-6.3 0.1,-9.4 -0.1,-0.2 0.1,-0.4 0.2,-0.4 8.1,0.6 8.4,8.2 8.4,9.6 0,0.1 0.1,0.2 0.2,0.3 0.4,0.2 1.9,0.8 5.9,3.2 4.4,2.5 2.9,5.4 2.2,6.4 z" id="path251" style="fill:url(#SVGID_27_)">
        </path>
        <linearGradient id="SVGID_28_" gradientUnits="userSpaceOnUse" x1="1069.9202" y1="802.51642" x2="1096.3206" y2="802.51642">
          <stop offset="0" style="stop-color:#99693D" id="stop254">
          </stop>
          <stop offset="0.5" style="stop-color:#AA8059" id="stop256">
          </stop>
          <stop offset="1" style="stop-color:#C7AA8D" id="stop258">
          </stop>
        </linearGradient>
        <path d="m 1092.2,816.8 c -1.4,-1.4 -3.4,-1.6 -5.1,-2.2 -1.9,-0.7 -3.6,-1.7 -5.1,-3.2 -2,-1.9 -4.1,-3.9 -5.7,-6.3 -1.6,-2.4 -2,-5.3 -2.5,-8.2 -0.9,-5.6 0.1,-12.7 0.7,-17.5 0,-0.3 -0.4,-0.5 -0.5,-0.2 l -1.2,3.9 c -2.2,6.8 -2.4,10.7 -2.8,16.4 -0.3,5.3 2.6,10.6 5.6,14.5 0,0 0,0 0.1,0 2.1,-0.1 4.3,0.1 6.4,0.5 1.5,0.3 3,0.7 4.3,1.6 1.3,0.9 2.4,2.1 3.5,3.2 0.5,0.5 1.3,0.4 2,0.6 1.8,0.5 3.2,2.4 3.8,4.2 0.2,0.5 0.3,1 0.7,1.5 0,-0.3 0.1,-0.7 0,-1 -0.6,-3 -2,-5.6 -4.2,-7.8 z" id="path260" style="fill:url(#SVGID_28_)">
        </path>
        <linearGradient id="SVGID_29_" gradientUnits="userSpaceOnUse" x1="945.66528" y1="746.54858" x2="967.08618" y2="746.54858">
          <stop offset="0" style="stop-color:#99693D" id="stop263">
          </stop>
          <stop offset="0.5" style="stop-color:#AA8059" id="stop265">
          </stop>
          <stop offset="1" style="stop-color:#C7AA8D" id="stop267">
          </stop>
        </linearGradient>
        <path d="m 966.7,764.6 c 0,0 0,0 0,0 0,0 0,0 0,0 l 0,0 0,0 0,0 c 0.1,0 0,0 0,0 0,0 -0.1,0 -0.1,-0.1 -0.1,0 -0.1,-0.1 -0.2,-0.1 -0.3,-0.2 -0.7,-0.5 -1.2,-1.1 -0.3,-0.3 -0.5,-0.7 -0.8,-1.1 -0.2,-0.2 -0.3,-0.5 -0.5,-0.7 -0.1,-0.1 -0.2,-0.3 -0.2,-0.4 l -0.1,-0.1 0,-0.1 c -0.1,-0.2 0.1,0.2 0.1,0.2 l 0,0 c 0,-0.1 -0.1,-0.2 -0.2,-0.3 -0.2,-0.4 -0.4,-0.8 -0.6,-1.2 -0.1,-0.2 -0.2,-0.4 -0.3,-0.6 -0.1,-0.1 -0.1,-0.2 -0.1,-0.3 l -0.1,-0.2 c -0.3,-0.7 -0.6,-1.3 -1,-2.2 -0.2,-0.4 -0.3,-0.8 -0.5,-1.3 -0.2,-0.4 -0.3,-0.9 -0.5,-1.4 -0.1,-0.2 -0.2,-0.5 -0.2,-0.7 -0.1,-0.2 -0.1,-0.5 -0.2,-0.7 -0.1,-0.5 -0.3,-1 -0.4,-1.5 -0.5,-2.1 -1,-4.3 -1.3,-6.8 -0.3,-2.4 -0.4,-5 -0.4,-7.8 0,-2.7 0.2,-5.6 0.6,-8.6 0.1,-0.7 0.2,-1.4 0.3,-2.2 0.1,-0.8 0.3,-1.6 0.4,-2.5 0.1,-0.7 0.3,-1.5 0.5,-2.2 0.2,-0.8 0.4,-1.6 0.5,-2.4 0.2,-1 0.5,-1.9 0.8,-2.9 0.1,-0.5 -0.3,-0.9 -0.7,-0.8 l -11.2,4.1 c -0.2,0.1 -0.3,0.2 -0.4,0.4 -0.1,0.4 -0.2,0.8 -0.3,1.3 -0.2,0.8 -0.4,1.6 -0.6,2.4 -0.2,0.9 -0.4,1.8 -0.5,2.7 -0.6,3.5 -1.1,6.9 -1.3,10.2 -0.2,3.3 -0.2,6.5 0,9.6 0.2,3.1 0.6,6 1.1,8.7 0.1,0.7 0.3,1.3 0.4,2 0.1,0.3 0.2,0.7 0.2,1 0.1,0.3 0.2,0.6 0.3,1 0.2,0.6 0.4,1.2 0.5,1.9 0.2,0.6 0.4,1.2 0.6,1.8 0.4,1.1 0.9,2.3 1.3,3.4 0.1,0.1 0.1,0.3 0.2,0.4 0.1,0.1 0.1,0.3 0.2,0.4 0.1,0.2 0.2,0.4 0.3,0.6 0.2,0.4 0.4,0.8 0.6,1.2 0,0.1 0.1,0.2 0.1,0.3 0.1,0.2 0.2,0.4 0.3,0.5 0.1,0.2 0.2,0.5 0.4,0.7 0.2,0.4 0.5,0.9 0.7,1.3 0.5,0.9 1,1.7 1.6,2.4 1.1,1.5 2.3,2.8 3.5,3.7 0.3,0.2 0.6,0.5 0.8,0.7 0.3,0.2 0.5,0.4 0.8,0.5 0.1,0.1 0.2,0.2 0.4,0.2 l 0.1,0.1 0.1,0.1 c 0.1,0 0.1,0.1 0.2,0.1 0.3,0.2 0.5,0.3 0.7,0.4 0.1,0 0.1,0.1 0.2,0.1 0.3,0.1 0.7,0 0.8,-0.3 l 4.9,-12.9 c -0.1,-0.4 -0.3,-0.8 -0.6,-0.9 z" id="path269" style="fill:url(#SVGID_29_)">
        </path>
        <linearGradient id="SVGID_30_" gradientUnits="userSpaceOnUse" x1="949.75122" y1="658.65991" x2="991.28149" y2="658.65991">
          <stop offset="0" style="stop-color:#99693D" id="stop272">
          </stop>
          <stop offset="0.5" style="stop-color:#AA8059" id="stop274">
          </stop>
          <stop offset="1" style="stop-color:#C7AA8D" id="stop276">
          </stop>
        </linearGradient>
        <path d="m 956.8,637.7 c 1,0.1 2.6,0.4 3.4,0.9 0.3,0.2 0.7,0 0.8,-0.4 1.9,-8.4 2.6,-16.8 8.5,-23.4 3.1,-3.5 9.8,-5.4 13,-0.9 2.1,3.1 2.4,7.8 2.1,11.4 -1.3,15.5 -8.5,30 -15.3,43.3 -3.6,6.9 -7.2,13.8 -10.5,20.7 -3.3,6.9 -6.2,13.9 -8.3,20.9 -0.2,0.6 -0.5,1.8 -0.7,2.6 -0.1,0.3 0.2,0.6 0.5,0.5 l 11.4,-3.9 c 0.2,-0.1 0.3,-0.2 0.3,-0.4 1.4,-5 3.3,-10.1 5.4,-15.4 2.8,-6.8 6,-13.8 9.2,-21 1.6,-3.6 3.2,-7.3 4.7,-11.1 3.5,-8.6 7,-17.3 8.5,-26.6 1.5,-9 3.4,-23.1 -4.9,-28.9 -1.2,-0.9 -2.7,-1.5 -4.1,-1.8 -5.1,-1.2 -10.9,0.4 -14.9,3.9 -4.5,3.9 -7,10.8 -8.1,16.8 -0.6,3.4 -1.5,9.6 -1.8,11.8 0.1,0.5 0.4,0.9 0.8,1 z" id="path278" style="fill:url(#SVGID_30_)">
        </path>
        <linearGradient id="SVGID_31_" gradientUnits="userSpaceOnUse" x1="942.79321" y1="661.12079" x2="964.18091" y2="661.12079">
          <stop offset="0" style="stop-color:#99693D" id="stop281">
          </stop>
          <stop offset="0.5" style="stop-color:#AA8059" id="stop283">
          </stop>
          <stop offset="1" style="stop-color:#C7AA8D" id="stop285">
          </stop>
        </linearGradient>
        <path d="m 949.3,658.3 c 0.4,-1.9 1.2,-5.9 3.8,-4.5 1.9,1 1.4,4.5 0.3,5.9 -4,4.8 -5.8,16.3 -4.5,21.4 0.1,0.3 0.5,0.3 0.6,-0.1 0.3,-3 1.7,-10.2 8.2,-14.5 8.3,-5.5 6.3,-17.6 6.3,-17.6 0,0 -0.8,-4.4 -4,-6.8 -1.2,-0.9 -2.8,-1.4 -4.8,-1.4 -0.1,0 -0.1,0 -0.2,0 -7.1,0.4 -9.6,5.8 -9.7,14.9 -0.1,5.4 -1.5,8.6 -2.5,10.3 -0.2,0.3 0.2,0.6 0.4,0.4 3,-1.9 5.2,-4.2 6.1,-8 z" id="path287" style="fill:url(#SVGID_31_)">
        </path>
      </g>
    </g>
  </g>
</svg>