<?xml version="1.0" encoding="UTF-8" standalone="no"?>
<svg xmlns:dc="http://purl.org/dc/elements/1.1/" xmlns:cc="http://creativecommons.org/ns#"
     xmlns:rdf="http://www.w3.org/1999/02/22-rdf-syntax-ns#" xmlns:svg="http://www.w3.org/2000/svg"
     xmlns="http://www.w3.org/2000/svg" xmlns:xlink="http://www.w3.org/1999/xlink" version="1.1" viewBox="0 0 1600 1000"
     height="1000" width="1600" id="svg1682">
    <metadata id="metadata10">
        <rdf:RDF>
            <cc:Work rdf:about="">
                <dc:format>image/svg+xml</dc:format>
                <dc:type rdf:resource="http://purl.org/dc/dcmitype/StillImage"/>
                <dc:title></dc:title>
            </cc:Work>
        </rdf:RDF>
    </metadata>
    <defs id="defs8">
        <clipPath clipPathUnits="userSpaceOnUse" id="clipPath4149">
            <path style="opacity:0.97000002;fill:none;fill-opacity:1;stroke:#000000;stroke-width:0.98704457;stroke-linecap:butt;stroke-linejoin:miter;stroke-miterlimit:4;stroke-dasharray:none;stroke-dashoffset:0;stroke-opacity:1"
                  id="path4151"
                  d="M 1277.904,481.9375 A 481.02902,310.06915 0 0 1 798.0396,792.00574 481.02902,310.06915 0 0 1 315.85162,483.43888 481.02902,310.06915 0 0 1 793.38124,171.87653 481.02902,310.06915 0 0 1 1277.8815,478.93477"/>
        </clipPath>
        <clipPath id="clipPath4154" clipPathUnits="userSpaceOnUse">
            <path d="M 1278.125,482.8125 A 479.6875,309.1875 0 0 1 800.36448,791.99751 479.6875,309.1875 0 0 1 318.76548,485.29659 479.6875,309.1875 0 0 1 792.65667,173.64745 479.6875,309.1875 0 0 1 1278.0631,477.84447"
                  id="path4156"
                  style="opacity:0.97000002;fill:none;fill-opacity:1;stroke:#000000;stroke-width:1;stroke-linecap:butt;stroke-linejoin:miter;stroke-miterlimit:4;stroke-dasharray:none;stroke-dashoffset:0;stroke-opacity:1"/>
        </clipPath>
    </defs>
    <image xlink:href="/designs/templates/002000601-2.jpg" y="0" x="0" id="jd_bg" height="1000" width="1600"/>
    <g clip-path="url(#clipPath4154)" id="jd_nt">
        <svg id="svg9" preserveAspectRatio="xMidYMid meet" height="618.375" width="959.375" y="173.625" x="318.75"
             viewBox="0 0 959.375 618.375" version="1.1">
            <image xlink:href="/designs/templates/sample5.jpg" id="image21" height="618.375" width="959.375"
                   clip-path=""/>
        </svg>
    </g>
    <path id="jd_bd" d="m 285.41666,170.83333 1043.75004,0 0,629.16669 -1043.75004,0 z"
          style="opacity:0.97000002;fill:none;fill-opacity:1;stroke:none;stroke-width:1;stroke-linecap:butt;stroke-linejoin:miter;stroke-miterlimit:4;stroke-dasharray:none;stroke-dashoffset:0;stroke-opacity:1"/>
</svg>
 

