<?xml version="1.0" encoding="utf-8"?>
<?xml-stylesheet type="text/css" href="https://fonts.googleapis.com/css?family=Bookman+Old+Style"?>
<svg xmlns:dc="http://purl.org/dc/elements/1.1/" xmlns:cc="http://creativecommons.org/ns#" xmlns:rdf="http://www.w3.org/1999/02/22-rdf-syntax-ns#" xmlns:svg="http://www.w3.org/2000/svg" xmlns="http://www.w3.org/2000/svg" xmlns:xlink="http://www.w3.org/1999/xlink" version="1.1" viewBox="0 0 1600 1000" height="1000" width="1600" id="svg1683">
  <metadata id="metadata10">
    <rdf:RDF>
      <cc:Work rdf:about="">
        <dc:format>
          image/svg+xml
        </dc:format>
        <dc:type rdf:resource="http://purl.org/dc/dcmitype/StillImage">
        </dc:type>
        <dc:title>
        </dc:title>
      </cc:Work>
    </rdf:RDF>
  </metadata>
  <defs id="defs8">
    <clipPath clipPathUnits="userSpaceOnUse" id="clipPath4141">
      <path style="opacity:1;fill:none;fill-opacity:1;fill-rule:nonzero;stroke:#ffc300;stroke-width:2.20000005;stroke-linecap:butt;stroke-linejoin:miter;stroke-miterlimit:4;stroke-dasharray:none;stroke-dashoffset:0;stroke-opacity:1" d="m 411.11111,286.11111 797.22219,0 0,486.11118 -797.22219,0 z" id="jd_bd">
      </path>
    </clipPath>
  </defs>
  <image xlink:href="/designs/templates/002000301-1.jpg" width="1600" height="1000" id="jd_bg" x="0" y="0">
  </image>
  <g id="jd_nt" clip-path="url(#clipPath4141)">
    <path style="fill:#ac9d93" id="path3" d="m 848.40955,456.95765 c 19.83359,-23.76719 47.43174,-37.24588 76.01012,-39.82764 28.58296,-2.57905 58.14393,5.73744 81.91823,25.57351 3.7262,3.10915 7.1996,6.41092 10.4186,9.87817 45.0495,-194.04516 -406.15752,-0.87649 -596.94974,109.1936 238.59617,-149.05712 714.44134,-333.12283 612.08374,-88.59157 8.048,14.1015 12.8375,29.66802 14.2701,45.53313 0.8238,9.08243 0.5373,18.26689 -0.8641,27.33166 C 1308.5662,166.304 743.32775,374.40197 528.1917,488.80955 c 267.59118,-155.62096 855.0275,-341.83982 499.9189,101.71516 -2.2909,3.47024 -4.7983,6.84015 -7.5204,10.1042 -1.9965,2.39202 -4.0729,4.68111 -6.2229,6.86604 l -0.04,0.0497 -0,-0.007 c -19.17456,19.47904 -44.05766,30.6024 -69.74286,32.92051 -28.58096,2.57775 -58.14745,-5.74083 -81.91437,-25.57178 -23.7681,-19.83724 -37.24951,-47.43081 -39.82755,-76.01441 -1.70255,-18.84329 1.33385,-38.1196 9.29272,-55.87918 -16.67437,-81.20027 -248.15546,6.20887 -353.14399,62.50669 118.22954,-69.59015 327.64736,-143.2896 364.37123,-82.01444 1.59321,-2.22051 3.27608,-4.39798 5.05181,-6.52743 l 0,0 z m 142.79964,71.20722 c -16.66312,0.87587 -15.82638,0.149 -23.39407,15.00103 -8.10576,15.91359 -8.16087,14.73516 1.56575,29.71229 9.73122,14.97988 8.68179,14.44535 26.52013,13.50934 4.9285,-0.26025 9.854,-0.51859 14.7831,-0.77784 7.738,-10.36054 13.0618,-21.84578 16.0291,-33.7508 -2.4697,-3.80052 -4.9391,-7.60264 -7.408,-11.40219 -10.0978,-15.54674 -9.7777,-13.25054 -28.09595,-12.29181 l 0,0 z m -3.45904,-65.82467 c -17.84637,0.94113 -16.85863,0.29579 -24.96622,16.2176 -8.10511,15.91457 -8.16626,14.74001 1.55982,29.71185 10.32767,15.89995 9.44598,13.2689 28.10083,12.29291 16.65912,-0.8776 15.82282,-0.14809 23.38482,-15.00215 2.1983,-4.3026 4.3903,-8.60829 6.5834,-12.91462 -4.6581,-11.35253 -11.5753,-21.94233 -20.6883,-31.03568 -4.66102,0.24332 -9.31536,0.48808 -13.97434,0.73011 l 0,0 z m -83.62962,86.16315 c -9.38998,-14.45475 -8.52289,-13.67938 -25.75855,-12.77529 -17.84365,0.93657 -16.85736,0.29779 -24.96823,16.21888 -2.2397,4.39689 -4.47914,8.79646 -6.72086,13.19465 4.64645,11.25258 11.51008,21.74524 20.53952,30.77188 4.75511,-0.24412 9.50966,-0.49355 14.26357,-0.74399 17.84701,-0.94013 16.85928,-0.29477 24.96821,-16.21887 8.29281,-16.27753 7.6519,-15.08947 -2.32366,-30.44726 l 0,0 z m -30.64401,-79.58731 c -4.44778,0.23424 -8.89163,0.47019 -13.33606,0.70085 -8.26847,10.38165 -14.01802,21.98776 -17.3171,34.07232 2.41446,3.71854 4.83204,7.43509 7.24675,11.1563 9.73249,14.98187 8.67978,14.44662 26.51875,13.51163 17.84767,-0.93913 16.86064,-0.29707 24.96822,-16.21888 8.10577,-15.91359 8.1629,-14.73645 -1.55981,-29.71186 -9.73459,-14.97629 -8.68306,-14.44735 -26.52077,-13.51034 l 0,0 z m 36.3224,-31.89551 c -1.88332,3.69443 -3.76288,7.38364 -5.63954,11.07522 -8.43955,16.5564 -8.40466,14.36253 1.56182,29.71056 9.7273,14.97814 8.68178,14.44535 26.51748,13.50963 17.84901,-0.94143 16.85726,-0.2935 24.96821,-16.21888 8.10513,-15.91457 8.1682,-14.73699 -1.56375,-29.71358 -2.28339,-3.51549 -4.5709,-7.0354 -6.85419,-10.5552 -7.57273,-1.14267 -15.24554,-1.36521 -22.83351,-0.68121 -5.45013,0.49191 -10.85919,1.45489 -16.15655,2.87348 l 0,0 z m 27.89534,128.16346 c -17.84428,0.93556 -16.85662,0.29449 -24.96886,16.21787 -8.10174,15.91102 -8.16025,14.73617 1.56512,29.71128 2.5761,3.96705 5.1545,7.93545 7.72938,11.90046 6.98557,0.92027 14.04077,1.05852 21.02601,0.42627 5.59903,-0.50653 11.15477,-1.50532 16.59516,-2.99412 2.05061,-4.01186 4.09245,-8.03082 6.13585,-12.04515 8.10641,-15.91259 8.16683,-14.73471 -1.56245,-29.71157 -9.72802,-14.97484 -8.68114,-14.44434 -26.52021,-13.50504 l 0,0 z">
    </path>
    <text id="text3342" y="743.04865" x="805.42926" style="font-style:normal;font-variant:normal;font-weight:300;font-stretch:normal;font-size:70px;line-height:125%;font-family:'Bookman Old Style';-inkscape-font-specification:'Bookman Old Style, Light';text-align:start;letter-spacing:0px;word-spacing:0px;writing-mode:lr-tb;text-anchor:start;fill:#5f8dd3;fill-opacity:1;stroke:none;stroke-width:1px;stroke-linecap:butt;stroke-linejoin:miter;stroke-opacity:1">
      <tspan style="font-style:normal;font-variant:normal;font-weight:300;font-stretch:normal;font-size:70px;line-height:125%;font-family:'Bookman Old Style';-inkscape-font-specification:'Bookman Old Style, Light';text-align:center;writing-mode:lr-tb;text-anchor:middle;fill:#5f8dd3;;" y="743.04865" x="805.42926" id="text11">
        JUST TO IT!
      </tspan>
    </text>
  </g>
</svg>