<?xml version="1.0" encoding="utf-8"?>
<?xml-stylesheet type="text/css" href="https://fonts.googleapis.com/css?family=Anton"?>
<svg xmlns:dc="http://purl.org/dc/elements/1.1/" xmlns:cc="http://creativecommons.org/ns#" xmlns:rdf="http://www.w3.org/1999/02/22-rdf-syntax-ns#" xmlns:svg="http://www.w3.org/2000/svg" xmlns="http://www.w3.org/2000/svg" xmlns:xlink="http://www.w3.org/1999/xlink" version="1.1" viewBox="0 0 1600 1000" height="1000" width="1600" id="svg1682">
  <metadata id="metadata10">
    <rdf:RDF>
      <cc:Work rdf:about="">
        <dc:format>
          image/svg+xml
        </dc:format>
        <dc:type rdf:resource="http://purl.org/dc/dcmitype/StillImage">
        </dc:type>
        <dc:title>
        </dc:title>
      </cc:Work>
    </rdf:RDF>
  </metadata>
  <defs id="defs8">
    <filter style="color-interpolation-filters:sRGB" id="filter5060">
      <feGaussianBlur result="result0" in="SourceGraphic" stdDeviation="0.5" id="feGaussianBlur5062">
      </feGaussianBlur>
      <feTurbulence baseFrequency="0.2" seed="300" numOctaves="10" result="result1" type="fractalNoise" id="feTurbulence5064">
      </feTurbulence>
      <feGaussianBlur stdDeviation="0.5" result="result91" id="feGaussianBlur5066">
      </feGaussianBlur>
      <feDisplacementMap xChannelSelector="R" scale="5" result="result6" in="result0" in2="result91" id="feDisplacementMap5068" yChannelSelector="A">
      </feDisplacementMap>
      <feComposite result="result2" operator="in" in2="result1" in="result6" id="feComposite5070">
      </feComposite>
      <feComposite k3="3" in2="result2" in="result0" operator="arithmetic" id="feComposite5072" k1="0" k2="0" k4="0">
      </feComposite>
      <feBlend result="fbSourceGraphic" mode="multiply" in2="result2" id="feBlend5074">
      </feBlend>
      <feColorMatrix values="1 0 0 -1 0 1 0 1 -1 0 1 0 0 -1 0 -1.8 -0.5 0 5.7 -3.5 " in="fbSourceGraphic" result="fbSourceGraphicAlpha" id="feColorMatrix5076">
      </feColorMatrix>
      <feGaussianBlur stdDeviation="0.5" in="fbSourceGraphicAlpha" result="result0" id="feGaussianBlur5078">
      </feGaussianBlur>
      <feDiffuseLighting result="result5" surfaceScale="50" diffuseConstant="0.60000002" id="feDiffuseLighting5080">
        <feDistantLight azimuth="225" elevation="10" id="feDistantLight5082">
        </feDistantLight>
      </feDiffuseLighting>
      <feComposite in2="fbSourceGraphicAlpha" in="result5" result="result2" operator="in" id="feComposite5084">
      </feComposite>
      <feComposite in="fbSourceGraphic" result="result4" operator="arithmetic" k2="1" k3="0.7" in2="result2" id="feComposite5086" k1="0" k4="0">
      </feComposite>
    </filter>
    <filter style="color-interpolation-filters:sRGB" id="filter4986">
      <feGaussianBlur result="result0" in="SourceGraphic" stdDeviation="0.5" id="feGaussianBlur4988">
      </feGaussianBlur>
      <feTurbulence baseFrequency="0.2" seed="300" numOctaves="10" result="result1" type="fractalNoise" id="feTurbulence4990">
      </feTurbulence>
      <feGaussianBlur stdDeviation="0.5" result="result91" id="feGaussianBlur4992">
      </feGaussianBlur>
      <feDisplacementMap xChannelSelector="R" scale="5" result="result6" in="result0" in2="result91" id="feDisplacementMap4994" yChannelSelector="A">
      </feDisplacementMap>
      <feComposite result="result2" operator="in" in2="result1" in="result6" id="feComposite4996">
      </feComposite>
      <feComposite k3="3" in2="result2" in="result0" operator="arithmetic" id="feComposite4998" k1="0" k2="0" k4="0">
      </feComposite>
      <feBlend result="fbSourceGraphic" mode="multiply" in2="result2" id="feBlend5000">
      </feBlend>
      <feColorMatrix values="1 0 0 -1 0 1 0 1 -1 0 1 0 0 -1 0 -1.8 -0.5 0 5.7 -3.5 " in="fbSourceGraphic" result="fbSourceGraphicAlpha" id="feColorMatrix5002">
      </feColorMatrix>
      <feGaussianBlur stdDeviation="0.5" in="fbSourceGraphicAlpha" result="result0" id="feGaussianBlur5004">
      </feGaussianBlur>
      <feDiffuseLighting result="result5" surfaceScale="50" diffuseConstant="0.60000002" id="feDiffuseLighting5006">
        <feDistantLight azimuth="225" elevation="10" id="feDistantLight5008">
        </feDistantLight>
      </feDiffuseLighting>
      <feComposite in2="fbSourceGraphicAlpha" in="result5" result="result2" operator="in" id="feComposite5010">
      </feComposite>
      <feComposite in="fbSourceGraphic" result="result4" operator="arithmetic" k2="1" k3="0.7" in2="result2" id="feComposite5012" k1="0" k4="0">
      </feComposite>
    </filter>
    <clipPath id="clipPath4184" clipPathUnits="userSpaceOnUse">
      <path id="jd_bd" d="m 504.7619,571.42859 702.3809,0 0,219.04762 -702.3809,0 z" style="opacity:1;fill:none;fill-opacity:1;fill-rule:nonzero;stroke:#ffc300;stroke-width:2.20000005;stroke-linecap:butt;stroke-linejoin:miter;stroke-miterlimit:4;stroke-dasharray:none;stroke-dashoffset:0;stroke-opacity:1">
      </path>
    </clipPath>
  </defs>
  <image xlink:href="/designs/templates/002000101-2.jpg" y="0" x="0" id="jd_bg" height="1000" width="1600">
  </image>
  <g clip-path="url(#clipPath4184)" id="jd_nt">
    <g transform="matrix(0.55254866,0,0,0.45403552,875.43129,544.04606)" id="g3" style="fill:#ff7f2a;stroke:#f38a13;stroke-width:3.99300456;stroke-miterlimit:4;stroke-dasharray:none;stroke-opacity:1">
      <path d="m 416.16,367.303 c -1.323,-6.237 -6.164,-11.197 -11.35,-14.684 -7.932,-5.332 -17.586,-8.005 -26.941,-9.406 -11.795,-1.766 -23.806,-1.474 -35.56,0.463 -10.226,1.685 -20.503,4.832 -29.355,10.324 -5.967,3.701 -11.976,9.034 -13.388,16.245 -0.024,0.123 -0.043,0.245 -0.063,0.367 -0.114,0.044 -0.195,0.129 -0.229,0.267 -1.062,4.38 -0.324,9.442 1.149,13.614 4.007,11.352 14.734,18.601 25.661,22.391 9.479,3.288 19.687,4.242 29.656,4.515 10.214,0.279 20.548,-0.481 30.472,-3.003 13.515,-3.435 27.725,-11.306 30.844,-26.011 1.004,-4.735 0.56,-9.675 -0.578,-14.342 -0.06,-0.25 -0.173,-0.499 -0.318,-0.74 z m -38.574,-5.118 c 3.178,1.153 6.338,2.716 6.652,6.418 0.115,3.721 -2.58,6.53 -5.406,8.576 -4.228,3.061 -9.465,4.636 -14.526,5.624 -5.889,1.15 -12.01,1.267 -17.951,0.483 -4.334,-0.572 -9.848,-1.742 -13.218,-4.759 -2.463,-2.205 -1.687,-6.021 -0.086,-8.435 2.34,-3.53 6.573,-5.665 10.383,-7.182 10.434,-4.155 23.582,-4.562 34.152,-0.725 z m -21.631,-8.02 c -2.199,0.293 -7.148,-0.034 -7.354,-3.03 -0.189,-2.747 4,-3.942 5.996,-4.208 2.199,-0.294 7.148,0.034 7.354,3.03 -0.193,2.796 -3.704,3.902 -5.996,4.208 z m -9.063,-6.665 c -0.472,0.681 -0.777,1.492 -0.844,2.456 -0.236,3.44 3.774,5.659 6.947,6.41 -3.798,0.397 -7.546,1.198 -11.105,2.407 1.166,-0.805 1.978,-1.943 2.084,-3.482 -0.196,-2.846 -2.899,-4.989 -5.565,-6.159 2.806,-0.664 5.642,-1.203 8.483,-1.632 z m -5.476,5.673 c -0.181,2.638 -2.925,3.945 -5.18,4.502 -2.249,0.555 -7.948,0.752 -8.163,-2.383 -0.369,-5.371 13.023,-6.783 13.343,-2.119 z m -23.618,7.088 c 2.307,-0.511 8.612,-0.66 8.822,2.718 -0.187,3.012 -3.356,4.381 -5.92,4.95 -2.307,0.511 -8.612,0.66 -8.822,-2.718 -0.184,-2.958 3.657,-4.448 5.92,-4.95 z m -13.417,10.785 c 0.908,-2.767 2.547,-5.198 4.586,-7.332 0.387,3.994 5.924,6.514 9.221,7.076 3.86,0.657 10.914,-0.523 11.345,-5.447 0.011,-0.037 0.017,-0.078 0.014,-0.131 -0.28,-4.497 -5.311,-7.143 -9.236,-7.811 -0.827,-0.141 -1.802,-0.196 -2.827,-0.15 1.178,-0.686 2.357,-1.318 3.503,-1.897 1.481,-0.749 2.993,-1.435 4.526,-2.076 -0.134,3.488 5.02,6.131 7.741,6.802 1.392,0.344 3.284,0.401 5.092,0.066 -0.248,0.108 -0.5,0.207 -0.744,0.319 -6.38,2.914 -12.911,9.21 -7.853,16.269 5.499,7.675 15.814,10.061 24.697,10.516 8.042,0.412 16.413,-0.892 23.761,-4.248 4.497,-2.054 9.948,-5.842 9.776,-11.395 -0.002,-0.063 -0.011,-0.126 -0.024,-0.189 -0.38,-3.528 -2.931,-6.276 -5.54,-8.469 -3.427,-2.879 -7.792,-4.521 -12.094,-5.54 -3.371,-0.798 -6.894,-1.237 -10.449,-1.324 2.316,-0.712 4.282,-2.142 4.595,-4.646 0.025,-0.084 0.041,-0.18 0.033,-0.304 0.005,-0.077 -0.005,-0.157 -0.024,-0.238 -0.227,-2.033 -1.528,-3.6 -3.226,-4.682 4.419,-0.123 8.852,0.015 13.252,0.445 -3.157,0.395 -6.38,1.891 -6.601,5.105 -0.264,3.846 5.144,6.403 8.148,6.97 3.591,0.678 10.214,-0.372 10.534,-5.028 0.004,-0.055 -0.003,-0.114 -0.018,-0.174 -0.291,-2.871 -2.824,-4.901 -5.495,-6.005 2.305,0.387 4.595,0.856 6.861,1.42 9.085,2.261 23.426,7.275 24.225,18.485 0.137,3.083 -0.81,5.884 -2.362,8.387 -1.026,-2.983 -4.835,-5.187 -7.562,-5.938 -3.89,-1.072 -11.875,-0.187 -12.202,5.08 -0.222,3.566 5.001,6.499 7.821,7.275 1.567,0.432 3.798,0.545 5.926,0.183 -0.767,0.629 -1.548,1.224 -2.327,1.781 -1.48,1.059 -3.027,2.026 -4.621,2.918 l -13.287,-4.983 4.421,9.026 c -2.498,0.923 -5.049,1.713 -7.613,2.398 0.073,-0.257 0.123,-0.527 0.145,-0.814 0.004,-0.057 -0.007,-0.118 -0.026,-0.181 -0.38,-3.303 -4.022,-5.297 -6.952,-5.919 -3.245,-0.689 -9.253,0.239 -9.576,4.442 -0.172,2.233 1.869,3.969 4.01,5.035 -2.481,0.367 -4.978,0.646 -7.484,0.84 0.578,-0.651 0.959,-1.454 1.034,-2.433 0.005,-0.063 -0.008,-0.131 -0.028,-0.201 -0.399,-3.407 -4.108,-5.446 -7.141,-6.09 -3.312,-0.704 -9.421,0.258 -9.749,4.532 -0.141,1.833 1.142,3.336 2.777,4.427 -3.515,-0.143 -7.018,-0.447 -10.487,-0.917 -0.132,-0.018 -0.266,-0.039 -0.398,-0.058 3.224,-0.535 6.369,-2.156 6.574,-5.455 -0.269,-4.323 -5.344,-6.98 -9.086,-7.617 -3.854,-0.656 -10.951,0.481 -11.262,5.495 -0.146,2.352 1.642,4.263 3.83,5.596 -5.824,-1.566 -11.463,-3.906 -16.255,-7.42 -5.146,-3.77 -7.96,-9.496 -5.899,-15.776 z m 79.726,-19.282 c -0.185,2.692 -2.929,3.968 -5.231,4.535 -2.309,0.57 -8.27,0.683 -8.495,-2.594 -0.38,-5.525 13.39,-6.821 13.726,-1.941 z m 18.045,28.275 c -2.581,0.711 -9.09,0.953 -9.744,-2.536 -0.61,-3.253 3.744,-5.03 6.144,-5.562 1.934,-0.429 3.956,-0.285 5.873,0.14 1.814,0.402 3.125,0.954 3.271,2.904 -0.195,2.907 -3.038,4.363 -5.544,5.054 z m -36.085,12.707 c -0.38,-4.95 11.967,-6.073 12.306,-1.658 -0.173,2.248 -2.289,3.364 -4.237,3.934 -0.366,0.076 -0.732,0.153 -1.096,0.226 -0.103,0.02 -0.206,0.038 -0.309,0.058 -2.511,0.313 -6.468,0.002 -6.664,-2.56 z m -11.286,4.044 c -2.031,0.566 -7.686,0.754 -7.917,-2.26 -0.38,-4.954 12.024,-6.137 12.36,-1.759 -0.179,2.336 -2.431,3.458 -4.443,4.019 z m -29.401,-6.021 c -0.185,-2.972 3.715,-4.512 5.98,-5.014 2.51,-0.557 8.789,-0.643 9.009,2.891 -0.189,3.029 -3.406,4.443 -5.98,5.014 -2.51,0.557 -8.789,0.644 -9.009,-2.891 z m 70.891,8.465 c -7.761,4.237 -16.667,6.256 -25.374,7.344 -10.984,1.373 -22.33,1.198 -33.286,-0.321 -7.964,-1.104 -16.116,-3.123 -23.049,-7.332 -4.154,-2.522 -6.917,-5.331 -9.06,-9.635 -0.77,-1.546 -1.367,-3.225 -1.782,-4.962 1.038,1.301 2.202,2.503 3.429,3.584 6.813,6.001 15.817,9.234 24.547,11.196 11.411,2.564 23.324,2.862 34.924,1.635 12.547,-1.327 25.422,-4.574 36.231,-11.279 3.381,-2.098 6.77,-4.757 9.325,-7.948 -0.391,1.287 -0.882,2.552 -1.49,3.785 -3.031,6.15 -8.493,10.7 -14.415,13.933 z" id="path5" style="fill:#ff7f2a;stroke:#f38a13;stroke-width:3.99300456;stroke-miterlimit:4;stroke-dasharray:none;stroke-opacity:1">
      </path>
      <path d="m 552.512,202.647 c 0.203,-4.77 -1.3,-9.562 -4.128,-13.381 -2.214,-2.992 -5.655,-5.846 -9.38,-7.122 -1.155,-2.391 -2.885,-4.577 -4.953,-6.367 1.733,0.119 3.465,0.239 5.198,0.358 5.391,0.372 6.618,-6.391 5.086,-10.416 -1.188,-3.123 -4.66,-5.983 -7.404,-7.693 -1.11,-0.692 -2.152,-0.571 -3.439,-0.63 -3.996,-0.184 -7.991,-0.368 -11.987,-0.552 -2.397,-2.036 -5.336,-3.432 -8.411,-3.842 -4.091,-0.545 -7.884,1.045 -10.49,3.798 -0.154,-0.038 -0.311,-0.065 -0.47,-0.073 -7.693,-0.351 -15.386,-0.702 -23.079,-1.053 -1.783,-4.881 -5.249,-9.06 -10.147,-11.418 -5.496,-2.646 -11.57,-1.96 -16.538,1.14 -0.73,-1.184 -1.561,-2.303 -2.439,-3.334 -3.374,-3.962 -7.586,-5.833 -12.632,-6.618 -2.058,-0.32 -4.156,-0.306 -6.232,-0.383 -11.206,-0.412 -22.413,-0.825 -33.619,-1.237 -12.589,-0.463 -25.178,-0.927 -37.767,-1.39 -6.941,-0.256 -15.456,-1.865 -21.078,3.143 -0.577,0.514 -1.069,1.11 -1.519,1.737 -4.278,-2.678 -9.704,-4.248 -14.115,-1.425 -3.196,2.046 -5.036,5.461 -6.028,9.173 -0.207,-0.1 -0.411,-0.168 -0.605,-0.184 -7.268,-0.625 -14.535,-1.25 -21.803,-1.874 -2.715,-3.906 -7.265,-6.655 -11.889,-7.2 -4.887,-0.576 -9.155,1.815 -11.676,5.52 -0.589,-0.385 -1.227,-0.654 -1.872,-0.708 -3.986,-0.339 -7.972,-0.677 -11.958,-1.016 -1.465,-0.124 -2.966,0.723 -4.045,1.616 -2.735,2.263 -2.782,6.888 -1.725,9.958 1.018,2.96 3.34,5.585 6.122,7.022 1.368,0.707 2.82,0.67 4.323,0.788 0.613,0.048 1.226,0.096 1.839,0.144 -2.518,1.523 -4.581,3.69 -5.564,6.496 -0.119,0.268 -0.356,1.114 -1.039,1.436 -0.91,0.43 -1.782,0.935 -2.631,1.473 -2.713,1.716 -5.074,3.958 -6.906,6.593 -1.092,1.572 -1.895,3.32 -2.486,5.136 -0.293,0.9 -0.497,1.824 -0.665,2.755 -0.085,0.471 -0.025,3.045 -0.263,3.229 -1.679,1.293 -2.943,3.115 -3.459,5.171 -1.002,3.998 3.097,7.805 5.966,9.834 4.131,2.921 8.987,4.706 13.857,5.973 0.413,2.336 1.603,4.593 3.003,6.417 1.945,2.536 4.332,4.423 6.996,5.78 -2.62,4.55 -3.707,10.268 -3.395,15.361 0.926,15.115 13.874,26.501 26.21,33.793 0.192,3.404 0.863,6.751 2.238,9.851 0.901,2.031 2.234,3.784 3.807,5.34 1.513,1.496 3.244,3.237 5.351,3.834 2.865,0.811 5.612,-1.608 7.354,-3.565 0.438,-0.492 0.854,-1.014 1.221,-1.561 0.036,-0.054 -0.01,-0.158 -0.084,-0.272 11.342,-6.487 18.819,-17.033 20.544,-30.09 0.813,-6.158 0.521,-12.89 -1.291,-18.874 -0.017,-0.056 -0.047,-0.112 -0.07,-0.168 0.255,-0.526 0,-1.607 -0.032,-2.104 -0.153,-2.365 -0.676,-4.825 -2.022,-6.813 -1.473,-2.176 -3.673,-4.258 -5.934,-5.594 -2.052,-1.213 -4.427,-1.015 -6.639,-0.4 -3.776,1.181 -6.89,3.957 -9.482,7.138 -4.042,0.656 -8.008,-0.436 -11.611,-2.335 -0.911,-0.48 -1.796,-1.022 -2.647,-1.608 3.354,-0.868 6.413,-2.398 8.435,-4.975 1.452,-1.852 2.159,-4.523 1.584,-6.838 -0.113,-0.454 -0.386,-0.896 -0.731,-1.303 1.622,-0.303 3.238,-0.642 4.845,-1.033 5.557,-1.351 12.741,-3.29 16.41,-8.053 2.877,-3.734 -0.112,-7.972 -3.385,-10.802 0.205,-4.772 -1.299,-9.566 -4.128,-13.387 -2.214,-2.992 -5.655,-5.846 -9.38,-7.122 -1.101,-2.279 -2.724,-4.371 -4.664,-6.113 4.788,0.373 9.575,0.747 14.363,1.121 1.653,5.281 4.85,10.064 9.995,12.111 1.546,0.615 3.173,0.676 4.77,0.364 0.021,11.04 0.042,22.081 0.056,33.122 0.004,3.16 0.008,6.321 0.009,9.482 10e-4,4.525 1.918,8.315 4.815,11.719 3.153,3.705 7.792,6.832 12.736,7.225 4.094,0.326 8.344,-0.964 11.717,-3.251 3.912,-2.652 5.639,-6.959 5.992,-11.518 0.315,-4.07 1.707,-8.283 5.095,-10.795 1.885,-1.398 4.953,-1.979 6.924,-0.767 0.749,0.46 1.338,3.204 1.515,4.422 0.107,0.738 0.045,1.472 0.058,2.211 0.085,4.804 0.171,9.608 0.256,14.412 -0.19,0.049 -0.38,0.099 -0.569,0.154 -0.93,0.266 -1.84,0.598 -2.736,0.961 -2.666,1.081 -5.176,2.566 -7.356,4.446 -10.031,8.654 -7.259,25.212 2.701,32.743 -2.988,3.404 -5.976,6.808 -8.965,10.212 -0.822,0.937 -1.386,1.339 -1.386,2.567 0,2.248 0,4.495 0,6.743 0,6.435 0,12.87 0,19.305 0,1.601 -0.133,3.055 0.126,4.483 -0.085,-0.013 -0.168,-0.023 -0.244,-0.019 -18.19,0.88 -36.712,4.317 -54.037,9.83 -12.831,4.083 -25.714,9.687 -35.859,18.738 -8.277,7.385 -14.332,17.989 -14.166,29.194 -0.276,0.206 -0.445,0.544 -0.408,1.068 0.025,0.345 0.055,0.689 0.087,1.034 -0.188,0.022 -0.31,0.135 -0.31,0.398 0.004,5.256 0.007,10.513 0.009,15.769 0.003,5.786 -0.202,11.628 -0.104,17.433 -6.212,7.372 -8.751,18.192 -7.173,27.548 1.754,10.396 8.247,19.194 15.815,26.222 7.202,6.689 15.713,12.129 24.398,16.666 18.466,9.647 39.118,14.484 59.758,16.4 23.235,2.157 47.232,0.893 70.05,-4.014 20.831,-4.479 41.625,-12.274 58.873,-24.996 7.063,-5.209 13.489,-11.486 18.084,-19.007 4.257,-6.968 6.067,-14.352 6.202,-22.458 0.193,-11.556 -6.263,-23.993 -16.147,-30.23 -0.048,-0.03 -0.103,-0.063 -0.16,-0.096 -0.049,-2.255 -0.093,-4.508 -0.115,-6.757 -0.041,-4.17 -0.082,-8.34 -0.123,-12.51 -0.004,-0.412 -0.184,-0.842 -0.456,-1.264 0.808,-3.707 1.248,-7.523 1.264,-11.425 10e-4,-0.366 -0.135,-0.763 -0.365,-1.158 -1.853,-22.144 -30.438,-35.033 -49.687,-40.551 -4.765,-1.366 -9.627,-2.582 -14.524,-3.468 0.001,-1.301 0.002,-2.602 0.003,-3.903 0.006,-8.155 0.013,-16.309 0.019,-24.464 0.001,-1.046 -1.128,-2.215 -1.717,-3.025 -1.333,-1.835 -2.665,-3.67 -3.998,-5.506 -1.896,-2.611 -3.791,-5.221 -5.687,-7.832 7.487,-5.509 10.712,-16.816 7.131,-25.333 -2.679,-6.373 -8.926,-11.412 -15.632,-13.617 -0.001,-3.195 -0.012,-6.392 0.04,-9.586 0.097,-5.911 5.264,-11.428 11.583,-9.351 0.301,0.099 0.534,0.213 0.798,0.366 0.543,0.708 0.858,1.559 1.128,2.399 0.817,2.54 0.608,5.163 0.858,7.775 0.432,4.502 2.347,8.736 5.144,12.258 6.027,7.589 15.832,11.009 25.109,7.638 5.406,-1.964 8.852,-6.695 9.914,-12.229 0.382,-1.993 0.279,-4.025 0.283,-6.043 0.022,-12.288 0.044,-24.577 0.066,-36.865 0.005,-2.519 0.009,-5.037 0.014,-7.555 0,-0.002 0,-0.003 0,-0.005 2.297,0.844 4.74,1.029 7.383,0.63 5.228,-0.789 9.377,-3.954 11.819,-8.234 0.445,0.255 0.906,0.426 1.356,0.45 4.727,0.253 9.453,0.506 14.18,0.759 -0.97,0.684 -1.819,1.526 -2.538,2.478 -0.604,0.8 -1.025,1.718 -1.382,2.649 -0.045,0.116 -0.086,0.311 -0.132,0.529 -0.15,-0.049 -0.301,-0.096 -0.451,-0.146 -0.206,-0.069 -10e-4,0.283 0.315,0.725 -0.079,0.281 -0.178,0.516 -0.314,0.574 -4.893,2.051 -9.156,6.026 -11.542,10.74 -0.871,1.721 -1.414,3.602 -1.756,5.493 -0.255,1.413 0.188,2.785 -0.867,3.747 -1.887,1.722 -3.295,4.177 -2.895,6.796 0.603,3.954 4.622,7.009 8.047,9.007 0.011,2.285 0.023,4.571 0.034,6.856 0.004,0.846 0.008,1.692 0.013,2.538 0.009,1.802 2.056,3.446 3.477,4.249 5.398,3.052 11.614,4.783 17.669,5.9 11.185,2.064 22.976,1.504 34.086,-0.755 4.86,-0.988 9.942,-2.284 14.42,-4.487 0.284,-0.057 0.444,-0.229 0.481,-0.516 -0.038,-3.701 -0.077,-7.402 -0.115,-11.103 -0.005,-0.476 -0.162,-0.94 -0.408,-1.379 2.682,-1.266 5.101,-2.943 6.597,-5.286 2.294,-3.585 -0.656,-7.565 -3.764,-10.236 z m -16.03,-40.306 c 0.974,0.045 1.949,0.09 2.923,0.135 0.142,0.72 0.181,1.462 0.19,2.189 0.032,2.604 -1.198,5.01 -3.597,6.108 -1.132,0.518 -1.477,0.346 -2.813,0.254 -2.053,-0.142 -4.107,-0.283 -6.16,-0.425 0.153,-0.803 0.233,-1.628 0.225,-2.47 -10e-4,-0.089 -0.009,-0.177 -0.021,-0.264 10e-4,-0.042 0.003,-0.082 10e-4,-0.129 -0.12,-2.079 -0.721,-4.079 -1.684,-5.902 3.646,0.168 7.291,0.336 10.936,0.504 z m -24.2,-4.965 c 2.461,-0.622 5.422,-0.304 7.554,1.137 2.098,1.418 2.851,4.044 3.037,6.452 0.007,1.893 -0.408,3.681 -1.167,5.272 -0.136,-0.009 -0.271,-0.019 -0.407,-0.028 -0.192,-0.013 -0.082,0.227 0.146,0.549 -1.496,2.766 -4.086,4.855 -7.394,5.691 -2.461,0.622 -5.422,0.304 -7.554,-1.137 -0.551,-0.372 -1.006,-0.832 -1.384,-1.346 -0.05,-0.474 -0.329,-1.039 -0.593,-1.432 -0.128,-0.191 -0.281,-0.397 -0.452,-0.609 -0.314,-0.908 -0.498,-1.871 -0.597,-2.803 -0.584,-5.524 3.677,-10.449 8.811,-11.746 z M 362.396,137.687 c 12.494,0.46 24.988,0.92 37.482,1.38 10.846,0.399 21.692,0.798 32.538,1.198 0.259,0.009 0.518,0.019 0.777,0.029 -6.264,12.135 -6.552,27.125 -0.406,39.283 -0.907,-0.06 -1.814,-0.12 -2.721,-0.177 -11.252,-0.703 -22.504,-1.406 -33.755,-2.109 -12.726,-0.795 -25.452,-1.591 -38.178,-2.386 -2.898,-0.181 -5.796,-0.362 -8.694,-0.543 -4.145,-12.287 -3.584,-26.16 4.823,-36.597 0.084,-0.104 0.121,-0.23 0.123,-0.371 2.671,0.096 5.341,0.194 8.011,0.293 z m 76.944,94.915 c -1.586,0.384 -3.283,0.375 -4.898,0.232 -1.369,-0.121 -3.248,-0.669 -3.669,-1.347 -1.498,-2.415 -1.735,-5.543 -1.889,-8.308 -0.174,-3.12 0.142,-6.267 -0.522,-9.341 -0.623,-2.885 -2.138,-5.476 -4.01,-7.721 -3.772,-4.524 -9.101,-7.579 -14.956,-8.28 -6.652,-0.797 -13.206,1.822 -18.174,6.138 -6.062,-5.914 -13.971,-9.686 -22.676,-8.548 -4.213,0.551 -8.22,2.337 -11.036,5.562 -3.327,3.81 -4.564,9.101 -4.63,14.04 -0.058,4.39 -1.461,8.37 -6.311,9.017 -1.013,0.135 -2.075,0.096 -3.046,-0.231 -0.061,-0.073 -0.13,-0.17 -0.205,-0.314 -0.184,-0.355 -0.317,-0.733 -0.443,-1.111 -0.378,-1.131 -0.544,-2.346 -0.599,-3.534 -0.141,-3.054 -0.008,-6.143 -0.008,-9.198 0,-11.046 0,-22.092 0,-33.139 2.444,1.685 5.23,2.79 8.001,2.963 2.138,0.134 4.275,0.267 6.413,0.401 11.787,0.737 23.574,1.473 35.361,2.21 12.354,0.772 24.708,1.544 37.062,2.316 6.057,0.379 12.853,1.593 18.527,-1.142 0,9.066 0,18.132 0,27.199 -0.001,7.786 1.591,19.744 -8.292,22.136 z M 282.942,140.327 c 5.489,-0.666 9.294,3.096 9.43,8.434 0.068,2.676 -1.026,5.177 -2.779,7.099 -0.067,-0.005 -0.135,-0.011 -0.202,-0.016 -0.3,-0.023 -0.33,0.173 -0.226,0.461 -1.748,1.723 -4.048,2.903 -6.481,3.197 -5.49,0.665 -9.294,-3.096 -9.43,-8.435 0.121,-5.427 4.279,-10.085 9.688,-10.74 z M 260.823,153.6 c -1.286,-0.101 -2.572,-0.202 -3.857,-0.303 -0.094,-0.279 -0.204,-0.575 -0.216,-0.631 -0.536,-2.529 0.173,-5.77 2.645,-7.032 0.377,-0.193 0.79,-0.333 1.208,-0.425 -0.143,0.053 0.6,0.019 0.949,0.049 2.466,0.209 4.931,0.419 7.396,0.628 -0.207,0.857 -0.332,1.739 -0.37,2.637 -0.01,0.085 -0.016,0.175 -0.013,0.276 0.05,1.943 0.486,3.798 1.229,5.505 -2.989,-0.235 -5.98,-0.469 -8.971,-0.704 z m 68.894,80.536 c 0.114,0.637 0.215,1.276 0.305,1.917 0.6,4.231 0.648,8.538 0.161,12.782 -1.418,12.35 -8.406,22.514 -18.686,29.033 -0.347,-1.753 -0.431,-3.565 -0.409,-5.34 0.057,-4.571 1.055,-9.11 2.306,-13.485 1.599,-5.591 3.719,-11.123 6.889,-16.021 2.24,-3.46 5.486,-7.126 9.434,-8.886 z m -7.677,-11.948 c 1.601,-0.445 3.206,-0.669 4.817,-0.268 0.135,0.315 0.256,0.636 0.369,0.957 0.672,1.918 0.863,4.027 0.811,6.05 -0.016,0.628 -1.231,0.636 -1.771,0.841 -2.294,0.87 -4.308,2.385 -6.075,4.059 -7.389,6.997 -10.934,18.215 -12.723,27.942 -0.919,4.999 -1.438,11.057 0.869,15.802 0.159,0.327 0.344,0.636 0.546,0.933 -1.053,1.555 -2.422,2.945 -3.965,4.007 -1.262,0.868 -2.769,1.374 -4.298,1.08 -0.042,-0.008 -0.084,-0.022 -0.126,-0.032 -0.121,-0.213 -0.239,-0.427 -0.349,-0.646 -0.382,-0.715 -0.682,-1.477 -0.965,-2.234 -1.218,-3.252 -1.677,-6.742 -1.665,-10.265 0.216,-0.097 0.307,-0.346 0.149,-0.844 -0.037,-0.115 -0.082,-0.231 -0.131,-0.346 0.127,-3.872 0.787,-7.756 1.616,-11.38 1.847,-8.079 5.105,-15.936 9.497,-22.961 3.133,-5.012 7.489,-10.848 13.394,-12.695 z m -16.255,6.422 c -0.703,1.035 -1.359,2.07 -1.973,3.069 -4.533,7.377 -7.695,15.707 -9.428,24.178 -0.617,3.018 -1.055,6.193 -1.146,9.372 -10.641,-6.099 -20.613,-14.838 -20.596,-28.047 0.006,-4.888 1.38,-10.339 4.25,-14.382 0.214,-0.301 0.188,-0.711 -10e-4,-1.17 1.57,0.327 3.179,0.537 4.809,0.637 3.329,0.203 7.43,0.16 11.254,-0.669 3.627,3.184 8.096,5.996 12.831,7.012 z m -6.989,-16.622 c -3.013,4.929 -10.073,5.861 -15.261,6.228 -3.991,0.282 -8.033,0.077 -11.89,-1.039 -2.032,-0.588 -4.105,-1.758 -5.097,-2.885 -1.024,-1.165 -1.989,-3.663 -2.002,-5.446 -0.002,-0.244 -0.067,-0.486 -0.173,-0.724 7.096,1.426 14.419,1.825 21.63,1.765 4.658,-0.039 9.301,-0.389 13.897,-1.077 -0.118,1.133 -0.507,2.2 -1.104,3.178 z m 21.639,-16.17 c -2.309,2.996 -6.394,4.63 -9.83,5.863 -8.927,3.203 -18.641,4.324 -28.077,4.446 -10.837,0.14 -22.203,-0.781 -32.293,-5.003 -1.952,-0.816 -4.701,-1.81 -5.516,-3.907 -0.587,-1.511 -0.021,-3.224 0.748,-4.544 0.531,-0.912 1.264,-1.714 2.041,-2.422 0.275,-0.25 0.44,-0.537 0.543,-0.848 0.21,0.134 0.421,0.258 0.637,0.355 6.951,3.119 14.707,4.778 22.207,5.828 16.647,2.329 33.733,0.297 49.297,-6.038 1.695,1.499 1.947,4.058 0.243,6.27 z m -3.276,-11.199 c -0.163,-0.041 -0.313,-0.04 -0.444,0.016 -15.861,6.726 -33.147,8.808 -50.19,6.516 -5.289,-0.711 -10.525,-1.866 -15.626,-3.434 -0.884,-0.272 -1.761,-0.565 -2.634,-0.87 0.003,-0.028 0.005,-0.056 0.008,-0.085 0.899,-7.238 6.462,-13.228 12.904,-16.21 0.246,-0.114 0.43,-0.287 0.574,-0.497 0.309,0.202 0.624,0.369 0.943,0.476 15.3,5.111 31.136,5.357 46.704,0.978 0.056,-0.016 -0.038,-0.175 -0.212,-0.408 5.947,1.205 8.08,7.878 7.973,13.518 z m -12.851,-18.144 c -0.113,-0.025 -0.219,-0.03 -0.312,-0.004 -13.679,3.848 -27.518,4.086 -41.045,0.58 1.022,-1.727 2.606,-3.081 4.292,-4.131 2.129,-1.327 4.706,-2.225 7.203,-2.545 2.413,1.964 5.379,3.277 8.536,3.649 3.922,0.462 7.445,-0.988 9.987,-3.493 0.449,0.286 0.909,0.488 1.355,0.523 1.708,0.133 3.417,0.266 5.125,0.4 2.223,0.968 3.866,2.653 4.859,5.021 z m 11.485,-8.572 c -6.644,-0.518 -13.289,-1.036 -19.933,-1.555 0.735,-1.647 1.159,-3.455 1.201,-5.32 0.029,-1.298 -0.148,-2.558 -0.49,-3.763 6.543,0.562 13.086,1.125 19.628,1.687 -0.22,1.784 -0.29,3.553 -0.262,5.193 0.021,1.25 0.121,2.543 0.304,3.846 -0.15,-0.044 -0.3,-0.077 -0.448,-0.088 z m 11.051,12.296 c -2.695,0.051 -3.264,-2.766 -4.02,-4.899 -1.062,-2.997 -1.471,-6.327 -1.405,-9.497 0.106,-5.045 1.481,-10.719 5.33,-14.237 2.074,-1.895 4.949,-2.235 7.576,-1.474 0.941,0.273 2.148,0.868 2.79,1.279 0.165,0.106 0.562,0.41 0.855,0.632 1.309,1.184 2.961,1.9 3.515,1.024 0.068,-0.073 0.118,-0.152 0.16,-0.235 1.688,-2.559 3.848,-4.052 6.355,-4.806 -6.518,10.829 -6.152,24.373 -1.623,36.108 -0.698,-0.112 -1.385,-0.276 -2.089,-0.525 -1.388,-0.491 -2.13,-1.316 -2.902,-2.311 0.023,0.03 -0.468,-0.767 -0.686,-1.15 0.125,0.21 -0.29,-0.651 -0.365,-0.844 -0.027,-0.069 -0.052,-0.138 -0.075,-0.208 -0.408,-1.226 -3.618,-4.736 -5.103,-3.199 -2.112,2.183 -5.19,4.283 -8.313,4.342 z m 92.074,160.059 c -0.003,0.126 0.009,0.188 0.021,0.216 -0.031,0.008 -0.094,0.049 -0.21,0.177 -0.463,0.512 -0.973,0.981 -1.493,1.434 -2.091,1.822 -4.515,3.242 -7.022,4.407 -9.298,4.319 -20.492,4.423 -30.41,2.61 -3.583,-0.655 -7.16,-1.778 -10.36,-3.536 -0.589,-0.324 -0.75,-0.427 -1.217,-0.738 -0.145,-0.097 -0.287,-0.2 -0.429,-0.301 -10e-4,-0.024 -0.003,-0.04 -0.003,-0.065 -0.032,-2.007 -0.064,-4.014 -0.096,-6.021 -0.044,-2.747 -0.087,-5.494 -0.131,-8.241 9.338,8.966 26.689,9.021 38.119,6.85 4.591,-0.873 9.318,-2.45 13.382,-4.953 -0.05,2.72 -0.101,5.441 -0.151,8.161 z m -51.767,3.719 c -0.078,-0.107 -0.106,-0.149 0,0 l 0,0 z m 52.155,-19.435 c -0.259,0.29 -0.548,0.554 -0.836,0.814 -1.649,1.487 -3.561,2.676 -5.519,3.706 -8.688,4.575 -19.333,5.357 -28.933,4.425 -4.079,-0.396 -8.157,-1.258 -11.879,-3.009 -1.106,-0.52 -1.943,-1.085 -2.735,-1.703 -0.033,-0.026 -0.059,-0.045 -0.084,-0.065 -0.032,-0.03 -0.073,-0.067 -0.133,-0.121 -0.108,-0.097 -0.21,-0.199 -0.314,-0.3 -0.06,-0.065 -0.245,-0.255 -0.297,-0.312 -0.071,-0.08 -0.12,-0.134 -0.155,-0.172 -0.01,-0.014 -0.023,-0.032 -0.041,-0.055 -0.074,-0.098 -0.355,-0.528 -0.438,-0.645 -0.096,-0.172 -0.192,-0.343 -0.279,-0.52 -0.066,-0.134 -0.103,-0.203 -0.124,-0.235 -10e-4,-0.004 -0.003,-0.013 -0.004,-0.018 0.009,0.039 -0.034,-0.149 -0.034,-0.473 0,-0.854 0,-1.708 0,-2.562 0,-6.311 0,-12.621 0,-18.932 0,-2.486 0,-4.972 0,-7.459 4.479,2.98 9.811,4.803 15.014,5.964 12.365,2.758 25.15,0.758 36.71,-4.091 -0.006,8.39 -0.013,16.781 -0.019,25.171 -0.003,0.487 -0.192,0.918 0.1,0.592 z m -138.498,95.964 c -0.038,-0.042 -0.087,-0.096 -0.158,-0.173 -0.221,-0.242 -0.439,-0.488 -0.657,-0.733 -0.43,-0.484 -0.849,-0.976 -1.265,-1.472 -0.874,-1.041 -1.711,-2.112 -2.524,-3.201 -1.565,-2.097 -2.345,-3.287 -3.757,-5.677 -0.848,-1.435 -1.639,-2.903 -2.382,-4.396 4.801,4.779 10.568,8.723 16.128,11.821 14.007,7.805 29.973,12.063 45.707,14.643 28.614,4.691 57.981,1.168 85.926,-5.889 15.214,-3.842 30.412,-9.014 43.97,-17.03 2.834,-1.676 5.647,-3.533 8.322,-5.584 -12.153,15.388 -31.215,26.329 -49.002,32.831 -20.611,7.536 -42.661,10.702 -64.543,10.874 -18.121,0.142 -36.678,-2.234 -53.257,-9.909 -5.677,-2.628 -11.615,-6.339 -16.035,-10.005 -2.232,-1.851 -4.341,-3.85 -6.335,-5.954 -0.058,-0.062 -0.101,-0.107 -0.138,-0.146 z M 489.595,397.94 c 2.216,1.989 4.12,4.306 5.67,6.848 4.556,7.47 5.298,16.795 3.413,25.223 -3.901,17.445 -19.793,29.935 -34.564,38.25 -19.484,10.968 -41.752,17.237 -63.853,19.975 -22.974,2.846 -46.748,2.735 -69.534,-1.535 -19.7,-3.691 -38.793,-10.934 -55.02,-22.844 -8.457,-6.206 -16.292,-13.936 -19.511,-24.175 -2.151,-6.84 -1.539,-14.16 1.024,-20.787 0.449,-1.16 0.959,-2.326 1.537,-3.466 2.037,9.442 9.033,17.774 15.876,24.087 12.103,11.164 27.365,18.432 43.064,22.989 21.679,6.293 44.771,7.613 67.198,5.993 19.647,-1.418 39.169,-5.645 57.34,-13.324 12.425,-5.251 24.414,-12.246 34.292,-21.507 3.166,-2.968 6.138,-6.224 8.502,-9.874 1.39,-2.146 2.824,-4.74 2.906,-7.363 0.207,-6.637 0.058,-13.313 -0.097,-19.978 0.662,0.463 0.943,0.757 1.757,1.488 z m -7.697,1.495 c 0.039,4.014 0.079,8.028 0.118,12.042 0.023,2.294 -1.21,4.483 -2.405,6.436 -5.244,8.579 -13.793,15.266 -22.058,20.725 -13.826,9.13 -29.501,15.278 -45.533,19.251 -22.048,5.464 -45.255,6.806 -67.847,4.811 -19.043,-1.683 -38.323,-6.199 -55.135,-15.545 -2.897,-1.61 -6.178,-3.725 -8.537,-5.497 -0.656,-0.493 -1.301,-1.002 -1.941,-1.516 -0.314,-0.252 -0.623,-0.509 -0.932,-0.766 -0.013,-0.011 -0.402,-0.343 -0.55,-0.468 -0.536,-0.47 -1.064,-0.95 -1.585,-1.436 -0.277,-0.259 -0.55,-0.522 -0.822,-0.786 -0.133,-0.131 -0.215,-0.212 -0.249,-0.245 -0.109,-0.111 -0.218,-0.221 -0.326,-0.333 -3.313,-3.405 -6.178,-7.261 -8.181,-12.241 -1.903,-4.734 -1.831,-9.434 -1.832,-14.455 -0.002,-5.682 -0.005,-11.364 -0.008,-17.047 2.319,4.914 5.161,9.561 8.206,13.715 18.445,25.167 49.855,34.612 79.828,35.664 22.048,0.774 44.524,-1.977 65.622,-8.467 17.428,-5.361 34.368,-13.701 47.978,-25.987 6.539,-5.903 12.093,-12.859 16.063,-20.568 0.043,4.236 0.084,8.474 0.126,12.713 z m -35.49,-74.532 c 6.255,1.989 12.399,4.401 18.196,7.49 5.409,2.882 10.226,6.22 13.587,10.528 3.331,4.269 4.793,9.253 4.849,14.323 -0.142,0.212 -0.225,0.507 -0.227,0.903 -0.006,1.457 -0.075,2.891 -0.194,4.305 -0.836,4.941 -2.865,9.761 -5.673,13.873 -7.849,11.496 -20.911,18.857 -33.367,24.327 -14.907,6.547 -30.84,10.738 -46.808,13.742 -13.685,2.574 -27.651,4.306 -41.589,4.483 -14.944,0.191 -30.054,-2.013 -44.483,-5.82 -7.755,-2.046 -15.427,-4.651 -22.664,-8.126 -5.987,-2.874 -12.239,-6.655 -16.547,-11.164 -1.92,-2.01 -3.452,-4.212 -4.627,-6.541 -0.433,-1.238 -0.83,-2.489 -1.194,-3.749 -0.359,-1.245 -0.678,-2.501 -0.963,-3.765 -0.064,-0.283 -0.124,-0.568 -0.184,-0.852 -0.007,-0.031 -0.012,-0.055 -0.017,-0.078 -0.009,-0.046 -0.021,-0.113 -0.04,-0.209 -0.088,-0.458 -0.169,-0.917 -0.245,-1.378 -0.135,-0.815 -0.26,-1.639 -0.326,-2.464 -0.049,-5.414 1.332,-10.929 3.95,-15.964 6.035,-11.608 17.632,-19.329 29.152,-24.772 12.404,-5.861 25.823,-9.486 39.251,-12.102 8.709,-1.696 17.525,-2.936 26.37,-3.685 0.057,3.598 0.114,7.197 0.171,10.795 0.025,1.582 -0.025,2.502 0.979,3.79 1.21,1.554 2.716,2.93 4.266,4.135 5.862,4.56 13.046,6.635 20.338,7.483 9.637,1.119 19.877,0.261 28.573,-4.312 2.075,-1.091 4.04,-2.436 5.763,-4.029 0.67,-0.619 1.185,-0.995 1.202,-1.914 0.09,-4.881 0.181,-9.762 0.271,-14.643 0,-0.005 -10e-4,-0.01 -10e-4,-0.015 0.225,0.093 0.453,0.162 0.683,0.197 7.296,1.08 14.531,2.977 21.548,5.208 z m -27.365,-40.826 c -0.101,-0.003 -0.195,0.011 -0.275,0.048 -11.682,5.422 -24.595,7.946 -37.364,5.562 -3.703,-0.691 -7.317,-1.819 -10.751,-3.365 -1.072,-0.483 -1.832,-0.871 -2.697,-1.365 -0.007,-0.004 -0.018,-0.011 -0.027,-0.016 0.128,-0.145 0.255,-0.291 0.383,-0.436 3.454,-3.934 6.907,-7.868 10.361,-11.802 9.711,5.024 21.99,3.851 31.648,-0.637 2.907,4.003 5.815,8.007 8.722,12.011 z m -3.202,-38.951 c 2.219,7.834 -1.592,17.473 -8.293,22.048 -0.167,0.114 -0.183,0.325 -0.128,0.561 -8.889,4.471 -20.835,6.169 -30.181,1.729 -0.618,-0.498 -1.222,-0.88 -1.506,-0.995 -0.102,-0.041 -0.2,-0.09 -0.298,-0.137 0.088,0.028 -0.612,-0.358 -0.949,-0.554 -0.029,-0.03 -0.575,-0.405 -0.638,-0.453 -0.487,-0.367 -0.294,-0.226 -0.605,-0.505 -0.631,-0.569 -1.173,-1.229 -1.731,-2.036 -3.307,-4.78 -3.453,-11.76 -1.417,-17.045 2.364,-6.137 9.05,-10.607 15.329,-11.958 0.232,-0.043 0.362,-0.182 0.389,-0.417 -10e-4,-0.058 -0.002,-0.117 -0.003,-0.175 5.855,-0.69 12.656,-1.38 18.372,0.363 0.255,0.078 0.48,0.077 0.672,0.025 5.024,1.259 9.518,4.36 10.987,9.549 z m 38.335,-22.04 c -0.004,2.138 -0.086,4.136 -0.659,6.229 -1.829,6.673 -7.574,10.307 -14.228,10.962 -4.606,0.453 -9.464,-0.588 -12.634,-4.153 -3.136,-3.527 -3.826,-8.145 -3.989,-12.665 -0.309,-8.521 -6.811,-16.903 -16.052,-14.743 -4.826,1.128 -7.234,5.872 -7.25,10.505 -0.014,3.988 -0.029,7.977 -0.043,11.965 -4.422,-0.659 -9.178,-0.357 -13.579,0.112 -0.062,-3.522 -0.125,-7.043 -0.188,-10.565 -0.045,-2.53 -0.321,-4.788 -1.329,-7.152 -1.545,-3.623 -5.055,-6.774 -8.879,-7.767 -7.78,-2.02 -11.833,6.59 -12.469,12.835 -0.502,4.933 -2.313,8.804 -6.606,11.512 -3.6,2.271 -8.885,3.251 -12.914,1.722 -3.088,-1.172 -5.235,-3.906 -6.226,-6.986 -0.726,-2.255 -0.431,-4.855 -0.433,-7.197 -0.005,-5.783 -0.014,-11.565 -0.023,-17.348 -0.013,-8.397 -0.029,-16.794 -0.045,-25.191 -10e-4,-0.482 -0.205,-0.954 -0.503,-1.39 0.652,-0.371 1.278,-0.785 1.869,-1.228 0.318,0.397 0.652,0.784 1.003,1.158 0,9.735 0,19.47 0,29.205 0,4.212 0,8.424 0,12.636 0,4.623 2.698,10.051 7.49,11.374 4.681,1.292 8.775,-1.594 9.452,-6.254 0.426,-2.935 0.218,-5.844 0.899,-8.766 0.673,-2.891 2.021,-5.606 3.892,-7.903 7.386,-9.067 23.526,-6.7 30.566,1.408 0.261,0.3 2.175,2.439 2.69,1.972 6.611,-5.999 16.038,-8.548 24.424,-4.81 3.669,1.636 5.735,4.716 6.681,8.557 0.968,3.929 0.279,8.175 0.767,12.185 0.967,7.945 7.383,13.515 15.463,12.542 6.651,-0.801 9.362,-6.972 9.63,-12.962 0.268,-5.983 -0.051,-12.067 -0.051,-18.057 0,-7.664 0,-15.329 0,-22.993 0,-0.18 -0.094,-0.382 -0.241,-0.59 1.208,-1.084 2.187,-2.378 2.946,-3.83 0.215,0.193 0.431,0.383 0.651,0.565 -0.017,9.732 -0.035,19.465 -0.052,29.197 -0.01,5.303 -0.02,10.606 -0.03,15.909 z m 10.136,-47.55 c -2.296,0.769 -5.638,1.412 -7.824,0.021 -1.276,-0.812 -1.686,-1.458 -2.286,-2.607 -0.479,-0.918 -4.247,-4.419 -4.965,-2.138 -1.754,5.572 -6.704,8.596 -12.226,8.901 -4.024,-8.069 -4.646,-17.073 -2.515,-25.923 1.057,-4.392 2.71,-8.99 5.171,-12.806 0.081,-0.126 0.138,-0.26 0.175,-0.399 1.74,0.178 3.542,0.583 5.079,1.278 1.584,0.716 2.737,2.572 3.477,4.076 0.333,0.677 0.601,1.387 0.838,2.102 0.032,0.097 0.05,0.146 0.06,0.171 0.003,0.029 0.014,0.095 0.043,0.232 0.306,1.492 3.489,5.421 5.277,3.807 3.663,-3.306 8.935,-5.397 13.803,-3.976 5.898,1.722 6.926,8.915 6.378,14.221 -0.633,6.119 -4.688,11.097 -10.485,13.04 z m 15.762,-16.08 c 6.71,0.306 13.42,0.612 20.13,0.918 -0.736,1.632 -1.141,3.436 -1.122,5.317 0.013,1.304 0.233,2.579 0.618,3.804 -6.614,-0.354 -13.229,-0.708 -19.843,-1.062 0.261,-1.044 0.438,-2.118 0.518,-3.212 0.141,-1.943 0.035,-3.882 -0.301,-5.765 z m 16.937,18.725 c 1.773,-1.407 4.173,-2.299 6.454,-2.469 2.624,2.724 6.147,4.626 9.772,5.109 5.081,0.677 9.702,-1.937 12.16,-5.987 0.344,0.235 0.676,0.394 0.967,0.414 1.28,0.088 2.56,0.176 3.841,0.265 2.539,0.913 4.396,2.682 5.479,5.266 -0.113,-0.025 -0.219,-0.03 -0.312,-0.004 -13.704,3.855 -27.569,4.087 -41.12,0.561 0.705,-1.215 1.662,-2.285 2.759,-3.155 z m -4.858,6.865 c 0.614,-0.302 0.792,-0.281 0.944,-0.704 0.318,0.211 0.644,0.384 0.974,0.494 15.3,5.111 31.136,5.357 46.704,0.978 0.056,-0.016 -0.038,-0.175 -0.212,-0.408 5.945,1.203 8.077,7.876 7.971,13.516 -0.163,-0.041 -0.313,-0.04 -0.444,0.016 -15.861,6.725 -33.147,8.808 -50.19,6.516 -5.289,-0.711 -10.525,-1.866 -15.626,-3.434 -0.884,-0.272 -1.761,-0.565 -2.634,-0.87 0.003,-0.028 0.005,-0.056 0.008,-0.085 0.886,-7.123 6.251,-12.94 12.505,-16.019 z m 52.535,37.161 c 0.013,1.278 0.026,2.557 0.04,3.835 0.001,0.074 0.01,0.129 0.022,0.177 -5.304,2.41 -11.124,3.809 -16.833,4.818 -10.725,1.895 -21.883,2.023 -32.559,-0.223 -3.361,-0.707 -6.653,-1.702 -9.831,-3.003 -0.013,-2.557 -0.025,-5.115 -0.038,-7.672 -10e-4,-0.225 -0.04,-0.447 -0.103,-0.666 3.458,1.37 7.101,2.301 10.734,3.006 14.674,2.849 30.597,2.458 45.051,-1.408 1.103,-0.295 2.288,-0.623 3.495,-0.997 0.008,0.711 0.015,1.422 0.022,2.133 z m 7.122,-12.086 c -2.309,2.996 -6.394,4.63 -9.83,5.863 -8.927,3.203 -18.641,4.324 -28.077,4.446 -10.837,0.14 -22.203,-0.781 -32.293,-5.003 -1.952,-0.816 -4.701,-1.81 -5.516,-3.907 -0.587,-1.511 -0.021,-3.224 0.748,-4.544 0.531,-0.912 1.264,-1.714 2.041,-2.422 0.275,-0.25 0.44,-0.537 0.543,-0.848 0.21,0.134 0.421,0.258 0.637,0.355 6.951,3.119 14.707,4.778 22.207,5.828 16.647,2.329 33.732,0.297 49.297,-6.038 1.695,1.499 1.947,4.058 0.243,6.27 z" id="path7" style="fill:#ff7f2a;stroke:#f38a13;stroke-width:3.99300456;stroke-miterlimit:4;stroke-dasharray:none;stroke-opacity:1">
      </path>
      <path d="m 406.707,362.715 c -0.275,-4.635 -5.487,-7.24 -9.506,-7.892 -4.099,-0.665 -11.634,0.627 -11.948,5.928 -0.271,4.563 5.916,7.31 9.506,7.892 4.098,0.664 11.633,-0.627 11.948,-5.928 z m -18.876,0 c -0.192,-3.233 4.018,-4.837 6.493,-5.36 2.733,-0.577 9.572,-0.518 9.805,3.395 -0.195,3.288 -3.702,4.771 -6.493,5.36 -2.733,0.577 -9.573,0.518 -9.805,-3.395 z" id="path9" style="fill:#ff7f2a;stroke:#f38a13;stroke-width:3.99300456;stroke-miterlimit:4;stroke-dasharray:none;stroke-opacity:1">
      </path>
      <path d="m 315.375,385.106 c 3.863,0.658 10.918,-0.556 11.35,-5.467 0.011,-0.038 0.017,-0.08 0.014,-0.134 0.004,-0.068 -0.003,-0.139 -0.02,-0.212 -0.418,-4.357 -5.199,-6.808 -9.064,-7.466 -3.898,-0.664 -11.052,0.576 -11.364,5.601 -0.275,4.419 5.586,7.083 9.084,7.678 z m -0.394,-10.54 c 2.336,-0.518 8.763,-0.594 8.978,2.863 -0.187,3.015 -3.341,4.37 -5.911,4.94 -2.336,0.518 -8.763,0.594 -8.978,-2.863 -0.184,-2.963 3.632,-4.435 5.911,-4.94 z" id="path11" style="fill:#ff7f2a;stroke:#f38a13;stroke-width:3.99300456;stroke-miterlimit:4;stroke-dasharray:none;stroke-opacity:1">
      </path>
    </g>
    <text style="font-style:normal;font-variant:normal;font-weight:normal;font-stretch:normal;font-size:70px;line-height:125%;font-family:Anton;-inkscape-font-specification:'Anton, Normal';text-align:start;letter-spacing:0px;word-spacing:0px;writing-mode:lr-tb;text-anchor:start;fill:#aa4400;fill-opacity:1;stroke:none;stroke-width:1px;stroke-linecap:butt;stroke-linejoin:miter;stroke-opacity:1;filter:url(#filter4986)" x="719.12836" y="660.86707" id="text4720">
      <tspan id="text21" x="719.12836" y="660.86707" style="font-style:normal;font-variant:normal;font-weight:normal;font-stretch:normal;font-size:70px;line-height:125%;font-family:Anton;-inkscape-font-specification:'Anton, Normal';text-align:center;writing-mode:lr-tb;text-anchor:middle;fill:#aa4400">
        YOUR NAME
      </tspan>
    </text>
    <text style="font-style:normal;font-variant:normal;font-weight:normal;font-stretch:normal;font-size:70px;line-height:125%;font-family:Anton;-inkscape-font-specification:'Anton, Normal';text-align:start;letter-spacing:0px;word-spacing:0px;writing-mode:lr-tb;text-anchor:start;fill:#aa4400;fill-opacity:1;stroke:none;stroke-width:1px;stroke-linecap:butt;stroke-linejoin:miter;stroke-opacity:1;filter:url(#filter5060)" x="726.1936" y="769.82513" id="text4724">
      <tspan id="text22" x="726.1936" y="769.82513" style="font-style:normal;font-variant:normal;font-weight:normal;font-stretch:normal;font-size:70px;line-height:125%;font-family:Anton;-inkscape-font-specification:'Anton, Normal';text-align:center;writing-mode:lr-tb;text-anchor:middle;fill:#aa4400">
        469-222-9999
      </tspan>
    </text>
  </g>
</svg>