<?xml version="1.0" encoding="utf-8"?>
<?xml-stylesheet type="text/css" href="https://fonts.googleapis.com/css?family=Arial-BoldMT|Anton"?>
<svg xmlns:dc="http://purl.org/dc/elements/1.1/" xmlns:cc="http://creativecommons.org/ns#" xmlns:rdf="http://www.w3.org/1999/02/22-rdf-syntax-ns#" xmlns:svg="http://www.w3.org/2000/svg" xmlns="http://www.w3.org/2000/svg" xmlns:xlink="http://www.w3.org/1999/xlink" version="1.1" x="0px" y="0px" width="1600px" height="1000px" viewBox="0 0 1600 1000" enable-background="new 0 0 1600 1000" xml:space="preserve" id="svg2">
  <metadata id="metadata550">
    <rdf:RDF>
      <cc:Work rdf:about="">
        <dc:format>
          image/svg+xml
        </dc:format>
        <dc:type rdf:resource="http://purl.org/dc/dcmitype/StillImage">
        </dc:type>
        <dc:title>
        </dc:title>
      </cc:Work>
    </rdf:RDF>
  </metadata>
  <defs id="defs548">
    <clipPath id="clipPath4738" clipPathUnits="userSpaceOnUse">
      <path id="jd_bd" d="m 337.5,254.16667 725,0 0,568.75 -725,0 z" style="opacity:1;fill:none;fill-opacity:1;fill-rule:nonzero;stroke:#ffc300;stroke-width:2.20000005;stroke-linecap:butt;stroke-linejoin:miter;stroke-miterlimit:4;stroke-dasharray:none;stroke-dashoffset:0;stroke-opacity:1">
      </path>
    </clipPath>
  </defs>
  <image xlink:href="/designs/templates/002000101-1.jpg" overflow="visible" enable-background="new    " width="600" height="400" id="jd_bg" transform="matrix(2.6667 0 0 2.5 -1.9998 -2.441406e-004)">
  </image>
  <g clip-path="url(#clipPath4738)" id="jd_nt">
    <g id="Layer_2">
      <g id="g10">
        <linearGradient id="SVGID_1_" gradientUnits="userSpaceOnUse" x1="-212.8347" y1="538.6394" x2="-33.7867" y2="493.9977" gradientTransform="matrix(-1 0 0 1 516.897 0)">
          <stop offset="0" style="stop-color:#C7AA8D" id="stop13">
          </stop>
          <stop offset="0.5" style="stop-color:#AA8059" id="stop15">
          </stop>
          <stop offset="1" style="stop-color:#99693D" id="stop17">
          </stop>
        </linearGradient>
        <path fill="url(#SVGID_1_)" d="M657.7,450.1c0.7-0.9-0.3-2.2-1.4-1.7c-11.1,5.7-24.4,17-32.1,25.4c-21.1,23.4-48.9,41.6-64.8,46.9    c-5.1,1.7-10.4,2.9-15.9,4.3c-1,0.2-1.1,1.6-0.2,2c27.9,14.8,57.1,24.5,89.3,24.9c1.2,0,1.5,1.7,0.3,2.1    c-13.9,4.8-26.1,12.1-37.3,21.4c-0.8,0.7-0.3,2,0.8,1.9c19.4-1.2,37,5.8,54.9,10.7c14,3.8,28,7.9,42.5,9.4    c7.8,0.8,17.2-0.3,20.8-0.8c0.7-0.1,1.2-0.9,0.8-1.5c-3.1-6.6-6.2-13.3-9-20.1c-8.6-21.1-9.2-36-8.8-43.4c0.1-1.1-1.4-1.5-1.9-0.5    c-8.5,16-10.9,30.4-11.8,38.4c-11.1-0.6-30.7-1.7-38.8-2.3c-1.1-0.1-1.4-1.5-0.5-2c9.2-5.5,15.6-11.6,21.6-17.9    c0.3-0.3,0.4-0.6,0.3-1c-0.4-2.2-2-10.5-2.7-15.4c-0.1-0.6-0.6-1-1.2-0.9c-13.9,1.4-20.5,0.9-30.1,0c-12-1.1-23.9-2.9-35.9-5.6    c-1.1-0.3-1.1-1.9,0-2.1c17.4-4.1,30.8-14.7,43.8-25.7c12.3-10.4,31.9-30.3,40.7-37.8c0.8-0.7,0.3-2-0.8-1.9    c-10.4,0.6-21.5,2.9-29.8,7.5c-1,0.5-2-0.6-1.4-1.5C651.2,459.4,654.5,454.3,657.7,450.1z" id="path19">
        </path>
        <linearGradient id="SVGID_2_" gradientUnits="userSpaceOnUse" x1="-149.3298" y1="458.3972" x2="-28.14" y2="428.1812" gradientTransform="matrix(-1 0 0 1 516.897 0)">
          <stop offset="0" style="stop-color:#C7AA8D" id="stop22">
          </stop>
          <stop offset="0.5" style="stop-color:#AA8059" id="stop24">
          </stop>
          <stop offset="1" style="stop-color:#99693D" id="stop26">
          </stop>
        </linearGradient>
        <path fill="url(#SVGID_2_)" d="M628.4,367.8c0.9-0.2,1.1-1.4,0.4-2c-3.8-2.8-8-4.7-12.5-5.8c-13.6-3.2-27.3,2.3-35.7,14.2    c-5.1,7.3-8.1,15.5-10,24.2c-2.6,11.9-4.6,23.5-8.9,35c-5.1,13.8-21.1,29-26.2,33.6c-0.7,0.6-0.4,1.7,0.6,1.9    c4.8,0.8,17,1.2,28.9-10.2c0.7-0.7,1.9-0.1,1.9,0.9c-1.4,20.8-10.1,37.7-24.8,52c-0.8,0.8-0.1,2.1,1,1.9    c10.1-2.1,38.9-10.4,64.1-37.8c8.5-9.2,15.9-19.4,25.4-27.5c11.8-10,33-18.8,41.1-22c1-0.4,0.9-1.8-0.1-2.1    c-27.3-6.4-51.1-0.8-71.1,19.2c-0.8,0.8-2.2,0-1.8-1.1c8.3-24.9,20.1-47.3,40.4-64.3c0.9-0.8,0.1-2.2-1-1.9    c-17.8,5.4-30.8,17.6-42.6,31.8c-0.7,0.8-2,0.3-1.9-0.8C597.1,389.4,609.7,372,628.4,367.8z" id="path28">
        </path>
        <linearGradient id="SVGID_3_" gradientUnits="userSpaceOnUse" x1="-198.8406" y1="433.158" x2="-99.2602" y2="408.3298" gradientTransform="matrix(-1 0 0 1 516.897 0)">
          <stop offset="0" style="stop-color:#C7AA8D" id="stop31">
          </stop>
          <stop offset="0.5" style="stop-color:#AA8059" id="stop33">
          </stop>
          <stop offset="1" style="stop-color:#99693D" id="stop35">
          </stop>
        </linearGradient>
        <path fill="url(#SVGID_3_)" d="M691.8,406.3c1-0.7,0.4-2.2-0.8-2.1c-3.7,0.3-7.5,0.4-11.3,0.4c-9.5,0-17.8-1.7-27.3-1.6    c-26.9,0.3-39.4,16.5-42.1,28.9c1.4-1.5,17-21,43.7-18c6.4,0.7,27.5,5.6,31.8,6.5c9.7-4.6,21.7-9.4,34.5-9.1c1.2,0,1.5-1.8,0.3-2    c-12.5-2.8-31.5-0.6-31.5-0.6C689.1,408.4,690.1,407.5,691.8,406.3z" id="path37">
        </path>
        <linearGradient id="SVGID_4_" gradientUnits="userSpaceOnUse" x1="-338.7302" y1="399.3191" x2="-208.6808" y2="366.8941" gradientTransform="matrix(-1 0 0 1 516.897 0)">
          <stop offset="0" style="stop-color:#C7AA8D" id="stop40">
          </stop>
          <stop offset="0.5" style="stop-color:#AA8059" id="stop42">
          </stop>
          <stop offset="1" style="stop-color:#99693D" id="stop44">
          </stop>
        </linearGradient>
        <path fill="url(#SVGID_4_)" d="M835.6,392.8l21.3-1.5c1.1-0.1,1.3-1.7,0.2-2c-14.2-4.1-41.4-13.8-42.1-14.3    c-7.3-4-15.5-5.9-24.3-6.1c-11.5-0.2-22.6,2.1-33.7,4.6c-9.8,2.2-18.1,5.6-33.8,6.2c-1.3,0.1-1.5,1.9-0.2,2.2    c7.8,1.8,15.7,3.2,23.7,4.2c8.7,1.1,17.4,1.5,26.1,0.8c1.2-0.1,1.7,1.6,0.5,2.1c0,0-0.1,0-0.1,0.1c-1,0.4-0.8,1.9,0.3,2.1    c5.8,0.9,12.2,1.6,17.3,3.5c5.9,2.2,11.6,4.8,17.4,7c0,0,11.3,4.2,21.8,4.5c0.3,0,2.5,0.3,3.4,0.3c2.1-0.1,4.2,0,6.3,0.2    c0.9,0.1,1.5-0.8,1.1-1.6c-1.8-3.8-3.7-7.4-6-10.9C834.4,393.7,834.9,392.9,835.6,392.8z" id="path46">
        </path>
        <linearGradient id="SVGID_5_" gradientUnits="userSpaceOnUse" x1="-306.5374" y1="349.2751" x2="-101.7746" y2="298.222" gradientTransform="matrix(-1 0 0 1 516.897 0)">
          <stop offset="0" style="stop-color:#C7AA8D" id="stop49">
          </stop>
          <stop offset="0.5" style="stop-color:#AA8059" id="stop51">
          </stop>
          <stop offset="1" style="stop-color:#99693D" id="stop53">
          </stop>
        </linearGradient>
        <path fill="url(#SVGID_5_)" d="M743.2,274.3c7.9,4.2,15.4,9,21.4,16.2c0.6,0.7,0.1,1.8-0.8,1.8c-0.6,0-1.1,0-1.7,0    c-29,0.2-55.6,8.3-80.3,23.4c-10.2,6.3-20.6,12.4-31.2,17.9c-14.4,7.5-34.2,10-42.8,10.8c-1.2,0.1-1.4,1.7-0.3,2.1    c13,5.1,33,7.5,56.9-1.8c1.2-0.5,2.1,1.2,1,1.9c-7.5,4.6-19.2,8.8-31.6,10.9c-1.2,0.2-1.2,1.8-0.1,2.1c3.9,1.1,7.7,1.6,11.7,1.8    c12.2,0.7,24-1.8,35.2-6.2c13.5-5.3,26.8-11.2,40.1-17c14.2-6.3,28.4-12.6,43.7-16c14-3.1,27.8-3.4,41.4,1.7    c5.7,2.1,14.8,8.3,19.3,11.5c0.9,0.6,2-0.3,1.7-1.3c-4-10.9-9.8-20.6-17.5-29.2c-6.8-7.6-14.7-13.8-23.6-18.8    c-13.1-7.4-27.1-11.9-41.9-14.1C742.7,272.1,742.1,273.7,743.2,274.3z" id="path55">
        </path>
        <linearGradient id="SVGID_6_" gradientUnits="userSpaceOnUse" x1="-22.6667" y1="476.821" x2="68.0436" y2="454.2044" gradientTransform="matrix(-1 0 0 1 516.897 0)">
          <stop offset="0" style="stop-color:#C7AA8D" id="stop58">
          </stop>
          <stop offset="0.5" style="stop-color:#AA8059" id="stop60">
          </stop>
          <stop offset="1" style="stop-color:#99693D" id="stop62">
          </stop>
        </linearGradient>
        <path fill="url(#SVGID_6_)" d="M495.6,485.5c2-2.9,4.5-5.5,6.9-8.1c0.8-0.8,2.2-0.1,1.9,1c-0.4,1.3-0.7,2.6-0.9,3.9    c-0.1,0.5-0.1,0.9-0.2,1.4c25.2-16.1,42.1-38,51-65.9c0.4-1.2-1.2-2-1.9-1c-6.6,8.4-13.8,16-22,22.9    c-14.7,12.5-31.2,21.7-50.1,26.1c-9.2,2.2-26.9,2-34,2c-1,0-1.5,1.3-0.7,2c11.3,8.9,24.2,14.1,38.8,16.7c0.9,0.2,1.2,1.3,0.6,1.9    c-11.7,11.2-25,18.3-41.3,20.8c-1,0.1-1.3,1.4-0.5,2c2.1,1.5,4,2.8,6,4c7.5,4.3,14.8,7,22.1,8.3c2.9-4,5.5-8.2,7.7-12.5    C483.7,501.9,489.8,493.8,495.6,485.5z" id="path64">
        </path>
        <linearGradient id="SVGID_7_" gradientUnits="userSpaceOnUse" x1="-22.8855" y1="507.1492" x2="16.6559" y2="497.2904" gradientTransform="matrix(-1 0 0 1 516.897 0)">
          <stop offset="0" style="stop-color:#C7AA8D" id="stop67">
          </stop>
          <stop offset="0.5" style="stop-color:#AA8059" id="stop69">
          </stop>
          <stop offset="1" style="stop-color:#99693D" id="stop71">
          </stop>
        </linearGradient>
        <path fill="url(#SVGID_7_)" d="M498.4,521.9c7.4-2.1,14.9-5.6,22.4-10.2c13.6-8.4,21.4-20.7,24.6-26.9c0.5-1-0.6-2-1.6-1.4    c-12.8,8.2-26.6,7-41.1,4.1c-1.2,8.5-2.4,17-3.3,25.6C499,516,498.7,519,498.4,521.9z" id="path73">
        </path>
        <linearGradient id="SVGID_8_" gradientUnits="userSpaceOnUse" x1="-126.405" y1="609.5232" x2="18.36" y2="573.4292" gradientTransform="matrix(-1 0 0 1 516.897 0)">
          <stop offset="0" style="stop-color:#C7AA8D" id="stop76">
          </stop>
          <stop offset="0.5" style="stop-color:#AA8059" id="stop78">
          </stop>
          <stop offset="1" style="stop-color:#99693D" id="stop80">
          </stop>
        </linearGradient>
        <path fill="url(#SVGID_8_)" d="M583.8,638.1c0,1,1.3,1.5,1.9,0.7c7.9-9.7,17-17.5,27.2-24c10.1-6.4,20.8-11.3,32.1-14.8    c1-0.3,1-1.8,0-2.1c-23.8-7.3-48-9.8-73.2-6.3c-0.9,0.1-1.5-0.8-1.1-1.6c2.6-5.1,5-10,7.7-14.6c2.8-4.6,6-8.9,9-13.3    c0.5-0.7,0-1.7-0.8-1.7c-30-1.7-65.7-21.9-76.4-28.2c-1-0.6-2,0.5-1.5,1.5c9.2,17.3,24,29.2,40.6,39.5c0.5,0.3,0.7,1,0.4,1.5    c-6.8,12.3-10.8,25.4-13.4,39.3c-0.2,0.9,0.8,1.6,1.6,1.2c16.2-8.9,33.5-9.2,51.4-8.4c0.8,0,1.3,0.8,1,1.5    C586.2,617.9,584.1,627.6,583.8,638.1z" id="path82">
        </path>
        <linearGradient id="SVGID_9_" gradientUnits="userSpaceOnUse" x1="-178.0276" y1="357.426" x2="-19.8244" y2="317.9815" gradientTransform="matrix(-1 0 0 1 516.897 0)">
          <stop offset="0" style="stop-color:#C7AA8D" id="stop85">
          </stop>
          <stop offset="0.5" style="stop-color:#AA8059" id="stop87">
          </stop>
          <stop offset="1" style="stop-color:#99693D" id="stop89">
          </stop>
        </linearGradient>
        <path fill="url(#SVGID_9_)" d="M531.9,344c8-1.7,16.2-2.1,24.5-0.8c0.9,0.1,1.2,1.3,0.6,1.9c-2.9,2.8-5.8,5.4-8.3,8.2    c-4.5,5.1-8.7,10.6-13,15.9c-3.5,4.4-7.5,8.4-11.8,12.1c-1.5,1.3,0,3.6,1.8,2.8c1.3-0.6,2.5-1.2,3.6-1.8    c10.7-6.2,19.2-15.1,28.3-23.2c6.3-5.6,14-11.7,23.1-14.9c1-0.3,1.9,0.8,1.2,1.7c-3.4,4.8-8.7,10.5-12.4,14.3    c-0.8,0.9,0.1,2.3,1.2,1.8c2.1-0.9,4.2-1.9,6.1-3.2c6.6-4.1,12.8-8.7,19.3-13.1c7.9-5.4,16.6-8.9,25.9-11.3    c24.4-6.3,47-17.1,68-30.9c6.1-4,12.5-7.3,20-9.3c1.1-0.3,1.1-1.8,0.1-2.1c-28.8-9.3-57.3,0.4-69.8,5.8c-1.2,0.5-0.7,2.2,0.6,2.1    c7.3-0.8,14.3-0.5,21.4,2.4c0.9,0.3,0.9,1.5,0.1,2c-13.5,7.8-31.6,11.6-46.9,13c-12.3,1.1-24.6,2.4-36.6,4.8    c-17.2,3.5-32.9,10.9-47.9,19.8C530,342.7,530.6,344.3,531.9,344z" id="path91">
        </path>
        <linearGradient id="SVGID_10_" gradientUnits="userSpaceOnUse" x1="-146.678" y1="509.7517" x2="-104.8785" y2="499.3299" gradientTransform="matrix(-1 0 0 1 516.897 0)">
          <stop offset="0" style="stop-color:#C7AA8D" id="stop94">
          </stop>
          <stop offset="0.5" style="stop-color:#AA8059" id="stop96">
          </stop>
          <stop offset="1" style="stop-color:#99693D" id="stop98">
          </stop>
        </linearGradient>
        <path fill="url(#SVGID_10_)" d="M664.4,487.2c-14,11.9-29.9,25-47.2,32.2c-1.1,0.5-0.8,2.1,0.4,2.1c15.3,0.1,29.9-1.8,43.8-5.5    c0.5-0.1,0.8-0.5,0.8-1c0.6-8.1,1.6-18.5,3.9-26.7C666.5,487.3,665.2,486.5,664.4,487.2z" id="path100">
        </path>
        <linearGradient id="SVGID_11_" gradientUnits="userSpaceOnUse" x1="27.3518" y1="564.8328" x2="80.9024" y2="551.4811" gradientTransform="matrix(-1 0 0 1 516.897 0)">
          <stop offset="0" style="stop-color:#C7AA8D" id="stop103">
          </stop>
          <stop offset="0.5" style="stop-color:#AA8059" id="stop105">
          </stop>
          <stop offset="1" style="stop-color:#99693D" id="stop107">
          </stop>
        </linearGradient>
        <path fill="url(#SVGID_11_)" d="M434,560.4c-0.9,0.7-0.3,2,0.7,2c7.4-0.4,13.8-2.9,19.7-6.6c6-3.8,11.8-8.1,17.7-12.3    c0.8-0.5,1.8,0.1,1.7,1c-1.7,20.8-10.4,38.4-24.1,53.9c-0.8,0.9,0.3,2.3,1.4,1.7c10.2-5.7,32-20.7,41.6-49.2    c3.2-9.4,4.5-19.2,5.7-29c-9,2.5-18,3.1-27,1.5C458.6,541.1,440.8,555.3,434,560.4z" id="path109">
        </path>
        <linearGradient id="SVGID_12_" gradientUnits="userSpaceOnUse" x1="13.7678" y1="485.7078" x2="16.1689" y2="485.1091" gradientTransform="matrix(-1 0 0 1 516.897 0)">
          <stop offset="0" style="stop-color:#C7AA8D" id="stop112">
          </stop>
          <stop offset="0.5" style="stop-color:#AA8059" id="stop114">
          </stop>
          <stop offset="1" style="stop-color:#99693D" id="stop116">
          </stop>
        </linearGradient>
        <path fill="url(#SVGID_12_)" d="M501.4,487.2c0.4,0.1,0.9,0.2,1.3,0.3c0.2-1.2,0.3-2.4,0.5-3.6c-0.7,0.5-1.4,0.9-2.2,1.4    C500.2,485.7,500.4,487,501.4,487.2z" id="path118">
        </path>
        <linearGradient id="SVGID_13_" gradientUnits="userSpaceOnUse" x1="-263.6501" y1="623.406" x2="-227.8894" y2="614.4899" gradientTransform="matrix(-1 0 0 1 516.897 0)">
          <stop offset="0" style="stop-color:#C7AA8D" id="stop121">
          </stop>
          <stop offset="0.5" style="stop-color:#AA8059" id="stop123">
          </stop>
          <stop offset="1" style="stop-color:#99693D" id="stop125">
          </stop>
        </linearGradient>
        <path fill="url(#SVGID_13_)" d="M758.2,657.8c19.6-15.3,31.2-45,20.9-74.7c-0.5-1.4-2.6-1.1-2.7,0.4c-0.5,8,0.5,20.3,1.1,26.7    c0.1,1.2-1.2,1.9-2.2,1.3c-3.3-2.3-9.3-6.7-13-10.8c-3.3-3.4-6.3-8.5-8.4-12.8c-0.7-1.3-2.7-0.8-2.6,0.7    c0.4,8.8,0.1,23.4-4.7,38.3c-0.4,1.1,0.8,2.2,1.9,1.7c3.8-1.7,7.9-3.6,11.2-6.1c0.7-0.5,1.4-1,2.1-1.4c0,0,0.2,0,0.6,0.1    c3.3,12.9,0.9,24.4-6.1,34.9C755.3,657.3,757,658.8,758.2,657.8z" id="path127">
        </path>
        <linearGradient id="SVGID_14_" gradientUnits="userSpaceOnUse" x1="-206.8933" y1="619.6716" x2="-141.1833" y2="603.2883" gradientTransform="matrix(-1 0 0 1 516.897 0)">
          <stop offset="0" style="stop-color:#C7AA8D" id="stop130">
          </stop>
          <stop offset="0.5" style="stop-color:#AA8059" id="stop132">
          </stop>
          <stop offset="1" style="stop-color:#99693D" id="stop134">
          </stop>
        </linearGradient>
        <path fill="url(#SVGID_14_)" d="M722.2,623.8c0.5-0.1,0.9-0.6,0.8-1.2c-0.5-5.6-1.4-10.9-3.1-16.4c-0.2-0.6-0.8-0.9-1.4-0.7    c-3.2,1.2-6.4,2.3-9.8,3.2c-13.7,3.8-39.4,2.9-51.5,2.1c-1.2-0.1-1.6,1.6-0.5,2.1c14.5,6,29.1,11.5,44.9,12.7    C708.7,626.2,715.6,625.6,722.2,623.8z" id="path136">
        </path>
        <linearGradient id="SVGID_15_" gradientUnits="userSpaceOnUse" x1="-383.5588" y1="354.6663" x2="-326.861" y2="340.5299" gradientTransform="matrix(-1 0 0 1 516.897 0)">
          <stop offset="0" style="stop-color:#C7AA8D" id="stop139">
          </stop>
          <stop offset="0.5" style="stop-color:#AA8059" id="stop141">
          </stop>
          <stop offset="1" style="stop-color:#99693D" id="stop143">
          </stop>
        </linearGradient>
        <path fill="url(#SVGID_15_)" d="M864.9,363.1c7.9,6.2,16.3,11.7,24.5,17.5c0.8,0.6,1.7,1.2,2.5,1.9c0.8,0.6,1.9-0.1,1.7-1.1    c-2.2-10.2-6.4-19-13.1-26.6c-3.3-3.7-6.7-7.4-10-11.1c-7.5-8.3-14.8-19.3-17.7-30.4c-0.3-1-1.7-1.1-2.1-0.1    C844.5,330.9,850,351.4,864.9,363.1z" id="path145">
        </path>
        <linearGradient id="SVGID_16_" gradientUnits="userSpaceOnUse" x1="-183.4861" y1="649.3337" x2="-86.6707" y2="625.1949" gradientTransform="matrix(-1 0 0 1 516.897 0)">
          <stop offset="0" style="stop-color:#C7AA8D" id="stop148">
          </stop>
          <stop offset="0.5" style="stop-color:#AA8059" id="stop150">
          </stop>
          <stop offset="1" style="stop-color:#99693D" id="stop152">
          </stop>
        </linearGradient>
        <path fill="url(#SVGID_16_)" d="M702.8,637.2c1.2-0.3,1.1-2-0.1-2.2c-13.2-1.8-48.7-7.5-62.9-17.5c-1.6-1.1-3.2-1-5-0.4    c-11.8,4.2-22.6,10.2-31.6,19.1c-1.1,1.1-2.1,2.2-3.1,3.3c-0.8,0.9,0.2,2.2,1.3,1.7c5-2.4,12.7-6,17.9-7.3c3.5-0.9,7.1-1.4,10.7-2    c3.7-0.6,7.2,0,10.8,1.3C669.7,643.4,693,639.7,702.8,637.2z" id="path154">
        </path>
        <linearGradient id="SVGID_17_" gradientUnits="userSpaceOnUse" x1="-216.5579" y1="656.0115" x2="-155.3885" y2="640.7603" gradientTransform="matrix(-1 0 0 1 516.897 0)">
          <stop offset="0" style="stop-color:#C7AA8D" id="stop157">
          </stop>
          <stop offset="0.5" style="stop-color:#AA8059" id="stop159">
          </stop>
          <stop offset="1" style="stop-color:#99693D" id="stop161">
          </stop>
        </linearGradient>
        <path fill="url(#SVGID_17_)" d="M736.9,634.2c-10.3,7.7-21.9,12.3-34.3,14.8c-10.6,2.1-21.2,2.4-31.8,1.5    c-1.3-0.1-1.7,1.7-0.5,2.1c11.2,4,22.7,6.9,35.4,6.8c0.9,0,1.4,1,0.9,1.8c-2.2,3-4.3,5.7-6.3,8.3c-0.6,0.8,0.1,1.9,1.1,1.7    c12.3-2.4,31-20.1,37.1-35.6C739,634.4,737.8,633.5,736.9,634.2z" id="path163">
        </path>
        <linearGradient id="SVGID_18_" gradientUnits="userSpaceOnUse" x1="-294.281" y1="638.613" x2="-262.4996" y2="630.689" gradientTransform="matrix(-1 0 0 1 516.897 0)">
          <stop offset="0" style="stop-color:#C7AA8D" id="stop166">
          </stop>
          <stop offset="0.5" style="stop-color:#AA8059" id="stop168">
          </stop>
          <stop offset="1" style="stop-color:#99693D" id="stop170">
          </stop>
        </linearGradient>
        <path fill="url(#SVGID_18_)" d="M776.2,649.4c4.7-2.1,10.7-7.8,15.7-14.9c0.2-0.3,0.6-0.4,1-0.3c5.9,2,12,3.3,18.3,2.4    c0.8-0.1,1-1.2,0.3-1.6c-9.3-5-16.5-12.1-22.1-21.3c-0.5-0.7-1.6-0.4-1.6,0.5c0.3,13.2-5.1,24-12.6,34    C774.6,648.9,775.4,649.8,776.2,649.4z" id="path172">
        </path>
        <linearGradient id="SVGID_19_" gradientUnits="userSpaceOnUse" x1="-482.4333" y1="519.4333" x2="-454.95" y2="512.581" gradientTransform="matrix(-1 0 0 1 516.897 0)">
          <stop offset="0" style="stop-color:#C7AA8D" id="stop175">
          </stop>
          <stop offset="0.5" style="stop-color:#AA8059" id="stop177">
          </stop>
          <stop offset="1" style="stop-color:#99693D" id="stop179">
          </stop>
        </linearGradient>
        <path fill="url(#SVGID_19_)" d="M993.8,503c-4.4,1.4-12.4-3-16.7-5.7c-0.9-0.5-1.9,0.3-1.5,1.3c1.9,4.8,4.2,14.2-0.8,23.8    c-6.9,13.1,16.3,8.2,17.4,2.2c0.5-2.7,2.5-5.4,5-6.9c5.6-3.6,4.6-10.5,4.2-12.2c-0.1-0.2-0.2-0.5-0.4-0.6    C999,503.5,996.1,502.3,993.8,503z" id="path181">
        </path>
        <linearGradient id="SVGID_20_" gradientUnits="userSpaceOnUse" x1="-335.656" y1="574.1853" x2="-334.8269" y2="573.9786" gradientTransform="matrix(-1 0 0 1 516.897 0)">
          <stop offset="0" style="stop-color:#C7AA8D" id="stop184">
          </stop>
          <stop offset="0.5" style="stop-color:#AA8059" id="stop186">
          </stop>
          <stop offset="1" style="stop-color:#99693D" id="stop188">
          </stop>
        </linearGradient>
        <path fill="url(#SVGID_20_)" d="M852.3,575.3c-0.1-0.8-0.2-1.6-0.3-2.4c0.1,0.8,0.1,1.3,0.2,1.7    C852.2,575.1,852.3,575.3,852.3,575.3z" id="path190">
        </path>
        <linearGradient id="SVGID_21_" gradientUnits="userSpaceOnUse" x1="-472.6628" y1="532.2234" x2="-113.1867" y2="442.5959" gradientTransform="matrix(-1 0 0 1 516.897 0)">
          <stop offset="0" style="stop-color:#C7AA8D" id="stop193">
          </stop>
          <stop offset="0.5" style="stop-color:#AA8059" id="stop195">
          </stop>
          <stop offset="1" style="stop-color:#99693D" id="stop197">
          </stop>
        </linearGradient>
        <path fill="url(#SVGID_21_)" d="M757.2,338.2c-11.9,4.5-23.4,10.2-34.9,15.6c-12.7,6-25.3,12.3-39.1,15.3    c-4.1,0.9-8.2,1.5-12.5,2.1c-1.3,0.2-1.3,2,0,2.2c3.2,0.5,6.2,1,9.3,1.3c16.6,1.9,33.1,1.1,49.3-3.1c12.2-3.2,24.2-6.9,36.4-10.1    c10.6-2.8,21.5-4.5,32.3-2c6,1.4,12.1,3.4,17.6,6.3c14.3,7.7,29.3,13.3,44.7,18.2c9.8,3.1,18.9,7.6,26.7,13.7c0.9,0.7,0.3,2-0.7,2    c-14-1.1-31.9-2.5-40.3-3.1c-1.1-0.1-1.6,1.4-0.7,2c7.3,4.8,14.9,12.2,18.8,16.1c0.8,0.8,0,2.1-1,1.8c-3.2-0.8-6.5-1.6-9.7-2    c-2.9-0.4-5.9-1-8.9-1.3c-6.2-0.8-12.4-0.3-18.5-1.1c-6.2-0.8-12.3-2.5-18.1-4.7c-6.4-2.4-12.6-5.3-19-7.7    c-6.8-2.6-14.1-4-21.4-5.5c0,0-26-4.4-53-8.1c-22.9-3.2-53-6.2-70.4,2.1c-0.9,0.5-0.8,1.9,0.3,2.1c11.5,2.1,52.8,9.4,68.1,7.5    c0.9-0.1,1.5,0.9,1.1,1.7l-1.9,3c-0.5,0.7,0,1.7,0.9,1.7c11,0.2,22.1,1.4,32.6,4.9c5.3,1.8,12.1,4.5,15.3,9.5    c0.6,0.9-0.4,2-1.4,1.6c-16.1-6.8-31.6-6.3-46.1-1.7c-8.5,2.7-16.8,6.7-24.6,11.4c-4.9,3-10.2,7.9-14.6,12.7    c-2.6,2.8-4.9,5.5-6.7,7.7c-0.7,0.9,0.3,2.2,1.3,1.7c9.1-4.6,21.2-6.8,32-7c10-0.2,19,1.4,23.6,4.4c0.9,0.5,0.6,1.9-0.5,2    c-2.9,0.4-5.7,0.7-8.5,1.5c-11.9,3.4-23.3,9.9-31.6,19.2c-8.5,9.7-12,22.5-12.9,35c-0.5,6.9-0.1,13.8,0.7,20.7    c1.1,9.7,3.4,19.3,6,28.7c0.3,1.1,1.8,1.1,2.1,0c3.8-12.6,17.2-53.4,33.7-52.5c0.7,0,1.2,0.7,1,1.4c-2,7.8-4,14.2-5.3,20.8    c-1.4,6.9-1.5,13.6-0.7,20.1c2.7,20.9,14.5,39.2,21.9,58.5c1.8,4.6,4.1,17,5.1,22.8c0.2,1,1.5,1.2,2,0.3    c9.2-16.7,10.9-35.4,7.5-54.1c-1.7-9.2,2-18.2,4.8-22.9c0.6-1,2-0.5,2,0.6c0,6.5,0.4,12.7,1.6,18.6c1.1,5.3,2.7,10.4,5.2,15.3    c2.8,5.5,6.5,10.8,11.5,15.8c0.8,0.8,2,0.1,1.9-1c-0.7-4-1.6-7.2-1.9-10c-1.3-15.3,1.9-37.3,17.7-44.5c9.1-4.1,18.4-2.2,25.9,2.8    c6.5,4.4,10.8,10.3,13.6,16.9c3.6,8.6-0.3,18.7-9,22.3c-7.3,3-15.7,1.6-20.4,0.4c-1.2-0.3-2.2,1.1-1.4,2.1    c5.2,6.9,11.2,11.4,17.2,14.2c6.1,2.8,12.2,4,17.9,4.3c0,0,0,0,0,0.1l27.2-0.3c2.8,0,5,2.4,4.7,5.2c-0.5,4.3-1.8,10.8-4.8,17.7    c-0.9,2.4-2.2,4.7-3.6,7c-3,5-7,9.9-12.4,14.2c-2.3,2.1-4.5,3.9-6.5,5.5c-1.6,1.3-0.3,3.8,1.6,3.3c21.3-5.8,35-14.2,43.7-22.5    c17-14.1,31.9-58,32.1-58.5c0.5-1.3-1-2.3-2-1.5c-11.2,8.7-21.3,8.9-28.9,6.7c-3.2-4.7-5.9-9.3-6.8-12.9    c-4.2-16.8,4.4-34.3,20.2-40.3c13.3-5.1,27-7.5,41-3.7c2,0.6,3.7,1.3,5,2.2c3.8,9-5.3,21.3-9.7,26.4c-0.8,0.9-0.1,2.3,1.1,2.2    c7.6-0.6,26.8-3.5,37.8-19c0,0,0,0,0,0c0.8-1.2,0.7-2.8-0.4-3.7c-3-2.3-2.7-6.6,0.6-15.7c3.6-10.1,2-20.2-0.1-26.8    c-0.7-2.3,1.8-4.3,3.9-3c6.3,3.9,15.1,8.6,19.7,7.2c0.5-0.2,1-0.3,1.5-0.3c2-0.2,3.2-2.4,2-4.1c-6-8.7-12.1-17.2-19-25.1    c-4-4.6-36.8-19.5-39.1-21.1c-4.7-3.1-1.6-9.3-0.9-13.6c0.5-3.1,0.8-6.8-0.8-9.7c-2.8-5.4-11-6.7-16.2-8.6    c-4.5-1.7-9.1-3.2-13.5-5c-0.6-0.2-1.2-0.6-1.8-1c-0.2-0.1-0.3-0.3-0.4-0.5c-6-13.9-16-24.1-29.5-31.3c-5.8-3-11.5-6.1-16.9-9.8    c-9.7-6.7-14.9-16.4-17.6-27.6c-1-4.1-1.7-8.2-2.5-12.5c-0.2-1-1.5-1.2-2-0.4c-4.6,7.6-6.9,15.7-5.8,24.5c0.1,1-1,1.6-1.7,1    c-3.6-2.6-7.1-5.2-10.7-7.7C800.2,332.8,779.2,330,757.2,338.2z M852,572.9c0.1,0.8,0.2,1.6,0.3,2.4v0v0c0,0,0-0.2-0.1-0.6    C852.1,574.2,852.1,573.7,852,572.9c-7.1-52-52.4-53.8-52.4-53.8c49.2-36.1,132-16,132-16C850.2,505.6,850.8,560.7,852,572.9z     M928.5,485.2c1,0.5,1.9,1.1,2.9,1.6c1.4,0.7,2.6,1.4,3.9,2.1c1.5,0.8,2.8,1.6,4.1,2.3c0.2,0.1,0.3,0.2,0.4,0.4    c0.1,0.1,0.1,0.3,0.1,0.4c0,0.3,0,0.5-0.2,0.7c0,0.1-0.1,0.1-0.1,0.2c-0.3,0.3-0.7,0.4-1.1,0.3c-2.3-0.7-4.4-1.4-6.6-2    c-0.5-0.1-0.9-0.3-1.4-0.4c-1.1-0.3-2.3-0.6-3.4-0.9c-1.2-0.3-2.3-0.6-3.5-0.9c-1.3-0.3-2.6-0.7-3.9-1c-3.7-0.9-7.2-1.6-10.7-2.2    c-0.7-0.1-1.4-0.2-2.1-0.3c-1.4-0.2-2.8-0.4-4.2-0.6c-2.8-0.4-5.5-0.6-8.3-0.8c-3.4-0.2-6.9-0.4-10.5-0.4l0,0    c-5,0-10.1,0.2-15.5,0.6c-6,0.4-11.9,1.2-17.7,2.3c-0.8,0.2-1.7,0.3-2.5,0.5c-3.3,0.7-6.6,1.5-9.8,2.3c-1.6,0.4-3.2,0.9-4.8,1.4    c-2.4,0.7-4.8,1.5-7.1,2.3c-1.6,0.6-3.1,1.1-4.7,1.7c-2.3,0.9-4.7,1.9-7,2.8c-1.5,0.7-3.1,1.4-4.6,2.1c-6.1,2.8-12.1,6-17.9,9.4    c-2.4,1.4-4.6,3.1-6.7,5c-3.5,3.2-6.8,6.8-10.3,10.2c-0.2,0.2-0.5,0.3-0.7,0.3c-0.4,0-0.9-0.2-1-0.7c-0.2-0.4-0.3-0.8-0.4-1.2    c-1.6-11.4-7.8-16-17.1-12.4c-1.1,0.4-2.3,1-3.4,1.6c-1,0.6-2.4,1.5-3.9,2.6c-1.2,0.9-2.5,1.9-3.8,2.8c-0.3,0.2-0.6,0.5-1,0.7    c-1.9,1.5-3.7,2.9-5,3.9c-0.1,0.1-0.2,0.1-0.3,0.2c-0.1,0-0.2,0.1-0.3,0.1c-0.2,0-0.4,0-0.6-0.1c-0.4-0.2-0.6-0.6-0.6-1.1    c0.5-4,1.7-11.8,3.2-14.9c1.2-2.6,2.7-5.1,4.3-7.4c2.1-2.9,4.5-5.6,7-8.1c2.1-2,4.3-3.9,6.5-5.6c1.7-1.3,3.4-2.5,5.1-3.7    c7.8-5.3,17.1-8.9,26.3-11.6c1.7-0.5,3.7-1.1,5.8-1.6c1.8-0.5,3.7-1,5.6-1.5c0.4-0.1,0.8-0.2,1.2-0.3c1.2-0.3,2.3-0.6,3.5-0.9    c1.2-0.3,2.3-0.6,3.5-0.9c0.8-0.2,1.5-0.4,2.3-0.6c0.8-0.2,1.5-0.4,2.2-0.6c3.6-0.9,6.9-1.7,9.2-2.3c0.1,0,0.3-0.1,0.4-0.2    c0.3-0.2,0.5-0.5,0.5-0.9c0-0.4-0.2-0.9-0.7-1.1c-1.8-0.6-3.7-1.2-5.5-1.8c-5.5-1.8-11-3.7-16.6-5.5c-5.6-1.9-11.2-3.7-16.9-5.6    c-1.9-0.6-3.8-1.3-5.7-1.9c-0.3-0.1-0.5-0.3-0.6-0.5c-0.1-0.1-0.1-0.2-0.1-0.3c0-0.1,0-0.2,0-0.4c0-0.1,0-0.2,0.1-0.3    c0-0.1,0.1-0.1,0.1-0.2c0.2-0.2,0.5-0.4,0.8-0.4c2.3-0.1,5.3-0.2,8.8-0.2c0.4,0,0.7,0,1.1,0c1.1,0,2.2,0,3.4,0    c2,0,4.1,0.1,6.2,0.2c2.2,0.1,4.5,0.2,6.9,0.4c1.4,0.1,2.9,0.2,4.4,0.3c1,0.1,2,0.2,3,0.3c2,0.2,4.1,0.4,6.2,0.6    c1.1,0.1,2.1,0.3,3.2,0.4c1.1,0.1,2.2,0.3,3.2,0.4c1.1,0.2,2.2,0.3,3.3,0.5c1.6,0.3,3.3,0.5,5,0.8c1.7,0.3,3.4,0.6,5,1    c1.1,0.2,2.3,0.5,3.4,0.7c1.7,0.4,3.4,0.8,5.1,1.2c0.6,0.1,1.1,0.3,1.7,0.4c1.7,0.4,3.4,0.9,5.1,1.4c1.1,0.3,2.3,0.7,3.4,1    c1.1,0.4,2.2,0.7,3.4,1.1c1.1,0.4,2.2,0.8,3.3,1.2c2.2,0.8,4.4,1.7,6.6,2.6c1.2,0.5,2.5,1.1,3.8,1.6c2,0.9,4,1.8,6.2,2.8    c0.7,0.3,1.4,0.7,2.2,1c1.5,0.7,3,1.4,4.5,2.1c1.5,0.7,3.1,1.5,4.6,2.3c2.3,1.2,4.7,2.3,7.1,3.6c1.6,0.8,3.2,1.6,4.8,2.4    c1.6,0.8,3.2,1.6,4.8,2.5c1.6,0.8,3.2,1.6,4.7,2.5c1.6,0.8,3.1,1.6,4.6,2.4C921.5,481.4,925.1,483.4,928.5,485.2z M889.5,428.6    c0.1-0.1,0.3-0.2,0.4-0.2c0.1,0,0.2,0,0.3,0c0.2,0,0.4,0.1,0.5,0.2l17.4,10.5l10.8,6.6c0.3,0.2,0.6,0.6,0.5,1    c-0.2,2.7-0.2,4.8-0.3,6.9c0,1.3-0.1,2.6-0.2,4.1c0,0.1,0,0.2-0.1,0.3c-0.2,0.6-0.9,0.9-1.5,0.6c-5.2-2.5-9.7-5.6-13.4-8.9    c-0.7-0.7-1.5-1.3-2.1-2c-1.4-1.3-2.6-2.7-3.8-4c-0.3-0.3-0.6-0.7-0.8-1c-0.5-0.7-1.1-1.3-1.6-2c-0.2-0.3-0.5-0.7-0.7-1    c-0.5-0.6-0.9-1.3-1.3-1.9c-0.2-0.3-0.4-0.6-0.6-0.9c-0.4-0.6-0.8-1.2-1.1-1.8c-0.3-0.6-0.7-1.1-1-1.7c-0.3-0.5-0.6-1-0.8-1.5    c-0.3-0.5-0.5-0.9-0.7-1.4c-0.1-0.2-0.2-0.4-0.3-0.6C889,429.4,889.2,428.9,889.5,428.6z" id="path199">
        </path>
        <linearGradient id="SVGID_22_" gradientUnits="userSpaceOnUse" x1="-374.95" y1="465.5271" x2="-370.0776" y2="464.3123" gradientTransform="matrix(-1 0 0 1 516.897 0)">
          <stop offset="0" style="stop-color:#C7AA8D" id="stop202">
          </stop>
          <stop offset="0.5" style="stop-color:#AA8059" id="stop204">
          </stop>
          <stop offset="1" style="stop-color:#99693D" id="stop206">
          </stop>
        </linearGradient>
        <path fill="url(#SVGID_22_)" d="M887.1,463.8c1.5,0.7,3.1,1.5,4.6,2.3C890.2,465.3,888.6,464.5,887.1,463.8z" id="path208">
        </path>
        <linearGradient id="SVGID_23_" gradientUnits="userSpaceOnUse" x1="-386.8269" y1="471.4666" x2="-381.7575" y2="470.2026" gradientTransform="matrix(-1 0 0 1 516.897 0)">
          <stop offset="0" style="stop-color:#C7AA8D" id="stop211">
          </stop>
          <stop offset="0.5" style="stop-color:#AA8059" id="stop213">
          </stop>
          <stop offset="1" style="stop-color:#99693D" id="stop215">
          </stop>
        </linearGradient>
        <path fill="url(#SVGID_23_)" d="M898.8,469.6c1.6,0.8,3.2,1.6,4.8,2.4C902,471.2,900.4,470.4,898.8,469.6z" id="path217">
        </path>
        <linearGradient id="SVGID_24_" gradientUnits="userSpaceOnUse" x1="-270.427" y1="443.0798" x2="-261.466" y2="440.8456" gradientTransform="matrix(-1 0 0 1 516.897 0)">
          <stop offset="0" style="stop-color:#C7AA8D" id="stop220">
          </stop>
          <stop offset="0.5" style="stop-color:#AA8059" id="stop222">
          </stop>
          <stop offset="1" style="stop-color:#99693D" id="stop224">
          </stop>
        </linearGradient>
        <path fill="url(#SVGID_24_)" d="M778.8,441.8c2.3-0.1,5.3-0.2,8.8-0.2C784.2,441.7,781.2,441.7,778.8,441.8    c-0.4,0-0.7,0.2-0.8,0.4C778.2,442,778.5,441.8,778.8,441.8z" id="path226">
        </path>
        <linearGradient id="SVGID_25_" gradientUnits="userSpaceOnUse" x1="-406.8474" y1="488.9167" x2="-402.9577" y2="487.9469" gradientTransform="matrix(-1 0 0 1 516.897 0)">
          <stop offset="0" style="stop-color:#C7AA8D" id="stop229">
          </stop>
          <stop offset="0.5" style="stop-color:#AA8059" id="stop231">
          </stop>
          <stop offset="1" style="stop-color:#99693D" id="stop233">
          </stop>
        </linearGradient>
        <path fill="url(#SVGID_25_)" d="M923.7,488.9c-1.3-0.3-2.6-0.7-3.9-1C921.1,488.3,922.4,488.6,923.7,488.9z" id="path235">
        </path>
        <linearGradient id="SVGID_26_" gradientUnits="userSpaceOnUse" x1="-288.1921" y1="442.8547" x2="-281.655" y2="441.2248" gradientTransform="matrix(-1 0 0 1 516.897 0)">
          <stop offset="0" style="stop-color:#C7AA8D" id="stop238">
          </stop>
          <stop offset="0.5" style="stop-color:#AA8059" id="stop240">
          </stop>
          <stop offset="1" style="stop-color:#99693D" id="stop242">
          </stop>
        </linearGradient>
        <path fill="url(#SVGID_26_)" d="M798.4,441.9c2.2,0.1,4.5,0.2,6.9,0.4C802.9,442.1,800.6,441.9,798.4,441.9z" id="path244">
        </path>
        <linearGradient id="SVGID_27_" gradientUnits="userSpaceOnUse" x1="-414.6062" y1="486.3972" x2="-411.5181" y2="485.6273" gradientTransform="matrix(-1 0 0 1 516.897 0)">
          <stop offset="0" style="stop-color:#C7AA8D" id="stop247">
          </stop>
          <stop offset="0.5" style="stop-color:#AA8059" id="stop249">
          </stop>
          <stop offset="1" style="stop-color:#99693D" id="stop251">
          </stop>
        </linearGradient>
        <path fill="url(#SVGID_27_)" d="M928.5,485.2c1,0.5,1.9,1.1,2.9,1.6C930.5,486.3,929.5,485.8,928.5,485.2z" id="path253">
        </path>
        <linearGradient id="SVGID_28_" gradientUnits="userSpaceOnUse" x1="-275.1628" y1="442.0686" x2="-271.9525" y2="441.2682" gradientTransform="matrix(-1 0 0 1 516.897 0)">
          <stop offset="0" style="stop-color:#C7AA8D" id="stop256">
          </stop>
          <stop offset="0.5" style="stop-color:#AA8059" id="stop258">
          </stop>
          <stop offset="1" style="stop-color:#99693D" id="stop260">
          </stop>
        </linearGradient>
        <path fill="url(#SVGID_28_)" d="M788.8,441.6c1.1,0,2.2,0,3.4,0C791,441.7,789.8,441.7,788.8,441.6z" id="path262">
        </path>
        <linearGradient id="SVGID_29_" gradientUnits="userSpaceOnUse" x1="-413.6985" y1="490.7166" x2="-410.3138" y2="489.8727" gradientTransform="matrix(-1 0 0 1 516.897 0)">
          <stop offset="0" style="stop-color:#C7AA8D" id="stop265">
          </stop>
          <stop offset="0.5" style="stop-color:#AA8059" id="stop267">
          </stop>
          <stop offset="1" style="stop-color:#99693D" id="stop269">
          </stop>
        </linearGradient>
        <path fill="url(#SVGID_29_)" d="M930.6,490.8c-1.1-0.3-2.3-0.6-3.4-0.9C928.3,490.1,929.5,490.4,930.6,490.8z" id="path271">
        </path>
        <linearGradient id="SVGID_30_" gradientUnits="userSpaceOnUse" x1="-281.3337" y1="442.512" x2="-275.42" y2="441.0375" gradientTransform="matrix(-1 0 0 1 516.897 0)">
          <stop offset="0" style="stop-color:#C7AA8D" id="stop274">
          </stop>
          <stop offset="0.5" style="stop-color:#AA8059" id="stop276">
          </stop>
          <stop offset="1" style="stop-color:#99693D" id="stop278">
          </stop>
        </linearGradient>
        <path fill="url(#SVGID_30_)" d="M792.2,441.7c2,0,4.1,0.1,6.2,0.2C796.2,441.8,794.1,441.7,792.2,441.7z" id="path280">
        </path>
        <linearGradient id="SVGID_31_" gradientUnits="userSpaceOnUse" x1="-260.9739" y1="442.6052" x2="-260.9497" y2="442.5992" gradientTransform="matrix(-1 0 0 1 516.897 0)">
          <stop offset="0" style="stop-color:#C7AA8D" id="stop283">
          </stop>
          <stop offset="0.5" style="stop-color:#AA8059" id="stop285">
          </stop>
          <stop offset="1" style="stop-color:#99693D" id="stop287">
          </stop>
        </linearGradient>
        <path fill="url(#SVGID_31_)" d="M777.8,442.8c0-0.1,0-0.2,0.1-0.3C777.9,442.5,777.8,442.7,777.8,442.8z" id="path289">
        </path>
        <linearGradient id="SVGID_32_" gradientUnits="userSpaceOnUse" x1="-288.8572" y1="466.2151" x2="-285.7644" y2="465.444" gradientTransform="matrix(-1 0 0 1 516.897 0)">
          <stop offset="0" style="stop-color:#C7AA8D" id="stop292">
          </stop>
          <stop offset="0.5" style="stop-color:#AA8059" id="stop294">
          </stop>
          <stop offset="1" style="stop-color:#99693D" id="stop296">
          </stop>
        </linearGradient>
        <path fill="url(#SVGID_32_)" d="M802.4,466.3c1.2-0.3,2.3-0.6,3.5-0.9C804.8,465.7,803.6,466,802.4,466.3z" id="path298">
        </path>
        <linearGradient id="SVGID_33_" gradientUnits="userSpaceOnUse" x1="-284.0515" y1="467.969" x2="-279.1508" y2="466.7471" gradientTransform="matrix(-1 0 0 1 516.897 0)">
          <stop offset="0" style="stop-color:#C7AA8D" id="stop301">
          </stop>
          <stop offset="0.5" style="stop-color:#AA8059" id="stop303">
          </stop>
          <stop offset="1" style="stop-color:#99693D" id="stop305">
          </stop>
        </linearGradient>
        <path fill="url(#SVGID_33_)" d="M795.7,468.1c1.8-0.5,3.7-1,5.6-1.5C799.4,467.1,797.5,467.6,795.7,468.1z" id="path307">
        </path>
        <linearGradient id="SVGID_34_" gradientUnits="userSpaceOnUse" x1="-294.7234" y1="464.4041" x2="-292.7098" y2="463.902" gradientTransform="matrix(-1 0 0 1 516.897 0)">
          <stop offset="0" style="stop-color:#C7AA8D" id="stop310">
          </stop>
          <stop offset="0.5" style="stop-color:#AA8059" id="stop312">
          </stop>
          <stop offset="1" style="stop-color:#99693D" id="stop314">
          </stop>
        </linearGradient>
        <path fill="url(#SVGID_34_)" d="M809.5,464.4c0.8-0.2,1.5-0.4,2.3-0.6C811,464.1,810.2,464.2,809.5,464.4z" id="path316">
        </path>
        <linearGradient id="SVGID_35_" gradientUnits="userSpaceOnUse" x1="-292.363" y1="465.2917" x2="-289.2787" y2="464.5227" gradientTransform="matrix(-1 0 0 1 516.897 0)">
          <stop offset="0" style="stop-color:#C7AA8D" id="stop319">
          </stop>
          <stop offset="0.5" style="stop-color:#AA8059" id="stop321">
          </stop>
          <stop offset="1" style="stop-color:#99693D" id="stop323">
          </stop>
        </linearGradient>
        <path fill="url(#SVGID_35_)" d="M806,465.4c1.2-0.3,2.3-0.6,3.5-0.9C808.3,464.7,807.1,465.1,806,465.4z" id="path325">
        </path>
        <linearGradient id="SVGID_36_" gradientUnits="userSpaceOnUse" x1="-296.9431" y1="463.8152" x2="-294.9911" y2="463.3285" gradientTransform="matrix(-1 0 0 1 516.897 0)">
          <stop offset="0" style="stop-color:#C7AA8D" id="stop328">
          </stop>
          <stop offset="0.5" style="stop-color:#AA8059" id="stop330">
          </stop>
          <stop offset="1" style="stop-color:#99693D" id="stop332">
          </stop>
        </linearGradient>
        <path fill="url(#SVGID_36_)" d="M811.8,463.9c0.8-0.2,1.5-0.4,2.2-0.6C813.2,463.5,812.5,463.7,811.8,463.9z" id="path334">
        </path>
        <linearGradient id="SVGID_37_" gradientUnits="userSpaceOnUse" x1="-370.3298" y1="463.2996" x2="-365.6224" y2="462.1259" gradientTransform="matrix(-1 0 0 1 516.897 0)">
          <stop offset="0" style="stop-color:#C7AA8D" id="stop337">
          </stop>
          <stop offset="0.5" style="stop-color:#AA8059" id="stop339">
          </stop>
          <stop offset="1" style="stop-color:#99693D" id="stop341">
          </stop>
        </linearGradient>
        <path fill="url(#SVGID_37_)" d="M882.6,461.6c1.5,0.7,3,1.4,4.5,2.1C885.6,463,884.1,462.3,882.6,461.6z" id="path343">
        </path>
        <linearGradient id="SVGID_38_" gradientUnits="userSpaceOnUse" x1="-340.3772" y1="451.2244" x2="-336.9527" y2="450.3705" gradientTransform="matrix(-1 0 0 1 516.897 0)">
          <stop offset="0" style="stop-color:#C7AA8D" id="stop346">
          </stop>
          <stop offset="0.5" style="stop-color:#AA8059" id="stop348">
          </stop>
          <stop offset="1" style="stop-color:#99693D" id="stop350">
          </stop>
        </linearGradient>
        <path fill="url(#SVGID_38_)" d="M853.9,450.3c1.1,0.3,2.3,0.7,3.4,1C856.1,451,855,450.6,853.9,450.3z" id="path352">
        </path>
        <linearGradient id="SVGID_39_" gradientUnits="userSpaceOnUse" x1="-336.9885" y1="450.2278" x2="-331.8641" y2="448.9501" gradientTransform="matrix(-1 0 0 1 516.897 0)">
          <stop offset="0" style="stop-color:#C7AA8D" id="stop355">
          </stop>
          <stop offset="0.5" style="stop-color:#AA8059" id="stop357">
          </stop>
          <stop offset="1" style="stop-color:#99693D" id="stop359">
          </stop>
        </linearGradient>
        <path fill="url(#SVGID_39_)" d="M848.8,448.9c1.7,0.4,3.4,0.9,5.1,1.4C852.2,449.8,850.5,449.3,848.8,448.9z" id="path361">
        </path>
        <linearGradient id="SVGID_40_" gradientUnits="userSpaceOnUse" x1="-295.6726" y1="443.0208" x2="-292.7816" y2="442.3" gradientTransform="matrix(-1 0 0 1 516.897 0)">
          <stop offset="0" style="stop-color:#C7AA8D" id="stop364">
          </stop>
          <stop offset="0.5" style="stop-color:#AA8059" id="stop366">
          </stop>
          <stop offset="1" style="stop-color:#99693D" id="stop368">
          </stop>
        </linearGradient>
        <path fill="url(#SVGID_40_)" d="M809.6,442.5c1,0.1,2,0.2,3,0.3C811.6,442.7,810.6,442.6,809.6,442.5z" id="path370">
        </path>
        <linearGradient id="SVGID_41_" gradientUnits="userSpaceOnUse" x1="-347.1013" y1="453.4153" x2="-343.6826" y2="452.5629" gradientTransform="matrix(-1 0 0 1 516.897 0)">
          <stop offset="0" style="stop-color:#C7AA8D" id="stop373">
          </stop>
          <stop offset="0.5" style="stop-color:#AA8059" id="stop375">
          </stop>
          <stop offset="1" style="stop-color:#99693D" id="stop377">
          </stop>
        </linearGradient>
        <path fill="url(#SVGID_41_)" d="M860.6,452.4c1.1,0.4,2.2,0.8,3.3,1.2C862.9,453.2,861.7,452.8,860.6,452.4z" id="path379">
        </path>
        <linearGradient id="SVGID_42_" gradientUnits="userSpaceOnUse" x1="-363.7322" y1="460.0125" x2="-357.268" y2="458.4007" gradientTransform="matrix(-1 0 0 1 516.897 0)">
          <stop offset="0" style="stop-color:#C7AA8D" id="stop382">
          </stop>
          <stop offset="0.5" style="stop-color:#AA8059" id="stop384">
          </stop>
          <stop offset="1" style="stop-color:#99693D" id="stop386">
          </stop>
        </linearGradient>
        <path fill="url(#SVGID_42_)" d="M874.3,457.8c2,0.9,4,1.8,6.2,2.8C878.3,459.6,876.3,458.7,874.3,457.8z" id="path388">
        </path>
        <linearGradient id="SVGID_43_" gradientUnits="userSpaceOnUse" x1="-343.7527" y1="452.2834" x2="-340.3263" y2="451.4292" gradientTransform="matrix(-1 0 0 1 516.897 0)">
          <stop offset="0" style="stop-color:#C7AA8D" id="stop391">
          </stop>
          <stop offset="0.5" style="stop-color:#AA8059" id="stop393">
          </stop>
          <stop offset="1" style="stop-color:#99693D" id="stop395">
          </stop>
        </linearGradient>
        <path fill="url(#SVGID_43_)" d="M857.3,451.3c1.1,0.4,2.2,0.7,3.4,1.1C859.5,452,858.4,451.7,857.3,451.3z" id="path397">
        </path>
        <linearGradient id="SVGID_44_" gradientUnits="userSpaceOnUse" x1="-301.8367" y1="443.8606" x2="-295.8358" y2="442.3644" gradientTransform="matrix(-1 0 0 1 516.897 0)">
          <stop offset="0" style="stop-color:#C7AA8D" id="stop400">
          </stop>
          <stop offset="0.5" style="stop-color:#AA8059" id="stop402">
          </stop>
          <stop offset="1" style="stop-color:#99693D" id="stop404">
          </stop>
        </linearGradient>
        <path fill="url(#SVGID_44_)" d="M812.6,442.8c2,0.2,4.1,0.4,6.2,0.6C816.7,443.2,814.7,443,812.6,442.8z" id="path406">
        </path>
        <linearGradient id="SVGID_45_" gradientUnits="userSpaceOnUse" x1="-330.1697" y1="448.4968" x2="-325.0889" y2="447.23" gradientTransform="matrix(-1 0 0 1 516.897 0)">
          <stop offset="0" style="stop-color:#C7AA8D" id="stop409">
          </stop>
          <stop offset="0.5" style="stop-color:#AA8059" id="stop411">
          </stop>
          <stop offset="1" style="stop-color:#99693D" id="stop413">
          </stop>
        </linearGradient>
        <path fill="url(#SVGID_45_)" d="M842,447.3c1.7,0.4,3.4,0.8,5.1,1.2C845.4,448,843.7,447.6,842,447.3z" id="path415">
        </path>
        <linearGradient id="SVGID_46_" gradientUnits="userSpaceOnUse" x1="-308.3308" y1="444.4353" x2="-305.1773" y2="443.649" gradientTransform="matrix(-1 0 0 1 516.897 0)">
          <stop offset="0" style="stop-color:#C7AA8D" id="stop418">
          </stop>
          <stop offset="0.5" style="stop-color:#AA8059" id="stop420">
          </stop>
          <stop offset="1" style="stop-color:#99693D" id="stop422">
          </stop>
        </linearGradient>
        <path fill="url(#SVGID_46_)" d="M822,443.8c1.1,0.1,2.2,0.3,3.2,0.4C824.2,444.1,823.1,444,822,443.8z" id="path424">
        </path>
        <linearGradient id="SVGID_47_" gradientUnits="userSpaceOnUse" x1="-321.658" y1="446.6877" x2="-316.6786" y2="445.4462" gradientTransform="matrix(-1 0 0 1 516.897 0)">
          <stop offset="0" style="stop-color:#C7AA8D" id="stop427">
          </stop>
          <stop offset="0.5" style="stop-color:#AA8059" id="stop429">
          </stop>
          <stop offset="1" style="stop-color:#99693D" id="stop431">
          </stop>
        </linearGradient>
        <path fill="url(#SVGID_47_)" d="M833.5,445.6c1.7,0.3,3.4,0.6,5,1C836.9,446.2,835.2,445.9,833.5,445.6z" id="path433">
        </path>
        <linearGradient id="SVGID_48_" gradientUnits="userSpaceOnUse" x1="-316.5955" y1="445.7781" x2="-311.7061" y2="444.559" gradientTransform="matrix(-1 0 0 1 516.897 0)">
          <stop offset="0" style="stop-color:#C7AA8D" id="stop436">
          </stop>
          <stop offset="0.5" style="stop-color:#AA8059" id="stop438">
          </stop>
          <stop offset="1" style="stop-color:#99693D" id="stop440">
          </stop>
        </linearGradient>
        <path fill="url(#SVGID_48_)" d="M828.6,444.8c1.6,0.3,3.3,0.5,5,0.8C831.9,445.3,830.2,445,828.6,444.8z" id="path442">
        </path>
        <linearGradient id="SVGID_49_" gradientUnits="userSpaceOnUse" x1="-422.7234" y1="493.1501" x2="-415.0406" y2="491.2346" gradientTransform="matrix(-1 0 0 1 516.897 0)">
          <stop offset="0" style="stop-color:#C7AA8D" id="stop445">
          </stop>
          <stop offset="0.5" style="stop-color:#AA8059" id="stop447">
          </stop>
          <stop offset="1" style="stop-color:#99693D" id="stop449">
          </stop>
        </linearGradient>
        <path fill="url(#SVGID_49_)" d="M938.6,493.2c-2.3-0.7-4.4-1.4-6.6-2C934.1,491.8,936.3,492.5,938.6,493.2c0.5,0.1,0.9,0,1.1-0.3    C939.4,493.2,939,493.3,938.6,493.2z" id="path451">
        </path>
        <linearGradient id="SVGID_50_" gradientUnits="userSpaceOnUse" x1="-367.2771" y1="483.6326" x2="-367.2771" y2="483.6326" gradientTransform="matrix(-1 0 0 1 516.897 0)">
          <stop offset="0" style="stop-color:#C7AA8D" id="stop454">
          </stop>
          <stop offset="0.5" style="stop-color:#AA8059" id="stop456">
          </stop>
          <stop offset="1" style="stop-color:#99693D" id="stop458">
          </stop>
        </linearGradient>
        <path fill="url(#SVGID_50_)" d="M884.2,483.6L884.2,483.6L884.2,483.6z" id="path460">
        </path>
        <linearGradient id="SVGID_51_" gradientUnits="userSpaceOnUse" x1="-423.1208" y1="490.8459" x2="-418.2163" y2="489.6231" gradientTransform="matrix(-1 0 0 1 516.897 0)">
          <stop offset="0" style="stop-color:#C7AA8D" id="stop463">
          </stop>
          <stop offset="0.5" style="stop-color:#AA8059" id="stop465">
          </stop>
          <stop offset="1" style="stop-color:#99693D" id="stop467">
          </stop>
        </linearGradient>
        <path fill="url(#SVGID_51_)" d="M939.8,491.6c-0.1-0.2-0.2-0.3-0.4-0.4c-1.3-0.7-2.7-1.5-4.1-2.3c1.5,0.8,2.8,1.6,4.1,2.3    C939.6,491.3,939.7,491.4,939.8,491.6z" id="path469">
        </path>
        <linearGradient id="SVGID_52_" gradientUnits="userSpaceOnUse" x1="-423.0588" y1="492.3738" x2="-422.9954" y2="492.3579" gradientTransform="matrix(-1 0 0 1 516.897 0)">
          <stop offset="0" style="stop-color:#C7AA8D" id="stop472">
          </stop>
          <stop offset="0.5" style="stop-color:#AA8059" id="stop474">
          </stop>
          <stop offset="1" style="stop-color:#99693D" id="stop476">
          </stop>
        </linearGradient>
        <path fill="url(#SVGID_52_)" d="M939.8,492.7c0.1-0.2,0.2-0.5,0.2-0.7C940,492.2,939.9,492.5,939.8,492.7z" id="path478">
        </path>
        <linearGradient id="SVGID_53_" gradientUnits="userSpaceOnUse" x1="-373.3708" y1="428.3323" x2="-373.062" y2="428.2552" gradientTransform="matrix(-1 0 0 1 516.897 0)">
          <stop offset="0" style="stop-color:#C7AA8D" id="stop481">
          </stop>
          <stop offset="0.5" style="stop-color:#AA8059" id="stop483">
          </stop>
          <stop offset="1" style="stop-color:#99693D" id="stop485">
          </stop>
        </linearGradient>
        <path fill="url(#SVGID_53_)" d="M889.9,428.3c0.1,0,0.2,0,0.3,0C890.2,428.3,890.1,428.3,889.9,428.3z" id="path487">
        </path>
        <linearGradient id="SVGID_54_" gradientUnits="userSpaceOnUse" x1="-403.2126" y1="444.3127" x2="-390.7457" y2="441.2044" gradientTransform="matrix(-1 0 0 1 516.897 0)">
          <stop offset="0" style="stop-color:#C7AA8D" id="stop490">
          </stop>
          <stop offset="0.5" style="stop-color:#AA8059" id="stop492">
          </stop>
          <stop offset="1" style="stop-color:#99693D" id="stop494">
          </stop>
        </linearGradient>
        <path fill="url(#SVGID_54_)" d="M919.6,446.5c0-0.4-0.2-0.8-0.5-1l-10.8-6.6l10.8,6.6C919.4,445.7,919.6,446.1,919.6,446.5z" id="path496">
        </path>
        <linearGradient id="SVGID_55_" gradientUnits="userSpaceOnUse" x1="-373.0051" y1="428.4841" x2="-372.6508" y2="428.3958" gradientTransform="matrix(-1 0 0 1 516.897 0)">
          <stop offset="0" style="stop-color:#C7AA8D" id="stop499">
          </stop>
          <stop offset="0.5" style="stop-color:#AA8059" id="stop501">
          </stop>
          <stop offset="1" style="stop-color:#99693D" id="stop503">
          </stop>
        </linearGradient>
        <path fill="url(#SVGID_55_)" d="M889.5,428.6c0.1-0.1,0.3-0.2,0.4-0.2C889.8,428.4,889.6,428.4,889.5,428.6z" id="path505">
        </path>
        <linearGradient id="SVGID_56_" gradientUnits="userSpaceOnUse" x1="-335.657" y1="574.1853" x2="-334.8269" y2="573.9783" gradientTransform="matrix(-1 0 0 1 516.897 0)">
          <stop offset="0" style="stop-color:#C7AA8D" id="stop508">
          </stop>
          <stop offset="0.5" style="stop-color:#AA8059" id="stop510">
          </stop>
          <stop offset="1" style="stop-color:#99693D" id="stop512">
          </stop>
        </linearGradient>
        <path fill="url(#SVGID_56_)" d="M852.3,575.3c-0.1-0.8-0.2-1.6-0.3-2.4C852.1,573.7,852.2,574.5,852.3,575.3L852.3,575.3z" id="path514">
        </path>
        <linearGradient id="SVGID_57_" gradientUnits="userSpaceOnUse" x1="-335.7351" y1="646.4431" x2="-327.4042" y2="644.366" gradientTransform="matrix(-1 0 0 1 516.897 0)">
          <stop offset="0" style="stop-color:#C7AA8D" id="stop517">
          </stop>
          <stop offset="0.5" style="stop-color:#AA8059" id="stop519">
          </stop>
          <stop offset="1" style="stop-color:#99693D" id="stop521">
          </stop>
        </linearGradient>
        <path fill="url(#SVGID_57_)" d="M854.7,638.3c-3.4,5.4-8,10.2-12.4,14.2C847.7,648.2,851.7,643.3,854.7,638.3z" id="path523">
        </path>
        <linearGradient id="SVGID_58_" gradientUnits="userSpaceOnUse" x1="-28.6667" y1="444.7097" x2="115.2701" y2="408.8222" gradientTransform="matrix(-1 0 0 1 516.897 0)">
          <stop offset="0" style="stop-color:#C7AA8D" id="stop526">
          </stop>
          <stop offset="0.5" style="stop-color:#AA8059" id="stop528">
          </stop>
          <stop offset="1" style="stop-color:#99693D" id="stop530">
          </stop>
        </linearGradient>
        <path fill="url(#SVGID_58_)" d="M385,485c13.2-8,46.1-26.1,80.2-28.8c59.6-4.7,97.4-56.6,98-86.8c0-1.2-1.5-1.8-2.3-0.9    c-9.8,11.2-53.7,53.8-154.9,50.7c-1.3,0-1.9,1.7-0.8,2.4c6.4,4.3,20.8,12.7,38.3,14.3c1.4,0.1,1.6,2.1,0.3,2.5    c-12.9,4.4-38.2,16.1-60.6,44.6C382.4,484.2,383.7,485.7,385,485z" id="path532">
        </path>
        <linearGradient id="SVGID_59_" gradientUnits="userSpaceOnUse" x1="-16.3562" y1="391.2517" x2="73.932" y2="368.7403" gradientTransform="matrix(-1 0 0 1 516.897 0)">
          <stop offset="0" style="stop-color:#C7AA8D" id="stop535">
          </stop>
          <stop offset="0.5" style="stop-color:#AA8059" id="stop537">
          </stop>
          <stop offset="1" style="stop-color:#99693D" id="stop539">
          </stop>
        </linearGradient>
        <path fill="url(#SVGID_59_)" d="M434,411c54.3-4.9,88.9-35.2,95.4-43.7c6.3-8.3,11.1-13.7,13.7-16.4c0.7-0.8,0.1-2-1-1.9    c-44.5,4.8-56.7,19.3-69.3,34.8c-9.2,11.4-29,20.7-39.5,25.1C432.2,409.4,432.7,411.2,434,411z" id="path541">
        </path>
      </g>
    </g>
    <g id="textNAME">
      <text font-size="65" id="text544" x="701.58649" y="807.9704" style="font-size:65px;line-height:50%;font-family:Arial-BoldMT;fill:#9b6550">
        <tspan style="font-style:normal;font-variant:normal;font-weight:normal;font-stretch:normal;font-size:80px;line-height:50%;font-family:Anton;-inkscape-font-specification:'Anton, Normal';text-align:center;writing-mode:lr-tb;text-anchor:middle;;" id="text11">
          Victor  Mustain
        </tspan>
      </text>
    </g>
  </g>
</svg>