<?xml version="1.0" encoding="UTF-8" standalone="no"?>
<?xml-stylesheet type="text/css" href="https://fonts.googleapis.com/css?family=HelveticaNeueLTPro-Th"?>
<svg xmlns:dc="http://purl.org/dc/elements/1.1/" xmlns:cc="http://creativecommons.org/ns#"
     xmlns:rdf="http://www.w3.org/1999/02/22-rdf-syntax-ns#" xmlns:svg="http://www.w3.org/2000/svg"
     xmlns="http://www.w3.org/2000/svg" xmlns:xlink="http://www.w3.org/1999/xlink"
     style="enable-background:new 0 0 1600 1000;" viewBox="0 0 1600 1000" y="0px" x="0px" id="svg1682" version="1.1">
    <metadata id="metadata18">
        <rdf:RDF>
            <cc:Work rdf:about="">
                <dc:format>image/svg+xml</dc:format>
                <dc:type rdf:resource="http://purl.org/dc/dcmitype/StillImage"/>
                <dc:title></dc:title>
            </cc:Work>
        </rdf:RDF>
    </metadata>
    <defs id="defs16">
        <clipPath clipPathUnits="userSpaceOnUse" id="clipPath4152">
            <rect style="opacity:1;fill:none;fill-opacity:1;fill-rule:nonzero;stroke:#000000;stroke-width:1.21000004;stroke-linecap:butt;stroke-linejoin:miter;stroke-miterlimit:4;stroke-dasharray:none;stroke-dashoffset:0;stroke-opacity:1"
                  id="rect4154" width="348.45926" height="369.40491" x="658.83557" y="503.01712"/>
        </clipPath>
        <clipPath id="clipPath4146" clipPathUnits="userSpaceOnUse">
            <path id="path4148" d="m 686.90533,523.83142 294.38804,0 0,336.21359 -294.38804,0 z"
                  style="opacity:1;fill:none;fill-opacity:1;fill-rule:nonzero;stroke:#000000;stroke-width:1.21000004;stroke-linecap:butt;stroke-linejoin:miter;stroke-miterlimit:4;stroke-dasharray:none;stroke-dashoffset:0;stroke-opacity:1"/>
        </clipPath>
    </defs>
    <style id="style3" type="text/css">
        .st0{fill:none;stroke:#FFFFFF;stroke-width:2.9534;stroke-dasharray:11.8138,2.9534;}
        .st1{fill:#FF9966;}
        .st2{font-family:'HelveticaNeueLTPro-Th';}
        .st3{font-size:41.6307px;}
    </style>
    <image xlink:href="/designs/templates/002000101-2.jpg" style="overflow:visible;enable-background:new    ;"
           width="600" height="400" id="jd_bg" transform="matrix(2.6165 0 0 2.6165 15.0453 -23.3031)"/>
    <g id="jd_nt">
        <g id="layer1" clip-path="url(#clipPath4146)">
            <svg id="svg13" preserveAspectRatio="xMidYMid meet" height="378.2511" width="318.81458" y="507.37817"
                 x="670.05206" viewBox="0 0 318.81458 378.2511" version="1.1">
                <image xlink:href="/designs/templates/sample3.jpg" id="image21" height="378.2511" width="318.81458"/>
            </svg>
        </g>
        <g id="g8">
            <path style="fill:#ff9966" id="path10"
                  d="m 967.33566,537.41666 c -0.36174,-0.24718 -0.81389,0 -0.99475,0.49435 -0.18087,0.49436 0,1.11229 0.36172,1.35947 1.71819,0.9887 3.52678,-0.49436 4.43118,-3.46047 0.90422,-3.08972 -0.63303,-5.80865 -2.44169,-6.79736 -2.6225,-1.48305 -4.61199,0.98871 -6.05888,3.83124 l 0,-13.84189 5.69716,0 c 0.36172,0 0.72345,-0.49435 0.72345,-0.9887 0,-0.49435 -0.36173,-0.98872 -0.72345,-0.98872 l -5.69716,0 0,-5.93222 5.51629,0 c 0.36173,0 0.27129,0.12357 0.27129,-0.37077 l 0,-7.90965 c 0,-0.49435 0.0905,-1.60665 -0.27129,-1.60665 l -5.78757,0 c -0.36172,0 -1.17561,0.98871 -1.17561,1.60665 l 0,6.4266 -4.25024,0 0,-6.17942 c 0,-0.49436 -0.36173,-0.98872 -0.72345,-0.98872 -0.36173,0 -0.72345,0.49436 -0.72345,0.98872 l 0,6.17942 -8.13878,0 c 1.98947,-1.97742 2.44164,-3.2133 2.6225,-4.44918 0.18087,-1.97742 -0.45216,-3.83124 -1.62776,-5.06712 -1.08517,-1.1123 -2.44164,-1.23588 -3.70766,-0.61794 -1.08517,0.61794 -1.8086,1.48305 -2.35119,2.59536 -0.45217,1.11228 -0.54259,2.34817 -0.18087,3.46045 0.18087,0.49436 0.54259,0.74154 0.90431,0.49436 0.36172,-0.24718 0.54258,-0.74153 0.36172,-1.23588 -0.18085,-0.74154 -0.0905,-1.35947 0.0905,-1.73024 0.27128,-0.74152 0.90432,-1.35947 1.62776,-1.73023 1.08517,-0.61794 1.89905,0 2.26076,0.37076 0.72347,0.74152 1.17561,2.10101 1.08519,3.46048 -0.18087,1.48306 -0.99475,2.47176 -2.35121,3.21329 -1.4469,0.86512 -3.43637,1.1123 -5.69713,1.1123 l -3.16509,0 c -0.99475,0 -1.62776,-0.86513 -1.89904,-1.48307 -0.36174,-0.74153 -0.5426,-1.48305 -0.45217,-2.22459 0.0905,-0.61793 0.2713,-1.11229 0.63302,-1.35946 0.36174,-0.37078 0.81388,-0.37078 1.26602,-0.24718 1.08517,0.37076 1.08517,1.35946 0.99476,1.60664 -0.0905,0.49436 0.18085,0.98871 0.633,1.1123 0.36173,0.12358 0.72346,-0.24717 0.81388,-0.86512 0.0905,-1.11229 -0.18087,-3.2133 -2.17033,-3.83124 -0.81389,-0.24717 -1.71818,0 -2.35122,0.61794 -0.72344,0.61795 -1.08517,1.60666 -1.26602,2.71894 -0.18088,1.23589 0.0905,2.34819 0.72344,3.58407 0.0905,0.24718 0.2713,0.24718 0.36173,0.24718 l -6.60145,0 0,-6.4266 c 0,-0.49436 -0.45216,-1.60664 -0.81387,-1.60664 l -195.96365,0 c -0.36172,0 -0.63302,0.98871 -0.63302,1.60664 l 0,6.4266 -6.78231,0 c 0.0905,0 0.27129,-0.12359 0.36172,-0.24718 0.63303,-1.23588 0.90432,-2.47176 0.72345,-3.70764 -0.18087,-1.23589 -0.63302,-2.101 -1.26604,-2.71895 -0.72345,-0.61793 -1.53732,-0.86512 -2.35118,-0.61793 -1.98949,0.61793 -2.26078,2.71893 -2.17036,3.83123 0.0905,0.49435 0.45217,0.86511 0.81388,0.86511 0.36172,-0.12358 0.63302,-0.61794 0.63302,-1.11229 0,-0.1236 -0.0905,-1.23588 0.99473,-1.60666 0.45216,-0.12356 0.90432,0 1.26604,0.37078 0.36173,0.37076 0.54259,0.86511 0.63301,1.48306 0.0905,0.74153 -0.0905,1.35946 -0.45214,2.10099 -0.36172,0.61794 -0.90432,1.48307 -1.89906,1.48307 l -3.16507,0 c -2.26077,0 -4.34069,-0.24718 -5.69716,-1.1123 -1.35645,-0.74153 -2.26077,-1.85382 -2.35119,-3.46047 -0.0905,-1.23588 0.27128,-2.59535 1.08516,-3.33689 0.36173,-0.37077 1.17561,-0.9887 2.2608,-0.37077 0.72342,0.37077 1.35644,1.11231 1.62773,1.73024 0.18086,0.37078 0.36172,1.11229 0.0905,1.73024 -0.18087,0.49436 0,1.11229 0.36172,1.35947 0.36173,0.24718 0.81388,0 0.99473,-0.49436 0.36173,-1.11228 0.2713,-2.34817 -0.18085,-3.46045 -0.45215,-1.11231 -1.26604,-1.97742 -2.35119,-2.59536 -1.26605,-0.74154 -2.6225,-0.49436 -3.70768,0.61794 -1.1756,1.23588 -1.80862,2.96611 -1.62776,4.94353 0.0905,1.11229 0.63303,2.47176 2.62249,4.44918 l -7.86747,0 0,-6.17941 c 0,-0.49437 -0.36173,-0.98871 -0.72345,-0.98871 -0.36173,0 -0.72345,0.49434 -0.72345,0.98871 l 0,6.17941 -4.34068,0 0,-6.4266 c 0,-0.49435 -0.99474,-1.60664 -1.44689,-1.60664 l -5.78757,0 c -0.36172,0 0,0.98869 0,1.60664 l 0,7.90965 c 0,0.49436 -0.36172,0.37076 0,0.37076 l 5.78757,0 0,5.93225 -5.96843,0 c -0.36172,0 -0.72344,0.49435 -0.72344,0.98871 0,0.49434 0.36172,0.98869 0.72344,0.98869 l 5.96843,0 0,13.84188 c -1.44688,-2.9661 -3.5268,-5.43787 -6.14929,-3.83122 -1.71819,0.98869 -3.25553,3.70766 -2.35121,6.79734 0.90431,2.96613 2.71293,4.44919 4.34067,3.46048 0.36173,-0.24717 0.54259,-0.74152 0.36173,-1.35947 -0.18086,-0.49436 -0.63301,-0.74153 -0.99474,-0.49436 -0.9043,0.49436 -1.98947,-0.49434 -2.53206,-2.34817 -0.63302,-1.97742 0.2713,-3.58405 1.35647,-4.20199 1.17559,-0.74154 2.9842,-0.37078 3.97896,2.96611 0.81387,2.71895 1.08517,6.92094 1.08517,11.49371 0,0 0,0 0,0 -0.18087,1.73024 -0.81389,2.71893 -1.35649,3.2133 -0.54257,0.49434 -1.17558,0.74151 -1.71817,0.61794 -0.45215,-0.1236 -0.81388,-0.37077 -1.08518,-0.86512 -0.27128,-0.49436 -0.36171,-1.1123 -0.27128,-1.73024 0.27128,-1.48306 0.99474,-1.48306 1.17559,-1.35947 0.36173,0.12359 0.72346,-0.24718 0.81389,-0.86511 0.0904,-0.49436 -0.18086,-0.98871 -0.63302,-1.11231 -0.81388,-0.12358 -2.35119,0.24718 -2.80335,2.96611 -0.18087,1.11232 0,2.3482 0.45216,3.21331 0.45214,0.98871 1.17559,1.48306 1.98947,1.73023 0.18085,0 0.36172,0.12359 0.54258,0.12359 0.81387,0 1.53731,-0.37076 2.26078,-0.98871 0.18085,-0.12357 0.36172,-0.37076 0.54258,-0.61793 0,1.23588 0,1.60664 0,2.84252 0,1.73025 0,4.32559 0,4.32559 l -4.79283,0 c -0.36172,0 0,2.22461 0,2.71895 l 0,266.95065 c 0,0.49437 -0.36172,0 0,0 l 4.79283,0 c 0,1.97742 0,3.95482 0,5.68506 0,1.23589 0,2.71894 0,3.95483 -0.18086,-0.24718 -0.36173,-0.37076 -0.54258,-0.49436 -0.90433,-0.86512 -1.89905,-1.11229 -2.80336,-0.86512 -0.90431,0.24718 -1.53733,0.86512 -1.98947,1.73024 -0.45216,0.9887 -0.63303,2.10101 -0.45216,3.2133 0.36172,2.34817 1.62775,2.96612 2.53206,2.96612 0.0903,0 0.18086,0 0.27129,0 0.36172,-0.12359 0.63302,-0.61795 0.63302,-1.11229 -0.0905,-0.49437 -0.45216,-0.86513 -0.81389,-0.86513 -0.18085,0 -0.99473,0 -1.17559,-1.35947 -0.0903,-0.61795 0,-1.23588 0.27128,-1.73023 0.2713,-0.49435 0.63303,-0.74153 1.08518,-0.86512 0.54259,-0.12359 1.1756,0.12359 1.71817,0.61794 0.5426,0.49435 1.17562,1.48306 1.35649,3.21329 0,0 0,0 0,0 -0.0905,4.69636 -0.2713,8.89836 -1.08517,11.49371 -0.99476,3.33689 -2.80337,3.70765 -3.97896,2.96612 -1.17562,-0.61794 -1.98949,-2.34817 -1.35647,-4.202 0.54259,-1.85382 1.62776,-2.84253 2.53206,-2.34817 0.36173,0.24717 0.81388,0 0.90432,-0.49436 0.18087,-0.49434 0,-1.11229 -0.36173,-1.23589 -1.71818,-0.9887 -3.5268,0.49437 -4.43111,3.46049 -0.90432,3.08971 0.45214,5.80865 2.17034,6.79734 0.54259,0.37077 1.44688,0.49436 1.98947,0.49436 1.89906,0 3.07467,-1.97742 4.52155,-4.32559 l 0,13.10035 -5.96843,0 c -0.36172,0 -0.72344,0.49435 -0.72344,0.98871 0,0.49435 0.36172,0.9887 0.72344,0.9887 l 5.96843,0 0,5.93224 -5.78757,0 c -0.36172,0 0,0.61795 0,1.1123 l 0,7.90965 c 0,0.49435 -0.36172,0.86511 0,0.86511 l 5.78757,0 c 0.36171,0 1.44689,-0.24716 1.44689,-0.86511 l 0,-7.16812 4.34068,0 0,6.92094 c 0,0.49435 0.36172,0.98869 0.72345,0.98869 0.36172,0 0.72345,-0.49434 0.72345,-0.98869 l 0,-6.92094 7.86747,0 c -1.98946,0 -2.44162,3.58404 -2.62249,4.81994 -0.18086,1.97741 0.45216,4.07841 1.62776,5.3143 0.63302,0.74153 1.44691,1.11228 2.26078,1.11228 0.45213,0 0.99473,-0.12358 1.4469,-0.37075 1.08515,-0.61794 1.8086,-1.48308 2.35119,-2.59536 0.45215,-1.11229 0.54258,-2.34817 0.18085,-3.46047 -0.18085,-0.49435 -0.54258,-0.74153 -0.99473,-0.49435 -0.36172,0.24718 -0.54259,0.74153 -0.36172,1.23588 0.18086,0.74154 0.0904,1.35947 -0.0905,1.73023 -0.27129,0.74153 -0.90431,1.35947 -1.62773,1.73025 -1.08519,0.61794 -1.89907,0 -2.2608,-0.37078 -0.72343,-0.74154 -1.1756,-2.10099 -1.08516,-3.46047 0.18086,-1.48306 0.99474,-2.84254 2.35119,-3.58406 1.4469,-0.86511 3.43639,-1.48305 5.69716,-1.48305 l 3.16507,0 c 0.99474,0 1.62775,1.23588 1.89906,1.85383 0.36172,0.74152 0.54258,1.73022 0.45214,2.47176 -0.0905,0.61794 -0.27128,1.11229 -0.63301,1.48306 -0.36172,0.37077 -0.81388,0.49434 -1.26604,0.37077 -1.08517,-0.37077 -1.08517,-1.35949 -0.99473,-1.60665 0.0905,-0.49437 -0.18086,-0.98872 -0.63302,-1.11232 -0.36171,-0.12356 -0.72345,0.24719 -0.81388,0.86514 -0.0903,1.11229 0.18087,3.21329 2.17036,3.83123 0.18084,0.12359 0.45214,0.12359 0.633,0.12359 0.633,0 1.1756,-0.24719 1.71818,-0.74153 0.72345,-0.61794 1.08517,-1.60665 1.26604,-2.71895 0.18087,-1.23588 -0.0905,-2.71894 -0.72345,-3.95482 -0.0905,-0.24717 -0.27129,-0.61794 -0.36172,-0.61794 l 6.78231,0 0,7.16813 c 0,0.49434 0.18086,0.86511 0.63302,0.86511 l 195.96365,0 c 0.36171,0 0.81387,-0.24719 0.81387,-0.86511 l 0,-7.16813 6.60145,0 c -0.0903,0 -0.27129,0.49435 -0.36173,0.61794 -0.63301,1.23588 -0.90432,2.59534 -0.72344,3.95482 0.18085,1.23589 0.63302,2.10101 1.26602,2.84255 0.54259,0.49434 1.08518,0.74151 1.71819,0.74151 0.18086,0 0.45216,0 0.63303,-0.12358 1.98946,-0.61793 2.26076,-2.71894 2.17033,-3.83123 -0.0905,-0.49436 -0.45215,-0.86513 -0.81388,-0.86513 -0.36171,0.12359 -0.633,0.61795 -0.633,1.1123 0,0.12358 0.0905,1.23588 -0.99476,1.60664 -0.45214,0.1236 -0.90428,0 -1.26602,-0.37076 -0.36172,-0.37076 -0.54259,-0.86512 -0.63302,-1.48305 -0.0904,-0.74154 0.0905,-1.73025 0.45217,-2.47178 0.36172,-0.61793 0.90429,-1.85381 1.89904,-1.85381 l 3.16509,0 c 2.26076,0 4.34067,0.61793 5.69713,1.48306 1.35646,0.74152 2.26076,2.10099 2.35121,3.58406 0.0905,1.23588 -0.27131,2.59533 -1.08519,3.46046 -0.36171,0.37077 -1.17559,0.98871 -2.26076,0.37077 -0.72344,-0.37077 -1.35648,-0.98872 -1.62776,-1.73024 -0.18085,-0.37076 -0.36173,-0.98871 -0.0905,-1.73023 0.18086,-0.49436 0,-1.11229 -0.36172,-1.23588 -0.36172,-0.24719 -0.81389,0 -0.90431,0.49434 -0.36172,1.1123 -0.2713,2.34818 0.18087,3.46048 0.45214,1.11229 1.26602,1.97742 2.35119,2.59535 0.45216,0.24717 0.99475,0.37077 1.4469,0.37077 0.81387,0 1.53731,-0.37077 2.26076,-0.9887 1.1756,-1.23589 1.80863,-3.33689 1.62776,-5.3143 -0.0905,-1.1123 -0.63303,-4.81994 -2.6225,-4.81994 l 8.13878,0 0,6.92094 c 0,0.49435 0.36172,0.98869 0.72345,0.98869 0.36172,0 0.72345,-0.49434 0.72345,-0.98869 l 0,-6.92094 4.34067,0 0,7.16811 c 0,0.49434 0.81389,0.86512 1.1756,0.86512 l 5.78757,0 c 0.36173,0 0.27131,-0.24718 0.27131,-0.86512 l 0,-7.90964 c 0,-0.49435 0.0905,-1.1123 -0.27131,-1.1123 l -5.51626,0 0,-5.93224 5.69713,0 c 0.36172,0 0.72345,-0.49436 0.72345,-0.9887 0,-0.49436 -0.36173,-0.98872 -0.72345,-0.98872 l -5.69713,0 0,-13.10035 c 1.44689,2.34818 2.53204,4.32559 4.4311,4.32559 0.54258,0 1.17561,-0.1236 1.71819,-0.49434 1.71817,-0.98872 3.16505,-3.70765 2.26083,-6.79736 -0.9044,-2.96611 -2.71299,-4.44919 -4.43118,-3.46047 -0.36172,0.24718 -0.54259,0.74153 -0.36172,1.23588 0.18086,0.49435 0.54259,0.74153 0.99475,0.49435 0.90429,-0.49435 1.98947,0.49435 2.532,2.34818 0.63312,1.97741 -0.27124,3.58406 -1.3564,4.202 -1.1756,0.74154 -2.98422,0.37076 -3.97896,-2.96612 -0.81388,-2.71894 -1.08516,-6.92094 -1.08516,-11.49371 0,0 0,0 0,0 0.18085,-1.73023 0.81387,-2.71894 1.35645,-3.21329 0.54259,-0.49435 1.1756,-0.74153 1.71818,-0.61794 0.45215,0.12359 0.81389,0.37076 1.08518,0.86511 0.27128,0.49436 0.36173,1.11229 0.27128,1.73024 -0.27128,1.48305 -0.99473,1.48305 -1.1756,1.35947 -0.36172,-0.12359 -0.72344,0.24717 -0.81387,0.86511 -0.0905,0.49435 0.18086,0.98872 0.63301,1.1123 0.0905,0 0.18086,0 0.27131,0 0.81387,0 2.0799,-0.61795 2.53205,-2.96612 0.18087,-1.11229 0,-2.34817 -0.45215,-3.21329 -0.45216,-0.9887 -1.17561,-1.48306 -1.98948,-1.73024 -0.90431,-0.24718 -1.98948,0.12359 -2.80337,0.9887 -0.18085,0.24718 -0.36171,0.37078 -0.54258,0.61795 0,-1.23589 0,-2.96612 0,-4.202 0,-1.73024 0,-3.70765 0,-5.68506 l 4.79285,0 c 0.36172,0 0.27128,0.49435 0.27128,0 l 0,-266.95065 c 0,-0.49435 0.0905,-2.71895 -0.27128,-2.71895 l -4.79285,0 c 0,0 0,-2.59535 0,-4.32559 0,-1.23588 0,-2.101 0,-3.33688 0.18087,0.24718 0.36173,0.61794 0.54258,0.86511 0.72346,0.74154 1.53733,1.11231 2.26078,1.11231 0.18086,0 0.36172,0 0.54259,0 0.90431,-0.24719 1.53732,-0.74154 1.98948,-1.73024 0.45215,-0.98871 0.63302,-2.10101 0.45215,-3.2133 -0.45215,-2.71894 -1.98947,-3.0897 -2.80336,-2.96612 -0.36173,0.12359 -0.63301,0.61795 -0.63301,1.1123 0.0904,0.49435 0.45215,0.86511 0.81387,0.86511 0.18087,0 0.99474,0 1.1756,1.35947 0.0905,0.61793 0,1.23588 -0.27128,1.73025 -0.27129,0.49434 -0.63303,0.74151 -1.08518,0.86511 -0.54258,0.12359 -1.17559,-0.1236 -1.71818,-0.61794 -0.54258,-0.49435 -1.1756,-1.48305 -1.35645,-3.21329 0,0 0,0 0,0 0.0905,-4.69636 0.27128,-8.89836 1.08516,-11.49372 0.99474,-3.33688 2.80336,-3.70765 3.97896,-2.96611 1.1756,0.61794 1.98952,2.34817 1.3564,4.202 -0.54253,1.73024 -1.62771,2.71894 -2.532,2.22459 z m -11.84645,289.07295 0,39.67183 -28.39527,0 c -0.36174,0 -0.63303,0.61794 -0.63303,1.1123 l 0,6.92094 c -2.89378,0 -5.96844,-0.37077 -7.68663,-1.23588 -1.62773,-0.86511 -2.80336,-2.2246 -3.34594,-3.95482 -0.36172,-1.23589 -0.45214,-2.71894 0,-3.95483 0.18085,-0.74153 0.72345,-1.97742 1.62776,-2.71894 0.81387,-0.61793 1.80863,-0.61793 2.89379,0 0.72344,0.37076 1.1756,0.98869 1.44688,1.60664 0.18088,0.61795 0.18088,1.35948 0,2.10101 -0.18086,0.49435 0,1.11229 0.36173,1.35947 0.36173,0.24717 0.81387,0 0.99475,-0.49436 0.3617,-1.35947 0.3617,-2.59535 0,-3.70764 -0.36171,-1.11231 -1.1756,-1.97742 -2.17034,-2.59537 -1.89905,-1.11228 -3.34595,-0.49434 -4.15981,0.1236 -0.99476,0.74153 -1.80863,1.97741 -2.26077,3.58406 -0.54259,1.73024 -0.54259,3.58405 0,5.43788 0.45214,1.35948 1.26601,2.34819 3.2555,4.32559 l -176.52102,0 c 1.89906,-1.9774 2.80336,-3.08971 3.25552,-4.32559 0.54258,-1.73023 0.54258,-3.70764 0,-5.43788 -0.45216,-1.60665 -1.26603,-2.84253 -2.26078,-3.58406 -0.90431,-0.61794 -2.26076,-1.23588 -4.15981,-0.1236 -0.99475,0.61795 -1.80862,1.48306 -2.17035,2.59537 -0.36172,1.11229 -0.36172,2.47176 0,3.70764 0.18086,0.49436 0.54258,0.74153 0.99475,0.49436 0.36172,-0.24718 0.54258,-0.74154 0.36172,-1.23589 -0.2713,-0.74153 -0.2713,-1.48305 0,-2.10099 0.27129,-0.61795 0.72345,-1.23589 1.44688,-1.60666 1.08518,-0.61794 2.07993,-0.61794 2.8938,0 0.90431,0.74154 1.44689,1.97742 1.62776,2.71894 0.36172,1.23588 0.36172,2.71894 0,3.95484 -0.5426,1.73023 -1.62776,2.96612 -3.25551,3.95482 -1.71819,0.9887 -4.70241,1.23588 -7.5962,1.23588 l 0,-6.92094 c 0,-0.49436 -0.45216,-1.11229 -0.81388,-1.11229 l -28.21442,0 0,-39.67184 c 0,-0.49435 -0.99474,-1.97741 -1.44689,-1.97741 l -4.34067,0 0,-5.43788 c 0,-1.73024 0,-3.33689 0.36171,-4.44918 0.63301,-2.22461 1.44689,-3.70766 2.71293,-4.44918 0.9043,-0.49436 1.89904,-0.49436 2.80336,0 0.54258,0.24718 1.35645,0.98869 1.89904,2.22457 0.45215,1.11232 0.45215,2.47178 0,3.95485 -0.27129,0.9887 -0.72346,1.60664 -1.17559,1.9774 -0.45216,0.24718 -0.99476,0.24718 -1.53734,0 -0.36171,-0.24717 -0.81387,0 -0.99473,0.49435 -0.18087,0.49436 0,1.1123 0.36173,1.35948 0.99472,0.49435 1.89904,0.49435 2.71292,0 0.81387,-0.49435 1.44689,-1.60665 1.89904,-2.96612 0.81387,-2.59535 0.36173,-4.57277 -0.0905,-5.68506 -0.5426,-1.35947 -1.44691,-2.47176 -2.6225,-3.08971 -1.26605,-0.74152 -2.35121,-0.74152 -3.61724,0 -0.9043,0.49436 -2.62249,1.60665 -2.62249,3.70765 l 0,-238.52536 c 0,2.2246 1.71819,3.21329 2.62249,3.70766 0.63301,0.37077 1.1756,0.61794 1.80862,0.61794 0.63301,0 1.26603,-0.1236 1.89905,-0.49436 1.1756,-0.61795 2.0799,-1.73023 2.62249,-3.0897 0.45216,-1.23588 0.90431,-3.08971 0.0905,-5.68507 -0.45215,-1.35946 -1.08517,-2.47177 -1.89905,-2.96611 -0.81387,-0.49436 -1.80862,-0.49436 -2.71292,0 -0.36171,0.24718 -0.54259,0.74152 -0.36171,1.23588 0.18085,0.49435 0.54258,0.74152 0.99472,0.49435 0.54258,-0.37076 1.08517,-0.37076 1.53733,0 0.45216,0.37077 0.90431,0.98871 1.17559,1.97741 0.45217,1.48307 0.45217,2.84253 0,3.95483 -0.54257,1.23589 -1.44688,1.97741 -1.98946,2.22459 -0.90432,0.49436 -1.98949,0.49436 -2.89379,0 -1.26603,-0.74153 -1.89905,-2.22459 -2.53208,-4.44918 -0.36171,-1.11229 -0.36171,-2.71894 -0.36171,-4.44918 l 0,-8.15682 4.34068,0 c 0.36172,0 1.4469,1.35947 1.4469,0.74153 l 0,-40.41337 28.21441,0 c 0.36173,0 0.81388,0.1236 0.81388,-0.37076 l 0,-6.92094 c 2.89379,0 5.878,0.37077 7.5962,1.23588 1.62774,0.86511 2.71292,2.2246 3.25551,3.95483 0.36172,1.23588 0.36172,2.71893 0,3.95482 -0.18086,0.74153 -0.72345,1.9774 -1.62777,2.71894 -0.81386,0.61794 -1.80861,0.61794 -2.89378,0 -0.72344,-0.37076 -1.1756,-0.98872 -1.44689,-1.60665 -0.18086,-0.61795 -0.18086,-1.35946 0,-2.101 0.18086,-0.49434 0,-1.11229 -0.36173,-1.23588 -0.36173,-0.24718 -0.81386,0 -0.90431,0.49436 -0.36172,1.35947 -0.36172,2.59535 0,3.70763 0.36172,1.11231 1.17561,1.97742 2.17035,2.59536 0.81387,0.49435 1.4469,0.61795 2.07992,0.61795 0.90429,0 1.62774,-0.37077 2.07989,-0.74153 0.99473,-0.74154 1.80863,-2.101 2.26078,-3.58406 0.54259,-1.73023 0.54259,-3.95483 0,-5.80865 -0.45215,-1.35947 -1.26605,-2.71895 -3.2555,-4.69637 l 176.43057,0 c -1.89907,1.97742 -2.80335,3.46049 -3.25551,4.69637 -0.5426,1.73023 -0.5426,3.83124 0,5.56147 0.45216,1.60665 1.26603,2.96612 2.26076,3.70765 0.54259,0.37077 1.17561,0.74152 2.07991,0.74152 0.63303,0 1.35647,-0.12358 2.07991,-0.61793 0.99475,-0.61795 1.80862,-1.48306 2.17034,-2.59536 0.36173,-1.11229 0.36173,-2.47176 0,-3.70765 -0.18085,-0.49435 -0.54258,-0.74154 -0.9043,-0.49435 -0.36172,0.24718 -0.5426,0.74153 -0.36172,1.23589 0.2713,0.74153 0.2713,1.48306 0,2.101 -0.27129,0.61795 -0.72347,1.23588 -1.4469,1.60664 -1.08516,0.61793 -2.07992,0.61793 -2.89379,0 -0.90431,-0.74153 -1.44689,-1.97741 -1.62777,-2.71894 -0.36171,-1.2359 -0.36171,-2.71894 0,-3.95483 0.5426,-1.73023 1.7182,-2.96612 3.34595,-3.95482 1.71819,-0.9887 4.79285,-1.23588 7.68662,-1.23588 l 0,6.92094 c 0,0.49435 0.18088,0.37076 0.63302,0.37076 l 28.39529,0 0,40.41336 c 0,0.49437 0.81388,-0.74151 1.17561,-0.74151 l 4.61196,0 0,8.15682 c 0,1.73023 -0.18086,3.33688 -0.45213,4.44917 -0.63304,2.22459 -1.53736,3.70764 -2.71295,4.44919 -0.9043,0.49435 -1.89905,0.49435 -2.80335,0 -0.54259,-0.24718 -1.44689,-0.98872 -1.89905,-2.2246 -0.45215,-1.11229 -0.45215,-2.47177 0,-3.95483 0.2713,-0.9887 0.72345,-1.60665 1.1756,-1.9774 0.45216,-0.24718 0.99476,-0.24718 1.53733,0 0.36172,0.24717 0.81389,0 0.99474,-0.49436 0.18087,-0.49435 0,-1.11229 -0.36172,-1.23588 -0.99474,-0.49435 -1.89904,-0.49435 -2.71294,0 -0.81387,0.49436 -1.44687,1.60665 -1.89905,2.96613 -0.81387,2.59534 -0.36172,4.57276 0.0905,5.68505 0.54259,1.35947 1.44688,2.47177 2.6225,3.08971 0.63301,0.37077 1.26602,0.49434 1.98946,0.49434 0.72344,0 1.17562,-0.24717 1.80862,-0.61793 0.90431,-0.49435 2.80336,-1.60665 2.80336,-3.70766 l 0,238.27818 c 0,-2.22458 -1.89905,-3.21329 -2.80336,-3.70764 -1.26604,-0.74154 -2.62249,-0.74154 -3.88853,0 -1.17559,0.61794 -2.07991,1.73024 -2.6225,3.08969 -0.45214,1.23588 -0.81386,3.08971 -0.0905,5.68507 0.45215,1.35946 1.08519,2.47177 1.89905,2.96612 0.81387,0.49436 1.80861,0.49436 2.71292,0 0.36172,-0.24718 0.54259,-0.74152 0.36172,-1.35947 -0.18087,-0.49435 -0.54259,-0.74153 -0.9043,-0.49435 -0.54257,0.37076 -1.08517,0.37076 -1.53733,0 -0.45215,-0.37077 -0.9043,-0.98872 -1.1756,-1.97741 -0.45216,-1.48306 -0.45216,-2.84254 0,-3.95482 0.54259,-1.23588 1.44691,-1.97742 1.98949,-2.22459 0.9043,-0.49435 1.98946,-0.49435 2.89378,0 1.26603,0.74152 1.98948,2.22459 2.62249,4.44916 0.36172,1.11231 0.45216,2.71894 0.45216,4.44918 l 0,5.43789 -4.61197,0 c -0.63302,0.24717 -1.4469,1.60665 -1.4469,2.22459 z m 5.78757,-269.79319 -4.34067,0 0,-37.69442 4.34067,0 0,37.69442 z m 1.53732,-53.51371 4.34069,0 0,5.93224 -4.34069,0 0,-5.93224 z m -1.53732,7.90965 0,5.93222 -4.34067,0 0,-5.93222 4.34067,0 z m -5.78757,0 0,5.93222 -27.5814,0 0,-5.31428 c 1.4469,0 2.62249,-0.24718 3.97894,-0.24718 2.98423,0.12359 5.87802,-0.37076 8.50053,-0.37076 l 15.10193,0 z m -223.45462,-7.90965 194.51676,0 0,5.93224 -194.51676,0 0,-5.93224 z m -14.28807,7.90965 c 2.62249,0 5.69715,0.49435 8.68137,0.37076 1.35647,0 2.62248,0.24718 4.06937,0.24718 l 0,5.31428 -27.58141,0 0,-5.93222 14.83067,0 z m -26.40582,-1.97741 0,-5.93224 4.34069,0 0,5.93224 -4.34069,0 z m 5.78758,1.97741 4.34069,0 0,5.93222 -4.34069,0 0,-5.93222 z m 4.43112,7.90964 0,37.69442 -4.34067,0 0,-37.69442 4.34067,0 z m -10.2187,305.51019 0,-265.83835 3.43638,0 c 0,3.95482 -0.54258,6.303 0.90431,8.28041 l 0,252.12007 c -1.44689,1.97742 -0.90431,3.46048 -0.90431,5.43787 l -3.43638,0 z m 5.78758,1.97742 4.34069,0 0,39.67183 -4.34069,0 0,-39.67183 z m -1.44689,55.49113 -4.34069,0 0,-5.93223 4.34069,0 0,5.93223 z m 1.44689,-7.90965 0,-5.93224 4.34069,0 0,5.93224 -4.34069,0 z m 5.87801,0 0,-5.93224 27.58142,0 0,6.05583 c -1.44691,0 -2.71294,-0.12359 -4.0694,-0.12359 -2.98422,-0.12359 -5.96844,0 -8.68135,0 l -14.83067,0 z m 223.45462,7.90965 -194.42632,0 0,-5.93223 194.51676,0 0,5.93223 z m 14.01678,-7.90965 c -2.6225,0 -5.60671,-0.12359 -8.5005,0 -1.35646,0 -2.53206,0.12359 -3.97895,0.12359 l 0,-6.05583 27.58141,0 0,5.93224 -15.10196,0 z m 26.6771,1.97742 0,5.93223 -4.34069,0 0,-5.93223 4.34069,0 z m -5.87801,-1.97742 -4.34067,0 0,-5.93224 4.34067,0 0,5.93224 z m -4.34067,-7.90965 0,-39.67183 4.34067,0 0,39.67183 -4.34067,0 z m 10.21868,-307.4876 0,265.83835 -3.61724,0 c 0,-1.97739 -0.72345,-3.58405 -0.72345,-5.43787 l 0,-252.12007 c 0,-1.97741 0.63304,-4.202 0.72345,-8.28041 l 3.61724,0 z"
                  class="st1"/>
        </g>
    </g>
</svg>
 


