<?xml version="1.0" encoding="utf-8"?>
<svg xmlns:dc="http://purl.org/dc/elements/1.1/" xmlns:cc="http://creativecommons.org/ns#" xmlns:rdf="http://www.w3.org/1999/02/22-rdf-syntax-ns#" xmlns:svg="http://www.w3.org/2000/svg" xmlns="http://www.w3.org/2000/svg" xmlns:xlink="http://www.w3.org/1999/xlink" version="1.1" x="0px" y="0px" width="1600" height="1000" viewBox="0 0 1600 1000" enable-background="new 0 0 1600 1000" xml:space="preserve" id="svg2">
  <metadata id="metadata725">
    <rdf:RDF>
      <cc:Work rdf:about="">
        <dc:format>
          image/svg+xml
        </dc:format>
        <dc:type rdf:resource="http://purl.org/dc/dcmitype/StillImage">
        </dc:type>
        <dc:title>
        </dc:title>
      </cc:Work>
    </rdf:RDF>
  </metadata>
  <defs id="defs723">
    <clipPath id="clipPath4497" clipPathUnits="userSpaceOnUse">
      <path id="jd_bd" d="m 420.8287,129.97214 759.6982,0 0,721.87097 -759.6982,0 z" style="opacity:1;fill:none;fill-opacity:1;fill-rule:nonzero;stroke:#ffc300;stroke-width:2.20000005;stroke-linecap:butt;stroke-linejoin:miter;stroke-miterlimit:4;stroke-dasharray:none;stroke-dashoffset:0;stroke-opacity:1">
      </path>
    </clipPath>
  </defs>
  <image xlink:href="/designs/templates/002000101-1.jpg" overflow="visible" enable-background="new    " width="600" height="400" id="jd_bg" transform="matrix(2.6667,0,0,2.5,2.441406e-4,-2.441406e-4)" style="overflow:visible">
  </image>
  <g clip-path="url(#clipPath4497)" id="jd_nt">
    <polygon style="fill:#050709" points="451.3,845.2 451.3,834.7 879.8,833.1 879.9,843.6 " id="polygon9">
    </polygon>
    <polygon style="fill:#ffffff" points="451.3,836.7 451.3,826.2 879.8,824.7 879.8,835.2 " id="polygon11">
    </polygon>
    <polygon style="fill:#050709" points="451.3,826.4 451.2,815.8 879.7,814.3 879.8,824.8 " id="polygon13">
    </polygon>
    <polygon style="fill:#c1b49a" points="451.2,815.8 451.2,805.3 879.7,803.8 879.7,814.3 " id="polygon15">
    </polygon>
    <rect style="fill:#050709" x="451.20001" y="794.20001" transform="matrix(1,-0.00358244,0.00358244,1,-2.8597,2.389)" width="428.5" height="10.5" id="rect17">
    </rect>
    <polygon style="fill:#c1b49a" points="451.2,795 451.1,784.4 879.6,782.9 879.7,793.4 " id="polygon19">
    </polygon>
    <polygon style="fill:#050709" points="451.1,784.6 451.1,774.1 879.6,772.6 879.6,783.1 " id="polygon21">
    </polygon>
    <polygon style="fill:#c1b49a" points="451.1,774.1 451,763.6 879.6,762 879.6,772.6 " id="polygon23">
    </polygon>
    <rect style="fill:#050709" x="451" y="752.40002" transform="matrix(1,-0.00357102,0.00357102,1,-2.7015,2.3806)" width="428.5" height="10.5" id="rect25">
    </rect>
    <rect style="fill:#c1b49a" x="451" y="741.90002" transform="matrix(1,-0.00358244,0.00358244,1,-2.6724,2.388)" width="428.5" height="10.5" id="rect27">
    </rect>
    <polygon style="fill:#050709" points="451,742.8 450.9,732.3 879.5,730.8 879.5,741.3 " id="polygon29">
    </polygon>
    <rect style="fill:#c1b49a" x="450.89999" y="721" transform="matrix(1,-0.00357552,0.00357552,1,-2.5927,2.383)" width="428.5" height="10.5" id="rect31">
    </rect>
    <polygon style="fill:#050709" points="450.9,722 450.9,711.4 879.4,709.9 879.4,720.4 " id="polygon33">
    </polygon>
    <polygon style="fill:#c1b49a" points="450.9,711.4 450.8,700.9 879.3,699.4 879.4,709.9 " id="polygon35">
    </polygon>
    <rect style="fill:#050709" x="450.79999" y="689.79999" transform="matrix(1,-0.00358471,0.00358471,1,-2.4873,2.3885)" width="428.5" height="10.5" id="rect37">
    </rect>
    <polygon style="fill:#c1b49a" points="450.8,690.6 450.7,680 879.3,678.5 879.3,689 " id="polygon39">
    </polygon>
    <polygon style="fill:#050709" points="450.7,680.2 450.7,669.7 879.2,668.1 879.3,678.7 " id="polygon41">
    </polygon>
    <polygon style="fill:#c1b49a" points="450.7,669.7 450.7,659.2 879.2,657.6 879.2,668.1 " id="polygon43">
    </polygon>
    <polygon style="fill:#050709" points="450.7,659.3 450.6,648.8 879.2,647.3 879.2,657.8 " id="polygon45">
    </polygon>
    <polygon style="fill:#c1b49a" points="450.6,648.8 450.6,638.3 879.1,636.8 879.2,647.3 " id="polygon47">
    </polygon>
    <rect style="fill:#050709" x="450.60001" y="627.20001" transform="matrix(1,-0.0035893,0.0035893,1,-2.2657,2.3904)" width="428.5" height="10.5" id="rect49">
    </rect>
    <polygon style="fill:#c1b49a" points="450.6,627.9 450.5,617.4 879,615.9 879.1,626.4 " id="polygon51">
    </polygon>
    <polygon style="fill:#050709" points="450.5,617.6 450.5,607 879,605.5 879,616 " id="polygon53">
    </polygon>
    <polygon style="fill:#c1b49a" points="450.5,607 450.4,596.5 879,595 879,605.5 " id="polygon55">
    </polygon>
    <polygon style="fill:#050709" points="450.4,596.7 450.4,586.2 878.9,584.6 879,595.1 " id="polygon57">
    </polygon>
    <polygon style="fill:#c1b49a" points="450.4,586.2 450.4,575.6 878.9,574.1 878.9,584.6 " id="polygon59">
    </polygon>
    <rect style="fill:#050709" x="450.29999" y="564.5" transform="matrix(1,-0.00358242,0.00358242,1,-2.0369,2.3846)" width="428.5" height="10.5" id="rect61">
    </rect>
    <rect style="fill:#c1b49a" x="450.29999" y="554" transform="matrix(1,-0.00358467,0.00358467,1,-2.0005,2.3859)" width="428.5" height="10.5" id="rect63">
    </rect>
    <polygon style="fill:#050709" points="450.3,554.9 450.2,544.4 878.8,542.9 878.8,553.4 " id="polygon65">
    </polygon>
    <polygon style="fill:#c1b49a" points="450.2,544.4 450.2,533.9 878.7,532.3 878.8,542.9 " id="polygon67">
    </polygon>
    <rect style="fill:#050709" x="450.20001" y="522.79999" transform="matrix(1,-0.00358013,0.00358013,1,-1.8861,2.3823)" width="428.5" height="10.5" id="rect69">
    </rect>
    <polygon style="fill:#c1b49a" points="450.2,523.5 450.1,513 878.7,511.5 878.7,522 " id="polygon71">
    </polygon>
    <polygon style="fill:#050709" points="450.1,513.2 450.1,502.6 878.6,501.1 878.7,511.6 " id="polygon73">
    </polygon>
    <polygon style="fill:#c1b49a" points="450.1,502.6 450.1,492.1 878.6,490.6 878.6,501.1 " id="polygon75">
    </polygon>
    <polygon style="fill:#050709" points="450.1,492.3 450,481.8 878.6,480.2 878.6,490.7 " id="polygon77">
    </polygon>
    <polygon style="fill:#c1b49a" points="450,481.8 450,471.2 878.5,469.7 878.6,480.2 " id="polygon79">
    </polygon>
    <polygon style="fill:#050709" points="450,471.4 450,460.9 878.5,459.3 878.5,469.9 " id="polygon81">
    </polygon>
    <polygon style="fill:#c1b49a" points="450,460.9 449.9,450.4 878.4,448.8 878.5,459.3 " id="polygon83">
    </polygon>
    <polygon style="fill:#050709" points="449.9,450.5 449.9,440 878.4,438.5 878.4,449 " id="polygon85">
    </polygon>
    <polygon style="fill:#c1b49a" points="449.9,440 449.8,429.5 878.4,427.9 878.4,438.5 " id="polygon87">
    </polygon>
    <polygon style="fill:#050709" points="449.8,429.6 449.8,419.1 878.3,417.6 878.4,428.1 " id="polygon89">
    </polygon>
    <polygon style="fill:#c1b49a" points="449.8,419.1 449.8,408.6 878.3,407.1 878.3,417.6 " id="polygon91">
    </polygon>
    <rect style="fill:#050709" x="449.70001" y="397.5" transform="matrix(1,-0.00356874,0.00356874,1,-1.433,2.3723)" width="428.5" height="10.5" id="rect93">
    </rect>
    <polygon style="fill:#c1b49a" points="449.7,398.2 449.7,387.7 878.2,386.2 878.3,396.7 " id="polygon95">
    </polygon>
    <polygon style="fill:#050709" points="449.7,387.9 449.6,377.4 878.2,375.8 878.2,386.3 " id="polygon97">
    </polygon>
    <polygon style="fill:#c1b49a" points="449.6,377.4 449.6,366.8 878.1,365.3 878.2,375.8 " id="polygon99">
    </polygon>
    <polygon style="fill:#050709" points="449.6,367 449.6,356.5 878.1,354.9 878.1,365.5 " id="polygon101">
    </polygon>
    <polygon style="fill:#ffffff" points="449.6,356.5 449.5,346 878.1,344.4 878.1,354.9 " id="polygon103">
    </polygon>
    <polygon style="fill:#050709" points="449.5,346.1 449.5,335.6 878,334.1 878.1,344.6 " id="polygon105">
    </polygon>
    <polygon style="fill:#ffffff" points="449.5,335.6 449.5,325.1 878,323.5 878,334.1 " id="polygon107">
    </polygon>
    <polygon style="fill:#050709" points="449.5,325.2 449.4,314.7 878,313.2 878,323.7 " id="polygon109">
    </polygon>
    <polygon style="fill:#ffffff" points="449.4,314.7 449.4,304.2 877.9,302.7 878,313.2 " id="polygon111">
    </polygon>
    <polygon style="fill:#050709" points="449.4,304.4 449.4,293.8 877.9,292.3 877.9,302.8 " id="polygon113">
    </polygon>
    <rect style="fill:#ffffff" x="449.29999" y="282.60001" transform="matrix(1,-0.003579,0.003579,1,-1.0259,2.3768)" width="428.5" height="10.5" id="rect115">
    </rect>
    <polygon style="fill:#050709" points="449.3,283.5 449.3,273 877.8,271.4 877.8,281.9 " id="polygon117">
    </polygon>
    <polygon style="fill:#ffffff" points="449.3,273 449.2,262.4 877.8,260.9 877.8,271.4 " id="polygon119">
    </polygon>
    <polygon style="fill:#050709" points="449.2,262.6 449.2,252.1 877.7,250.5 877.8,261.1 " id="polygon121">
    </polygon>
    <rect style="fill:#ffffff" x="449.20001" y="240.8" transform="matrix(1,-0.00357674,0.00357674,1,-0.8759,2.3745)" width="428.5" height="10.5" id="rect123">
    </rect>
    <polygon style="fill:#050709" points="449.2,241.7 449.1,231.2 877.7,229.7 877.7,240.2 " id="polygon125">
    </polygon>
    <polygon style="fill:#ffffff" points="449.1,231.2 449.1,220.7 877.6,219.1 877.7,229.7 " id="polygon127">
    </polygon>
    <rect style="fill:#050709" x="449.10001" y="209.5" transform="matrix(1,-0.00358699,0.00358699,1,-0.7662,2.3808)" width="428.5" height="10.5" id="rect129">
    </rect>
    <polygon style="fill:#ffffff" points="449.1,210.3 449,199.8 877.5,198.3 877.6,208.8 " id="polygon131">
    </polygon>
    <polygon style="fill:#050709" points="449,200 449,189.4 877.5,187.9 877.5,198.4 " id="polygon133">
    </polygon>
    <g id="g135">
      <g id="g137">
        <path d="m 929.9,337.4 c 0,0 27.4,-78.6 -41.7,-152.4 -69,-73.8 -158.5,-38.7 -191.5,17.5 0,0 -61.5,17.7 -215.9,-56.6 0,0 -25.6,3.1 -38.3,31.7 l 0.3,87.2 c 8.4,32.3 25,73.4 53.7,125.6 127.2,231.1 369.7,323.5 508.7,202.9 119.5,-103.6 150,-134 150,-134 0,0 -177.3,-107.8 -225.3,-121.9 z" id="path139">
        </path>
        <path style="fill:#c1b49a" d="m 859.9,653.4 c 0,0 0,0 0,0 C 794.4,653.6 725.3,630.1 660,585.3 592.6,539 534,472.8 490.5,393.8 463.8,345.3 445.5,302.5 436.2,266.6 l -0.2,-0.9 -0.3,-89.6 0.6,-1.4 c 14.1,-31.9 42.6,-35.7 43.8,-35.9 l 2,-0.2 1.9,0.9 c 104.8,50.5 165.9,57.8 193,57.7 7.5,0 12.6,-0.6 15.4,-1.1 10.4,-16.7 25.3,-31.2 43,-41.9 19.7,-11.9 41.7,-18.2 63.6,-18.3 34.6,-0.1 67.2,15.1 94.4,44.1 37.1,39.6 46.9,80.7 48.6,108.2 1.2,20.1 -1.5,35.9 -3.5,44.4 55.5,20.6 213.6,116.4 220.5,120.7 l 7.7,4.7 -6.4,6.3 c -1.3,1.2 -32,31.7 -150.3,134.4 -41,35.6 -93,54.5 -150.1,54.7 z M 450,264 c 9.1,34.6 26.9,76 52.8,123.1 84.6,153.7 224.8,252.7 357,252.3 0,0 0,0 0,0 53.7,-0.2 102.4,-17.9 140.9,-51.3 89.2,-77.3 128.9,-114 143.1,-127.4 C 1109,439.8 968.7,356.3 927.9,344.3 l -7.1,-2.1 2.4,-7 c 0.1,-0.2 6.4,-19.1 4.6,-46.4 -2.4,-36.4 -17.5,-69.6 -44.8,-98.8 -24.4,-26.1 -53.4,-39.8 -84,-39.7 -38,0.1 -76.7,22.6 -96.2,55.9 l -1.4,2.4 -2.7,0.8 c -0.7,0.2 -7.6,2.1 -21.7,2.1 -28.1,0.1 -91,-7.3 -197.1,-58.1 -5.3,1.3 -21.1,6.5 -30.2,25.9 L 450,264 Z" id="path141">
        </path>
      </g>
      <g id="g143">
        <g id="g145">
          <path style="fill:#c1b49a" d="m 1109.2,473.3 c -0.7,1 -1.5,2.1 -2.2,3.2 -1.2,1.6 -2.4,3.3 -3.6,5 -3.7,5.2 -7.8,10.6 -12.2,16.3 -1.1,1.4 -2.1,2.8 -3.2,4.2 -3.9,5 -8,10.1 -12.4,15.3 -2.6,3.1 -5.3,6.3 -8.1,9.5 -1.1,1.2 -2.1,2.4 -3.2,3.6 -1.9,2.2 -3.9,4.3 -5.9,6.4 -1,1.1 -2.1,2.2 -3.1,3.3 -2.9,3.1 -5.9,6.2 -8.9,9.2 -1,1 -2,2 -3,3 -5.8,5.8 -11.9,11.4 -18.2,16.9 -2.4,2.1 -4.8,4.1 -7.2,6.1 -4.6,3.8 -9.2,7.4 -13.9,10.9 -4,3 -8.1,5.8 -12.2,8.6 -6.7,4.4 -13.6,8.5 -20.5,12.2 -6.9,3.6 -13.9,6.9 -21,9.6 -14.8,5.6 -30.9,10.7 -48.9,14 3.9,4.6 8.1,8.8 12.3,11.7 3.5,2.4 6.4,4.7 9.3,7 14.6,-4 28,-8.9 40.6,-13.7 2.6,-1 5.2,-2 7.8,-3.1 22.4,-9.5 43.5,-22.6 62.8,-37.4 4.1,-3.2 8.2,-6.4 12.2,-9.7 4,-3.3 7.9,-6.7 11.7,-10.1 3.2,-2.9 6.3,-5.8 9.4,-8.7 2.8,-2.6 5.5,-5.2 8.1,-7.9 4.3,-4.2 8.4,-8.5 12.4,-12.7 3.4,-3.6 6.7,-7.2 9.9,-10.8 2.5,-2.8 5,-5.7 7.4,-8.4 5.1,-6 9.9,-11.8 14.3,-17.3 1.1,-1.3 2.1,-2.7 3.2,-4 2.1,-2.7 4.1,-5.3 6.1,-7.9 5.2,-6.8 9.6,-13 13.4,-18.3 8.5,-12.1 13,-19.7 13,-19.7 -8.7,4.6 -25,9.6 -46.2,13.7 z" id="path147">
          </path>
        </g>
        <g id="g149">
          <path style="fill:#c1b49a" d="m 714.8,596.3 c -2.2,-1 -4.3,-2 -6.5,-3 -4.2,-2 -8.6,-4.1 -13,-6.3 l 0.1,0.4 -26.2,1.4 1.3,-15.1 c -3.3,-1.9 -6.6,-3.8 -10,-5.9 -8,-4.8 -16.1,-10 -24.2,-15.6 -11.9,-8.2 -24,-17.3 -35.9,-27.5 -5.8,-4.9 -11.6,-10.1 -17.3,-15.6 -8.9,-8.5 -17.8,-17.7 -26.4,-27.5 -4.4,-5 -8.7,-10.2 -13,-15.6 -3.1,-3.9 -6.1,-7.9 -9.1,-11.9 -2.2,-3 -4.4,-6.1 -6.6,-9.3 -1.4,-2.1 -2.9,-4.2 -4.3,-6.3 -4.4,-6.6 -8.7,-13.5 -12.8,-20.6 -4.2,-7.2 -8.3,-14.6 -12.2,-22.3 -4.3,-8.5 -8.5,-17.3 -12.5,-26.5 -2.1,-4.8 -4.4,-10.5 -6.8,-16.8 -2.2,-5.6 -4.4,-11.7 -6.6,-18.2 -4.3,-12.6 -8.5,-26.6 -12,-41.3 C 447.3,236 445.3,170.6 497,151 c 0.2,-0.1 0.4,-0.2 0.6,-0.2 -14.4,-5.1 -25.9,-7.3 -33.7,-4.4 -8.4,3.1 -15.4,7.2 -21.2,12.2 l 0.6,175.9 c 1.9,5.1 3.8,10 5.7,14.7 0.5,1.1 0.9,2.3 1.4,3.4 3,7.5 5.9,14.2 8.4,20.1 0.5,1.2 1,2.3 1.5,3.4 0.9,2 1.7,4 2.7,6 3.3,7.3 6.7,14.4 10.2,21.3 2.7,5.2 5.4,10.4 8.2,15.4 5.1,9.2 10.4,18.1 15.9,26.5 1.6,2.5 3.2,4.9 4.8,7.3 2.2,3.2 4.4,6.4 6.6,9.5 0.8,1.2 1.7,2.3 2.5,3.4 3.4,4.6 6.7,9.1 10.2,13.5 1.6,2 3.1,4 4.7,5.9 0.7,0.9 1.5,1.8 2.2,2.7 2.2,2.7 4.4,5.3 6.6,7.8 4.2,4.9 8.5,9.6 12.8,14.1 5.1,5.4 10.3,10.6 15.5,15.6 8.1,7.8 16.4,15.1 24.7,22 9.1,7.5 18.3,14.6 27.4,21.1 11.1,7.9 22.1,15 32.9,21.6 2.5,1.5 5,3 7.5,4.4 0.9,0.5 1.7,1 2.6,1.5 14.6,8.3 28.7,15.5 42.1,21.8 11.1,-7.6 20.8,-10.9 21,-10.9 0.1,-0.1 0.2,-0.3 0.2,-0.5 0.1,-0.2 0.2,-0.4 0.3,-0.6 0.2,-0.4 0.4,-0.8 0.6,-1.2 0.1,-0.2 0.2,-0.5 0.3,-0.8 0.1,-0.2 0.2,-0.4 0.3,-0.6 0.1,-0.3 0.2,-0.6 0.4,-0.9 0.1,-0.1 0.1,-0.3 0.2,-0.4 0.1,-0.4 0.3,-0.7 0.4,-1.1 -3.2,-1.4 -6.2,-2.8 -9.3,-4.2 z" id="path151">
          </path>
        </g>
        <g id="g153">
          <path style="fill:#c1b49a" d="m 770.5,227.6 c -7.8,-5.3 -14.4,-10 -19.9,-14.1 l 1.6,11.2 0.1,-0.1 18.2,3 z" id="path155">
          </path>
        </g>
        <g id="g157">
          <path style="fill:#c1b49a" d="m 923.5,290 c -3.7,0 -8.2,-0.2 -13.5,-0.7 -0.6,-0.1 -1.3,-0.1 -1.9,-0.2 -4.1,-0.4 -8.6,-1.1 -13.5,-2 -3.5,-0.6 -7.2,-1.4 -11.1,-2.4 -4.3,-1 -8.8,-2.3 -13.5,-3.8 -0.6,-0.2 -1.3,-0.4 -1.9,-0.6 -1.2,-0.4 -2.4,-0.8 -3.6,-1.2 -2.4,-0.8 -4.9,-1.7 -7.3,-2.7 l -0.6,43.9 c 6.8,2.7 13.6,5.2 20,7.5 4.5,1.6 8.8,3 12.9,4.3 3.5,1.1 6.9,2.2 10.1,3.2 5.2,1.6 9.8,2.9 13.8,4 4.2,1.2 7.6,2 10.1,2.6 3,0.7 4.6,1.1 4.6,1.1 0,0 0.2,-0.5 0.6,-1.6 1.1,-2.9 3.4,-9.9 4.5,-19.7 0,-0.2 0.1,-0.5 0.1,-0.7 0.1,-1 0.2,-2 0.3,-2.9 0.3,-2.1 0.5,-4 0.7,-5.7 1.2,-10.3 1.3,-13.3 0.4,-23.1 0,0 0,0 -0.1,0 -0.5,0.1 -3.7,0.5 -9.3,0.5 -0.5,0.2 -1.2,0.2 -1.8,0.2 z" id="path159">
          </path>
        </g>
        <g id="g161">
          <path style="fill:#c1b49a" d="m 643.3,247.2 c 3.8,3.8 7.6,7.7 11.6,11.7 1.9,1.9 3.8,3.8 5.7,5.8 0.8,0.8 1.6,1.6 2.4,2.5 2.7,2.7 5.4,5.5 8.2,8.3 0.5,0.5 0.9,0.9 1.4,1.4 12.1,12.3 24.6,25 37.1,37.6 5.8,5.9 11.6,11.8 17.4,17.7 2,2.1 4,4.1 6,6.1 1.3,1.3 2.6,2.6 3.8,3.9 4.4,4.5 8.8,8.9 13,13.3 7.5,7.6 14.7,14.9 21.3,21.8 11.6,11.9 21.9,22.4 29.8,30.6 27.8,28.7 64.5,47.1 103.8,58.4 3,0.8 6,1.7 9,2.4 3.4,0.9 6.7,1.7 10.1,2.4 4.6,1 9.2,2 13.8,2.8 3.4,0.6 6.8,1.2 10.1,1.7 4.6,0.7 9.2,1.4 13.8,2 3.1,0.4 6.1,0.7 9.2,1.1 3.9,0.4 7.8,0.7 11.6,1 3,0.2 6,0.4 9,0.6 4.1,0.2 8.2,0.4 12.2,0.6 3,0.1 6,0.2 9,0.2 4.1,0.1 8.2,0.1 12.2,0 3,0 6,-0.1 9,-0.1 4.1,-0.1 8.2,-0.3 12.2,-0.5 3,-0.2 6,-0.3 9,-0.5 4.1,-0.3 8.2,-0.6 12.2,-1 2.8,-0.3 5.5,-0.5 8.1,-0.8 4.3,-0.5 8.4,-1 12.4,-1.5 1.1,-0.1 2.2,-0.3 3.2,-0.5 2.3,-0.3 4.5,-0.7 6.7,-1 3.1,-0.5 6.2,-1 9.1,-1.6 0.7,-0.1 1.5,-0.3 2.2,-0.4 21.2,-4 37.5,-9.1 46.2,-14 l -27.6,-14.1 c -0.1,0.1 -0.3,0.2 -0.4,0.2 -1.4,0.8 -2.9,1.5 -4.6,2.3 -2.7,1.2 -5.8,2.4 -9.1,3.5 -7.2,2.4 -15.9,4.6 -25.8,6.4 -4,0.7 -8.1,1.4 -12.4,2 -2.7,0.4 -5.4,0.7 -8.2,1 -4,0.5 -8,0.8 -12.2,1.2 -2.9,0.2 -5.9,0.4 -9,0.6 -1.1,0.1 -2.2,0.1 -3.3,0.2 -12.4,0.5 -25.5,0.5 -39.1,-0.3 -4,-0.2 -8.1,-0.5 -12.2,-0.9 -3,-0.3 -6,-0.6 -9,-0.9 -3.9,-0.4 -7.7,-0.9 -11.6,-1.5 -13.5,-1.9 -27.3,-4.6 -41.1,-8.2 -2,-0.5 -4,-1.1 -5.9,-1.6 -3.4,-1 -6.8,-2 -10.1,-3 -4.6,-1.5 -9.2,-3 -13.8,-4.7 -3.4,-1.2 -6.8,-2.5 -10.1,-3.9 -0.4,-0.1 -0.7,-0.3 -1.1,-0.4 -3.5,-1.4 -7,-3 -10.5,-4.6 -8.1,-3.7 -16.1,-7.8 -23.9,-12.3 -1.5,-0.9 -3,-1.7 -4.5,-2.6 -3.4,-2.1 -6.8,-4.2 -10.2,-6.4 -4.7,-3.1 -9.3,-6.4 -13.9,-9.9 -5.1,-3.9 -10.1,-8 -14.9,-12.4 -0.3,-0.3 -0.6,-0.6 -1,-0.9 -2.6,-2.3 -5.3,-4.8 -8.1,-7.4 -7.9,-7.2 -16.4,-15.2 -25.4,-23.7 -5.1,-4.8 -10.3,-9.8 -15.6,-14.8 -5,-4.8 -10,-9.6 -15.1,-14.5 -38.6,-37.3 -79.3,-77.6 -103.9,-102.1 -0.3,-0.3 -0.6,-0.6 -0.9,-0.9 -11.4,-11.4 -19.2,-19.2 -21.4,-21.4 -0.4,-0.4 -0.6,-0.6 -0.6,-0.6 l -33.9,-14.5 c 0,0 1,1 2.7,2.8 7,7.1 26.7,27.1 52,52.7 1.3,1 2.6,2.3 3.9,3.6 z" id="path163">
          </path>
        </g>
        <g id="g165">
          <polygon style="fill:#c1b49a" points="662.9,171.3 664,171 657.9,166 650.2,186.1 704.1,219.3 736.4,239.2 736.3,239.2 " id="polygon167">
          </polygon>
        </g>
        <g id="g169">
          <polygon style="fill:#90278e" points="735.8,238.5 752.2,224.7 750.6,213.5 746.5,184.9 740.9,145 664,171 662.9,171.3 736.3,239.2 " id="polygon171">
          </polygon>
        </g>
        <g id="g173">
          <polygon style="fill:#c1b49a" points="801,294.4 735.8,238.5 736.3,239.2 736.4,239.2 794.6,314.5 798.4,319.4 798.9,314.5 " id="polygon175">
          </polygon>
        </g>
        <g id="g177">
          <polygon style="fill:#90278e" points="818.4,309.2 827.6,317.2 829.3,318.6 829.5,318.8 856.2,341.7 856.4,332.3 856.4,328 856.5,320.4 857.1,276.5 857.3,263.6 857.5,241.8 854.4,241.2 852.4,240.9 838.9,238.7 833.1,237.8 770.5,227.6 752.3,224.6 752.2,224.7 735.8,238.5 801,294.4 " id="polygon179">
          </polygon>
        </g>
      </g>
    </g>
    <g id="g181">
      <path style="fill:#ede7f2" d="m 672.8,278.1 c -0.5,-0.5 -0.9,-0.9 -1.4,-1.4 l 0,2.6 c 0.5,-0.5 1,-0.9 1.4,-1.2 z" id="path183">
      </path>
    </g>
    <g id="g185">
      <path style="fill:#ede7f2" d="m 749.8,356.7 0.2,0 c -4.2,-4.3 -8.6,-8.8 -13,-13.3 l -0.2,0 c 4.4,4.5 8.7,8.9 13,13.3 z" id="path187">
      </path>
    </g>
    <g id="g189">
      <path style="fill:#ede7f2" d="m 733.2,339.5 c -2,-2 -4,-4.1 -6,-6.1 2,2 4,4.1 6,6.1 0,0.1 0,0 0,0 z" id="path191">
      </path>
    </g>
    <g id="g193">
      <path style="fill:#b9a8cb" d="m 933.5,322.3 c 0.1,-0.9 0.3,-1.9 0.4,-2.9 l -0.1,0 c 0,0.9 -0.1,1.9 -0.3,2.9 z" id="path195">
      </path>
    </g>
    <g id="g197">
      <path style="fill:#735e93" d="m 771.4,378.5 c -6.7,-6.8 -13.9,-14.2 -21.4,-21.8 l -0.2,0 c 7.6,7.8 15,15.2 21.6,21.8 z" id="path199">
      </path>
    </g>
    <g id="g201">
      <path style="fill:#735e93" d="m 736.9,343.4 0.2,0 c -1.3,-1.3 -2.5,-2.6 -3.8,-3.9 0,0 0,0 0,0.1 1.1,1.2 2.3,2.5 3.6,3.8 z" id="path203">
      </path>
    </g>
    <g id="g205">
      <path style="fill:#050709" d="m 719.3,720.3 c 0,0 -18,-36.1 -20.3,-49.6 -0.1,-0.4 -0.1,-0.7 -0.2,-1.1 -0.1,-0.4 -0.1,-0.9 -0.2,-1.3 -0.1,-0.5 -0.1,-0.9 -0.2,-1.4 0,-0.4 -0.1,-0.7 -0.1,-1.1 -0.1,-0.5 -0.1,-1 -0.2,-1.4 0,-0.2 0,-0.4 -0.1,-0.7 -0.1,-1 -0.2,-2.1 -0.2,-3.1 0,-0.2 0,-0.3 0,-0.5 0,-0.6 0,-1.1 -0.1,-1.7 0,-0.1 0,-0.2 0,-0.3 -0.6,-23.8 9.8,-36.4 9.8,-36.4 0,0 0.1,0 0.3,-0.1 0,0 0,0 0.1,0 0.1,0 0.1,0 0.2,-0.1 0.1,0 0.2,-0.1 0.4,-0.2 0,0 0.1,0 0.1,-0.1 0.1,0 0.2,-0.1 0.4,-0.2 0.1,0 0.1,-0.1 0.2,-0.1 0.1,-0.1 0.3,-0.1 0.4,-0.2 0.1,-0.1 0.2,-0.1 0.3,-0.1 0.2,-0.1 0.4,-0.2 0.6,-0.4 0.1,-0.1 0.2,-0.1 0.3,-0.2 0.2,-0.1 0.3,-0.2 0.5,-0.3 0.1,-0.1 0.2,-0.1 0.3,-0.2 0.3,-0.2 0.5,-0.4 0.8,-0.6 0.1,-0.1 0.2,-0.1 0.3,-0.2 0.2,-0.2 0.4,-0.3 0.6,-0.5 0.1,-0.1 0.2,-0.2 0.3,-0.3 0.3,-0.3 0.6,-0.5 0.9,-0.8 0.5,-0.5 1,-1 1.6,-1.6 0.1,-0.1 0.1,-0.1 0.2,-0.2 0.2,-0.2 0.4,-0.4 0.6,-0.7 0.1,-0.1 0.2,-0.3 0.3,-0.4 0.2,-0.2 0.3,-0.4 0.5,-0.6 0.1,-0.2 0.3,-0.3 0.4,-0.5 0.1,-0.2 0.3,-0.4 0.4,-0.5 0.1,-0.2 0.3,-0.4 0.4,-0.6 0.1,-0.2 0.2,-0.4 0.4,-0.5 0.1,-0.2 0.3,-0.4 0.4,-0.6 0.1,-0.2 0.2,-0.4 0.4,-0.6 0.1,-0.2 0.3,-0.5 0.4,-0.7 0.2,-0.4 0.4,-0.7 0.6,-1.1 0.1,-0.1 0.1,-0.3 0.2,-0.4 0.1,-0.1 0.1,-0.3 0.2,-0.4 -0.2,0.1 -9.9,3.3 -21,10.9 -0.1,0.1 -0.3,0.2 -0.4,0.3 -3.6,2.5 -7.4,5.4 -11,8.9 -3.5,3.3 -14.1,13 -14.1,13 0,0 -106.3,13.3 -136.7,30.6 -77.1,44.1 -86.7,146.6 -87.8,173.8 l 240.1,-0.9 9.3,-99.1 19.4,-24.9 z" id="path207">
      </path>
    </g>
    <g id="g209">
      <path style="fill:#c1b49a" d="m 1084.4,703.6 c -23.8,-17.9 -84.8,-28.7 -114.2,-33.9 -27.5,-4.9 -36.9,-11.6 -46.5,-19.1 -0.1,-0.1 -0.3,-0.2 -0.4,-0.3 -2.9,-2.3 -5.8,-4.6 -9.3,-7 -4.3,-2.9 -8.4,-7.1 -12.3,-11.7 -11.4,-13.5 -20.3,-30.9 -20.5,-31.4 0,0.3 0.1,0.5 0.1,0.7 1.6,9.6 4,19.3 5.3,24.6 0.7,2.6 1.1,4.2 1.1,4.2 0,0 0.5,0.4 1.3,1.5 0,0 0,0 0.1,0.1 0.1,0.1 0.2,0.2 0.3,0.4 0.1,0.1 0.1,0.1 0.1,0.2 0.1,0.1 0.1,0.2 0.2,0.3 0.1,0.1 0.1,0.2 0.2,0.3 0.1,0.1 0.1,0.2 0.2,0.3 0.1,0.1 0.2,0.2 0.2,0.4 0,0.1 0.1,0.1 0.1,0.2 0.1,0.2 0.2,0.3 0.3,0.5 0,0 0,0.1 0.1,0.1 0.5,0.8 1,1.8 1.5,3 0,0 0,0.1 0,0.1 0.1,0.3 0.2,0.5 0.3,0.8 0,0 0,0.1 0,0.1 0.1,0.3 0.2,0.6 0.3,0.9 0,0 0,0 0,0.1 0.6,1.7 1.2,3.7 1.6,6 0,0 0,0.1 0,0.1 0.1,0.4 0.2,0.8 0.2,1.3 0,0.1 0,0.1 0,0.2 0.1,0.4 0.1,0.9 0.2,1.3 0,0.1 0,0.1 0,0.2 0.3,2 0.5,4.2 0.6,6.7 0,0 0,0.1 0,0.1 0,0.5 0,1 0,1.5 0,0.2 0,0.4 0,0.6 0,0.5 0,1 0,1.4 0,0.1 0,0.3 0,0.4 0,0.1 0,0.2 0,0.3 0,0.7 0,1.3 -0.1,2 0,0.3 0,0.5 0,0.8 0,0.6 -0.1,1.2 -0.1,1.8 0,0.4 0,0.7 -0.1,1.1 0,0.5 -0.1,1 -0.1,1.4 0,0.5 -0.1,1 -0.1,1.6 0,0.2 0,0.3 -0.1,0.5 -0.1,0.8 -0.2,1.6 -0.3,2.4 -0.1,0.6 -0.2,1.1 -0.3,1.7 0,0 0,0.1 0,0.1 -0.1,0.3 -0.1,0.7 -0.2,1 -0.1,0.3 -0.1,0.6 -0.2,0.9 -0.1,0.5 -0.2,1 -0.4,1.4 -0.1,0.3 -0.2,0.7 -0.3,1 -0.1,0.3 -0.2,0.6 -0.3,0.9 -0.2,0.4 -0.3,0.9 -0.5,1.3 -0.1,0.3 -0.2,0.6 -0.4,0.9 -0.2,0.4 -0.3,0.8 -0.5,1.1 -0.1,0.3 -0.2,0.5 -0.3,0.8 -0.2,0.5 -0.5,1 -0.7,1.5 0,0 0,0.1 0,0.1 -0.2,0.5 -0.5,1 -0.8,1.5 -0.1,0.2 -0.2,0.4 -0.3,0.6 -0.3,0.5 -0.5,1 -0.8,1.5 -0.1,0.2 -0.2,0.4 -0.3,0.6 -0.3,0.5 -0.6,1 -0.9,1.5 -0.1,0.2 -0.2,0.3 -0.3,0.5 -0.3,0.5 -0.6,1 -1,1.5 -0.1,0.1 -0.1,0.2 -0.2,0.3 0,0 -0.1,0.1 -0.1,0.2 -0.4,0.5 -0.8,1.1 -1.1,1.6 -0.1,0.1 -0.2,0.2 -0.2,0.3 -0.4,0.5 -0.8,1.1 -1.2,1.6 -0.1,0.1 -0.2,0.3 -0.3,0.4 -0.4,0.5 -0.8,1 -1.1,1.5 -0.1,0.1 -0.2,0.3 -0.3,0.4 -0.4,0.5 -0.7,0.9 -1.1,1.4 -0.1,0.1 -0.1,0.2 -0.2,0.3 -0.1,0.1 -0.1,0.1 -0.1,0.2 -0.3,0.4 -0.7,0.8 -1,1.2 -0.1,0.2 -0.3,0.3 -0.4,0.5 -0.3,0.4 -0.7,0.8 -1,1.1 -0.2,0.2 -0.3,0.3 -0.5,0.5 -0.3,0.4 -0.6,0.7 -0.9,1.1 -0.2,0.2 -0.3,0.4 -0.5,0.6 -0.3,0.3 -0.6,0.6 -0.9,0.9 -0.1,0.1 -0.1,0.1 -0.2,0.2 -0.1,0.1 -0.2,0.2 -0.3,0.3 -0.4,0.4 -0.8,0.8 -1.2,1.3 -0.2,0.1 -0.3,0.3 -0.5,0.5 -0.4,0.4 -0.7,0.7 -1.1,1.1 -0.2,0.2 -0.4,0.4 -0.5,0.5 -0.3,0.3 -0.6,0.6 -0.9,0.8 -0.7,0.7 -1.4,1.3 -2.1,1.9 -2.7,2.5 -4.9,4.4 -6.1,5.3 -0.6,0.5 -0.9,0.7 -0.9,0.7 l 6.3,23.9 -0.4,1.2 -3.4,9.9 -3.8,11 -3.4,9.9 -3.8,11 -3.4,9.9 -3.8,11 -3.4,9.9 -3.8,11 -3.4,9.9 -2.6,7.6 296.9,-1.1 c 2.4,-18.5 9.6,-98.3 -44.8,-139.3 z" id="path211">
      </path>
    </g>
    <g id="g213">
      <path style="fill:#ffffff" d="m 725.3,598.1 c -0.1,0.2 -0.1,0.4 -0.2,0.6 0.1,-0.3 0.2,-0.5 0.2,-0.6 z" id="path215">
      </path>
    </g>
    <g id="g217">
      <path style="fill:#ffffff" d="m 724.5,600.6 c 0,-0.1 0,-0.1 0.1,-0.2 -0.1,0.2 -0.1,0.4 -0.2,0.5 0,-0.1 0.1,-0.2 0.1,-0.3 z" id="path219">
      </path>
    </g>
    <g id="g221">
      <path style="fill:#ffffff" d="m 726.8,592.4 c 0.1,-0.6 0.3,-1.2 0.4,-1.9 0,-0.1 0.1,-0.3 0.1,-0.5 0,0.2 -0.1,0.3 -0.1,0.5 -0.1,0.7 -0.2,1.3 -0.4,1.9 z" id="path223">
      </path>
    </g>
    <g id="g225">
      <path style="fill:#ffffff" d="m 726.7,593 c -0.1,0.4 -0.2,0.9 -0.3,1.3 0.1,-0.4 0.2,-0.8 0.3,-1.3 z" id="path227">
      </path>
    </g>
    <g id="g229">
      <path style="fill:#ffffff" d="m 726.1,595.6 c -0.1,0.3 -0.2,0.6 -0.2,0.9 0,-0.3 0.1,-0.6 0.2,-0.9 z" id="path231">
      </path>
    </g>
    <g id="g233">
      <path style="fill:#ffffff" d="m 727.4,589.1 c 0,0.2 -0.1,0.4 -0.1,0.6 0.1,-0.2 0.1,-0.4 0.1,-0.6 z" id="path235">
      </path>
    </g>
    <g id="g237">
      <path style="fill:#ffffff" d="m 727.1,559.3 c 0,0 1.4,20.3 0.4,29.3 0,-0.1 0,-0.2 0,-0.3 0.4,-3.9 0.4,-9.8 0.2,-15.3 -0.1,-7.3 -0.6,-13.7 -0.6,-13.7 l 0,0 0,0 0,0 z" id="path239">
      </path>
    </g>
    <g id="g241">
      <path style="fill:#ffffff" d="m 722.9,604.6 c 0.1,-0.2 0.2,-0.4 0.3,-0.6 -0.1,0.2 -0.2,0.4 -0.3,0.6 z" id="path243">
      </path>
    </g>
    <g id="g245">
      <path style="fill:#ffffff" d="m 722,606.5 c 0.2,-0.4 0.4,-0.8 0.6,-1.2 -0.2,0.5 -0.4,0.9 -0.6,1.2 z" id="path247">
      </path>
    </g>
    <g id="g249">
      <path style="fill:#ffffff" d="m 723.6,603.1 c 0.1,-0.1 0.1,-0.3 0.2,-0.4 -0.1,0.1 -0.2,0.3 -0.2,0.4 z" id="path251">
      </path>
    </g>
    <g id="g253">
      <path style="fill:#ffffff" d="m 721.7,607.1 c -0.1,0.2 -0.2,0.3 -0.2,0.5 -0.1,0.1 -0.1,0.3 -0.2,0.4 0.1,-0.3 0.3,-0.6 0.4,-0.9 z" id="path255">
      </path>
    </g>
    <g id="g257">
      <path style="fill:#ffffff" d="m 890.8,683.4 c -0.2,0.5 -0.5,1 -0.8,1.5 0.3,-0.5 0.5,-1 0.8,-1.5 z" id="path259">
      </path>
    </g>
    <g id="g261">
      <path style="fill:#ffffff" d="m 889.7,685.5 c -0.3,0.5 -0.5,1 -0.8,1.5 0.3,-0.6 0.6,-1 0.8,-1.5 z" id="path263">
      </path>
    </g>
    <g id="g265">
      <path style="fill:#ffffff" d="m 892.7,679 c -0.1,0.3 -0.2,0.6 -0.4,0.9 0.2,-0.3 0.3,-0.6 0.4,-0.9 z" id="path267">
      </path>
    </g>
    <g id="g269">
      <path style="fill:#ffffff" d="m 891.9,681.1 c -0.1,0.3 -0.2,0.5 -0.3,0.8 0,-0.3 0.2,-0.5 0.3,-0.8 z" id="path271">
      </path>
    </g>
    <g id="g273">
      <path style="fill:#ffffff" d="m 887.4,689.5 c -0.3,0.5 -0.6,1 -1,1.5 0.3,-0.5 0.7,-1 1,-1.5 z" id="path275">
      </path>
    </g>
    <g id="g277">
      <path style="fill:#ffffff" d="m 884.8,693.4 c -0.4,0.5 -0.8,1.1 -1.2,1.6 0.4,-0.6 0.8,-1.1 1.2,-1.6 z" id="path279">
      </path>
    </g>
    <g id="g281">
      <path style="fill:#ffffff" d="m 886.1,691.4 c -0.4,0.5 -0.8,1.1 -1.1,1.6 0.4,-0.5 0.8,-1.1 1.1,-1.6 z" id="path283">
      </path>
    </g>
    <g id="g285">
      <path style="fill:#ffffff" d="m 893.5,676.7 c -0.1,0.3 -0.2,0.6 -0.3,0.9 0.1,-0.3 0.2,-0.5 0.3,-0.9 z" id="path287">
      </path>
    </g>
    <g id="g289">
      <path style="fill:#ffffff" d="m 895.6,664.7 c 0,0.5 -0.1,1 -0.1,1.4 0,-0.5 0,-1 0.1,-1.4 z" id="path291">
      </path>
    </g>
    <g id="g293">
      <path style="fill:#ffffff" d="m 895.3,667.7 c 0,0.2 0,0.3 -0.1,0.5 0,-0.2 0.1,-0.4 0.1,-0.5 z" id="path295">
      </path>
    </g>
    <g id="g297">
      <path style="fill:#ffffff" d="m 894.2,674.3 c -0.1,0.5 -0.2,1 -0.4,1.4 0.1,-0.5 0.3,-0.9 0.4,-1.4 z" id="path299">
      </path>
    </g>
    <g id="g301">
      <path style="fill:#ffffff" d="m 895.7,661.7 c 0,0.6 -0.1,1.2 -0.1,1.8 0.1,-0.6 0.1,-1.2 0.1,-1.8 z" id="path303">
      </path>
    </g>
    <g id="g305">
      <path style="fill:#ffffff" d="m 894.6,672.4 c -0.1,0.3 -0.1,0.7 -0.2,1 0.1,-0.3 0.1,-0.7 0.2,-1 z" id="path307">
      </path>
    </g>
    <g id="g309">
      <path style="fill:#ffffff" d="m 883.3,695.3 c -0.4,0.5 -0.8,1 -1.1,1.5 0.4,-0.5 0.8,-1 1.1,-1.5 z" id="path311">
      </path>
    </g>
    <g id="g313">
      <path style="fill:#ffffff" d="m 874.7,705.5 c -0.4,0.4 -0.8,0.8 -1.2,1.3 0.4,-0.5 0.8,-0.9 1.2,-1.3 z" id="path315">
      </path>
    </g>
    <g id="g317">
      <path style="fill:#ffffff" d="m 698.2,664.4 c 0,0.5 0.1,0.9 0.2,1.4 -0.1,-0.4 -0.2,-0.9 -0.2,-1.4 z" id="path319">
      </path>
    </g>
    <g id="g321">
      <path style="fill:#ffffff" d="m 697.9,660.7 c 0,1 0.1,2 0.2,3.1 -0.1,-1.1 -0.1,-2.1 -0.2,-3.1 z" id="path323">
      </path>
    </g>
    <g id="g325">
      <path style="fill:#ffffff" d="m 698.5,666.9 c 0.1,0.4 0.1,0.9 0.2,1.4 -0.1,-0.5 -0.2,-0.9 -0.2,-1.4 z" id="path327">
      </path>
    </g>
    <g id="g329">
      <path style="fill:#ffffff" d="m 697.8,658.5 c 0,0.6 0,1.1 0.1,1.7 0,-0.6 0,-1.1 -0.1,-1.7 z" id="path331">
      </path>
    </g>
    <g id="g333">
      <path style="fill:#ffffff" d="m 880.7,698.6 c 0.4,-0.5 0.8,-0.9 1.1,-1.4 -0.3,0.5 -0.7,1 -1.1,1.4 z" id="path335">
      </path>
    </g>
    <g id="g337">
      <path style="fill:#ffffff" d="m 692.3,826.3 1.3,-13.5 1.4,-15 1.3,-13.5 1.4,-15 1.3,-13.5 1,-10.6 1.7,-2.2 5.3,-6.8 5.9,-7.5 5.3,-6.8 1.3,-1.6 c 0,0 -15.8,-31.8 -19.7,-46.9 -0.3,-1 -0.5,-1.9 -0.6,-2.7 -0.1,-0.4 -0.1,-0.7 -0.2,-1.1 0,0.4 0.1,0.7 0.2,1.1 2.3,13.5 20.3,49.6 20.3,49.6 l -19.4,24.9 -9.3,99.1 0,0 0.3,-2.8 1.2,-15.2 z" id="path339">
      </path>
    </g>
    <g id="g341">
      <path style="fill:#ffffff" d="m 895.8,658.3 c 0,-0.5 0,-1 0,-1.4 0,0.4 0,0.9 0,1.4 z" id="path343">
      </path>
    </g>
    <g id="g345">
      <path style="fill:#ffffff" d="m 873,707.2 c -0.4,0.4 -0.7,0.7 -1.1,1.1 0.4,-0.4 0.7,-0.7 1.1,-1.1 z" id="path347">
      </path>
    </g>
    <g id="g349">
      <path style="fill:#ffffff" d="m 876,704 c -0.3,0.3 -0.6,0.6 -0.9,0.9 0.3,-0.2 0.6,-0.5 0.9,-0.9 z" id="path351">
      </path>
    </g>
    <g id="g353">
      <path style="fill:#ffffff" d="m 877.5,702.4 c -0.3,0.4 -0.6,0.7 -0.9,1.1 0.2,-0.4 0.6,-0.7 0.9,-1.1 z" id="path355">
      </path>
    </g>
    <g id="g357">
      <path style="fill:#ffffff" d="m 878.9,700.8 c -0.3,0.4 -0.7,0.8 -1,1.1 0.4,-0.3 0.7,-0.7 1,-1.1 z" id="path359">
      </path>
    </g>
    <g id="g361">
      <path style="fill:#ffffff" d="m 895.8,659 c 0,0.7 0,1.3 -0.1,2 0.1,-0.7 0.1,-1.4 0.1,-2 z" id="path363">
      </path>
    </g>
    <g id="g365">
      <path style="fill:#ffffff" d="m 871.4,708.8 c -0.3,0.3 -0.6,0.6 -0.9,0.8 0.3,-0.2 0.6,-0.5 0.9,-0.8 z" id="path367">
      </path>
    </g>
    <g id="g369">
      <path style="fill:#ffffff" d="m 880.4,699.1 c -0.3,0.4 -0.7,0.8 -1,1.2 0.3,-0.4 0.6,-0.8 1,-1.2 z" id="path371">
      </path>
    </g>
    <g id="g373">
      <path style="fill:#ffffff" d="m 888.6,687.5 c -0.3,0.5 -0.6,1 -0.9,1.5 0.3,-0.5 0.6,-1 0.9,-1.5 z" id="path375">
      </path>
    </g>
    <g id="g377">
      <path style="fill:#ffffff" d="m 889.7,632.2 c 0.1,0.1 0.1,0.2 0.2,0.3 -0.1,-0.1 -0.1,-0.2 -0.2,-0.3 z" id="path379">
      </path>
    </g>
    <g id="g381">
      <path style="fill:#ffffff" d="m 889,631.3 c 0.1,0 0.1,0 0,0 0.1,0 0.1,0 0,0 z" id="path383">
      </path>
    </g>
    <g id="g385">
      <path style="fill:#ffffff" d="m 890.1,632.8 c 0.1,0.1 0.2,0.2 0.2,0.4 -0.1,-0.2 -0.2,-0.3 -0.2,-0.4 z" id="path387">
      </path>
    </g>
    <g id="g389">
      <path style="fill:#ffffff" d="m 889.4,631.7 c 0.1,0.1 0.1,0.1 0.1,0.2 0,0 -0.1,-0.1 -0.1,-0.2 z" id="path391">
      </path>
    </g>
    <g id="g393">
      <path style="fill:#ffffff" d="m 707.6,621.8 c 0,0 -10.3,12.6 -9.8,36.4 0,-1.2 0,-2.4 0,-3.5 0.1,-5.5 0.8,-10.3 1.8,-14.4 0.9,-4 2.1,-7.4 3.3,-10.1 2.4,-5.6 4.7,-8.4 4.7,-8.4 0,0 0.1,0 0.3,-0.1 -0.2,0 -0.3,0.1 -0.3,0.1 z" id="path395">
      </path>
    </g>
    <g id="g397">
      <path style="fill:#ffffff" d="m 892.3,636.9 c 0.1,0.3 0.2,0.5 0.3,0.8 -0.1,-0.2 -0.2,-0.5 -0.3,-0.8 z" id="path399">
      </path>
    </g>
    <g id="g401">
      <path style="fill:#ffffff" d="m 893,638.9 c 0.6,1.7 1.2,3.7 1.6,6 -0.4,-2.3 -1,-4.3 -1.6,-6 z" id="path403">
      </path>
    </g>
    <g id="g405">
      <path style="fill:#ffffff" d="m 895,646.5 c 0.1,0.4 0.1,0.9 0.2,1.3 -0.1,-0.5 -0.2,-0.9 -0.2,-1.3 z" id="path407">
      </path>
    </g>
    <g id="g409">
      <path style="fill:#ffffff" d="m 895.8,654.8 c 0,0.5 0,1 0,1.5 0,-0.5 0,-1 0,-1.5 z" id="path411">
      </path>
    </g>
    <g id="g413">
      <path style="fill:#ffffff" d="m 892.2,636.8 c -0.5,-1.1 -1,-2.1 -1.5,-3 0.5,0.9 1,1.9 1.5,3 z" id="path415">
      </path>
    </g>
    <g id="g417">
      <path style="fill:#ffffff" d="m 895.2,648 c 0.3,2 0.5,4.2 0.6,6.7 -0.1,-2.5 -0.3,-4.7 -0.6,-6.7 z" id="path419">
      </path>
    </g>
    <g id="g421">
      <path style="fill:#ffffff" d="m 894.7,645 c 0.1,0.4 0.2,0.8 0.2,1.3 0,-0.5 -0.1,-0.9 -0.2,-1.3 z" id="path423">
      </path>
    </g>
    <g id="g425">
      <path style="fill:#ffffff" d="m 892.7,637.9 c 0.1,0.3 0.2,0.6 0.3,0.9 -0.1,-0.3 -0.2,-0.6 -0.3,-0.9 z" id="path427">
      </path>
    </g>
    <g id="g429">
      <path style="fill:#ffffff" d="m 890.7,633.8 c -0.1,-0.2 -0.2,-0.3 -0.3,-0.5 0.1,0.2 0.2,0.3 0.3,0.5 z" id="path431">
      </path>
    </g>
    <g id="g433">
      <path style="fill:#ffffff" d="m 711.4,619.8 c 0.1,-0.1 0.2,-0.1 0.3,-0.2 -0.1,0 -0.2,0.1 -0.3,0.2 z" id="path435">
      </path>
    </g>
    <g id="g437">
      <path style="fill:#ffffff" d="m 712.4,618.9 c 0.1,-0.1 0.2,-0.1 0.3,-0.2 -0.1,0.1 -0.2,0.2 -0.3,0.2 z" id="path439">
      </path>
    </g>
    <g id="g441">
      <path style="fill:#ffffff" d="m 713.4,618.2 c 0.1,-0.1 0.2,-0.2 0.3,-0.3 -0.1,0.1 -0.2,0.2 -0.3,0.3 z" id="path443">
      </path>
    </g>
    <g id="g445">
      <path style="fill:#ffffff" d="m 716.2,615.4 c -0.5,0.6 -1.1,1.1 -1.6,1.6 0,0 0,0 0.1,0 0.5,-0.5 1,-1 1.5,-1.6 z" id="path447">
      </path>
    </g>
    <g id="g449">
      <path style="fill:#ffffff" d="m 709.7,620.8 c 0.1,-0.1 0.2,-0.1 0.3,-0.1 -0.1,0 -0.2,0.1 -0.3,0.1 z" id="path451">
      </path>
    </g>
    <g id="g453">
      <path style="fill:#ffffff" d="m 710.5,620.3 c 0.1,-0.1 0.2,-0.1 0.3,-0.2 0,0.1 -0.1,0.1 -0.3,0.2 z" id="path455">
      </path>
    </g>
    <g id="g457">
      <path style="fill:#ffffff" d="m 708,621.6 c 0,0 0.1,0 0.1,-0.1 0,0 0,0 0,0 0,0.1 -0.1,0.1 -0.1,0.1 z" id="path459">
      </path>
    </g>
    <g id="g461">
      <path style="fill:#ffffff" d="m 709,621.2 c 0.1,0 0.1,-0.1 0.2,-0.1 0,0 -0.1,0 -0.2,0.1 z" id="path463">
      </path>
    </g>
    <g id="g465">
      <path style="fill:#ffffff" d="m 708.5,621.4 c 0,0 0.1,0 0.1,-0.1 0,0.1 0,0.1 -0.1,0.1 z" id="path467">
      </path>
    </g>
    <g id="g469">
      <path style="fill:#ffffff" d="m 716.4,615.2 c 0.2,-0.2 0.4,-0.4 0.6,-0.7 -0.3,0.3 -0.4,0.5 -0.6,0.7 z" id="path471">
      </path>
    </g>
    <g id="g473">
      <path style="fill:#ffffff" d="m 721.1,608.4 c -0.2,0.4 -0.4,0.8 -0.6,1.1 0,0 0.1,-0.1 0.1,-0.1 0.1,-0.3 0.3,-0.6 0.5,-1 z" id="path475">
      </path>
    </g>
    <g id="g477">
      <path style="fill:#ffffff" d="m 719.7,610.8 c 0.1,-0.2 0.2,-0.4 0.4,-0.6 -0.2,0.2 -0.3,0.4 -0.4,0.6 z" id="path479">
      </path>
    </g>
    <g id="g481">
      <path style="fill:#ffffff" d="m 718.1,613.1 c 0.1,-0.2 0.3,-0.4 0.4,-0.5 -0.2,0.1 -0.3,0.3 -0.4,0.5 z" id="path483">
      </path>
    </g>
    <g id="g485">
      <path style="fill:#ffffff" d="m 718.9,612 c 0.1,-0.2 0.2,-0.4 0.4,-0.5 -0.2,0.1 -0.3,0.3 -0.4,0.5 z" id="path487">
      </path>
    </g>
    <g id="g489">
      <path style="fill:#ffffff" d="m 717.2,614.1 c 0.2,-0.2 0.3,-0.4 0.5,-0.6 -0.2,0.3 -0.3,0.5 -0.5,0.6 z" id="path491">
      </path>
    </g>
    <g id="g493">
      <polygon style="fill:#ffffff" points="692.5,844.2 690.9,841.4 690.6,844.2 " id="polygon495">
      </polygon>
    </g>
    <g id="g497">
      <polygon style="fill:#050709" points="692.5,844.2 702.8,844.2 692.3,826.3 690.9,841.4 " id="polygon499">
      </polygon>
    </g>
    <g id="g501">
      <polygon style="fill:#c1b49a" points="702.8,844.2 712,844.1 693.5,812.8 692.3,826.3 " id="polygon503">
      </polygon>
    </g>
    <g id="g505">
      <polygon style="fill:#050709" points="712,844.1 722.3,844.1 695,797.8 693.5,812.8 " id="polygon507">
      </polygon>
    </g>
    <g id="g509">
      <polygon style="fill:#c1b49a" points="722.3,844.1 731.6,844 696.2,784.3 695,797.8 " id="polygon511">
      </polygon>
    </g>
    <g id="g513">
      <polygon style="fill:#050709" points="731.6,844 741.8,844 697.6,769.3 696.2,784.3 " id="polygon515">
      </polygon>
    </g>
    <g id="g517">
      <polygon style="fill:#c1b49a" points="741.8,844 751.1,844 698.9,755.7 697.6,769.3 " id="polygon519">
      </polygon>
    </g>
    <g id="g521">
      <polygon style="fill:#050709" points="698.9,755.7 751.1,844 761.4,843.9 701.6,742.9 699.9,745.1 " id="polygon523">
      </polygon>
    </g>
    <g id="g525">
      <polygon style="fill:#c1b49a" points="761.4,843.9 770.6,843.9 706.9,736.2 701.6,742.9 " id="polygon527">
      </polygon>
    </g>
    <g id="g529">
      <polygon style="fill:#050709" points="770.6,843.9 780.9,843.9 712.8,728.7 706.9,736.2 " id="polygon531">
      </polygon>
    </g>
    <g id="g533">
      <polygon style="fill:#c1b49a" points="780.9,843.9 790.1,843.8 718,721.9 712.8,728.7 " id="polygon535">
      </polygon>
    </g>
    <g id="g537">
      <path style="fill:#050709" d="m 699.6,673.4 c 3.8,15 19.7,46.9 19.7,46.9 l -1.3,1.6 72.1,121.9 10.3,0 -100.8,-170.4 z" id="path539">
      </path>
    </g>
    <g id="g541">
      <path style="fill:#c1b49a" d="m 697.8,654.7 c 0,1.1 0,2.3 0,3.5 0,0.1 0,0.2 0,0.3 0,0.6 0,1.1 0.1,1.7 0,0.2 0,0.3 0,0.5 0,1 0.1,2 0.2,3.1 0,0.2 0,0.4 0.1,0.7 0,0.5 0.1,0.9 0.2,1.4 0,0.4 0.1,0.7 0.1,1.1 0.1,0.4 0.1,0.9 0.2,1.4 0.1,0.4 0.1,0.9 0.2,1.3 0,0.4 0.1,0.7 0.2,1.1 0.1,0.8 0.3,1.7 0.6,2.7 l 100.8,170.4 9.3,0 -112,-189.2 z" id="path543">
      </path>
    </g>
    <g id="g545">
      <path style="fill:#050709" d="m 699.6,640.2 c -1,4.1 -1.7,8.9 -1.8,14.4 l 111.8,189.1 10.3,0 -120.3,-203.5 z" id="path547">
      </path>
    </g>
    <g id="g549">
      <path style="fill:#c1b49a" d="m 702.9,630.1 c -1.2,2.7 -2.4,6.1 -3.3,10.1 l 120.3,203.5 9.2,0 -126.2,-213.6 z" id="path551">
      </path>
    </g>
    <g id="g553">
      <path style="fill:#050709" d="m 708.1,621.6 c -0.1,0 -0.1,0 -0.1,0.1 0,0 0,0 -0.1,0 -0.2,0.1 -0.3,0.1 -0.3,0.1 0,0 -2.3,2.8 -4.7,8.4 l 126.3,213.6 3.1,0 2.6,-7.6 -126.8,-214.6 z" id="path555">
      </path>
    </g>
    <g id="g557">
      <path style="fill:#c1b49a" d="m 714.7,617 c 0,0 -0.1,0 0,0 -0.4,0.3 -0.7,0.6 -1,0.9 -0.1,0.1 -0.2,0.2 -0.3,0.3 -0.2,0.2 -0.4,0.4 -0.6,0.5 -0.1,0.1 -0.2,0.2 -0.3,0.2 -0.3,0.2 -0.5,0.4 -0.8,0.6 -0.1,0.1 -0.2,0.1 -0.3,0.2 -0.2,0.1 -0.3,0.2 -0.5,0.3 -0.1,0.1 -0.2,0.1 -0.3,0.2 -0.2,0.1 -0.4,0.3 -0.6,0.4 -0.1,0.1 -0.2,0.1 -0.3,0.1 -0.1,0.1 -0.3,0.1 -0.4,0.2 -0.1,0 -0.2,0.1 -0.2,0.1 -0.1,0.1 -0.2,0.1 -0.4,0.2 -0.1,0 -0.1,0 -0.1,0.1 -0.1,0.1 -0.3,0.1 -0.4,0.2 0,0 0,0 0,0 L 835,836.1 838.4,826.2 714.7,617 Z" id="path559">
      </path>
    </g>
    <g id="g561">
      <path style="fill:#050709" d="m 720.5,609.4 c 0,0 0,0.1 -0.1,0.1 -0.1,0.2 -0.3,0.5 -0.4,0.7 -0.1,0.2 -0.2,0.4 -0.4,0.6 -0.1,0.2 -0.3,0.4 -0.4,0.6 -0.1,0.2 -0.2,0.4 -0.4,0.5 -0.1,0.2 -0.3,0.4 -0.4,0.6 -0.1,0.2 -0.3,0.4 -0.4,0.5 -0.1,0.2 -0.2,0.3 -0.4,0.5 -0.1,0.2 -0.3,0.4 -0.5,0.6 -0.1,0.1 -0.2,0.3 -0.3,0.4 -0.2,0.2 -0.4,0.4 -0.6,0.7 -0.1,0.1 -0.1,0.1 -0.2,0.2 -0.5,0.6 -1,1.1 -1.5,1.6 l 123.7,209.2 3.8,-11 -121.5,-205.8 z" id="path563">
      </path>
    </g>
    <g id="g565">
      <path style="fill:#c1b49a" d="m 724.5,600.6 c 0,0.1 -0.1,0.2 -0.1,0.3 -0.1,0.2 -0.2,0.4 -0.2,0.7 -0.1,0.4 -0.3,0.8 -0.4,1.1 0,0.1 -0.1,0.3 -0.2,0.4 -0.1,0.3 -0.2,0.6 -0.4,0.9 -0.1,0.2 -0.2,0.4 -0.3,0.6 -0.1,0.3 -0.2,0.5 -0.3,0.8 -0.2,0.4 -0.4,0.8 -0.6,1.2 -0.1,0.2 -0.2,0.4 -0.3,0.6 -0.2,0.3 -0.3,0.6 -0.5,0.9 -0.1,0.1 -0.1,0.3 -0.2,0.4 -0.2,0.3 -0.4,0.7 -0.6,1 l 121.7,205.8 3.4,-9.9 -121,-204.8 z" id="path567">
      </path>
    </g>
    <g id="g569">
      <path style="fill:#050709" d="m 727.5,588.3 c 0,0.1 0,0.2 0,0.3 0,0.2 0,0.3 -0.1,0.5 0,0.2 -0.1,0.4 -0.1,0.6 0,0.1 0,0.3 -0.1,0.4 0,0.2 -0.1,0.3 -0.1,0.5 -0.1,0.6 -0.3,1.3 -0.4,1.9 0,0.2 -0.1,0.4 -0.1,0.6 -0.1,0.4 -0.2,0.9 -0.3,1.3 -0.1,0.4 -0.2,0.9 -0.3,1.3 -0.1,0.3 -0.2,0.6 -0.2,0.9 -0.2,0.5 -0.3,1.1 -0.5,1.6 -0.1,0.2 -0.1,0.4 -0.2,0.6 -0.2,0.6 -0.4,1.2 -0.6,1.7 0,0.1 0,0.1 -0.1,0.2 l 121.1,204.8 3.8,-11 -121.8,-206.2 z" id="path571">
      </path>
    </g>
    <g id="g573">
      <path style="fill:#c1b49a" d="m 727.8,573 c 0.2,5.5 0.2,11.3 -0.2,15.3 l 121.9,206.1 3.4,-9.9 L 727.8,573 Z" id="path575">
      </path>
    </g>
    <g id="g577">
      <path d="m 730.9,560.8 c -1.3,-0.5 -2.5,-1 -3.8,-1.5 l 0,0 c 0,0 0.4,6.4 0.7,13.7 l 125.1,211.5 3.8,-11 -125.8,-212.7 z" id="path579">
      </path>
    </g>
    <g id="g581">
      <path style="fill:#c1b49a" d="m 742.2,564.3 c -4,-1 -7.8,-2.1 -11.3,-3.5 l 125.8,212.7 3.4,-9.9 -117.9,-199.3 z" id="path583">
      </path>
    </g>
    <g id="g585">
      <path style="fill:#050709" d="m 753.7,566.4 c -4.1,-0.5 -7.9,-1.2 -11.5,-2.1 l 117.9,199.3 3.8,-11 -110.2,-186.2 z" id="path587">
      </path>
    </g>
    <g id="g589">
      <path style="fill:#c1b49a" d="m 763.5,567.2 c -3.4,-0.2 -6.7,-0.5 -9.8,-0.9 l 110.1,186.3 3.4,-9.9 -103.7,-175.5 z" id="path591">
      </path>
    </g>
    <g id="g593">
      <path style="fill:#050709" d="m 773.9,567.4 c -3.6,0.1 -7.1,0 -10.4,-0.1 l 103.8,175.5 0.4,-1.2 -6.3,-23.9 c 0,0 0.3,-0.3 0.9,-0.7 L 773.9,567.4 Z" id="path595">
      </path>
    </g>
    <g id="g597">
      <path style="fill:#c1b49a" d="m 782.9,566.9 c -3.1,0.2 -6.1,0.4 -9,0.4 l 88.5,149.6 c 1.2,-0.9 3.4,-2.8 6.1,-5.3 L 782.9,566.9 Z" id="path599">
      </path>
    </g>
    <g id="g601">
      <path style="fill:#050709" d="m 792.8,566.3 c -3,0.2 -5.9,0.3 -8.6,0.5 -0.4,0 -0.9,0.1 -1.3,0.1 l 85.6,144.7 c 0.7,-0.6 1.4,-1.3 2.1,-1.9 0.3,-0.3 0.6,-0.6 0.9,-0.8 0.2,-0.2 0.4,-0.4 0.5,-0.5 0.4,-0.4 0.7,-0.7 1.1,-1.1 0.2,-0.2 0.3,-0.3 0.5,-0.5 0.4,-0.4 0.8,-0.8 1.2,-1.3 0.1,-0.1 0.2,-0.2 0.3,-0.3 L 792.8,566.3 Z" id="path603">
      </path>
    </g>
    <g id="g605">
      <path style="fill:#c1b49a" d="m 801.8,565.9 c -3.1,0.2 -6.1,0.3 -9,0.5 l 82.1,138.9 c 0.1,-0.1 0.1,-0.1 0.2,-0.2 0.3,-0.3 0.6,-0.6 0.9,-0.9 0.2,-0.2 0.3,-0.4 0.5,-0.6 0.3,-0.3 0.6,-0.7 0.9,-1.1 0.2,-0.2 0.3,-0.3 0.5,-0.5 0.3,-0.4 0.7,-0.8 1,-1.1 0.1,-0.2 0.3,-0.3 0.4,-0.5 0.3,-0.4 0.7,-0.8 1,-1.2 0,-0.1 0.1,-0.1 0.1,-0.2 L 801.8,565.9 Z" id="path607">
      </path>
    </g>
    <g id="g609">
      <path style="fill:#050709" d="m 811.7,565.2 c -3.4,0.3 -6.7,0.5 -9.9,0.7 L 880.5,699 c 0.1,-0.1 0.2,-0.2 0.2,-0.3 0.4,-0.5 0.8,-0.9 1.1,-1.4 0.1,-0.1 0.2,-0.3 0.3,-0.4 0.4,-0.5 0.8,-1 1.1,-1.5 0.1,-0.1 0.2,-0.3 0.3,-0.4 0.4,-0.5 0.8,-1 1.2,-1.6 0.1,-0.1 0.2,-0.2 0.2,-0.3 0.4,-0.5 0.8,-1.1 1.1,-1.6 0,-0.1 0.1,-0.1 0.1,-0.2 L 811.7,565.2 Z" id="path611">
      </path>
    </g>
    <g id="g613">
      <path style="fill:#c1b49a" d="m 820.4,564.2 c -2.9,0.4 -5.9,0.7 -8.7,1 l 74.6,126.1 c 0.1,-0.1 0.1,-0.2 0.2,-0.3 0.3,-0.5 0.7,-1 1,-1.5 0.1,-0.2 0.2,-0.3 0.3,-0.5 0.3,-0.5 0.6,-1 0.9,-1.5 0.1,-0.2 0.2,-0.4 0.3,-0.6 0.3,-0.5 0.6,-1 0.8,-1.5 0.1,-0.2 0.2,-0.4 0.3,-0.6 0.2,-0.5 0.5,-1 0.8,-1.5 0,0 0,-0.1 0,-0.1 l -70.5,-119 z" id="path615">
      </path>
    </g>
    <g id="g617">
      <path style="fill:#050709" d="m 829.7,562.6 c -3.1,0.6 -6.3,1.2 -9.3,1.6 l 70.4,119.1 c 0.2,-0.5 0.5,-1 0.7,-1.5 0.1,-0.2 0.2,-0.5 0.3,-0.8 0.2,-0.4 0.3,-0.8 0.5,-1.1 0.1,-0.3 0.3,-0.6 0.4,-0.9 0.2,-0.4 0.3,-0.9 0.5,-1.3 0.1,-0.3 0.2,-0.6 0.3,-0.9 0.1,-0.4 0.2,-0.7 0.3,-1 0.1,-0.5 0.3,-0.9 0.4,-1.4 0.1,-0.3 0.2,-0.6 0.2,-0.9 0.1,-0.3 0.1,-0.7 0.2,-1 0,0 0,-0.1 0,-0.1 L 829.7,562.6 Z" id="path619">
      </path>
    </g>
    <g id="g621">
      <path style="fill:#c1b49a" d="m 837.8,560.6 c -2.7,0.8 -5.4,1.4 -8.1,2 l 64.9,109.7 c 0.1,-0.6 0.2,-1.1 0.3,-1.7 0.1,-0.8 0.2,-1.6 0.3,-2.4 0,-0.2 0.1,-0.3 0.1,-0.5 0.1,-0.5 0.1,-1.1 0.1,-1.6 0.1,-0.5 0.1,-1 0.1,-1.4 0,-0.4 0.1,-0.7 0.1,-1.1 0,-0.6 0.1,-1.2 0.1,-1.8 0,-0.3 0,-0.5 0,-0.8 0,-0.7 0,-1.3 0.1,-2 0,-0.1 0,-0.2 0,-0.3 l -58,-98.1 z" id="path623">
      </path>
    </g>
    <g id="g625">
      <path style="fill:#050709" d="m 846.4,557.7 c -2.8,1.1 -5.7,2.1 -8.6,2.9 l 58,98.1 c 0,-0.1 0,-0.3 0,-0.4 0,-0.5 0,-1 0,-1.4 0,-0.2 0,-0.4 0,-0.6 0,-0.5 0,-1 0,-1.5 0,0 0,-0.1 0,-0.1 -0.1,-2.4 -0.3,-4.6 -0.6,-6.7 0,-0.1 0,-0.1 0,-0.2 -0.1,-0.5 -0.1,-0.9 -0.2,-1.3 0,-0.1 0,-0.1 0,-0.2 -0.1,-0.5 -0.2,-0.9 -0.2,-1.3 0,0 0,-0.1 0,-0.1 -0.5,-2.3 -1,-4.3 -1.6,-6 0,0 0,0 0,-0.1 -0.1,-0.3 -0.2,-0.6 -0.3,-0.9 0,0 0,-0.1 0,-0.1 -0.1,-0.3 -0.2,-0.6 -0.3,-0.8 0,0 0,-0.1 0,-0.1 -0.5,-1.1 -1,-2.1 -1.5,-3 0,0 0,0 -0.1,-0.1 -0.1,-0.2 -0.2,-0.3 -0.3,-0.5 -0.1,-0.1 -0.1,-0.1 -0.1,-0.2 -0.1,-0.1 -0.2,-0.2 -0.2,-0.4 -0.1,-0.1 -0.1,-0.2 -0.2,-0.3 -0.1,-0.1 -0.1,-0.2 -0.2,-0.3 -0.1,-0.1 -0.1,-0.2 -0.2,-0.3 0,-0.1 -0.1,-0.1 -0.1,-0.2 -0.1,-0.1 -0.2,-0.3 -0.3,-0.4 0,0 0,0 -0.1,-0.1 -0.8,-1 -1.3,-1.5 -1.3,-1.5 0,0 -0.4,-1.6 -1.1,-4.2 l -40.5,-67.7 z" id="path627">
      </path>
    </g>
    <g id="g629">
      <path style="fill:#c1b49a" d="m 853.8,554.5 c -2.4,1.2 -4.9,2.3 -7.3,3.3 l 40.2,67.9 c -1.3,-5.3 -3.6,-15 -5.3,-24.6 l -27.6,-46.6 z" id="path631">
      </path>
    </g>
    <g id="g633">
      <path style="fill:#050709" d="m 879.4,580.4 -18,-30.4 c -2.5,1.6 -5.1,3.1 -7.7,4.4 l 27.5,46.5 c 0,-0.3 -0.1,-0.5 -0.1,-0.7 -0.7,-4.5 -1.3,-8.9 -1.6,-12.9 0,-1.4 -0.1,-3.9 -0.1,-6.9 z" id="path635">
      </path>
    </g>
    <g id="g637">
      <path style="fill:#c1b49a" d="m 868,545.4 c -2.1,1.7 -4.3,3.3 -6.5,4.7 l 18,30.4 c 0,-4.2 0.1,-9.6 0.2,-15.3 L 868,545.4 Z" id="path639">
      </path>
    </g>
    <g id="g641">
      <path style="fill:#050709" d="m 874.7,539.3 c -2.2,2.2 -4.4,4.2 -6.7,6.1 l 11.7,19.8 c 0.1,-4.8 0.3,-9.7 0.4,-14.3 0,-0.8 0,-1.5 0.1,-2.3 l -5.5,-9.3 z" id="path643">
      </path>
    </g>
    <g id="g645">
      <path style="fill:#c1b49a" d="m 880.2,548.6 c 0.2,-6.7 0.4,-12.2 0.5,-14.8 l -0.5,-0.8 c -1.8,2.2 -3.7,4.3 -5.6,6.2 l 5.6,9.4 z" id="path647">
      </path>
    </g>
    <g id="g649">
      <path style="fill:#050709" d="m 880.7,533.9 c 0,-0.9 0.1,-1.4 0.1,-1.4 l 0,0 c -0.2,0.2 -0.3,0.4 -0.5,0.7 l 0.4,0.7 z" id="path651">
      </path>
    </g>
    <g id="g653">
      <path style="fill:#c1b49a" d="m 673.7,352.7 c -19.2,25.6 -20.4,62.6 -20.4,62.6 l 0,0 c 1,3.8 1.6,6.2 1.6,6.2 0,0 -9.5,-1.1 -10.5,6 -0.1,0.4 -0.1,0.8 -0.1,1.2 -0.4,3.5 0,7.1 0.7,10.6 0.6,3 1.6,6 2.7,8.9 2.3,6.1 5.4,11.9 7.5,17 0.2,0.6 0.5,1.2 0.7,1.7 0.7,1.7 1.3,3.4 1.6,4.9 1,4 2.2,7.6 3.5,10.7 2.4,5.8 5.2,10.2 8,13.5 -0.1,-1 -0.1,-2 0.1,-3.1 1,-4.4 5.4,-7.1 9.9,-6.1 4.4,1 7.1,5.5 6.1,9.9 -0.7,3.1 -3.2,5.4 -6.1,6.1 l 0.3,1.5 c 2.9,1.4 4.8,1.7 4.8,1.7 0,0 0.2,1.5 0.8,4 0.9,3.6 2.6,9.2 5.9,15.6 3.6,7 9.2,15 17.5,22 2,1.7 4.2,3.4 6.6,5 3.7,2.4 7.7,4.7 12.3,6.7 l 0,0 c 1.2,0.5 2.5,1 3.8,1.5 3.5,1.3 7.3,2.5 11.3,3.5 3.6,0.9 7.5,1.6 11.5,2.1 3.1,0.4 6.4,0.7 9.8,0.9 3.3,0.2 6.8,0.2 10.4,0.1 2.9,-0.1 5.9,-0.2 9,-0.4 0.4,0 0.9,-0.1 1.3,-0.1 2.7,-0.2 5.6,-0.4 8.6,-0.5 2.9,-0.1 5.9,-0.3 9,-0.5 3.2,-0.2 6.5,-0.4 9.9,-0.7 2.8,-0.3 5.8,-0.6 8.7,-1 3.1,-0.4 6.2,-0.9 9.3,-1.6 2.7,-0.6 5.4,-1.2 8.1,-2 2.9,-0.8 5.7,-1.8 8.6,-2.9 2.5,-1 4.9,-2.1 7.3,-3.3 2.6,-1.3 5.2,-2.8 7.7,-4.4 2.2,-1.4 4.4,-3 6.5,-4.7 2.3,-1.8 4.5,-3.9 6.7,-6.1 1.9,-1.9 3.8,-4 5.6,-6.2 0.2,-0.2 0.3,-0.4 0.5,-0.7 1.1,-1.4 2.2,-2.9 3.3,-4.4 1.1,-1.6 2.2,-3.2 3.2,-5 0.9,-1.5 1.8,-3 2.6,-4.6 0.1,-0.2 0.2,-0.5 0.4,-0.7 5.7,-11 9.4,-23.4 11.7,-33.3 1.9,-8.5 2.9,-15 3.1,-17.1 C 865.7,456 829,437.5 801.3,408.8 c -7.9,-8.2 -18.1,-18.7 -29.8,-30.6 -6.6,-6.6 -14,-14 -21.6,-21.8 -4.3,-4.3 -8.6,-8.8 -12.9,-13.3 -1.2,-1.3 -2.5,-2.6 -3.7,-3.8 -2,-2.1 -4,-4.2 -6,-6.2 -5.7,-5.8 -11.5,-11.7 -17.4,-17.7 -5,4 -20.3,16.1 -36.2,37.3 z m 28,16.4 c 27.5,10.5 41,8.3 41,8.3 0,0 -0.1,0.3 -0.3,0.7 l 0.3,-0.1 c 0,0 -0.1,0 -0.3,0.1 0,0 0,0 0,0 -2.8,0.8 -5.2,1.4 -7.4,1.9 -5.4,1.4 -12.8,3.5 -19.8,5.6 3.2,1.6 5.3,4.6 5.4,8 0,1.5 -0.4,3 -1.2,4.3 11.3,-2.4 18.2,-11.2 21.4,-16.2 -1,2.1 -2.3,4.4 -3.2,5.3 -9,9.6 -16,17.8 -44.4,13.2 -2.3,-0.4 -4.5,-1 -6.6,-1.9 -6.1,4.1 -9.8,7.6 -9.8,7.6 0,0 2.2,-4.3 1.5,-11.6 0,-0.3 -0.1,-0.6 -0.1,-0.9 -7.5,-5.6 -12.1,-12.4 -12.1,-12.4 0,0 9,-22.2 35.6,-11.9 z m 83.9,61.7 c 6.3,0.1 8.8,6.5 8.3,11.9 -3.8,1 -3.4,-1.6 -5.8,-3 -2.2,-1.4 -4.9,-1.4 -7.4,-1.3 l -1.3,0 c -3.8,-3.6 2.5,-7.7 6.2,-7.6 z m -7.3,35.9 c 4.8,0.1 9.3,-2.5 12.5,-2.6 24.7,-0.2 34.6,25.9 34.6,25.9 0,0 -4.3,9.6 -20.6,16.9 -9,4 -32.5,8.8 -48.6,3.8 -8.7,-2.7 -14.9,-13 -14.9,-13 0,0 6.4,-21.7 25.4,-31.1 2.9,-1.5 8.3,0 11.6,0.1 z m -20.3,-34 1.2,-0.1 c 3.1,0 7.5,1.8 7.3,5.8 -0.3,3.9 -5.1,0.9 -4.6,6.2 -5.6,0.3 -10.5,-13.1 -3.9,-11.9 z m -25.3,-93 11,10.8 c 0,0 -21,-1.5 -35.9,-0.7 -24.5,1.3 -37.6,21.6 -37.6,21.6 0,0 9.8,-25.1 29.9,-29.5 7.8,-1.7 32.6,-2.2 32.6,-2.2 z" id="path655">
      </path>
    </g>
    <g id="g657">
      <path style="fill:#c1b49a" d="m 699,393.7 c 0,-1 0.2,-1.9 0.5,-2.8 -0.7,0.3 -1.3,0.5 -1.8,0.8 -1.4,0.7 -2.7,1.4 -4,2.1 1.5,1.3 3.5,2.5 6.1,3.5 -0.5,-1.1 -0.8,-2.3 -0.8,-3.6 z" id="path659">
      </path>
    </g>
    <g id="g661">
      <path style="fill:#050709" d="m 780.6,438.4 c 2.6,-0.1 5.3,-0.1 7.4,1.3 2.4,1.5 2,4 5.8,3 0.5,-5.4 -2,-11.8 -8.3,-11.9 -3.7,-0.1 -10,4 -6.3,7.6 l 1.4,0 z" id="path663">
      </path>
    </g>
    <g id="g665">
      <path style="fill:#050709" d="m 761.9,444.6 c -0.5,-5.2 4.3,-2.3 4.6,-6.2 0.3,-4 -4.2,-5.8 -7.3,-5.8 l -1.2,0.1 c -6.6,-1.2 -1.7,12.2 3.9,11.9 z" id="path667">
      </path>
    </g>
    <g id="g669">
      <path style="fill:#050709" d="m 670.2,371.4 c 0,0 13.1,-20.3 37.6,-21.6 14.9,-0.8 35.9,0.7 35.9,0.7 l -11,-10.8 c 0,0 -24.8,0.5 -32.6,2.2 -20.1,4.3 -29.9,29.5 -29.9,29.5 z" id="path671">
      </path>
    </g>
    <g id="g673">
      <path style="fill:#e4dbd7" d="m 758.3,490.3 c 4.1,0.8 10.3,1.7 17.9,1.3 16.1,-0.7 27.4,-2.4 34.2,-3.7 -1.8,-1.6 -8.4,-7 -16.9,-6.9 -2.6,0 -7.7,0.8 -10.2,0.6 -2.5,-0.1 -9.3,-0.2 -11.8,0.2 -5.1,0.9 -10.3,5.5 -13.2,8.5 z" id="path675">
      </path>
    </g>
    <g id="g677">
      <path style="fill:#050709" d="m 709.9,387.2 c 2.6,0 4.7,2.1 4.7,4.6 0,2.6 -2.1,4.7 -4.7,4.7 -2.6,0 -4.8,-2.1 -4.8,-4.6 0,-1.5 0.7,-2.9 1.9,-3.7 -2.9,1 -5.5,1.9 -7.4,2.7 -0.3,0.9 -0.5,1.8 -0.5,2.8 0,1.3 0.3,2.5 0.8,3.6 4.4,1.7 10.7,2.4 19.2,0.7 0.1,0 0.2,-0.1 0.3,-0.1 0.8,-1.3 1.2,-2.7 1.2,-4.3 0,-3.4 -2.2,-6.4 -5.4,-8 -1.8,0.5 -3.6,1.1 -5.3,1.6 z" id="path679">
      </path>
    </g>
    <g id="g681">
      <path style="fill:#c1b49a" d="m 705,391.9 c 0,2.6 2.2,4.7 4.8,4.6 2.6,0 4.8,-2.1 4.7,-4.7 0,-2.6 -2.1,-4.6 -4.7,-4.6 -1,0.3 -2,0.6 -3,1 -1,0.8 -1.8,2.2 -1.8,3.7 z" id="path683">
      </path>
    </g>
    <g id="g685">
      <path style="fill:#050709" d="m 776.2,491.6 c -7.6,0.3 -13.8,-0.5 -17.9,-1.3 -1.5,1.5 -2.4,2.6 -2.4,2.6 0,0 1.8,3.2 25.3,0.4 13.8,-1.7 29.7,-4.9 29.7,-4.9 0,0 -0.2,-0.2 -0.5,-0.5 -6.8,1.3 -18.1,3 -34.2,3.7 z" id="path687">
      </path>
    </g>
    <g id="g689">
      <path style="fill:#90278e" d="m 766.6,466.6 c -19,9.4 -25.4,31.1 -25.4,31.1 0,0 6.3,10.3 14.9,13 16.1,5 39.6,0.2 48.6,-3.8 16.4,-7.2 20.6,-16.9 20.6,-16.9 0,0 -10,-26 -34.6,-25.9 -3.2,0 -7.7,2.7 -12.5,2.6 -3.2,-0.1 -8.6,-1.6 -11.6,-0.1 z m 4.9,15.2 c 2.5,-0.4 9.3,-0.3 11.8,-0.2 2.6,0.1 7.7,-0.6 10.2,-0.6 8.5,0 15.1,5.3 16.9,6.9 0.3,0.3 0.5,0.5 0.5,0.5 0,0 -15.9,3.2 -29.7,4.9 -23.5,2.9 -25.3,-0.4 -25.3,-0.4 0,0 0.9,-1.1 2.4,-2.6 2.9,-3 8.1,-7.6 13.2,-8.5 z" id="path691">
      </path>
    </g>
    <g id="g693">
      <path style="fill:#90278e" d="m 688.8,553.3 -5.3,-27.6 -3,-15.6 -1.1,-5.7 -0.3,-1.5 c -0.7,0.2 -1.5,0.2 -2.2,0.2 l -0.6,7 -1.3,15.7 -2.3,27.6 -1.3,15.7 -0.5,5.9 -1.3,15.1 26.2,-1.4 -0.1,-0.4 -3.7,-19.2 -3.2,-15.8 z" id="path695">
      </path>
    </g>
    <g id="g697">
      <path style="fill:#90278e" d="m 685.1,496.7 c 1,-4.4 -1.7,-8.8 -6.1,-9.9 -4.4,-1 -8.8,1.7 -9.9,6.1 -0.3,1 -0.3,2.1 -0.1,3.1 0.5,3.2 2.9,6 6.2,6.8 0.5,0.1 1,0.2 1.5,0.2 0.8,0 1.5,0 2.2,-0.2 3,-0.7 5.5,-3 6.2,-6.1 z" id="path699">
      </path>
    </g>
    <g id="g701">
      <path style="fill:#90278e" d="m 666.1,380.9 c 0,0 4.7,6.8 12.1,12.4 -0.3,-2 -0.9,-3.1 -1.4,-4.7 L 742.5,378 c 0.2,-0.4 0.3,-0.7 0.3,-0.7 0,0 -13.5,2.3 -41,-8.3 -26.7,-10.2 -35.7,11.9 -35.7,11.9 z" id="path703">
      </path>
    </g>
    <g id="g705">
      <path style="fill:#a694ba" d="m 742.4,378.1 c 0,0 0,0 0,0 -0.9,0.2 -3.7,0.9 -7.4,1.9 2.2,-0.5 4.7,-1.1 7.4,-1.9 z" id="path707">
      </path>
    </g>
    <g id="g709">
      <path style="fill:#050709" d="m 699.9,397.3 c -2.6,-1 -4.6,-2.2 -6.1,-3.5 -2.6,1.5 -5,3 -7.1,4.4 2.1,0.9 4.3,1.6 6.6,1.9 28.4,4.6 35.4,-3.5 44.4,-13.2 0.9,-1 2.1,-3.2 3.2,-5.3 -3.1,5 -10,13.8 -21.4,16.2 -0.1,0 -0.2,0.1 -0.3,0.1 -8.7,1.8 -14.9,1 -19.3,-0.6 z" id="path711">
      </path>
    </g>
    <g id="g713">
      <path style="fill:#050709" d="m 676.8,388.6 c 0.5,1.6 1.1,2.7 1.4,4.7 0,0.3 0.1,0.6 0.1,0.9 0.7,7.3 -1.5,11.6 -1.5,11.6 0,0 3.7,-3.4 9.8,-7.6 2.1,-1.4 4.5,-2.9 7.1,-4.4 1.3,-0.7 2.6,-1.4 4,-2.1 0.5,-0.3 1.1,-0.5 1.8,-0.8 1.9,-0.8 4.5,-1.7 7.4,-2.7 0.9,-0.3 1.9,-0.6 3,-1 1.7,-0.5 3.5,-1.1 5.4,-1.6 7,-2.1 14.4,-4.1 19.8,-5.6 3.7,-1 6.5,-1.7 7.4,-2 0.2,-0.1 0.3,-0.1 0.3,-0.1 l -0.3,0.1 -65.7,10.6 z" id="path715">
      </path>
    </g>
    <g id="g717">
      <path style="fill:#050709" d="m 666.4,284.8 c -1.3,1.7 -2.8,3.6 -4.3,5.9 -2.5,3.8 -5.2,8.6 -7.8,14.4 -0.4,1 -0.9,2 -1.3,3.1 -0.5,1.1 -0.9,2.2 -1.4,3.4 -0.2,0.6 -0.5,1.3 -0.7,1.9 -2.4,6.6 -4.5,14.2 -6.2,23 -0.1,0.3 -0.1,0.6 -0.2,0.9 0,0 0,0 0,0.1 -0.5,2.6 -0.9,5.2 -1.2,7.8 -0.3,2.5 -0.5,5 -0.6,7.5 -0.1,2.7 -0.2,5.3 -0.2,7.8 0,2.5 0.1,5.1 0.3,7.5 0.2,2.7 0.4,5.3 0.7,7.8 0.3,2.6 0.7,5.1 1.1,7.5 0.5,2.8 1,5.4 1.5,7.8 3.1,14.5 7.2,23.9 7.2,23.9 l 0,0 c 0,0 1.2,-37 20.4,-62.6 15.9,-21.2 31.2,-33.4 36.2,-37 -12.4,-12.6 -25,-25.4 -37.1,-37.6 -0.4,0.3 -0.8,0.7 -1.4,1.2 -1.3,1.4 -3,3.2 -5,5.7 z" id="path719">
      </path>
    </g>
  </g>
</svg>