<?xml version="1.0" encoding="UTF-8" standalone="no"?>
<svg xmlns:dc="http://purl.org/dc/elements/1.1/" xmlns:cc="http://creativecommons.org/ns#"
     xmlns:rdf="http://www.w3.org/1999/02/22-rdf-syntax-ns#" xmlns:svg="http://www.w3.org/2000/svg"
     xmlns="http://www.w3.org/2000/svg" xmlns:xlink="http://www.w3.org/1999/xlink" version="1.1" id="svg1681"
     viewBox="0 0 1600 1000" height="1000" width="1600">
    <defs id="defs4">
        <clipPath clipPathUnits="userSpaceOnUse" id="clipPath4155">
            <path style="opacity:0.97000002;fill:none;fill-opacity:1;stroke:#000000;stroke-width:1;stroke-linecap:butt;stroke-linejoin:miter;stroke-miterlimit:4;stroke-dasharray:none;stroke-dashoffset:0;stroke-opacity:1"
                  d="m 484.61536,515.38458 666.66664,0 0,348.71793 -666.66664,0 z" id="jd_bd"/>
        </clipPath>
    </defs>
    <metadata id="metadata7">
        <rdf:RDF>
            <cc:Work rdf:about="">
                <dc:format>image/svg+xml</dc:format>
                <dc:type rdf:resource="http://purl.org/dc/dcmitype/StillImage"/>
                <dc:title></dc:title>
            </cc:Work>
        </rdf:RDF>
    </metadata>
    <image xlink:href="/designs/templates/002000401-1.jpg" width="1600" height="1000" id="jd_bg" x="0" y="0"/>
    <g id="jd_nt" clip-path="url(#clipPath4155)">
        <g id="g5084" transform="matrix(3.7386291,0,0,2.8798348,-186.67763,-582.95498)">
            <path id="path5086" style="fill:#5e89c2;fill-rule:evenodd"
                  d="m 257.5189,413.114 -16.3955,-8.1725 -10.7974,52.9092 9.0849,-16.7467 7.1416,-24.0899 0.1309,-0.4419 0.4591,0.006 5.2348,0.0748 5.1416,-3.5394 z"/>
            <path id="path5088" style="fill:#d6dbed;fill-rule:evenodd"
                  d="m 248.7464,440.1387 0.2259,5.5226 6.0905,-10.6175 -0.7737,-3.6278 -2.4889,1.1732 -3.0538,7.5495 z"/>
            <path id="path5090" style="fill:#8ea5d2;fill-rule:evenodd"
                  d="m 240.9222,440.2816 1.6396,8.3723 5.2543,-9.4561 2.9461,-7.2831 0.09,-0.2224 0.2146,-0.1012 2.9619,-1.3961 -2.6322,-12.3419 -3.8091,-0.0544 -6.6652,22.4829 z"/>
            <path id="path5092" style="fill:#8ea5d2;fill-rule:evenodd"
                  d="m 253.0616,399.1788 6.9235,-0.9373 4.0678,1.3637 -1.748,7.0354 -1.7609,7.0875 7.5438,-2.3437 1.4913,-0.4634 0.2737,0.0622 -1.7402,-16.213 -8.0303,0.1935 -7.0207,4.2151 z"/>
            <path id="path5094" style="fill:#0059a4;fill-rule:evenodd"
                  d="m 264.4037,390.2193 -2.0175,1.4913 -4.5367,1.5431 -4.7879,5.9251 7.0207,-4.2151 8.0303,-0.1935 1.7402,16.213 9.3816,2.1308 -4.9184,-19.1227 -9.9123,-3.772 z"/>
            <path id="path5096" style="fill:#8ea5d2;fill-rule:evenodd"
                  d="m 297.9795,440.2816 -1.6396,8.3723 -5.2543,-9.4561 -2.9461,-7.2831 -0.09,-0.2224 -0.2146,-0.1012 -2.9619,-1.3961 2.6322,-12.3419 3.809,-0.0544 6.6653,22.4829 z"/>
            <path id="path5098" style="fill:#5e89c2;fill-rule:evenodd"
                  d="m 281.3827,413.114 16.3955,-8.1725 10.7975,52.9092 -9.085,-16.7467 -7.1415,-24.0899 -0.1309,-0.4419 -0.4591,0.006 -5.2349,0.0748 -5.1416,-3.5394 z"/>
            <path id="path5100" style="fill:#d6dbed;fill-rule:evenodd"
                  d="m 290.1553,440.1387 -0.2259,5.5226 -6.0905,-10.6175 0.7737,-3.6278 2.4889,1.1732 3.0538,7.5495 z"/>
            <path id="path5102" style="fill:#d6dbed;fill-rule:evenodd"
                  d="m 258.6569,441.0272 1.9749,13.1373 7.2807,2.0196 7.0175,-1.2623 3.4413,-13.9043 -8.7896,-4.4267 -10.9248,4.4364 z"/>
            <path id="path5104" style="fill:#cdd4ea;fill-rule:evenodd"
                  d="m 257.8819,435.8718 0.589,3.9175 10.9084,-4.4297 0.2543,-0.1032 0.2479,0.1246 8.7891,4.4265 0.9044,-3.6539 -9.9933,-5.033 -11.6998,4.7512 z"/>
            <path id="path5106" style="fill:#b6c1e1;fill-rule:evenodd"
                  d="m 257.0232,430.16 0.6725,4.4738 11.6836,-4.7444 0.2543,-0.1032 0.2479,0.1246 9.993,5.0328 1.034,-4.1789 -11.3268,-5.7045 -12.5585,5.0998 z"/>
            <path id="path5108" style="fill:#8ea5d2;fill-rule:evenodd"
                  d="m 256.2483,425.0046 0.589,3.9177 12.542,-5.0932 0.2543,-0.1034 0.2479,0.1248 11.3265,5.7043 0.9042,-3.6539 -12.5305,-6.3108 -13.3334,5.4145 z"/>
            <path id="path5110" style="fill:#5e89c2;fill-rule:evenodd"
                  d="m 255.2809,418.5693 0.7813,5.1975 13.3171,-5.408 0.2543,-0.1032 0.2479,0.1246 12.5302,6.3107 1.2025,-4.8593 -14.0351,-7.0685 -14.2982,5.8062 z"/>
            <path id="path5112" style="fill:#0059a4;fill-rule:evenodd"
                  d="m 305.6696,405.9877 c 2.4465,10.0199 4.899,20.0973 7.3395,30.2362 2.4523,10.1883 4.8929,20.419 7.3394,30.6744 -11.0879,-0.8122 -22.167,-1.9932 -33.2478,-2.7223 l -0.7812,3.5408 c 14.5183,0.8852 29.0299,2.5634 43.5473,3.2887 -4.041,-10.87 -8.0724,-21.7895 -12.1108,-32.7019 -4.0191,-10.8604 -8.0576,-21.642 -12.0864,-32.3159 z m -21.1423,58.0275 c -0.6664,-0.0393 -1.3331,-0.0766 -1.9995,-0.1121 l -0.6329,3.5705 c 0.667,0.0326 1.3342,0.0672 2.0012,0.1035 l 0.6312,-3.5619 z m -4.3808,-0.2298 c -0.6683,-0.0304 -1.3366,-0.0584 -2.0049,-0.084 l -0.6362,3.5897 c 0.6689,0.0228 1.3376,0.0478 2.0065,0.0752 l 0.6346,-3.5809 z m -4.7027,-0.174 c -2.5259,-0.0708 -5.0524,-0.1035 -7.5789,-0.088 -2.5175,0.0156 -5.0337,0.0743 -7.5499,0.1676 l 0.3832,3.6125 c 2.7658,-0.0965 5.5316,-0.1528 8.2986,-0.1568 2.0217,-0.003 4.0431,0.0231 6.0644,0.0729 l 0.3826,-3.6082 z m -17.8168,0.1919 c -0.6675,0.0309 -1.3349,0.0636 -2.0023,0.0985 l 0.636,3.5891 c 0.6679,-0.0328 1.3355,-0.0639 2.0034,-0.0926 l -0.6371,-3.595 z m -4.3808,0.2316 c -0.6658,0.0394 -1.3318,0.0806 -1.9976,0.1234 l 0.6334,3.575 c 0.6663,-0.0408 1.3324,-0.0796 1.9988,-0.117 l -0.6346,-3.5814 z m -4.5623,0.2959 c -11.0988,0.7773 -22.1911,1.9374 -33.2905,2.6721 3.1038,-10.3469 6.2237,-20.6767 9.3356,-30.9556 3.0956,-10.225 6.2318,-20.3733 9.3477,-30.4456 -4.3209,10.7198 -8.6519,21.5597 -12.9627,32.4861 -4.3308,10.9772 -8.6418,21.9823 -12.9626,32.9177 13.7729,-0.6752 27.54,-2.2001 41.3173,-3.1179 l -0.7848,-3.5568 z"/>
        </g>
        <text id="text3378" y="841.75323" x="814.89948"
              style="font-style:normal;font-variant:normal;font-weight:normal;font-stretch:normal;font-size:60px;line-height:125%;font-family:'Bauhaus 93';-inkscape-font-specification:'Bauhaus 93, Normal';text-align:start;letter-spacing:0px;word-spacing:0px;writing-mode:lr-tb;text-anchor:start;fill:#004dab;fill-opacity:1;stroke:none;stroke-width:1px;stroke-linecap:butt;stroke-linejoin:miter;stroke-opacity:1">
            <tspan y="841.75323" x="814.89948" style="text-align:center;text-anchor:middle" id="text11">469-666-6666
            </tspan>
        </text>
    </g>
</svg>
 

