<?xml version="1.0" encoding="UTF-8" standalone="no"?>
<svg xmlns:dc="http://purl.org/dc/elements/1.1/" xmlns:cc="http://creativecommons.org/ns#"
     xmlns:rdf="http://www.w3.org/1999/02/22-rdf-syntax-ns#" xmlns:svg="http://www.w3.org/2000/svg"
     xmlns="http://www.w3.org/2000/svg" xmlns:xlink="http://www.w3.org/1999/xlink" width="1600" height="1000"
     viewBox="0 0 1600 1000" id="svg1681" version="1.1">
    <defs id="defs4">
        <clipPath clipPathUnits="userSpaceOnUse" id="clipPath4149">
            <path style="opacity:0.97000002;fill:none;fill-opacity:1;stroke:#000000;stroke-width:1.07886481;stroke-linecap:butt;stroke-linejoin:miter;stroke-miterlimit:4;stroke-dasharray:none;stroke-dashoffset:0;stroke-opacity:1"
                  id="path4151"
                  d="M 1065.2679,606.5495 A 261.4278,243.79814 0 0 1 803.85155,850.34764 261.4278,243.79814 0 0 1 542.41235,606.57077 261.4278,243.79814 0 0 1 803.80593,362.75136 261.4278,243.79814 0 0 1 1065.2679,606.50695"/>
        </clipPath>
        <clipPath clipPathUnits="userSpaceOnUse" id="clipPath4147">
            <path style="opacity:0.647343;fill:none;fill-opacity:1;stroke:#000000;stroke-width:1.00025785;stroke-linecap:butt;stroke-linejoin:miter;stroke-miterlimit:4;stroke-dasharray:none;stroke-dashoffset:0;stroke-opacity:1"
                  id="path4149"
                  d="M 1065.4761,633.33337 A 261.90463,235.71416 0 0 1 803.87202,869.04738 261.90463,235.71416 0 0 1 541.66753,633.87436 261.90463,235.71416 0 0 1 802.66983,397.62061 261.90463,235.71416 0 0 1 1065.4733,632.2514"/>
        </clipPath>
        <clipPath clipPathUnits="userSpaceOnUse" id="clipPath4154">
            <path style="opacity:0.647343;fill:none;fill-opacity:1;stroke:#000000;stroke-width:1;stroke-linecap:butt;stroke-linejoin:miter;stroke-miterlimit:4;stroke-dasharray:none;stroke-dashoffset:0;stroke-opacity:1"
                  d="m 541.66669,395.2381 525.00001,0 0,475 -525.00001,0 z" id="jd_bd"/>
        </clipPath>
    </defs>
    <metadata id="metadata7">
        <rdf:RDF>
            <cc:Work rdf:about="">
                <dc:format>image/svg+xml</dc:format>
                <dc:type rdf:resource="http://purl.org/dc/dcmitype/StillImage"/>
                <dc:title></dc:title>
            </cc:Work>
        </rdf:RDF>
    </metadata>
    <image xlink:href="/designs/templates/002001001-1.jpg" width="1600" height="1000" id="jd_bg" x="0" y="0"/>
    <g clip-path="url(#clipPath4154)" id="jd_nt">
        <g clip-path="url(#clipPath4147)" id="layer1">
            <svg id="svg9" preserveAspectRatio="xMidYMid meet" height="540" width="530" y="361.05368" x="540.39215"
                 viewBox="0 0 530 540" version="1.1">
                <image xlink:href="/designs/templates/girl1.png" id="image11" height="540" width="530"/>
            </svg>
        </g>
    </g>
</svg>
 

