<?xml version="1.0" encoding="utf-8"?>
<?xml-stylesheet type="text/css" href="https://fonts.googleapis.com/css?family=Aclonica"?>
<svg xmlns:dc="http://purl.org/dc/elements/1.1/" xmlns:cc="http://creativecommons.org/ns#" xmlns:rdf="http://www.w3.org/1999/02/22-rdf-syntax-ns#" xmlns:svg="http://www.w3.org/2000/svg" xmlns="http://www.w3.org/2000/svg" xmlns:xlink="http://www.w3.org/1999/xlink" id="svg2" xml:space="preserve" style="enable-background:new 0 0 1600 1000;" viewBox="0 0 1600 1000" height="1000px" width="1600px" y="0px" x="0px" version="1.1">
  <metadata id="metadata734">
    <rdf:RDF>
      <cc:Work rdf:about="">
        <dc:format>
          image/svg+xml
        </dc:format>
        <dc:type rdf:resource="http://purl.org/dc/dcmitype/StillImage">
        </dc:type>
        <dc:title>
        </dc:title>
      </cc:Work>
    </rdf:RDF>
  </metadata>
  <defs id="defs732">
    <clipPath clipPathUnits="userSpaceOnUse" id="clipPath4874">
      <path style="opacity:1;fill:none;fill-opacity:1;fill-rule:nonzero;stroke:#ffc300;stroke-width:2.20000005;stroke-linecap:butt;stroke-linejoin:miter;stroke-miterlimit:4;stroke-dasharray:none;stroke-dashoffset:0;stroke-opacity:1" d="m 427.27274,485.45456 816.36366,0 0,381.81818 -816.36366,0 z" id="jd_bd">
      </path>
    </clipPath>
  </defs>
  <image xlink:href="/designs/templates/002000101-2.jpg" transform="matrix(2.6667,0,0,2.5,2.441406e-4,-2.441406e-4)" id="jd_bg" height="400" width="600" style="overflow:visible;enable-background:new">
  </image>
  <g id="jd_nt" clip-path="url(#clipPath4874)">
    <g id="model_graphic">
      <g id="g8">
        <rect id="rect10" height="5.3" width="216.5" style="fill:#050709;" transform="matrix(-1 1.984984e-003 -1.984984e-003 -1 1977.3022 1699.2773)" y="848" x="879.6">
        </rect>
        <rect id="rect12" height="5.3" width="216.5" style="fill:#FFFFFF;" transform="matrix(-1 1.984984e-003 -1.984984e-003 -1 1977.2781 1690.7422)" y="843.7" x="879.6">
        </rect>
        <polygon id="polygon14" points="879.6,844 1096,843.6 1096,838.2 879.6,838.7   " style="fill:#050709;">
        </polygon>
        <polygon id="polygon16" points="879.6,838.7 1096,838.2 1096,832.9 879.5,833.4   " style="fill:#C1B49A;">
        </polygon>
        <rect id="rect18" height="5.3" width="216.5" style="fill:#050709;" transform="matrix(-1 1.962335e-003 -1.962335e-003 -1 1977.1626 1659.2021)" y="827.9" x="879.5">
        </rect>
        <rect id="rect20" height="5.3" width="216.5" style="fill:#C1B49A;" transform="matrix(-1 1.984984e-003 -1.984984e-003 -1 1977.1514 1648.5547)" y="822.6" x="879.5">
        </rect>
        <polygon id="polygon22" points="879.5,822.9 1096,822.5 1096,817.2 879.5,817.6   " style="fill:#050709;">
        </polygon>
        <polygon id="polygon24" points="879.5,817.6 1096,817.2 1096,811.8 879.5,812.3   " style="fill:#C1B49A;">
        </polygon>
        <polygon id="polygon26" points="879.5,812.3 1096,811.9 1096,806.6 879.5,807   " style="fill:#050709;">
        </polygon>
        <rect id="rect28" height="5.3" width="216.5" style="fill:#C1B49A;" transform="matrix(-1 1.967103e-003 -1.967103e-003 -1 1977.016 1606.3773)" y="801.5" x="879.5">
        </rect>
        <rect id="rect30" height="5.3" width="216.5" style="fill:#050709;" transform="matrix(-1 2.003104e-003 -2.003104e-003 -1 1977.009 1595.8749)" y="796.3" x="879.5">
        </rect>
        <rect id="rect32" height="5.3" width="216.5" style="fill:#C1B49A;" transform="matrix(-1 1.980454e-003 -1.980454e-003 -1 1976.96 1585.2743)" y="791" x="879.5">
        </rect>
        <polygon id="polygon34" points="879.5,791.3 1095.9,790.8 1095.9,785.5 879.4,785.9   " style="fill:#050709;">
        </polygon>
        <polygon id="polygon36" points="879.4,785.9 1095.9,785.5 1095.9,780.2 879.4,780.6   " style="fill:#C1B49A;">
        </polygon>
        <rect id="rect38" height="5.3" width="216.5" style="fill:#050709;" transform="matrix(-1 1.971395e-003 -1.971395e-003 -1 1976.8591 1553.715)" y="775.2" x="879.4">
        </rect>
        <rect id="rect40" height="5.3" width="216.5" style="fill:#C1B49A;" transform="matrix(-1 1.984984e-003 -1.984984e-003 -1 1976.8376 1543.0757)" y="769.9" x="879.4">
        </rect>
        <polygon id="polygon42" points="879.4,770.2 1095.9,769.7 1095.9,764.4 879.4,764.8   " style="fill:#050709;">
        </polygon>
        <polygon id="polygon44" points="879.4,764.8 1095.9,764.4 1095.9,759.1 879.4,759.5   " style="fill:#C1B49A;">
        </polygon>
        <polygon id="polygon46" points="879.4,759.6 1095.9,759.2 1095.8,753.9 879.4,754.3   " style="fill:#050709;">
        </polygon>
        <rect id="rect48" height="5.3" width="216.5" style="fill:#C1B49A;" transform="matrix(-1 1.948983e-003 -1.948983e-003 -1 1976.6838 1500.9229)" y="748.8" x="879.4">
        </rect>
        <polygon id="polygon50" points="879.4,749.1 1095.8,748.6 1095.8,743.3 879.4,743.7   " style="fill:#050709;">
        </polygon>
        <polygon id="polygon52" points="879.4,743.7 1095.8,743.3 1095.8,738 879.3,738.4   " style="fill:#C1B49A;">
        </polygon>
        <polygon id="polygon54" points="879.3,738.5 1095.8,738.1 1095.8,732.8 879.3,733.2   " style="fill:#050709;">
        </polygon>
        <polygon id="polygon56" points="879.3,733.2 1095.8,732.8 1095.8,727.5 879.3,727.9   " style="fill:#C1B49A;">
        </polygon>
        <rect id="rect58" height="5.3" width="216.5" style="fill:#050709;" transform="matrix(-1 1.994044e-003 -1.994044e-003 -1 1976.5635 1448.2202)" y="722.4" x="879.3">
        </rect>
        <polygon id="polygon60" points="879.3,722.7 1095.8,722.2 1095.8,716.9 879.3,717.3   " style="fill:#C1B49A;">
        </polygon>
        <rect id="rect62" height="5.3" width="216.5" style="fill:#050709;" transform="matrix(-1 1.984984e-003 -1.984984e-003 -1 1976.4951 1427.1355)" y="711.9" x="879.3">
        </rect>
        <rect id="rect64" height="5.3" width="216.5" style="fill:#C1B49A;" transform="matrix(-1 1.962335e-003 -1.962335e-003 -1 1976.448 1416.5232)" y="706.6" x="879.3">
        </rect>
        <polygon id="polygon66" points="879.3,706.9 1095.8,706.4 1095.8,701.1 879.3,701.6   " style="fill:#050709;">
        </polygon>
        <polygon id="polygon68" points="879.3,701.6 1095.8,701.1 1095.7,695.8 879.3,696.2   " style="fill:#C1B49A;">
        </polygon>
        <polygon id="polygon70" points="879.3,696.3 1095.7,695.9 1095.7,690.6 879.3,691   " style="fill:#050709;">
        </polygon>
        <polygon id="polygon72" points="879.3,691 1095.7,690.6 1095.7,685.3 879.3,685.7   " style="fill:#C1B49A;">
        </polygon>
        <rect id="rect74" height="5.3" width="216.5" style="fill:#050709;" transform="matrix(-1 1.980454e-003 -1.980454e-003 -1 1976.3062 1363.8491)" y="680.2" x="879.2">
        </rect>
        <rect id="rect76" height="5.3" width="216.5" style="fill:#C1B49A;" transform="matrix(-1 1.980454e-003 -1.980454e-003 -1 1976.2789 1353.2222)" y="674.9" x="879.2">
        </rect>
        <polygon id="polygon78" points="879.2,675.2 1095.7,674.8 1095.7,669.5 879.2,669.9   " style="fill:#050709;">
        </polygon>
        <polygon id="polygon80" points="879.2,669.9 1095.7,669.5 1095.7,664.2 879.2,664.6   " style="fill:#C1B49A;">
        </polygon>
        <polygon id="polygon82" points="879.2,664.7 1095.7,664.3 1095.7,658.9 879.2,659.4   " style="fill:#050709;">
        </polygon>
        <polygon id="polygon84" points="879.2,659.4 1095.7,658.9 1095.6,653.6 879.2,654.1   " style="fill:#C1B49A;">
        </polygon>
        <rect id="rect86" height="5.3" width="216.5" style="fill:#050709;" transform="matrix(-1 1.966865e-003 -1.966865e-003 -1 1976.1086 1300.5825)" y="648.6" x="879.2">
        </rect>
        <rect id="rect88" height="5.3" width="216.5" style="fill:#C1B49A;" transform="matrix(-1 1.980454e-003 -1.980454e-003 -1 1976.0874 1289.9402)" y="643.3" x="879.2">
        </rect>
        <polygon id="polygon90" points="879.2,643.6 1095.6,643.2 1095.6,637.8 879.2,638.3   " style="fill:#050709;">
        </polygon>
        <rect id="rect92" height="5.3" width="216.5" style="fill:#C1B49A;" transform="matrix(-1 1.984984e-003 -1.984984e-003 -1 1976.0283 1268.8391)" y="632.7" x="879.2">
        </rect>
        <polygon id="polygon94" points="879.1,633 1095.6,632.6 1095.6,627.3 879.1,627.7   " style="fill:#050709;">
        </polygon>
        <polygon id="polygon96" points="879.1,627.7 1095.6,627.3 1095.6,622 879.1,622.4   " style="fill:#C1B49A;">
        </polygon>
        <rect id="rect98" height="5.3" width="216.5" style="fill:#050709;" transform="matrix(-1 1.958043e-003 -1.958043e-003 -1 1975.918 1237.3073)" y="617" x="879.1">
        </rect>
        <polygon id="polygon100" points="879.1,617.2 1095.6,616.8 1095.6,611.4 879.1,611.9   " style="fill:#C1B49A;">
        </polygon>
        <rect id="rect102" height="5.3" width="216.5" style="fill:#050709;" transform="matrix(-1 1.984984e-003 -1.984984e-003 -1 1975.8677 1216.1849)" y="606.4" x="879.1">
        </rect>
        <polygon id="polygon104" points="879.1,606.6 1095.6,606.2 1095.5,600.9 879.1,601.3   " style="fill:#FFFFFF;">
        </polygon>
        <polygon id="polygon106" points="879.1,601.4 1095.5,601 1095.5,595.7 879.1,596.1   " style="fill:#050709;">
        </polygon>
        <polygon id="polygon108" points="879.1,596.1 1095.5,595.7 1095.5,590.3 879.1,590.8   " style="fill:#FFFFFF;">
        </polygon>
        <rect id="rect110" height="5.3" width="216.5" style="fill:#050709;" transform="matrix(-1 1.980454e-003 -1.980454e-003 -1 1975.7421 1173.9943)" y="585.3" x="879.1">
        </rect>
        <polygon id="polygon112" points="879,585.5 1095.5,585.1 1095.5,579.8 879,580.2   " style="fill:#FFFFFF;">
        </polygon>
        <rect id="rect114" height="5.3" width="216.5" style="fill:#050709;" transform="matrix(-1 1.975924e-003 -1.975924e-003 -1 1975.6794 1152.9031)" y="574.8" x="879">
        </rect>
        <rect id="rect116" height="5.3" width="216.5" style="fill:#FFFFFF;" transform="matrix(-1 1.989514e-003 -1.989514e-003 -1 1975.6543 1142.2656)" y="569.5" x="879">
        </rect>
        <polygon id="polygon118" points="879,569.7 1095.5,569.3 1095.5,564 879,564.4   " style="fill:#050709;">
        </polygon>
        <rect id="rect120" height="5.3" width="216.5" style="fill:#FFFFFF;" transform="matrix(-1 1.984984e-003 -1.984984e-003 -1 1975.5908 1121.1726)" y="558.9" x="879">
        </rect>
        <rect id="rect122" height="5.3" width="216.5" style="fill:#050709;" transform="matrix(-1 1.994044e-003 -1.994044e-003 -1 1975.563 1110.6978)" y="553.7" x="879">
        </rect>
        <rect id="rect124" height="5.3" width="216.5" style="fill:#FFFFFF;" transform="matrix(-1 1.975924e-003 -1.975924e-003 -1 1975.5258 1100.0878)" y="548.4" x="879">
        </rect>
        <rect id="rect126" height="5.3" width="216.5" style="fill:#050709;" transform="matrix(-1 1.980454e-003 -1.980454e-003 -1 1975.4916 1089.6165)" y="543.1" x="879">
        </rect>
        <polygon id="polygon128" points="879,543.3 1095.4,542.9 1095.4,537.6 879,538   " style="fill:#FFFFFF;">
        </polygon>
        <polygon id="polygon130" points="879,538.1 1095.4,537.7 1095.4,532.4 878.9,532.8   " style="fill:#050709;">
        </polygon>
        <polygon id="polygon132" points="878.9,532.8 1095.4,532.4 1095.4,527.1 878.9,527.5   " style="fill:#FFFFFF;">
        </polygon>
        <polygon id="polygon134" points="878.9,527.6 1095.4,527.1 1095.4,521.8 878.9,522.3   " style="fill:#050709;">
        </polygon>
        <g id="g136">
          <g id="g138">
            <path id="path140" d="M852.9,597.9c0,0-14-39.6,20.6-77.1c34.7-37.5,80-20,96.8,8.3c0,0,31.1,8.8,108.9-29.2c0,0,12.9,1.5,19.4,15.9l0.1,44.1      c-4.2,16.4-12.4,37.1-26.8,63.6C1008.3,740.6,886,787.9,815.5,727.4c-60.7-52-76.1-67.3-76.1-67.3S828.7,605.2,852.9,597.9z">
            </path>
            <path id="path142" d="M813.1,730.1c-60.1-51.5-75.7-66.8-76.3-67.4l-3.2-3.2l3.9-2.4c3.5-2.2,83.1-51,111.1-61.5      c-1-4.3-2.5-12.3-1.9-22.4c0.8-13.9,5.6-34.7,24.2-54.8c13.6-14.7,30.1-22.5,47.5-22.6c11.1,0,22.2,3.1,32.2,9      c9,5.3,16.5,12.6,21.9,21c1.4,0.2,4,0.5,7.8,0.5c13.7,0,44.5-3.9,97.3-29.7l0.9-0.5l1,0.1c0.6,0.1,15,1.9,22.3,18l0.3,0.7      l0.1,45.3l-0.1,0.4c-4.6,18.1-13.7,39.8-27.1,64.4c-21.7,40-51.2,73.6-85.1,97.2c-32.8,22.8-67.7,34.9-100.8,35c0,0,0,0,0,0      C860.3,757.4,834,748,813.1,730.1z M1095,516.6c-4.7-9.8-12.6-12.4-15.3-13c-53.5,26-85.2,29.9-99.4,29.9c-7.1,0-10.6-0.9-11-1      l-1.4-0.4l-0.7-1.2c-10-16.8-29.6-28-48.8-28c-15.5,0-30.1,7-42.3,20.3c-13.7,14.8-21.2,31.7-22.3,50      c-0.8,13.8,2.4,23.3,2.5,23.4l1.2,3.5l-3.6,1.1c-20.6,6.2-91.2,48.8-108.8,59.4c7.2,6.7,27.4,25.2,72.6,64      c19.5,16.7,44.2,25.6,71.3,25.5c0,0,0,0,0,0c66.8-0.1,137.3-50.6,179.6-128.4c13-23.9,21.8-44.8,26.3-62.3L1095,516.6z" style="fill:#C1B49A;">
            </path>
          </g>
          <g id="g144">
            <g id="g146">
              <path id="path148" d="M762.7,667c0.4,0.5,0.7,1.1,1.1,1.6c0.6,0.8,1.2,1.7,1.8,2.5c1.9,2.6,4,5.3,6.2,8.2       c0.5,0.7,1.1,1.4,1.7,2.1c2,2.5,4.1,5.1,6.3,7.7c1.3,1.6,2.7,3.2,4.1,4.8c0.5,0.6,1.1,1.2,1.6,1.8c1,1.1,2,2.2,3,3.2       c0.5,0.6,1,1.1,1.6,1.7c1.5,1.6,3,3.1,4.5,4.6c0.5,0.5,1,1,1.5,1.5c3,2.9,6.1,5.7,9.2,8.5c1.2,1,2.4,2.1,3.7,3.1       c2.3,1.9,4.7,3.7,7.1,5.5c2,1.5,4.1,2.9,6.2,4.3c3.4,2.2,6.9,4.3,10.4,6.1c3.5,1.8,7,3.4,10.7,4.8c7.5,2.8,15.6,5.3,24.7,6.9       c-1.9,2.3-4.1,4.4-6.2,5.9c-1.7,1.2-3.2,2.4-4.7,3.5c-7.4-2-14.2-4.4-20.6-6.8c-1.3-0.5-2.6-1-3.9-1.6       c-11.3-4.7-22-11.3-31.9-18.7c-2.1-1.6-4.2-3.2-6.2-4.9c-2-1.7-4-3.4-6-5.1c-1.6-1.4-3.2-2.9-4.8-4.4c-1.4-1.3-2.8-2.6-4.1-4       c-2.2-2.1-4.3-4.3-6.3-6.4c-1.7-1.8-3.4-3.6-5-5.4c-1.3-1.4-2.5-2.8-3.8-4.2c-2.6-3-5-5.9-7.3-8.7c-0.5-0.7-1.1-1.3-1.6-2       c-1.1-1.4-2.1-2.7-3.1-4c-2.6-3.4-4.9-6.6-6.8-9.2c-4.3-6.1-6.6-9.9-6.6-9.9C743.7,662.5,752,665.1,762.7,667z" style="fill:#C1B49A;">
              </path>
            </g>
            <g id="g150">
              <path id="path152" d="M962.3,728.1c1.1-0.5,2.2-1,3.3-1.5c2.1-1,4.3-2.1,6.5-3.2l0,0.2l13.2,0.6l-0.7-7.6c1.7-1,3.3-2,5-3       c4-2.4,8.1-5.1,12.2-7.9c6-4.2,12.1-8.8,18.1-14c2.9-2.5,5.8-5.2,8.7-7.9c4.5-4.3,8.9-9,13.2-14c2.2-2.5,4.4-5.2,6.5-7.9       c1.5-2,3-4,4.5-6.1c1.1-1.5,2.2-3.1,3.3-4.7c0.7-1.1,1.4-2.1,2.2-3.2c2.2-3.4,4.3-6.8,6.4-10.5c2.1-3.6,4.1-7.4,6.1-11.3       c2.2-4.3,4.2-8.8,6.2-13.4c1-2.4,2.2-5.3,3.4-8.5c1.1-2.8,2.2-5.9,3.3-9.2c2.1-6.4,4.2-13.5,6-20.9       c6.7-28.8,7.5-61.8-18.7-71.5c-0.1,0-0.2-0.1-0.3-0.1c7.2-2.6,13-3.8,17-2.3c4.2,1.5,7.8,3.6,10.8,6.1l0.2,88.8       c-1,2.6-1.9,5.1-2.8,7.4c-0.2,0.6-0.4,1.1-0.7,1.7c-1.5,3.8-3,7.2-4.2,10.2c-0.3,0.6-0.5,1.2-0.7,1.7c-0.4,1-0.9,2-1.3,3       c-1.6,3.7-3.3,7.3-5.1,10.8c-1.3,2.7-2.7,5.3-4.1,7.8c-2.6,4.7-5.2,9.1-8,13.4c-0.8,1.2-1.6,2.5-2.4,3.7       c-1.1,1.6-2.2,3.2-3.3,4.8c-0.4,0.6-0.8,1.2-1.2,1.7c-1.7,2.3-3.4,4.6-5.1,6.8c-0.8,1-1.6,2-2.4,3c-0.4,0.5-0.7,0.9-1.1,1.4       c-1.1,1.3-2.2,2.7-3.3,4c-2.1,2.5-4.3,4.9-6.4,7.2c-2.6,2.8-5.2,5.4-7.8,7.9c-4.1,4-8.2,7.7-12.4,11.2       c-4.6,3.8-9.2,7.4-13.8,10.7c-5.6,4-11.1,7.7-16.6,11c-1.3,0.8-2.5,1.5-3.8,2.2c-0.4,0.3-0.9,0.5-1.3,0.8       c-7.3,4.3-14.5,7.9-21.2,11.1c-5.6-3.8-10.5-5.4-10.6-5.5c0-0.1-0.1-0.2-0.1-0.2c0-0.1-0.1-0.2-0.1-0.3       c-0.1-0.2-0.2-0.4-0.3-0.6c-0.1-0.1-0.1-0.3-0.2-0.4c0-0.1-0.1-0.2-0.2-0.3c-0.1-0.1-0.1-0.3-0.2-0.4c0-0.1-0.1-0.1-0.1-0.2       c-0.1-0.2-0.1-0.4-0.2-0.6C959.2,729.5,960.7,728.8,962.3,728.1z" style="fill:#C1B49A;">
              </path>
            </g>
            <g id="g154">
              <path id="path156" d="M933.1,542c3.9-2.7,7.3-5.1,10-7.2l-0.8,5.7l0,0L933.1,542z" style="fill:#C1B49A;">
              </path>
            </g>
            <g id="g158">
              <path id="path160" d="M856,573.9c1.9,0,4.2-0.1,6.8-0.4c0.3,0,0.6-0.1,1-0.1c2.1-0.2,4.4-0.6,6.8-1c1.8-0.3,3.6-0.7,5.6-1.2       c2.2-0.5,4.5-1.2,6.8-1.9c0.3-0.1,0.6-0.2,1-0.3c0.6-0.2,1.2-0.4,1.8-0.6c1.2-0.4,2.5-0.9,3.7-1.4l0.4,22.2       c-3.4,1.4-6.8,2.7-10.1,3.8c-2.2,0.8-4.4,1.5-6.5,2.2c-1.8,0.6-3.5,1.1-5.1,1.6c-2.6,0.8-5,1.5-7,2c-2.1,0.6-3.8,1-5.1,1.4       c-1.5,0.4-2.3,0.6-2.3,0.6s-0.1-0.3-0.3-0.8c-0.6-1.5-1.7-5-2.3-9.9c0-0.1,0-0.2,0-0.4c-0.1-0.5-0.1-1-0.2-1.5       c-0.1-1.1-0.3-2-0.4-2.9c-0.6-5.2-0.7-6.7-0.3-11.7c0,0,0,0,0,0c0.3,0,1.9,0.2,4.7,0.2C855.3,573.9,855.7,573.9,856,573.9z" style="fill:#C1B49A;">
              </path>
            </g>
            <g id="g162">
              <path id="path164" d="M997.4,551.5c-1.9,1.9-3.8,3.9-5.8,6c-0.9,1-1.9,1.9-2.9,2.9c-0.4,0.4-0.8,0.8-1.2,1.3       c-1.4,1.4-2.7,2.8-4.1,4.2c-0.2,0.2-0.5,0.5-0.7,0.7c-6.1,6.2-12.4,12.7-18.6,19.1c-2.9,3-5.8,6-8.7,9c-1,1.1-2,2.1-3,3.1       c-0.6,0.7-1.3,1.3-1.9,2c-2.2,2.3-4.4,4.5-6.6,6.7c-3.8,3.9-7.4,7.6-10.7,11.1c-5.8,6.1-11,11.4-15,15.5       c-14,14.6-32.4,24-52.3,29.8c-1.5,0.4-3,0.9-4.5,1.3c-1.7,0.4-3.4,0.9-5.1,1.3c-2.3,0.5-4.6,1-7,1.5c-1.7,0.3-3.4,0.6-5.1,0.9       c-2.3,0.4-4.6,0.7-7,1c-1.6,0.2-3.1,0.4-4.6,0.6c-2,0.2-3.9,0.4-5.9,0.6c-1.5,0.1-3,0.2-4.5,0.3c-2.1,0.1-4.1,0.2-6.2,0.3       c-1.5,0.1-3,0.1-4.5,0.1c-2.1,0-4.1,0.1-6.2,0.1c-1.5,0-3,0-4.5-0.1c-2.1,0-4.2-0.1-6.2-0.2c-1.5-0.1-3-0.1-4.5-0.2       c-2.1-0.1-4.2-0.3-6.2-0.5c-1.4-0.1-2.8-0.3-4.1-0.4c-2.2-0.2-4.3-0.5-6.3-0.7c-0.5-0.1-1.1-0.1-1.6-0.2       c-1.1-0.2-2.3-0.3-3.4-0.5c-1.6-0.2-3.1-0.5-4.6-0.8c-0.4-0.1-0.7-0.1-1.1-0.2c-10.7-2-18.9-4.5-23.4-6.9l13.9-7.2       c0.1,0,0.1,0.1,0.2,0.1c0.7,0.4,1.5,0.8,2.3,1.1c1.4,0.6,2.9,1.2,4.6,1.7c3.7,1.2,8.1,2.3,13,3.2c2,0.4,4.1,0.7,6.3,1       c1.3,0.2,2.7,0.3,4.1,0.5c2,0.2,4.1,0.4,6.2,0.5c1.5,0.1,3,0.2,4.5,0.3c0.6,0,1.1,0.1,1.7,0.1c6.2,0.2,12.9,0.2,19.7-0.3       c2-0.1,4.1-0.3,6.2-0.5c1.5-0.1,3-0.3,4.5-0.5c1.9-0.2,3.9-0.5,5.9-0.8c6.8-1,13.8-2.4,20.7-4.3c1-0.3,2-0.5,3-0.8       c1.7-0.5,3.4-1,5.1-1.6c2.3-0.7,4.7-1.5,7-2.4c1.7-0.6,3.4-1.3,5.1-2c0.2-0.1,0.4-0.1,0.5-0.2c1.8-0.7,3.6-1.5,5.3-2.3       c4.1-1.9,8.1-4,12-6.3c0.8-0.4,1.5-0.9,2.3-1.4c1.7-1.1,3.4-2.1,5.1-3.3c2.4-1.6,4.7-3.3,7-5c2.6-2,5.1-4.1,7.5-6.3       c0.2-0.1,0.3-0.3,0.5-0.4c1.3-1.2,2.7-2.5,4.1-3.8c4-3.7,8.3-7.7,12.8-12.1c2.6-2.4,5.2-5,7.8-7.5c2.5-2.4,5-4.9,7.6-7.4       c19.4-18.9,39.8-39.4,52.2-51.9c0.2-0.2,0.3-0.3,0.5-0.5c5.7-5.8,9.7-9.8,10.8-10.9c0.2-0.2,0.3-0.3,0.3-0.3l17.1-7.4       c0,0-0.5,0.5-1.4,1.4c-3.5,3.6-13.4,13.8-26.1,26.8C998.7,550.2,998.1,550.9,997.4,551.5z" style="fill:#C1B49A;">
              </path>
            </g>
            <g id="g166">
              <polygon id="polygon168" points="950.4,547.7 987.3,513.3 986.7,513.1 989.8,510.6 993.8,520.7 966.6,537.6 950.4,547.8      " style="fill:#C1B49A;">
              </polygon>
            </g>
            <g id="g170">
              <polygon id="polygon172" points="950.4,547.7 950.6,547.4 942.3,540.5 943.1,534.8 945.1,520.4 947.8,500.2 986.7,513.1        987.3,513.3      " style="fill:#90278E;">
              </polygon>
            </g>
            <g id="g174">
              <polygon id="polygon176" points="919,586 917.9,575.8 950.6,547.4 950.4,547.7 950.4,547.8 921.1,586 919.3,588.4      " style="fill:#C1B49A;">
              </polygon>
            </g>
            <g id="g178">
              <polygon id="polygon180" points="917.9,575.8 909.1,583.4 904.5,587.4 903.7,588.1 903.5,588.2 890.1,599.9 890,595.2 890,593        889.9,589.1 889.5,567 889.4,560.4 889.2,549.4 890.8,549.1 891.7,549 898.6,547.8 901.5,547.3 933.1,542 942.3,540.4        942.3,540.5 950.6,547.4      " style="fill:#90278E;">
              </polygon>
            </g>
          </g>
        </g>
        <g id="g182">
          <path id="path184" d="M982.6,567.2c0.2-0.2,0.5-0.5,0.7-0.7l0,1.3C983,567.6,982.8,567.4,982.6,567.2z" style="fill:#EDE7F2;">
          </path>
        </g>
        <g id="g186">
          <path id="path188" d="M943.9,607.1h-0.1c2.1-2.2,4.3-4.5,6.5-6.7h0.1C948.2,602.7,946,604.9,943.9,607.1z" style="fill:#EDE7F2;">
          </path>
        </g>
        <g id="g190">
          <path id="path192" d="M952.2,598.4c1-1,2-2.1,3-3.1C954.3,596.4,953.3,597.4,952.2,598.4C952.3,598.4,952.3,598.4,952.2,598.4z" style="fill:#EDE7F2;">
          </path>
        </g>
        <g id="g194">
          <path id="path196" d="M851,590.3c-0.1-0.5-0.1-1-0.2-1.5l0,0C850.9,589.3,850.9,589.8,851,590.3z" style="fill:#B9A8CB;">
          </path>
        </g>
        <g id="g198">
          <path id="path200" d="M933.1,618.2c3.4-3.5,7-7.2,10.7-11.1h0.1C940.1,611.1,936.4,614.9,933.1,618.2z" style="fill:#735E93;">
          </path>
        </g>
        <g id="g202">
          <path id="path204" d="M950.4,600.4L950.4,600.4c0.6-0.7,1.2-1.3,1.8-2c0,0,0,0,0,0C951.6,599.1,951,599.8,950.4,600.4z" style="fill:#735E93;">
          </path>
        </g>
        <g id="g206">
          <path id="path208" d="M960.3,790.7c0,0,9-18.3,10.1-25.1c0-0.2,0.1-0.4,0.1-0.5c0-0.2,0.1-0.5,0.1-0.7c0-0.2,0.1-0.5,0.1-0.7     c0-0.2,0-0.4,0.1-0.6c0-0.2,0.1-0.5,0.1-0.7c0-0.1,0-0.2,0-0.3c0-0.5,0.1-1,0.1-1.5c0-0.1,0-0.2,0-0.2c0-0.3,0-0.6,0-0.9     c0-0.1,0-0.1,0-0.2c0.2-12-5-18.4-5-18.4s-0.1,0-0.2-0.1c0,0,0,0,0,0c0,0-0.1,0-0.1,0c-0.1,0-0.1-0.1-0.2-0.1c0,0,0,0-0.1,0     c-0.1,0-0.1-0.1-0.2-0.1c0,0-0.1,0-0.1-0.1c-0.1,0-0.1-0.1-0.2-0.1c0,0-0.1,0-0.1-0.1c-0.1-0.1-0.2-0.1-0.3-0.2     c-0.1,0-0.1-0.1-0.2-0.1c-0.1-0.1-0.2-0.1-0.3-0.2c-0.1,0-0.1-0.1-0.2-0.1c-0.1-0.1-0.3-0.2-0.4-0.3c0,0-0.1-0.1-0.1-0.1     c-0.1-0.1-0.2-0.2-0.3-0.3c-0.1,0-0.1-0.1-0.2-0.1c-0.2-0.1-0.3-0.3-0.5-0.4c-0.3-0.2-0.5-0.5-0.8-0.8c0,0-0.1-0.1-0.1-0.1     c-0.1-0.1-0.2-0.2-0.3-0.3c-0.1-0.1-0.1-0.1-0.2-0.2c-0.1-0.1-0.2-0.2-0.2-0.3c-0.1-0.1-0.1-0.2-0.2-0.2     c-0.1-0.1-0.1-0.2-0.2-0.3c-0.1-0.1-0.1-0.2-0.2-0.3c-0.1-0.1-0.1-0.2-0.2-0.3c-0.1-0.1-0.1-0.2-0.2-0.3     c-0.1-0.1-0.1-0.2-0.2-0.3c-0.1-0.1-0.1-0.2-0.2-0.3c-0.1-0.2-0.2-0.4-0.3-0.6c0-0.1-0.1-0.1-0.1-0.2c0-0.1-0.1-0.1-0.1-0.2     c0.1,0,5,1.7,10.6,5.5c0.1,0,0.1,0.1,0.2,0.1c1.8,1.2,3.7,2.7,5.6,4.4c1.8,1.7,7.2,6.5,7.2,6.5s53.7,6.4,69.1,15.1     c39.1,22,44.2,73.8,44.9,87.5l-121.3,0.2l-5-50L960.3,790.7z" style="fill:#050709;">
          </path>
        </g>
        <g id="g210">
          <path id="path212" d="M775.9,783.3c12-9.1,42.8-14.7,57.6-17.4c13.9-2.5,18.6-6,23.5-9.8c0.1-0.1,0.1-0.1,0.2-0.1     c1.5-1.2,2.9-2.3,4.7-3.5c2.1-1.5,4.2-3.6,6.2-5.9c5.7-6.9,10.2-15.7,10.3-15.9c0,0.1,0,0.3-0.1,0.4c-0.8,4.9-1.9,9.8-2.6,12.5     c-0.3,1.3-0.5,2.1-0.5,2.1s-0.3,0.2-0.7,0.7c0,0,0,0,0,0c0,0.1-0.1,0.1-0.1,0.2c0,0,0,0.1-0.1,0.1c0,0-0.1,0.1-0.1,0.1     c0,0.1-0.1,0.1-0.1,0.1c0,0-0.1,0.1-0.1,0.1c0,0.1-0.1,0.1-0.1,0.2c0,0,0,0.1-0.1,0.1c0,0.1-0.1,0.2-0.1,0.2c0,0,0,0,0,0     c-0.2,0.4-0.5,0.9-0.7,1.5c0,0,0,0,0,0.1c-0.1,0.1-0.1,0.3-0.2,0.4c0,0,0,0,0,0.1c-0.1,0.1-0.1,0.3-0.2,0.5c0,0,0,0,0,0     c-0.3,0.9-0.6,1.9-0.8,3c0,0,0,0,0,0.1c0,0.2-0.1,0.4-0.1,0.7c0,0,0,0.1,0,0.1c0,0.2-0.1,0.4-0.1,0.7c0,0,0,0.1,0,0.1     c-0.1,1-0.2,2.1-0.3,3.4c0,0,0,0,0,0c0,0.3,0,0.5,0,0.8c0,0.1,0,0.2,0,0.3c0,0.2,0,0.5,0,0.7c0,0.1,0,0.1,0,0.2c0,0,0,0.1,0,0.1     c0,0.3,0,0.7,0,1c0,0.1,0,0.2,0,0.4c0,0.3,0,0.6,0.1,0.9c0,0.2,0,0.4,0,0.6c0,0.2,0,0.5,0.1,0.7c0,0.3,0,0.5,0.1,0.8     c0,0.1,0,0.2,0,0.2c0,0.4,0.1,0.8,0.1,1.2c0,0.3,0.1,0.6,0.2,0.9c0,0,0,0,0,0c0,0.2,0.1,0.3,0.1,0.5c0,0.1,0.1,0.3,0.1,0.4     c0.1,0.2,0.1,0.5,0.2,0.7c0.1,0.2,0.1,0.3,0.2,0.5c0.1,0.2,0.1,0.3,0.2,0.5c0.1,0.2,0.2,0.5,0.3,0.7c0.1,0.2,0.1,0.3,0.2,0.5     c0.1,0.2,0.2,0.4,0.2,0.6c0.1,0.1,0.1,0.3,0.2,0.4c0.1,0.3,0.2,0.5,0.4,0.7c0,0,0,0,0,0.1c0.1,0.2,0.3,0.5,0.4,0.7     c0.1,0.1,0.1,0.2,0.2,0.3c0.1,0.2,0.3,0.5,0.4,0.7c0.1,0.1,0.1,0.2,0.2,0.3c0.1,0.3,0.3,0.5,0.4,0.7c0.1,0.1,0.1,0.2,0.2,0.3     c0.2,0.3,0.3,0.5,0.5,0.8c0,0,0.1,0.1,0.1,0.1c0,0,0,0,0.1,0.1c0.2,0.3,0.4,0.5,0.6,0.8c0,0.1,0.1,0.1,0.1,0.2     c0.2,0.3,0.4,0.5,0.6,0.8c0,0.1,0.1,0.1,0.1,0.2c0.2,0.2,0.4,0.5,0.6,0.7c0.1,0.1,0.1,0.1,0.2,0.2c0.2,0.2,0.4,0.5,0.6,0.7     c0,0,0.1,0.1,0.1,0.1c0,0,0.1,0.1,0.1,0.1c0.2,0.2,0.3,0.4,0.5,0.6c0.1,0.1,0.1,0.2,0.2,0.2c0.2,0.2,0.3,0.4,0.5,0.6     c0.1,0.1,0.2,0.2,0.2,0.2c0.2,0.2,0.3,0.4,0.5,0.5c0.1,0.1,0.2,0.2,0.3,0.3c0.2,0.2,0.3,0.3,0.5,0.5c0,0,0.1,0.1,0.1,0.1     c0,0,0.1,0.1,0.1,0.1c0.2,0.2,0.4,0.4,0.6,0.6c0.1,0.1,0.2,0.2,0.2,0.2c0.2,0.2,0.4,0.4,0.5,0.5c0.1,0.1,0.2,0.2,0.3,0.3     c0.2,0.1,0.3,0.3,0.4,0.4c0.4,0.3,0.7,0.7,1,1c1.4,1.3,2.5,2.2,3.1,2.7c0.3,0.2,0.5,0.4,0.5,0.4l-3.1,12.1l0.2,0.6l1.8,5l2,5.5     l1.8,5l2,5.5l1.8,5l1.9,5.5l1.8,5l2,5.5l1.8,5l1.4,3.8l-150,0.3C752.3,844.5,748.5,804.2,775.9,783.3z" style="fill:#C1B49A;">
          </path>
        </g>
        <g id="g214">
          <path id="path216" d="M956.9,729c0,0.1,0.1,0.2,0.1,0.3C957,729.2,957,729.1,956.9,729z" style="fill:#FFFFFF;">
          </path>
        </g>
        <g id="g218">
          <path id="path220" d="M957.4,730.3C957.3,730.2,957.3,730.2,957.4,730.3c0,0,0,0.1,0.1,0.2C957.4,730.4,957.4,730.3,957.4,730.3     z" style="fill:#FFFFFF;">
          </path>
        </g>
        <g id="g222">
          <path id="path224" d="M956.2,726.2c-0.1-0.3-0.1-0.6-0.2-0.9c0-0.1,0-0.2,0-0.2c0,0.1,0,0.2,0.1,0.2     C956,725.5,956.1,725.9,956.2,726.2z" style="fill:#FFFFFF;">
          </path>
        </g>
        <g id="g226">
          <path id="path228" d="M956.2,726.5c0.1,0.2,0.1,0.4,0.2,0.6C956.4,726.9,956.3,726.7,956.2,726.5z" style="fill:#FFFFFF;">
          </path>
        </g>
        <g id="g230">
          <path id="path232" d="M956.6,727.8c0,0.1,0.1,0.3,0.1,0.4C956.7,728.1,956.6,727.9,956.6,727.8z" style="fill:#FFFFFF;">
          </path>
        </g>
        <g id="g234">
          <path id="path236" d="M955.9,724.5c0,0.1,0,0.2,0,0.3C955.9,724.7,955.9,724.6,955.9,724.5z" style="fill:#FFFFFF;">
          </path>
        </g>
        <g id="g238">
          <path id="path240" d="M955.9,709.4c0,0-0.7,10.2-0.1,14.8c0-0.1,0-0.1,0-0.2c-0.2-2-0.2-5-0.2-7.7     C955.7,712.7,955.9,709.4,955.9,709.4L955.9,709.4L955.9,709.4L955.9,709.4z" style="fill:#FFFFFF;">
          </path>
        </g>
        <g id="g242">
          <path id="path244" d="M958.2,732.3c-0.1-0.1-0.1-0.2-0.1-0.3C958.1,732.1,958.1,732.2,958.2,732.3z" style="fill:#FFFFFF;">
          </path>
        </g>
        <g id="g246">
          <path id="path248" d="M958.6,733.3c-0.1-0.2-0.2-0.4-0.3-0.6C958.5,732.9,958.5,733.1,958.6,733.3z" style="fill:#FFFFFF;">
          </path>
        </g>
        <g id="g250">
          <path id="path252" d="M957.9,731.5c0-0.1-0.1-0.1-0.1-0.2C957.8,731.4,957.8,731.5,957.9,731.5z" style="fill:#FFFFFF;">
          </path>
        </g>
        <g id="g254">
          <path id="path256" d="M958.8,733.6c0,0.1,0.1,0.2,0.1,0.2c0,0.1,0.1,0.1,0.1,0.2C958.9,733.9,958.9,733.7,958.8,733.6z" style="fill:#FFFFFF;">
          </path>
        </g>
        <g id="g258">
          <path id="path260" d="M873.6,772.6c0.1,0.2,0.3,0.5,0.4,0.7C873.9,773.1,873.7,772.8,873.6,772.6z" style="fill:#FFFFFF;">
          </path>
        </g>
        <g id="g262">
          <path id="path264" d="M874.1,773.6c0.1,0.2,0.3,0.5,0.4,0.7C874.4,774.1,874.3,773.9,874.1,773.6z" style="fill:#FFFFFF;">
          </path>
        </g>
        <g id="g266">
          <path id="path268" d="M872.6,770.4c0.1,0.2,0.1,0.3,0.2,0.5C872.8,770.7,872.7,770.5,872.6,770.4z" style="fill:#FFFFFF;">
          </path>
        </g>
        <g id="g270">
          <path id="path272" d="M873.1,771.4c0.1,0.1,0.1,0.3,0.2,0.4C873.2,771.7,873.1,771.5,873.1,771.4z" style="fill:#FFFFFF;">
          </path>
        </g>
        <g id="g274">
          <path id="path276" d="M875.3,775.6c0.2,0.3,0.3,0.5,0.5,0.8C875.7,776.1,875.5,775.9,875.3,775.6z" style="fill:#FFFFFF;">
          </path>
        </g>
        <g id="g278">
          <path id="path280" d="M876.7,777.6c0.2,0.3,0.4,0.5,0.6,0.8C877.1,778.1,876.9,777.9,876.7,777.6z" style="fill:#FFFFFF;">
          </path>
        </g>
        <g id="g282">
          <path id="path284" d="M876,776.6c0.2,0.3,0.4,0.5,0.6,0.8C876.4,777.1,876.2,776.9,876,776.6z" style="fill:#FFFFFF;">
          </path>
        </g>
        <g id="g286">
          <path id="path288" d="M872.2,769.2c0.1,0.2,0.1,0.3,0.2,0.5C872.3,769.5,872.3,769.4,872.2,769.2z" style="fill:#FFFFFF;">
          </path>
        </g>
        <g id="g290">
          <path id="path292" d="M871.1,763.1c0,0.2,0,0.5,0.1,0.7C871.2,763.6,871.2,763.4,871.1,763.1z" style="fill:#FFFFFF;">
          </path>
        </g>
        <g id="g294">
          <path id="path296" d="M871.3,764.6c0,0.1,0,0.2,0,0.2C871.3,764.8,871.3,764.7,871.3,764.6z" style="fill:#FFFFFF;">
          </path>
        </g>
        <g id="g298">
          <path id="path300" d="M871.9,768c0.1,0.2,0.1,0.5,0.2,0.7C872,768.5,871.9,768.2,871.9,768z" style="fill:#FFFFFF;">
          </path>
        </g>
        <g id="g302">
          <path id="path304" d="M871,761.6c0,0.3,0,0.6,0.1,0.9C871.1,762.3,871.1,761.9,871,761.6z" style="fill:#FFFFFF;">
          </path>
        </g>
        <g id="g306">
          <path id="path308" d="M871.6,767c0,0.2,0.1,0.3,0.1,0.5C871.7,767.4,871.7,767.2,871.6,767z" style="fill:#FFFFFF;">
          </path>
        </g>
        <g id="g310">
          <path id="path312" d="M877.4,778.6c0.2,0.2,0.4,0.5,0.6,0.7C877.8,779.1,877.6,778.8,877.4,778.6z" style="fill:#FFFFFF;">
          </path>
        </g>
        <g id="g314">
          <path id="path316" d="M881.8,783.7c0.2,0.2,0.4,0.4,0.6,0.6C882.2,784.1,882,783.9,881.8,783.7z" style="fill:#FFFFFF;">
          </path>
        </g>
        <g id="g318">
          <path id="path320" d="M970.8,762.4c0,0.2,0,0.5-0.1,0.7C970.8,762.9,970.8,762.7,970.8,762.4z" style="fill:#FFFFFF;">
          </path>
        </g>
        <g id="g322">
          <path id="path324" d="M971,760.6c0,0.5-0.1,1-0.1,1.5C970.9,761.6,970.9,761.1,971,760.6z" style="fill:#FFFFFF;">
          </path>
        </g>
        <g id="g326">
          <path id="path328" d="M970.7,763.7c0,0.2-0.1,0.5-0.1,0.7C970.6,764.2,970.7,763.9,970.7,763.7z" style="fill:#FFFFFF;">
          </path>
        </g>
        <g id="g330">
          <path id="path332" d="M971,759.5c0,0.3,0,0.6,0,0.9C971,760,971,759.7,971,759.5z" style="fill:#FFFFFF;">
          </path>
        </g>
        <g id="g334">
          <path id="path336" d="M878.7,780.3c-0.2-0.2-0.4-0.5-0.6-0.7C878.4,779.8,878.5,780,878.7,780.3z" style="fill:#FFFFFF;">
          </path>
        </g>
        <g id="g338">
          <path id="path340" d="M974.3,844.2l-0.7-6.8l-0.8-7.6l-0.7-6.8l-0.8-7.6l-0.7-6.8l-0.5-5.4l-0.9-1.1l-2.7-3.4l-3-3.8l-2.7-3.4     l-0.7-0.8c0,0,7.9-16.1,9.8-23.7c0.1-0.5,0.2-0.9,0.3-1.4c0-0.2,0.1-0.4,0.1-0.5c0,0.2,0,0.4-0.1,0.5     c-1.1,6.8-10.1,25.1-10.1,25.1l9.9,12.5l5,50h0l-0.1-1.4L974.3,844.2z" style="fill:#FFFFFF;">
          </path>
        </g>
        <g id="g342">
          <path id="path344" d="M871,759.9c0-0.2,0-0.5,0-0.7C871,759.4,871,759.7,871,759.9z" style="fill:#FFFFFF;">
          </path>
        </g>
        <g id="g346">
          <path id="path348" d="M882.7,784.6c0.2,0.2,0.4,0.4,0.5,0.5C883,784.9,882.8,784.7,882.7,784.6z" style="fill:#FFFFFF;">
          </path>
        </g>
        <g id="g350">
          <path id="path352" d="M881.1,783c0.2,0.2,0.3,0.3,0.5,0.5C881.4,783.3,881.3,783.1,881.1,783z" style="fill:#FFFFFF;">
          </path>
        </g>
        <g id="g354">
          <path id="path356" d="M880.4,782.2c0.2,0.2,0.3,0.4,0.5,0.5C880.7,782.5,880.5,782.3,880.4,782.2z" style="fill:#FFFFFF;">
          </path>
        </g>
        <g id="g358">
          <path id="path360" d="M879.6,781.3c0.2,0.2,0.3,0.4,0.5,0.6C880,781.7,879.8,781.5,879.6,781.3z" style="fill:#FFFFFF;">
          </path>
        </g>
        <g id="g362">
          <path id="path364" d="M871,760.2c0,0.3,0,0.7,0,1C871,760.9,871,760.6,871,760.2z" style="fill:#FFFFFF;">
          </path>
        </g>
        <g id="g366">
          <path id="path368" d="M883.5,785.4c0.2,0.1,0.3,0.3,0.4,0.4C883.8,785.7,883.6,785.5,883.5,785.4z" style="fill:#FFFFFF;">
          </path>
        </g>
        <g id="g370">
          <path id="path372" d="M878.9,780.5c0.2,0.2,0.3,0.4,0.5,0.6C879.3,780.9,879.1,780.7,878.9,780.5z" style="fill:#FFFFFF;">
          </path>
        </g>
        <g id="g374">
          <path id="path376" d="M874.7,774.6c0.1,0.3,0.3,0.5,0.4,0.7C875,775.1,874.9,774.9,874.7,774.6z" style="fill:#FFFFFF;">
          </path>
        </g>
        <g id="g378">
          <path id="path380" d="M874,746.7c0,0.1-0.1,0.1-0.1,0.1C874,746.8,874,746.8,874,746.7z" style="fill:#FFFFFF;">
          </path>
        </g>
        <g id="g382">
          <path id="path384" d="M874.3,746.3C874.3,746.3,874.3,746.3,874.3,746.3C874.3,746.3,874.3,746.3,874.3,746.3z" style="fill:#FFFFFF;">
          </path>
        </g>
        <g id="g386">
          <path id="path388" d="M873.8,747c0,0.1-0.1,0.1-0.1,0.2C873.8,747.1,873.8,747.1,873.8,747z" style="fill:#FFFFFF;">
          </path>
        </g>
        <g id="g390">
          <path id="path392" d="M874.2,746.5c0,0-0.1,0.1-0.1,0.1C874.1,746.5,874.2,746.5,874.2,746.5z" style="fill:#FFFFFF;">
          </path>
        </g>
        <g id="g394">
          <path id="path396" d="M966,740.9c0,0,5.2,6.3,5,18.4c0-0.6,0-1.2,0-1.8c-0.1-2.8-0.4-5.2-0.9-7.3c-0.5-2-1.1-3.7-1.7-5.1     C967.2,742.4,966,740.9,966,740.9c0,0-0.1,0-0.2-0.1C965.9,740.9,966,740.9,966,740.9z" style="fill:#FFFFFF;">
          </path>
        </g>
        <g id="g398">
          <path id="path400" d="M872.7,749.1c-0.1,0.1-0.1,0.3-0.2,0.4C872.6,749.4,872.7,749.3,872.7,749.1z" style="fill:#FFFFFF;">
          </path>
        </g>
        <g id="g402">
          <path id="path404" d="M872.3,750.1c-0.3,0.9-0.6,1.9-0.8,3C871.8,752,872,751,872.3,750.1z" style="fill:#FFFFFF;">
          </path>
        </g>
        <g id="g406">
          <path id="path408" d="M871.4,753.9c0,0.2-0.1,0.4-0.1,0.7C871.3,754.4,871.4,754.2,871.4,753.9z" style="fill:#FFFFFF;">
          </path>
        </g>
        <g id="g410">
          <path id="path412" d="M871,758.1c0,0.3,0,0.5,0,0.8C871,758.6,871,758.4,871,758.1z" style="fill:#FFFFFF;">
          </path>
        </g>
        <g id="g414">
          <path id="path416" d="M872.8,749.1c0.2-0.6,0.5-1.1,0.7-1.5C873.2,748,873,748.5,872.8,749.1z" style="fill:#FFFFFF;">
          </path>
        </g>
        <g id="g418">
          <path id="path420" d="M871.3,754.7c-0.1,1-0.2,2.1-0.3,3.4C871,756.9,871.1,755.7,871.3,754.7z" style="fill:#FFFFFF;">
          </path>
        </g>
        <g id="g422">
          <path id="path424" d="M871.5,753.2c0,0.2-0.1,0.4-0.1,0.7C871.4,753.6,871.5,753.4,871.5,753.2z" style="fill:#FFFFFF;">
          </path>
        </g>
        <g id="g426">
          <path id="path428" d="M872.5,749.6c-0.1,0.1-0.1,0.3-0.2,0.5C872.4,749.9,872.5,749.8,872.5,749.6z" style="fill:#FFFFFF;">
          </path>
        </g>
        <g id="g430">
          <path id="path432" d="M873.5,747.5c0-0.1,0.1-0.2,0.1-0.2C873.6,747.4,873.6,747.4,873.5,747.5z" style="fill:#FFFFFF;">
          </path>
        </g>
        <g id="g434">
          <path id="path436" d="M964.1,739.9c-0.1,0-0.1-0.1-0.2-0.1C964,739.9,964,739.9,964.1,739.9z" style="fill:#FFFFFF;">
          </path>
        </g>
        <g id="g438">
          <path id="path440" d="M963.5,739.5c0,0-0.1-0.1-0.1-0.1C963.4,739.4,963.5,739.5,963.5,739.5z" style="fill:#FFFFFF;">
          </path>
        </g>
        <g id="g442">
          <path id="path444" d="M963,739.1c-0.1,0-0.1-0.1-0.2-0.1C962.9,739,963,739.1,963,739.1z" style="fill:#FFFFFF;">
          </path>
        </g>
        <g id="g446">
          <path id="path448" d="M961.6,737.7c0.3,0.3,0.5,0.6,0.8,0.8c0,0,0,0,0,0C962.1,738.3,961.9,738,961.6,737.7z" style="fill:#FFFFFF;">
          </path>
        </g>
        <g id="g450">
          <path id="path452" d="M964.9,740.5c0,0-0.1,0-0.1-0.1C964.8,740.4,964.9,740.4,964.9,740.5z" style="fill:#FFFFFF;">
          </path>
        </g>
        <g id="g454">
          <path id="path456" d="M964.5,740.2c-0.1,0-0.1-0.1-0.2-0.1C964.4,740.1,964.4,740.2,964.5,740.2z" style="fill:#FFFFFF;">
          </path>
        </g>
        <g id="g458">
          <path id="path460" d="M965.8,740.9C965.7,740.9,965.7,740.9,965.8,740.9C965.7,740.8,965.7,740.8,965.8,740.9     C965.7,740.8,965.7,740.9,965.8,740.9z" style="fill:#FFFFFF;">
          </path>
        </g>
        <g id="g462">
          <path id="path464" d="M965.2,740.6c0,0-0.1,0-0.1-0.1C965.2,740.6,965.2,740.6,965.2,740.6z" style="fill:#FFFFFF;">
          </path>
        </g>
        <g id="g466">
          <path id="path468" d="M965.5,740.7C965.5,740.7,965.4,740.7,965.5,740.7C965.4,740.7,965.5,740.7,965.5,740.7z" style="fill:#FFFFFF;">
          </path>
        </g>
        <g id="g470">
          <path id="path472" d="M961.5,737.6c-0.1-0.1-0.2-0.2-0.3-0.3C961.3,737.4,961.4,737.5,961.5,737.6z" style="fill:#FFFFFF;">
          </path>
        </g>
        <g id="g474">
          <path id="path476" d="M959.1,734.2c0.1,0.2,0.2,0.4,0.3,0.6c0,0,0,0,0-0.1C959.3,734.6,959.2,734.4,959.1,734.2z" style="fill:#FFFFFF;">
          </path>
        </g>
        <g id="g478">
          <path id="path480" d="M959.8,735.4c-0.1-0.1-0.1-0.2-0.2-0.3C959.7,735.2,959.8,735.3,959.8,735.4z" style="fill:#FFFFFF;">
          </path>
        </g>
        <g id="g482">
          <path id="path484" d="M960.7,736.6c-0.1-0.1-0.1-0.2-0.2-0.3C960.5,736.4,960.6,736.5,960.7,736.6z" style="fill:#FFFFFF;">
          </path>
        </g>
        <g id="g486">
          <path id="path488" d="M960.3,736c-0.1-0.1-0.1-0.2-0.2-0.3C960.1,735.8,960.2,735.9,960.3,736z" style="fill:#FFFFFF;">
          </path>
        </g>
        <g id="g490">
          <path id="path492" d="M961.1,737.1c-0.1-0.1-0.2-0.2-0.2-0.3C960.9,736.9,961,737,961.1,737.1z" style="fill:#FFFFFF;">
          </path>
        </g>
        <g id="g494">
          <polygon id="polygon496" points="975.2,853.2 974.2,853.2 975,851.8    " style="fill:#FFFFFF;">
          </polygon>
        </g>
        <g id="g498">
          <polygon id="polygon500" points="975,851.8 974.2,853.2 969,853.3 974.3,844.2    " style="fill:#050709;">
          </polygon>
        </g>
        <g id="g502">
          <polygon id="polygon504" points="974.3,844.2 969,853.3 964.3,853.3 973.6,837.4    " style="fill:#C1B49A;">
          </polygon>
        </g>
        <g id="g506">
          <polygon id="polygon508" points="973.6,837.4 964.3,853.3 959.2,853.3 972.8,829.8    " style="fill:#050709;">
          </polygon>
        </g>
        <g id="g510">
          <polygon id="polygon512" points="972.8,829.8 959.2,853.3 954.5,853.3 972.2,823    " style="fill:#C1B49A;">
          </polygon>
        </g>
        <g id="g514">
          <polygon id="polygon516" points="972.2,823 954.5,853.3 949.3,853.3 971.4,815.4    " style="fill:#050709;">
          </polygon>
        </g>
        <g id="g518">
          <polygon id="polygon520" points="971.4,815.4 949.3,853.3 944.6,853.3 970.7,808.6    " style="fill:#C1B49A;">
          </polygon>
        </g>
        <g id="g522">
          <polygon id="polygon524" points="970.2,803.2 970.7,808.6 944.6,853.3 939.4,853.3 969.3,802.1    " style="fill:#050709;">
          </polygon>
        </g>
        <g id="g526">
          <polygon id="polygon528" points="969.3,802.1 939.4,853.3 934.8,853.3 966.6,798.7    " style="fill:#C1B49A;">
          </polygon>
        </g>
        <g id="g530">
          <polygon id="polygon532" points="966.6,798.7 934.8,853.3 929.6,853.3 963.7,794.9    " style="fill:#050709;">
          </polygon>
        </g>
        <g id="g534">
          <polygon id="polygon536" points="963.7,794.9 929.6,853.3 924.9,853.3 961,791.5    " style="fill:#C1B49A;">
          </polygon>
        </g>
        <g id="g538">
          <path id="path540" d="M970.1,767c-1.9,7.6-9.8,23.7-9.8,23.7l0.7,0.8l-36.1,61.8l-5.2,0L970.1,767z" style="fill:#050709;">
          </path>
        </g>
        <g id="g542">
          <path id="path544" d="M971,757.5c0,0.6,0,1.2,0,1.8c0,0.1,0,0.1,0,0.2c0,0.3,0,0.6,0,0.9c0,0.1,0,0.2,0,0.2c0,0.5-0.1,1-0.1,1.5     c0,0.1,0,0.2,0,0.3c0,0.2,0,0.5-0.1,0.7c0,0.2,0,0.4-0.1,0.6c0,0.2-0.1,0.5-0.1,0.7c0,0.2-0.1,0.4-0.1,0.7c0,0.2,0,0.4-0.1,0.5     c-0.1,0.4-0.2,0.9-0.3,1.4l-50.4,86.4l-4.7,0L971,757.5z" style="fill:#C1B49A;">
          </path>
        </g>
        <g id="g546">
          <path id="path548" d="M970.1,750.2c0.5,2.1,0.9,4.5,0.9,7.3l-56,95.8l-5.2,0L970.1,750.2z" style="fill:#050709;">
          </path>
        </g>
        <g id="g550">
          <path id="path552" d="M968.4,745.1c0.6,1.4,1.2,3.1,1.7,5.1l-60.2,103.1l-4.7,0L968.4,745.1z" style="fill:#C1B49A;">
          </path>
        </g>
        <g id="g554">
          <path id="path556" d="M965.7,740.8C965.7,740.9,965.7,740.9,965.7,740.8C965.8,740.9,965.8,740.9,965.7,740.8     c0.2,0.1,0.3,0.1,0.3,0.1s1.2,1.4,2.4,4.2l-63.2,108.2l-1.6,0l-1.4-3.8L965.7,740.8z" style="fill:#050709;">
          </path>
        </g>
        <g id="g558">
          <path id="path560" d="M962.4,738.5C962.4,738.6,962.4,738.6,962.4,738.5c0.2,0.2,0.3,0.3,0.5,0.4c0.1,0,0.1,0.1,0.2,0.1     c0.1,0.1,0.2,0.2,0.3,0.3c0,0,0.1,0.1,0.1,0.1c0.1,0.1,0.3,0.2,0.4,0.3c0.1,0,0.1,0.1,0.2,0.1c0.1,0.1,0.2,0.1,0.3,0.2     c0.1,0,0.1,0.1,0.2,0.1c0.1,0.1,0.2,0.1,0.3,0.2c0,0,0.1,0,0.1,0.1c0.1,0,0.1,0.1,0.2,0.1c0,0,0.1,0,0.1,0.1     c0.1,0,0.1,0.1,0.2,0.1c0,0,0,0,0.1,0c0.1,0,0.1,0.1,0.2,0.1c0,0,0,0,0,0l-63.5,108.7l-1.8-5L962.4,738.5z" style="fill:#C1B49A;">
          </path>
        </g>
        <g id="g562">
          <path id="path564" d="M959.4,734.7C959.4,734.7,959.4,734.8,959.4,734.7c0.1,0.2,0.2,0.3,0.2,0.4c0.1,0.1,0.1,0.2,0.2,0.3     c0.1,0.1,0.1,0.2,0.2,0.3c0.1,0.1,0.1,0.2,0.2,0.3c0.1,0.1,0.1,0.2,0.2,0.3c0.1,0.1,0.1,0.2,0.2,0.3c0.1,0.1,0.1,0.2,0.2,0.2     c0.1,0.1,0.2,0.2,0.2,0.3c0.1,0.1,0.1,0.1,0.2,0.2c0.1,0.1,0.2,0.2,0.3,0.3c0,0,0.1,0.1,0.1,0.1c0.3,0.3,0.5,0.6,0.8,0.8     l-61.9,106l-2-5.5L959.4,734.7z" style="fill:#050709;">
          </path>
        </g>
        <g id="g566">
          <path id="path568" d="M957.4,730.3c0,0.1,0,0.1,0.1,0.2c0,0.1,0.1,0.2,0.1,0.3c0.1,0.2,0.1,0.4,0.2,0.6c0,0.1,0,0.1,0.1,0.2     c0.1,0.1,0.1,0.3,0.2,0.4c0,0.1,0.1,0.2,0.1,0.3c0.1,0.1,0.1,0.3,0.2,0.4c0.1,0.2,0.2,0.4,0.3,0.6c0.1,0.1,0.1,0.2,0.1,0.3     c0.1,0.1,0.2,0.3,0.2,0.4c0,0.1,0.1,0.1,0.1,0.2c0.1,0.2,0.2,0.3,0.3,0.5L898.5,839l-1.8-5L957.4,730.3z" style="fill:#C1B49A;">
          </path>
        </g>
        <g id="g570">
          <path id="path572" d="M955.8,724.1c0,0.1,0,0.1,0,0.2c0,0.1,0,0.2,0,0.3c0,0.1,0,0.2,0,0.3c0,0.1,0,0.1,0,0.2     c0,0.1,0,0.2,0,0.2c0.1,0.3,0.1,0.6,0.2,0.9c0,0.1,0,0.2,0.1,0.3c0.1,0.2,0.1,0.4,0.2,0.6c0.1,0.2,0.1,0.4,0.2,0.7     c0,0.1,0.1,0.3,0.1,0.4c0.1,0.3,0.2,0.5,0.2,0.8c0,0.1,0.1,0.2,0.1,0.3c0.1,0.3,0.2,0.6,0.3,0.9c0,0,0,0.1,0,0.1L896.8,834     l-1.9-5.5L955.8,724.1z" style="fill:#050709;">
          </path>
        </g>
        <g id="g574">
          <path id="path576" d="M955.6,716.3c-0.1,2.8-0.1,5.7,0.2,7.7l-61,104.4l-1.8-5L955.6,716.3z" style="fill:#C1B49A;">
          </path>
        </g>
        <g id="g578">
          <path id="path580" d="M954,710.2c0.6-0.2,1.3-0.5,1.9-0.8l0,0c0,0-0.2,3.3-0.3,6.9l-62.6,107.2l-2-5.5L954,710.2z">
          </path>
        </g>
        <g id="g582">
          <path id="path584" d="M948.3,712c2-0.5,3.9-1.1,5.7-1.8L891.1,818l-1.8-5L948.3,712z" style="fill:#C1B49A;">
          </path>
        </g>
        <g id="g586">
          <path id="path588" d="M942.5,713.1c2.1-0.3,4-0.6,5.8-1.1l-59,101l-2-5.5L942.5,713.1z" style="fill:#050709;">
          </path>
        </g>
        <g id="g590">
          <path id="path592" d="M937.6,713.5c1.7-0.1,3.4-0.2,4.9-0.5l-55.1,94.4l-1.8-5L937.6,713.5z" style="fill:#C1B49A;">
          </path>
        </g>
        <g id="g594">
          <path id="path596" d="M932.3,713.6c1.8,0,3.6,0,5.2-0.1l-51.9,89l-0.2-0.6l3.1-12.1c0,0-0.2-0.1-0.5-0.4L932.3,713.6z" style="fill:#050709;">
          </path>
        </g>
        <g id="g598">
          <path id="path600" d="M927.8,713.5c1.6,0.1,3.1,0.2,4.6,0.2l-44.3,75.8c-0.6-0.5-1.7-1.4-3.1-2.7L927.8,713.5z" style="fill:#C1B49A;">
          </path>
        </g>
        <g id="g602">
          <path id="path604" d="M922.8,713.2c1.5,0.1,3,0.1,4.3,0.2c0.2,0,0.4,0,0.7,0L885,786.8c-0.3-0.3-0.7-0.6-1-1     c-0.1-0.1-0.3-0.3-0.4-0.4c-0.1-0.1-0.2-0.2-0.3-0.3c-0.2-0.2-0.4-0.4-0.5-0.5c-0.1-0.1-0.2-0.2-0.2-0.2     c-0.2-0.2-0.4-0.4-0.6-0.6c0,0-0.1-0.1-0.1-0.1L922.8,713.2z" style="fill:#050709;">
          </path>
        </g>
        <g id="g606">
          <path id="path608" d="M918.2,713c1.6,0.1,3.1,0.1,4.6,0.2l-41.1,70.4c0,0-0.1-0.1-0.1-0.1c-0.2-0.2-0.3-0.3-0.5-0.5     c-0.1-0.1-0.2-0.2-0.3-0.3c-0.2-0.2-0.3-0.3-0.5-0.5c-0.1-0.1-0.2-0.2-0.2-0.2c-0.2-0.2-0.3-0.4-0.5-0.6     c-0.1-0.1-0.1-0.2-0.2-0.2c-0.2-0.2-0.3-0.4-0.5-0.6c0,0-0.1-0.1-0.1-0.1L918.2,713z" style="fill:#C1B49A;">
          </path>
        </g>
        <g id="g610">
          <path id="path612" d="M913.2,712.6c1.7,0.1,3.4,0.2,5,0.3l-39.4,67.4c0,0-0.1-0.1-0.1-0.1c-0.2-0.2-0.4-0.5-0.6-0.7     c-0.1-0.1-0.1-0.2-0.2-0.2c-0.2-0.2-0.4-0.5-0.6-0.7c0-0.1-0.1-0.1-0.1-0.2c-0.2-0.3-0.4-0.5-0.6-0.8c0-0.1-0.1-0.1-0.1-0.2     c-0.2-0.3-0.4-0.6-0.6-0.8c0,0,0,0-0.1-0.1L913.2,712.6z" style="fill:#050709;">
          </path>
        </g>
        <g id="g614">
          <path id="path616" d="M908.8,712.2c1.5,0.2,3,0.4,4.4,0.5l-37.3,63.9c0,0,0-0.1-0.1-0.1c-0.2-0.2-0.3-0.5-0.5-0.8     c-0.1-0.1-0.1-0.2-0.2-0.3c-0.1-0.2-0.3-0.5-0.4-0.7c-0.1-0.1-0.1-0.2-0.2-0.3c-0.1-0.2-0.3-0.5-0.4-0.7     c-0.1-0.1-0.1-0.2-0.2-0.3c-0.1-0.2-0.3-0.5-0.4-0.7c0,0,0,0,0-0.1L908.8,712.2z" style="fill:#C1B49A;">
          </path>
        </g>
        <g id="g618">
          <path id="path620" d="M904.1,711.4c1.6,0.3,3.2,0.6,4.7,0.8l-35.2,60.4c-0.1-0.2-0.2-0.5-0.4-0.7c-0.1-0.1-0.1-0.2-0.2-0.4     c-0.1-0.2-0.2-0.4-0.2-0.6c-0.1-0.2-0.1-0.3-0.2-0.5c-0.1-0.2-0.2-0.4-0.3-0.7c0-0.2-0.1-0.3-0.2-0.5c0-0.2-0.1-0.3-0.2-0.5     c-0.1-0.2-0.1-0.5-0.2-0.7c0-0.1-0.1-0.3-0.1-0.4c0-0.2-0.1-0.3-0.1-0.5c0,0,0,0,0,0L904.1,711.4z" style="fill:#050709;">
          </path>
        </g>
        <g id="g622">
          <path id="path624" d="M900,710.4c1.4,0.4,2.7,0.7,4.1,1L871.6,767c-0.1-0.3-0.1-0.6-0.2-0.9c-0.1-0.4-0.1-0.8-0.1-1.2     c0-0.1,0-0.2,0-0.2c0-0.3-0.1-0.5-0.1-0.8c0-0.2-0.1-0.5-0.1-0.7c0-0.2,0-0.4,0-0.6c0-0.3,0-0.6-0.1-0.9c0-0.1,0-0.3,0-0.4     c0-0.3,0-0.7,0-1c0,0,0-0.1,0-0.1L900,710.4z" style="fill:#C1B49A;">
          </path>
        </g>
        <g id="g626">
          <path id="path628" d="M895.7,709c1.4,0.6,2.9,1,4.3,1.4l-29,49.7c0-0.1,0-0.1,0-0.2c0-0.2,0-0.5,0-0.7c0-0.1,0-0.2,0-0.3     c0-0.3,0-0.5,0-0.8c0,0,0,0,0,0c0-1.2,0.1-2.3,0.3-3.4c0,0,0-0.1,0-0.1c0-0.2,0.1-0.5,0.1-0.7c0,0,0-0.1,0-0.1     c0-0.2,0.1-0.4,0.1-0.7c0,0,0,0,0-0.1c0.2-1.2,0.5-2.2,0.8-3c0,0,0,0,0,0c0.1-0.2,0.1-0.3,0.2-0.5c0,0,0,0,0-0.1     c0.1-0.1,0.1-0.3,0.2-0.4c0,0,0,0,0-0.1c0.2-0.6,0.5-1.1,0.7-1.5c0,0,0,0,0,0c0-0.1,0.1-0.2,0.1-0.2c0,0,0-0.1,0.1-0.1     c0-0.1,0.1-0.1,0.1-0.2c0,0,0.1-0.1,0.1-0.1c0,0,0.1-0.1,0.1-0.1c0,0,0.1-0.1,0.1-0.1c0,0,0-0.1,0.1-0.1c0-0.1,0.1-0.1,0.1-0.2     c0,0,0,0,0,0c0.4-0.5,0.7-0.7,0.7-0.7s0.2-0.8,0.5-2.1L895.7,709z" style="fill:#050709;">
          </path>
        </g>
        <g id="g630">
          <path id="path632" d="M891.9,707.4c1.2,0.6,2.5,1.1,3.7,1.6l-20.1,34.4c0.7-2.7,1.8-7.6,2.6-12.5L891.9,707.4z" style="fill:#C1B49A;">
          </path>
        </g>
        <g id="g634">
          <path id="path636" d="M879.1,720.5l9-15.4c1.3,0.8,2.6,1.5,3.9,2.2l-13.8,23.6c0-0.1,0-0.2,0.1-0.4c0.4-2.3,0.6-4.5,0.8-6.5     C879.1,723.3,879.1,722.1,879.1,720.5z" style="fill:#050709;">
          </path>
        </g>
        <g id="g638">
          <path id="path640" d="M884.8,702.8c1.1,0.9,2.2,1.6,3.3,2.4l-9,15.4c0-2.1-0.1-4.9-0.2-7.7L884.8,702.8z" style="fill:#C1B49A;">
          </path>
        </g>
        <g id="g642">
          <path id="path644" d="M881.3,699.8c1.1,1.1,2.2,2.1,3.4,3l-5.9,10c-0.1-2.4-0.2-4.9-0.3-7.2c0-0.4,0-0.8,0-1.2L881.3,699.8z" style="fill:#050709;">
          </path>
        </g>
        <g id="g646">
          <path id="path648" d="M878.6,704.5c-0.1-3.4-0.3-6.2-0.3-7.5l0.2-0.4c0.9,1.1,1.9,2.2,2.8,3.1L878.6,704.5z" style="fill:#C1B49A;">
          </path>
        </g>
        <g id="g650">
          <path id="path652" d="M878.3,697c0-0.5,0-0.7,0-0.7l0,0c0.1,0.1,0.2,0.2,0.3,0.3L878.3,697z" style="fill:#050709;">
          </path>
        </g>
        <g id="g654">
          <path id="path656" d="M964,586.3c-2.9,3-5.8,6-8.7,9c-1,1-2,2.1-3,3.2c-0.6,0.6-1.2,1.3-1.9,1.9c-2.2,2.3-4.4,4.5-6.5,6.7     c-3.8,4-7.5,7.7-10.8,11.1c-5.8,6-11,11.4-15,15.5c-14,14.6-32.4,24-52.3,29.8c0.1,1,0.6,4.4,1.6,8.6c1.2,5,3.1,11.2,6,16.8     c0.1,0.1,0.1,0.2,0.2,0.3c0.4,0.8,0.9,1.6,1.3,2.3c0.5,0.9,1.1,1.7,1.7,2.5c0.5,0.8,1.1,1.5,1.7,2.2c0.1,0.1,0.2,0.2,0.3,0.3     c0.9,1.1,1.9,2.2,2.8,3.1c1.1,1.1,2.2,2.1,3.4,3c1.1,0.9,2.2,1.6,3.3,2.4c1.3,0.8,2.6,1.5,3.9,2.2c1.2,0.6,2.5,1.1,3.7,1.6     c1.4,0.6,2.9,1,4.3,1.4c1.4,0.4,2.7,0.7,4.1,1c1.6,0.3,3.2,0.6,4.7,0.8c1.5,0.2,3,0.4,4.4,0.5c1.7,0.1,3.4,0.2,5,0.3     c1.6,0.1,3.1,0.1,4.6,0.2c1.5,0.1,3,0.1,4.3,0.2c0.2,0,0.4,0,0.7,0c1.6,0.1,3.1,0.2,4.6,0.2c1.8,0,3.6,0,5.2-0.1     c1.7-0.1,3.4-0.2,4.9-0.5c2.1-0.3,4-0.6,5.8-1.1c2-0.5,3.9-1.1,5.7-1.8c0.6-0.2,1.3-0.5,1.9-0.8l0,0c2.3-1,4.3-2.2,6.2-3.4     c1.2-0.8,2.3-1.6,3.3-2.5c4.2-3.6,6.9-7.6,8.8-11.2c1.7-3.2,2.5-6.1,2.9-7.9c0.3-1.3,0.4-2,0.4-2s1-0.2,2.4-0.9l0.1-0.8     c-1.5-0.3-2.7-1.5-3.1-3.1c-0.5-2.2,0.8-4.5,3.1-5c2.2-0.5,4.5,0.8,5,3.1c0.1,0.5,0.1,1.1,0.1,1.6c1.4-1.7,2.8-3.9,4-6.9     c0.6-1.6,1.2-3.4,1.7-5.4c0.2-0.8,0.5-1.6,0.8-2.5c0.1-0.3,0.2-0.6,0.4-0.9c1.1-2.6,2.6-5.5,3.8-8.6c0.6-1.5,1-3,1.3-4.5     c0.4-1.8,0.5-3.6,0.3-5.4c0-0.2,0-0.4-0.1-0.6c-0.5-3.6-5.3-3-5.3-3s0.3-1.2,0.8-3.1l0,0c0,0-0.7-18.7-10.5-31.5     C974.3,594.3,966.5,588.2,964,586.3z M986.3,619.2c0,0-2.3,3.5-6.1,6.3c0,0.1,0,0.3-0.1,0.5c-0.3,3.7,0.8,5.8,0.8,5.8     s-1.9-1.7-5-3.8c-1.1,0.4-2.2,0.8-3.3,1c-14.3,2.4-17.9-1.7-22.5-6.5c-0.5-0.5-1.1-1.6-1.6-2.7c1.6,2.5,5.1,6.9,10.8,8.1     c-0.4-0.6-0.6-1.4-0.6-2.1c0-1.7,1.1-3.2,2.7-4.1c-3.5-1-7.3-2-10-2.8c-1.1-0.2-2.4-0.6-3.8-1c0,0,0,0,0,0c-0.1,0-0.2,0-0.2,0     l0.2,0c-0.1-0.2-0.2-0.4-0.2-0.4s6.8,1.1,20.7-4.3C981.7,608,986.3,619.2,986.3,619.2z M929.2,648.5h-0.7c-1.3,0-2.7,0-3.8,0.7     c-1.2,0.8-1,2-2.9,1.5c-0.2-2.7,1-6,4.2-6C927.9,644.6,931.1,646.7,929.2,648.5z M935.7,662.7c9.6,4.7,12.9,15.6,12.9,15.6     s-3.1,5.2-7.5,6.6c-8.1,2.6-20,0.2-24.6-1.8c-8.3-3.6-10.5-8.5-10.5-8.5s5-13.2,17.4-13.2c1.6,0,3.9,1.3,6.3,1.3     C931.5,662.8,934.2,662,935.7,662.7z M938,651.6c0.2-2.6-2.2-1.1-2.3-3.1c-0.2-2,2.1-3,3.7-2.9l0.6,0     C943.3,644.9,940.9,651.7,938,651.6z M969,599.5c10.2,2.1,15.2,14.8,15.2,14.8s-6.7-10.2-19-10.8c-7.5-0.4-18.2,0.5-18.2,0.5     l5.5-5.5C952.5,598.5,965,598.7,969,599.5z" style="fill:#C1B49A;">
          </path>
        </g>
        <g id="g658">
          <path id="path660" d="M969.7,625.7c0-0.5-0.1-1-0.3-1.4c0.3,0.1,0.6,0.3,0.9,0.4c0.7,0.3,1.4,0.7,2,1.1     c-0.8,0.6-1.8,1.3-3.1,1.8C969.5,627,969.7,626.3,969.7,625.7z" style="fill:#C1B49A;">
          </path>
        </g>
        <g id="g662">
          <path id="path664" d="M928.6,648.5c-1.3,0-2.7,0-3.8,0.7c-1.2,0.8-1,2-2.9,1.5c-0.2-2.7,1-6,4.2-6c1.9,0,5.1,2,3.2,3.8H928.6z" style="fill:#050709;">
          </path>
        </g>
        <g id="g666">
          <path id="path668" d="M938,651.6c0.2-2.6-2.2-1.1-2.3-3.1c-0.2-2,2.1-3,3.7-2.9l0.6,0C943.3,644.9,940.9,651.7,938,651.6z" style="fill:#050709;">
          </path>
        </g>
        <g id="g670">
          <path id="path672" d="M984.2,614.4c0,0-6.7-10.2-19-10.8c-7.5-0.4-18.2,0.5-18.2,0.5l5.5-5.5c0,0,12.5,0.2,16.5,1     C979.1,601.7,984.2,614.4,984.2,614.4z" style="fill:#050709;">
          </path>
        </g>
        <g id="g674">
          <path id="path676" d="M940,674.7c-2.1,0.4-5.2,0.9-9,0.7c-8.2-0.3-13.8-1.1-17.3-1.8c0.9-0.8,4.2-3.5,8.5-3.6     c1.3,0,3.9,0.4,5.2,0.3c1.3-0.1,4.7-0.1,5.9,0.1C935.9,670.9,938.5,673.2,940,674.7z" style="fill:#E4DBD7;">
          </path>
        </g>
        <g id="g678">
          <path id="path680" d="M964.2,622.5c-1.3,0-2.4,1.1-2.4,2.4c0,1.3,1.1,2.4,2.4,2.3c1.3,0,2.4-1.1,2.4-2.4c0-0.8-0.4-1.4-1-1.9     c1.5,0.5,2.8,0.9,3.7,1.3c0.2,0.4,0.3,0.9,0.3,1.4c0,0.6-0.1,1.3-0.4,1.8c-2.2,0.9-5.4,1.3-9.7,0.4c0,0-0.1,0-0.2,0     c-0.4-0.6-0.6-1.4-0.6-2.1c0-1.7,1.1-3.2,2.7-4.1C962.4,621.9,963.3,622.2,964.2,622.5z" style="fill:#050709;">
          </path>
        </g>
        <g id="g682">
          <path id="path684" d="M966.6,624.8c0,1.3-1.1,2.4-2.4,2.4c-1.3,0-2.4-1-2.4-2.3c0-1.3,1-2.3,2.4-2.4c0.5,0.2,1,0.3,1.5,0.5     C966.2,623.4,966.6,624,966.6,624.8z" style="fill:#C1B49A;">
          </path>
        </g>
        <g id="g686">
          <path id="path688" d="M930.9,675.4c3.8,0.2,7-0.3,9-0.7c0.7,0.8,1.2,1.3,1.2,1.3s-0.9,1.6-12.8,0.3c-7-0.8-15-2.4-15-2.4     s0.1-0.1,0.3-0.2C917.1,674.3,922.8,675.1,930.9,675.4z" style="fill:#050709;">
          </path>
        </g>
        <g id="g690">
          <path id="path692" d="M929.8,662.8c-2.4,0.1-4.7-1.3-6.3-1.3c-12.5,0-17.4,13.2-17.4,13.2s2.2,4.9,10.5,8.5     c4.6,2,16.4,4.3,24.6,1.8c4.4-1.4,7.5-6.6,7.5-6.6s-3.3-11-12.9-15.6C934.2,662,931.5,662.8,929.8,662.8z M940,674.7     c0.7,0.8,1.2,1.3,1.2,1.3s-0.9,1.6-12.8,0.3c-7-0.8-15-2.4-15-2.4s0.1-0.1,0.3-0.2c0.9-0.8,4.2-3.5,8.5-3.6     c1.3,0,3.9,0.4,5.2,0.3c1.3-0.1,4.7-0.1,5.9,0.1C935.9,670.9,938.5,673.2,940,674.7z" style="fill:#90278E;">
          </path>
        </g>
        <g id="g694">
          <path id="path696" d="M975.3,706.3l2.6-14l1.5-7.9l0.5-2.9l0.1-0.8c0.4,0.1,0.7,0.1,1.1,0.1l0.3,3.6l0.7,7.9l1.3,14l0.7,7.9     l0.3,3l0.7,7.6l-13.2-0.6l0-0.2l1.8-9.7L975.3,706.3z" style="fill:#90278E;">
          </path>
        </g>
        <g id="g698">
          <path id="path700" d="M977,677.7c-0.5-2.2,0.8-4.5,3.1-5c2.2-0.5,4.5,0.8,5,3.1c0.1,0.5,0.1,1.1,0.1,1.6c-0.2,1.6-1.4,3-3.1,3.4     c-0.3,0.1-0.5,0.1-0.8,0.1c-0.4,0-0.8,0-1.1-0.1C978.6,680.4,977.4,679.3,977,677.7z" style="fill:#90278E;">
          </path>
        </g>
        <g id="g702">
          <path id="path704" d="M986.3,619.2c0,0-2.3,3.5-6.1,6.3c0.1-1,0.4-1.6,0.7-2.4l-33.2-5.2c-0.1-0.2-0.2-0.4-0.2-0.4     s6.8,1.1,20.7-4.3C981.7,608,986.3,619.2,986.3,619.2z" style="fill:#90278E;">
          </path>
        </g>
        <g id="g706">
          <path id="path708" d="M947.7,617.9C947.7,617.9,947.7,617.9,947.7,617.9c0.5,0.1,1.8,0.5,3.8,1     C950.3,618.7,949.1,618.3,947.7,617.9z" style="fill:#A694BA;">
          </path>
        </g>
        <g id="g710">
          <path id="path712" d="M969.2,627.5c1.3-0.5,2.3-1.1,3.1-1.8c1.3,0.7,2.6,1.5,3.6,2.2c-1.1,0.4-2.2,0.8-3.3,1     c-14.3,2.4-17.9-1.7-22.5-6.5c-0.5-0.5-1.1-1.6-1.6-2.7c1.6,2.5,5.1,6.9,10.8,8.1c0.1,0,0.1,0,0.2,0     C963.9,628.8,967,628.4,969.2,627.5z" style="fill:#050709;">
          </path>
        </g>
        <g id="g714">
          <path id="path716" d="M980.9,623.1c-0.3,0.8-0.6,1.4-0.7,2.4c0,0.1,0,0.3-0.1,0.5c-0.3,3.7,0.8,5.8,0.8,5.8s-1.9-1.7-5-3.8     c-1.1-0.7-2.3-1.5-3.6-2.2c-0.6-0.4-1.3-0.7-2-1.1c-0.3-0.1-0.6-0.3-0.9-0.4c-1-0.4-2.3-0.9-3.7-1.3c-0.5-0.2-1-0.3-1.5-0.5     c-0.9-0.3-1.8-0.6-2.7-0.8c-3.5-1-7.3-2-10-2.8c-1.9-0.5-3.3-0.8-3.8-1c-0.1,0-0.2,0-0.2,0l0.2,0L980.9,623.1z" style="fill:#050709;">
          </path>
        </g>
        <g id="g718">
          <path id="path720" d="M985.8,570.6c0.7,0.8,1.4,1.8,2.2,3c1.3,1.9,2.7,4.3,4,7.3c0.2,0.5,0.5,1,0.7,1.6     c0.2,0.6,0.5,1.1,0.7,1.7c0.1,0.3,0.2,0.6,0.4,1c1.2,3.3,2.3,7.2,3.2,11.6c0,0.2,0.1,0.3,0.1,0.5c0,0,0,0,0,0     c0.3,1.3,0.4,2.6,0.6,3.9c0.2,1.3,0.3,2.5,0.3,3.8c0.1,1.3,0.1,2.7,0.1,4c0,1.3,0,2.5-0.1,3.8c-0.1,1.3-0.2,2.7-0.3,4     c-0.1,1.3-0.3,2.6-0.5,3.8c-0.2,1.4-0.5,2.7-0.7,4c-1.5,7.3-3.6,12.1-3.6,12.1l0,0c0,0-0.7-18.7-10.5-31.5     c-8.1-10.7-15.9-16.8-18.4-18.6c6.2-6.4,12.5-12.9,18.6-19.1c0.2,0.2,0.4,0.4,0.7,0.6C983.9,568.4,984.8,569.4,985.8,570.6z" style="fill:#050709;">
          </path>
        </g>
      </g>
    </g>
    <g id="NAME_text" transform="translate(0,-5.4545455)">
      <text y="1208.5482" x="-692.57385" id="text21" style="font-style:normal;font-variant:normal;font-weight:normal;font-stretch:normal;font-size:44.99960709px;line-height:125%;font-family:Aclonica;-inkscape-font-specification:'Aclonica, Normal';text-align:center;writing-mode:lr-tb;text-anchor:middle;fill:#c1b49a" transform="matrix(-0.00416996,-0.99999131,0.99999131,-0.00416996,0,0)">
        Chiara Biasi
      </text>
    </g>
    <svg version="1.1" viewBox="0 0 260.42282 367.94028" x="446.15219" y="488.75717" width="260.42282" height="367.94028" preserveAspectRatio="xMidYMid meet" id="svg369">
      <image xlink:href="/designs/templates/girl1.png" width="260.42282" height="367.94028" id="image21">
      </image>
    </svg>
  </g>
</svg>