<?xml version="1.0" encoding="UTF-8" standalone="no"?>
<svg xmlns:dc="http://purl.org/dc/elements/1.1/" xmlns:cc="http://creativecommons.org/ns#"
     xmlns:rdf="http://www.w3.org/1999/02/22-rdf-syntax-ns#" xmlns:svg="http://www.w3.org/2000/svg"
     xmlns="http://www.w3.org/2000/svg" xmlns:xlink="http://www.w3.org/1999/xlink" version="1.1" viewBox="0 0 1600 1000"
     height="1000" width="1600" id="svg1682">
    <metadata id="metadata10">
        <rdf:RDF>
            <cc:Work rdf:about="">
                <dc:format>image/svg+xml</dc:format>
                <dc:type rdf:resource="http://purl.org/dc/dcmitype/StillImage"/>
                <dc:title></dc:title>
            </cc:Work>
        </rdf:RDF>
    </metadata>
    <defs id="defs8">
        <style id="bx-google-fonts">@import url(https://fonts.googleapis.com/css?family=Ewert);</style>
        <clipPath id="clipPath4147" clipPathUnits="userSpaceOnUse">
            <path id="jd_bd" d="m 333.33334,184.12698 903.17466,0 0,600 -903.17466,0 z"
                  style="opacity:0.97000002;fill:none;fill-opacity:1;stroke:#000000;stroke-width:1;stroke-linecap:butt;stroke-linejoin:miter;stroke-miterlimit:4;stroke-dasharray:none;stroke-dashoffset:0;stroke-opacity:1"/>
        </clipPath>
    </defs>
    <image xlink:href="/designs/templates/002000701-2.jpg" y="0" x="0" id="jd_bg" height="1000" width="1600"/>
    <g clip-path="url(#clipPath4147)" id="jd_nt">
        <g transform="matrix(6.1832469,0,0,6.14723,-879.17235,-5806.7443)" id="g7075">
            <path d="m 289.14,1028.635 c -0.5443,0.5795 -1.1133,1.1353 -1.7052,1.6658 l -10.4838,0 c -0.5556,0 -0.8332,-0.2773 -0.8332,-0.8323 0,-0.5559 0.2776,-0.8335 0.8332,-0.8335 l 12.189,0 z m -17.2749,-46.3181 c 3.3608,0.3436 6.5419,1.2904 9.4358,2.7303 l -5.1831,0 c -1.155,0 -2.1379,0.4056 -2.9488,1.2162 -0.8111,0.8108 -1.2161,1.794 -1.2161,2.949 l 0,1.6661 c 0,1.1553 0.405,2.1382 1.2161,2.9488 0.8109,0.8108 1.7938,1.2164 2.9488,1.2164 l 16.2483,0 c 0.6328,1.0012 1.2024,2.046 1.7046,3.1291 l -17.9529,0 c -1.155,0 -2.1379,0.4056 -2.9488,1.2164 -0.8111,0.8109 -1.2161,1.7938 -1.2161,2.9488 l 0,1.6658 c 0,1.1556 0.405,2.1385 1.2161,2.9493 0.8109,0.8106 1.7938,1.2162 2.9488,1.2162 l 19.1599,0 c 0.4664,0 0.8607,-0.1611 1.1825,-0.4831 0.0255,-0.026 0.0495,-0.053 0.0732,-0.079 0.0547,0.7093 0.0832,1.4267 0.0832,2.1501 0,0.7233 -0.0285,1.4393 -0.0832,2.1486 -0.0237,-0.027 -0.0474,-0.052 -0.0732,-0.078 -0.3218,-0.322 -0.7161,-0.4831 -1.1825,-0.4831 l -19.1599,0 c -1.155,0 -2.1379,0.4056 -2.9488,1.2162 -0.8111,0.8108 -1.2161,1.7937 -1.2161,2.949 l 0,1.6658 c 0,1.1553 0.405,2.1382 1.2161,2.9491 0.8109,0.8108 1.7938,1.2164 2.9488,1.2164 l 17.9524,0 c -0.5022,1.0828 -1.0721,2.1279 -1.7049,3.1291 l -16.2475,0 c -1.155,0 -2.1379,0.4056 -2.9488,1.2164 -0.8111,0.8106 -1.2161,1.7935 -1.2161,2.9488 l 0,1.6658 c 0,1.1553 0.405,2.1385 1.2161,2.9493 0.8109,0.8106 1.7938,1.2162 2.9488,1.2162 l 5.1812,0 c -2.893,1.4399 -6.0737,2.3864 -9.4336,2.7298 -1.5425,-8.3212 -2.4064,-17.6228 -2.4064,-27.4393 0,-9.8163 0.8636,-19.118 2.4061,-27.4399 z m 15.5708,6.8955 c 0.5919,0.5305 1.1609,1.0868 1.7051,1.6661 l -12.19,0 c -0.5556,0 -0.8332,-0.2776 -0.8332,-0.8335 0,-0.555 0.2776,-0.8326 0.8332,-0.8326 l 10.4849,0 z m 8.162,13.0976 c 0.1726,0.6164 0.3253,1.2414 0.4554,1.8748 -0.2316,-0.1209 -0.4899,-0.181 -0.7756,-0.181 l -18.3267,0 c -0.5556,0 -0.8332,-0.2773 -0.8332,-0.8329 0,-0.5553 0.2776,-0.8329 0.8332,-0.8329 l 18.3267,0 c 0.1109,0 0.2173,-0.01 0.3202,-0.028 z m 0.4554,13.0168 c -0.1301,0.6334 -0.2825,1.2587 -0.4554,1.8754 -0.1029,-0.018 -0.2093,-0.027 -0.3202,-0.027 l -18.3267,0 c -0.5556,0 -0.8332,-0.2773 -0.8332,-0.8326 0,-0.5556 0.2776,-0.8332 0.8332,-0.8332 l 18.3267,0 c 0.286,0 0.544,-0.062 0.7756,-0.1826 z"
                  style="fill:#4da7af;fill-rule:evenodd" id="path7077"/>
            <g id="g7079">
                <path d="m 262.3721,1041.3934 c -6.2563,-1.3096 -11.8477,-4.4257 -16.1997,-8.7779 -5.8466,-5.8467 -9.4635,-13.9274 -9.4646,-22.8547 l -0.005,0 0,0 0,0 0.005,0 c 6e-4,-8.9287 3.6185,-17.011 9.4659,-22.8582 4.3888,-4.3886 10.0376,-7.5208 16.3574,-8.8106 l 3.2641,2.1401 0.007,0.0357 c -6.8966,0.7481 -13.0888,3.8649 -17.7437,8.5199 -5.3713,5.371 -8.695,12.7873 -8.6953,20.9731 l 0.005,0 0,0 0,0 -0.005,0 c 8e-4,8.1843 3.3234,15.5991 8.694,20.9696 4.6027,4.603 10.7081,7.7008 17.5117,8.4934 l -3.1971,2.1696 z"
                      style="fill:#4da7af;fill-rule:evenodd" id="path7081"/>
                <path d="m 275.6251,978.105 c 6.2835,1.3012 11.8995,4.425 16.2673,8.7931 5.8464,5.8466 9.4635,13.9275 9.4646,22.8546 l 0.005,0 0,0 0,0 -0.005,0 c -6e-4,8.9287 -3.6185,17.011 -9.4659,22.8582 -4.3726,4.3725 -9.9955,7.4969 -16.2871,8.7952 l -3.3038,-2.1661 c 6.8818,-0.7555 13.059,-3.8674 17.7058,-8.5142 5.3713,-5.371 8.695,-12.7873 8.6953,-20.9731 l -0.005,0 0,0 0,0 0.005,0 c -8e-4,-8.1841 -3.3237,-15.599 -8.694,-20.9696 -4.6196,-4.6199 -10.7535,-7.7247 -17.5875,-8.503 l 3.2053,-2.1751 z"
                      style="fill:#9edbf4;fill-rule:evenodd" id="path7083"/>
            </g>
            <path d="m 248.9483,1028.635 c 0.5442,0.5795 1.1132,1.1353 1.7051,1.6658 l 10.4839,0 c 0.5555,0 0.8332,-0.2773 0.8332,-0.8323 0,-0.5559 -0.2777,-0.8335 -0.8332,-0.8335 l -12.189,0 z m 17.2748,-46.3181 c -3.3607,0.3436 -6.5419,1.2904 -9.4357,2.7303 l 5.1831,0 c 1.155,0 2.1379,0.4056 2.9487,1.2162 0.8111,0.8108 1.2161,1.794 1.2161,2.949 l 0,1.6661 c 0,1.1553 -0.405,2.1382 -1.2161,2.9488 -0.8108,0.8108 -1.7937,1.2164 -2.9487,1.2164 l -16.2484,0 c -0.6328,1.0012 -1.2024,2.046 -1.7046,3.1291 l 17.953,0 c 1.155,0 2.1379,0.4056 2.9487,1.2164 0.8111,0.8109 1.2161,1.7938 1.2161,2.9488 l 0,1.6658 c 0,1.1556 -0.405,2.1385 -1.2161,2.9493 -0.8108,0.8106 -1.7937,1.2162 -2.9487,1.2162 l -19.16,0 c -0.4664,0 -0.8606,-0.1611 -1.1824,-0.4831 -0.0256,-0.026 -0.0496,-0.053 -0.0733,-0.079 -0.0547,0.7093 -0.0832,1.4267 -0.0832,2.1501 0,0.7233 0.0285,1.4393 0.0832,2.1486 0.0237,-0.027 0.0474,-0.052 0.0733,-0.078 0.3218,-0.322 0.716,-0.4831 1.1824,-0.4831 l 19.16,0 c 1.155,0 2.1379,0.4056 2.9487,1.2162 0.8111,0.8108 1.2161,1.7937 1.2161,2.949 l 0,1.6658 c 0,1.1553 -0.405,2.1382 -1.2161,2.9491 -0.8108,0.8108 -1.7937,1.2164 -2.9487,1.2164 l -17.9525,0 c 0.5023,1.0828 1.0721,2.1279 1.7049,3.1291 l 16.2476,0 c 1.155,0 2.1379,0.4056 2.9487,1.2164 0.8111,0.8106 1.2161,1.7935 1.2161,2.9488 l 0,1.6658 c 0,1.1553 -0.405,2.1385 -1.2161,2.9493 -0.8108,0.8106 -1.7937,1.2162 -2.9487,1.2162 l -5.1812,0 c 2.893,1.4399 6.0736,2.3864 9.4336,2.7298 1.5425,-8.3212 2.4064,-17.6228 2.4064,-27.4393 0,-9.8163 -0.8637,-19.118 -2.4062,-27.4399 z m -15.5708,6.8955 c -0.5919,0.5305 -1.1609,1.0868 -1.7051,1.6661 l 12.1901,0 c 0.5555,0 0.8332,-0.2776 0.8332,-0.8335 0,-0.555 -0.2777,-0.8326 -0.8332,-0.8326 l -10.485,0 z m -8.162,13.0976 c -0.1726,0.6164 -0.3253,1.2414 -0.4553,1.8748 0.2316,-0.1209 0.4898,-0.181 0.7755,-0.181 l 18.3268,0 c 0.5555,0 0.8332,-0.2773 0.8332,-0.8329 0,-0.5553 -0.2777,-0.8329 -0.8332,-0.8329 l -18.3268,0 c -0.1109,0 -0.2173,-0.01 -0.3202,-0.028 z m -0.4553,13.0168 c 0.13,0.6334 0.2825,1.2587 0.4553,1.8754 0.1029,-0.018 0.2093,-0.027 0.3202,-0.027 l 18.3268,0 c 0.5555,0 0.8332,-0.2773 0.8332,-0.8326 0,-0.5556 -0.2777,-0.8332 -0.8332,-0.8332 l -18.3268,0 c -0.286,0 -0.5439,-0.062 -0.7755,-0.1826 z"
                  style="fill:#9edbf4;fill-rule:evenodd" id="path7085"/>
            <path d="m 268.9875,1041.1164 -9.9587,5.8106 0,-10e-5 -49.8933,0 0,-3.2647 49.8933,0 9.8314,-6.6716 10.1759,6.6716 49.9197,0 0,3.2647 -49.9198,0 -10.0485,-5.8105 z"
                  style="fill:#9edbf4;fill-rule:evenodd" id="path7091"/>
        </g>
        <text x="787.7749" y="748.6543" id="text4169">
            <tspan id="text21" x="787.7749" y="748.6543"
                   style="font-style:normal;font-variant:normal;font-weight:normal;font-stretch:normal;font-size:90px;line-height:125%;font-family:Ewert;-inkscape-font-specification:'Ewert, Normal';text-align:center;letter-spacing:0px;word-spacing:0px;writing-mode:lr-tb;text-anchor:middle;fill:#008080;fill-opacity:1;stroke:none;stroke-width:1px;stroke-linecap:butt;stroke-linejoin:miter;stroke-opacity:1">
                JITDIY.COM
            </tspan>
        </text>
    </g>
</svg>
 

