<?xml version="1.0" encoding="UTF-8" standalone="no"?>
 <svg xmlns:dc="http://purl.org/dc/elements/1.1/" xmlns:cc="http://creativecommons.org/ns#" xmlns:rdf="http://www.w3.org/1999/02/22-rdf-syntax-ns#" xmlns:svg="http://www.w3.org/2000/svg" xmlns="http://www.w3.org/2000/svg" xmlns:xlink="http://www.w3.org/1999/xlink" version="1.1" viewBox="0 0 1600 1000" height="1000" width="1600" id="svg1682">
 <metadata id="metadata10">
 <rdf:RDF>
 <cc:Work rdf:about="">
 <dc:format>image/svg+xml</dc:format>
 <dc:type rdf:resource="http://purl.org/dc/dcmitype/StillImage"/>
 <dc:title></dc:title>
 </cc:Work>
 </rdf:RDF>
 </metadata>
 <defs id="defs8">
 <clipPath id="clipPath4158" clipPathUnits="userSpaceOnUse">
 <path d="M 1245.418,495.77274 A 449.96347,312.09985 0 0 1 795.47416,807.87259 449.96347,312.09985 0 0 1 345.49106,495.79997 449.96347,312.09985 0 0 1 795.39564,183.67288 449.96347,312.09985 0 0 1 1245.418,495.71827" id="path4160" style="opacity:1;fill:none;fill-opacity:1;stroke:#fd1d00;stroke-width:2;stroke-linecap:butt;stroke-linejoin:miter;stroke-miterlimit:4;stroke-dasharray:none;stroke-dashoffset:0;stroke-opacity:0.11671926"/>
 </clipPath>
 <clipPath id="clipPath4145" clipPathUnits="userSpaceOnUse">
 <path d="M 1222.0339,496.61017 A 411.01694,276.27118 0 0 1 812.06611,772.88045 411.01694,276.27118 0 0 1 400.00539,498.02056 411.01694,276.27118 0 0 1 807.86957,220.34709 411.01694,276.27118 0 0 1 1222.0125,493.78943" id="path4147" style="opacity:1;fill:none;fill-opacity:1;stroke:#ffffff;stroke-width:2.21399999;stroke-linecap:butt;stroke-linejoin:miter;stroke-miterlimit:4;stroke-dasharray:none;stroke-dashoffset:0;stroke-opacity:1"/>
 </clipPath>
 <clipPath id="clipPath4152" clipPathUnits="userSpaceOnUse">
 <path id="jd_bd" d="m 343.63635,177.54546 898.18185,0 0,628.54547 -898.18185,0 z" style="opacity:1;fill:none;fill-opacity:1;stroke:#ffffff;stroke-width:2.21399999;stroke-linecap:butt;stroke-linejoin:miter;stroke-miterlimit:4;stroke-dasharray:none;stroke-dashoffset:0;stroke-opacity:1"/>
 </clipPath>
 </defs>
 <image xlink:href="/designs/templates/002001201-2.jpg" y="0" x="0" id="jd_bg" height="1000" width="1600"/>
 <g clip-path="url(#clipPath4152)" id="jd_nt">
 <g clip-path="url(#clipPath4145)" id="cp-layer">
 <svg id="svg10" preserveAspectRatio="xMidYMid meet" height="628.54547" width="898.18182" y="177.54546" x="343.63635" viewBox="0 0 898.18182 628.54547" version="1.1">
 <image xlink:href="/designs/templates/sample5.jpg" id="image21" height="628.54547" width="898.18182" style="fill:none;stroke:none"/>
 </svg>
 </g>
 </g>
 </svg>
 

