<?xml version="1.0" encoding="utf-8"?>
<svg xmlns:dc="http://purl.org/dc/elements/1.1/" xmlns:cc="http://creativecommons.org/ns#" xmlns:rdf="http://www.w3.org/1999/02/22-rdf-syntax-ns#" xmlns:svg="http://www.w3.org/2000/svg" xmlns="http://www.w3.org/2000/svg" xmlns:xlink="http://www.w3.org/1999/xlink" version="1.1" x="0px" y="0px" width="1600px" height="1000px" viewBox="0 0 1600 1000" enable-background="new 0 0 1600 1000" xml:space="preserve" id="svg2">
  <metadata id="metadata56">
    <rdf:RDF>
      <cc:Work rdf:about="">
        <dc:format>
          image/svg+xml
        </dc:format>
        <dc:type rdf:resource="http://purl.org/dc/dcmitype/StillImage">
        </dc:type>
        <dc:title>
        </dc:title>
      </cc:Work>
    </rdf:RDF>
  </metadata>
  <defs id="defs54">
    <clipPath id="clipPath4165" clipPathUnits="userSpaceOnUse">
      <path id="jd_bd" d="m 370.99167,300.22525 828.62203,0 0,568.70587 -828.62203,0 z" style="opacity:1;fill:none;fill-opacity:1;fill-rule:nonzero;stroke:#ffc300;stroke-width:2.20000005;stroke-linecap:butt;stroke-linejoin:miter;stroke-miterlimit:4;stroke-dasharray:none;stroke-dashoffset:0;stroke-opacity:1">
      </path>
    </clipPath>
  </defs>
  <image xlink:href="/designs/templates/002000101-0.jpg" overflow="visible" enable-background="new    " width="600" height="400" id="jd_bg" transform="matrix(2.6667 0 0 2.5 2.441406e-004 -2.441406e-004)">
  </image>
  <g clip-path="url(#clipPath4165)" id="jd_nt">
    <g id="graphic">
      <g id="g8">
        <path fill="#6D5554" d="M542.9,769.6c-1.3-0.6-3.3-2.4-3.3-2.4c0.7-2.2-3.8-3.9-3.8-3.9c-2.1-3-12.6-1.5-12.6-1.5    c-2.7-0.1-6.9,4.9-6.9,4.9c-1.4,0-2.2,1.4-2.2,1.4l-0.8-0.6l-3.5,0.5l-0.4,1.1c-1.8-1.4-8.1,1.5-8.1,1.5c-3.4,1.2-9.9-0.9-9.9-0.9    c-4.5-2.3-8.7-2-8.7-2c-4.5,0.1-12.7-2.2-12.7-2.2c-38.9-11.2-50.2,5.9-50.2,5.9c-13.2,1.3-17.7,17-17.7,17    c-3.8,8.1-13.2,9.9-13.2,9.9c-8.4,0.8-7.4-9.8-7.4-9.8c-7.8,13,7.5,13.5,7.5,13.5c11.6,0.2,21.2-17.6,21.2-17.6    c1.4-4.2,6.3-5.7,6.3-5.7c-2.3,16.7,11.2,19,11.2,19c2.7,1.9,1.2,4,1.2,4c-1.5,1.5-9.3,3.9-9.3,3.9c-4.6,0.4-3.6,6.1-3.6,8.4    c0,2.3-0.9,7.8-0.7,10.7c0.2,2.9-0.8,2.5,0.2,9.7c1,7.1,6.5,1.7,6.5,1.7s1.1-4.6-0.6-6.5c-1.7-1.9-0.6-9-0.6-9    c-0.2-7.6,11.2-10,11.2-10s0.4,4.6-0.5,6.7c-0.9,2.1,0.6,3.8,2.9,5.1c2.3,1.3,5,4,5,3.8c0-0.2,9.2,9.3,9.2,9.3    c1.2,5.5,6.5,4.6,6.9,3.8c0,0-0.4-5.7-2.5-6.9c-2.1-1.3-7.7-8-9.2-10.8c-1.5-2.7,4.7-11.7,4.7-11.7c3.8-8.4,0.9-15.3,0.9-15.3    c0.6,0.4,4.2,0.9,6.3,1.1c2.1,0.2,8.4,7,10.5,9.3c2.1,2.3,1.7,5.9,1.4,8.2c-0.2,2.3-1.3,3.8-2.3,6.3s-3,9.9-5.1,13.8    c-2.1,4-1.5,7.8-1.5,9.4c0,1.7,2.7,9,2.7,9c1,4.2,10.7,2.8,10.7,2.8c5.7-5-7.1-6.8-7.1-6.8c-1.1-1.2-0.5-2.9,0.3-4.7    c4.3,0.2,15.9-4.2,15.9-4.2c2.7-1.7,1.7-6.1,1.7-6.1c-1.5-3.4,0.7-19.1,0.7-19.1c-0.2-2.3,6.1-2.9,6.1-2.9    c4.4,0.9,15.8-11.9,15.8-11.9c6.1,0.2,8.9-6.7,8.9-6.7l1.3,1.7c0,0,5.1-1.9,7.2-2.5c2.1-0.6,2.1-2.5,3.2-3.3c1.1-0.8,2.5-1,4-0.8    c1.5,0.2,2.1,0.2,5.7,0.9c3.6,0.6,10.1-1.2,10.1-1.2c3.4-2.7,1.1-6.1,1.1-6.1c3.8-0.8,6.2-6.3,6.2-6.3    C554.6,767.9,544.2,770.2,542.9,769.6z M473.7,835.3c-0.8-1.3-2.1,1-4.6,0c-0.5-0.2-1-0.3-1.6-0.2c1.5-4.2,5.9-9.9,5.9-9.9    S474.5,836.6,473.7,835.3z" id="path10">
        </path>
        <path fill="#6D5554" d="M761.1,763.5l-8.4-1.5c-3.7-9.3-17.6-5.5-17.6-5.5c-8.8-2.8-6.1,4-6.1,4l-2.8,2.6    c-0.1-0.2-0.3-0.4-0.5-0.7c-1.3-1.7-6.1,3.5-6.1,3.5s-2.1,0.8-4.4,1.4c-2.3,0.6-10.5,1.2-12.2,0.8c-1.7-0.4-4.2-1.1-8-1.5    c-3.8-0.4-10.7-0.9-10.7-0.9c-36.7-9.8-50.5,9.6-50.5,9.6c-7.1,0.4-15,8.8-20,17.3c-5.1,8.6-14.1,9-14.1,9    c-6.1,0.2-10.5-10.6-10.5-10.6c-2.5-4.6-2.3-2.1-2.3-2.1c0.8,16.4,12.3,16.4,12.3,16.4c5,1.5,14.7-4.3,21.9-14    c7.2-9.6,10.3-8.1,10.3-8.1c-0.1,15.8,13,14.1,17.4,15c4.4,0.9,5.9,1.1,7.5,5.1c1.7,4-0.1,12.6-1.7,15.1c-1.7,2.5-1.3,4-0.2,5.9    c1,1.9,3.5,5.1,4.4,8.8c0.8,3.8,4.8,6.7,6.3,8.4c1.5,1.7,4.6,2.3,7.1,3.4c2.5,1.1,3.4-1,2.5-3.6c-0.4-1.3-1.7-2.3-3.1-3.4    c0.2,0,0.4,0,0.6,0c1.9,0.2,3.7-0.4,5.4-1.2c4.6,1.2,13.1,4.4,13.1,4.4c8,3,8.4-2.7,8.4-2.7c0.2-2.9-9.4-3-12-4    c-1.1-0.5-2.3-1.7-3.4-3.1c0.1-0.1,0.2-0.2,0.2-0.3c1.9-2.5,9.1-13.4,12-16.8c3-3.4,6.1,2.5,6.1,2.5s15.7,11.4,15.9,12.7    c0.2,1.3,0,1.7-1.7,5c-1.7,3.4-1.3,1.3-3.2,4.2c-1.9,2.9,2.7,5.3,5.4,3.6c2.7-1.7,3.2-8,5.5-11.5c2.3-3.6,1.9-2.3,0.7-5.7    c-1.2-3.4-12.1-14.8-12.1-14.8c-1.9-2.7,1.5-4.4,1.5-4.4c5.1-2.3,10.4-13.4,10.8-15.5c0.4-2.1,2.5-2.5,2.5-2.5l1,1.3l7.6-3.3    c0,0-1-2.3-0.4-1.9c0.6,0.4,6.3-1,8.2-1.4c1.9-0.4,7.8,0.2,7.8,0.2c4,1.1,6.3-0.6,6.7-3.1c0.4-2.5-0.4-2.9-2.9-5.1    c-2.5-2.1-2.3-3-2.3-3c11.3,1.9,10.3-4.4,10.3-4.4C765.3,762.6,761.1,763.5,761.1,763.5z M665.6,832.1c-1.3-2.8-2.2-6.5-2.5-8.2    c-0.4-2.3,2.6-12.6,2.6-12.6c-0.6,2.9,5,13,5.8,16.4c0.4,1.5,0.5,3.2,0.9,4.7C670.5,833,667.6,832.6,665.6,832.1z M680.4,820.9    c-0.2,1.3-0.6,2.6-1.2,3.8c-0.9-1.8-1.9-4.1-3-6.3c-1.7-3.4-1.6-18.1-1.6-18.1c0.6,1.5,10.3,8.2,10.3,8.2    C684,809.8,681.2,816.3,680.4,820.9z" id="path12">
        </path>
        <path fill="#6D5554" d="M834,786.9c0,0-9.5-1.1-16.6,6.9c-7.2,8-13.3,12.5-16.2,13c-2.9,0.4-13.9,3.3-14.7-8.7    c0,0-0.8-4.2,1.3-0.6c0,0,2.7,4.4,5.2,5.5c2.5,1.1,5.7,0.7,8.8-1.2c3.2-1.9,8.4-7.9,12-11.9c3.6-4,12.9-9.6,21.5-9.8    c0,0,10.2-18.4,49.8-11.1c0,0,7.8,0.5,12.6-0.2c4.8-0.6,7.6,1.5,11.6,0.5c4-1,10.9-3.5,11.6-3.3c0.6,0.2,0.6,0.2,0.6,0.2l0.2-1.7    l5.1-2.9l1.5,0c0,0-4.4-7.8-1.2-8.6c0,0,4.6,1.7,8.6,1.9c0,0,17.7-3.7,23.3,7.2c0,0,6.5-0.8,8,1.5c0,0,2.7,4.4,0,5.9    c-2.7,1.5-4,3.1-9.3,2.9c0,0,5.2,4.4,4.6,7.2c-0.6,2.7-2.7,4.8-10.9,3.7c0,0-8.6,0.4-9.5,0.8l0,1l-7.2,2.1l-1.3-1    c0,0-1.9,1.9-2.1,6.9c-0.2,5-1.7,12-3.4,14.7c0,0-0.8,1.7,1.7,3.4c0,0,15.1,8.7,17.6,11.4c2.5,2.7,4.6,5.1,8,7.4    c3.4,2.3,4.4,4,5.9,4.4c1.5,0.4,3.8,4.2,0.2,4.4c0,0-4.6,0.6-7.1-2.3c-2.5-3-3.8-1.7-6.1-4.6c-2.3-2.9-3.5-4.8-7.7-6.1    c-4.2-1.3-24.5-7.7-26-9.4c0,0,1.8,9.5,0.2,11.8c-1.7,2.3-5.1,4.4-6.5,5.4c-1.5,1-5.9,2.9-7.6,3.5c-1.7,0.6-6.5,1.2-7.1-0.9    c-0.6-2.1-2.7-4.6,1.3-5.5c4-0.8,5.3-0.6,8-1.2c2.7-0.6,4.4-1.7,4.4-2.9c0-1.3-4.2-6.1-5-8.6c-0.8-2.5-0.2-4.4-0.2-4.4    s-9-2.8-12.2-4.7c-3.1-1.9-17-8.3-15.1-4.3c0,0,5.2,17.9,7.5,20.8c2.3,3,3.5,7.8,7.5,10.5c0,0,9.4,3.2,11.8,3.4    c2.3,0.2,1.9,5.3-3.2,5c0,0-4.8,0.2-8.4-1.9c-3.6-2.1-7.7-5.5-10.3-7.4c-2.5-1.9-4.2-2.3-5.4-4.4c-1.3-2.1-0.8-3.4-3.3-6.3    c-2.5-2.9-5.2-8.6-7.1-8.6c0,0-4.7,14.7-6.2,18.2c-1.5,3.6-3.2,6.7-0.9,9.2c2.3,2.5,5.2,4.9,6.7,5.9c1.5,1.1,7.6,1.7,7.3,4    c-0.2,2.3,0.6,3.6-3,2.7c-3.6-0.9-7.1-1.1-8.2-2.3c-1-1.3-4.2-4.2-6.7-6.3c-2.5-2.1-5-3.2-5.2-4.6c-0.2-1.5,0.2-3.6,0.9-7.4    c0.6-3.8,2.8-13.4,0.3-18.9c-2.5-5.5-6.9-8.6-6.9-9.7C841.4,806.5,830.3,799.1,834,786.9z" id="path14">
        </path>
        <path fill="#6D5554" d="M1180.1,835.7c-3.6-0.9-7.1-3-10.7-6.1c-3.6-3.2-7.1-6.8-10.9-10.6c-3.8-3.8-10.7-12.6-11.9-15    c-1.2-2.3-0.8-7.8-1.4-10.9c-0.6-3.2,0.2-3.1,0.2-3.1l1.3,0.6l4.4-2.7l0.6-1.7c0,0,1.7-0.4,3.8-1.7c2.1-1.3,3.4-1,5.7,0.4    c2.3,1.5,5.9,3.2,9.2,0.5c3.4-2.7-4-5.7-6.3-6.5c-2.3-0.8,1.3-2.3,7.1-1.6c5.9,0.7,7.2-4,7.2-4c2.5-4-3.3-4.2-3.3-4.2    c-2.3-0.9-7.3-3.8-7.3-3.8c-2.7-9.7-16.3-8.3-16.3-8.3c-3.8-3.4-8.8-6.1-12.7-4.9c-3.9,1.2,0,9.7,0,9.7l-2.9,0.4l-1-1.3l-4.8,3.1    l-0.2,1.7c-1.7-1.5-7.4,2.1-11.6,3.7c-4.2,1.7-14.1,2.7-19.1,3.7c-5,1-31.7-0.4-31.7-0.4c-12.6-1.1-24.6,8.5-24.6,8.5s0,0-4.4,0    c-4.4,0-12,4.8-16.2,9c-4.2,4.2-9.7,8.2-13.3,9.8c-3.6,1.7-6.3,2.1-10.9,1.6c-4.6-0.4-5.7-2.1-5.7-2.1c-6.7,0,3.3,5.9,3.3,5.9    c16,4.3,28.8-10.4,28.8-10.4c5.3-5.2,13.9-6.5,13.9-6.5c-7.8,3.7-4.3,21.8-4.1,25.6c0.2,3.8-4,8.8-6.6,11.1    c-2.5,2.3-6.3,4.8-9.7,7.1c-3.4,2.3-1.1,3.6-0.2,6.1c0.8,2.5,0.6,5.3,1,9.7c0.4,4.4,0.4,3.8,1.7,4.6c1.3,0.8,1.3,1.1,4.6,1.7    c3.4,0.7,5.2,1.3,5.7-1.7c0.4-2.9-4-1.3-5.9-2.6c-1.9-1.3-1-3.2-1.4-4.4s0.2-4.6,0.4-6.3c0.2-1.7,9.1-7.1,9.1-7.1s7.4-5,9.9-6.5    c2.5-1.5,7.6-7.5,7.6-7.5s1.3,1.5,3.3,6.1c2.1,4.6-1.3,13-2.2,15.7c-0.9,2.7,0.2,5,2.3,7.2c2.1,2.1,5.2,5.1,7.3,7    c2.1,1.9,1.9,1.5,3.8,1.9c1.9,0.4,3.4,1.1,6.5,1.7c3.2,0.6,4.2,0.6,5.3-2.3c1.1-2.9-1.9-2.1-3.8-2.1c-1.9,0-7.1-3-9-4    c-1.9-1.1-2.1-3.2-2.9-6.5c-0.8-3.4,0.7-6.1,1.9-10.1c1.3-4,6.8-15.9,7-18.7c0.2-2.7-1-11.1-1-11.1c2.3-0.2,21.8,4.7,25,7    c2.9,2.2,25,1.1,27.9,1c0.1,0.1,0.2,0.4,0.5,0.8c1,1.5,6.7,4.2,10.9,5.1c4.2,0.9,8.4,2.8,10.3,5.1c1.9,2.3,2.9,4.6,2.9,8.4    c0,3.8,0,5.7,3.5,7.6s5.3-0.6,6.1-1.4c0.8-0.8-0.4-1.9-2.1-3.6c-1.7-1.7-0.6-5-0.6-5s7.3,3,9.6,4.5c2.3,1.5,10.5,5.5,13,7.2    c2.5,1.7,3.1,4.4,7.8,0.7C1188.3,836.8,1183.7,836.6,1180.1,835.7z" id="path16">
        </path>
      </g>
      <g id="g18">
        <path fill="#5F4A48" d="M1047.5,360c-14.6-34.1-40-39-73.1-36.1c-33.1,2.9-48.7,35.1-48.7,35.1l-10.7-1.9l-24.4,15.6    c0,0,0,0-11.7,5.8c-11.7,5.9-46.8,3.9-96.5-4.9c-49.7-8.8-110.1-15.6-110.1-15.6c-86.7-6.8-116.9,52.6-116.9,52.6    c-22.4,2.9-35.1,8.8-52.6,28.3c-17.5,19.5-19.5,29.2-34.1,55.6c-14.6,26.3-42.9,16.6-42.9,16.6c-20.5-9.7-18.5-46.8-18.5-46.8    c-2.9-25.3-9.7,2.9-9.7,2.9c-14.6,44.8,19.5,60.4,29.2,63.3c9.7,2.9,55.5-3.9,70.2-39c14.6-35.1,54.6-53.6,54.6-53.6    c-15.6,53.6,38,82.8,68.2,89.7c30.2,6.8-9.8,40-9.8,40c-13.6,13.6,27.3,64.3,27.3,64.3s42.9,31.2,37,38    c-5.9,6.8-25.3,36.1-15.6,42.9c9.7,6.8,20.5,12.7,29.2,2c8.8-10.7-2-13.6,2-21.4c3.9-7.8,28.3-24.4,28.3-24.4s26.3,22.4,35.1,23.4    c8.8,1,32.2,3.9,34.1-6.8c2-10.7-4.9-13.6-19.5-13.6c-14.6,0-29.2-15.6-29.2-15.6c3.9-1.9,76-78,76-78c6.8-1,34.1,67.2,34.1,67.2    s7.8-3.9,0,3.9c-7.8,7.8-6.8,5.9-34.1,5.9c-27.3,0-15.6,36,9.7,26.3c25.3-9.7,56.5-32.2,56.5-32.2c10.7-15.6-13.6-83.8-15.6-93.6    c-1.9-9.7,14.6-19.5,14.6-19.5c27.3,0,61.4-70.2,61.4-70.2l15.6,2.9l20.5-13.6l2.9-10.7c7.8-2.9,59.5-12.7,74.1-15.6    c14.6-2.9,14.6-17.5,14.6-17.5c11.7-2,12.7-26.3,12.7-26.3C1090.4,361.9,1047.5,360,1047.5,360z M651.9,598.7    c-15.6-17.5,12.7-34.1,12.7-34.1c-3.9,7.8,9.7,60.4,9.7,60.4S667.5,616.3,651.9,598.7z M716.2,623.1    c-16.6-17.5-3.9-104.3-3.9-104.3c1-16.6,57.5,35.1,57.5,35.1C759.1,584.1,716.2,623.1,716.2,623.1z" id="path20">
        </path>
        <g id="g22">
          <defs id="defs24">
            <path id="SVGID_1_" d="M1052.2,359.7c-14.7-34.4-40.2-39.3-73.6-36.3c-33.4,2.9-49.1,35.3-49.1,35.3l-10.8-2l-24.5,15.7      c0,0,0,0-11.8,5.9c-11.8,5.9-47.1,3.9-97.2-4.9c-50.1-8.8-110.9-15.7-110.9-15.7c-87.4-6.9-117.8,53-117.8,53      c-22.6,2.9-35.3,8.8-53,28.5c-17.7,19.6-19.6,29.4-34.3,56c-14.7,26.5-43.2,16.7-43.2,16.7c-20.6-9.8-18.7-47.1-18.7-47.1      c-2.9-25.5-9.8,2.9-9.8,2.9c-14.7,45.2,19.6,60.8,29.4,63.8c9.8,2.9,55.9-3.9,70.7-39.3c14.7-35.3,55-54,55-54      c-15.7,54,38.3,83.4,68.7,90.3c30.4,6.9-9.8,40.2-9.8,40.2c-13.7,13.7,27.5,64.8,27.5,64.8s43.2,31.4,37.3,38.3      c-5.9,6.9-25.5,36.3-15.7,43.2c9.8,6.9,20.6,12.8,29.5,2c8.8-10.8-2-13.7,2-21.6c3.9-7.8,28.5-24.5,28.5-24.5      s26.5,22.6,35.3,23.6c8.8,1,32.4,3.9,34.3-6.9c2-10.8-4.9-13.7-19.6-13.7c-14.7,0-29.4-15.7-29.4-15.7      c3.9-2,76.6-78.5,76.6-78.5c6.9-1,34.3,67.7,34.3,67.7s7.9-3.9,0,3.9c-7.8,7.8-6.9,5.9-34.3,5.9c-27.5,0-15.7,36.3,9.8,26.5      c25.5-9.8,56.9-32.4,56.9-32.4c10.8-15.7-13.7-84.4-15.7-94.2c-2-9.8,14.7-19.6,14.7-19.6c27.5,0,61.8-70.7,61.8-70.7l15.7,3      l20.6-13.7l2.9-10.8c7.9-2.9,59.9-12.8,74.6-15.7c14.7-2.9,14.7-17.7,14.7-17.7c11.8-2,12.8-26.5,12.8-26.5      C1095.4,361.7,1052.2,359.7,1052.2,359.7z M653.7,600.2c-15.7-17.7,12.8-34.3,12.8-34.3c-3.9,7.8,9.8,60.8,9.8,60.8      S669.4,617.9,653.7,600.2z M718.5,624.7c-16.7-17.7-3.9-105-3.9-105c1-16.7,57.9,35.3,57.9,35.3      C761.7,585.5,718.5,624.7,718.5,624.7z">
            </path>
          </defs>
          <use xlink:href="#SVGID_1_" overflow="visible" fill="#6D5554" id="use27">
          </use>
          <clipPath id="SVGID_2_">
            <use xlink:href="#SVGID_1_" overflow="visible" id="use30">
            </use>
          </clipPath>
          <g clip-path="url(#SVGID_2_)" id="g32">
            <defs id="defs34">
              <rect id="SVGID_3_" x="49.9" y="156.2" width="1421.4" height="696.2">
              </rect>
            </defs>
            <clipPath id="SVGID_4_">
              <use xlink:href="#SVGID_3_" overflow="visible" id="use38">
              </use>
            </clipPath>
            <g transform="matrix(1 0 0 1 3.814697e-006 0)" opacity="0.75" clip-path="url(#SVGID_4_)" id="g40">
              <svg id="svg27" preserveAspectRatio="xMidYMid meet" height="890" width="1817" y="undefined" x="undefined" viewBox="0 0 1817 890" version="1.1">
                <image xlink:href="/designs/templates/31A5658D.png" overflow="visible" width="1817" height="890" transform="matrix(0.7823,0,0,0.7823,49.9426,156.156)" id="image42" style="overflow:visible">
                </image>
              </svg>
            </g>
          </g>
          <g clip-path="url(#SVGID_2_)" id="g44">
            <path fill="#FFFFFF" d="M668.7,565.5c0,0-28.5,16.7-12.8,34.3c15.7,17.7,22.6,26.5,22.6,26.5S664.8,573.4,668.7,565.5z" id="path46">
            </path>
            <path fill="#FFFFFF" d="M716.8,519.4c0,0-12.8,87.4,3.9,105c0,0,43.2-39.3,54-69.7C774.7,554.7,717.8,502.7,716.8,519.4z" id="path48">
            </path>
            <path fill="#FFFFFF" d="M52.3,158.5V826h1393.1V158.5H52.3z M1088.8,384.9c0,0-1,24.5-12.8,26.5c0,0,0,14.7-14.7,17.7      c-14.7,2.9-66.7,12.8-74.6,15.7l-2.9,10.8l-20.6,13.7l-15.7-3c0,0-34.4,70.7-61.8,70.7c0,0-16.7,9.8-14.7,19.6      c2,9.8,26.5,78.5,15.7,94.2c0,0-31.4,22.6-56.9,32.4c-25.5,9.8-37.3-26.5-9.8-26.5c27.5,0,26.5,2,34.4-5.9c7.9-7.9,0-3.9,0-3.9      s-27.5-68.7-34.4-67.7c0,0-72.6,76.6-76.6,78.5c0,0,14.7,15.7,29.4,15.7c14.7,0,21.6,2.9,19.6,13.7c-2,10.8-25.5,7.8-34.3,6.9      c-8.8-1-35.3-23.6-35.3-23.6s-24.5,16.7-28.5,24.5c-3.9,7.9,6.9,10.8-2,21.6c-8.8,10.8-19.6,4.9-29.4-2      c-9.8-6.9,9.8-36.3,15.7-43.2c5.9-6.9-37.3-38.3-37.3-38.3s-41.2-51-27.5-64.8c0,0,40.2-33.4,9.8-40.2      c-30.4-6.9-84.4-36.3-68.7-90.3c0,0-40.2,18.7-55,54c-14.7,35.3-60.8,42.2-70.7,39.3c-9.8-2.9-44.2-18.6-29.4-63.8      c0,0,6.9-28.5,9.8-2.9c0,0-2,37.3,18.7,47.1c0,0,28.5,9.8,43.2-16.7c14.7-26.5,16.7-36.3,34.3-55.9c17.7-19.6,30.4-25.5,53-28.5      c0,0,30.4-59.9,117.8-53c0,0,60.8,6.9,110.9,15.7c50.1,8.8,85.4,10.8,97.2,4.9c11.8-5.9,11.8-5.9,11.8-5.9l24.5-15.7l10.8,2      c0,0,15.7-32.4,49.1-35.3c33.4-2.9,58.9,2,73.6,36.3C1054.4,359.4,1097.6,361.4,1088.8,384.9z" id="path50">
            </path>
          </g>
        </g>
      </g>
    </g>
  </g>
</svg>