<?xml version="1.0" encoding="utf-8"?>
<?xml-stylesheet type="text/css" href="https://fonts.googleapis.com/css?family=Yesteryear"?>
<svg xmlns:dc="http://purl.org/dc/elements/1.1/" xmlns:cc="http://creativecommons.org/ns#" xmlns:rdf="http://www.w3.org/1999/02/22-rdf-syntax-ns#" xmlns:svg="http://www.w3.org/2000/svg" xmlns="http://www.w3.org/2000/svg" xmlns:xlink="http://www.w3.org/1999/xlink" id="svg1682" width="1600" height="1000" viewBox="0 0 1600 1000" version="1.1">
  <metadata id="metadata10">
    <rdf:RDF>
      <cc:Work rdf:about="">
        <dc:format>
          image/svg+xml
        </dc:format>
        <dc:type rdf:resource="http://purl.org/dc/dcmitype/StillImage">
        </dc:type>
        <dc:title>
        </dc:title>
      </cc:Work>
    </rdf:RDF>
  </metadata>
  <defs id="defs8">
    <clipPath id="clipPath4158" clipPathUnits="userSpaceOnUse">
      <path id="jd_bd" d="m 483.33334,513.88892 724.99996,0 0,350 -724.99996,0 z" style="opacity:1;fill:none;fill-opacity:1;fill-rule:nonzero;stroke:#ffc300;stroke-width:2.20000005;stroke-linecap:butt;stroke-linejoin:miter;stroke-miterlimit:4;stroke-dasharray:none;stroke-dashoffset:0;stroke-opacity:1">
      </path>
    </clipPath>
  </defs>
  <image xlink:href="/designs/templates/002000501-2.jpg" y="0" x="0" id="jd_bg" height="1000" width="1600">
  </image>
  <g clip-path="url(#clipPath4158)" id="jd_nt">
    <g transform="matrix(0.90482568,0,0,0.90482568,643.87879,419.16426)" id="g3" style="fill:#6c5353">
      <g id="g5" style="fill:#6c5353">
        <path style="fill:#6c5353" d="m 512.888,181.375 -2.068,0 c 9.66,4.828 16.564,10.352 22.769,17.94 6.9,8.969 11.043,19.32 13.8,31.74 2.069,9.661 2.069,18.629 2.069,27.601 -1.377,-14.488 -4.826,-28.98 -9.657,-44.16 l 0,-0.692 c -1.38,-3.452 -2.763,-6.209 -5.52,-8.969 -19.324,-27.601 -48.297,-40.021 -84.181,-37.26 -6.9,2.76 -14.495,6.209 -21.395,9.66 -4.825,2.76 -7.585,4.832 -9.657,8.28 -5.517,2.069 -9.661,5.52 -13.112,9.661 -4.832,2.76 -9.657,6.9 -13.8,11.728 -3.452,3.449 -4.832,6.9 -6.205,10.352 -3.452,-14.489 -12.427,-26.221 -27.601,-36.573 -0.695,0 -0.695,0 -1.383,0 0,0 0,0 -0.692,0 -12.421,-6.9 -26.221,-10.348 -43.472,-9.657 -13.8,1.377 -26.218,4.14 -38.638,9.657 -15.869,2.76 -27.601,11.732 -35.196,25.532 -3.449,4.137 -5.517,8.968 -6.205,13.8 0,0.688 0,1.38 -0.694,2.76 -4.826,7.592 -8.274,17.252 -9.654,27.6 -4.146,24.152 0.685,44.853 13.8,62.102 0.685,1.38 1.38,3.451 2.068,4.828 -0.689,-1.377 -2.763,-3.449 -4.137,-4.828 l 0,0 c 1.373,3.451 3.448,6.9 6.205,11.043 0.695,2.069 1.38,3.449 2.763,5.517 0,0 0.685,0 0.685,-0.691 1.384,2.76 3.452,4.832 5.52,7.592 0.695,2.76 1.38,6.209 2.763,8.969 2.068,0.691 4.137,2.072 6.212,3.451 13.105,15.181 27.601,27.601 44.158,36.573 -4.137,-2.76 -8.283,-6.209 -13.106,-9.661 9.654,6.9 19.317,13.8 29.669,20.009 -2.068,-0.689 -2.763,-0.689 -3.451,-0.689 0.689,0.689 1.383,2.069 1.383,2.76 2.068,0 3.449,0 5.517,0 4.832,2.757 9.657,6.209 14.489,8.28 14.495,11.729 26.22,24.841 35.196,40.021 1.374,0.689 2.068,1.38 2.754,2.072 0.695,0.685 2.071,2.068 3.452,3.448 0,0 0,0 0.694,0 0,1.38 0,2.069 0.689,2.76 0,0.692 0,1.377 0,2.069 0,2.76 0.685,3.451 2.76,2.76 l 0,0.691 c 2.068,0.689 3.452,1.38 4.825,2.072 1.38,-2.763 1.38,-6.215 1.38,-8.972 -1.38,-8.28 0,-15.181 4.146,-20.7 0.689,1.38 2.757,2.757 3.449,4.832 0.689,-3.452 0,-5.523 -1.38,-8.283 0,0 0,0 0.688,-0.692 13.112,-13.8 28.292,-24.149 45.544,-29.669 -3.451,0.692 -6.9,1.383 -9.663,1.383 0.689,0 1.383,-0.691 2.068,-0.691 l 2.763,-2.072 c 8.28,-4.829 17.249,-8.969 25.532,-13.109 2.068,1.38 4.825,1.38 6.9,0 7.589,-2.76 13.8,-6.211 20.006,-9.66 6.212,-3.452 11.732,-7.592 16.564,-12.421 4.832,-2.763 9.657,-4.832 13.8,-7.592 1.38,-3.449 2.757,-6.209 4.832,-8.971 -0.695,-0.685 -0.695,-1.377 -0.695,-2.069 -0.685,-0.691 -0.685,-1.38 -0.685,-2.068 0,-0.692 0.685,-1.38 1.38,-2.072 8.274,-11.729 14.489,-23.461 19.32,-35.881 0.685,-1.38 1.38,-2.76 1.38,-4.14 3.449,-8.972 5.52,-17.941 6.9,-26.909 6.9,-30.363 2.068,-54.512 -16.564,-73.141 -1.38,-2.075 -4.137,-4.832 -5.517,-6.9 -1.383,0 -2.068,0 -1.383,0.689 -4.832,-4.14 -9.664,-7.589 -15.181,-11.04 z m -38.637,12.42 c -0.694,0 -1.383,0 -2.068,0 l -0.695,0 c -2.757,-0.692 -4.832,-2.068 -7.588,-3.451 2.757,0 4.832,0.691 8.283,0.691 10.349,1.38 17.249,6.209 20.697,14.492 1.377,-0.692 2.069,-0.692 2.757,-1.384 0,0 0.694,-0.688 0.694,-1.376 0,0 0,-0.692 -0.694,-1.384 0,-1.38 -0.689,-2.757 -0.689,-3.448 11.731,10.348 24.152,19.32 37.257,26.22 0.695,2.76 2.075,6.9 2.763,11.04 -0.689,-1.38 -1.38,-2.76 -2.068,-4.14 l 0,0 c 0.689,2.76 1.38,5.52 2.757,8.28 0.694,5.52 1.38,11.732 0.694,17.941 0,0 -1.383,0.692 -2.072,1.38 0,0 0,0 0,0.689 -24.844,-21.389 -48.993,-43.469 -73.145,-65.55 0,0 0,0 -0.685,0 -1.383,0.689 -2.072,2.072 -2.763,2.757 0,0 0.692,0.692 0.692,1.384 21.389,22.768 44.853,44.16 71.073,62.792 1.38,0.689 2.753,0.689 4.137,0.689 0,0.689 0,0.689 -0.689,1.38 0,0 0,0.691 0,1.38 0.689,0 1.38,0 1.38,-0.689 0.689,0 2.072,-0.691 2.072,-1.383 0,0 0,0 0.685,0 0,-0.689 0.695,-0.689 0.695,-1.377 0,2.76 -0.695,5.517 -0.695,8.278 -0.685,3.451 -1.38,6.211 -2.757,9.663 -24.844,-25.532 -51.061,-48.993 -78.661,-72.453 -2.072,0 -2.072,0 -0.689,0.688 24.837,26.912 51.749,52.441 78.659,77.974 -0.689,2.068 -1.384,5.52 -2.069,8.28 -33.121,-26.912 -66.241,-54.513 -97.29,-82.805 l -0.695,0 c -1.38,0 -2.068,0.692 -2.757,1.384 0,0 0,0 0,0.691 0,0.689 0,0.689 0.689,1.377 28.984,29.672 60.721,56.584 95.917,81.425 0.685,0 2.068,0.691 2.754,0.691 0,2.757 -0.685,4.826 -1.38,6.209 -3.451,8.277 -6.9,15.869 -10.352,24.149 0.695,0 1.384,0 2.075,0 -0.691,0 -0.691,0.692 -1.38,0.692 -0.695,1.377 -2.068,2.76 -2.763,4.828 -4.137,5.523 -8.969,10.349 -13.8,14.492 -40.706,-21.392 -77.97,-49.684 -109.707,-84.185 -0.694,0 -1.383,0 -1.383,0 -0.692,0 -1.38,0.692 -2.068,0.692 0,0.691 0,0.691 -0.695,0.691 6.215,9.657 12.42,17.249 20.015,24.841 10.349,8.969 21.389,17.941 31.738,26.909 18.632,14.492 38.644,25.532 61.416,32.432 -2.068,2.069 -3.452,3.452 -5.52,5.52 -1.383,0 -2.763,0.689 -3.452,0.689 0,0.692 0,1.38 0,1.38 -0.691,0.689 -2.075,1.38 -3.448,2.072 0,0.692 -0.695,1.377 -0.695,1.377 0,-0.685 0,-1.377 0,-2.069 0,-1.38 -0.685,-2.76 -2.068,-3.449 -4.137,-5.52 -8.28,-8.968 -13.112,-10.352 1.38,0.692 2.075,2.069 3.448,2.76 3.452,3.449 5.527,6.209 5.527,8.28 0,-0.689 -1.383,-2.072 -2.075,-2.072 -32.426,-17.937 -62.101,-40.017 -90.39,-65.55 -0.688,0 -0.688,0 -1.383,0 -0.685,0 -1.38,0 -1.38,0.689 -0.688,0 -0.688,0 -1.373,0.692 9.657,8.283 18.625,17.252 27.601,24.841 -13.8,-10.349 -28.296,-20.701 -42.785,-30.361 l -2.068,0 c 5.52,6.211 12.421,12.42 20.006,19.32 9.663,8.283 19.32,16.56 29.672,24.152 19.324,15.18 39.332,28.288 58.649,39.332 -0.685,-0.692 -1.373,-2.075 -2.068,-2.075 -10.348,-9.657 -21.389,-18.625 -32.432,-27.601 12.427,8.283 24.844,16.56 37.952,24.152 2.075,0.692 3.449,1.38 4.832,1.38 -4.14,2.068 -8.283,4.828 -12.42,7.592 -40.018,-23.463 -77.282,-49.681 -113.165,-78.665 -2.757,0 -2.757,1.383 0,3.452 9.663,8.971 19.326,17.248 30.363,25.532 -2.763,-1.383 -5.52,-3.452 -8.28,-5.52 -38.64,-26.912 -75.905,-55.892 -110.405,-87.633 l -0.685,0.692 c 15.181,16.56 32.432,33.117 51.055,48.301 37.264,31.049 76.596,59.342 117.305,85.562 -8.968,-8.283 -18.625,-16.56 -27.6,-24.844 15.875,11.732 32.432,22.776 49.68,33.124 -4.832,1.376 -9.657,2.76 -14.486,4.828 0,0 0,0 0,-0.692 -0.694,-0.685 -2.072,-1.376 -3.451,-1.376 0,-0.692 0,-0.692 0,-0.692 -0.695,-0.692 -0.695,-0.692 -0.695,-0.692 -12.417,5.523 -23.457,12.424 -33.806,20.012 -2.763,-2.068 -5.52,-4.828 -8.283,-7.588 2.763,1.38 4.832,2.76 6.903,4.828 0.685,0 1.38,0 2.068,0 -4.832,-5.52 -9.657,-11.04 -14.488,-15.869 2.757,1.376 4.832,2.76 7.588,4.828 0.691,-0.689 1.38,-0.689 2.068,-1.38 0,-0.689 0,-0.689 0,-1.38 -7.588,-6.209 -15.872,-12.42 -23.457,-18.629 -3.452,-3.449 -6.215,-6.9 -8.969,-10.348 -5.527,-6.215 -11.047,-12.424 -17.252,-18.632 22.769,16.557 45.538,32.432 69.001,46.917 1.376,0 2.068,0 2.757,-0.685 -24.837,-18.633 -49.681,-37.264 -75.207,-55.893 -4.832,-4.14 -10.352,-8.283 -15.183,-11.731 -20.012,-21.393 -40.712,-42.781 -62.101,-62.793 l -1.38,0 c 11.037,11.731 21.385,24.841 33.117,36.572 0.695,1.38 2.763,2.76 3.452,4.14 -7.588,-6.212 -15.183,-13.112 -22.08,-20.012 -3.451,-4.137 -6.903,-8.277 -10.352,-12.42 0,0 -0.689,0 -1.374,0 0,0 0,0 -0.694,0.691 -8.283,-8.971 -17.252,-17.248 -24.837,-26.22 1.38,-2.76 4.136,-4.828 6.9,-6.9 -2.763,2.072 -5.52,3.448 -7.595,5.52 -1.373,0 -1.373,-1.38 -2.068,-2.072 l -1.383,0 c 0,1.38 0.694,2.763 1.383,3.452 -6.205,5.52 -10.352,11.04 -13.8,17.249 0.695,-4.137 0.695,-8.969 0.695,-12.421 0,-1.38 0,-2.068 0.685,-2.757 6.215,-10.352 15.183,-19.324 26.915,-26.224 6.9,-4.137 13.8,-8.277 19.317,-12.42 1.384,0 2.069,-0.689 3.452,-0.689 6.205,-2.069 12.417,-3.452 18.632,-4.144 1.374,0 3.449,0 5.517,0 -6.9,2.075 -13.8,3.452 -20.012,6.215 -11.037,4.136 -18.632,10.348 -23.457,18.629 -2.075,-0.692 -3.449,-2.068 -4.832,-3.452 -2.763,1.384 -1.38,4.14 4.832,8.972 3.452,2.068 6.9,4.828 10.352,7.588 0,0.692 0,1.38 1.374,2.072 0,-0.692 0,-0.692 0,-1.38 33.127,24.841 65.553,50.372 97.982,75.901 0.695,0 2.763,0 4.146,0 1.374,-0.692 2.757,-0.692 3.449,-0.692 -2.76,-2.068 -5.523,-4.828 -8.975,-6.9 -30.357,-26.218 -62.102,-49.678 -94.527,-72.449 1.374,-2.072 2.757,-3.452 4.137,-5.52 24.837,26.22 53.821,48.992 87.633,67.621 0.689,-0.689 0.689,-0.689 1.384,-1.38 0,0 0,-0.689 -0.695,-1.38 -0.689,-0.692 -1.38,-1.38 -1.38,-1.38 -28.978,-21.389 -57.273,-43.472 -85.559,-64.864 1.38,-2.068 3.449,-4.137 4.832,-6.209 1.374,2.76 4.822,5.523 8.969,8.972 8.28,6.212 16.557,13.112 24.149,20.012 15.184,13.8 32.432,24.149 50.37,30.36 -0.685,0 -1.38,-0.691 -2.069,-1.383 -26.217,-20.7 -51.749,-40.709 -77.969,-60.03 3.452,-3.449 7.588,-5.523 12.421,-7.592 13.8,13.112 28.285,24.844 42.781,35.884 1.373,0 3.451,0 4.136,0 0.689,0 0.689,0 1.384,0 -0.695,-0.692 -0.695,-0.692 -0.695,-1.384 -15.173,-13.108 -30.357,-24.149 -46.226,-34.5 l -0.695,0 c 4.147,-2.068 9.664,-3.449 14.495,-4.14 l 0,-0.692 c -0.695,-0.685 -2.763,-0.685 -3.449,-1.377 0,0 0.685,-0.691 1.374,-0.691 4.832,-0.689 10.352,-0.689 15.18,-0.689 0,-0.692 0,-0.692 -0.685,-0.692 -4.143,-0.689 -7.595,-0.689 -11.731,-0.689 4.136,0 7.588,0 11.731,0 0,0 0,0 0,-0.689 -0.695,0 -1.383,-0.691 -2.068,-1.383 l 0,0 c 4.822,0.692 8.969,2.072 13.8,3.452 -0.695,-0.692 -1.383,-1.38 -1.383,-2.069 24.152,13.109 36.572,33.809 37.257,62.102 0.695,0 1.383,-0.692 2.075,-1.384 2.068,-1.376 2.757,-2.068 3.452,-3.449 0,2.072 0.685,3.449 1.373,4.832 0,0 0,-0.692 0,-1.384 0.695,-2.757 0.695,-5.517 1.38,-8.277 0,2.76 0.695,4.828 1.383,7.588 0.689,0 1.38,-0.688 2.069,-1.38 0,0 0,-0.689 0,-1.38 -1.38,-2.76 -2.069,-6.9 -0.689,-10.352 2.757,-11.728 7.588,-20.7 13.8,-28.288 15.183,-8.972 31.052,-12.421 48.301,-13.112 2.072,0 4.14,0 5.52,0.691 3.452,1.38 7.588,3.449 11.037,4.832 0,0 0,0 0,0.685 19.327,15.184 39.332,28.984 59.347,42.093 0.685,-0.689 2.068,-0.689 3.449,-1.377 0,0 0,-0.692 0,-1.383 0,0 -0.695,-0.689 -1.38,-1.38 -19.326,-13.794 -38.647,-26.903 -57.275,-40.703 z m 18.628,0.688 c 0,0 0,0 0,0.692 -0.691,-0.692 -1.38,-0.692 -2.075,-1.38 -14.485,-8.28 -30.354,-11.044 -48.301,-7.592 l 0,0 c -1.374,0 -1.374,0 -2.068,0 -3.449,0 -6.205,0 -9.657,0 -0.691,0 -0.691,0 -1.38,0 4.832,-2.068 11.037,-3.452 17.251,-4.828 l -0.694,-0.692 c -3.452,0 -6.209,-0.689 -8.969,-0.689 1.38,-0.691 2.76,-0.691 3.449,-1.38 4.832,-1.38 9.663,-2.072 14.495,-2.763 3.448,1.383 8.969,1.383 15.174,1.383 4.831,-0.691 8.975,0 13.115,2.069 23.46,8.28 39.332,22.08 46.918,40.024 -11.037,-9.661 -22.081,-17.944 -34.5,-25.532 0,0 -0.689,0 -1.38,0 l -1.377,0 c -10e-4,0 -10e-4,0 -10e-4,0.688 z m 48.305,51.753 c 0,-4.832 -0.695,-8.969 -1.384,-13.8 -2.068,-11.04 -6.211,-20.7 -11.731,-28.98 3.451,4.14 6.211,8.28 9.663,12.42 0,-0.692 0.689,-0.692 1.374,-0.692 0,4.832 0,11.044 1.383,18.632 1.38,5.52 2.068,11.04 2.763,16.56 -0.695,-1.38 -1.383,-2.76 -2.068,-4.14 z m 1.373,31.74 c 0,5.52 -1.373,11.729 -2.068,17.252 -1.383,2.068 -2.757,5.517 -4.137,7.588 0.685,-3.449 1.38,-8.28 2.754,-12.42 -0.685,0.691 -1.374,1.38 -1.374,2.76 1.374,-4.828 3.452,-9.66 4.825,-15.18 z M 265.864,208.284 c 0.685,-0.689 1.38,-1.38 2.763,-2.068 l -0.695,0 c -0.688,2.068 -0.688,2.76 0.695,2.76 10.348,-10.349 22.074,-15.872 37.254,-17.249 -6.205,1.376 -11.731,4.14 -16.554,7.588 0,0 0,0 -0.694,-0.689 0,0.689 0,1.377 0,2.069 -2.757,2.072 -5.52,4.832 -6.9,7.588 -1.383,-0.689 -2.757,-1.38 -2.757,-2.068 l -0.694,0 c 0.694,1.38 0.694,2.068 2.763,2.76 -2.068,2.068 -2.763,4.14 -4.143,6.208 0,0 0,0 0,0.692 -4.138,-2.76 -8.275,-5.523 -11.038,-7.591 z m 4.137,-19.318 c -1.374,0.685 -2.757,1.377 -3.452,2.068 -3.449,1.38 -5.517,2.76 -8.274,4.14 6.205,-4.14 13.105,-7.592 20.7,-9.661 -3.448,1.382 -6.211,2.071 -8.974,3.453 z m 35.196,-11.04 c 0,0.689 -0.695,0.689 -2.069,1.377 -2.763,-0.689 -4.832,-0.689 -7.595,-0.689 -1.383,0.689 -2.757,0.689 -4.832,0.689 7.595,-1.377 14.495,-2.069 21.395,-2.069 -2.068,0 -4.146,0.692 -6.899,0.692 z m -77.285,64.861 c -0.689,3.449 -0.689,7.588 -0.689,10.348 0,4.14 0,8.28 0,12.421 0,4.14 0,8.28 1.377,12.42 -0.689,-0.689 -1.377,-2.072 -1.377,-2.76 l -0.691,0.689 c 0.691,3.452 0.691,6.9 2.068,9.663 0.694,2.76 1.38,4.829 2.075,6.9 1.374,5.52 2.757,10.348 4.137,15.869 -0.685,-1.38 -1.38,-2.76 -2.069,-4.14 -6.211,-14.492 -8.969,-28.981 -7.595,-44.853 0,-5.516 1.384,-11.04 2.764,-16.557 z m 9.663,49.681 -0.695,0 c -2.754,-11.732 -3.449,-24.152 -3.449,-37.264 2.068,-9.661 7.595,-19.32 14.495,-28.978 2.753,5.517 6.9,10.348 11.037,15.177 8.28,8.971 17.937,17.251 26.912,25.532 6.9,8.28 13.8,17.252 22.074,26.221 2.078,3.448 5.526,6.9 8.283,10.348 -24.152,-20.009 -47.606,-41.401 -69.002,-62.79 -1.383,-0.689 -2.068,-0.689 -1.383,0 2.763,4.14 4.832,7.588 5.526,11.729 10.352,10.352 20.701,20.012 31.738,29.672 17.252,15.872 35.883,31.052 53.821,45.541 21.395,23.463 43.469,44.849 66.933,66.241 -0.689,0 -0.689,0.691 -1.38,1.38 -1.384,1.38 -3.452,2.76 -4.14,4.143 -2.068,0.685 -2.76,2.757 -4.143,3.449 0.695,0 0.695,0 1.383,0.689 -0.688,0.692 -2.068,2.072 -2.757,3.449 3.449,-2.069 5.517,-4.137 8.969,-6.209 0.689,-0.692 1.38,-0.692 2.068,-1.377 0.689,0.685 0.689,0.685 0.689,0.685 1.38,-0.685 2.763,-1.376 4.143,-2.757 0,0.689 0,0.689 0.689,0.689 2.76,0.692 4.829,0 7.592,-0.689 -1.38,-1.38 -2.763,-2.072 -3.448,-3.451 8.274,-4.829 16.557,-8.969 25.525,-13.109 -8.277,4.832 -15.177,10.349 -22.077,16.56 -4.143,2.757 -8.28,6.9 -12.423,11.04 -2.068,0.689 -3.452,2.068 -5.52,3.449 -13.105,-11.04 -25.532,-22.769 -37.952,-35.192 5.52,3.452 11.047,6.903 16.564,10.352 1.383,0 1.383,0 2.757,0 -8.274,-6.9 -15.869,-13.108 -24.837,-17.94 -1.38,-1.38 -3.452,-2.76 -5.52,-3.452 -7.592,-8.277 -15.869,-15.869 -23.46,-23.46 21.392,19.323 44.849,36.575 69.693,50.376 -8.28,-6.215 -15.875,-13.8 -24.844,-21.392 -34.5,-31.052 -71.07,-61.41 -106.953,-91.085 l -0.685,0 c -2.069,-1.376 -2.763,-2.757 -4.146,-4.828 -2.754,2.072 -1.374,4.14 2.763,8.28 13.115,12.423 26.221,25.532 37.264,39.333 6.9,7.592 13.8,15.177 20.7,22.077 -26.912,-20.009 -52.445,-41.401 -75.901,-64.862 0,2.76 0,6.212 2.757,9.661 0,4.832 3.449,9.663 9.663,15.183 22.769,22.08 45.538,44.158 68.306,66.933 -6.205,-3.452 -12.42,-6.215 -18.625,-8.975 -21.395,-18.625 -40.712,-37.949 -59.344,-58.649 l -1.383,0.691 c 8.978,14.489 20.7,28.981 33.127,41.401 -10.348,-9.66 -21.395,-20.012 -31.049,-30.361 -1.384,-1.383 -2.078,-2.76 -2.763,-4.14 -0.689,-0.692 -0.689,-1.384 -0.689,-2.069 0,0.685 0,0.685 0,1.377 -0.695,-2.068 -2.763,-4.14 -3.449,-6.209 -1.385,-4.143 -2.765,-8.283 -3.454,-12.42 z m 77.278,-110.402 c 2.075,0 5.523,0 8.28,0 -2.757,0 -5.52,0 -7.588,0 l -0.692,0 z m 73.145,40.71 c 0,0 0,0 0,-0.692 0,-4.828 2.068,-8.28 4.831,-11.732 -2.075,4.832 -4.146,10.352 -4.831,15.875 0,-0.692 0,-2.072 0,-3.451 z m 65.549,155.254 c 0,0 0,0 0.689,-0.691 2.068,-1.38 4.143,-3.449 6.215,-4.832 1.38,-0.685 2.754,-1.376 4.137,-1.376 0.692,0 1.38,0.692 2.068,0.692 -1.376,0.685 -2.757,1.376 -4.825,2.757 -2.763,1.378 -5.527,2.067 -8.284,3.45 z m -95.218,-40.709 c -1.383,-1.383 -3.452,-2.075 -4.143,-3.451 -3.452,-2.072 -6.904,-4.832 -10.352,-7.592 -11.731,-13.108 -24.152,-26.22 -35.883,-40.021 6.903,6.212 14.495,12.421 22.083,18.632 8.968,11.04 18.632,22.08 28.295,32.432 z m -27.601,43.469 c 2.068,0.689 4.822,2.069 6.205,3.449 0.695,0 0.695,0.692 1.38,1.383 -2.068,-2.072 -4.831,-3.452 -7.585,-4.832 z m 56.575,-10.352 c -5.517,-4.832 -11.037,-10.348 -15.869,-15.869 -1.38,-0.692 -2.757,-2.072 -3.449,-3.449 2.76,2.068 4.829,3.449 7.592,5.517 3.452,4.832 6.901,8.969 11.726,13.801 z m -23.457,46.921 0,0 c 2.068,4.832 4.832,9.663 6.9,15.18 -8.28,-10.348 -17.248,-20.008 -26.912,-28.288 2.069,0.688 4.144,1.38 6.212,2.757 0,-0.685 0,-0.685 0,-1.377 2.757,2.068 4.832,3.449 8.283,4.14 1.374,2.76 3.449,4.828 5.517,7.588 z m 17.252,17.249 0,0.691 c -0.695,-6.9 -3.452,-12.42 -6.9,-17.94 -0.694,-0.689 -1.383,-1.38 -2.068,-1.38 1.374,0 2.068,0 3.449,0.692 -1.38,-1.38 -3.449,-2.072 -4.832,-2.763 -0.691,-0.685 -0.691,-1.376 -1.38,-2.068 2.763,2.068 5.517,3.452 8.28,4.832 0.689,0 0.689,0 1.383,0 2.757,3.452 6.205,6.209 8.969,9.661 0,0.691 0,0.691 -0.695,1.376 -2.07,2.07 -4.826,4.142 -6.206,6.899 z m 0.688,8.975 c 0,0 0,-0.692 0,-1.383 0,0 0,-0.692 0,-1.377 -0.688,-0.692 -0.688,-1.383 -0.688,-2.072 0,0.689 0,0.689 0.688,0.689 0.692,-1.38 2.069,-2.069 3.449,-2.757 -1.38,4.14 -2.068,7.588 -2.068,12.417 -0.689,-0.691 -2.068,-1.376 -2.068,-2.76 -0.695,-0.689 -1.38,-2.068 -2.069,-2.068 -1.383,-5.52 -3.451,-10.348 -5.526,-14.492 2.074,4.143 5.525,8.971 8.282,13.803 z m 13.8,-28.292 c -2.757,2.068 -4.14,4.832 -5.52,7.588 -15.869,-17.941 -33.12,-33.121 -53.132,-44.85 -20.006,-21.392 -40.706,-42.092 -60.721,-62.101 18.632,14.492 37.264,28.292 56.584,42.093 20.005,20.009 41.401,39.329 62.789,57.27 z M 246.544,329.037 c 0,0 0,0 0.689,0.692 -0.689,-1.383 -1.383,-2.072 -2.068,-2.76 l 0,0 c 0.684,0.688 1.379,1.377 1.379,2.068 z m 34.5,25.532 c -1.38,0 -2.068,0 -3.448,-0.692 -4.144,-4.832 -8.969,-8.971 -12.421,-13.8 2.757,2.76 5.52,4.829 8.277,7.592 2.075,2.069 4.829,4.137 7.592,6.9 z m 15.184,16.561 c -4.146,-4.14 -8.975,-7.592 -13.115,-11.732 0.689,0.692 1.383,0.692 2.763,0.692 0,0.689 1.376,0.689 1.376,0.689 0.692,0.691 1.38,1.38 2.075,2.068 3.449,3.452 6.205,6.212 8.969,8.975 -0.695,0 -1.383,-0.692 -2.068,-0.692 z m 235.978,-49.685 c 0,-1.376 0.695,-2.757 1.384,-4.14 0,-1.377 0.691,-2.069 1.38,-3.449 -0.69,2.764 -2.069,4.833 -2.764,7.589 z M 512.2,344.906 c 0,0 0.689,-0.685 0.689,-1.377 0.695,-0.692 2.068,-1.383 2.763,-1.383 0.685,-2.069 1.38,-3.449 2.068,-4.826 1.38,-2.075 2.76,-4.143 4.832,-6.215 0.685,-1.377 2.069,-2.76 3.448,-4.137 -3.448,5.52 -6.9,10.352 -10.348,15.177 -0.695,1.384 -2.764,2.076 -3.452,2.761 z m -25.532,15.872 c 0.689,0.691 1.383,0.691 1.383,0 2.754,0 4.828,-1.38 7.586,-2.072 -1.38,1.383 -2.757,2.763 -4.832,4.14 -4.822,2.76 -10.348,4.832 -15.173,6.9 3.448,-2.757 7.588,-5.517 11.036,-8.968 z" id="path7">
        </path>
        <path style="fill:#6c5353" d="m 512.888,294.537 0,-0.692 c -33.809,-24.84 -66.238,-51.058 -97.985,-77.97 -0.688,0 -1.373,0 -1.373,0 -0.695,0 -1.384,0.692 -2.075,1.38 0,0 0,0.688 0,1.38 15.18,13.108 30.36,26.909 45.544,41.401 17.252,15.869 35.88,27.601 55.889,34.501 z" id="path9">
        </path>
        <path style="fill:#6c5353" d="m 343.146,209.667 c -0.692,0 -2.069,-0.691 -1.38,0 12.421,9.661 23.463,17.937 35.189,24.149 -0.689,-0.688 -1.376,-1.38 -1.376,-2.072 -10.35,-8.277 -20.702,-15.869 -32.433,-22.077 z" id="path11">
        </path>
        <path style="fill:#6c5353" d="m 396.967,217.944 c -0.689,0.692 -0.689,0.692 -0.689,1.384 0,0.689 1.377,2.068 2.068,2.757 33.809,33.812 70.384,64.861 108.333,93.153 1.377,-0.691 2.757,-1.38 3.452,-2.068 0.689,0 0.689,-0.691 0.689,-0.691 -0.689,-1.38 -0.689,-2.072 -2.068,-2.757 C 470.8,280.047 434.23,249.687 399.73,217.946 c 0,0 -0.695,0 -1.384,0 0,-0.002 -0.691,-0.002 -1.379,-0.002 z" id="path13">
        </path>
        <path style="fill:#6c5353" d="m 396.278,235.884 c 0,0.691 0,1.383 0,1.383 32.426,28.289 64.858,54.509 98.67,80.038 2.757,0 5.52,0 8.283,0.691 -1.38,-0.691 -2.075,-1.376 -2.763,-2.068 -32.432,-27.601 -66.238,-54.513 -100.739,-80.733 0,0 -0.695,0 -1.384,0 0,0 -0.691,0 -1.38,0 -0.687,0.689 -0.687,0.689 -0.687,0.689 z" id="path15">
        </path>
        <path style="fill:#6c5353" d="m 407.318,257.276 c -0.689,0 -0.689,0 -1.383,0 l -1.38,0 c -0.689,0.692 -0.689,0.692 -1.377,0.692 31.052,32.429 65.553,59.338 104.879,80.73 0.695,0 1.38,-0.692 2.075,-0.692 0,-0.685 0,-1.376 0,-2.068 0,-0.692 -0.695,-0.692 -2.075,-1.38 -34.501,-23.461 -68.31,-49.681 -100.739,-77.282 z" id="path17">
        </path>
      </g>
    </g>
    <text style="font-style:normal;font-variant:normal;font-weight:normal;font-stretch:normal;font-size:50px;line-height:125%;font-family:Yesteryear;-inkscape-font-specification:'Yesteryear, Normal';text-align:start;letter-spacing:0px;word-spacing:0px;writing-mode:lr-tb;text-anchor:start;fill:#fe9312;fill-opacity:1;stroke:none;stroke-width:1px;stroke-linecap:butt;stroke-linejoin:miter;stroke-opacity:1" x="819.11713" y="570.95465" id="text4136">
      <tspan style="font-style:normal;font-variant:normal;font-weight:normal;font-stretch:normal;font-size:50px;line-height:125%;font-family:Yesteryear;-inkscape-font-specification:'Yesteryear, Normal';text-align:center;writing-mode:lr-tb;text-anchor:middle" id="text21" x="819.11713" y="570.95465">
        I love you, Joe. For what you've
      </tspan>
    </text>
    <text style="font-style:normal;font-variant:normal;font-weight:normal;font-stretch:normal;font-size:50px;line-height:125%;font-family:Yesteryear;-inkscape-font-specification:'Yesteryear, Normal';text-align:start;letter-spacing:0px;word-spacing:0px;writing-mode:lr-tb;text-anchor:start;fill:#fe9312;fill-opacity:1;stroke:none;stroke-width:1px;stroke-linecap:butt;stroke-linejoin:miter;stroke-opacity:1" x="818.33588" y="633.23413" id="text4142">
      <tspan style="font-style:normal;font-variant:normal;font-weight:normal;font-stretch:normal;font-size:50px;line-height:125%;font-family:Yesteryear;-inkscape-font-specification:'Yesteryear, Normal';text-align:center;writing-mode:lr-tb;text-anchor:middle" id="text22" x="818.33588" y="633.23413">
        done for us, for our little family
      </tspan>
    </text>
    <text style="font-style:normal;font-variant:normal;font-weight:normal;font-stretch:normal;font-size:50px;line-height:125%;font-family:Yesteryear;-inkscape-font-specification:'Yesteryear, Normal';text-align:start;letter-spacing:0px;word-spacing:0px;writing-mode:lr-tb;text-anchor:start;fill:#fe9312;fill-opacity:1;stroke:none;stroke-width:1px;stroke-linecap:butt;stroke-linejoin:miter;stroke-opacity:1" x="821.04584" y="695.53802" id="text1113">
      <tspan style="font-style:normal;font-variant:normal;font-weight:normal;font-stretch:normal;font-size:50px;line-height:125%;font-family:Yesteryear;-inkscape-font-specification:'Yesteryear, Normal';text-align:center;writing-mode:lr-tb;text-anchor:middle" id="text23" x="821.04584" y="695.53802">
        and for our country.
      </tspan>
    </text>
    <text style="font-style:normal;font-variant:normal;font-weight:normal;font-stretch:normal;font-size:50px;line-height:125%;font-family:Yesteryear;-inkscape-font-specification:'Yesteryear, Normal';text-align:start;letter-spacing:0px;word-spacing:0px;writing-mode:lr-tb;text-anchor:start;fill:#fe9312;fill-opacity:1;stroke:none;stroke-width:1px;stroke-linecap:butt;stroke-linejoin:miter;stroke-opacity:1" x="818.65326" y="758.672" id="text4150">
      <tspan style="font-style:normal;font-variant:normal;font-weight:normal;font-stretch:normal;font-size:50px;line-height:125%;font-family:Yesteryear;-inkscape-font-specification:'Yesteryear, Normal';text-align:center;writing-mode:lr-tb;text-anchor:middle" id="text24" x="818.65326" y="758.672">
        You are my hero.
      </tspan>
    </text>
    <text style="font-style:normal;font-variant:normal;font-weight:normal;font-stretch:normal;font-size:50px;line-height:125%;font-family:Yesteryear;-inkscape-font-specification:'Yesteryear, Normal';text-align:start;letter-spacing:0px;word-spacing:0px;writing-mode:lr-tb;text-anchor:start;fill:#fe9312;fill-opacity:1;stroke:none;stroke-width:1px;stroke-linecap:butt;stroke-linejoin:miter;stroke-opacity:1" x="818.95844" y="821.24445" id="text4194">
      <tspan style="font-style:normal;font-variant:normal;font-weight:normal;font-stretch:normal;font-size:50px;line-height:125%;font-family:Yesteryear;-inkscape-font-specification:'Yesteryear, Normal';text-align:center;writing-mode:lr-tb;text-anchor:middle" id="text25" x="818.95844" y="821.24445">
        Lisa Bryan
      </tspan>
    </text>
  </g>
</svg>