<?xml version="1.0" encoding="utf-8"?>
<?xml-stylesheet type="text/css" href="https://fonts.googleapis.com/css?family=ArialMT|Anton"?>
<svg xmlns:dc="http://purl.org/dc/elements/1.1/" xmlns:cc="http://creativecommons.org/ns#" xmlns:rdf="http://www.w3.org/1999/02/22-rdf-syntax-ns#" xmlns:svg="http://www.w3.org/2000/svg" xmlns="http://www.w3.org/2000/svg" xmlns:xlink="http://www.w3.org/1999/xlink" id="svg2" xml:space="preserve" enable-background="new 0 0 1600 1000" viewBox="0 0 1600 1000" height="1000px" width="1600px" y="0px" x="0px" version="1.1">
  <metadata id="metadata79">
    <rdf:RDF>
      <cc:Work rdf:about="">
        <dc:format>
          image/svg+xml
        </dc:format>
        <dc:type rdf:resource="http://purl.org/dc/dcmitype/StillImage">
        </dc:type>
        <dc:title>
        </dc:title>
      </cc:Work>
    </rdf:RDF>
  </metadata>
  <defs id="defs77">
    <clipPath clipPathUnits="userSpaceOnUse" id="clipPath4172">
      <path style="opacity:1;fill:none;fill-opacity:1;fill-rule:nonzero;stroke:#ffc300;stroke-width:2.1035552;stroke-linecap:butt;stroke-linejoin:miter;stroke-miterlimit:4;stroke-dasharray:none;stroke-dashoffset:0;stroke-opacity:1" d="m 457.03082,504.53299 738.99968,0 0,345.23891 -738.99968,0 z" id="jd_bd">
      </path>
    </clipPath>
  </defs>
  <image xlink:href="/designs/templates/002000501-2.jpg" overflow="visible" enable-background="new    " width="600" height="400" id="jd_bg" transform="matrix(2.6667,0,0,2.5,2.441406e-4,-2.441406e-4)" style="overflow:visible">
  </image>
  <g id="jd_nt" clip-path="url(#clipPath4172)" transform="translate(24.436578,-2.2215071)">
    <g transform="matrix(0.9916234,0,0,1,-18.953665,0)" id="g8">
      <path style="fill:#9b6550" id="path10" d="m 1097.1,682.8 c 4.8,-8.3 9.9,-16.4 14.8,-24.6 7.1,-12 12.2,-24.7 14.7,-38.4 0.4,-2.4 0.8,-4.8 1.1,-7.2 0,-0.1 0.2,-0.1 0.2,0 1.4,12.2 0.3,24.1 -2.2,36 -2.9,13.3 -7.8,25.7 -14,37.7 -3.9,7.4 -7.5,15.1 -9.7,23.2 -1.7,6.4 -1.9,13.5 4.4,17.5 5,3.2 11.3,2.7 16.7,0.8 4.8,-1.7 9.9,-4.3 12.5,-8.9 2.8,-5 -0.1,-10.8 -4.6,-13.5 -7.4,-4.5 -15.8,-1.6 -23.6,0.2 -0.2,0.1 -1,0.3 -1.5,0.4 -0.2,0.1 -0.5,-0.2 -0.4,-0.4 0.2,-0.6 0.5,-1.4 0.6,-1.9 2.3,-5.2 4.5,-10.3 6.8,-15.5 0.2,-0.5 0.6,-1.1 1.1,-1.3 5.6,-2 11.3,-3.6 17.3,-3 7.5,0.8 12.9,5.1 16.9,11.2 5.3,8.1 6.3,16.7 2.5,25.8 -2.2,5.1 -5.1,9.8 -8.6,14.1 -3.9,4.7 -8.9,7.3 -14.8,7.8 -6.6,0.6 -13.3,0.9 -20,0.9 -6.9,0 -13.7,0.5 -20.3,2.5 -0.3,0.1 -0.7,0.2 -1.1,0.2 -0.1,0 -0.1,0 -0.1,-0.1 -0.1,-0.2 -0.1,-0.4 -0.1,-0.5 -0.2,-13.3 -0.2,-26.5 2.3,-39.6 1.5,-8.3 4.8,-16.1 9.1,-23.4 z">
      </path>
      <path style="fill:#9b6550" id="path12" d="m 1029.1,547.2 c 13.7,-4.5 27.3,-4.8 40.8,0.8 7,2.9 13.2,7 18.7,12.3 9.1,8.9 14.6,19.6 17.1,32.1 2.6,13 3.9,26 2.7,39.2 -1.2,13.4 -6.1,25.3 -14.4,35.9 -3.3,4.1 -7,7.4 -12.1,8.8 -6,1.7 -11.7,1 -17.1,-2.2 -10.1,-6.1 -15.9,-19.2 -13.3,-30.2 0.5,-2.1 1.3,-4.1 3.1,-6 0.1,-0.1 0.2,0 0.2,0.1 -1.7,5.6 -0.9,10.7 2.2,15 4.3,6.1 12.3,12.3 20.2,10.8 8.7,-1.8 12.4,-12.1 14.3,-19.7 2.7,-10.4 2.6,-20.9 1,-31.5 -1.8,-12.5 -5.3,-24.5 -11,-35.8 -8.2,-16.4 -21.7,-25.7 -39.7,-28.3 -4.4,-0.6 -8.8,-0.7 -13.1,-1 0,0 0.2,-0.2 0.4,-0.3 z">
      </path>
      <path style="fill:#9b6550" id="path14" d="m 1009.5,659.1 c -1.8,-8.3 -3.7,-13.8 -7.4,-21.6 -0.1,-0.1 0.1,-0.2 0.2,-0.2 5,3.2 10,6.3 15.1,9.6 0.1,0 0.2,0 0.2,-0.1 0.5,-1.8 1,-3.5 1.4,-5.1 2,-7.1 5,-13.8 9.4,-19.8 3.3,-4.5 3.9,-9.1 2.4,-14.2 -0.1,-0.5 -0.2,-0.9 -0.3,-1.4 0,-0.1 0.1,-0.2 0.2,-0.1 2.7,3.2 5.2,6.5 5.9,10.7 0.3,1.7 0,3.5 -0.4,5.2 -1.5,5.5 -3.4,11 -4.6,16.6 -3.4,15.6 2,28.2 13.8,38.3 6.4,5.5 14,8.7 22.3,10.2 3.9,0.7 7.5,-0.2 11,-1.7 5.2,-2.2 13.4,-9.5 15.9,-11.8 0.2,-0.2 0.4,0 0.3,0.2 -2.5,5.8 -5.7,11.2 -10.3,15.5 -7.5,7 -16.1,11.7 -26.6,12 -4.7,0.1 -9.1,-1 -13.4,-2.9 -12.6,-5.5 -23.3,-13.4 -30.2,-25.7 -2.5,-4.2 -3.9,-8.9 -4.9,-13.7 z">
      </path>
      <path style="fill:#9b6550" id="path16" d="m 1126.6,604.7 c -2,11.7 -4.3,22.9 -8.7,33.5 -4.2,10.1 -10.2,19.2 -17.2,27.6 -0.2,0.2 -0.5,0 -0.4,-0.3 2.5,-5.2 10,-21.6 10.7,-33.4 0.5,-6.7 0.2,-13.5 -0.1,-20.2 -0.4,-8.8 -1.6,-17.4 -3.8,-25.9 -2.5,-9.6 -7.8,-17.7 -14.7,-24.7 -3.2,-3.2 -6.7,-6.1 -10.4,-9.4 -0.1,-0.1 0,-0.2 0.1,-0.2 5.6,1.3 10.6,3.2 15.3,5.6 14,7.2 25.3,17.4 33.6,30.7 4.5,7.2 7,15.3 9.2,23.4 2.5,9.3 4.1,18.7 5.2,28.3 0,0.1 -0.2,0.2 -0.2,0.1 -4.4,-12.5 -9,-24.9 -18.4,-35.2 -0.1,0 -0.2,0 -0.2,0.1 z">
      </path>
      <path style="fill:#9b6550" id="path18" d="m 1055.9,673.5 c 3.3,5.1 8,8.6 13.5,11.2 0.4,0.2 0.9,0.4 1.3,0.6 0,0 0.1,0.1 0.2,0.4 -1.2,-0.1 -2.4,-0.1 -3.4,-0.4 -16.5,-4 -29.1,-13.7 -34.2,-32.6 -2,-7.3 -0.1,-14.3 2.5,-21.2 1.6,-4.2 3.3,-8.4 4.7,-12.8 1.8,-5.6 0.1,-10.2 -4.3,-13.9 0,0 0,0 0,0 0.2,-0.4 0.2,-0.3 0.4,-0.8 4.4,1.5 8.7,3 13.2,4.6 0.1,0 0.1,0 0.2,-0.1 3.6,-10.7 -5.1,-32.5 -6.4,-35.8 0,-0.1 0.1,-0.2 0.2,-0.1 4,3.5 7,7.4 8.8,9.5 7.4,8.6 10,19.3 10.9,30.5 0.3,4 -0.7,7.9 -3.8,10.5 -2.5,2.1 -5.7,3.2 -8.3,5.3 -3.5,2.8 -5.1,7.8 -5.4,12.1 -0.4,5.8 0.7,12.2 2.5,17.8 1.7,5.4 4.3,10.5 7.4,15.2 z">
      </path>
      <path style="fill:#9b6550" id="path20" d="m 1129.7,612.7 c 6,6.4 17.9,37.2 19.4,50.2 0,0.1 -0.2,0.2 -0.2,0.1 -3.6,-7.8 -7,-15.3 -11.8,-22 -0.1,-0.1 -0.2,-0.1 -0.2,0.1 -1.2,9.7 -2.6,19.3 -5.8,28.9 0,0.1 0,0.1 0.1,0.2 4.2,0.9 8.1,2.1 11.3,5 0.1,0.1 0.2,0 0.2,-0.1 -0.8,-3.3 -1.6,-6.6 -2.5,-10 0,-0.1 0.1,-0.2 0.2,-0.1 4.1,5.3 11.9,23.8 13.8,33.1 0,0.1 -0.1,0.2 -0.2,0.1 -0.3,-0.4 -0.5,-0.6 -0.7,-0.9 -2.7,-3.1 -5.3,-6.3 -8.1,-9.3 -6.3,-6.6 -14.1,-8.3 -22.9,-7 -2,0.3 -3.9,0.9 -6.2,1.4 -0.1,0 -0.2,-0.1 -0.1,-0.2 9.6,-22.1 16.4,-44.5 13.4,-69.2 0.1,-0.4 0.2,-0.4 0.3,-0.3 z">
      </path>
      <path style="fill:#9b6550" id="path22" d="m 1074,761.7 c 1.1,-0.2 1.5,-0.7 1.7,-1.8 1.4,-7 2.9,-13.9 4.4,-20.9 0.7,-3.3 1.5,-6.7 2.4,-10 0.1,-0.2 0.4,-0.2 0.4,0.1 l 0,44.9 c 0,0.2 -0.2,0.3 -0.3,0.2 -1.3,-0.8 -2.6,-1.7 -3.9,-2.4 -3.9,-2.1 -6.1,-1.7 -9.1,1.5 -2.5,2.6 -4.4,5.5 -4.5,9.2 0,0.2 -0.3,0.3 -0.4,0.1 -2.2,-4.7 -2.2,-9.5 0.4,-14.2 2,-3.6 4.8,-6 8.9,-6.7 z">
      </path>
      <path style="fill:#9b6550" id="path24" d="m 1006.2,595.8 c -0.8,-1.6 -1.7,-3.1 -2.5,-4.7 -0.1,-0.1 0.1,-0.2 0.2,-0.1 3,3.1 13.5,12.5 14.7,24.8 0.5,8.8 -0.8,17.5 -2.7,26 0,0.1 -0.1,0.2 -0.3,0.4 0,0 -0.1,0.1 -0.2,0 -4.1,-2.2 -8.3,-4.3 -12.8,-6.7 -0.1,-0.1 -0.1,-0.2 0,-0.2 2.2,-0.5 4,-0.8 5.7,-1.3 0.5,-0.1 1.3,-0.6 1.3,-1.1 1.5,-7.6 3,-15.3 2,-23.1 -0.5,-5 -3,-9.5 -5.4,-14 z">
      </path>
      <path style="fill:#9b6550" id="path26" d="m 1065.2,701.8 c 8.7,-1.7 15.4,-6.9 21.4,-12.3 0,0 0,0 0.1,0 l 4.5,-0.3 c 0.1,0 0.2,0.1 0.1,0.2 -1.2,2.9 -2.3,5.7 -3.2,8.4 -1,2.9 -1.7,5.5 -2.6,8.5 -0.1,0.5 -0.8,1.1 -1.1,1.1 -6.7,-0.2 -12.8,-2.4 -19.1,-5.3 -0.2,-0.1 -0.2,-0.3 -0.1,-0.3 z">
      </path>
      <path style="fill:#9b6550" id="path28" d="m 1016,682.6 c 3.3,2.7 6.4,5.3 9.5,8 0.3,0.3 0.5,0.7 0.6,1.1 3,9 5.8,18.1 7.4,27.5 1,5.6 0.7,11.2 0.1,16.8 0,0.1 -0.2,0.1 -0.2,0 -0.7,-4.1 -1.4,-8.2 -2.1,-12.2 -1.8,-10 -5.3,-19.5 -9.9,-28.6 -1.9,-3.7 -3.5,-7.5 -5.2,-11.3 -0.2,-0.4 -0.3,-0.7 -0.5,-1.1 0.1,-0.2 0.2,-0.3 0.3,-0.2 z">
      </path>
      <path style="fill:#9b6550" id="path30" d="m 1058.9,741.7 c -4.1,-12.6 -9.1,-25 -9.9,-38.6 0,-0.1 0.1,-0.1 0.1,-0.1 3.1,0.6 6,1.2 9.1,1.9 0.1,0 0.1,0.1 0.1,0.1 -2.3,12.2 -0.7,24.4 0.8,36.7 0.1,0 -0.1,0.1 -0.2,0 z">
      </path>
      <path style="fill:#9b6550" id="path32" d="m 1047,761.3 c 1.3,-0.1 2.2,-0.6 3,-1.6 1.9,-2.5 5.5,-6.9 7.1,-8.5 0.2,-0.2 0.5,0 0.4,0.3 -1.5,4.7 -3,9.5 -4.6,14.2 -0.6,1.8 -1.8,2.6 -3.6,2.5 -4.6,-0.2 -7.8,1.7 -9.6,6 -0.2,0.5 -0.4,0.9 -0.6,1.3 0,0 -0.1,0 -0.3,0.1 -0.1,0 -0.2,-0.1 -0.2,-0.2 0.3,-2.9 0.4,-5.7 1.1,-8.3 0.8,-3.7 3.6,-5.5 7.3,-5.8 z">
      </path>
      <path style="fill:#9b6550" id="path34" d="m 1053.9,767.2 c 0.5,-0.3 1.1,-0.8 1.6,-0.8 2.1,0 2.8,-1.5 3.5,-3.1 1,-2.2 3.2,-6.5 4,-8 0.1,-0.2 0.4,-0.1 0.4,0.1 0,5.3 0.5,11.3 -1.8,16.3 0,0.1 -0.1,0.1 -0.2,0.1 -4.5,-1.1 -8.2,2.1 -9.9,9.7 0,0.2 -0.3,0.2 -0.4,0.1 -2.9,-4.6 -1.7,-11.3 2.8,-14.4 z">
      </path>
      <path style="fill:#9b6550" id="path36" d="m 1126.5,766.5 c -0.8,-3.3 -0.5,-6.5 0.9,-9.6 0.8,-1.8 1.9,-3.3 3.9,-4.2 0.2,-0.1 0.5,0.1 0.4,0.3 -0.1,0.6 -0.1,1.2 -0.2,1.7 -0.3,2.3 -0.4,4.5 0.5,6.8 1.8,4.5 0.8,8.7 -2.1,12.5 -2.4,3 -7.4,4.2 -10.9,2.8 0.2,-0.1 0.3,-0.2 0.4,-0.2 4.9,-0.5 8.3,-5.1 7.1,-10.1 z">
      </path>
      <path style="fill:#9b6550" id="path38" d="m 1024.7,616.5 c 1.8,-2.5 3.4,-5.6 3.6,-10 1.9,4 2.8,7.6 0.4,11.4 -2.3,3.7 -4.6,7.3 -6.8,11 -0.7,1.1 -1.3,2.3 -2.1,3.7 0.4,-4.9 1,-9.4 1.2,-13.8 0.2,-4.5 -0.9,-8.9 -2.4,-13.2 3.4,2.8 5.5,6.4 6.1,10.9 z">
      </path>
      <path style="fill:#9b6550" id="path40" d="m 1109.7,757.1 c 0.2,-0.2 0.6,0 0.5,0.3 -0.7,1.8 -1.3,3.4 -1.6,5 -0.4,2.4 -0.9,5 -0.5,7.4 0.6,4 5.1,5.7 8.5,3.7 0.2,-0.1 0.5,0 0.5,0.3 -0.3,2.4 -2.5,4.8 -5.2,5.6 -3,0.8 -5.4,-0.1 -6.8,-2.7 -1.6,-2.9 -1.8,-5.9 -1.3,-9.1 0.6,-4.1 2.9,-7.4 5.9,-10.5 z">
      </path>
      <path style="fill:#9b6550" id="path42" d="m 1094.6,746.6 c 6.9,-1.6 13.9,-0.2 21,0.1 0.3,0 0.4,0.4 0.1,0.6 -8.9,5.2 -13.7,12.7 -14.1,22.8 0,0.3 -0.5,0.4 -0.6,0.1 -2.1,-5.7 -2.9,-11.5 -0.4,-17.4 0.8,-1.9 0.3,-2.9 -1.3,-3.7 -1.6,-0.7 -3.2,-1.3 -4.8,-2 -0.3,0 -0.2,-0.4 0.1,-0.5 z">
      </path>
      <path style="fill:#9b6550" id="path44" d="m 1039.6,699 c 0,-0.1 0.1,-0.2 0.2,-0.1 1.8,0.6 3.5,1.2 5.1,1.9 0.3,0.1 0.5,0.7 0.5,1.1 1.3,10.8 5.1,20.8 8.7,30.9 0.1,0.4 0.3,0.8 0.4,1.2 0,0.1 -0.1,0.2 -0.2,0.5 -5.8,-11.6 -11.5,-22.8 -14.7,-35.5 z">
      </path>
      <path style="fill:#9b6550" id="path46" d="m 920.1,610.4 c -0.6,1.4 -0.4,1.9 0.4,3.1 0,0.1 3.2,-2 4.8,-2 0.1,0 0.2,0.1 0.1,0.2 -1.1,1.1 -2.2,2.1 -3.2,3.1 -0.6,0.5 -0.9,1.1 -0.6,1.9 0.3,1.1 0.5,2.2 0.9,3.2 0.9,2.6 2.3,4.9 4.6,6.5 0.3,0.2 0.6,0.3 1.1,0.1 0.7,-0.4 1.5,-0.3 2.2,0.1 0.7,0.4 1.3,0.8 1.9,1.3 0.8,0.6 1.6,1.3 2.5,1.9 2.9,2.1 6.2,2.5 9.6,2.5 0.2,0 0.4,-0.1 0.6,-0.1 0.6,-0.2 0.7,-0.5 0.3,-0.9 -0.5,-0.6 -1,-1.1 -1.6,-1.6 -2.6,-2.4 -3.4,-5.4 -3.1,-8.9 0.4,-3.6 3,-5.6 6.6,-5 1,0.2 2,0.4 2.9,0.8 3.9,1.7 7.3,4.1 10.3,7 1.5,1.4 2.8,3 3.6,5 1.1,3.1 0.7,7.4 -4.3,8.6 -2.7,0.6 -5.4,0.6 -8.1,-0.1 -0.4,-0.1 -0.8,-0.1 -1.2,-0.2 -0.1,0.2 -0.2,0.2 -0.3,0.4 0.3,0.7 0.6,1.4 1,1.9 0.8,1 1.7,1.9 2.6,2.9 0.4,0.4 0.9,0.8 0.8,1.5 -0.1,0.8 -0.7,1.1 -1.3,1.3 -0.3,0.1 -0.6,0.2 -1,0.3 -0.1,0 -0.1,0.1 0,0.2 0.5,0.4 1,0.9 1.4,1.3 0,0 0,0 0,0 0.4,0.3 21.6,13.5 52.8,13.9 0.1,0 0.2,-0.2 0.1,-0.2 -2.4,-1.3 -13.7,-7.4 -20.7,-14 -1.5,-1.5 -2.8,-3.2 -3.7,-5.1 -1.1,-2.4 -1.8,-4.9 -0.5,-7.3 0.7,-1.3 1.7,-2.5 2.8,-3.5 2.6,-2.6 5.8,-4.5 8.9,-6.4 1,-0.6 2,-1.3 2.9,-2.1 2,-1.8 3.3,-4.2 2,-7.5 -0.3,-0.9 -0.6,-1.7 -1,-2.6 -1,-2.6 -0.7,-5.1 0.7,-7.5 0.5,-0.8 1,-1.7 1.5,-2.6 0.2,-0.4 0.4,-0.9 0.6,-1.5 0,-0.1 -0.1,-0.2 -0.2,-0.2 -0.3,0.1 -0.5,0.2 -0.7,0.3 -1.5,0.7 -3.1,1.2 -4.8,1.1 -1.6,-0.1 -2.7,-0.8 -3.4,-2.3 -0.8,-1.9 -0.5,-3.7 0,-5.5 0.5,-1.7 0.9,-3.3 1.3,-5 0.2,-0.7 0.3,-1.6 0.4,-2.4 0,-0.1 -0.1,-0.2 -0.2,-0.1 -0.9,1.2 -2,2.1 -3.4,2.6 -3.9,1.4 -15.3,-0.5 -12.8,-4.3 14.8,-22.7 26.3,-28.1 37,-30.4 7.2,-1.5 19.4,-0.5 22.8,-0.2 0.1,0 0.2,-0.2 0.1,-0.2 -5.9,-2.1 -12.2,-3.1 -18.5,-3.1 -7.2,0 -17.4,2 -23.6,5.8 -6.2,3.8 -11.1,9.3 -16.5,14.1 -6.2,5.3 -13.5,8.1 -20.8,11.5 -3.2,1.5 -6.4,3.2 -9.5,4.8 -1.1,0.6 -2.1,1.4 -2.7,2.6 -1,1.7 -1.1,3.5 -0.9,5.4 0,0.5 -0.1,0.7 -0.4,1 -1,0.6 -18.3,10 -19.4,10.8 -1.7,0.8 -2.9,2.1 -3.7,3.8 z m 50.8,24.1 c 2.3,-3.8 3.1,-7.9 2.1,-12.2 -0.5,-2.3 -1.8,-4.3 -3.5,-5.8 -0.1,-0.1 -0.3,-0.2 -0.4,-0.4 0,0 0,-0.1 0,-0.1 1.3,-2.6 2.5,-5.3 3.7,-7.9 2.7,-5.8 6.7,-10.5 11.7,-14.5 0.1,-0.1 0.2,-0.1 0.4,-0.1 -0.2,0.3 -0.5,0.6 -0.7,0.9 -0.2,0.3 -0.5,0.6 -0.8,0.9 -0.8,1 -1.7,1.9 -2.3,3 -0.5,0.9 -0.9,1.9 -1.1,3 -0.4,2.4 0.9,4.1 3.3,4.8 1.7,0.5 3.4,0.6 5.2,0.5 0.3,0 0.5,0 0.8,0 0.1,0 0.1,0.1 0.1,0.2 -0.2,0.2 -0.4,0.4 -0.6,0.6 -1.5,1.4 -3.1,2.6 -4.5,4.1 -1.7,1.7 -2.1,3.9 -1.8,6.2 0.1,0.4 0.3,0.8 0.5,1.2 0.4,0.6 0.9,0.9 1.7,0.8 2.9,-0.3 4.9,-1.9 6.4,-4.2 0.4,-0.7 0.8,-1.4 1.2,-2 0.1,0 0.1,0.1 0.2,0.1 -0.4,0.8 -0.7,1.7 -1.2,2.5 -1.5,2.7 -3.8,4.8 -6.1,6.9 -2.4,2.1 -4.8,4.1 -7,6.4 -2.8,2.9 -4.2,6.4 -4.4,10.4 -0.1,2.4 0.6,4.5 1.9,6.4 0.1,0.1 0,0.2 -0.2,0.2 -4.6,-2.2 -9.5,-2.7 -14.6,-2.8 0.4,-0.2 0.5,-0.3 0.7,-0.4 3.7,-2.4 7.1,-5 9.3,-8.7 z m -20.1,-36 c 0.8,-1.3 1.9,-2.4 3.3,-3.1 2.4,-1.2 5,-2.3 7.5,-3.4 0.8,-0.3 1.6,-0.6 2.2,-0.9 0.1,0 0.2,0.1 0.1,0.2 -0.8,0.9 -1.8,2 -2.9,3.1 -1.6,1.6 -3.6,2.4 -5.7,3 -1.5,0.4 -2.9,0.9 -4.3,1.3 -0.2,0 -0.3,-0.1 -0.2,-0.2 z">
      </path>
      <path style="fill:#9b6550" id="path48" d="m 984.2,585.9 c -5.6,-0.8 -3.7,-1.3 -1.4,-4.8 2.3,-3.4 19.6,-33 49.7,-22.2 0,0 -35.9,7.2 -29.2,22.2 5.9,13.1 33.3,-0.3 36.2,-8.9 0,0 11.3,17.9 9,32.4 0,0 -3.6,-17.4 -14.4,-17.7 -10.8,-0.3 -20.7,11.2 -35.3,-1.5 0,0 16.8,29.5 7.6,45.5 l -7.9,3.2 c 0,0 -10.3,-0.8 -13.3,1.1 -3,2 0,-4.4 8.7,-8 8.7,-3.6 8.7,-9.7 6.7,-12.5 -2,-2.8 -3,-8.5 0.7,-15.3 1.2,-2.1 -1.4,-0.3 -5.5,-0.3 -4.1,0 -3.5,-3.5 -2,-7.7 1.5,-4.3 0.2,-9 -0.9,-10.3 0.1,0 -3.1,5.6 -8.7,4.8 z">
      </path>
      <path style="fill:#9b6550" id="path50" d="m 972,571.5 c -0.1,0.1 -0.1,0.1 0,0 -3.6,2.5 -8.3,5.1 -14.3,7.4 -0.1,0 -0.2,-0.1 -0.1,-0.2 1.4,-2.2 9.6,-15.1 7.5,-21.2 0,-0.1 0,-0.1 0.1,-0.2 1.3,-0.2 11.8,-1.5 15.6,6.5 0,0 0,0.1 0,0.1 l -4.3,4 c -0.1,0.1 -0.2,0 -0.2,-0.1 -0.1,-0.7 -0.6,-2.7 -2.4,-4.1 -0.7,-0.5 -1.1,-0.7 -1.4,-0.8 -0.1,0 -0.2,0.1 -0.1,0.2 1.8,3.8 -0.3,8.1 -0.4,8.4 z">
      </path>
      <path style="fill:#9b6550" id="path52" d="m 1019.8,576.2 c 8.5,2 15.7,-4.8 16.9,-6.1 0.1,-0.1 0.2,0 0.2,0.1 -0.3,4 -22.5,20.8 -28.6,8.9 -6.2,-12.2 39.9,-23.6 51.9,-17.7 12,5.9 21.4,15.3 27.3,53.2 1.7,11.1 1.9,19.4 1.1,25.6 -0.4,2.9 -0.5,5.7 -1.5,8.4 -2,6 -7.2,10.1 -13.6,9.9 -3.4,-0.1 -6.7,-1.4 -9.4,-3.4 -3.4,-2.5 -5.9,-6.2 -6.7,-10.3 -1.4,-7 2.9,-15.6 10.7,-16 3.8,-0.2 6.9,1.5 9,4.7 2.2,3.3 2.6,8.1 0.3,11.2 -1.8,2.3 -4.5,3.8 -7.5,4.1 -0.3,0 -0.5,-0.1 -0.7,-0.2 -0.6,-0.4 3.8,-2.1 3.6,-4.5 0,0 0,0 0,0 -1.4,-6.7 -13.2,-0.5 -6.2,6.6 5.9,5.9 16.4,-3.5 13.8,-15.1 -1.8,-7.8 -9.6,-9.2 -10.6,-9.4 -0.1,0 -0.1,-0.1 -0.1,-0.1 -2.9,-37.4 -16.1,-52.8 -27.8,-58 -11.5,-5.1 -31.5,6 -22.1,8.1 z">
      </path>
      <path style="fill:#9b6550" id="path54" d="m 1036.1,550.6 c -0.1,-0.1 -0.1,-0.2 0.1,-0.2 2.7,0.2 16.1,1.6 23.4,7.8 0.1,0.1 0,0.2 -0.1,0.2 -2,-0.5 -10.7,-2 -22.7,0.9 0,0 -0.1,0 -0.1,0 l -6.6,-3.3 c -0.1,-0.1 -0.1,-0.2 0.1,-0.2 l 11,-0.2 c 0.1,0 0.1,-0.1 0.1,-0.2 -0.9,-1.9 -4.1,-4.1 -5.2,-4.8 z">
      </path>
      <path style="fill:#9b6550" id="path56" d="m 1027.6,590.2 c 10,-4.1 16.9,7.4 18,12.8 0,0 -6.6,-10.5 -15.9,-6.1 -9.3,4.4 -17.7,-2.4 -19.2,-3.2 0,-0.1 7.2,0.6 17.1,-3.5 z">
      </path>
      <path style="fill:#9b6550" id="path58" d="m 1063.3,704.3 c 0,-0.1 0.1,-0.1 0.2,0 1,0.6 9.4,5.4 19.2,6.3 0.1,0 0.1,0.1 0.1,0.1 l -8.6,47.3 c 0,0.1 -0.1,0.1 -0.1,0.1 -0.6,0 -3.5,0 -6.2,2.3 -0.1,0.1 -0.2,0 -0.2,-0.1 l -0.9,-21.2 c 0,-0.8 -1.1,-0.9 -1.3,-0.2 l -5.2,16.8 c 0,0.1 -0.3,0.1 -0.2,0 0.5,-3.4 1.5,-11.2 0.7,-15.7 -1.2,-6.1 -2,-26.4 2.5,-35.7 z">
      </path>
      <path style="fill:#9b6550" id="path60" d="m 1024.4,754.5 c 0.5,0.1 1.3,-0.1 1.7,-0.5 5.7,-6.3 9.5,-13.5 9.7,-22.3 0.2,-5.7 -0.4,-11.3 -1.4,-16.8 l 0,-0.1 -5.5,-22 c 0,-0.1 0.1,-0.2 0.2,-0.1 l 8.1,5.4 c 0,0 0,0 0,0.1 3,14.4 9.3,25.4 9.8,26.1 0,0 0,0.1 0,0.1 l -5.1,17.3 c -0.1,0.5 -0.3,1.1 -0.5,1.6 -2.1,6.2 -4.2,12.3 -6.3,18.6 0,0.1 -0.1,0.1 -0.1,0.1 -1,-0.2 -1.5,-0.3 -2.1,-0.4 -3.6,-0.7 -6.4,0.6 -7.7,4 -1.1,2.7 -1.6,5.6 -2.3,8.5 -0.2,0.7 -0.2,1.5 -0.2,2.2 0,0.1 -0.1,0.1 -0.2,0.1 -3.5,-3.1 -4.1,-8.6 -1.7,-15.4 0,-0.1 0,-0.2 -0.1,-0.2 -3.4,-0.1 -6.7,0 -9.5,1.9 -1.2,0.8 -2.3,2.3 -2.8,3.7 -0.9,2.4 -1.3,5 -2,7.7 0,0.1 -0.2,0.1 -0.2,0 -1.5,-3.1 -1.7,-6.1 -0.8,-9.1 2.4,-7.7 11.2,-12.6 19,-10.5 z">
      </path>
      <path style="fill:#9b6550" id="path62" d="m 1114.6,772 c 0.1,0.2 0,0.5 -0.2,0.5 -3.5,0.5 -4,-4.1 -4,-6.8 0,-4.5 1.9,-9.1 5.2,-12.1 4.2,-3.7 9.3,-5.3 14.5,-6.6 8,-2.1 13.6,-7.4 18.5,-13.6 2.1,-2.7 3.4,-5.7 4.3,-9 1.1,-3.9 2.1,-7.8 3.2,-11.8 0.1,0.1 0.2,0.2 0.2,0.3 0.5,7 0.5,13.9 -1.4,20.7 -0.7,2.6 -2,4.8 -3.9,6.8 -2.3,2.5 -4.6,5 -6.8,7.5 -2.4,2.6 -3.7,5.6 -3.4,9.2 0.4,5.7 -2.6,9.7 -6.6,13.3 -0.2,0.2 -0.6,0 -0.5,-0.3 0.5,-2 1,-3.8 1.3,-5.6 0.2,-1.1 0.2,-2.4 -0.1,-3.4 -1.2,-3.6 -1.5,-7.1 -0.1,-10.6 0.1,-0.2 -0.1,-0.4 -0.3,-0.4 -9.7,0.7 -10.1,9.2 -10.1,10.7 0,0.1 -0.1,0.2 -0.2,0.3 -0.5,0.2 -2.3,0.9 -7.2,3.6 -5,2.9 -3.2,6.2 -2.4,7.3 z">
      </path>
      <path style="fill:#9b6550" id="path64" d="m 1004.8,755.2 c 1.7,-1.6 4.1,-1.8 6.2,-2.4 2.3,-0.7 4.4,-2 6.2,-3.5 2.4,-2.1 4.9,-4.3 6.8,-7 1.9,-2.7 2.5,-6 3,-9.2 1.1,-6.3 -0.2,-14.3 -0.9,-19.6 -0.1,-0.4 0.5,-0.5 0.6,-0.2 l 1.5,4.4 c 2.6,7.7 3,12 3.4,18.4 0.4,6 -3.1,11.8 -6.8,16.3 0,0 -0.1,0 -0.1,0 -2.5,-0.1 -5.2,0.1 -7.7,0.5 -1.8,0.3 -3.7,0.7 -5.2,1.8 -1.5,1 -2.9,2.4 -4.3,3.6 -0.6,0.6 -1.6,0.5 -2.4,0.7 -2.2,0.6 -3.8,2.7 -4.6,4.7 -0.2,0.6 -0.4,1.1 -0.9,1.7 0,-0.4 -0.1,-0.8 0,-1.1 0.8,-3.7 2.6,-6.7 5.2,-9.1 z">
      </path>
      <path style="fill:#9b6550" id="path66" d="m 1156.1,696.6 c 0,0 0,0 0,0 0,0 0,0 0,0 l 0,0 0,0 0,0 c 0,0 0,0 0,0 0.1,0 0.1,0 0.2,-0.1 0.1,0 0.1,-0.1 0.2,-0.1 0.3,-0.2 0.8,-0.5 1.4,-1.2 0.3,-0.3 0.7,-0.8 1,-1.3 0.2,-0.3 0.4,-0.5 0.6,-0.8 0.1,-0.1 0.2,-0.3 0.3,-0.5 l 0.1,-0.1 0,-0.1 c 0.1,-0.2 -0.1,0.2 -0.1,0.2 l 0,0 c 0.1,-0.1 0.1,-0.2 0.2,-0.3 0.2,-0.4 0.5,-0.9 0.8,-1.3 0.1,-0.2 0.3,-0.5 0.4,-0.7 0.1,-0.1 0.1,-0.2 0.2,-0.3 l 0.1,-0.3 c 0.4,-0.8 0.8,-1.5 1.2,-2.5 0.2,-0.5 0.4,-0.9 0.6,-1.4 0.2,-0.5 0.4,-1 0.6,-1.5 0.1,-0.3 0.2,-0.5 0.3,-0.8 0.1,-0.3 0.2,-0.5 0.3,-0.8 0.2,-0.6 0.4,-1.1 0.5,-1.7 0.6,-2.3 1.2,-4.9 1.5,-7.6 0.4,-2.7 0.5,-5.7 0.5,-8.7 0,-3.1 -0.2,-6.3 -0.7,-9.7 -0.1,-0.8 -0.2,-1.6 -0.4,-2.4 -0.2,-0.9 -0.3,-1.8 -0.5,-2.8 -0.2,-0.8 -0.4,-1.7 -0.5,-2.5 -0.2,-0.9 -0.4,-1.8 -0.7,-2.6 -0.3,-1.1 -0.6,-2.2 -0.9,-3.3 -0.2,-0.5 0.4,-1 0.9,-0.9 l 13.5,4.5 c 0.2,0.1 0.4,0.3 0.5,0.5 0.1,0.5 0.3,0.9 0.4,1.4 0.2,0.9 0.5,1.8 0.7,2.7 0.2,1 0.4,2 0.7,3 0.8,3.9 1.3,7.7 1.5,11.4 0.2,3.7 0.3,7.3 0,10.8 -0.3,3.4 -0.7,6.7 -1.4,9.8 -0.2,0.8 -0.4,1.5 -0.5,2.3 -0.1,0.4 -0.2,0.7 -0.3,1.1 -0.1,0.4 -0.2,0.7 -0.3,1.1 -0.2,0.7 -0.4,1.4 -0.6,2.1 -0.2,0.7 -0.5,1.3 -0.7,2 -0.4,1.3 -1,2.6 -1.6,3.8 -0.1,0.2 -0.1,0.3 -0.2,0.5 -0.1,0.2 -0.1,0.3 -0.2,0.4 -0.1,0.2 -0.2,0.5 -0.3,0.7 -0.2,0.5 -0.5,0.9 -0.7,1.4 -0.1,0.1 -0.1,0.2 -0.2,0.3 -0.1,0.2 -0.2,0.4 -0.3,0.6 -0.1,0.3 -0.3,0.5 -0.4,0.8 -0.3,0.5 -0.6,1 -0.9,1.5 -0.6,1 -1.3,1.9 -1.9,2.7 -1.3,1.7 -2.8,3.1 -4.2,4.2 -0.3,0.3 -0.7,0.5 -1,0.7 -0.3,0.2 -0.6,0.4 -0.9,0.6 -0.2,0.1 -0.3,0.2 -0.4,0.3 l -0.1,0.1 -0.1,0.1 c -0.1,0 -0.2,0.1 -0.3,0.1 -0.3,0.2 -0.6,0.3 -0.9,0.4 -0.1,0 -0.1,0.1 -0.2,0.1 -0.4,0.2 -0.8,0 -0.9,-0.4 l -6,-14.5 c -0.4,-0.4 -0.2,-0.9 0.1,-1 z">
      </path>
      <path style="fill:#9b6550" id="path68" d="m 1168.1,554.3 c -1.2,0.2 -3.2,0.5 -4.1,1 -0.4,0.2 -0.8,0 -0.9,-0.4 -2.3,-9.5 -3.1,-18.8 -10.2,-26.2 -3.8,-3.9 -11.8,-6.1 -15.6,-1 -2.6,3.5 -2.9,8.7 -2.5,12.8 1.6,17.4 10.2,33.6 18.5,48.6 4.3,7.8 8.7,15.4 12.7,23.2 4,7.7 7.4,15.6 10,23.4 0.2,0.6 0.6,2 0.8,2.9 0.1,0.4 -0.3,0.7 -0.6,0.6 l -13.8,-4.3 c -0.2,-0.1 -0.3,-0.2 -0.4,-0.4 -1.7,-5.6 -4,-11.4 -6.5,-17.2 -3.3,-7.6 -7.2,-15.4 -11.1,-23.5 -1.9,-4.1 -3.9,-8.2 -5.7,-12.4 -4.2,-9.6 -8.4,-19.4 -10.3,-29.8 -1.8,-10 -4.1,-25.9 6,-32.4 1.5,-1 3.2,-1.6 5,-2 6.1,-1.3 13.1,0.4 17.9,4.3 5.5,4.4 8.4,12.1 9.7,18.8 0.7,3.8 1.8,10.8 2.2,13.2 -0.3,0.3 -0.6,0.8 -1.1,0.8 z">
      </path>
      <path style="fill:#9b6550" id="path70" d="m 1177.1,577.5 c -0.5,-2.1 -1.5,-6.6 -4.6,-5 -2.2,1.1 -1.7,5 -0.3,6.6 4.8,5.4 7,18.3 5.4,24 -0.1,0.4 -0.7,0.3 -0.7,-0.1 -0.4,-3.4 -2.1,-11.4 -9.8,-16.2 -10,-6.1 -7.6,-19.7 -7.6,-19.7 0,0 0.9,-5 4.8,-7.6 1.5,-1 3.3,-1.6 5.7,-1.5 0.1,0 0.1,0 0.2,0 8.6,0.4 11.6,6.5 11.7,16.8 0.1,6 1.8,9.7 3,11.6 0.2,0.3 -0.2,0.7 -0.5,0.5 -3.5,-2.6 -6.2,-5.2 -7.3,-9.4 z">
      </path>
    </g>
    <text style="font-size:30px;line-height:125%;font-family:ArialMT;text-align:center;text-anchor:middle;fill:#9b6550" id="text7311" font-size="30" x="824.9184" y="833.25372">
      <tspan id="text21" style="font-style:normal;font-variant:normal;font-weight:normal;font-stretch:normal;font-size:30px;line-height:125%;font-family:Anton;-inkscape-font-specification:'Anton, Normal';text-align:center;writing-mode:lr-tb;text-anchor:middle">
        "If ever you feel like an animal among men, be a lion.”
      </tspan>
    </text>
  </g>
</svg>