<?xml version="1.0" encoding="UTF-8" standalone="no"?>
<svg xmlns:dc="http://purl.org/dc/elements/1.1/" xmlns:cc="http://creativecommons.org/ns#"
     xmlns:rdf="http://www.w3.org/1999/02/22-rdf-syntax-ns#" xmlns:svg="http://www.w3.org/2000/svg"
     xmlns="http://www.w3.org/2000/svg" xmlns:xlink="http://www.w3.org/1999/xlink" version="1.1" viewBox="0 0 1600 1000"
     height="1000" width="1600" id="svg1680">
    <metadata id="metadata10">
        <rdf:RDF>
            <cc:Work rdf:about="">
                <dc:format>image/svg+xml</dc:format>
                <dc:type rdf:resource="http://purl.org/dc/dcmitype/StillImage"/>
                <dc:title></dc:title>
            </cc:Work>
        </rdf:RDF>
    </metadata>
    <defs id="defs8">
        <linearGradient gradientUnits="userSpaceOnUse" y2="1486.6922" x2="231.65216" y1="1413.0862" x1="231.65216"
                        id="grad559" xlink:href="#grad558"/>
        <linearGradient id="grad558">
            <stop id="stop8054" stop-opacity="1" stop-color="#d9dadb" offset="0%"/>
            <stop id="stop8056" stop-opacity="1" stop-color="#b1b3b4" offset="100%"/>
        </linearGradient>
        <linearGradient gradientUnits="userSpaceOnUse" gradientTransform="scale(0.8664399,1.1541481)" y2="1277.9332"
                        x2="288.12662" y1="1234.5566" x1="288.12662" id="grad561" xlink:href="#grad560"/>
        <linearGradient id="grad560">
            <stop id="stop8068" stop-opacity="1" stop-color="#2d9cc1" offset="0%"/>
            <stop id="stop8070" stop-opacity="1" stop-color="#57c4e4" offset="100%"/>
        </linearGradient>
        <linearGradient gradientUnits="userSpaceOnUse" gradientTransform="scale(2.6295856,0.38028805)" y2="3964.2589"
                        x2="79.603606" y1="3918.9685" x1="79.603606" id="grad563" xlink:href="#grad560"/>
        <linearGradient gradientUnits="userSpaceOnUse" y2="1433.1204" x2="288.8452" y1="1416.5028" x1="288.8452"
                        id="grad565" xlink:href="#grad560"/>
        <linearGradient gradientUnits="userSpaceOnUse" gradientTransform="scale(0.90617052,1.1035451)" y2="1293.4796"
                        x2="326.80648" y1="1284.0635" x1="326.80648" id="grad567" xlink:href="#grad566"/>
        <linearGradient id="grad566">
            <stop id="stop8102" stop-opacity="1" stop-color="#cadbe5" offset="0%"/>
            <stop id="stop8104" stop-opacity="1" stop-color="#d4ebf3" offset="100%"/>
        </linearGradient>
        <clipPath id="jd_bd" clipPathUnits="userSpaceOnUse">
            <path id="path4191" d="m 840.56268,782.28467 133.66591,0 0,121.05735 -133.66591,0 z"
                  style="opacity:0.97000002;fill:none;fill-opacity:1;stroke:#000000;stroke-width:0.98475623;stroke-linecap:butt;stroke-linejoin:miter;stroke-miterlimit:4;stroke-dasharray:none;stroke-dashoffset:0;stroke-opacity:1"/>
        </clipPath>
    </defs>
    <image xlink:href="/designs/templates/002000801-0.jpg" id="jd_bg" height="1000" width="1600"
           style="stroke-width:1;stroke-miterlimit:4;stroke-dasharray:none"/>
    <g id="jd_nt" clip-path="url(#clipPath4189)">
        <g id="g8049" transform="translate(638.57763,-620.3747)">
            <defs id="defs8051">
                <linearGradient id="linearGradient9127">
                    <stop id="stop9129" stop-opacity="1" stop-color="#d9dadb" offset="0%"/>
                    <stop id="stop9131" stop-opacity="1" stop-color="#b1b3b4" offset="100%"/>
                </linearGradient>
                <linearGradient gradientUnits="objectBoundingBox"
                                gradientTransform="matrix(0.30901699,0.95105652,-0.95105652,0.30901699,0.82101976,-0.13003676)"
                                y2="1" x2="0" y1="0" x1="0" id="linearGradient9133" xlink:href="#grad558"/>
            </defs>
            <path id="path8059" style="fill:url(#grad559)"
                  d="m 268.4548,1413.0898 c 7.1742,0 13.868,2.0557 19.5285,5.6073 -0.9456,1.4151 -1.5718,3.0613 -1.7771,4.8356 -5.0685,-3.421 -11.1772,-5.4182 -17.7513,-5.4182 -17.5477,0 -31.7782,14.2305 -31.7782,31.7782 0,17.5477 14.2305,31.7784 31.7782,31.7784 17.5477,0 31.7783,-14.2307 31.7783,-31.7784 0,-5.0488 -1.1801,-9.8221 -3.2762,-14.0618 0.0655,0 0.1312,0 0.197,0 1.7354,0 3.3768,-0.402 4.8374,-1.1169 2.0978,4.6273 3.2665,9.7656 3.2665,15.1761 0,20.3223 -16.4807,36.8031 -36.8031,36.8031 -20.3222,0 -36.8028,-16.4808 -36.8028,-36.8031 0,-20.3223 16.4806,-36.8029 36.8028,-36.8029 z"/>
            <path id="path8061" style="fill:none"
                  d="m 268.4549,1419.1864 c 16.9558,0 30.7064,13.7505 30.7064,30.7063 0,16.9558 -13.7506,30.7065 -30.7064,30.7065 -16.9558,0 -30.7063,-13.7507 -30.7063,-30.7065 0,-16.9558 13.7505,-30.7063 30.7063,-30.7063 z"/>
            <path id="path8063" style="fill:#6e7071;fill-rule:evenodd"
                  d="m 293.4864,1456.49 c 0,6.7178 -20.6829,12.1965 -46.0426,12.1965 -0.9282,0 -1.8491,-0.01 -2.7641,-0.023 21.3527,-0.3807 38.3752,-5.702 38.3752,-12.1737 0,-6.472 -17.0225,-11.7933 -38.3752,-12.1739 0.915,-0.015 1.8359,-0.023 2.7641,-0.023 25.3597,0 46.0426,5.4787 46.0426,12.1968 z m -50.063,-13.1899 c 0,6.7178 20.6834,12.1966 46.0423,12.1966 0.9285,0 1.8497,-0.01 2.7646,-0.023 -21.3528,-0.3807 -38.3755,-5.702 -38.3755,-12.1737 0,-6.472 17.0227,-11.7933 38.3755,-12.1739 -0.9149,-0.015 -1.8361,-0.023 -2.7646,-0.023 -25.3589,0 -46.0423,5.4787 -46.0423,12.1968 z"/>
            <defs id="defs8065">
                <linearGradient id="linearGradient9139">
                    <stop id="stop9141" stop-opacity="1" stop-color="#2d9cc1" offset="0%"/>
                    <stop id="stop9143" stop-opacity="1" stop-color="#57c4e4" offset="100%"/>
                </linearGradient>
                <linearGradient gradientUnits="objectBoundingBox" gradientTransform="matrix(-1,0,0,-1,1,1)" y2="1"
                                x2="0" y1="0" x1="0" id="linearGradient9145" xlink:href="#grad560"/>
            </defs>
            <path id="path8073" style="fill:url(#grad561)"
                  d="m 275.0309,1424.8612 c 6.7178,0 12.1967,20.6832 12.1967,46.0425 0,0.9283 -0.008,1.8493 -0.0227,2.7644 -0.381,-21.3528 -5.7022,-38.3755 -12.174,-38.3755 -6.4717,0 -11.7929,17.0227 -12.1738,38.3755 -0.0145,-0.9151 -0.0228,-1.8361 -0.0228,-2.7644 0,-25.3593 5.4789,-46.0425 12.1966,-46.0425 z m -13.1899,50.063 c 6.7178,0 12.1967,-20.683 12.1967,-46.0424 0,-0.9283 -0.008,-1.8493 -0.0227,-2.7643 -0.381,21.3526 -5.7022,38.3754 -12.174,38.3754 -6.4717,0 -11.7929,-17.0228 -12.1738,-38.3754 -0.0145,0.915 -0.0228,1.836 -0.0228,2.7643 0,25.3594 5.4789,46.0424 12.1966,46.0424 z"/>
            <defs id="defs8075">
                <linearGradient id="linearGradient9149">
                    <stop id="stop9151" stop-opacity="1" stop-color="#2d9cc1" offset="0%"/>
                    <stop id="stop9153" stop-opacity="1" stop-color="#57c4e4" offset="100%"/>
                </linearGradient>
                <linearGradient gradientUnits="objectBoundingBox" gradientTransform="matrix(-1,0,0,-1,1,1)" y2="1"
                                x2="0" y1="0" x1="0" id="linearGradient9155" xlink:href="#grad560"/>
            </defs>
            <path id="path8087" style="fill:#c5c7c8;fill-rule:evenodd"
                  d="m 209.4877,1510.2013 119.2058,0 0,0.7505 -119.2058,0 0,-0.7505 z"/>
            <defs id="defs8089">
                <linearGradient id="linearGradient9161">
                    <stop id="stop9163" stop-opacity="1" stop-color="#2d9cc1" offset="0%"/>
                    <stop id="stop9165" stop-opacity="1" stop-color="#57c4e4" offset="100%"/>
                </linearGradient>
                <linearGradient gradientUnits="objectBoundingBox" gradientTransform="matrix(-1,0,0,-1,1,1)" y2="1"
                                x2="0" y1="0" x1="0" id="linearGradient9167" xlink:href="#grad560"/>
            </defs>
            <path id="path8097" style="fill:url(#grad565)"
                  d="m 297.154,1416.5028 c 4.588,0 8.3088,3.7207 8.3088,8.3088 0,4.588 -3.7208,8.3088 -8.3088,8.3088 -4.5881,0 -8.3088,-3.7208 -8.3088,-8.3088 0,-4.5881 3.7207,-8.3088 8.3088,-8.3088 z"/>
            <defs id="defs8099">
                <linearGradient id="linearGradient9171">
                    <stop id="stop9173" stop-opacity="1" stop-color="#cadbe5" offset="0%"/>
                    <stop id="stop9175" stop-opacity="1" stop-color="#d4ebf3" offset="100%"/>
                </linearGradient>
                <linearGradient gradientUnits="objectBoundingBox" gradientTransform="matrix(-1,0,0,-1,1,1)" y2="1"
                                x2="0" y1="0" x1="0" id="linearGradient9177" xlink:href="#grad566"/>
            </defs>
            <path id="path8107" style="fill:url(#grad567)"
                  d="m 297.222,1417.0219 c 4.1155,0 7.453,3.3375 7.453,7.453 0,1.0434 -0.215,2.0365 -0.6024,2.9381 0.0481,-0.3815 0.0732,-0.77 0.0732,-1.1646 0,-4.6808 -3.4864,-8.5484 -8.0034,-9.1484 0.3526,-0.051 0.7128,-0.078 1.0796,-0.078 z"/>
            <text id="text9288" y="1506.1403" x="266.99918">
                <tspan style="font-style:normal;font-variant:normal;font-weight:normal;font-stretch:normal;font-size:22.5px;line-height:125%;font-family:Ewert;-inkscape-font-specification:'Ewert, Normal';text-align:center;writing-mode:lr-tb;text-anchor:middle;fill:#00afde;fill-opacity:1;stroke:#da1d00;stroke-opacity:0.11671926"
                       y="1506.1403" x="266.99918" id="text01">WG
                </tspan>
            </text>
        </g>
    </g>
</svg>
 

