<?xml version="1.0" encoding="UTF-8" standalone="no"?>
<?xml-stylesheet type="text/css" href="https://fonts.googleapis.com/css?family=HelveticaNeueLTPro-Th"?>
<svg xmlns:dc="http://purl.org/dc/elements/1.1/" xmlns:cc="http://creativecommons.org/ns#"
     xmlns:rdf="http://www.w3.org/1999/02/22-rdf-syntax-ns#" xmlns:svg="http://www.w3.org/2000/svg"
     xmlns="http://www.w3.org/2000/svg" xmlns:xlink="http://www.w3.org/1999/xlink" version="1.1" id="svg1682" x="0px"
     y="0px" viewBox="0 0 1600 1000" style="enable-background:new 0 0 1600 1000;">
    <metadata id="metadata18">
        <rdf:RDF>
            <cc:Work rdf:about="">
                <dc:format>image/svg+xml</dc:format>
                <dc:type rdf:resource="http://purl.org/dc/dcmitype/StillImage"/>
                <dc:title></dc:title>
            </cc:Work>
        </rdf:RDF>
    </metadata>
    <defs id="defs16">
        <clipPath id="clipPath4144" clipPathUnits="userSpaceOnUse">
            <path id="jd_bd" d="m 623.80951,473.01587 404.76189,0 0,434.92062 -404.76189,0 z"
                  style="opacity:1;fill:none;fill-opacity:1;stroke:#ffffff;stroke-width:2.21399999;stroke-linecap:butt;stroke-linejoin:miter;stroke-miterlimit:4;stroke-dasharray:none;stroke-dashoffset:0;stroke-opacity:1"/>
        </clipPath>
    </defs>
    <style type="text/css" id="style3">
        .st0{fill:none;stroke:#FFFFFF;stroke-width:2.9534;stroke-dasharray:11.8138,2.9534;}
        .st1{fill:#FF9966;}
        .st2{font-family:'HelveticaNeueLTPro-Th';}
        .st3{font-size:41.6307px;}
    </style>
    <image xlink:href="/designs/templates/002000101-2.jpg" style="overflow:visible;enable-background:new    ;"
           width="600" height="400" id="jd_bg" transform="matrix(2.6165 0 0 2.6165 15.0453 -23.3031)"/>
    <g clip-path="url(#clipPath4144)" id="jd_nt">
        <svg id="svg8" preserveAspectRatio="xMidYMid meet" height="361.14658" width="319.01154" y="507.44382"
             x="672.44867" viewBox="0 0 319.01154 361.14658" version="1.1">
            <image xlink:href="/designs/templates/girl1.png" id="image21" height="361.14658" width="319.01154"/>
        </svg>
        <g id="g8" transform="matrix(1.2162361,0,0,1.3276346,-171.30902,-206.69873)">
            <path class="st1"
                  d="m 976.5,549.5 c -0.4,-0.2 -0.9,0 -1.1,0.4 -0.2,0.4 0,0.9 0.4,1.1 1.9,0.8 3.9,-0.4 4.9,-2.8 1,-2.5 -0.7,-4.7 -2.7,-5.5 -2.9,-1.2 -5.1,0.8 -6.7,3.1 l 0,-11.2 6.3,0 c 0.4,0 0.8,-0.4 0.8,-0.8 0,-0.4 -0.4,-0.8 -0.8,-0.8 l -6.3,0 0,-4.8 6.1,0 c 0.4,0 0.3,0.1 0.3,-0.3 l 0,-6.4 c 0,-0.4 0.1,-1.3 -0.3,-1.3 l -6.4,0 c -0.4,0 -1.3,0.8 -1.3,1.3 l 0,5.2 -4.7,0 0,-5 c 0,-0.4 -0.4,-0.8 -0.8,-0.8 -0.4,0 -0.8,0.4 -0.8,0.8 l 0,5 -9,0 c 2.2,-1.6 2.7,-2.6 2.9,-3.6 0.2,-1.6 -0.5,-3.1 -1.8,-4.1 -1.2,-0.9 -2.7,-1 -4.1,-0.5 -1.2,0.5 -2,1.2 -2.6,2.1 -0.5,0.9 -0.6,1.9 -0.2,2.8 0.2,0.4 0.6,0.6 1,0.4 0.4,-0.2 0.6,-0.6 0.4,-1 -0.2,-0.6 -0.1,-1.1 0.1,-1.4 0.3,-0.6 1,-1.1 1.8,-1.4 1.2,-0.5 2.1,0 2.5,0.3 0.8,0.6 1.3,1.7 1.2,2.8 -0.2,1.2 -1.1,2 -2.6,2.6 -1.6,0.7 -3.8,0.9 -6.3,0.9 l -3.5,0 c -1.1,0 -1.8,-0.7 -2.1,-1.2 -0.4,-0.6 -0.6,-1.2 -0.5,-1.8 0.1,-0.5 0.3,-0.9 0.7,-1.1 0.4,-0.3 0.9,-0.3 1.4,-0.2 1.2,0.3 1.2,1.1 1.1,1.3 -0.1,0.4 0.2,0.8 0.7,0.9 0.4,0.1 0.8,-0.2 0.9,-0.7 0.1,-0.9 -0.2,-2.6 -2.4,-3.1 -0.9,-0.2 -1.9,0 -2.6,0.5 -0.8,0.5 -1.2,1.3 -1.4,2.2 -0.2,1 0.1,1.9 0.8,2.9 0.1,0.2 0.3,0.2 0.4,0.2 l -7.3,0 0,-5.2 c 0,-0.4 -0.5,-1.3 -0.9,-1.3 l -216.7,0 c -0.4,0 -0.7,0.8 -0.7,1.3 l 0,5.2 -7.5,0 c 0.1,0 0.3,-0.1 0.4,-0.2 0.7,-1 1,-2 0.8,-3 -0.2,-1 -0.7,-1.7 -1.4,-2.2 -0.8,-0.5 -1.7,-0.7 -2.6,-0.5 -2.2,0.5 -2.5,2.2 -2.4,3.1 0.1,0.4 0.5,0.7 0.9,0.7 0.4,-0.1 0.7,-0.5 0.7,-0.9 0,-0.1 -0.1,-1 1.1,-1.3 0.5,-0.1 1,0 1.4,0.3 0.4,0.3 0.6,0.7 0.7,1.2 0.1,0.6 -0.1,1.1 -0.5,1.7 -0.4,0.5 -1,1.2 -2.1,1.2 l -3.5,0 c -2.5,0 -4.8,-0.2 -6.3,-0.9 -1.5,-0.6 -2.5,-1.5 -2.6,-2.8 -0.1,-1 0.3,-2.1 1.2,-2.7 0.4,-0.3 1.3,-0.8 2.5,-0.3 0.8,0.3 1.5,0.9 1.8,1.4 0.2,0.3 0.4,0.9 0.1,1.4 -0.2,0.4 0,0.9 0.4,1.1 0.4,0.2 0.9,0 1.1,-0.4 0.4,-0.9 0.3,-1.9 -0.2,-2.8 -0.5,-0.9 -1.4,-1.6 -2.6,-2.1 -1.4,-0.6 -2.9,-0.4 -4.1,0.5 -1.3,1 -2,2.4 -1.8,4 0.1,0.9 0.7,2 2.9,3.6 l -8.7,0 0,-5 c 0,-0.4 -0.4,-0.8 -0.8,-0.8 -0.4,0 -0.8,0.4 -0.8,0.8 l 0,5 -4.8,0 0,-5.2 c 0,-0.4 -1.1,-1.3 -1.6,-1.3 l -6.4,0 c -0.4,0 0,0.8 0,1.3 l 0,6.4 c 0,0.4 -0.4,0.3 0,0.3 l 6.4,0 0,4.8 -6.6,0 c -0.4,0 -0.8,0.4 -0.8,0.8 0,0.4 0.4,0.8 0.8,0.8 l 6.6,0 0,11.2 c -1.6,-2.4 -3.9,-4.4 -6.8,-3.1 -1.9,0.8 -3.6,3 -2.6,5.5 1,2.4 3,3.6 4.8,2.8 0.4,-0.2 0.6,-0.6 0.4,-1.1 -0.2,-0.4 -0.7,-0.6 -1.1,-0.4 -1,0.4 -2.2,-0.4 -2.8,-1.9 -0.7,-1.6 0.3,-2.9 1.5,-3.4 1.3,-0.6 3.3,-0.3 4.4,2.4 0.9,2.2 1.2,5.6 1.2,9.3 0,0 0,0 0,0 -0.2,1.4 -0.9,2.2 -1.5,2.6 -0.6,0.4 -1.3,0.6 -1.9,0.5 -0.5,-0.1 -0.9,-0.3 -1.2,-0.7 -0.3,-0.4 -0.4,-0.9 -0.3,-1.4 0.3,-1.2 1.1,-1.2 1.3,-1.1 0.4,0.1 0.8,-0.2 0.9,-0.7 0.1,-0.4 -0.2,-0.8 -0.7,-0.9 -0.9,-0.1 -2.6,0.2 -3.1,2.4 -0.2,0.9 0,1.9 0.5,2.6 0.5,0.8 1.3,1.2 2.2,1.4 0.2,0 0.4,0.1 0.6,0.1 0.9,0 1.7,-0.3 2.5,-0.8 0.2,-0.1 0.4,-0.3 0.6,-0.5 0,1 0,1.3 0,2.3 0,1.4 0,3.5 0,3.5 l -5.3,0 c -0.4,0 0,1.8 0,2.2 l 0,216 c 0,0.4 -0.4,0 0,0 l 5.3,0 c 0,1.6 0,3.2 0,4.6 0,1 0,2.2 0,3.2 -0.2,-0.2 -0.4,-0.3 -0.6,-0.4 -1,-0.7 -2.1,-0.9 -3.1,-0.7 -1,0.2 -1.7,0.7 -2.2,1.4 -0.5,0.8 -0.7,1.7 -0.5,2.6 0.4,1.9 1.8,2.4 2.8,2.4 0.1,0 0.2,0 0.3,0 0.4,-0.1 0.7,-0.5 0.7,-0.9 -0.1,-0.4 -0.5,-0.7 -0.9,-0.7 -0.2,0 -1.1,0 -1.3,-1.1 -0.1,-0.5 0,-1 0.3,-1.4 0.3,-0.4 0.7,-0.6 1.2,-0.7 0.6,-0.1 1.3,0.1 1.9,0.5 0.6,0.4 1.3,1.2 1.5,2.6 0,0 0,0 0,0 -0.1,3.8 -0.3,7.2 -1.2,9.3 -1.1,2.7 -3.1,3 -4.4,2.4 -1.3,-0.5 -2.2,-1.9 -1.5,-3.4 0.6,-1.5 1.8,-2.3 2.8,-1.9 0.4,0.2 0.9,0 1,-0.4 0.2,-0.4 0,-0.9 -0.4,-1 -1.9,-0.8 -3.9,0.4 -4.9,2.8 -1,2.5 0.5,4.7 2.4,5.5 0.6,0.3 1.6,0.4 2.2,0.4 2.1,0 3.4,-1.6 5,-3.5 l 0,10.6 -6.6,0 c -0.4,0 -0.8,0.4 -0.8,0.8 0,0.4 0.4,0.8 0.8,0.8 l 6.6,0 0,4.8 -6.4,0 c -0.4,0 0,0.5 0,0.9 l 0,6.4 c 0,0.4 -0.4,0.7 0,0.7 l 6.4,0 c 0.4,0 1.6,-0.2 1.6,-0.7 l 0,-5.8 4.8,0 0,5.6 c 0,0.4 0.4,0.8 0.8,0.8 0.4,0 0.8,-0.4 0.8,-0.8 l 0,-5.6 8.7,0 c -2.2,0 -2.7,2.9 -2.9,3.9 -0.2,1.6 0.5,3.3 1.8,4.3 0.7,0.6 1.6,0.9 2.5,0.9 0.5,0 1.1,-0.1 1.6,-0.3 1.2,-0.5 2,-1.2 2.6,-2.1 0.5,-0.9 0.6,-1.9 0.2,-2.8 -0.2,-0.4 -0.6,-0.6 -1.1,-0.4 -0.4,0.2 -0.6,0.6 -0.4,1 0.2,0.6 0.1,1.1 -0.1,1.4 -0.3,0.6 -1,1.1 -1.8,1.4 -1.2,0.5 -2.1,0 -2.5,-0.3 -0.8,-0.6 -1.3,-1.7 -1.2,-2.8 0.2,-1.2 1.1,-2.3 2.6,-2.9 1.6,-0.7 3.8,-1.2 6.3,-1.2 l 3.5,0 c 1.1,0 1.8,1 2.1,1.5 0.4,0.6 0.6,1.4 0.5,2 -0.1,0.5 -0.3,0.9 -0.7,1.2 -0.4,0.3 -0.9,0.4 -1.4,0.3 -1.2,-0.3 -1.2,-1.1 -1.1,-1.3 0.1,-0.4 -0.2,-0.8 -0.7,-0.9 -0.4,-0.1 -0.8,0.2 -0.9,0.7 -0.1,0.9 0.2,2.6 2.4,3.1 0.2,0.1 0.5,0.1 0.7,0.1 0.7,0 1.3,-0.2 1.9,-0.6 0.8,-0.5 1.2,-1.3 1.4,-2.2 0.2,-1 -0.1,-2.2 -0.8,-3.2 -0.1,-0.2 -0.3,-0.5 -0.4,-0.5 l 7.5,0 0,5.8 c 0,0.4 0.2,0.7 0.7,0.7 l 216.7,0 c 0.4,0 0.9,-0.2 0.9,-0.7 l 0,-5.8 7.3,0 c -0.1,0 -0.3,0.4 -0.4,0.5 -0.7,1 -1,2.1 -0.8,3.2 0.2,1 0.7,1.7 1.4,2.3 0.6,0.4 1.2,0.6 1.9,0.6 0.2,0 0.5,0 0.7,-0.1 2.2,-0.5 2.5,-2.2 2.4,-3.1 -0.1,-0.4 -0.5,-0.7 -0.9,-0.7 -0.4,0.1 -0.7,0.5 -0.7,0.9 0,0.1 0.1,1 -1.1,1.3 -0.5,0.1 -1,0 -1.4,-0.3 -0.4,-0.3 -0.6,-0.7 -0.7,-1.2 -0.1,-0.6 0.1,-1.4 0.5,-2 0.4,-0.5 1,-1.5 2.1,-1.5 l 3.5,0 c 2.5,0 4.8,0.5 6.3,1.2 1.5,0.6 2.5,1.7 2.6,2.9 0.1,1 -0.3,2.1 -1.2,2.8 -0.4,0.3 -1.3,0.8 -2.5,0.3 -0.8,-0.3 -1.5,-0.8 -1.8,-1.4 -0.2,-0.3 -0.4,-0.8 -0.1,-1.4 0.2,-0.4 0,-0.9 -0.4,-1 -0.4,-0.2 -0.9,0 -1,0.4 -0.4,0.9 -0.3,1.9 0.2,2.8 0.5,0.9 1.4,1.6 2.6,2.1 0.5,0.2 1.1,0.3 1.6,0.3 0.9,0 1.7,-0.3 2.5,-0.8 1.3,-1 2,-2.7 1.8,-4.3 -0.1,-0.9 -0.7,-3.9 -2.9,-3.9 l 9,0 0,5.6 c 0,0.4 0.4,0.8 0.8,0.8 0.4,0 0.8,-0.4 0.8,-0.8 l 0,-5.6 4.8,0 0,5.8 c 0,0.4 0.9,0.7 1.3,0.7 l 6.4,0 c 0.4,0 0.3,-0.2 0.3,-0.7 l 0,-6.4 c 0,-0.4 0.1,-0.9 -0.3,-0.9 l -6.1,0 0,-4.8 6.3,0 c 0.4,0 0.8,-0.4 0.8,-0.8 0,-0.4 -0.4,-0.8 -0.8,-0.8 l -6.3,0 0,-10.6 c 1.6,1.9 2.8,3.5 4.9,3.5 0.6,0 1.3,-0.1 1.9,-0.4 1.9,-0.8 3.5,-3 2.5,-5.5 -1,-2.4 -3,-3.6 -4.9,-2.8 -0.4,0.2 -0.6,0.6 -0.4,1 0.2,0.4 0.6,0.6 1.1,0.4 1,-0.4 2.2,0.4 2.8,1.9 0.7,1.6 -0.3,2.9 -1.5,3.4 -1.3,0.6 -3.3,0.3 -4.4,-2.4 -0.9,-2.2 -1.2,-5.6 -1.2,-9.3 0,0 0,0 0,0 0.2,-1.4 0.9,-2.2 1.5,-2.6 0.6,-0.4 1.3,-0.6 1.9,-0.5 0.5,0.1 0.9,0.3 1.2,0.7 0.3,0.4 0.4,0.9 0.3,1.4 -0.3,1.2 -1.1,1.2 -1.3,1.1 -0.4,-0.1 -0.8,0.2 -0.9,0.7 -0.1,0.4 0.2,0.8 0.7,0.9 0.1,0 0.2,0 0.3,0 0.9,0 2.3,-0.5 2.8,-2.4 0.2,-0.9 0,-1.9 -0.5,-2.6 -0.5,-0.8 -1.3,-1.2 -2.2,-1.4 -1,-0.2 -2.2,0.1 -3.1,0.8 -0.2,0.2 -0.4,0.3 -0.6,0.5 0,-1 0,-2.4 0,-3.4 0,-1.4 0,-3 0,-4.6 l 5.3,0 c 0.4,0 0.3,0.4 0.3,0 l 0,-216 c 0,-0.4 0.1,-2.2 -0.3,-2.2 l -5.3,0 c 0,0 0,-2.1 0,-3.5 0,-1 0,-1.7 0,-2.7 0.2,0.2 0.4,0.5 0.6,0.7 0.8,0.6 1.7,0.9 2.5,0.9 0.2,0 0.4,0 0.6,0 1,-0.2 1.7,-0.6 2.2,-1.4 0.5,-0.8 0.7,-1.7 0.5,-2.6 -0.5,-2.2 -2.2,-2.5 -3.1,-2.4 -0.4,0.1 -0.7,0.5 -0.7,0.9 0.1,0.4 0.5,0.7 0.9,0.7 0.2,0 1.1,0 1.3,1.1 0.1,0.5 0,1 -0.3,1.4 -0.3,0.4 -0.7,0.6 -1.2,0.7 -0.6,0.1 -1.3,-0.1 -1.9,-0.5 -0.6,-0.4 -1.3,-1.2 -1.5,-2.6 0,0 0,0 0,0 0.1,-3.8 0.3,-7.2 1.2,-9.3 1.1,-2.7 3.1,-3 4.4,-2.4 1.3,0.5 2.2,1.9 1.5,3.4 -0.6,1.4 -1.8,2.2 -2.8,1.8 z m -13.1,233.9 0,32.1 -31.4,0 c -0.4,0 -0.7,0.5 -0.7,0.9 l 0,5.6 c -3.2,0 -6.6,-0.3 -8.5,-1 -1.8,-0.7 -3.1,-1.8 -3.7,-3.2 -0.4,-1 -0.5,-2.2 0,-3.2 0.2,-0.6 0.8,-1.6 1.8,-2.2 0.9,-0.5 2,-0.5 3.2,0 0.8,0.3 1.3,0.8 1.6,1.3 0.2,0.5 0.2,1.1 0,1.7 -0.2,0.4 0,0.9 0.4,1.1 0.4,0.2 0.9,0 1.1,-0.4 0.4,-1.1 0.4,-2.1 0,-3 -0.4,-0.9 -1.3,-1.6 -2.4,-2.1 -2.1,-0.9 -3.7,-0.4 -4.6,0.1 -1.1,0.6 -2,1.6 -2.5,2.9 -0.6,1.4 -0.6,2.9 0,4.4 0.5,1.1 1.4,1.9 3.6,3.5 l -195.2,0 c 2.1,-1.6 3.1,-2.5 3.6,-3.5 0.6,-1.4 0.6,-3 0,-4.4 -0.5,-1.3 -1.4,-2.3 -2.5,-2.9 -1,-0.5 -2.5,-1 -4.6,-0.1 -1.1,0.5 -2,1.2 -2.4,2.1 -0.4,0.9 -0.4,2 0,3 0.2,0.4 0.6,0.6 1.1,0.4 0.4,-0.2 0.6,-0.6 0.4,-1 -0.3,-0.6 -0.3,-1.2 0,-1.7 0.3,-0.5 0.8,-1 1.6,-1.3 1.2,-0.5 2.3,-0.5 3.2,0 1,0.6 1.6,1.6 1.8,2.2 0.4,1 0.4,2.2 0,3.2 -0.6,1.4 -1.8,2.4 -3.6,3.2 -1.9,0.8 -5.2,1 -8.4,1 l 0,-5.6 c 0,-0.4 -0.5,-0.9 -0.9,-0.9 l -31.2,0 0,-32.1 c 0,-0.4 -1.1,-1.6 -1.6,-1.6 l -4.8,0 0,-4.4 c 0,-1.4 0,-2.7 0.4,-3.6 0.7,-1.8 1.6,-3 3,-3.6 1,-0.4 2.1,-0.4 3.1,0 0.6,0.2 1.5,0.8 2.1,1.8 0.5,0.9 0.5,2 0,3.2 -0.3,0.8 -0.8,1.3 -1.3,1.6 -0.5,0.2 -1.1,0.2 -1.7,0 -0.4,-0.2 -0.9,0 -1.1,0.4 -0.2,0.4 0,0.9 0.4,1.1 1.1,0.4 2.1,0.4 3,0 0.9,-0.4 1.6,-1.3 2.1,-2.4 0.9,-2.1 0.4,-3.7 -0.1,-4.6 -0.6,-1.1 -1.6,-2 -2.9,-2.5 -1.4,-0.6 -2.6,-0.6 -4,0 -1,0.4 -2.9,1.3 -2.9,3 l 0,-193 c 0,1.8 1.9,2.6 2.9,3 0.7,0.3 1.3,0.5 2,0.5 0.7,0 1.4,-0.1 2.1,-0.4 1.3,-0.5 2.3,-1.4 2.9,-2.5 0.5,-1 1,-2.5 0.1,-4.6 -0.5,-1.1 -1.2,-2 -2.1,-2.4 -0.9,-0.4 -2,-0.4 -3,0 -0.4,0.2 -0.6,0.6 -0.4,1 0.2,0.4 0.6,0.6 1.1,0.4 0.6,-0.3 1.2,-0.3 1.7,0 0.5,0.3 1,0.8 1.3,1.6 0.5,1.2 0.5,2.3 0,3.2 -0.6,1 -1.6,1.6 -2.2,1.8 -1,0.4 -2.2,0.4 -3.2,0 -1.4,-0.6 -2.1,-1.8 -2.8,-3.6 -0.4,-0.9 -0.4,-2.2 -0.4,-3.6 l 0,-6.6 4.8,0 c 0.4,0 1.6,1.1 1.6,0.6 l 0,-32.7 31.2,0 c 0.4,0 0.9,0.1 0.9,-0.3 l 0,-5.6 c 3.2,0 6.5,0.3 8.4,1 1.8,0.7 3,1.8 3.6,3.2 0.4,1 0.4,2.2 0,3.2 -0.2,0.6 -0.8,1.6 -1.8,2.2 -0.9,0.5 -2,0.5 -3.2,0 -0.8,-0.3 -1.3,-0.8 -1.6,-1.3 -0.2,-0.5 -0.2,-1.1 0,-1.7 0.2,-0.4 0,-0.9 -0.4,-1 -0.4,-0.2 -0.9,0 -1,0.4 -0.4,1.1 -0.4,2.1 0,3 0.4,0.9 1.3,1.6 2.4,2.1 0.9,0.4 1.6,0.5 2.3,0.5 1,0 1.8,-0.3 2.3,-0.6 1.1,-0.6 2,-1.7 2.5,-2.9 0.6,-1.4 0.6,-3.2 0,-4.7 -0.5,-1.1 -1.4,-2.2 -3.6,-3.8 l 195.1,0 c -2.1,1.6 -3.1,2.8 -3.6,3.8 -0.6,1.4 -0.6,3.1 0,4.5 0.5,1.3 1.4,2.4 2.5,3 0.6,0.3 1.3,0.6 2.3,0.6 0.7,0 1.5,-0.1 2.3,-0.5 1.1,-0.5 2,-1.2 2.4,-2.1 0.4,-0.9 0.4,-2 0,-3 -0.2,-0.4 -0.6,-0.6 -1,-0.4 -0.4,0.2 -0.6,0.6 -0.4,1 0.3,0.6 0.3,1.2 0,1.7 -0.3,0.5 -0.8,1 -1.6,1.3 -1.2,0.5 -2.3,0.5 -3.2,0 -1,-0.6 -1.6,-1.6 -1.8,-2.2 -0.4,-1 -0.4,-2.2 0,-3.2 0.6,-1.4 1.9,-2.4 3.7,-3.2 1.9,-0.8 5.3,-1 8.5,-1 l 0,5.6 c 0,0.4 0.2,0.3 0.7,0.3 l 31.4,0 0,32.7 c 0,0.4 0.9,-0.6 1.3,-0.6 l 5.1,0 0,6.6 c 0,1.4 -0.2,2.7 -0.5,3.6 -0.7,1.8 -1.7,3 -3,3.6 -1,0.4 -2.1,0.4 -3.1,0 -0.6,-0.2 -1.6,-0.8 -2.1,-1.8 -0.5,-0.9 -0.5,-2 0,-3.2 0.3,-0.8 0.8,-1.3 1.3,-1.6 0.5,-0.2 1.1,-0.2 1.7,0 0.4,0.2 0.9,0 1.1,-0.4 0.2,-0.4 0,-0.9 -0.4,-1 -1.1,-0.4 -2.1,-0.4 -3,0 -0.9,0.4 -1.6,1.3 -2.1,2.4 -0.9,2.1 -0.4,3.7 0.1,4.6 0.6,1.1 1.6,2 2.9,2.5 0.7,0.3 1.4,0.4 2.2,0.4 0.8,0 1.3,-0.2 2,-0.5 1,-0.4 3.1,-1.3 3.1,-3 l 0,192.8 c 0,-1.8 -2.1,-2.6 -3.1,-3 -1.4,-0.6 -2.9,-0.6 -4.3,0 -1.3,0.5 -2.3,1.4 -2.9,2.5 -0.5,1 -0.9,2.5 -0.1,4.6 0.5,1.1 1.2,2 2.1,2.4 0.9,0.4 2,0.4 3,0 0.4,-0.2 0.6,-0.6 0.4,-1.1 -0.2,-0.4 -0.6,-0.6 -1,-0.4 -0.6,0.3 -1.2,0.3 -1.7,0 -0.5,-0.3 -1,-0.8 -1.3,-1.6 -0.5,-1.2 -0.5,-2.3 0,-3.2 0.6,-1 1.6,-1.6 2.2,-1.8 1,-0.4 2.2,-0.4 3.2,0 1.4,0.6 2.2,1.8 2.9,3.6 0.4,0.9 0.5,2.2 0.5,3.6 l 0,4.4 -5.1,0 c -0.7,0.2 -1.6,1.3 -1.6,1.8 z m 6.4,-218.3 -4.8,0 0,-30.5 4.8,0 0,30.5 z m 1.7,-43.3 4.8,0 0,4.8 -4.8,0 0,-4.8 z m -1.7,6.4 0,4.8 -4.8,0 0,-4.8 4.8,0 z m -6.4,0 0,4.8 -30.5,0 0,-4.3 c 1.6,0 2.9,-0.2 4.4,-0.2 3.3,0.1 6.5,-0.3 9.4,-0.3 l 16.7,0 z m -247.1,-6.4 215.1,0 0,4.8 -215.1,0 0,-4.8 z m -15.8,6.4 c 2.9,0 6.3,0.4 9.6,0.3 1.5,0 2.9,0.2 4.5,0.2 l 0,4.3 -30.5,0 0,-4.8 16.4,0 z m -29.2,-1.6 0,-4.8 4.8,0 0,4.8 -4.8,0 z m 6.4,1.6 4.8,0 0,4.8 -4.8,0 0,-4.8 z m 4.9,6.4 0,30.5 -4.8,0 0,-30.5 4.8,0 z m -11.3,247.2 0,-215.1 3.8,0 c 0,3.2 -0.6,5.1 1,6.7 l 0,204 c -1.6,1.6 -1,2.8 -1,4.4 l -3.8,0 z m 6.4,1.6 4.8,0 0,32.1 -4.8,0 0,-32.1 z m -1.6,44.9 -4.8,0 0,-4.8 4.8,0 0,4.8 z m 1.6,-6.4 0,-4.8 4.8,0 0,4.8 -4.8,0 z m 6.5,0 0,-4.8 30.5,0 0,4.9 c -1.6,0 -3,-0.1 -4.5,-0.1 -3.3,-0.1 -6.6,0 -9.6,0 l -16.4,0 z m 247.1,6.4 -215,0 0,-4.8 215.1,0 0,4.8 z m 15.5,-6.4 c -2.9,0 -6.2,-0.1 -9.4,0 -1.5,0 -2.8,0.1 -4.4,0.1 l 0,-4.9 30.5,0 0,4.8 -16.7,0 z m 29.5,1.6 0,4.8 -4.8,0 0,-4.8 4.8,0 z m -6.5,-1.6 -4.8,0 0,-4.8 4.8,0 0,4.8 z m -4.8,-6.4 0,-32.1 4.8,0 0,32.1 -4.8,0 z m 11.3,-248.8 0,215.1 -4,0 c 0,-1.6 -0.8,-2.9 -0.8,-4.4 l 0,-204 c 0,-1.6 0.7,-3.4 0.8,-6.7 l 4,0 z"
                  id="path10" style="fill:#ff9966"/>
        </g>
    </g>
</svg>
 


