<?xml version="1.0" encoding="utf-8"?>
<svg xmlns:dc="http://purl.org/dc/elements/1.1/" xmlns:cc="http://creativecommons.org/ns#" xmlns:rdf="http://www.w3.org/1999/02/22-rdf-syntax-ns#" xmlns:svg="http://www.w3.org/2000/svg" xmlns="http://www.w3.org/2000/svg" xmlns:xlink="http://www.w3.org/1999/xlink" version="1.1" x="0px" y="0px" width="1600px" height="1000px" viewBox="0 0 1600 1000" xml:space="preserve" id="svg2">
  <metadata id="metadata14">
    <rdf:RDF>
      <cc:Work rdf:about="">
        <dc:format>
          image/svg+xml
        </dc:format>
        <dc:type rdf:resource="http://purl.org/dc/dcmitype/StillImage">
        </dc:type>
        <dc:title>
        </dc:title>
      </cc:Work>
    </rdf:RDF>
  </metadata>
  <defs id="defs12">
    <clipPath id="clipPath4140" clipPathUnits="userSpaceOnUse">
      <path style="opacity:1;fill:none;fill-opacity:1;fill-rule:nonzero;stroke:#ffc300;stroke-width:1.7185396;stroke-linecap:butt;stroke-linejoin:miter;stroke-miterlimit:4;stroke-dasharray:none;stroke-dashoffset:0;stroke-opacity:1" d="m 569.5081,504.78757 440.4207,0 0,384.85314 -440.4207,0 z" id="jd_bd">
      </path>
    </clipPath>
  </defs>
  <image xlink:href="/designs/templates/002001301-1.jpg" width="600" height="400" id="jd_bg" transform="matrix(2.6165,0,0,2.6165,11.0452,-23.3027)">
  </image>
  <g style="fill:#aa4400" id="jd_nt" clip-path="url(#clipPath4140)">
    <g transform="matrix(0.81870957,0,0,0.81870957,285.57551,267.27157)" style="fill:#aa4400" id="Layer_2">
      <path style="fill:#aa4400;fill-rule:evenodd;stroke:#ffffff;stroke-width:0.28349999;stroke-miterlimit:10" stroke-miterlimit="10" d="m 440.25771,629.70524 c -0.445,5.191 -2.963,7.56 -8.231,8.498 -7.328,1.306 -14.757,2.342 -21.419,6.062 -0.564,0.313 -1.274,0.498 -1.923,0.51 -2.583,0.051 -5.299,0.495 -7.719,-0.145 -2.104,-0.558 -3.665,0.85 -5.764,0.41 -2.705,-0.569 -4.061,-0.845 -4.064,-4.24 -0.003,-2.674 -0.827,-5.467 -0.552,-8.233 0.21,-2.116 0.729,-4.128 3.767,-3.174 1.417,0.448 2.731,-0.358 3.671,-1.285 3.915,-3.854 8.248,-6.872 13.839,-7.695 0.366,-0.058 0.895,-0.419 0.986,-0.743 1.507,-5.378 7.104,-5.84 10.591,-8.825 2.161,-1.854 4.748,-3.263 6.687,-5.305 1.581,-1.663 3.237,-3.079 5.172,-4.228 3.292,-1.953 4.994,-4.762 5.167,-8.647 0.063,-1.422 -1.122,-3.518 1.487,-4.166 0.733,-0.185 0.005,-0.292 -0.105,-0.425 -1.835,-2.201 -1.753,-4.914 -2.209,-7.544 -0.46,-2.65 -2.462,-4.938 -2.17,-7.822 0.547,-5.452 -3.11,-10.152 -2.591,-15.704 0.277,-2.959 0.13,-6.543 1.932,-8.322 3.24,-3.202 2.982,-6.718 3.342,-10.531 0.161,-1.746 0.241,-4.124 2.317,-5.33 0.218,-0.127 0.456,-0.713 0.371,-0.813 -2.422,-2.778 0.496,-4.181 1.555,-6.02 3.252,-5.626 5.999,-11.446 6.183,-18.08 0.1,-3.598 2.612,-5.554 4.802,-7.644 2.991,-2.851 4.829,-6.382 6.024,-10.13 1.433,-4.517 2.742,-8.947 6.436,-12.245 0.529,-0.474 0.674,-1.384 0.968,-2.105 0.34,-0.827 0.425,-2.149 1.009,-2.424 5.266,-2.459 5.379,-9.03 9.814,-12.116 0.609,-0.422 1.263,-1.193 1.354,-1.872 0.916,-6.942 7.75,-9.563 10.812,-14.922 0.204,-0.36 0.668,-0.796 1.032,-0.81 5.424,-0.246 8.185,-5.025 12.406,-7.322 2.04,-1.114 3.479,-3.158 3.374,-5.827 -0.054,-1.342 0.254,-2.543 1.912,-2.622 3.974,-0.199 6.257,-3.071 8.064,-5.875 3.13,-4.852 7.223,-6.475 12.857,-6.665 2.484,-0.084 5.345,-2.195 8.005,-2.03 3.849,0.238 5.693,-3.303 8.99,-3.731 3.487,-0.453 6.804,-1.489 9.869,-3.198 1.886,-1.054 3.977,-0.584 5.903,-1.116 3.895,-1.082 6.455,-4.688 10.452,-5.651 0.294,-0.071 0.561,-0.688 0.659,-1.096 1.419,-5.951 4.09,-10.968 9.368,-14.554 2.084,-1.416 2.289,-4.685 3.807,-6.537 2.753,-3.348 2.722,-6.888 2.563,-10.718 -0.13,-3.139 -0.232,-6.299 0.652,-9.378 0.246,-0.858 0.292,-1.906 0.824,-2.529 4.056,-4.736 3.694,-10.947 3.77,-16.213 0.063,-4.391 0.578,-8.733 0.705,-13.104 0.25,-8.577 3.439,-16.321 6.329,-24.161 0.843,-2.289 2.555,-4.251 5.115,-2.745 1.983,1.167 4.008,3.149 1.58,5.931 -0.631,0.722 0.298,0.771 0.637,1.107 2.051,2.042 3.799,4.195 4.142,7.299 0.614,5.555 2.6,10.823 3.13,16.48 0.314,3.368 1.476,6.852 1.91,10.361 0.197,1.607 2.007,2.003 2.679,3.357 2.501,5.024 5.781,9.868 4.526,15.879 -0.487,2.336 1.397,3.167 2.243,4.549 2.045,3.342 3.113,7.305 2.651,10.667 -0.864,6.249 4.963,10.318 4.093,16.383 -0.397,2.759 2.569,4.554 5.849,4.552 3.686,-0.003 7.354,-0.439 11.063,-0.377 2.476,0.04 5.127,-0.578 7.764,-0.184 1.19,0.175 2.467,0.524 2.671,1.668 0.447,2.524 2.351,2.737 4.209,3.104 1.979,0.397 4.501,-0.164 4.832,2.929 1.654,-0.34 2.133,1.436 3.476,1.884 5.076,1.697 9.747,4.212 13.52,8.121 1.719,1.784 3.965,0.411 5.948,1.139 1.773,0.646 3.64,0.745 4.81,2.527 0.718,1.099 1.892,1.58 3.183,1.637 5.104,0.223 9.302,1.949 11.617,6.883 0.181,0.385 0.438,1.002 0.719,1.036 5.212,0.612 5.987,5.141 7.917,8.728 1.011,1.884 2.929,3.033 4.45,4.47 2.605,2.461 5.778,3.889 8.316,5.857 2.756,2.135 5.961,4.46 8.363,7.373 3.407,4.127 6.056,8.786 8.345,13.491 0.998,2.053 1.999,1.715 2.896,1.424 1.915,-0.623 2.76,-0.349 2.808,1.759 0.044,1.909 1.315,2.365 2.984,2.399 3.651,0.073 7.225,0.354 10.89,1.048 3.775,0.714 8.3,0.128 11.864,-1.379 4.259,-1.799 9.426,-1.074 12.945,-4.721 0.196,-0.205 0.63,-0.258 0.949,-0.25 1.886,0.063 4.409,-0.549 5.499,0.425 1.421,1.271 2.877,-2.505 3.499,0.447 0.144,0.68 0.302,0.327 0.322,-0.06 0.202,-3.423 3.153,-2.845 5.208,-3.6 3.804,-1.393 7.512,-3.167 11.417,-4.147 4.463,-1.121 9.096,-1.069 13.62,0.187 0.305,0.085 0.604,0.313 0.832,0.545 2.04,2.118 0.794,11.165 -1.387,13.21 -3.308,3.095 -6.767,5.495 -11.499,5.495 -0.965,0 -1.528,0.841 -2.138,1.512 -1.494,1.649 -2.968,3.271 -5.559,3.009 -1.578,-0.159 -2.691,1.067 -3.843,1.879 -3.883,2.749 -8.486,5.011 -11.259,8.646 -2.848,3.725 -5.441,6.989 -9.568,9.568 -3.377,2.106 -6.198,5.336 -10.035,6.862 -3.163,1.259 -5.781,2.619 -5.19,6.668 0.046,0.32 -0.002,0.705 -0.146,0.991 -1.387,2.739 -1.784,5.325 -0.625,8.467 1.078,2.911 0.269,6.305 1.817,9.36 0.932,1.846 1.028,4.533 -0.018,6.235 -1.439,2.325 -0.985,4.217 -0.149,6.324 0.653,1.641 0.873,3.372 0.118,4.909 -0.643,1.303 -0.398,2.385 0.016,3.54 0.786,2.193 0.344,4.289 -0.78,6.142 -1.549,2.563 -1.661,2.492 -0.29,5.276 0.2,0.405 0.554,0.854 0.502,1.238 -0.611,4.778 1.168,9.743 -1.573,14.397 -1.915,3.244 -2.591,6.699 -0.246,10.393 1.978,3.109 -0.033,6.563 -0.376,9.807 -0.212,2.01 -1.009,4.126 -1.718,6.103 -0.747,2.088 -0.819,4.851 -4.2,5.258 -1.624,0.198 -1.033,2.254 -1.062,3.521 -0.064,2.88 0.458,5.688 -2.802,7.7 -0.96,0.593 -1.743,3.071 -0.938,5.493 1.579,4.746 -0.89,9.056 -3.817,12.542 -3.621,4.325 -7.93,8.073 -11.885,12.121 -0.853,0.874 -1.529,1.923 -1.578,3.271 -0.039,1.155 -0.399,2.55 -1.377,2.942 -2.972,1.207 -2.854,4.044 -3.728,6.35 -0.356,0.943 -0.507,2.164 0.555,2.745 2.486,1.356 1.973,3.382 1.649,5.563 -0.419,2.809 0.398,5.727 -0.952,8.498 -0.55,1.123 0.816,1.218 1.559,1.668 2.246,1.354 2.249,3.174 0.549,5.163 -1.771,2.074 -1.192,4.476 0.037,6.562 1.054,1.787 1.993,3.505 1.853,5.645 -0.023,0.325 -0.007,0.733 0.166,0.983 5.314,7.703 4.127,17.475 8.191,25.658 1.534,3.086 -0.616,6.974 -0.033,10.534 0.08,0.499 -0.521,1.253 -1,1.675 -1.574,1.388 -10.544,0.645 -12.157,-0.717 -3.857,-3.258 -7.035,-7.008 -9.706,-11.319 -1.184,-1.912 -2.972,-3.632 -5.829,-3.665 -1.654,-0.016 -3.635,-5.571 -2.675,-7.688 0.587,-1.286 0.519,-1.586 -0.513,-2.605 -1.594,-1.577 -2.036,-3.993 -2.376,-6.192 -0.719,-4.639 -2.674,-6.813 -7.236,-6.92 -2.717,-0.065 -3.437,-1.52 -3.729,-3.754 -0.574,-4.366 -3.184,-5.374 -6.857,-2.831 -5.154,3.574 -10.91,5.999 -16.711,8.288 -1.977,0.777 -4.064,1.187 -5.444,3.11 -0.544,0.759 -1.583,1.428 -2.504,1.607 -7.373,1.463 -13.554,5.677 -20.241,8.701 -2.481,1.123 -5.014,1.013 -7.489,0.992 -5.686,-0.045 -11.358,0.423 -17.029,0.507 -3.221,0.048 -6.58,1.773 -10.124,1.629 -6.452,-0.263 -12.854,-0.561 -19.283,-1.679 -3.456,-0.602 -7.308,-0.803 -11,-0.329 -2.834,0.359 -5.548,0.465 -8.271,-1.12 -0.564,-0.327 -2.527,-0.597 -3.872,-0.401 -0.332,0.046 -0.844,0.136 -0.985,-0.033 -3.846,-4.629 -9.75,-1.42 -14.237,-3.775 -5.09,-2.673 -10.647,-2.893 -16.32,-2.941 -4.521,-0.039 -8.112,-2.796 -11.364,-5.838 -1.722,-1.608 -4.252,-1.869 -6.028,-3.56 -1.943,-1.848 -5.444,-2.283 -5.042,-6.126 0.068,-0.633 -1.119,-0.731 -1.34,-0.448 -1.838,2.376 -3.438,0.588 -4.877,-0.346 -2.421,-1.575 -4.005,-0.945 -4.597,2.073 -0.063,0.329 -0.147,0.684 -0.334,0.946 -5.113,7.263 -5.475,16.629 -10.69,23.925 -1.552,2.18 -2.096,5.168 -1.86,8.234 0.541,6.998 -4.773,12.322 -11.812,12.324 -1.462,0 -2.938,-0.119 -4.388,0.023 -3.325,0.322 -4.407,-2.057 -5.393,-4.435 -0.459,-1.114 -0.586,-2.398 -0.708,-3.618 -0.402,-3.994 -0.339,-8.312 0.476,-11.902 1.074,-4.719 1.666,-10.055 3.847,-14.082 2.776,-5.119 2.102,-9.978 2.351,-15.042 0.136,-2.796 -0.145,-5.603 0.572,-8.382 0.454,-1.755 -0.538,-2.835 -1.801,-4.239 -4.294,-4.778 -10.424,-7.528 -14.25,-12.571 -4.302,-5.664 -10.905,-8.979 -14.724,-14.808 -2.478,-3.784 -7.695,-6.188 -6.877,-11.926 0.042,-0.291 -0.402,-0.765 -0.733,-0.978 -2.765,-1.769 -3.935,-4.542 -4.533,-7.542 -0.316,-1.594 -0.617,-2.32 -2.521,-2.084 -1.74,0.223 -3.661,-0.06 -4.598,-2.177 z m 191.032,56.393 c 0.562,-1.693 1.161,-2.753 2.954,-2.34 0.847,0.195 1.805,0.067 2.686,-0.08 2.479,-0.413 5.458,0.691 6.99,-2.614 0.504,-1.09 1.776,-0.664 2.609,0.11 1.62,1.511 2.821,1.42 3.77,-0.747 0.36,-0.813 1.235,-1.247 2.181,-1.433 2.309,-0.454 4.646,-0.831 6.901,-1.479 6.265,-1.808 12.579,-3.107 17.878,-7.729 2.807,-2.45 5.813,-5.324 9.996,-6.27 3.387,-0.766 3.994,-3.149 3.189,-6.574 -0.589,-2.518 -3.209,-3.6 -3.818,-5.695 -1.371,-4.688 -4.132,-8.949 -4.007,-14.166 0.042,-1.771 0.875,-4.213 -0.918,-5.656 -2.824,-2.286 -4.404,-5.003 -5.279,-8.603 -0.507,-2.096 -1.222,-4.391 -2.555,-6.428 -1.748,-2.668 -3.646,-5.746 -3.895,-8.78 -0.465,-5.572 -2.226,-10.418 -4.334,-15.529 -1.846,-4.483 -3.509,-9.719 -1.796,-15.011 0.241,-0.744 -0.099,-1.799 -0.444,-2.588 -2.328,-5.334 -4.829,-10.282 -10.293,-13.559 -2.815,-1.689 -4.758,-2.154 -7.804,-1.33 -9.061,2.462 -18.224,4.549 -27.355,6.756 -0.275,0.065 -0.635,-0.111 -0.93,-0.24 -1.104,-0.487 -3.294,-0.494 -3.424,0.054 -0.816,3.399 -3.614,-0.158 -4.908,1.434 -0.103,0.124 0.07,0.441 0.036,0.653 -0.428,2.601 -2.014,3.758 -4.594,4.005 -3.229,0.307 -6.402,1.022 -9.685,1.04 -6.254,0.031 -12.647,0.051 -17.884,4.112 -3.379,2.621 -7.254,4.43 -10.472,7.407 -2.397,2.215 -4.062,4.169 -5.385,7.294 -1.427,3.373 -3.835,6.388 -5.453,9.944 -2.371,5.206 -5.535,10.1 -7.625,15.515 -1.748,4.525 -5.073,8.636 -4.767,13.697 0.309,5.091 -5.243,9.105 -2.328,14.509 0.079,0.145 -0.045,0.455 -0.159,0.634 -2.05,3.136 -2.308,6.693 -2.653,10.29 -0.272,2.826 3.09,8.033 5.95,7.973 3.068,-0.063 5.371,1.165 7.719,2.771 1.189,0.815 2.595,1.936 3.867,1.891 4.787,-0.168 7.008,3.224 9.475,6.126 2.646,-1.668 5.537,-1.72 8.449,-1.413 1.116,0.119 2.144,0.672 2.674,1.821 0.941,2.054 2.688,2.518 4.748,2.437 1.354,-0.054 2.614,0.181 3.886,0.835 3.982,2.045 7.787,3.938 12.701,3.96 6.387,0.028 12.768,1.654 19.147,2.617 4.146,0.628 8.172,0.903 11.876,-1.778 1.955,-1.418 3.066,-0.5 3.083,2.157 z m -66.683,-236.876 c -1.348,-0.245 -2.056,0.271 -2.552,0.81 -3.98,4.353 -8.82,6.857 -14.769,6.914 -0.878,0.009 -0.481,0.501 -0.592,0.762 -1.708,4.026 -5.048,6.542 -8.718,8.296 -2.646,1.263 -4.657,3.306 -7.183,4.586 -5.053,2.566 -7.535,8.814 -13.814,9.603 -0.445,0.056 -0.938,0.364 -0.753,0.911 0.818,2.427 -1.08,3.281 -2.419,4.623 -2.47,2.479 -4.875,5.059 -7.017,7.824 -3.447,4.456 -5.919,9.592 -8.905,14.259 -2.495,3.898 -4.206,7.677 -5.109,11.958 -0.504,2.381 -2.43,3.997 -2.772,6.357 -0.578,3.951 -2.777,7.446 -3.122,11.494 -0.139,1.613 -0.895,3.175 -2.037,4.532 -1.235,1.473 -1.651,3.112 -1.079,5.234 0.771,2.866 0.264,5.823 -1.549,8.318 -0.706,0.969 -0.801,1.964 -1.031,3.068 -0.994,4.795 -0.441,9.633 -0.6,14.445 -0.025,0.805 -1.284,2.147 0.453,2.438 1.076,0.178 2.224,0.149 3.082,-1.277 3.407,-5.659 9.318,-7.036 15.194,-8.129 3.698,-0.691 6.957,-2.074 9.632,-4.635 4.875,-4.657 10.495,-7.43 17.333,-7.421 5.5,0.009 8.223,-2.588 8.708,-7.958 0.82,-9.122 1.883,-18.231 6.455,-26.41 1.85,-3.314 3.651,-6.414 2.376,-10.471 -0.946,-3.019 1.196,-5.324 2.697,-7.581 2.461,-3.702 1.473,-8.699 4.75,-12.073 0.467,-0.481 0.473,-1.465 0.581,-2.234 0.357,-2.491 1.11,-4.741 3.17,-6.413 0.558,-0.454 1.34,-0.807 1.328,-1.808 -0.082,-6.011 3.365,-11.053 4.696,-16.689 0.329,-1.387 0.476,-3.426 2.787,-3.755 1.292,-0.185 1.051,-1.618 0.601,-2.173 -2.014,-2.48 -0.799,-4.844 0.178,-7.405 z m 55.639,19.748 c 0.759,-1.403 0.008,-1.87 -0.822,-2.363 -1.417,-0.842 -2.481,-2.249 -2.784,-3.668 -0.966,-4.555 -2.62,-8.974 -2.702,-13.725 -0.031,-1.863 -0.283,-3.851 -2.348,-4.883 -2.585,-1.294 -3.685,-3.543 -3.546,-6.313 0.048,-0.958 0.037,-1.421 -0.963,-1.674 -1.012,-0.252 -2.068,-0.136 -2.201,0.864 -0.404,3.074 -2.431,5.486 -3.133,8.433 -0.963,4.052 -1.668,8.214 -4.076,11.789 -0.346,0.509 -1.045,1.048 -0.7,1.79 1.289,2.775 -0.686,4.712 -1.791,6.814 -0.467,0.887 -1.274,1.617 -1.044,2.708 0.778,3.688 -0.379,7.342 -0.133,11.032 0.167,2.479 -0.382,4.974 -1.742,7.088 -1.532,2.387 -1.736,4.856 -1.722,7.624 0.011,1.963 2.059,5.752 -2.869,5.424 -0.165,-0.011 -0.448,0.91 -0.583,1.42 -0.357,1.331 -1.082,2.365 -2.062,3.355 -1.501,1.52 -2.334,3.286 -2.66,5.583 -0.389,2.72 1.43,5.702 -0.147,7.91 -2.258,3.163 -3.685,6.096 -2.926,10.134 0.431,2.274 -2.224,3.142 -3.515,4.648 -1.917,2.242 -0.835,5.854 -3.266,8.045 -0.431,0.39 0.054,1.137 0.461,1.473 0.788,0.645 1.014,-0.463 1.434,-0.714 1.275,-0.769 2.065,-2.219 3.98,-1.956 3.767,0.516 7.308,-0.473 10.786,-1.9 2.065,-0.847 4.232,-1.617 6.421,-1.942 2.102,-0.314 4.201,-0.434 6.268,-1.071 2.023,-0.625 4.261,-0.638 6.212,-1.402 1.936,-0.759 4.507,-2.792 5.564,-2.521 2.812,0.72 2.336,-1.991 3.696,-2.441 0.32,-0.107 0.646,-0.192 0.966,-0.294 5.073,-1.633 9.757,-4.487 15.459,-4.085 2.702,0.193 4.897,-1.158 5.317,-4.428 0.606,-4.722 -0.793,-9.265 -3.062,-12.894 -3.467,-5.545 -6.155,-11.087 -7.58,-17.519 -0.909,-4.119 -3.118,-8.079 -5.356,-11.734 -1.741,-2.836 -3.548,-5.373 -2.831,-8.607 z m 115.129,53.078 c -0.558,3.379 -0.558,3.379 -4.982,1.411 0.873,1.883 0.541,3.271 -1.218,4.178 -1.991,1.03 -3.843,2.622 -5.948,3.069 -2.943,0.623 -5.303,2.719 -8.369,2.873 -0.848,0.042 -1.309,-0.468 -1.95,-0.726 -0.155,3.643 -2.055,2.563 -4.037,1.55 -0.535,-0.273 -1.081,0.091 -1.254,0.762 -0.615,2.38 -2.541,2.88 -4.58,3.087 -3.965,0.406 -7.387,2.541 -11.206,3.436 -1.506,0.355 -2.266,0.93 -0.507,2.657 2.649,2.604 4.811,5.487 5.762,9.555 0.788,3.364 2.328,6.395 1.079,9.92 -0.085,0.243 0.009,0.67 0.182,0.859 3.234,3.545 6.441,7.082 5.333,12.489 -0.048,0.25 0.241,0.644 0.476,0.86 5.116,4.766 5.289,11.13 4.456,17.146 -0.869,6.259 2.295,10.978 4.498,16.013 0.953,2.174 1.562,4.284 0.669,5.916 -1.097,1.994 -0.089,2.295 1.104,2.911 2.818,1.463 6.214,2.012 7.926,5.2 0.336,0.63 1.058,0.465 1.369,-0.101 1.281,-2.326 3.808,-4.243 1.805,-7.53 -1.277,-2.098 -0.603,-4.347 1.004,-6.191 1.506,-1.729 2.396,-3.772 3.101,-5.911 0.703,-2.13 1.566,-4.161 2.62,-6.163 2.192,-4.173 1.578,-9.47 5.136,-13.134 -1.444,-5.021 2.01,-9.688 1.042,-14.709 -0.26,-1.368 -0.243,-2.899 0.8,-4.182 0.772,-0.951 0.509,-2.121 0.299,-3.244 -0.843,-4.457 -1.36,-9.229 0.146,-13.322 2.216,-6.003 1.058,-12.093 1.885,-18.092 0.671,-4.86 -3.243,-7.851 -6.641,-10.587 z m -82.111,-75.064 c 1.326,2.748 0.672,5.676 0.867,8.541 0.077,1.085 -0.312,2.433 0.824,3.113 2.898,1.738 2.861,4.475 2.284,7.137 -0.278,1.275 0.451,1.717 0.762,2.566 1.824,4.966 5.446,8.948 7.293,13.961 0.972,2.638 2.247,5.43 3.83,7.762 2.47,3.639 4.841,6.862 3.252,11.661 -0.811,2.447 1.702,5.613 3.461,5.076 3.733,-1.144 7.634,-1.944 11.123,-3.601 2.595,-1.235 5.348,-1.061 7.923,-2.042 5.79,-2.209 10.557,-6.628 17.026,-7.456 2.801,-0.359 3.761,-3.303 1.73,-4.703 -2.363,-1.629 -3.768,-3.734 -5.456,-5.896 -1.272,-1.625 -2.541,-4.084 -4.297,-4.854 -3.843,-1.69 -5.954,-4.832 -8.667,-7.602 -1.235,-1.263 -1.711,-3.569 -3.785,-3.864 -4.668,-0.66 -7.393,-4.308 -10.799,-6.877 -0.819,-0.617 -1.474,-1.184 -2.542,-1.382 -6.333,-1.193 -11.741,-4.51 -17.173,-7.716 -2.435,-1.436 -3.923,-4.676 -7.656,-3.824 z m -153.521,194.162 c 0.308,-4.77 0.329,-8.667 2.057,-12.644 1.164,-2.674 1.541,-5.895 3.353,-8.473 0.646,-0.915 0.793,-1.459 0.02,-2.57 -1.182,-1.702 0.3,-7.126 1.804,-8.4 0.454,-0.385 1.773,0.256 1.357,-0.883 -0.32,-0.876 -1.167,-1.207 -2.184,-0.42 -3.002,2.331 -6.827,3.06 -10.276,3.581 -3.382,0.511 -4.847,2.631 -7.046,4.388 -3.388,2.701 -1.584,5.217 -0.307,7.905 0.182,0.385 0.284,0.917 0.176,1.316 -0.895,3.277 0.569,5.464 3.265,7.012 3.455,1.982 4.3,6.146 7.781,9.188 z" id="path8">
      </path>
    </g>
  </g>
</svg>