<?xml version="1.0" encoding="utf-8"?>
<?xml-stylesheet type="text/css" href="https://fonts.googleapis.com/css?family=ArialMT|Anton"?>
<svg xmlns:dc="http://purl.org/dc/elements/1.1/" xmlns:cc="http://creativecommons.org/ns#" xmlns:rdf="http://www.w3.org/1999/02/22-rdf-syntax-ns#" xmlns:svg="http://www.w3.org/2000/svg" xmlns="http://www.w3.org/2000/svg" xmlns:xlink="http://www.w3.org/1999/xlink" version="1.1" x="0px" y="0px" width="1600px" height="1000px" viewBox="0 0 1600 1000" enable-background="new 0 0 1600 1000" xml:space="preserve" id="svg2">
  <metadata id="metadata79">
    <rdf:RDF>
      <cc:Work rdf:about="">
        <dc:format>
          image/svg+xml
        </dc:format>
        <dc:type rdf:resource="http://purl.org/dc/dcmitype/StillImage">
        </dc:type>
        <dc:title>
        </dc:title>
      </cc:Work>
    </rdf:RDF>
  </metadata>
  <defs id="defs77">
    <clipPath id="clipPath4176" clipPathUnits="userSpaceOnUse">
      <path id="jd_bd" d="m 443.75,497.91669 783.3334,0 0,356.25 -783.3334,0 z" style="opacity:1;fill:none;fill-opacity:1;fill-rule:nonzero;stroke:#ffc300;stroke-width:2.20000005;stroke-linecap:butt;stroke-linejoin:miter;stroke-miterlimit:4;stroke-dasharray:none;stroke-dashoffset:0;stroke-opacity:1">
      </path>
    </clipPath>
  </defs>
  <image xlink:href="/designs/templates/002000101-2.jpg" overflow="visible" enable-background="new    " width="600" height="400" id="jd_bg" transform="matrix(2.6667 0 0 2.5 2.441406e-004 -2.441406e-004)">
  </image>
  <g clip-path="url(#clipPath4176)" id="jd_nt">
    <g id="graphic">
      <g id="g8">
        <path fill="#9B6550" d="M1097.1,682.8c4.8-8.3,9.9-16.4,14.8-24.6c7.1-12,12.2-24.7,14.7-38.4c0.4-2.4,0.8-4.8,1.1-7.2    c0-0.1,0.2-0.1,0.2,0c1.4,12.2,0.3,24.1-2.2,36c-2.9,13.3-7.8,25.7-14,37.7c-3.9,7.4-7.5,15.1-9.7,23.2    c-1.7,6.4-1.9,13.5,4.4,17.5c5,3.2,11.3,2.7,16.7,0.8c4.8-1.7,9.9-4.3,12.5-8.9c2.8-5-0.1-10.8-4.6-13.5    c-7.4-4.5-15.8-1.6-23.6,0.2c-0.2,0.1-1,0.3-1.5,0.4c-0.2,0.1-0.5-0.2-0.4-0.4c0.2-0.6,0.5-1.4,0.6-1.9c2.3-5.2,4.5-10.3,6.8-15.5    c0.2-0.5,0.6-1.1,1.1-1.3c5.6-2,11.3-3.6,17.3-3c7.5,0.8,12.9,5.1,16.9,11.2c5.3,8.1,6.3,16.7,2.5,25.8c-2.2,5.1-5.1,9.8-8.6,14.1    c-3.9,4.7-8.9,7.3-14.8,7.8c-6.6,0.6-13.3,0.9-20,0.9c-6.9,0-13.7,0.5-20.3,2.5c-0.3,0.1-0.7,0.2-1.1,0.2c-0.1,0-0.1,0-0.1-0.1    c-0.1-0.2-0.1-0.4-0.1-0.5c-0.2-13.3-0.2-26.5,2.3-39.6C1089.5,697.9,1092.8,690.1,1097.1,682.8z" id="path10">
        </path>
        <path fill="#9B6550" d="M1029.1,547.2c13.7-4.5,27.3-4.8,40.8,0.8c7,2.9,13.2,7,18.7,12.3c9.1,8.9,14.6,19.6,17.1,32.1    c2.6,13,3.9,26,2.7,39.2c-1.2,13.4-6.1,25.3-14.4,35.9c-3.3,4.1-7,7.4-12.1,8.8c-6,1.7-11.7,1-17.1-2.2    c-10.1-6.1-15.9-19.2-13.3-30.2c0.5-2.1,1.3-4.1,3.1-6c0.1-0.1,0.2,0,0.2,0.1c-1.7,5.6-0.9,10.7,2.2,15    c4.3,6.1,12.3,12.3,20.2,10.8c8.7-1.8,12.4-12.1,14.3-19.7c2.7-10.4,2.6-20.9,1-31.5c-1.8-12.5-5.3-24.5-11-35.8    c-8.2-16.4-21.7-25.7-39.7-28.3c-4.4-0.6-8.8-0.7-13.1-1C1028.7,547.5,1028.9,547.3,1029.1,547.2z" id="path12">
        </path>
        <path fill="#9B6550" d="M1009.5,659.1c-1.8-8.3-3.7-13.8-7.4-21.6c-0.1-0.1,0.1-0.2,0.2-0.2c5,3.2,10,6.3,15.1,9.6    c0.1,0,0.2,0,0.2-0.1c0.5-1.8,1-3.5,1.4-5.1c2-7.1,5-13.8,9.4-19.8c3.3-4.5,3.9-9.1,2.4-14.2c-0.1-0.5-0.2-0.9-0.3-1.4    c0-0.1,0.1-0.2,0.2-0.1c2.7,3.2,5.2,6.5,5.9,10.7c0.3,1.7,0,3.5-0.4,5.2c-1.5,5.5-3.4,11-4.6,16.6c-3.4,15.6,2,28.2,13.8,38.3    c6.4,5.5,14,8.7,22.3,10.2c3.9,0.7,7.5-0.2,11-1.7c5.2-2.2,13.4-9.5,15.9-11.8c0.2-0.2,0.4,0,0.3,0.2c-2.5,5.8-5.7,11.2-10.3,15.5    c-7.5,7-16.1,11.7-26.6,12c-4.7,0.1-9.1-1-13.4-2.9c-12.6-5.5-23.3-13.4-30.2-25.7C1011.9,668.6,1010.5,663.9,1009.5,659.1z" id="path14">
        </path>
        <path fill="#9B6550" d="M1126.6,604.7c-2,11.7-4.3,22.9-8.7,33.5c-4.2,10.1-10.2,19.2-17.2,27.6c-0.2,0.2-0.5,0-0.4-0.3    c2.5-5.2,10-21.6,10.7-33.4c0.5-6.7,0.2-13.5-0.1-20.2c-0.4-8.8-1.6-17.4-3.8-25.9c-2.5-9.6-7.8-17.7-14.7-24.7    c-3.2-3.2-6.7-6.1-10.4-9.4c-0.1-0.1,0-0.2,0.1-0.2c5.6,1.3,10.6,3.2,15.3,5.6c14,7.2,25.3,17.4,33.6,30.7    c4.5,7.2,7,15.3,9.2,23.4c2.5,9.3,4.1,18.7,5.2,28.3c0,0.1-0.2,0.2-0.2,0.1c-4.4-12.5-9-24.9-18.4-35.2    C1126.7,604.6,1126.6,604.6,1126.6,604.7z" id="path16">
        </path>
        <path fill="#9B6550" d="M1055.9,673.5c3.3,5.1,8,8.6,13.5,11.2c0.4,0.2,0.9,0.4,1.3,0.6c0,0,0.1,0.1,0.2,0.4    c-1.2-0.1-2.4-0.1-3.4-0.4c-16.5-4-29.1-13.7-34.2-32.6c-2-7.3-0.1-14.3,2.5-21.2c1.6-4.2,3.3-8.4,4.7-12.8    c1.8-5.6,0.1-10.2-4.3-13.9c0,0,0,0,0,0c0.2-0.4,0.2-0.3,0.4-0.8c4.4,1.5,8.7,3,13.2,4.6c0.1,0,0.1,0,0.2-0.1    c3.6-10.7-5.1-32.5-6.4-35.8c0-0.1,0.1-0.2,0.2-0.1c4,3.5,7,7.4,8.8,9.5c7.4,8.6,10,19.3,10.9,30.5c0.3,4-0.7,7.9-3.8,10.5    c-2.5,2.1-5.7,3.2-8.3,5.3c-3.5,2.8-5.1,7.8-5.4,12.1c-0.4,5.8,0.7,12.2,2.5,17.8C1050.2,663.7,1052.8,668.8,1055.9,673.5z" id="path18">
        </path>
        <path fill="#9B6550" d="M1129.7,612.7c6,6.4,17.9,37.2,19.4,50.2c0,0.1-0.2,0.2-0.2,0.1c-3.6-7.8-7-15.3-11.8-22    c-0.1-0.1-0.2-0.1-0.2,0.1c-1.2,9.7-2.6,19.3-5.8,28.9c0,0.1,0,0.1,0.1,0.2c4.2,0.9,8.1,2.1,11.3,5c0.1,0.1,0.2,0,0.2-0.1    c-0.8-3.3-1.6-6.6-2.5-10c0-0.1,0.1-0.2,0.2-0.1c4.1,5.3,11.9,23.8,13.8,33.1c0,0.1-0.1,0.2-0.2,0.1c-0.3-0.4-0.5-0.6-0.7-0.9    c-2.7-3.1-5.3-6.3-8.1-9.3c-6.3-6.6-14.1-8.3-22.9-7c-2,0.3-3.9,0.9-6.2,1.4c-0.1,0-0.2-0.1-0.1-0.2c9.6-22.1,16.4-44.5,13.4-69.2    C1129.5,612.6,1129.6,612.6,1129.7,612.7z" id="path20">
        </path>
        <path fill="#9B6550" d="M1074,761.7c1.1-0.2,1.5-0.7,1.7-1.8c1.4-7,2.9-13.9,4.4-20.9c0.7-3.3,1.5-6.7,2.4-10    c0.1-0.2,0.4-0.2,0.4,0.1V774c0,0.2-0.2,0.3-0.3,0.2c-1.3-0.8-2.6-1.7-3.9-2.4c-3.9-2.1-6.1-1.7-9.1,1.5c-2.5,2.6-4.4,5.5-4.5,9.2    c0,0.2-0.3,0.3-0.4,0.1c-2.2-4.7-2.2-9.5,0.4-14.2C1067.1,764.8,1069.9,762.4,1074,761.7z" id="path22">
        </path>
        <path fill="#9B6550" d="M1006.2,595.8c-0.8-1.6-1.7-3.1-2.5-4.7c-0.1-0.1,0.1-0.2,0.2-0.1c3,3.1,13.5,12.5,14.7,24.8    c0.5,8.8-0.8,17.5-2.7,26c0,0.1-0.1,0.2-0.3,0.4c0,0-0.1,0.1-0.2,0c-4.1-2.2-8.3-4.3-12.8-6.7c-0.1-0.1-0.1-0.2,0-0.2    c2.2-0.5,4-0.8,5.7-1.3c0.5-0.1,1.3-0.6,1.3-1.1c1.5-7.6,3-15.3,2-23.1C1011.1,604.8,1008.6,600.3,1006.2,595.8z" id="path24">
        </path>
        <path fill="#9B6550" d="M1065.2,701.8c8.7-1.7,15.4-6.9,21.4-12.3c0,0,0,0,0.1,0l4.5-0.3c0.1,0,0.2,0.1,0.1,0.2    c-1.2,2.9-2.3,5.7-3.2,8.4c-1,2.9-1.7,5.5-2.6,8.5c-0.1,0.5-0.8,1.1-1.1,1.1c-6.7-0.2-12.8-2.4-19.1-5.3    C1065.1,702,1065.1,701.8,1065.2,701.8z" id="path26">
        </path>
        <path fill="#9B6550" d="M1016,682.6c3.3,2.7,6.4,5.3,9.5,8c0.3,0.3,0.5,0.7,0.6,1.1c3,9,5.8,18.1,7.4,27.5    c1,5.6,0.7,11.2,0.1,16.8c0,0.1-0.2,0.1-0.2,0c-0.7-4.1-1.4-8.2-2.1-12.2c-1.8-10-5.3-19.5-9.9-28.6c-1.9-3.7-3.5-7.5-5.2-11.3    c-0.2-0.4-0.3-0.7-0.5-1.1C1015.8,682.6,1015.9,682.5,1016,682.6z" id="path28">
        </path>
        <path fill="#9B6550" d="M1058.9,741.7c-4.1-12.6-9.1-25-9.9-38.6c0-0.1,0.1-0.1,0.1-0.1c3.1,0.6,6,1.2,9.1,1.9    c0.1,0,0.1,0.1,0.1,0.1c-2.3,12.2-0.7,24.4,0.8,36.7C1059.2,741.7,1059,741.8,1058.9,741.7z" id="path30">
        </path>
        <path fill="#9B6550" d="M1047,761.3c1.3-0.1,2.2-0.6,3-1.6c1.9-2.5,5.5-6.9,7.1-8.5c0.2-0.2,0.5,0,0.4,0.3    c-1.5,4.7-3,9.5-4.6,14.2c-0.6,1.8-1.8,2.6-3.6,2.5c-4.6-0.2-7.8,1.7-9.6,6c-0.2,0.5-0.4,0.9-0.6,1.3c0,0-0.1,0-0.3,0.1    c-0.1,0-0.2-0.1-0.2-0.2c0.3-2.9,0.4-5.7,1.1-8.3C1040.5,763.4,1043.3,761.6,1047,761.3z" id="path32">
        </path>
        <path fill="#9B6550" d="M1053.9,767.2c0.5-0.3,1.1-0.8,1.6-0.8c2.1,0,2.8-1.5,3.5-3.1c1-2.2,3.2-6.5,4-8c0.1-0.2,0.4-0.1,0.4,0.1    c0,5.3,0.5,11.3-1.8,16.3c0,0.1-0.1,0.1-0.2,0.1c-4.5-1.1-8.2,2.1-9.9,9.7c0,0.2-0.3,0.2-0.4,0.1    C1048.2,777,1049.4,770.3,1053.9,767.2z" id="path34">
        </path>
        <path fill="#9B6550" d="M1126.5,766.5c-0.8-3.3-0.5-6.5,0.9-9.6c0.8-1.8,1.9-3.3,3.9-4.2c0.2-0.1,0.5,0.1,0.4,0.3    c-0.1,0.6-0.1,1.2-0.2,1.7c-0.3,2.3-0.4,4.5,0.5,6.8c1.8,4.5,0.8,8.7-2.1,12.5c-2.4,3-7.4,4.2-10.9,2.8c0.2-0.1,0.3-0.2,0.4-0.2    C1124.3,776.1,1127.7,771.5,1126.5,766.5z" id="path36">
        </path>
        <path fill="#9B6550" d="M1024.7,616.5c1.8-2.5,3.4-5.6,3.6-10c1.9,4,2.8,7.6,0.4,11.4c-2.3,3.7-4.6,7.3-6.8,11    c-0.7,1.1-1.3,2.3-2.1,3.7c0.4-4.9,1-9.4,1.2-13.8c0.2-4.5-0.9-8.9-2.4-13.2C1022,608.4,1024.1,612,1024.7,616.5z" id="path38">
        </path>
        <path fill="#9B6550" d="M1109.7,757.1c0.2-0.2,0.6,0,0.5,0.3c-0.7,1.8-1.3,3.4-1.6,5c-0.4,2.4-0.9,5-0.5,7.4    c0.6,4,5.1,5.7,8.5,3.7c0.2-0.1,0.5,0,0.5,0.3c-0.3,2.4-2.5,4.8-5.2,5.6c-3,0.8-5.4-0.1-6.8-2.7c-1.6-2.9-1.8-5.9-1.3-9.1    C1104.4,763.5,1106.7,760.2,1109.7,757.1z" id="path40">
        </path>
        <path fill="#9B6550" d="M1094.6,746.6c6.9-1.6,13.9-0.2,21,0.1c0.3,0,0.4,0.4,0.1,0.6c-8.9,5.2-13.7,12.7-14.1,22.8    c0,0.3-0.5,0.4-0.6,0.1c-2.1-5.7-2.9-11.5-0.4-17.4c0.8-1.9,0.3-2.9-1.3-3.7c-1.6-0.7-3.2-1.3-4.8-2    C1094.2,747.1,1094.3,746.7,1094.6,746.6z" id="path42">
        </path>
        <path fill="#9B6550" d="M1039.6,699c0-0.1,0.1-0.2,0.2-0.1c1.8,0.6,3.5,1.2,5.1,1.9c0.3,0.1,0.5,0.7,0.5,1.1    c1.3,10.8,5.1,20.8,8.7,30.9c0.1,0.4,0.3,0.8,0.4,1.2c0,0.1-0.1,0.2-0.2,0.5C1048.5,722.9,1042.8,711.7,1039.6,699z" id="path44">
        </path>
        <path fill="#9B6550" d="M920.1,610.4c-0.6,1.4-0.4,1.9,0.4,3.1c0,0.1,3.2-2,4.8-2c0.1,0,0.2,0.1,0.1,0.2c-1.1,1.1-2.2,2.1-3.2,3.1    c-0.6,0.5-0.9,1.1-0.6,1.9c0.3,1.1,0.5,2.2,0.9,3.2c0.9,2.6,2.3,4.9,4.6,6.5c0.3,0.2,0.6,0.3,1.1,0.1c0.7-0.4,1.5-0.3,2.2,0.1    c0.7,0.4,1.3,0.8,1.9,1.3c0.8,0.6,1.6,1.3,2.5,1.9c2.9,2.1,6.2,2.5,9.6,2.5c0.2,0,0.4-0.1,0.6-0.1c0.6-0.2,0.7-0.5,0.3-0.9    c-0.5-0.6-1-1.1-1.6-1.6c-2.6-2.4-3.4-5.4-3.1-8.9c0.4-3.6,3-5.6,6.6-5c1,0.2,2,0.4,2.9,0.8c3.9,1.7,7.3,4.1,10.3,7    c1.5,1.4,2.8,3,3.6,5c1.1,3.1,0.7,7.4-4.3,8.6c-2.7,0.6-5.4,0.6-8.1-0.1c-0.4-0.1-0.8-0.1-1.2-0.2c-0.1,0.2-0.2,0.2-0.3,0.4    c0.3,0.7,0.6,1.4,1,1.9c0.8,1,1.7,1.9,2.6,2.9c0.4,0.4,0.9,0.8,0.8,1.5c-0.1,0.8-0.7,1.1-1.3,1.3c-0.3,0.1-0.6,0.2-1,0.3    c-0.1,0-0.1,0.1,0,0.2c0.5,0.4,1,0.9,1.4,1.3c0,0,0,0,0,0c0.4,0.3,21.6,13.5,52.8,13.9c0.1,0,0.2-0.2,0.1-0.2    c-2.4-1.3-13.7-7.4-20.7-14c-1.5-1.5-2.8-3.2-3.7-5.1c-1.1-2.4-1.8-4.9-0.5-7.3c0.7-1.3,1.7-2.5,2.8-3.5c2.6-2.6,5.8-4.5,8.9-6.4    c1-0.6,2-1.3,2.9-2.1c2-1.8,3.3-4.2,2-7.5c-0.3-0.9-0.6-1.7-1-2.6c-1-2.6-0.7-5.1,0.7-7.5c0.5-0.8,1-1.7,1.5-2.6    c0.2-0.4,0.4-0.9,0.6-1.5c0-0.1-0.1-0.2-0.2-0.2c-0.3,0.1-0.5,0.2-0.7,0.3c-1.5,0.7-3.1,1.2-4.8,1.1c-1.6-0.1-2.7-0.8-3.4-2.3    c-0.8-1.9-0.5-3.7,0-5.5c0.5-1.7,0.9-3.3,1.3-5c0.2-0.7,0.3-1.6,0.4-2.4c0-0.1-0.1-0.2-0.2-0.1c-0.9,1.2-2,2.1-3.4,2.6    c-3.9,1.4-15.3-0.5-12.8-4.3c14.8-22.7,26.3-28.1,37-30.4c7.2-1.5,19.4-0.5,22.8-0.2c0.1,0,0.2-0.2,0.1-0.2    c-5.9-2.1-12.2-3.1-18.5-3.1c-7.2,0-17.4,2-23.6,5.8c-6.2,3.8-11.1,9.3-16.5,14.1c-6.2,5.3-13.5,8.1-20.8,11.5    c-3.2,1.5-6.4,3.2-9.5,4.8c-1.1,0.6-2.1,1.4-2.7,2.6c-1,1.7-1.1,3.5-0.9,5.4c0,0.5-0.1,0.7-0.4,1c-1,0.6-18.3,10-19.4,10.8    C922.1,607.4,920.9,608.7,920.1,610.4z M970.9,634.5c2.3-3.8,3.1-7.9,2.1-12.2c-0.5-2.3-1.8-4.3-3.5-5.8c-0.1-0.1-0.3-0.2-0.4-0.4    c0,0,0-0.1,0-0.1c1.3-2.6,2.5-5.3,3.7-7.9c2.7-5.8,6.7-10.5,11.7-14.5c0.1-0.1,0.2-0.1,0.4-0.1c-0.2,0.3-0.5,0.6-0.7,0.9    c-0.2,0.3-0.5,0.6-0.8,0.9c-0.8,1-1.7,1.9-2.3,3c-0.5,0.9-0.9,1.9-1.1,3c-0.4,2.4,0.9,4.1,3.3,4.8c1.7,0.5,3.4,0.6,5.2,0.5    c0.3,0,0.5,0,0.8,0c0.1,0,0.1,0.1,0.1,0.2c-0.2,0.2-0.4,0.4-0.6,0.6c-1.5,1.4-3.1,2.6-4.5,4.1c-1.7,1.7-2.1,3.9-1.8,6.2    c0.1,0.4,0.3,0.8,0.5,1.2c0.4,0.6,0.9,0.9,1.7,0.8c2.9-0.3,4.9-1.9,6.4-4.2c0.4-0.7,0.8-1.4,1.2-2c0.1,0,0.1,0.1,0.2,0.1    c-0.4,0.8-0.7,1.7-1.2,2.5c-1.5,2.7-3.8,4.8-6.1,6.9c-2.4,2.1-4.8,4.1-7,6.4c-2.8,2.9-4.2,6.4-4.4,10.4c-0.1,2.4,0.6,4.5,1.9,6.4    c0.1,0.1,0,0.2-0.2,0.2c-4.6-2.2-9.5-2.7-14.6-2.8c0.4-0.2,0.5-0.3,0.7-0.4C965.3,640.8,968.7,638.2,970.9,634.5z M950.8,598.5    c0.8-1.3,1.9-2.4,3.3-3.1c2.4-1.2,5-2.3,7.5-3.4c0.8-0.3,1.6-0.6,2.2-0.9c0.1,0,0.2,0.1,0.1,0.2c-0.8,0.9-1.8,2-2.9,3.1    c-1.6,1.6-3.6,2.4-5.7,3c-1.5,0.4-2.9,0.9-4.3,1.3C950.8,598.7,950.7,598.6,950.8,598.5z" id="path46">
        </path>
        <path fill="#9B6550" d="M984.2,585.9c-5.6-0.8-3.7-1.3-1.4-4.8c2.3-3.4,19.6-33,49.7-22.2c0,0-35.9,7.2-29.2,22.2    c5.9,13.1,33.3-0.3,36.2-8.9c0,0,11.3,17.9,9,32.4c0,0-3.6-17.4-14.4-17.7c-10.8-0.3-20.7,11.2-35.3-1.5c0,0,16.8,29.5,7.6,45.5    l-7.9,3.2c0,0-10.3-0.8-13.3,1.1c-3,2,0-4.4,8.7-8c8.7-3.6,8.7-9.7,6.7-12.5c-2-2.8-3-8.5,0.7-15.3c1.2-2.1-1.4-0.3-5.5-0.3    c-4.1,0-3.5-3.5-2-7.7c1.5-4.3,0.2-9-0.9-10.3C993,581.1,989.8,586.7,984.2,585.9z" id="path48">
        </path>
        <path fill="#9B6550" d="M972,571.5C971.9,571.6,971.9,571.6,972,571.5c-3.6,2.5-8.3,5.1-14.3,7.4c-0.1,0-0.2-0.1-0.1-0.2    c1.4-2.2,9.6-15.1,7.5-21.2c0-0.1,0-0.1,0.1-0.2c1.3-0.2,11.8-1.5,15.6,6.5c0,0,0,0.1,0,0.1l-4.3,4c-0.1,0.1-0.2,0-0.2-0.1    c-0.1-0.7-0.6-2.7-2.4-4.1c-0.7-0.5-1.1-0.7-1.4-0.8c-0.1,0-0.2,0.1-0.1,0.2C974.2,566.9,972.1,571.2,972,571.5z" id="path50">
        </path>
        <path fill="#9B6550" d="M1019.8,576.2c8.5,2,15.7-4.8,16.9-6.1c0.1-0.1,0.2,0,0.2,0.1c-0.3,4-22.5,20.8-28.6,8.9    c-6.2-12.2,39.9-23.6,51.9-17.7c12,5.9,21.4,15.3,27.3,53.2c1.7,11.1,1.9,19.4,1.1,25.6c-0.4,2.9-0.5,5.7-1.5,8.4    c-2,6-7.2,10.1-13.6,9.9c-3.4-0.1-6.7-1.4-9.4-3.4c-3.4-2.5-5.9-6.2-6.7-10.3c-1.4-7,2.9-15.6,10.7-16c3.8-0.2,6.9,1.5,9,4.7    c2.2,3.3,2.6,8.1,0.3,11.2c-1.8,2.3-4.5,3.8-7.5,4.1c-0.3,0-0.5-0.1-0.7-0.2c-0.6-0.4,3.8-2.1,3.6-4.5c0,0,0,0,0,0    c-1.4-6.7-13.2-0.5-6.2,6.6c5.9,5.9,16.4-3.5,13.8-15.1c-1.8-7.8-9.6-9.2-10.6-9.4c-0.1,0-0.1-0.1-0.1-0.1    c-2.9-37.4-16.1-52.8-27.8-58C1030.4,563,1010.4,574.1,1019.8,576.2z" id="path52">
        </path>
        <path fill="#9B6550" d="M1036.1,550.6c-0.1-0.1-0.1-0.2,0.1-0.2c2.7,0.2,16.1,1.6,23.4,7.8c0.1,0.1,0,0.2-0.1,0.2    c-2-0.5-10.7-2-22.7,0.9c0,0-0.1,0-0.1,0l-6.6-3.3c-0.1-0.1-0.1-0.2,0.1-0.2l11-0.2c0.1,0,0.1-0.1,0.1-0.2    C1040.4,553.5,1037.2,551.3,1036.1,550.6z" id="path54">
        </path>
        <path fill="#9B6550" d="M1027.6,590.2c10-4.1,16.9,7.4,18,12.8c0,0-6.6-10.5-15.9-6.1c-9.3,4.4-17.7-2.4-19.2-3.2    C1010.5,593.6,1017.7,594.3,1027.6,590.2z" id="path56">
        </path>
        <path fill="#9B6550" d="M1063.3,704.3c0-0.1,0.1-0.1,0.2,0c1,0.6,9.4,5.4,19.2,6.3c0.1,0,0.1,0.1,0.1,0.1l-8.6,47.3    c0,0.1-0.1,0.1-0.1,0.1c-0.6,0-3.5,0-6.2,2.3c-0.1,0.1-0.2,0-0.2-0.1l-0.9-21.2c0-0.8-1.1-0.9-1.3-0.2l-5.2,16.8    c0,0.1-0.3,0.1-0.2,0c0.5-3.4,1.5-11.2,0.7-15.7C1059.6,733.9,1058.8,713.6,1063.3,704.3z" id="path58">
        </path>
        <path fill="#9B6550" d="M1024.4,754.5c0.5,0.1,1.3-0.1,1.7-0.5c5.7-6.3,9.5-13.5,9.7-22.3c0.2-5.7-0.4-11.3-1.4-16.8l0-0.1    l-5.5-22c0-0.1,0.1-0.2,0.2-0.1l8.1,5.4c0,0,0,0,0,0.1c3,14.4,9.3,25.4,9.8,26.1c0,0,0,0.1,0,0.1l-5.1,17.3    c-0.1,0.5-0.3,1.1-0.5,1.6c-2.1,6.2-4.2,12.3-6.3,18.6c0,0.1-0.1,0.1-0.1,0.1c-1-0.2-1.5-0.3-2.1-0.4c-3.6-0.7-6.4,0.6-7.7,4    c-1.1,2.7-1.6,5.6-2.3,8.5c-0.2,0.7-0.2,1.5-0.2,2.2c0,0.1-0.1,0.1-0.2,0.1c-3.5-3.1-4.1-8.6-1.7-15.4c0-0.1,0-0.2-0.1-0.2    c-3.4-0.1-6.7,0-9.5,1.9c-1.2,0.8-2.3,2.3-2.8,3.7c-0.9,2.4-1.3,5-2,7.7c0,0.1-0.2,0.1-0.2,0c-1.5-3.1-1.7-6.1-0.8-9.1    C1007.8,757.3,1016.6,752.4,1024.4,754.5z" id="path60">
        </path>
        <path fill="#9B6550" d="M1114.6,772c0.1,0.2,0,0.5-0.2,0.5c-3.5,0.5-4-4.1-4-6.8c0-4.5,1.9-9.1,5.2-12.1c4.2-3.7,9.3-5.3,14.5-6.6    c8-2.1,13.6-7.4,18.5-13.6c2.1-2.7,3.4-5.7,4.3-9c1.1-3.9,2.1-7.8,3.2-11.8c0.1,0.1,0.2,0.2,0.2,0.3c0.5,7,0.5,13.9-1.4,20.7    c-0.7,2.6-2,4.8-3.9,6.8c-2.3,2.5-4.6,5-6.8,7.5c-2.4,2.6-3.7,5.6-3.4,9.2c0.4,5.7-2.6,9.7-6.6,13.3c-0.2,0.2-0.6,0-0.5-0.3    c0.5-2,1-3.8,1.3-5.6c0.2-1.1,0.2-2.4-0.1-3.4c-1.2-3.6-1.5-7.1-0.1-10.6c0.1-0.2-0.1-0.4-0.3-0.4c-9.7,0.7-10.1,9.2-10.1,10.7    c0,0.1-0.1,0.2-0.2,0.3c-0.5,0.2-2.3,0.9-7.2,3.6C1112,767.6,1113.8,770.9,1114.6,772z" id="path62">
        </path>
        <path fill="#9B6550" d="M1004.8,755.2c1.7-1.6,4.1-1.8,6.2-2.4c2.3-0.7,4.4-2,6.2-3.5c2.4-2.1,4.9-4.3,6.8-7c1.9-2.7,2.5-6,3-9.2    c1.1-6.3-0.2-14.3-0.9-19.6c-0.1-0.4,0.5-0.5,0.6-0.2l1.5,4.4c2.6,7.7,3,12,3.4,18.4c0.4,6-3.1,11.8-6.8,16.3c0,0-0.1,0-0.1,0    c-2.5-0.1-5.2,0.1-7.7,0.5c-1.8,0.3-3.7,0.7-5.2,1.8c-1.5,1-2.9,2.4-4.3,3.6c-0.6,0.6-1.6,0.5-2.4,0.7c-2.2,0.6-3.8,2.7-4.6,4.7    c-0.2,0.6-0.4,1.1-0.9,1.7c0-0.4-0.1-0.8,0-1.1C1000.4,760.6,1002.2,757.6,1004.8,755.2z" id="path64">
        </path>
        <path fill="#9B6550" d="M1156.1,696.6C1156.1,696.6,1156.1,696.6,1156.1,696.6C1156.1,696.6,1156.1,696.6,1156.1,696.6    L1156.1,696.6L1156.1,696.6L1156.1,696.6C1156.1,696.6,1156.1,696.6,1156.1,696.6c0.1,0,0.1,0,0.2-0.1c0.1,0,0.1-0.1,0.2-0.1    c0.3-0.2,0.8-0.5,1.4-1.2c0.3-0.3,0.7-0.8,1-1.3c0.2-0.3,0.4-0.5,0.6-0.8c0.1-0.1,0.2-0.3,0.3-0.5l0.1-0.1l0-0.1    c0.1-0.2-0.1,0.2-0.1,0.2l0,0c0.1-0.1,0.1-0.2,0.2-0.3c0.2-0.4,0.5-0.9,0.8-1.3c0.1-0.2,0.3-0.5,0.4-0.7c0.1-0.1,0.1-0.2,0.2-0.3    l0.1-0.3c0.4-0.8,0.8-1.5,1.2-2.5c0.2-0.5,0.4-0.9,0.6-1.4c0.2-0.5,0.4-1,0.6-1.5c0.1-0.3,0.2-0.5,0.3-0.8    c0.1-0.3,0.2-0.5,0.3-0.8c0.2-0.6,0.4-1.1,0.5-1.7c0.6-2.3,1.2-4.9,1.5-7.6c0.4-2.7,0.5-5.7,0.5-8.7c0-3.1-0.2-6.3-0.7-9.7    c-0.1-0.8-0.2-1.6-0.4-2.4c-0.2-0.9-0.3-1.8-0.5-2.8c-0.2-0.8-0.4-1.7-0.5-2.5c-0.2-0.9-0.4-1.8-0.7-2.6c-0.3-1.1-0.6-2.2-0.9-3.3    c-0.2-0.5,0.4-1,0.9-0.9l13.5,4.5c0.2,0.1,0.4,0.3,0.5,0.5c0.1,0.5,0.3,0.9,0.4,1.4c0.2,0.9,0.5,1.8,0.7,2.7c0.2,1,0.4,2,0.7,3    c0.8,3.9,1.3,7.7,1.5,11.4c0.2,3.7,0.3,7.3,0,10.8c-0.3,3.4-0.7,6.7-1.4,9.8c-0.2,0.8-0.4,1.5-0.5,2.3c-0.1,0.4-0.2,0.7-0.3,1.1    c-0.1,0.4-0.2,0.7-0.3,1.1c-0.2,0.7-0.4,1.4-0.6,2.1c-0.2,0.7-0.5,1.3-0.7,2c-0.4,1.3-1,2.6-1.6,3.8c-0.1,0.2-0.1,0.3-0.2,0.5    c-0.1,0.2-0.1,0.3-0.2,0.4c-0.1,0.2-0.2,0.5-0.3,0.7c-0.2,0.5-0.5,0.9-0.7,1.4c-0.1,0.1-0.1,0.2-0.2,0.3c-0.1,0.2-0.2,0.4-0.3,0.6    c-0.1,0.3-0.3,0.5-0.4,0.8c-0.3,0.5-0.6,1-0.9,1.5c-0.6,1-1.3,1.9-1.9,2.7c-1.3,1.7-2.8,3.1-4.2,4.2c-0.3,0.3-0.7,0.5-1,0.7    c-0.3,0.2-0.6,0.4-0.9,0.6c-0.2,0.1-0.3,0.2-0.4,0.3l-0.1,0.1l-0.1,0.1c-0.1,0-0.2,0.1-0.3,0.1c-0.3,0.2-0.6,0.3-0.9,0.4    c-0.1,0-0.1,0.1-0.2,0.1c-0.4,0.2-0.8,0-0.9-0.4l-6-14.5C1155.6,697.2,1155.8,696.7,1156.1,696.6z" id="path66">
        </path>
        <path fill="#9B6550" d="M1168.1,554.3c-1.2,0.2-3.2,0.5-4.1,1c-0.4,0.2-0.8,0-0.9-0.4c-2.3-9.5-3.1-18.8-10.2-26.2    c-3.8-3.9-11.8-6.1-15.6-1c-2.6,3.5-2.9,8.7-2.5,12.8c1.6,17.4,10.2,33.6,18.5,48.6c4.3,7.8,8.7,15.4,12.7,23.2    c4,7.7,7.4,15.6,10,23.4c0.2,0.6,0.6,2,0.8,2.9c0.1,0.4-0.3,0.7-0.6,0.6l-13.8-4.3c-0.2-0.1-0.3-0.2-0.4-0.4    c-1.7-5.6-4-11.4-6.5-17.2c-3.3-7.6-7.2-15.4-11.1-23.5c-1.9-4.1-3.9-8.2-5.7-12.4c-4.2-9.6-8.4-19.4-10.3-29.8    c-1.8-10-4.1-25.9,6-32.4c1.5-1,3.2-1.6,5-2c6.1-1.3,13.1,0.4,17.9,4.3c5.5,4.4,8.4,12.1,9.7,18.8c0.7,3.8,1.8,10.8,2.2,13.2    C1168.9,553.8,1168.6,554.3,1168.1,554.3z" id="path68">
        </path>
        <path fill="#9B6550" d="M1177.1,577.5c-0.5-2.1-1.5-6.6-4.6-5c-2.2,1.1-1.7,5-0.3,6.6c4.8,5.4,7,18.3,5.4,24    c-0.1,0.4-0.7,0.3-0.7-0.1c-0.4-3.4-2.1-11.4-9.8-16.2c-10-6.1-7.6-19.7-7.6-19.7s0.9-5,4.8-7.6c1.5-1,3.3-1.6,5.7-1.5    c0.1,0,0.1,0,0.2,0c8.6,0.4,11.6,6.5,11.7,16.8c0.1,6,1.8,9.7,3,11.6c0.2,0.3-0.2,0.7-0.5,0.5    C1180.9,584.3,1178.2,581.7,1177.1,577.5z" id="path70">
        </path>
      </g>
    </g>
    <text y="833.25372" x="824.9184" font-size="30" id="text7311" style="font-size:30px;line-height:125%;font-family:ArialMT;text-align:center;text-anchor:middle;fill:#9b6550">
      <tspan style="font-style:normal;font-variant:normal;font-weight:normal;font-stretch:normal;font-size:30px;line-height:125%;font-family:Anton;-inkscape-font-specification:'Anton, Normal';text-align:center;writing-mode:lr-tb;text-anchor:middle" id="text21">
        "If ever you feel like an animal among men, be a lion.”
      </tspan>
    </text>
  </g>
</svg>