<?xml version="1.0" encoding="UTF-8" standalone="no"?>
<svg xmlns:dc="http://purl.org/dc/elements/1.1/" xmlns:cc="http://creativecommons.org/ns#"
     xmlns:rdf="http://www.w3.org/1999/02/22-rdf-syntax-ns#" xmlns:svg="http://www.w3.org/2000/svg"
     xmlns="http://www.w3.org/2000/svg" xmlns:xlink="http://www.w3.org/1999/xlink" version="1.1" id="svg1681"
     viewBox="0 0 1600 1000" height="1000" width="1600">
    <defs id="defs4">
        <clipPath id="clipPath4149" clipPathUnits="userSpaceOnUse">
            <path d="M 1065.2679,606.5495 A 261.4278,243.79814 0 0 1 803.85155,850.34764 261.4278,243.79814 0 0 1 542.41235,606.57077 261.4278,243.79814 0 0 1 803.80593,362.75136 261.4278,243.79814 0 0 1 1065.2679,606.50695"
                  id="path4151"
                  style="opacity:0.97000002;fill:none;fill-opacity:1;stroke:#000000;stroke-width:1.07886481;stroke-linecap:butt;stroke-linejoin:miter;stroke-miterlimit:4;stroke-dasharray:none;stroke-dashoffset:0;stroke-opacity:1"/>
        </clipPath>
        <clipPath id="clipPath4147" clipPathUnits="userSpaceOnUse">
            <path d="M 1065.4761,633.33337 A 261.90463,235.71416 0 0 1 803.87202,869.04738 261.90463,235.71416 0 0 1 541.66753,633.87436 261.90463,235.71416 0 0 1 802.66983,397.62061 261.90463,235.71416 0 0 1 1065.4733,632.2514"
                  id="path4149"
                  style="opacity:0.647343;fill:none;fill-opacity:1;stroke:#000000;stroke-width:1.00025785;stroke-linecap:butt;stroke-linejoin:miter;stroke-miterlimit:4;stroke-dasharray:none;stroke-dashoffset:0;stroke-opacity:1"/>
        </clipPath>
        <clipPath id="clipPath4154" clipPathUnits="userSpaceOnUse">
            <path id="jd_bd" d="m 541.66669,395.2381 525.00001,0 0,475 -525.00001,0 z"
                  style="opacity:0.647343;fill:none;fill-opacity:1;stroke:#000000;stroke-width:1;stroke-linecap:butt;stroke-linejoin:miter;stroke-miterlimit:4;stroke-dasharray:none;stroke-dashoffset:0;stroke-opacity:1"/>
        </clipPath>
    </defs>
    <metadata id="metadata7">
        <rdf:RDF>
            <cc:Work rdf:about="">
                <dc:format>image/svg+xml</dc:format>
                <dc:type rdf:resource="http://purl.org/dc/dcmitype/StillImage"/>
                <dc:title></dc:title>
            </cc:Work>
        </rdf:RDF>
    </metadata>
    <image xlink:href="/designs/templates/002001001-1.jpg" width="1600" height="1000" id="jd_bg" x="0" y="0"/>
    <g id="jd_nt" clip-path="url(#clipPath4154)">
        <svg version="1.1" viewBox="0 0 530 540" x="540.39215" y="361.05368" width="530"
             height="540" preserveAspectRatio="xMidYMid meet" id="svg9">
            <image xlink:href="/designs/templates/figure3.jpg" id="image11" height="540" width="530"/>
        </svg>
    </g>
</svg>
 

