<?xml version="1.0" encoding="utf-8"?>
<?xml-stylesheet type="text/css" href="https://fonts.googleapis.com/css?family=Niconne"?>
<svg xmlns:dc="http://purl.org/dc/elements/1.1/" xmlns:cc="http://creativecommons.org/ns#" xmlns:rdf="http://www.w3.org/1999/02/22-rdf-syntax-ns#" xmlns:svg="http://www.w3.org/2000/svg" xmlns="http://www.w3.org/2000/svg" xmlns:xlink="http://www.w3.org/1999/xlink" version="1.1" viewBox="0 0 1600 1000" height="1000" width="1600" id="svg1680">
  <metadata id="metadata10">
    <rdf:RDF>
      <cc:Work rdf:about="">
        <dc:format>
          image/svg+xml
        </dc:format>
        <dc:type rdf:resource="http://purl.org/dc/dcmitype/StillImage">
        </dc:type>
        <dc:title>
        </dc:title>
      </cc:Work>
    </rdf:RDF>
  </metadata>
  <defs id="defs8">
    <filter style="color-interpolation-filters:sRGB;" id="filter4304">
      <feGaussianBlur result="result0" in="SourceGraphic" stdDeviation="0.5" id="feGaussianBlur4306">
      </feGaussianBlur>
      <feTurbulence baseFrequency="0.2" seed="300" numOctaves="10" result="result1" type="fractalNoise" id="feTurbulence4308">
      </feTurbulence>
      <feGaussianBlur stdDeviation="0.5" result="result91" id="feGaussianBlur4310">
      </feGaussianBlur>
      <feDisplacementMap xChannelSelector="R" scale="5" result="result6" in="result0" in2="result91" id="feDisplacementMap4312">
      </feDisplacementMap>
      <feComposite result="result2" operator="in" in2="result1" in="result6" id="feComposite4314">
      </feComposite>
      <feComposite k3="3" in2="result2" in="result0" operator="arithmetic" id="feComposite4316">
      </feComposite>
      <feBlend result="fbSourceGraphic" mode="multiply" in2="result2" id="feBlend4318">
      </feBlend>
      <feColorMatrix values="1 0 0 -1 0 1 0 1 -1 0 1 0 0 -1 0 -1.8 -0.5 0 5.7 -3.5 " in="fbSourceGraphic" result="fbSourceGraphicAlpha" id="feColorMatrix4320">
      </feColorMatrix>
      <feGaussianBlur stdDeviation="0.5" in="fbSourceGraphicAlpha" result="result0" id="feGaussianBlur4322">
      </feGaussianBlur>
      <feDiffuseLighting result="result5" surfaceScale="50" diffuseConstant="0.6" id="feDiffuseLighting4324">
        <feDistantLight azimuth="225" elevation="10" id="feDistantLight4326">
        </feDistantLight>
      </feDiffuseLighting>
      <feComposite in2="fbSourceGraphicAlpha" in="result5" result="result2" operator="in" id="feComposite4328">
      </feComposite>
      <feComposite in="fbSourceGraphic" result="result4" operator="arithmetic" k2="1" k3="0.7" in2="result2" id="feComposite4330">
      </feComposite>
    </filter>
    <clipPath id="clipPath4244" clipPathUnits="userSpaceOnUse">
      <path id="jd_bd" d="m 450.90909,207.27274 738.18171,0 0,647.2727 -738.18171,0 z" style="opacity:1;fill:none;fill-opacity:1;fill-rule:nonzero;stroke:#ffc300;stroke-width:2.20000005;stroke-linecap:butt;stroke-linejoin:miter;stroke-miterlimit:4;stroke-dasharray:none;stroke-dashoffset:0;stroke-opacity:1">
      </path>
    </clipPath>
  </defs>
  <image xlink:href="/designs/templates/002000101-0.jpg" id="jd_bg" height="1000" width="1600" style="stroke-width:1;stroke-miterlimit:4;stroke-dasharray:none;fill:#2b1100">
  </image>
  <g clip-path="url(#clipPath4244)" id="jd_nt">
    <g id="g3" transform="matrix(2.1551812,0,0,2.1551812,-46.115433,-106.82783)">
      <rect id="rect5" height="244.72301" width="171.30701" transform="matrix(0.973,-0.2307,0.2307,0.973,-60.7141,88.5772)" y="181.513" x="262.70599" style="fill:#6c5d53">
      </rect>
      <g style="fill:#917c6f" id="g7">
        <path id="path9" d="m 433.248,314.326 c 7.111,21.421 39.35,80.683 39.35,80.683 l -146.927,37.602 c 0,0 -24.5,-33.508 -34.159,-69.85 C 280.804,322.484 250.216,209.807 250.216,209.807 L 399.598,175.14 c 0,-0.002 22.512,105.641 33.65,139.186 z" style="fill:#917c6f">
        </path>
        <path id="path11" d="m 325.16,434.034 -0.499,-0.685 c -0.247,-0.338 -24.752,-34.115 -34.359,-70.266 -10.583,-39.815 -40.988,-151.822 -41.294,-152.95 l -0.34,-1.254 151.888,-35.249 0.266,1.247 c 0.225,1.056 22.624,105.958 33.613,139.055 6.994,21.069 38.939,79.886 39.262,80.478 l 0.768,1.414 -149.305,38.21 z M 251.764,210.733 c 3.389,12.488 30.98,114.172 40.959,151.705 8.732,32.86 29.97,63.793 33.469,68.747 l 144.54,-36.99 C 465.797,385.047 438.51,334.153 432.059,314.72 421.681,283.464 401.216,188.654 398.639,176.645 l -146.875,34.088 z" style="fill:#917c6f">
        </path>
      </g>
      <g id="g13">
        <g id="g15">
          <g id="g17">
            <path id="path19" d="m 374.301,199.015 c -3.511,0 -6.26,-3.7 -6.26,-8.422 0,-4.722 2.749,-8.422 6.26,-8.422 3.509,0 6.258,3.7 6.258,8.422 0,4.722 -2.748,8.422 -6.258,8.422 z m 0,-14.34 c -2.037,0 -3.756,2.71 -3.756,5.918 0,3.208 1.719,5.918 3.756,5.918 2.034,0 3.754,-2.709 3.754,-5.918 0,-3.208 -1.719,-5.918 -3.754,-5.918 z" style="fill:#231f20">
            </path>
          </g>
          <path id="path21" d="m 374.759,150.172 c -8.446,0 -15.295,9.931 -15.295,22.179 0,1.078 0.056,2.14 0.162,3.179 l 5.986,-1.499 c -0.049,-0.55 -0.081,-1.11 -0.081,-1.68 0,-7.392 4.13,-13.386 9.228,-13.386 5.099,0 9.229,5.993 9.229,13.386 0,7.321 -4.057,13.261 -9.087,13.373 0,0 -1.369,1.086 -1.465,4.23 -0.127,4.333 1.555,4.566 1.555,4.566 8.341,-0.181 15.063,-10.036 15.063,-22.169 0,-12.249 -6.847,-22.179 -15.295,-22.179 z" style="fill:#231f20">
          </path>
        </g>
        <g id="g23">
          <g id="g25">
            <path id="path27" d="m 340.906,206.918 c -3.509,0 -6.258,-3.7 -6.258,-8.422 0,-4.722 2.748,-8.422 6.258,-8.422 3.509,0 6.257,3.7 6.257,8.422 0,4.722 -2.748,8.422 -6.257,8.422 z m 0,-14.339 c -2.035,0 -3.754,2.709 -3.754,5.918 0,3.208 1.719,5.918 3.754,5.918 2.034,0 3.753,-2.71 3.753,-5.918 0,-3.209 -1.719,-5.918 -3.753,-5.918 z" style="fill:#231f20">
            </path>
          </g>
          <path id="path29" d="m 341.366,158.075 c -8.446,0 -15.295,9.93 -15.295,22.176 0,1.081 0.056,2.142 0.159,3.181 l 5.986,-1.499 c -0.049,-0.553 -0.081,-1.11 -0.081,-1.682 0,-7.39 4.133,-13.383 9.231,-13.383 5.096,0 9.229,5.994 9.229,13.383 0,7.324 -4.057,13.263 -9.089,13.374 0,0 -1.367,1.088 -1.462,4.233 -0.127,4.333 1.555,4.563 1.555,4.563 8.339,-0.181 15.061,-10.033 15.061,-22.169 -0.001,-12.246 -6.848,-22.177 -15.294,-22.177 z" style="fill:#231f20">
          </path>
        </g>
        <g id="g31">
          <g id="g33">
            <path id="path35" d="m 307.51,214.821 c -3.507,0 -6.255,-3.7 -6.255,-8.422 0,-4.722 2.749,-8.422 6.255,-8.422 3.511,0 6.26,3.7 6.26,8.422 0,4.722 -2.748,8.422 -6.26,8.422 z m 0,-14.339 c -2.035,0 -3.751,2.71 -3.751,5.918 0,3.208 1.717,5.918 3.751,5.918 2.037,0 3.756,-2.709 3.756,-5.918 0,-3.209 -1.719,-5.918 -3.756,-5.918 z" style="fill:#231f20">
            </path>
          </g>
          <path id="path37" d="m 307.97,165.976 c -8.448,0 -15.295,9.93 -15.295,22.179 0,1.081 0.056,2.14 0.161,3.179 l 5.984,-1.496 c -0.047,-0.553 -0.078,-1.11 -0.078,-1.682 0,-7.392 4.13,-13.383 9.229,-13.383 5.099,0 9.228,5.991 9.228,13.383 0,7.321 -4.057,13.261 -9.087,13.373 0,0 -1.372,1.088 -1.462,4.233 -0.129,4.333 1.553,4.563 1.553,4.563 8.341,-0.181 15.063,-10.033 15.063,-22.169 -0.001,-12.25 -6.85,-22.18 -15.296,-22.18 z" style="fill:#231f20">
          </path>
        </g>
        <g id="g39">
          <g id="g41">
            <path id="path43" d="m 274.117,222.722 c -3.509,0 -6.258,-3.7 -6.258,-8.422 0,-4.722 2.749,-8.422 6.258,-8.422 3.509,0 6.257,3.7 6.257,8.422 10e-4,4.722 -2.748,8.422 -6.257,8.422 z m 0,-14.339 c -2.035,0 -3.754,2.709 -3.754,5.918 0,3.208 1.719,5.918 3.754,5.918 2.034,0 3.753,-2.71 3.753,-5.918 10e-4,-3.209 -1.718,-5.918 -3.753,-5.918 z" style="fill:#231f20">
            </path>
          </g>
          <path id="path45" d="m 274.577,173.879 c -8.449,0 -15.295,9.93 -15.295,22.179 0,1.081 0.054,2.14 0.157,3.179 l 5.989,-1.497 c -0.049,-0.553 -0.081,-1.113 -0.081,-1.682 0,-7.392 4.133,-13.386 9.231,-13.386 5.096,0 9.229,5.994 9.229,13.386 0,7.321 -4.059,13.263 -9.087,13.371 0,0 -1.374,1.09 -1.465,4.233 -0.129,4.336 1.555,4.566 1.555,4.566 8.339,-0.181 15.063,-10.033 15.063,-22.169 -10e-4,-12.249 -6.85,-22.18 -15.296,-22.18 z" style="fill:#231f20">
          </path>
        </g>
      </g>
      <rect id="rect47" height="10.317" width="90.321999" transform="matrix(0.9739,-0.2268,0.2268,0.9739,-46.0411,79.2944)" y="234.806" x="276.814" style="fill:#231f20">
      </rect>
      <rect id="rect49" height="10.319" width="90.324997" transform="matrix(0.9739,-0.2269,0.2269,0.9739,-53.9393,82.9377)" y="270.96799" x="288.681" style="fill:#231f20">
      </rect>
      <rect id="rect51" height="10.317" width="90.324997" transform="matrix(0.9739,-0.2268,0.2268,0.9739,-61.7882,86.0689)" y="306.71201" x="298.42401" style="fill:#231f20">
      </rect>
      <polygon id="polygon55" points="390.82,228.647 442.68,165.365 394.624,238.162 380.354,219.13 " style="fill:#231f20">
      </polygon>
      <polygon id="polygon57" points="399.383,267.66 451.243,204.38 403.19,277.174 388.917,258.145 " style="fill:#231f20">
      </polygon>
      <polygon id="polygon59" points="408.898,305.726 460.758,242.444 412.705,315.24 398.432,296.206 " style="fill:#231f20">
      </polygon>
      <g id="g61">
        <path id="path63" d="m 511.716,225.95 -82.422,81.192 -1.413,4.206 36.543,35.878 5.468,-2.142 78.37,-83.265 -36.546,-35.869 z m -54.443,81.133 c -1.961,1.956 -5.155,1.939 -7.101,-0.029 -1.956,-1.964 -1.944,-5.15 0.025,-7.101 l 53.31,-52.917 c 1.971,-1.961 5.155,-1.951 7.111,0.022 1.946,1.964 1.944,5.145 -0.029,7.104 l -53.316,52.921 z m 70.073,-36.541 -53.313,52.914 c -1.968,1.966 -5.15,1.944 -7.099,-0.022 -1.964,-1.966 -1.954,-5.152 0.017,-7.106 l 53.318,-52.922 c 1.966,-1.949 5.145,-1.944 7.104,0.029 1.954,1.967 1.942,5.146 -0.027,7.107 z" style="fill:#231f20">
        </path>
        <polygon id="polygon65" points="427.737,311.171 446.172,329.262 464.602,347.364 404.166,372.05 " style="fill:#231f20">
        </polygon>
        <path id="path67" d="m 451.791,332.739 c 3.729,-3.803 9.842,-3.854 13.647,-0.12 3.793,3.732 3.854,9.838 0.12,13.64 -3.727,3.805 -9.835,3.861 -13.645,0.127 -3.797,-3.734 -3.851,-9.844 -0.122,-13.647 z" style="fill:#231f20">
        </path>
        <path id="path69" d="m 428.886,310.254 c 3.736,-3.805 9.847,-3.851 13.642,-0.134 3.805,3.741 3.859,9.852 0.13,13.647 -3.736,3.802 -9.842,3.861 -13.638,0.137 -3.812,-3.741 -3.873,-9.85 -0.134,-13.65 z" style="fill:#231f20">
        </path>
        <path id="path71" d="m 440.545,321.689 c 3.717,-3.802 9.835,-3.854 13.638,-0.117 3.805,3.729 3.854,9.833 0.125,13.638 -3.734,3.805 -9.84,3.859 -13.645,0.127 -3.801,-3.733 -3.857,-9.846 -0.118,-13.648 z" style="fill:#231f20">
        </path>
        <g id="g73">
          <polygon id="polygon75" points="451.766,346.413 457.437,344.985 461.912,340.884 460.946,341.447 455.346,342.677 450.138,344.772 445.057,347.179 440.699,351.167 435.085,352.353 430.343,355.468 425.629,358.669 420.599,361.173 415.659,364.438 420.944,362.102 425.832,358.938 431.319,357.102 435.97,353.387 441.333,351.253 446.436,348.597 " style="fill:#ffffff">
          </polygon>
        </g>
        <g id="g77">
          <polygon id="polygon79" points="426.981,351.385 424.046,355.429 420.039,358.185 416.388,361.364 412.446,364.112 412.818,364.501 411.871,364.259 416.043,361.616 420.67,359.378 424.533,356.189 428.289,352.852 432.111,349.609 432.079,348.538 436.97,346.445 440.391,342.506 444.661,339.615 448.172,335.771 452.334,332.861 450.827,332.962 446.233,334.977 442.729,338.517 439.296,342.146 435.202,344.983 431.238,347.968 431.182,348.9 " style="fill:#ffffff">
          </polygon>
        </g>
        <g id="g81">
          <polygon id="polygon83" points="422.509,347.088 419.714,351.094 417.068,355.194 414.317,359.227 412.143,363.66 412.26,363.002 412.766,363.697 415.754,359.73 417.818,355.082 421.286,351.475 424.091,347.364 427.455,343.682 427.536,342.951 430.216,338.6 433.551,334.749 436.596,330.68 439.457,326.459 442.939,322.818 441.599,321.967 438.193,326.963 434.989,330.81 431.757,334.649 430.191,339.686 427.091,343.633 426.299,343.819 " style="fill:#ffffff">
          </polygon>
        </g>
        <g id="g85">
          <polygon id="polygon87" points="419.068,347.416 419.816,341.488 424.064,336.962 426.301,331.648 427.504,325.912 429.967,320.674 431.962,315.245 432.246,310.482 429.94,315.82 427.793,321.014 426.947,326.728 423.521,331.426 421.259,336.578 420.08,342.149 417.244,347.076 415.19,352.304 412.473,357.295 410.583,362.525 410.888,362.665 413.989,357.821 416.75,352.71 " style="fill:#ffffff">
          </polygon>
        </g>
        <path id="path89" d="m 509.628,225.488 18.264,-18.609 1.113,-1.127 40,39.269 -19.379,19.736 -39.998,-39.269 0,0 z m 4.484,-0.035 35.474,34.826 14.933,-15.217 -35.467,-34.812 -14.94,15.203 0,0 z" style="fill:#231f20">
        </path>
        <polygon id="polygon91" points="412.106,357.833 408.206,367.91 418.202,363.821 " style="fill:#ffffff">
        </polygon>
      </g>
    </g>
    <text transform="matrix(0.97708841,-0.21283383,0.21283383,0.97708841,0,0)" id="text4243" y="855.76764" x="557.96857" style="font-style:normal;font-variant:normal;font-weight:normal;font-stretch:normal;font-size:37.5px;line-height:125%;font-family:Yesteryear;-inkscape-font-specification:'Yesteryear, Normal';text-align:center;letter-spacing:0px;word-spacing:0px;writing-mode:lr-tb;text-anchor:middle;fill:#ffcc00;fill-opacity:1;stroke:none;stroke-width:1px;stroke-linecap:butt;stroke-linejoin:miter;stroke-opacity:1">
      <tspan style="font-style:normal;font-variant:normal;font-weight:normal;font-stretch:normal;font-size:37.5px;line-height:125%;font-family:Yesteryear;-inkscape-font-specification:'Yesteryear, Normal';text-align:center;writing-mode:lr-tb;text-anchor:middle;fill:#ffcc00" y="855.76764" x="557.96857" id="text01">
        WILLIAM
      </tspan>
    </text>
  </g>
</svg>