<?xml version="1.0" encoding="UTF-8" standalone="no"?>
<svg xmlns:dc="http://purl.org/dc/elements/1.1/" xmlns:cc="http://creativecommons.org/ns#"
     xmlns:rdf="http://www.w3.org/1999/02/22-rdf-syntax-ns#" xmlns:svg="http://www.w3.org/2000/svg"
     xmlns="http://www.w3.org/2000/svg" xmlns:xlink="http://www.w3.org/1999/xlink" version="1.1" viewBox="0 0 1600 1000"
     height="1000" width="1600" id="svg1680">
    <metadata id="metadata10">
        <rdf:RDF>
            <cc:Work rdf:about="">
                <dc:format>image/svg+xml</dc:format>
                <dc:type rdf:resource="http://purl.org/dc/dcmitype/StillImage"/>
                <dc:title></dc:title>
            </cc:Work>
        </rdf:RDF>
    </metadata>
    <defs id="defs8">
        <clipPath clipPathUnits="userSpaceOnUse" id="clipPath4159">
            <path style="opacity:1;fill:none;fill-opacity:1;stroke:#ffffff;stroke-width:2.21399999;stroke-linecap:butt;stroke-linejoin:miter;stroke-miterlimit:4;stroke-dasharray:none;stroke-dashoffset:0;stroke-opacity:1"
                  d="m 889.83051,555.08472 394.06779,0 0,334.74575 -394.06779,0 z" id="jd_bd"/>
        </clipPath>
    </defs>
    <image xlink:href="/designs/templates/002001101-0.jpg" id="jd_bg" height="1000" width="1600"
           style="stroke-width:1;stroke-miterlimit:4;stroke-dasharray:none"/>
    <g id="jd_nt" clip-path="url(#clipPath4159)">
        <g transform="translate(879.48718,507.69231)" id="g3">
            <circle id="circle5" r="100.418" cy="207.379" cx="210.53999" style="fill:#f5c49c"/>
            <g id="g7">
                <path id="path9"
                      d="m 276.222,254.468 c -0.46,0.87 -0.47,1.91 -0.02,2.79 3.05,5.88 8.08,9.43 14.69,10.37 7.34,-9.77 12.93,-20.92 16.33,-33 -0.45,-0.02 -0.9,-0.03 -1.35,-0.03 -8.69,0 -20.9,3.45 -29.65,19.87 z"
                      style="fill:#f4bf93"/>
                <path id="path11"
                      d="m 189.373,123.828 c 0.79,-0.59 1.23,-1.54 1.19,-2.52 -0.21,-4.69 -1.75,-8.46 -4.18,-11.42 -13.35,3.29 -25.65,9.26 -36.29,17.3 5.4,3.37 11.1,5.11 16.86,5.11 7.439,0 14.979,-2.85 22.42,-8.47 z"
                      style="fill:#f4bf93"/>
                <path id="path13"
                      d="m 159.813,144.308 c 0.55,-0.82 0.68,-1.85 0.32,-2.77 -2.33,-6.09 -6.91,-10.15 -13.2,-11.86 -10.06,8.24 -18.5,18.41 -24.74,29.93 3.26,0.91 6.46,1.37 9.58,1.37 11.029,0 20.459,-5.61 28.04,-16.67 z"
                      style="fill:#f4bf93"/>
                <path id="path15"
                      d="m 141.512,173.878 c 0.3,-0.94 0.12,-1.97 -0.48,-2.75 -3.84,-4.95 -9.18,-7.57 -15.46,-7.57 -1.96,0 -3.89,0.24 -5.73,0.66 -5.14,10.79 -8.42,22.65 -9.4,35.14 10.911,-0.38 24.641,-5.27 31.07,-25.48 z"
                      style="fill:#f4bf93"/>
                <path id="path17"
                      d="m 177.302,258.408 c 2.09,-5.11 2.65,-11.09 1.52,-17.1 -1.64,-8.77 -6.61,-16.22 -14,-20.98 -0.35,-0.22 -0.7,-0.44 -1.06,-0.64 -3.92,-2.25 -8.58,-3.43 -13.53,-3.43 l -0.01,0 c -0.61,0 -1.21,0.02 -1.82,0.06 -10.62,0.56 -20.69,6.09 -24.9,13.16 -3,-2.37 -7.11,-4 -11.87,-4.69 0.08,0.52 0.18,1.04 0.29,1.56 8.22,43.04 43.92,76.32 88.14,80.91 0.06,-0.07 0.12,-0.14 0.18,-0.21 2.86,-3.34 4.91,-7.01 6.06,-10.72 0.1,-0.33 0.19,-0.66 0.27,-0.99 0.42,-1.71 0.68,-3.42 0.77,-5.12 0.01,-0.26 0.02,-0.52 0.02,-0.78 0.03,-1.42 -0.06,-2.83 -0.28,-4.21 -2.59,-16.44 -17.01,-26.4 -29.78,-26.82 z"
                      style="fill:#f4bf93"/>
                <path id="path19"
                      d="m 298.402,192.088 c 0.52,0.83 1.42,1.35 2.41,1.4 0.31,0.01 0.62,0.01 0.92,0.01 2.89,0 5.58,-0.59 8.02,-1.71 -2.04,-13.16 -6.65,-25.46 -13.28,-36.4 -6.849,11.03 -6.28,23.67 1.93,36.7 z"
                      style="fill:#f4bf93"/>
                <path id="path21"
                      d="m 280.502,160.898 c 0.54,0.44 1.21,0.68 1.9,0.68 0.28,0 0.56,-0.04 0.83,-0.12 5.07,-1.47 8.97,-4.51 11.45,-8.91 -7.15,-10.95 -16.38,-20.42 -27.13,-27.84 -3.98,13.39 0.4,25.92 12.95,36.19 z"
                      style="fill:#f4bf93"/>
                <path id="path23"
                      d="m 252.873,280.228 c -0.69,0.7 -1,1.7 -0.82,2.67 0.97,5.16 3.56,9.27 7.52,12.13 11.25,-6.3 21.17,-14.71 29.2,-24.7 -3.59,-1.28 -7.19,-1.93 -10.79,-1.93 -8.851,0 -17.301,3.98 -25.11,11.83 z"
                      style="fill:#f4bf93"/>
                <path id="path25"
                      d="m 252.592,140.158 c 0.37,0.15 0.76,0.23 1.15,0.23 0.57,0 1.14,-0.17 1.63,-0.48 6.68,-4.33 9.1,-10.67 8.93,-17.36 -10.37,-6.59 -22.03,-11.33 -34.52,-13.74 -0.1,14.18 7.73,25.1 22.81,31.35 z"
                      style="fill:#f4bf93"/>
                <path id="path27"
                      d="m 220.092,295.028 c -0.88,0.44 -1.49,1.29 -1.62,2.27 -0.5,3.61 -0.08,7 1.2,10.08 13.25,-1.18 25.75,-4.95 37.01,-10.79 -5.53,-4.17 -11.74,-6.33 -18.43,-6.33 -5.75,0 -11.86,1.61 -18.16,4.77 z"
                      style="fill:#f4bf93"/>
            </g>
            <path id="path29"
                  d="m 316.757,141.614 c -1.163,-2.459 -2.527,-4.859 -4.079,-7.176 -1.935,-2.879 -4.147,-5.653 -6.599,-8.308 -0.51,-0.547 -1.027,-1.095 -1.552,-1.635 -0.592,-0.6 -1.275,-1.807 2.415,-1.807 9.777,-0.54 18.729,-4.739 20.35,-15.003 -17.013,-16.181 -33.396,-10.947 -45.438,-0.442 -5.346,-3.12 -11.03,-5.954 -16.938,-8.48 -1.058,-0.45 -0.847,-1.89 0.3,-2.25 9.973,-3.119 18.325,-9.89 16.833,-20.807 -21.602,-10.91 -35.998,-0.232 -44.403,13.939 -8.998,-2.234 -18.107,-3.779 -26.985,-4.536 -6.155,-0.525 -12.207,-0.667 -18.033,-0.397 -4.372,0.202 -8.623,0.637 -12.702,1.32 -6.118,1.035 -11.861,2.631 -17.065,4.881 -1.904,0.825 -4.621,-0.387 -4.336,-1.97 1.724,-9.573 -0.291,-19.164 -9.82,-23.134 -19.72,12.709 -18.52,29.835 -11.179,44.006 -2.354,1.365 -4.619,2.932 -6.801,4.679 -2.961,2.376 -5.766,5.068 -8.405,8.038 -0.27,0.308 -2.22,3.832 -2.759,-0.922 -1.282,-9.867 -6.224,-18.655 -16.736,-19.413 -14.673,18.333 -8.075,34.206 3.412,45.318 -2.482,5.241 -4.702,10.759 -6.628,16.466 -0.495,1.455 -2.362,1.664 -2.924,0.345 -4.027,-9.357 -11.382,-16.691 -21.879,-14.336 -9.036,22.449 2.819,35.893 17.65,43.062 -1.462,9.162 -2.227,18.362 -2.227,27.277 0,3.582 0.139,7.107 0.39,10.571 -2.904,1.443 -5.342,3.405 -7.098,5.803 -4.085,5.58 -5.684,12.484 -4.502,19.441 1.078,6.349 4.408,11.986 8.907,15.08 1.824,1.254 2.809,3.411 2.562,5.61 -0.246,2.199 -1.684,4.084 -3.74,4.904 -3.289,1.311 -6.646,6.462 -8.165,12.527 -2.061,8.227 -0.698,16.213 3.646,21.362 4.838,5.734 12.017,9.024 19.693,9.024 5.989,0 11.529,-1.985 15.198,-5.445 1.136,-1.072 2.617,-1.635 4.117,-1.635 0.841,0 1.688,0.177 2.485,0.54 2.219,1.011 3.605,3.264 3.507,5.7 -0.217,5.396 2.308,11.381 6.754,16.011 4.936,5.138 11.488,7.967 18.452,7.967 0.132,0 0.262,-10e-4 0.394,-0.003 8.571,-0.129 15.624,-6.574 19.366,-12.562 1.639,-2.623 2.762,-5.377 3.278,-7.829 11.717,3.635 24.167,5.598 37.07,5.598 10.128,0 19.983,-1.21 29.421,-3.49 1.854,-0.448 3.805,1.583 3.094,3.173 -4.335,9.692 -4.823,20.677 4.556,26.77 21.685,-8.93 23.604,-25.996 18.948,-41.262 2.557,-0.922 5.076,-2.047 7.536,-3.374 3.329,-1.792 6.561,-3.929 9.688,-6.358 0.33,-0.255 2.564,-2.452 2.564,1.695 -0.442,9.822 2.872,19.188 12.964,21.804 17.748,-15.371 14.126,-32.182 4.836,-45.183 3.509,-4.866 6.786,-10.077 9.792,-15.528 0.653,-1.17 2.242,-1.177 2.49,-0.007 2.137,10.235 8.068,19.209 19.083,18.782 12.949,-20.447 3.711,-35.81 -9.575,-45.543 3.097,-8.743 5.511,-17.658 7.123,-26.423 1.117,-6.073 1.853,-12.079 2.145,-17.905 0.225,-4.371 0.203,-8.646 -0.09,-12.769 -0.427,-6.193 -1.462,-12.064 -3.202,-17.463 -0.81,-2.512 -1.992,-6.516 2.082,-5.553 9.325,2.458 18.941,1.213 23.667,-7.876 -10.997,-20.725 -28.167,-20.987 -42.908,-14.869 z m 11.951,56.07 c -0.195,6.021 -0.907,12.35 -2.1,18.813 -1.455,7.91 -3.614,16.008 -6.381,23.986 -14.366,-5.481 -30.719,-4.574 -41.359,15.394 5.804,11.224 19.083,10.527 30.075,5.668 1.08,-0.472 1.987,0.818 1.387,1.98 -1.252,2.407 -2.557,4.769 -3.906,7.078 -2.002,3.404 -4.101,6.681 -6.291,9.792 -12.304,-10.002 -28.703,-14.576 -45.131,1.95 2.422,12.941 16.316,15.828 28.627,13.901 1.327,-0.203 1.672,1.372 0.54,2.377 -1.567,1.387 -3.157,2.684 -4.761,3.884 -2.984,2.227 -6.021,4.109 -9.08,5.609 -1.785,0.877 -3.577,1.619 -5.369,2.227 -8.48,-13.474 -22.606,-23.131 -43.519,-12.634 -1.553,11.155 7.205,18.001 17.467,21.051 1.479,0.439 1.277,1.935 -0.355,2.309 -8.356,1.916 -17.061,2.928 -26.012,2.928 -9.975,0 -19.651,-1.26 -28.881,-3.625 -4.424,-0.926 -4.674,-6.362 0.066,-6.826 4.175,-0.409 9.914,-3.393 14.232,-8.442 4.872,-5.697 7.133,-12.357 6.204,-18.273 -1.236,-7.865 -5.609,-12.894 -9.06,-15.728 -4.484,-3.683 -10.048,-5.796 -15.264,-5.796 -1.265,0 -2.495,0.126 -3.658,0.376 -0.419,0.09 -0.841,0.133 -1.258,0.133 -2,0 -3.904,-1.003 -5.026,-2.726 -1.356,-2.082 -1.288,-4.785 0.172,-6.796 3.211,-4.426 4.414,-10.882 3.215,-17.27 -1.326,-7.068 -5.316,-13.062 -11.236,-16.875 -3.061,-1.972 -6.744,-2.972 -10.947,-2.973 l -10e-4,-10e-4 0,10e-4 c -10.762,0 -21.366,6.855 -22.176,12.258 -0.38,2.531 -2.323,4.542 -4.839,5.008 -0.366,0.068 -0.732,0.101 -1.095,0.101 -2.132,0 -4.14,-1.139 -5.218,-3.042 -1.515,-2.673 -7.009,-5.38 -14.58,-5.38 -0.572,0 -1.138,0.016 -1.698,0.047 -2.298,0.518 -2.501,-1.156 -2.533,-1.851 -0.089,-1.973 -0.141,-3.967 -0.141,-5.988 0,-8.045 0.659,-16.405 1.935,-24.743 15.123,2.789 31.042,-1.065 37.902,-22.622 -7.49,-9.672 -19.839,-7.093 -29.632,-0.788 -1.32,0.848 -2.864,-0.532 -2.354,-2.144 0.697,-2.22 1.439,-4.417 2.219,-6.568 1.349,-3.711 2.827,-7.311 4.409,-10.774 13.909,7.618 30.869,9.147 44.036,-10.078 -4.492,-11.705 -17.583,-12.559 -28.987,-9.05 -1.852,0.57 -3.089,-1.14 -1.897,-2.617 1.057,-1.305 2.137,-2.557 3.239,-3.749 2.527,-2.729 5.181,-5.129 7.918,-7.161 1.597,-1.177 3.224,-2.234 4.874,-3.157 10.782,11.72 26.423,18.663 45.085,4.559 -0.551,-12.643 -12.905,-17.581 -24.931,-17.789 -1.718,-0.03 -2.448,-1.7 -0.979,-2.544 1.007,-0.58 2.059,-1.128 3.154,-1.643 2.872,-1.357 6.029,-2.497 9.433,-3.412 5.106,-1.379 10.752,-2.257 16.766,-2.647 6.005,-0.382 12.379,-0.285 18.925,0.27 8.008,0.682 16.286,2.054 24.489,4.034 -4.064,14.824 -1.575,31.012 19.322,39.68 10.482,-6.786 8.683,-19.675 2.961,-30.082 -0.645,-1.17 0.705,-2.347 2.062,-1.792 2.362,0.959 4.686,1.964 6.966,3.021 3.584,1.657 7.048,3.427 10.362,5.309 -8.765,13.212 -11.735,29.977 6.306,44.733 12.252,-3.546 14.074,-16.916 11.337,-28.725 -0.39,-1.688 1.372,-2.527 2.669,-1.29 1.304,1.237 2.534,2.49 3.697,3.764 2.504,2.759 4.678,5.601 6.463,8.502 1.042,1.687 1.957,3.397 2.729,5.129 -12.582,9.74 -20.83,24.736 -8.36,44.53 11.408,0.473 17.383,-9.166 19.345,-19.843 0.495,-2.69 3.809,-2.771 4.941,0.386 1.064,2.984 1.896,6.238 2.481,9.717 0.871,5.213 1.2,10.919 1.005,16.939 z"
                  style="fill:#549d74"/>
            <path id="path31"
                  d="m 205.817,285.749 c -2.721,-17.315 -19.772,-27.304 -32.991,-24.47 7.939,-10.941 5.703,-30.576 -9.031,-40.069 -14.735,-9.493 -37.953,1.028 -39.689,12.607 -5.771,-10.188 -31.217,-11.69 -41.572,2.453 -10.219,13.957 -5.532,32.771 5.484,40.347 -10.714,4.27 -17.435,27.638 -6.458,40.65 11.304,13.396 31.063,13.098 40.897,3.823 -0.543,13.507 12.2,28.61 29.726,28.345 17.526,-0.265 31.021,-21.89 26.049,-32.491 11.292,3.097 30.305,-13.88 27.585,-31.195 z"
                  style="fill:#ef976c"/>
            <path id="path33"
                  d="m 140.653,262.106 c -2.002,-0.647 -4.129,-0.986 -6.326,-0.986 -11.533,0 -20.92,9.386 -20.92,20.909 0,11.533 9.387,20.92 20.92,20.92 3.625,0 7.045,-0.935 10.013,-2.557 6.491,-3.563 10.896,-10.455 10.896,-18.363 0,-9.324 -6.141,-17.243 -14.583,-19.923 z"
                  style="fill:#f09f76"/>
            <path id="path35"
                  d="m 184.598,286.425 c -0.647,-2.804 -1.684,-5.36 -3.061,-7.589 -0.462,-0.75 -0.853,-1.305 -1.14,-1.715 -0.154,-0.206 -0.319,-0.441 -0.411,-0.596 0.092,-0.359 0.421,-1.201 0.667,-1.838 1.623,-4.128 2.065,-8.853 1.325,-13.463 -3.111,-0.575 -6.224,-0.575 -9.151,0.051 2.363,-3.255 3.821,-7.271 4.324,-11.574 -4.354,-5.545 -11.245,-8.832 -19.041,-8.832 -4.991,0 -9.817,1.428 -13.823,4.057 -4.601,-6.408 -12.128,-10.311 -20.19,-10.311 l -0.011,0 c -8.267,0 -15.795,4.108 -20.139,10.989 -2.321,3.667 -3.759,7.744 -4.149,11.79 -0.031,0.267 -0.021,0.596 -0.01,1.397 0.01,0.431 0.031,1.232 0.02,1.879 -1.663,0.616 -3.317,1.499 -4.929,2.619 -3.749,2.598 -7.271,6.563 -9.417,11.266 0.812,0.76 1.664,1.448 2.557,2.064 -1.479,0.585 -2.885,1.541 -4.169,2.794 -0.575,2.618 -0.678,5.36 -0.164,8.175 1.407,7.774 6.531,14.552 13.71,18.136 1.787,0.894 3.646,1.561 5.546,2.002 0.647,0.154 1.171,0.247 1.602,0.329 0.174,0.041 0.36,0.072 0.514,0.103 0.092,0.308 0.195,0.791 0.298,1.253 l 0.062,0.298 c 0.945,4.251 3.132,8.359 6.305,11.903 1.284,1.428 2.702,2.68 4.242,3.728 2.434,-1.068 4.642,-2.505 6.49,-4.251 -0.103,2.527 0.267,5.115 1.037,7.651 1.879,0.473 3.82,0.719 5.823,0.719 9.776,0 18.578,-5.71 22.553,-14.419 2.958,1.191 5.998,1.787 9.089,1.787 7.364,0 14.275,-3.389 18.968,-9.305 4.714,-5.939 6.419,-13.631 4.673,-21.097 z m -10.702,8.811 c -0.986,6.439 -7.548,10.281 -13.31,10.281 -2.3,0 -5.597,-0.575 -8.267,-3.328 -1.315,-1.355 -2.67,-2.043 -4.026,-2.043 -1.325,0 -2.373,0.585 -3.225,1.52 -1.633,1.766 -2.547,4.796 -3.328,7.415 -0.308,1.007 -0.729,2.404 -0.955,2.763 -2.599,4.067 -7.168,6.594 -11.924,6.594 -0.257,0 -0.514,-0.011 -0.78,-0.021 -3.913,-0.236 -6.84,-3.02 -8.236,-4.653 -3.205,-3.738 -3.153,-6.418 -3.061,-11.286 0.031,-1.613 -0.442,-2.927 -1.396,-3.903 -1.541,-1.571 -3.893,-1.787 -5.998,-1.787 -0.441,0 -0.883,0.01 -1.325,0.021 -0.39,0.01 -0.78,0.021 -1.15,0.021 -0.268,0 -1.099,0 -1.582,-0.124 -4.314,-1.047 -8.032,-4.221 -9.726,-8.298 -1.438,-3.482 -0.585,-8.853 2.034,-12.766 1.181,-1.766 3.759,-4.745 7.692,-4.745 l 0.359,0 0.379,0 c 1.736,0 5.803,0 6.532,-4.529 0.287,-1.756 -0.37,-3.246 -0.935,-4.55 -0.37,-0.842 -0.709,-1.633 -0.709,-2.28 0,-4.303 2.362,-8.997 5.885,-11.687 1.869,-1.428 4.2,-2.177 6.758,-2.177 5.905,0 11.543,3.851 13.125,8.965 0.462,1.52 1.499,4.868 4.601,5.484 0.329,0.072 0.667,0.103 1.038,0.103 0.441,0 0.904,-0.051 1.376,-0.165 2.146,-0.482 3.502,-2.197 4.601,-3.584 0.555,-0.708 1.088,-1.386 1.602,-1.756 2.321,-1.705 5.279,-2.65 8.308,-2.65 1.396,0 2.752,0.195 4.036,0.585 3.769,1.129 7.209,4.971 8.565,9.541 0.658,2.249 1.335,6.532 -1.602,9.993 -0.236,0.267 -0.523,0.534 -0.832,0.812 -1.027,0.924 -2.567,2.321 -2.27,5.011 0.298,2.711 2.188,3.78 3.431,4.488 0.482,0.277 0.934,0.534 1.252,0.832 2.93,2.825 3.639,8.155 3.063,11.903 z"
                  style="fill:#f09f76"/>
            <path id="path37"
                  d="m 182.601,286.886 c -0.569,-2.445 -1.484,-4.83 -2.808,-6.969 -2.04,-3.292 -2.462,-2.391 -1.045,-5.983 2.315,-5.875 1.899,-12.931 -0.627,-18.661 -5.772,-13.092 -23.55,-16.131 -34.378,-7.409 -8.296,-14.224 -29.202,-15.192 -38.057,-1.168 -2.065,3.27 -3.466,7.04 -3.847,10.899 -0.051,0.519 0.183,4.524 -0.188,4.632 -2.008,0.581 -3.89,1.554 -5.601,2.743 -6.958,4.835 -11.899,13.648 -10.338,22.251 1.302,7.197 6.075,13.406 12.604,16.667 1.616,0.807 3.325,1.43 5.086,1.837 3.518,0.813 3.248,0.053 4.023,3.537 0.908,4.076 3.05,7.88 5.828,10.973 11.255,12.532 31.981,7.826 37.512,-7.953 17.394,8.747 36.13,-6.949 31.836,-25.396 z m -6.673,8.667 c -1.686,10.971 -17.201,16.178 -25.084,8.065 -5.423,-5.581 -6.805,6.947 -8.325,9.326 -3.115,4.883 -8.753,7.862 -14.552,7.522 -3.837,-0.234 -7.24,-2.508 -9.684,-5.363 -3.677,-4.298 -3.646,-7.54 -3.548,-12.668 0.097,-5.178 -6.85,-2.994 -9.881,-3.73 -4.933,-1.197 -9.197,-4.824 -11.14,-9.516 -3.084,-7.454 2.428,-20.349 11.622,-20.346 2.272,0 4.761,0.179 5.243,-2.808 0.35,-2.169 -1.673,-4.196 -1.673,-6.5 -0.001,-5 2.75,-10.307 6.7,-13.32 7.649,-5.839 20.294,-1.211 23.084,7.819 0.688,2.227 1.648,4.695 4.604,4.028 2.346,-0.531 3.558,-3.62 5.434,-4.997 3.996,-2.934 9.422,-3.798 14.156,-2.376 8.372,2.516 14.255,15.396 7.934,22.827 -1.197,1.41 -2.876,2.027 -2.624,4.272 0.281,2.511 2.571,2.626 4.068,4.071 3.435,3.309 4.359,9.192 3.666,13.694 z"
                  style="fill:#f5bd9d"/>
            <circle id="circle39" r="18.857" cy="282.035" cx="134.323" style="fill:#f5bd9d"/>
        </g>
        <text id="text4226" y="722.33313" x="1088.6455"
              style="font-style:normal;font-variant:normal;font-weight:normal;font-stretch:normal;font-size:80px;line-height:125%;font-family:Ewert;-inkscape-font-specification:'Ewert, Normal';text-align:start;letter-spacing:0px;word-spacing:0px;writing-mode:lr-tb;text-anchor:start;fill:#008080;fill-opacity:1;stroke:none;stroke-width:1px;stroke-linecap:butt;stroke-linejoin:miter;stroke-opacity:1">
            <tspan style="font-style:normal;font-variant:normal;font-weight:normal;font-stretch:normal;font-size:80px;line-height:125%;font-family:Ewert;-inkscape-font-specification:'Ewert, Normal';text-align:center;writing-mode:lr-tb;text-anchor:middle"
                   y="722.33313" x="1088.6455" id="text01">JB
            </tspan>
        </text>
    </g>
</svg>
 

