<?xml version="1.0" encoding="utf-8"?>
<svg xmlns:dc="http://purl.org/dc/elements/1.1/" xmlns:cc="http://creativecommons.org/ns#" xmlns:rdf="http://www.w3.org/1999/02/22-rdf-syntax-ns#" xmlns:svg="http://www.w3.org/2000/svg" xmlns="http://www.w3.org/2000/svg" xmlns:xlink="http://www.w3.org/1999/xlink" version="1.1" x="0px" y="0px" width="1600px" height="1000px" viewBox="0 0 1600 1000" enable-background="new 0 0 1600 1000" xml:space="preserve" id="svg2">
  <metadata id="metadata77">
    <rdf:RDF>
      <cc:Work rdf:about="">
        <dc:format>
          image/svg+xml
        </dc:format>
        <dc:type rdf:resource="http://purl.org/dc/dcmitype/StillImage">
        </dc:type>
        <dc:title>
        </dc:title>
      </cc:Work>
    </rdf:RDF>
  </metadata>
  <defs id="defs75">
    <clipPath id="clipPath4204" clipPathUnits="userSpaceOnUse">
      <path id="jd_bd" d="m 478.43137,131.37254 705.88233,0 0,723.52942 -705.88233,0 z" style="opacity:1;fill:none;fill-opacity:1;fill-rule:nonzero;stroke:#ffc300;stroke-width:2.20000005;stroke-linecap:butt;stroke-linejoin:miter;stroke-miterlimit:4;stroke-dasharray:none;stroke-dashoffset:0;stroke-opacity:1">
      </path>
    </clipPath>
  </defs>
  <image xlink:href="/designs/templates/002000101-3.jpg" overflow="visible" enable-background="new    " width="600" height="400" id="jd_bg" transform="matrix(2.6667 0 0 2.5 2.441406e-004 -2.441406e-004)">
  </image>
  <g clip-path="url(#clipPath4204)" id="jd_nt">
    <g id="graphic">
      <g id="g9">
        <path fill="#9B6550" d="M938.3,579.3c12.2-21.8,25-43.2,37.2-65c17.8-31.6,30.8-65.1,37.1-101.3c1.1-6.3,1.9-12.6,2.8-19    c0.1-0.4,0.6-0.4,0.6,0c3.5,32.1,0.9,63.6-5.6,95c-7.2,35-19.6,67.7-35.3,99.4c-9.7,19.6-19,39.8-24.4,61.2    c-4.2,16.8-4.7,35.6,11.2,46.2c12.6,8.4,28.5,7.1,42.1,2.2c12.2-4.4,25-11.4,31.5-23.6c7-13.2-0.2-28.4-11.7-35.7    c-18.7-11.8-40-4.2-59.5,0.7c-0.6,0.1-2.4,0.7-3.7,1c-0.6,0.2-1.2-0.4-1-1c0.4-1.5,1.1-3.8,1.6-4.9c5.7-13.6,11.4-27.2,17.3-40.8    c0.6-1.3,1.6-3,2.7-3.5c14.1-5.4,28.6-9.5,43.7-7.9c19,2,32.5,13.4,42.6,29.6c13.5,21.5,16,44,6.3,68    c-5.5,13.6-12.8,25.8-21.7,37.1c-9.8,12.4-22.4,19.3-37.5,20.6c-16.8,1.4-33.6,2.3-50.5,2.3c-17.4,0-34.5,1.2-51.2,6.6    c-0.8,0.3-1.7,0.4-2.7,0.6c-0.2,0-0.3-0.1-0.4-0.2c-0.2-0.5-0.4-0.9-0.4-1.4c-0.4-35-0.5-69.9,5.7-104.5    C919.2,619.1,927.6,598.6,938.3,579.3z" id="path11">
        </path>
        <path fill="#9B6550" d="M766.7,221.8c34.5-11.8,68.9-12.6,102.9,2.2c17.7,7.7,33.4,18.6,47.1,32.5c22.9,23.3,36.9,51.7,43.2,84.6    c6.6,34.2,9.9,68.5,6.9,103.3c-3.1,35.3-15.4,66.7-36.4,94.6c-8.2,10.8-17.7,19.4-30.6,23.2c-15.1,4.4-29.5,2.6-43.1-5.9    c-25.4-16.1-40.1-50.7-33.6-79.7c1.3-5.6,3.4-10.7,7.8-15.8c0.2-0.2,0.6,0,0.5,0.3c-4.4,14.8-2.2,28.1,5.5,39.4    c10.9,16,31.1,32.6,51.1,28.4c22-4.6,31.3-31.9,36.2-51.8c6.8-27.4,6.5-55.2,2.6-83c-4.7-32.9-13.5-64.6-27.7-94.4    c-20.7-43.2-54.8-67.7-100.3-74.8c-11-1.7-22.3-1.8-33-2.6C765.7,222.4,766.2,222,766.7,221.8z" id="path13">
        </path>
        <path fill="#9B6550" d="M717.1,516.8c-4.5-21.8-9.4-36.5-18.8-56.9c-0.1-0.3,0.2-0.6,0.4-0.4c12.6,8.3,25.2,16.7,38.2,25.2    c0.2,0.1,0.4,0,0.5-0.2c1.3-4.7,2.4-9.1,3.6-13.5c5.1-18.8,12.7-36.5,23.6-52.2c8.4-12,9.7-24,6.1-37.5c-0.3-1.2-0.6-2.4-0.7-3.7    c0-0.3,0.3-0.5,0.5-0.2c6.8,8.4,13.1,17.2,14.9,28.3c0.7,4.4,0,9.3-1.1,13.6c-3.7,14.6-8.6,29-11.7,43.7    c-8.6,41.1,5,74.4,34.9,101c16.2,14.4,35.3,22.8,56.2,26.9c9.8,1.9,18.9-0.6,27.9-4.4c13.2-5.7,33.9-25.1,40.2-31.3    c0.4-0.4,1.1,0.1,0.9,0.6c-6.3,15.3-14.3,29.5-26.1,40.9c-18.9,18.5-40.6,30.9-67.1,31.7c-11.8,0.4-23.1-2.6-33.8-7.5    c-31.8-14.6-58.8-35.3-76.3-67.7C723.2,541.9,719.7,529.5,717.1,516.8z" id="path15">
        </path>
        <path fill="#9B6550" d="M1012.8,373.3c-5,30.9-10.8,60.4-22,88.4c-10.7,26.7-25.7,50.6-43.4,72.7c-0.4,0.6-1.3,0-1-0.7    c6.3-13.8,25.1-56.9,27.1-88.2c1.3-17.6,0.5-35.5-0.4-53.2c-1.1-23.1-4-46-9.7-68.4c-6.4-25.4-19.6-46.6-37.1-65.1    c-8-8.5-16.9-16.2-26.2-24.9c-0.2-0.2,0-0.6,0.3-0.6c14.2,3.5,26.7,8.4,38.7,14.8c35.4,18.9,63.9,45.9,84.9,81.1    c11.4,19,17.7,40.3,23.2,61.8c6.3,24.5,10.5,49.4,13.2,74.7c0,0.4-0.5,0.5-0.6,0.1c-11-32.9-22.7-65.6-46.6-92.8    C1013.1,373,1012.8,373.1,1012.8,373.3z" id="path17">
        </path>
        <path fill="#9B6550" d="M834.3,554.8c8.4,13.4,20.1,22.8,34,29.5c1.1,0.5,2.2,1.1,3.3,1.6c0.1,0,0.1,0.2,0.6,1.1    c-3.1-0.3-5.9-0.3-8.6-0.9c-41.8-10.5-73.5-36.2-86.3-85.9c-4.9-19.1-0.2-37.8,6.3-55.8c4-11.2,8.4-22.3,11.9-33.6    c4.6-14.7,0.4-26.9-10.8-36.8c0,0,0,0,0,0c0.6-1.2,0.4-0.9,1-2c11,4,22.1,8,33.4,12.1c0.2,0.1,0.3,0,0.4-0.2    c9.1-28.2-12.9-85.8-16-94.6c-0.1-0.3,0.3-0.6,0.5-0.3c10.1,9.3,17.5,19.4,22.3,25.1c18.7,22.6,25.3,51,27.4,80.4    c0.8,10.5-1.8,20.9-9.7,27.7c-6.4,5.5-14.5,8.5-20.9,14c-8.9,7.5-12.8,20.5-13.6,32c-1,15.3,1.8,32.3,6.2,46.8    C820,529,826.6,542.3,834.3,554.8z" id="path19">
        </path>
        <path fill="#9B6550" d="M1020.6,394.3c15.2,17,45.1,98.2,49.1,132.3c0,0.4-0.4,0.5-0.6,0.2c-9.1-20.5-17.6-40.3-29.8-58.1    c-0.2-0.2-0.5-0.1-0.5,0.1c-3.1,25.6-6.5,51-14.6,76.2c-0.1,0.2,0,0.4,0.2,0.4c10.6,2.4,20.5,5.6,28.6,13.1c0.2,0.2,0.6,0,0.5-0.3    c-2-8.7-4.1-17.4-6.2-26.5c-0.1-0.3,0.3-0.5,0.5-0.3c10.4,14,30,62.9,34.8,87.2c0.1,0.3-0.3,0.5-0.5,0.3c-0.8-1-1.3-1.6-1.9-2.3    c-6.8-8.2-13.3-16.7-20.4-24.5c-15.8-17.5-35.7-22-57.7-18.4c-5,0.8-9.8,2.3-15.6,3.8c-0.2,0.1-0.4-0.2-0.3-0.4    c24.3-58.2,41.3-117.5,33.8-182.4C1020.1,394.3,1020.4,394.1,1020.6,394.3z" id="path21">
        </path>
        <path fill="#9B6550" d="M879.9,787.3c2.9-0.6,3.8-1.9,4.3-4.6c3.6-18.4,7.3-36.7,11-55.1c1.8-8.8,3.7-17.6,6.1-26.4    c0.2-0.6,1-0.5,1,0.1v118.5c0,0.4-0.4,0.7-0.8,0.4c-3.2-2.1-6.4-4.5-9.9-6.4c-9.8-5.4-15.3-4.5-22.9,3.9    c-6.2,6.9-11.2,14.4-11.4,24.3c0,0.5-0.7,0.7-1,0.2c-5.6-12.5-5.7-25,1-37.3C862.5,795.7,869.8,789.3,879.9,787.3z" id="path23">
        </path>
        <path fill="#9B6550" d="M708.8,350c-2.1-4.1-4.4-8.1-6.3-12.4c-0.1-0.3,0.2-0.6,0.5-0.4c7.6,8.2,34.2,32.9,37,65.5    c1.3,23.3-1.9,46.1-6.8,68.7c-0.1,0.3-0.3,0.6-0.7,1.1c-0.1,0.1-0.3,0.2-0.4,0.1c-10.4-5.7-20.8-11.5-32.3-17.8    c-0.3-0.1-0.2-0.5,0.1-0.6c5.4-1.2,10-2.1,14.4-3.3c1.3-0.4,3.2-1.6,3.4-2.8c3.9-20.1,7.6-40.3,5-60.9    C721.1,373.7,714.9,361.8,708.8,350z" id="path25">
        </path>
        <path fill="#9B6550" d="M857.8,629.5c21.9-4.4,38.9-18.1,54.2-32.6c0.1,0,0.1-0.1,0.2-0.1l11.3-0.7c0.2,0,0.4,0.2,0.3,0.4    c-2.9,7.5-5.9,15.1-8.2,22.2c-2.5,7.6-4.3,14.6-6.6,22.3c-0.4,1.2-1.9,2.9-2.9,2.9c-16.8-0.6-32.3-6.2-48.3-13.9    C857.5,630,857.5,629.5,857.8,629.5z" id="path27">
        </path>
        <path fill="#9B6550" d="M733.5,578.9c8.2,7.1,16.2,14,24.1,21c0.8,0.7,1.2,1.9,1.6,3c7.6,23.8,14.7,47.8,18.7,72.6    c2.4,14.7,1.9,29.5,0.3,44.3c0,0.4-0.5,0.4-0.6,0c-1.8-10.8-3.5-21.5-5.4-32.3c-4.7-26.4-13.4-51.4-24.9-75.4    c-4.7-9.8-8.8-19.9-13.1-29.9c-0.4-0.9-0.8-1.9-1.2-3C732.9,578.9,733.3,578.6,733.5,578.9z" id="path29">
        </path>
        <path fill="#9B6550" d="M842,734.6c-10.4-33.2-23.1-65.9-25-101.8c0-0.2,0.2-0.4,0.4-0.3c7.9,1.7,15.1,3.2,22.9,4.9    c0.2,0,0.3,0.2,0.2,0.4c-5.8,32.3-1.8,64.5,2.1,96.8C842.6,734.8,842.1,735,842,734.6z" id="path31">
        </path>
        <path fill="#9B6550" d="M811.7,786.4c3.3-0.3,5.5-1.5,7.5-4.3c4.7-6.7,14-18.3,17.8-22.3c0.5-0.5,1.3,0,1.1,0.7    c-3.9,12.5-7.7,24.9-11.6,37.4c-1.5,4.7-4.5,6.9-9.2,6.7c-11.5-0.5-19.7,4.5-24.2,15.7c-0.5,1.2-1.1,2.3-1.6,3.5    c0,0.1-0.2,0.1-0.8,0.2c-0.3,0-0.6-0.2-0.6-0.6c0.9-7.6,1-15,2.8-22C795.4,791.8,802.6,787.2,811.7,786.4z" id="path33">
        </path>
        <path fill="#9B6550" d="M829.2,801.9c1.2-0.9,2.7-2.1,4-2.1c5.3-0.1,7-4,8.8-8.2c2.6-5.8,8-17.1,10.2-21.1    c0.2-0.5,0.9-0.3,0.9,0.3c0.1,13.9,1.2,29.7-4.5,43c-0.1,0.2-0.3,0.3-0.6,0.3c-11.5-2.8-20.6,5.7-24.9,25.5    c-0.1,0.4-0.7,0.6-0.9,0.2C814.9,827.7,818,810,829.2,801.9z" id="path35">
        </path>
        <path fill="#9B6550" d="M1012.6,800.1c-1.9-8.7-1.2-17.2,2.2-25.4c2-4.7,4.8-8.7,9.7-11.1c0.6-0.3,1.2,0.2,1.1,0.8    c-0.2,1.7-0.4,3.1-0.5,4.5c-0.6,6-1,11.9,1.2,17.9c4.5,12,2.1,23-5.4,32.9c-6,7.8-18.7,11.1-27.6,7.3c0.4-0.3,0.7-0.6,1-0.6    C1007,825.6,1015.5,813.3,1012.6,800.1z" id="path37">
        </path>
        <path fill="#9B6550" d="M755.4,404.4c4.6-6.6,8.7-14.7,9-26.3c4.8,10.5,7,20.1,1,30.1c-5.8,9.6-11.5,19.3-17.2,29    c-1.7,2.9-3.2,5.9-5.3,9.8c1.1-12.9,2.5-24.7,3-36.5c0.5-11.9-2.3-23.4-6-34.7C748.7,383.2,754.1,392.5,755.4,404.4z" id="path39">
        </path>
        <path fill="#9B6550" d="M970.2,775.2c0.6-0.6,1.6,0,1.3,0.9c-1.7,4.8-3.4,8.9-4.1,13.2c-1.1,6.4-2.2,13.2-1.3,19.6    c1.6,10.5,13,15.1,21.5,9.9c0.5-0.3,1.3,0.1,1.2,0.8c-0.7,6.4-6.4,12.8-13.2,14.8c-7.6,2.2-13.6-0.2-17.2-7.2    c-3.9-7.5-4.6-15.7-3.2-24C956.8,792.1,962.4,783.5,970.2,775.2z" id="path41">
        </path>
        <path fill="#9B6550" d="M931.9,747.7c17.4-4.3,35-0.6,53,0.3c0.8,0,1,1.1,0.4,1.5c-22.5,13.6-34.6,33.4-35.6,60.3    c0,0.9-1.2,1.1-1.5,0.3c-5.4-15.1-7.4-30.4-1.1-46c2-4.9,0.9-7.7-3.2-9.6c-4-1.9-8.1-3.5-12.1-5.2    C931.1,748.9,931.2,747.9,931.9,747.7z" id="path43">
        </path>
        <path fill="#9B6550" d="M793.2,622.1c-0.1-0.2,0.2-0.5,0.4-0.4c4.6,1.7,8.8,3.2,12.8,4.9c0.7,0.3,1.3,1.8,1.4,2.8    c3.2,28.4,12.8,54.8,21.9,81.4c0.4,1.1,0.7,2.2,1,3.3c0.1,0.2-0.2,0.5-0.4,1.2C815.7,685.3,801.3,655.5,793.2,622.1z" id="path45">
        </path>
        <path fill="#9B6550" d="M491.5,388.4c-1.5,3.8-1,5.1,1.1,8.1c0.1,0.2,8-5.3,12-5.2c0.3,0,0.4,0.4,0.2,0.5    c-2.8,2.8-5.5,5.5-8.2,8.1c-1.5,1.4-2.2,2.9-1.6,4.9c0.7,2.8,1.3,5.7,2.3,8.5c2.3,6.8,5.8,12.8,11.6,17.1c0.9,0.6,1.6,0.9,2.7,0.3    c1.8-1,3.7-0.8,5.5,0.2c1.7,1,3.3,2.1,4.9,3.3c2.1,1.6,4.1,3.4,6.3,5c7.3,5.5,15.6,6.5,24.3,6.7c0.5,0,1-0.2,1.4-0.3    c1.5-0.6,1.7-1.3,0.6-2.5c-1.3-1.5-2.6-2.9-4-4.2c-6.4-6.4-8.7-14.4-7.7-23.4c1-9.5,7.6-14.8,16.6-13.3c2.5,0.4,5,1.2,7.4,2.2    c9.8,4.4,18.3,10.8,26,18.4c3.8,3.8,7.1,8,9,13.2c2.9,8.1,1.8,19.6-10.9,22.8c-6.8,1.7-13.6,1.5-20.4-0.2c-1-0.2-2.1-0.3-3.1-0.4    c-0.3,0.5-0.4,0.6-0.7,1.1c0.8,1.8,1.4,3.6,2.6,5.1c2,2.7,4.4,5.1,6.7,7.6c1.1,1.2,2.3,2.2,2,4c-0.3,2-1.8,2.8-3.4,3.3    c-0.8,0.3-1.6,0.5-2.5,0.8c-0.2,0.1-0.3,0.4-0.1,0.5c1.3,1.2,2.4,2.3,3.5,3.3c0,0,0,0,0,0c1.1,0.7,54.5,35.5,133.4,36.7    c0.3,0,0.4-0.4,0.2-0.6c-6-3.3-34.7-19.5-52.4-37.1c-3.9-3.8-7-8.4-9.3-13.5c-2.7-6.2-4.5-12.8-1.2-19.2c1.8-3.4,4.3-6.5,7-9.3    c6.6-6.8,14.5-11.9,22.5-16.9c2.6-1.6,5.2-3.5,7.4-5.6c5-4.6,8.3-11.2,4.9-19.9c-0.9-2.2-1.6-4.5-2.4-6.8    c-2.4-6.9-1.8-13.4,1.8-19.7c1.3-2.2,2.6-4.5,3.8-6.8c0.6-1.2,1-2.4,1.5-4c0.1-0.3-0.2-0.5-0.4-0.4c-0.8,0.4-1.3,0.6-1.9,0.9    c-3.8,1.7-7.8,3.1-12.1,2.9c-4-0.2-6.9-2.1-8.5-6.2c-1.9-4.9-1.4-9.8,0.1-14.6c1.4-4.4,2.2-8.7,3.2-13.1c0.5-2,0.8-4.1,0.9-6.3    c0-0.3-0.4-0.4-0.5-0.2c-2.3,3.2-5.1,5.4-8.6,6.8c-9.8,3.7-38.6-1.4-32.3-11.5c37.3-59.9,66.3-74.2,93.5-80.2    c18.1-4,48.9-1.4,57.6-0.6c0.4,0,0.5-0.5,0.1-0.6c-15-5.6-30.7-8.3-46.6-8.3c-18.2,0-44,5.4-59.5,15.3    c-15.7,10-27.9,24.7-41.8,37.1c-15.6,14-34,21.3-52.5,30.2c-8.1,3.9-16.1,8.4-24.1,12.6c-2.9,1.5-5.3,3.8-6.9,6.7    c-2.4,4.5-2.7,9.4-2.3,14.3c0.1,1.2-0.2,2-1.1,2.6c-2.5,1.6-46.1,26.3-49,28.6C496.5,380.4,493.3,383.8,491.5,388.4z M619.8,451.9    c5.8-10.1,7.8-20.9,5.3-32.3c-1.3-6-4.4-11.3-8.8-15.3c-0.3-0.3-0.7-0.6-1-0.9c-0.1-0.1-0.1-0.2-0.1-0.4c3.2-7,6.3-13.9,9.4-20.8    c6.9-15.2,17-27.7,29.5-38.2c0.2-0.2,0.5-0.4,1-0.4c-0.6,0.8-1.2,1.6-1.8,2.4c-0.6,0.8-1.3,1.5-1.9,2.3c-2,2.6-4.3,5-5.9,7.8    c-1.3,2.3-2.3,5.1-2.7,7.8c-0.9,6.3,2.2,10.8,8.3,12.8c4.3,1.4,8.6,1.7,13.1,1.3c0.6-0.1,1.3-0.1,2.1,0.1c0.2,0.1,0.3,0.4,0.1,0.5    c-0.5,0.5-1.1,1.1-1.6,1.6c-3.8,3.6-7.8,7-11.5,10.8c-4.2,4.5-5.4,10.2-4.6,16.3c0.1,1.1,0.6,2.2,1.2,3.2c0.9,1.7,2.2,2.4,4.3,2.1    c7.3-0.9,12.5-4.9,16.2-11.2c1.1-1.8,2.1-3.6,3.1-5.4c0.1,0.1,0.3,0.1,0.4,0.2c-1,2.2-1.9,4.5-3,6.7c-3.8,7.2-9.5,12.7-15.4,18.1    c-6,5.5-12.1,10.8-17.6,16.8c-7,7.6-10.5,17-11.1,27.5c-0.4,6.3,1.6,11.8,4.9,17c0.2,0.3-0.1,0.6-0.4,0.5    c-11.5-5.9-23.9-7.2-37-7.5c0.9-0.6,1.4-0.9,1.9-1.2C605.6,468.6,614.1,461.8,619.8,451.9z M568.9,357c1.9-3.4,4.8-6.4,8.4-8.3    c6.2-3.2,12.5-6,18.8-8.9c2-0.9,3.9-1.7,5.4-2.3c0.3-0.1,0.5,0.3,0.3,0.5c-2.1,2.4-4.6,5.3-7.3,8.2c-4,4.3-9,6.4-14.5,7.8    c-3.7,1-7.4,2.3-11,3.5C569,357.6,568.7,357.3,568.9,357z" id="path47">
        </path>
        <path fill="#9B6550" d="M653.2,323.7c-14.2-2.2-9.2-3.5-3.4-12.6c5.8-9.1,49.4-86.9,125.6-58.5c0,0-90.7,18.9-73.7,58.5    c14.9,34.7,84.1-0.9,91.4-23.4c0,0,28.5,47.2,22.8,85.4c0,0-9-45.9-36.3-46.8c-27.3-0.9-52.3,29.6-89.1-3.9    c0,0,42.3,77.8,19.1,120.1l-19.9,8.5c0,0-26.1-2.2-33.6,3c-7.5,5.2,0-11.7,22-21.2c22-9.5,22-25.6,17-32.9    c-5-7.4-7.5-22.3,1.8-40.3c2.9-5.7-3.4-0.9-13.8-0.9c-10.4,0-9-9.1-5.1-20.4c3.9-11.3,0.5-23.8-2.4-27.3    C675.5,311.2,667.4,325.9,653.2,323.7z" id="path49">
        </path>
        <path fill="#9B6550" d="M622.4,285.9c0,0-0.1,0.1-0.1,0.1c-9.1,6.4-21,13.4-35.9,19.5c-0.3,0.1-0.5-0.2-0.4-0.5    c3.6-5.7,24.3-40,19-56c-0.1-0.2,0-0.4,0.2-0.4c3.3-0.5,29.7-3.9,39.5,17.2c0.1,0.1,0,0.3-0.1,0.4l-10.8,10.7    c-0.2,0.2-0.5,0.1-0.5-0.2c-0.3-1.8-1.6-7.1-6.2-10.9c-1.7-1.4-2.9-1.9-3.5-2.1c-0.3-0.1-0.5,0.2-0.3,0.5    C628.1,273.7,622.8,284.9,622.4,285.9z" id="path51">
        </path>
        <path fill="#9B6550" d="M743.1,298.2c21.5,5.1,39.5-12.7,42.6-16c0.2-0.2,0.5-0.1,0.5,0.2c-0.8,10.6-56.8,54.8-72.2,23.5    c-15.8-32.1,100.8-62.3,131.1-46.7c30.3,15.6,54.1,40.4,68.8,140.4c4.3,29.4,4.8,51.3,2.8,67.6c-0.9,7.5-1.3,14.9-3.7,22.2    c-5.2,15.8-18.2,26.7-34.4,26.2c-8.5-0.2-16.9-3.6-23.8-8.9c-8.5-6.6-14.9-16.4-16.9-27.2c-3.5-18.5,7.4-41.3,27.1-42.3    c9.5-0.5,17.5,4.1,22.8,12.4c5.5,8.6,6.7,21.4,0.7,29.6c-4.5,6.2-11.5,10-18.8,10.7c-0.7,0.1-1.3-0.1-1.7-0.5    c-1.6-1.2,9.5-5.5,9.1-11.9c0,0,0,0,0-0.1c-3.5-17.7-33.4-1.2-15.6,17.5c14.9,15.5,41.5-9.2,34.9-39.8    c-4.5-20.6-24.3-24.4-26.7-24.8c-0.1,0-0.2-0.1-0.3-0.3c-7.2-98.6-40.7-139.3-70.1-153C770,263.3,719.4,292.5,743.1,298.2z" id="path53">
        </path>
        <path fill="#9B6550" d="M784.3,230.7c-0.3-0.2-0.1-0.6,0.2-0.6c6.8,0.6,40.7,4.2,59.2,20.7c0.2,0.2,0,0.6-0.3,0.5    c-5.2-1.2-26.9-5.3-57.4,2.5c-0.1,0-0.1,0-0.2,0l-16.6-8.7c-0.3-0.1-0.2-0.6,0.1-0.6l27.8-0.6c0.2,0,0.4-0.2,0.3-0.4    C795.2,238.2,787.2,232.6,784.3,230.7z" id="path55">
        </path>
        <path fill="#9B6550" d="M763,335c25.2-10.8,42.6,19.5,45.3,33.6c0,0-16.8-27.7-40.2-16.2c-23.4,11.6-44.6-6.4-48.4-8.4    C719.8,344.1,737.8,345.8,763,335z" id="path57">
        </path>
        <path fill="#9B6550" d="M853.1,636.2c0.1-0.2,0.3-0.2,0.4-0.1c2.6,1.6,23.8,14.3,48.5,16.6c0.2,0,0.3,0.2,0.3,0.4l-21.7,124.8    c0,0.2-0.2,0.3-0.3,0.3c-1.4,0-8.8,0.1-15.6,6c-0.2,0.2-0.5,0-0.5-0.2l-2.3-55.9c-0.1-2-2.8-2.4-3.4-0.5l-13.2,44.4    c-0.1,0.4-0.6,0.3-0.6-0.1c1.3-9,3.9-29.4,1.8-41.5C843.7,714.2,841.5,660.6,853.1,636.2z" id="path59">
        </path>
        <path fill="#9B6550" d="M754.7,768.4c1.4,0.4,3.3-0.2,4.2-1.3c14.4-16.7,23.9-35.7,24.6-58.7c0.4-15-1.1-29.7-3.6-44.3l-0.1-0.3    L766,605.7c-0.1-0.3,0.2-0.5,0.5-0.3l20.4,14.4c0.1,0,0.1,0.1,0.1,0.2c7.5,38,23.6,66.9,24.7,68.9c0,0.1,0.1,0.2,0,0.2L799,734.6    c-0.3,1.4-0.7,2.9-1.2,4.3c-5.4,16.2-10.6,32.5-15.9,49c0,0.1-0.2,0.2-0.4,0.2c-2.4-0.5-3.8-0.9-5.3-1.1    c-9-1.7-16.1,1.5-19.5,10.4c-2.7,7.1-4,14.9-5.8,22.4c-0.4,1.9-0.4,3.9-0.6,5.9c0,0.3-0.3,0.4-0.5,0.2    c-8.9-8.2-10.4-22.6-4.3-40.7c0.1-0.2-0.1-0.4-0.3-0.4c-8.5-0.2-16.8,0.1-23.9,5.1c-3.1,2.2-5.7,6-7,9.6    c-2.2,6.3-3.4,13.1-5.1,20.4c-0.1,0.3-0.5,0.3-0.6,0.1c-3.8-8.1-4.4-16-2-24.1C712.9,775.7,735.2,763.1,754.7,768.4z" id="path61">
        </path>
        <path fill="#9B6550" d="M982.5,814.5c0.4,0.5,0.1,1.2-0.5,1.3c-8.8,1.3-10-10.9-10-17.9c0.1-11.8,4.8-24,13.2-31.8    c10.5-9.8,23.5-13.9,36.7-17.5c20.3-5.5,34.3-19.4,46.6-35.8c5.4-7.1,8.5-15.1,10.8-23.6c2.8-10.3,5.3-20.6,8-31    c0.2,0.3,0.5,0.6,0.5,0.8c1.3,18.4,1.4,36.6-3.4,54.6c-1.8,6.8-5.1,12.7-9.7,17.9c-5.9,6.5-11.5,13.3-17.3,19.9    c-6,6.9-9.3,14.7-8.6,24.4c1.1,15-6.6,25.5-16.8,35.1c-0.6,0.5-1.5,0-1.3-0.8c1.2-5.2,2.4-10,3.2-14.9c0.5-2.9,0.6-6.2-0.3-8.9    c-3.1-9.5-3.8-18.7-0.3-27.9c0.2-0.6-0.2-1.2-0.8-1.1c-24.6,1.8-25.5,24.4-25.4,28.3c0,0.3-0.2,0.6-0.5,0.8    c-1.3,0.5-5.8,2.4-18.1,9.5C975.8,803.2,980.4,811.6,982.5,814.5z" id="path63">
        </path>
        <path fill="#9B6550" d="M705.4,770.3c4.3-4.2,10.3-4.6,15.7-6.4c5.8-1.9,11.1-5.2,15.6-9.3c6.2-5.7,12.5-11.4,17.2-18.5    c4.8-7.1,6.2-15.8,7.6-24.2c2.7-16.6-0.5-37.6-2.3-51.8c-0.1-1,1.2-1.4,1.6-0.5l3.8,11.6c6.6,20.2,7.5,31.6,8.5,48.5    c1,15.7-7.9,31.2-17.1,43c-0.1,0.1-0.1,0.1-0.2,0.1c-6.4-0.3-13,0.2-19.3,1.4c-4.5,0.8-9.2,1.9-13.1,4.7    c-3.8,2.7-7.4,6.3-10.8,9.5c-1.6,1.6-3.9,1.3-5.9,1.9c-5.5,1.6-9.7,7-11.5,12.5c-0.5,1.5-1,2.9-2.2,4.4c0-1-0.2-2-0.1-3    C694.3,784.5,698.7,776.7,705.4,770.3z" id="path65">
        </path>
        <path fill="#9B6550" d="M1087.4,615.8C1087.4,615.8,1087.4,615.7,1087.4,615.8c0,0-0.1,0-0.1,0.1l0,0l0,0l0,0    C1087.3,615.9,1087.3,615.8,1087.4,615.8c0.1,0,0.3-0.1,0.4-0.2c0.2-0.1,0.3-0.2,0.5-0.3c0.8-0.5,2-1.4,3.6-3.3    c0.8-0.9,1.6-2,2.6-3.3c0.5-0.7,1-1.4,1.4-2.2c0.2-0.4,0.5-0.8,0.8-1.2l0.2-0.3l0.1-0.2c0.3-0.5-0.3,0.6-0.2,0.5l0.1-0.1    c0.2-0.3,0.3-0.6,0.5-0.8c0.6-1.1,1.3-2.3,1.9-3.5c0.3-0.6,0.7-1.2,1-1.8c0.2-0.3,0.3-0.6,0.4-0.8l0.3-0.7c0.9-2,2-3.9,2.9-6.5    c0.5-1.2,1-2.5,1.5-3.8c0.5-1.3,0.9-2.7,1.4-4c0.2-0.7,0.5-1.4,0.7-2.1c0.2-0.7,0.4-1.4,0.6-2.2c0.4-1.5,0.9-2.9,1.3-4.5    c1.6-6.1,2.9-12.8,3.9-20c0.9-7.2,1.3-14.9,1.3-23.1c0-8.1-0.6-16.7-1.8-25.5c-0.3-2.1-0.6-4.3-0.9-6.4c-0.4-2.4-0.9-4.8-1.3-7.3    c-0.5-2.2-0.9-4.4-1.4-6.6c-0.5-2.3-1.1-4.6-1.6-7c-0.7-2.9-1.5-5.8-2.3-8.7c-0.4-1.4,0.9-2.7,2.3-2.3l34.1,12    c0.6,0.2,1,0.7,1.1,1.3c0.3,1.2,0.7,2.5,1,3.7c0.6,2.4,1.2,4.8,1.7,7.2c0.6,2.7,1.1,5.3,1.6,8c2,10.3,3.2,20.4,3.8,30.2    c0.6,9.8,0.6,19.3,0,28.4c-0.7,9.1-1.8,17.7-3.5,25.8c-0.4,2-0.9,4-1.4,5.9c-0.2,1-0.5,1.9-0.7,2.9c-0.2,1-0.5,1.9-0.8,2.8    c-0.5,1.9-1.1,3.7-1.6,5.5c-0.6,1.8-1.2,3.5-1.8,5.2c-1.1,3.3-2.6,6.9-4,10.1c-0.2,0.4-0.3,0.8-0.5,1.2c-0.2,0.4-0.3,0.8-0.5,1.1    c-0.3,0.6-0.6,1.3-0.9,1.9c-0.6,1.2-1.1,2.4-1.7,3.6c-0.1,0.3-0.3,0.6-0.4,0.9c-0.3,0.5-0.5,1-0.8,1.6c-0.4,0.7-0.7,1.3-1.1,2    c-0.7,1.3-1.5,2.6-2.2,3.9c-1.5,2.5-3.2,5-4.9,7.2c-3.4,4.5-7.1,8.3-10.6,11.1c-0.8,0.7-1.7,1.3-2.6,1.9c-0.8,0.6-1.6,1.1-2.4,1.6    c-0.4,0.2-0.7,0.5-1.1,0.7l-0.3,0.2l-0.3,0.2c-0.2,0.1-0.4,0.2-0.6,0.3c-0.8,0.5-1.6,0.8-2.3,1.2c-0.2,0.1-0.3,0.2-0.5,0.2    c-0.9,0.4-2,0-2.4-1l-15-38.1C1086,617.2,1086.4,616.1,1087.4,615.8z" id="path67">
        </path>
        <path fill="#9B6550" d="M1117.6,240.5c-2.9,0.4-8.1,1.3-10.4,2.6c-0.9,0.5-2.1,0-2.3-1.1c-5.8-25-7.9-49.6-25.8-69.1    c-9.5-10.3-29.9-16.1-39.5-2.7c-6.5,9.1-7.3,22.9-6.4,33.7c4.1,46,25.7,88.6,46.6,128.1c10.8,20.5,22,40.7,31.9,61.2    c10,20.4,18.8,41.1,25.2,61.8c0.5,1.7,1.5,5.4,2.1,7.8c0.3,1-0.6,1.9-1.6,1.6l-34.8-11.4c-0.5-0.2-0.9-0.6-1-1.1    c-4.4-14.8-10-30-16.5-45.5c-8.4-20.1-18.2-40.7-28-62.1c-4.9-10.7-9.8-21.6-14.4-32.7c-10.6-25.4-21.3-51.2-26-78.7    c-4.6-26.5-10.3-68.2,15-85.6c3.8-2.6,8.1-4.3,12.5-5.3c15.4-3.4,33.1,1.1,45.3,11.4c13.8,11.7,21.3,31.8,24.5,49.5    c1.9,10,4.6,28.4,5.5,34.9C1119.7,239.1,1118.8,240.3,1117.6,240.5z" id="path69">
        </path>
        <path fill="#9B6550" d="M1140.3,301.6c-1.4-5.6-3.7-17.5-11.6-13.3c-5.6,3-4.4,13.2-0.9,17.4c12.1,14.3,17.7,48.2,13.7,63.3    c-0.3,1-1.6,0.9-1.8-0.2c-1-8.8-5.3-30.2-24.9-42.8c-25.2-16.2-19.1-52-19.1-52s2.3-13.1,12.1-20c3.7-2.6,8.4-4.3,14.5-4    c0.2,0,0.3,0,0.5,0c21.7,1.1,29.2,17.1,29.6,44.2c0.3,15.9,4.4,25.5,7.6,30.6c0.5,0.9-0.5,1.9-1.3,1.3    C1149.9,319.6,1143,312.6,1140.3,301.6z" id="path71">
        </path>
      </g>
    </g>
  </g>
</svg>