<?xml version="1.0" encoding="UTF-8" standalone="no"?>
<svg xmlns:dc="http://purl.org/dc/elements/1.1/" xmlns:cc="http://creativecommons.org/ns#"
     xmlns:rdf="http://www.w3.org/1999/02/22-rdf-syntax-ns#" xmlns:svg="http://www.w3.org/2000/svg"
     xmlns="http://www.w3.org/2000/svg" xmlns:xlink="http://www.w3.org/1999/xlink" version="1.1" id="svg1681" x="0px"
     y="0px" viewBox="0 0 1600 1000" style="enable-background:new 0 0 1600 1000;">
    <metadata id="metadata44">
        <rdf:RDF>
            <cc:Work rdf:about="">
                <dc:format>image/svg+xml</dc:format>
                <dc:type rdf:resource="http://purl.org/dc/dcmitype/StillImage"/>
                <dc:title></dc:title>
            </cc:Work>
        </rdf:RDF>
    </metadata>
    <defs id="defs42">
        <clipPath id="clipPath4148" clipPathUnits="userSpaceOnUse">
            <path id="jd_bd" d="m 342.11209,186.92839 708.66081,0 0,670.89514 -708.66081,0 z"
                  style="opacity:1;fill:none;fill-opacity:1;stroke:#ffffff;stroke-width:2.21399999;stroke-linecap:butt;stroke-linejoin:miter;stroke-miterlimit:4;stroke-dasharray:none;stroke-dashoffset:0;stroke-opacity:1"/>
        </clipPath>
    </defs>
    <style type="text/css" id="style3">
        .st0{fill:none;stroke:#FFFFFF;stroke-width:2.47;stroke-dasharray:9.88,2.47;}
        .st1{fill:#FF9966;}
        .st2{fill:none;stroke:#FF9966;stroke-miterlimit:10;}
    </style>
    <image xlink:href="/designs/templates/002000101-1.jpg" style="overflow:visible;enable-background:new    ;"
           width="600" height="400" id="jd_bg" transform="matrix(2.6165 0 0 2.6165 15.0453 -23.3031)"/>
    <g clip-path="url(#clipPath4148)" id="jd_nt">
        <g id="g8">
            <path class="st1"
                  d="M998.9,346.2c8.4,11.4,16.6,23.5,19.9,37.6c2.7,11.7,2.7,22,0.7,30.5c2.1,7.1,3.3,14.4,3.6,21.7   c0.4,10-2.1,17.2-6.1,22.2c1.7,4.2,3.3,8.5,4.7,12.8c5.5,16.9-4.2,32.2-20.5,29.4c-11-1.9-20.6-17.1-16.2-32.6   c-13.8-4.4-20.7-17.7-20.6-37.6c-6.1-7.1-10-17.2-10.9-29.4c-0.7-10.1,0.6-19.4,3.2-28.2c-1.6-2.2-3.1-4.4-4.7-6.7   c-13.9-21-24.5-48.6-24.1-74.1c0.6-40.3,34.9-75.3,67.6-49c-30.9-15.2-60.3,8.2-60.7,50c-0.2,25.5,7.4,44.7,20.7,66.4   c1.1,1.8,2.4,3.8,3.7,5.8c2.4-6.1,5.3-12,8.5-17.9c-9.4-15.3-18.9-30.7-21-55.3c-1.7-19.5,13.2-37.7,32.8-30.1   c-18.1-1.9-45.3,16.4-8.7,79.9c2.9-4.9,5.9-9.7,8.9-14.5c-3.4-7.5-5-15-4.5-23.6c1.2,8.2,4.7,15.1,8.8,22.2   C988.4,332.8,993.9,339.5,998.9,346.2L998.9,346.2z M986.3,363.2c-4.8-6.1-9.4-12.3-13.6-18.9c2.8-4.8,5.7-9.6,8.7-14.3   c4,7.4,9.3,13.8,14.6,20.3c8.3,10.2,16.7,20.4,19.9,34.2c2.1,9.2,2.5,17.2,1.7,24.2c-2.3-5.8-5.2-11.5-9-16.8   C1001.4,381.8,993.7,372.7,986.3,363.2L986.3,363.2z M983.4,367.5c-4,6.3-6.6,11.6-8.6,18.8c9.7,13.3,20.7,29,30.4,46.9   c4.9-4.1,9-10.3,11.2-18.4c-2.3-6.9-5.7-13.6-10.5-20.2C998.9,385.1,991,376.4,983.4,367.5L983.4,367.5z M981.6,365.4   c-4.2-5-8.3-10.1-11.9-15.7c-3.2,5.9-6.1,11.9-8.3,18c3.4,4.8,7.2,10.1,11.4,15.8C974.8,377,977.9,371.1,981.6,365.4L981.6,365.4z    M1006.6,435.9c3.2,6.1,6.2,12.4,9,18.9c3-4.6,4.9-10.7,4.5-18.7c-0.3-5.6-1-10.9-2.3-16.2C1015.3,426.7,1011.3,432.1,1006.6,435.9   L1006.6,435.9z M964.5,425.8c0.5-10.1,2.6-21.8,6.2-35.1c-4.1-5.1-8.1-10.1-11.9-15.2c-2.3,8.2-3.4,16.6-2.8,25.6   C956.7,411.2,959.9,419.5,964.5,425.8L964.5,425.8z M967.6,429.4c6.3,6.6,14.4,10,22,9.8c4.4-0.1,8.8-1.5,12.9-4.2   c-9.2-16.4-19.6-29.4-29.6-41.8C969.2,407.4,967.5,419.4,967.6,429.4L967.6,429.4z M1003.9,437.8c-4.5,2.8-9.5,4.3-14.8,4.2   c-8.1-0.1-15.5-3-21.4-8.4c1,16.3,6.8,27,18.3,31.2c1.7-4,3.6-8.4,7.3-12.4c-2.1,4.9-3.5,9.3-4.3,13.3c6.7,1.4,17.4-0.4,24.3-8   C1010.4,450.5,1007.3,443.9,1003.9,437.8L1003.9,437.8z M1014.5,460.8c-7.7,7.4-18.9,8.8-26.1,7.8c-5.6,37.7,40.6,35.6,29.4,1.7   C1016.8,467.1,1015.7,463.9,1014.5,460.8L1014.5,460.8z"
                  id="path10"/>
            <path class="st1"
                  d="M999.8,375.2c21.4-57.6,27.2-93,23.3-113c-3.8-19.1-16.4-26-27.2-24.8c-10.9,1.2-20,10.7-16.3,24.1   c-0.2-6.6,6.7-17.9,18.6-18.4c18-0.6,37,29.8-4.5,141.6c-21.4,57.6-25.9,92.9-22,112.9c3.2,16.4,11.8,22.1,21.3,23.1   c12.8,1.4,23.9-9.6,20.8-22.3c0.2,7.3-8.4,19.2-21.2,17.2C974.4,512.6,960.7,480.6,999.8,375.2L999.8,375.2z"
                  id="path12"/>
            <path class="st1"
                  d="M894.9,242.3c-11.4-8.4-23.5-16.6-37.6-19.9c-11.7-2.7-22-2.7-30.5-0.7c-7.1-2.1-14.4-3.3-21.7-3.6   c-10-0.4-17.2,2.1-22.2,6.1c-4.2-1.7-8.5-3.3-12.8-4.7c-16.8-5.5-32.2,4.2-29.4,20.5c1.9,11,17.1,20.6,32.6,16.2   c4.4,13.8,17.7,20.7,37.6,20.6c7.1,6.1,17.2,10.1,29.4,10.9c10.1,0.7,19.4-0.6,28.2-3.1c2.2,1.6,4.4,3.1,6.7,4.7   c21,13.9,48.6,24.5,74.1,24.1c40.3-0.6,75.3-34.8,49-67.6c15.2,30.9-8.2,60.3-50,60.6c-25.5,0.2-44.7-7.4-66.4-20.7   c-1.8-1.1-3.8-2.4-5.8-3.7c6.1-2.3,12-5.3,17.9-8.5c15.3,9.4,30.7,18.9,55.3,21c19.5,1.7,37.7-13.2,30.1-32.8   c1.9,18.1-16.5,45.3-79.9,8.7c4.9-2.9,9.7-5.9,14.5-8.9c7.5,3.4,15,5,23.6,4.6c-8.2-1.2-15.1-4.7-22.2-8.9   C908.4,252.7,901.7,247.3,894.9,242.3L894.9,242.3z M878,254.8c6.1,4.8,12.3,9.4,18.9,13.6c4.8-2.8,9.6-5.7,14.3-8.7   c-7.4-4-13.8-9.3-20.3-14.6c-10.2-8.3-20.4-16.7-34.2-19.9c-9.2-2.1-17.2-2.5-24.2-1.7c5.8,2.3,11.5,5.2,16.8,9   C859.3,239.7,868.4,247.4,878,254.8L878,254.8z M873.6,257.8c-6.3,4-11.6,6.6-18.8,8.6c-13.3-9.7-29-20.7-46.9-30.4   c4.1-4.9,10.3-9,18.4-11.2c6.9,2.3,13.6,5.7,20.2,10.5C856.1,242.3,864.7,250.2,873.6,257.8L873.6,257.8z M875.7,259.5   c5,4.2,10.1,8.3,15.6,11.9c-5.9,3.2-11.9,6.1-18,8.3c-4.8-3.4-10.1-7.2-15.8-11.4C864.2,266.3,870,263.3,875.7,259.5L875.7,259.5z    M805.3,234.5c-6.1-3.2-12.4-6.2-18.9-9c4.6-3,10.7-4.9,18.7-4.5c5.6,0.3,10.9,1,16.2,2.3C814.4,225.9,809,229.8,805.3,234.5   L805.3,234.5z M815.4,276.6c10.1-0.5,21.8-2.6,35.1-6.2c5.1,4.1,10.1,8.1,15.2,11.9c-8.2,2.3-16.6,3.4-25.6,2.8   C829.9,284.4,821.6,281.2,815.4,276.6L815.4,276.6z M811.7,273.5c-6.6-6.3-10-14.4-9.8-22c0.1-4.4,1.5-8.8,4.2-12.9   c16.4,9.2,29.4,19.6,41.8,29.6C833.8,271.9,821.7,273.6,811.7,273.5L811.7,273.5z M803.4,237.2c-2.8,4.5-4.3,9.5-4.2,14.8   c0.1,8.1,3,15.5,8.4,21.4c-16.3-1-27-6.8-31.2-18.3c4-1.7,8.4-3.6,12.4-7.3c-4.9,2.1-9.3,3.5-13.3,4.3c-1.4-6.7,0.4-17.4,8-24.3   C790.7,230.7,797.3,233.9,803.4,237.2L803.4,237.2z M780.3,226.6c-7.4,7.7-8.8,18.9-7.8,26.1c-37.7,5.5-35.6-40.6-1.7-29.4   C774.1,224.3,777.3,225.4,780.3,226.6L780.3,226.6z"
                  id="path14"/>
            <path class="st1"
                  d="M866,241.3c57.6-21.4,93-27.2,113-23.2c19.1,3.8,26,16.4,24.8,27.2c-1.2,10.9-10.7,20-24.1,16.3   c6.6,0.2,17.9-6.7,18.4-18.6c0.6-18-29.8-37-141.6,4.4c-57.6,21.4-92.9,25.9-112.9,22c-16.4-3.3-22.1-11.8-23.1-21.3   c-1.4-12.8,9.6-23.9,22.3-20.8c-7.3-0.2-19.2,8.4-17.2,21.1C728.6,266.7,760.6,280.4,866,241.3L866,241.3z"
                  id="path16"/>
        </g>
        <path class="st1"
              d="M402.6,796.9c1.3-4.8,0.7-7.4-0.9-9.9c0.4,2.1-0.3,4.2-0.7,5.2c-1.7-4.2-7.3-8.8-11.5-4.5  c-4.3,4.2,0.2,9.8,4.5,11.5c-1,0.3-3,1-5.2,0.7c2.5,1.6,5.1,2.2,9.9,0.9c-3.5,3.1,0.6,7.2,3.7,3.7c-1.3,4.8-0.7,7.4,0.8,9.9  c-0.4-2.1,0.3-4.2,0.7-5.2c1.7,4.2,7.3,8.8,11.5,4.5c4.3-4.2-0.2-9.8-4.5-11.5c1-0.3,3-1,5.2-0.7c-2.5-1.6-5.1-2.2-9.9-0.8  C409.8,797.6,405.7,793.5,402.6,796.9L402.6,796.9z M409,808.8l1.7-1.7c2.9,1.7,4.9,3.5,4.2,6C412.4,813.7,410.8,811.8,409,808.8  L409,808.8z M394.4,794.2l1.7-1.7c-1.7-2.9-3.5-4.9-6-4.2C389.5,790.8,391.4,792.5,394.4,794.2L394.4,794.2z M368.9,773.3  c-0.5-2.7,1.3-5.2,3.9-5.8s36-7.8,35,21.5c-3.3-25.7-30.6-12.2-33.3-11.7C371.9,777.7,369.3,776,368.9,773.3L368.9,773.3z   M372.8,759.9c-0.1-2,1.4-3.8,3.4-4c2.2-0.3,35.2,0.7,32.6,29.8c-0.3-26.9-30-22.5-32.1-22.3C374.8,763.5,373,762,372.8,759.9  L372.8,759.9z M377.1,782.7c-0.1-2.5,2-3.9,4.3-4.7c2.2-0.8,25.1-6.5,25.6,13.2c-4.1-17.9-21.6-5.1-25-4.3  C379.5,787.5,377.1,785.2,377.1,782.7L377.1,782.7z M381.6,749.6c0.4-1.2,1.7-1.8,2.9-1.5c1.3,0.3,18.7,2.8,24.5,25.6  c-9.2-21.2-24.8-20.7-26-21.1C381.8,752.1,381.2,750.8,381.6,749.6L381.6,749.6z M394.6,744.1c0.7-0.4,1.5-0.3,2,0.4  s5.2,5.2,11.6,21.6c-7.3-14.3-13.6-19.3-14-20S393.9,744.5,394.6,744.1L394.6,744.1z M424.3,744.1c-0.7-0.4-1.5-0.3-2,0.4  s-5.2,5.2-11.6,21.6c7.3-14.3,13.6-19.3,14-20C425.2,745.4,425,744.5,424.3,744.1L424.3,744.1z M437.3,749.6  c-0.4-1.2-1.7-1.8-2.9-1.5c-1.3,0.3-18.7,2.8-24.5,25.6c9.2-21.2,24.8-20.7,26-21.1C437.1,752.1,437.7,750.8,437.3,749.6  L437.3,749.6z M409.5,743.4c0.9,0,1.6,0.7,1.6,1.6c0,0.9-1.3,6.4-1.6,16.5c-0.5-10-1.5-15.6-1.5-16.5  C407.9,744.1,408.6,743.4,409.5,743.4L409.5,743.4z M409.5,533l-1.3,26.1c-0.7,13.5-1.2,34.2-1.6,55.8c-0.7,35.9-1.2,74.2-1.3,86  c0,3.5-0.1,6.7-0.1,9.7c-0.1,4.9-0.1,9.2-0.1,13h8.8c0.1-3.8,0-8.1-0.1-13c0-3-0.1-6.3-0.1-9.7c-0.1-11.8-0.5-50.1-1.3-86  c-0.4-21.6-1-42.3-1.6-55.8L409.5,533L409.5,533z M417.1,735.5L417.1,735.5c0,1.7-1.4,3.1-3.1,3.1h-9c-1.7,0-3.1-1.4-3.1-3.1l0,0  c0-1.7,1.4-3.1,3.1-3.1h9C415.7,732.3,417.1,733.7,417.1,735.5L417.1,735.5z M415.3,728L415.3,728c0,1.3-1.1,2.4-2.4,2.4H406  c-1.3,0-2.4-1.1-2.4-2.4l0,0c0-1.3,1.1-2.4,2.4-2.4h6.9C414.3,725.6,415.3,726.7,415.3,728L415.3,728z M436.5,765.3  c0.1-1.5-1-2.8-2.5-3c-1.6-0.2-25.9,0.5-24,22c0.2-19.8,22.1-16.6,23.6-16.5C435.1,767.9,436.4,766.8,436.5,765.3L436.5,765.3z   M428.6,774c0.1-1-0.7-1.8-1.6-1.9c-1-0.2-16.7,0.3-15.5,14.2c0.2-12.8,14.3-10.7,15.2-10.6C427.7,775.7,428.6,775,428.6,774  L428.6,774z M429.9,834.4c2.7,0.5,5.2-1.3,5.8-3.9c0.6-2.6,7.8-36-21.5-35c25.7,3.3,12.2,30.6,11.7,33.3  C425.5,831.4,427.3,833.9,429.9,834.4L429.9,834.4z M443.3,830.4c2,0.1,3.8-1.4,4-3.4c0.3-2.2-0.7-35.2-29.8-32.6  c26.9,0.3,22.5,30,22.3,32.1C439.7,828.5,441.2,830.2,443.3,830.4L443.3,830.4z M420.5,826.2c2.5,0.1,3.9-2,4.7-4.3  c0.8-2.2,6.5-25.1-13.2-25.6c17.9,4.1,5.1,21.6,4.3,25C415.8,823.7,418.1,826.1,420.5,826.2L420.5,826.2z M453.6,821.6  c1.2-0.4,1.8-1.7,1.5-2.9c-0.3-1.3-2.8-18.7-25.6-24.5c21.2,9.2,20.7,24.8,21.1,26C451.1,821.4,452.4,822,453.6,821.6L453.6,821.6z   M459.1,808.7c0.4-0.7,0.3-1.5-0.4-2c-0.7-0.5-5.2-5.2-21.6-11.6c14.3,7.3,19.3,13.6,20,14C457.8,809.5,458.7,809.3,459.1,808.7  L459.1,808.7z M459.1,778.9c0.4,0.7,0.3,1.5-0.4,2c-0.7,0.5-5.2,5.2-21.6,11.6c14.3-7.3,19.3-13.6,20-14  C457.8,778.1,458.7,778.3,459.1,778.9L459.1,778.9z M453.6,765.9c1.2,0.4,1.8,1.7,1.5,2.9c-0.3,1.3-2.8,18.7-25.6,24.5  c21.2-9.2,20.7-24.8,21.1-26C451.1,766.2,452.4,765.5,453.6,765.9L453.6,765.9z M459.8,793.8c0-0.9-0.7-1.5-1.6-1.5  s-6.4,1.3-16.5,1.5c10,0.5,15.6,1.5,16.5,1.5S459.8,794.6,459.8,793.8L459.8,793.8z M670.2,793.8l-26,1.3  c-13.5,0.6-34.2,1.2-55.8,1.6c-35.9,0.7-74.2,1.2-86,1.3c-3.5,0-6.7,0.1-9.7,0.1c-4.9,0.1-9.2,0.1-13,0.1v-8.8c3.8,0,8.1,0,13,0.1  c3,0,6.2,0.1,9.7,0.1c11.8,0.1,50.1,0.5,86,1.3c21.6,0.4,42.3,1,55.8,1.6L670.2,793.8L670.2,793.8z M467.8,786.1L467.8,786.1  c-1.7,0-3.1,1.4-3.1,3.1v9c0,1.7,1.4,3.1,3.1,3.1l0,0c1.7,0,3.1-1.4,3.1-3.1v-9C470.9,787.5,469.5,786.1,467.8,786.1L467.8,786.1z   M475.2,787.9L475.2,787.9c-1.3,0-2.4,1.1-2.4,2.4v6.9c0,1.3,1.1,2.4,2.4,2.4l0,0c1.3,0,2.4-1.1,2.4-2.4v-6.9  C477.6,789,476.5,787.9,475.2,787.9L475.2,787.9z M437.9,766.7c1.5-0.1,2.8,1,3,2.5c0.2,1.6-0.5,25.9-22,24  c19.8-0.2,16.6-22.1,16.5-23.6S436.4,766.8,437.9,766.7L437.9,766.7z M429.2,774.6c1-0.1,1.8,0.7,1.9,1.6c0.1,1-0.3,16.7-14.2,15.5  c12.8-0.2,10.7-14.3,10.6-15.2C427.5,775.5,428.3,774.7,429.2,774.6L429.2,774.6z"
              id="path18"/>
        <svg id="svg14" preserveAspectRatio="xMidYMid meet" height="475.4407" width="371.18646" y="307.19492"
             x="502.54239" viewBox="0 0 371.18646 475.4407" version="1.1">
            <image xlink:href="/designs/templates/girl1.png" id="image11" height="475.4407" width="371.18646"/>
        </svg>
    </g>
</svg>
 


