<?xml version="1.0" encoding="UTF-8" standalone="no"?>
 <svg xmlns:dc="http://purl.org/dc/elements/1.1/" xmlns:cc="http://creativecommons.org/ns#" xmlns:rdf="http://www.w3.org/1999/02/22-rdf-syntax-ns#" xmlns:svg="http://www.w3.org/2000/svg" xmlns="http://www.w3.org/2000/svg" xmlns:xlink="http://www.w3.org/1999/xlink" version="1.1" viewBox="0 0 1600 1000" height="1000" width="1600" id="svg1680">
 <metadata id="metadata10">
 <rdf:RDF>
 <cc:Work rdf:about="">
 <dc:format>image/svg+xml</dc:format>
 <dc:type rdf:resource="http://purl.org/dc/dcmitype/StillImage"/>
 <dc:title></dc:title>
 </cc:Work>
 </rdf:RDF>
 </metadata>
 <defs id="defs8">
 <clipPath id="clipPath4143" clipPathUnits="userSpaceOnUse">
 <path id="jd_bd" d="m 986.76471,619.11768 277.94109,0 0,242.64711 -277.94109,0 z" style="opacity:0.97000002;fill:none;fill-opacity:1;stroke:#000000;stroke-width:1;stroke-linecap:butt;stroke-linejoin:miter;stroke-miterlimit:4;stroke-dasharray:none;stroke-dashoffset:0;stroke-opacity:1"/>
 </clipPath>
 </defs>
 <image xlink:href="/designs/templates/002000501-0.jpg" id="jd_bg" height="1000" width="1600" style="stroke-width:1;stroke-miterlimit:4;stroke-dasharray:none"/>
 <g id="jd_nt" clip-path="url(#clipPath4143)">
 <g transform="matrix(3.9411765,0,0,3.4190365,1008.85,637.25671)" id="g3">
 <path id="path5" d="m 51.991,7.982 c -14.596,0 -21.14,-7.533 -21.233,-7.642 -0.38,-0.455 -1.155,-0.454 -1.535,0.001 -0.064,0.076 -6.537,7.64 -21.232,7.64 -0.552,0 -1,0.448 -1,1 l 0,19.085 c 0,10.433 4.69,20.348 12.546,26.521 3.167,2.489 6.588,4.29 10.169,5.352 0.093,0.028 0.189,0.042 0.285,0.042 0.096,0 0.191,-0.014 0.285,-0.042 3.581,-1.063 7.002,-2.863 10.169,-5.352 7.856,-6.174 12.546,-16.088 12.546,-26.521 l 0,-19.084 c 0,-0.552 -0.448,-1 -1,-1 z m -1,20.085 c 0,9.824 -4.404,19.151 -11.782,24.949 -2.883,2.266 -5.983,3.92 -9.218,4.921 -3.235,-1 -6.335,-2.655 -9.218,-4.921 C 13.395,47.219 8.991,37.891 8.991,28.067 l 0,-18.096 c 12.242,-0.272 18.865,-5.497 21,-7.545 2.135,2.049 8.758,7.273 21,7.545 l 0,18.096 z" style="fill:#006df0"/>
 <path id="path7" d="m 29.429,7.986 c -3.015,2.049 -8.163,4.689 -15.564,5.633 -0.5,0.064 -0.874,0.489 -0.874,0.992 l 0,13.457 c 0,8.607 3.833,16.758 10.254,21.804 2.022,1.589 4.169,2.835 6.381,3.703 0.118,0.046 0.241,0.069 0.365,0.069 0.124,0 0.248,-0.023 0.365,-0.069 2.21,-0.867 4.358,-2.113 6.382,-3.703 6.42,-5.046 10.253,-13.197 10.253,-21.804 l 0,-13.457 c 0,-0.503 -0.374,-0.928 -0.874,-0.992 -7.401,-0.944 -12.549,-3.584 -15.564,-5.633 -0.339,-0.231 -0.785,-0.231 -1.124,0 z m 15.562,7.496 0,12.585 c 0,7.999 -3.547,15.562 -9.489,20.231 -1.758,1.381 -3.61,2.479 -5.511,3.266 -1.901,-0.788 -3.753,-1.885 -5.51,-3.266 -5.942,-4.67 -9.49,-12.233 -9.49,-20.232 l 0,-12.584 c 6.899,-1.021 11.875,-3.446 15,-5.47 3.125,2.024 8.101,4.449 15,5.47 z" style="fill:#006df0"/>
 </g>
 <text id="text4694" y="739.2157" x="1126.8837" style="font-style:normal;font-variant:normal;font-weight:normal;font-stretch:normal;font-size:40px;line-height:125%;font-family:'Bungee Shade';-inkscape-font-specification:'Bungee Shade, Normal';text-align:start;letter-spacing:0px;word-spacing:0px;writing-mode:lr-tb;text-anchor:start;fill:#00ffcf;fill-opacity:1;stroke:#000000;stroke-width:1px;stroke-linecap:butt;stroke-linejoin:miter;stroke-opacity:1">
 <tspan y="739.2157" x="1126.8837" style="text-align:center;text-anchor:middle" id="text01">WYG
 </tspan>
 </text>
 </g>
 </svg>
 

