<?xml version="1.0" encoding="UTF-8" standalone="no"?>
<?xml-stylesheet type="text/css" href="https://fonts.googleapis.com/css?family=HelveticaNeueLTPro-Th"?>
 <svg xmlns:dc="http://purl.org/dc/elements/1.1/" xmlns:cc="http://creativecommons.org/ns#" xmlns:rdf="http://www.w3.org/1999/02/22-rdf-syntax-ns#" xmlns:svg="http://www.w3.org/2000/svg" xmlns="http://www.w3.org/2000/svg" xmlns:xlink="http://www.w3.org/1999/xlink" style="enable-background:new 0 0 1600 1000;" viewBox="0 0 1600 1000" y="0px" x="0px" id="svg1682" version="1.1">
 <metadata id="metadata18">
 <rdf:RDF>
 <cc:Work rdf:about="">
 <dc:format>image/svg+xml</dc:format>
 <dc:type rdf:resource="http://purl.org/dc/dcmitype/StillImage"/>
 <dc:title></dc:title>
 </cc:Work>
 </rdf:RDF>
 </metadata>
 <defs id="defs16">
 <clipPath clipPathUnits="userSpaceOnUse" id="clipPath4149">
 <path style="opacity:1;fill:none;fill-opacity:1;fill-rule:nonzero;stroke:#000000;stroke-width:1.17033029;stroke-linecap:butt;stroke-linejoin:miter;stroke-miterlimit:4;stroke-dasharray:none;stroke-dashoffset:0;stroke-opacity:1" d="m 728.4635,526.33527 212.50739,0 0,329.26709 -212.50739,0 z" id="path4151"/>
 </clipPath>
 <clipPath id="clipPath4146" clipPathUnits="userSpaceOnUse">
 <path id="jd_bd" d="m 598.41755,493.65562 469.83165,0 0,401.57765 -469.83165,0 z" style="opacity:1;fill:none;fill-opacity:1;fill-rule:nonzero;stroke:#000000;stroke-width:1.21965301;stroke-linecap:butt;stroke-linejoin:miter;stroke-miterlimit:4;stroke-dasharray:none;stroke-dashoffset:0;stroke-opacity:1"/>
 </clipPath>
 </defs>
 <style id="style3" type="text/css">
 .st0{fill:none;stroke:#FFFFFF;stroke-width:2.9534;stroke-dasharray:11.8138,2.9534;}
.st1{fill:#FF9966;}
.st2{font-family:'HelveticaNeueLTPro-Th';}
.st3{font-size:41.6307px;}
</style>
 <image xlink:href="/designs/templates/002000101-2.jpg" style="overflow:visible;enable-background:new    ;" width="600" height="400" id="jd_bg" transform="matrix(2.6165 0 0 2.6165 15.0453 -23.3031)"/>
 <g clip-path="url(#clipPath4146)" id="jd_nt">
 <g id="layer1" clip-path="url(#clipPath4149)">
 <svg version="1.1" viewBox="0 0 282.04987 378.2511" x="692.1109" y="507.37817" width="282.04987" height="378.2511" preserveAspectRatio="xMidYMid meet" id="svg13">
 <image xlink:href="/designs/templates/sample3.jpg" id="image21" height="327.64594" width="228.28185" x="26.884003" y="20.558353"/>
 </svg>
 </g>
 <g id="g8">
 <path style="fill:#ff9966" id="path10" d="m 963.2729,540.4686 c -0.34222,-0.24502 -0.76999,0 -0.94109,0.49004 -0.17112,0.49005 0,1.10259 0.34221,1.34761 1.62552,0.98007 3.33656,-0.49005 4.19218,-3.43029 0.85546,-3.06276 -0.59888,-5.75798 -2.31,-6.73806 -2.48106,-1.47012 -4.36325,0.98008 -5.7321,3.79782 l 0,-13.72115 5.38989,0 c 0.34221,0 0.68443,-0.49004 0.68443,-0.98008 0,-0.49004 -0.34222,-0.98009 -0.68443,-0.98009 l -5.38989,0 0,-5.88048 5.21878,0 c 0.34222,0 0.25666,0.1225 0.25666,-0.36753 l 0,-7.84066 c 0,-0.49004 0.0855,-1.59263 -0.25666,-1.59263 l -5.47544,0 c -0.34221,0 -1.11219,0.98008 -1.11219,1.59263 l 0,6.37054 -4.02102,0 0,-6.12551 c 0,-0.49005 -0.34222,-0.9801 -0.68443,-0.9801 -0.34222,0 -0.68444,0.49005 -0.68444,0.9801 l 0,6.12551 -7.69984,0 c 1.8822,-1.96017 2.30996,-3.18527 2.48106,-4.41037 0.17113,-1.96017 -0.42776,-3.79782 -1.53996,-5.02292 -1.02664,-1.10259 -2.30995,-1.2251 -3.50769,-0.61255 -1.02665,0.61255 -1.71108,1.47012 -2.22441,2.57272 -0.42776,1.10258 -0.51332,2.32769 -0.1711,3.43027 0.1711,0.49005 0.51332,0.73507 0.85553,0.49005 0.34222,-0.24503 0.51333,-0.73506 0.34222,-1.2251 -0.17111,-0.73507 -0.0855,-1.34761 0.0855,-1.71515 0.25667,-0.73505 0.85554,-1.34761 1.53997,-1.71514 1.02664,-0.61255 1.79662,0 2.13883,0.36753 0.68445,0.73505 1.11221,2.08268 1.02667,3.43029 -0.17113,1.47013 -0.9411,2.4502 -2.22441,3.18526 -1.36885,0.85758 -3.25104,1.1026 -5.38987,1.1026 l -2.99439,0 c -0.94109,0 -1.53996,-0.85758 -1.79663,-1.47013 -0.34222,-0.73506 -0.51332,-1.47012 -0.42776,-2.20519 0.0855,-0.61254 0.25666,-1.10258 0.59887,-1.3476 0.34221,-0.36754 0.76998,-0.36754 1.19775,-0.24502 1.02664,0.36752 1.02664,1.3476 0.9411,1.59262 -0.0856,0.49005 0.17109,0.98009 0.59886,1.1026 0.34222,0.1225 0.68444,-0.24501 0.76999,-0.85757 0.0856,-1.10259 -0.1711,-3.18527 -2.05329,-3.79782 -0.76998,-0.24502 -1.62552,0 -2.22439,0.61255 -0.68443,0.61256 -1.02665,1.59264 -1.19775,2.69522 -0.17112,1.22511 0.0855,2.32771 0.68442,3.55281 0.0856,0.24502 0.25666,0.24502 0.34222,0.24502 l -6.24541,0 0,-6.37054 c 0,-0.49005 -0.42778,-1.59263 -0.76999,-1.59263 l -185.39486,0 c -0.3422,0 -0.59886,0.98009 -0.59886,1.59263 l 0,6.37054 -6.41653,0 c 0.0855,0 0.25667,-0.12251 0.34222,-0.24502 0.59887,-1.2251 0.85554,-2.4502 0.68442,-3.6753 -0.17111,-1.22511 -0.59888,-2.08268 -1.19774,-2.69524 -0.68444,-0.61254 -1.45442,-0.85757 -2.2244,-0.61254 -1.88219,0.61254 -2.13884,2.69522 -2.0533,3.79781 0.0855,0.49004 0.42778,0.85757 0.77,0.85757 0.34221,-0.1225 0.59886,-0.61255 0.59886,-1.10259 0,-0.12252 -0.0855,-1.2251 0.9411,-1.59264 0.42777,-0.12249 0.85554,0 1.19775,0.36754 0.34221,0.36753 0.51333,0.85757 0.59887,1.47012 0.0856,0.73507 -0.0855,1.34761 -0.42776,2.08267 -0.34222,0.61255 -0.85554,1.47013 -1.79663,1.47013 l -2.99439,0 c -2.13883,0 -4.10657,-0.24502 -5.38987,-1.1026 -1.2833,-0.73506 -2.13884,-1.83765 -2.22441,-3.43028 -0.0855,-1.2251 0.25667,-2.57271 1.02666,-3.30778 0.34221,-0.36754 1.1122,-0.98008 2.13884,-0.36754 0.68443,0.36754 1.28329,1.10261 1.53996,1.71515 0.17111,0.36754 0.34222,1.10259 0.0855,1.71515 -0.1711,0.49004 0,1.10258 0.34222,1.34761 0.34222,0.24502 0.76999,0 0.94109,-0.49005 0.34221,-1.10258 0.25666,-2.32769 -0.1711,-3.43027 -0.42777,-1.1026 -1.19776,-1.96017 -2.2244,-2.57272 -1.19775,-0.73507 -2.48106,-0.49004 -3.5077,0.61255 -1.1122,1.2251 -1.71107,2.94024 -1.53997,4.90041 0.0855,1.10259 0.59888,2.4502 2.48105,4.41037 l -7.44315,0 0,-6.12551 c 0,-0.49005 -0.34222,-0.98008 -0.68444,-0.98008 -0.34222,0 -0.68443,0.49003 -0.68443,0.98008 l 0,6.12551 -4.10658,0 0,-6.37054 c 0,-0.49004 -0.94109,-1.59263 -1.36885,-1.59263 l -5.47545,0 c -0.34221,0 0,0.98007 0,1.59263 l 0,7.84066 c 0,0.49004 -0.34221,0.36752 0,0.36752 l 5.47545,0 0,5.8805 -5.64655,0 c -0.34221,0 -0.68443,0.49004 -0.68443,0.98009 0,0.49003 0.34222,0.98007 0.68443,0.98007 l 5.64655,0 0,13.72114 c -1.36886,-2.94023 -3.33659,-5.39044 -5.81766,-3.79781 -1.62552,0.98007 -3.07993,3.67532 -2.22439,6.73805 0.85553,2.94026 2.5666,4.41038 4.10657,3.4303 0.34222,-0.24502 0.51332,-0.73505 0.34222,-1.34761 -0.1711,-0.49005 -0.59888,-0.73507 -0.94109,-0.49005 -0.85553,0.49005 -1.88218,-0.49003 -2.3955,-2.32769 -0.59889,-1.96017 0.25665,-3.55279 1.2833,-4.16534 1.1122,-0.73507 2.82327,-0.36754 3.76436,2.94024 0.76999,2.69523 1.02665,6.86057 1.02665,11.39345 0,0 0,0 0,0 -0.17112,1.71515 -0.76998,2.69522 -1.28331,3.18527 -0.51333,0.49003 -1.11219,0.73505 -1.62551,0.61255 -0.42778,-0.12252 -0.76999,-0.36753 -1.02666,-0.85757 -0.25666,-0.49005 -0.34222,-1.1026 -0.25666,-1.71515 0.25666,-1.47012 0.94111,-1.47012 1.1122,-1.34761 0.34222,0.12251 0.68444,-0.24502 0.76998,-0.85756 0.0856,-0.49005 -0.17109,-0.98009 -0.59886,-1.10261 -0.76999,-0.1225 -2.2244,0.24502 -2.65217,2.94024 -0.1711,1.10261 0,2.32771 0.42777,3.18528 0.42776,0.98008 1.1122,1.47012 1.88219,1.71514 0.17109,0 0.34221,0.12251 0.51331,0.12251 0.76998,0 1.45441,-0.36753 2.13884,-0.98009 0.17111,-0.12249 0.34222,-0.36752 0.51333,-0.61254 0,1.2251 0,1.59263 0,2.81773 0,1.71515 0,4.28786 0,4.28786 l -4.53436,0 c -0.34221,0 0,2.2052 0,2.69523 l 0,264.62208 c 0,0.49005 -0.34221,0 0,0 l 4.53436,0 c 0,1.96017 0,3.92032 0,5.63547 0,1.2251 0,2.69522 0,3.92033 -0.17111,-0.24503 -0.34222,-0.36753 -0.51333,-0.49005 -0.85554,-0.85757 -1.79662,-1.10259 -2.65215,-0.85757 -0.85554,0.24502 -1.45443,0.85757 -1.88219,1.71514 -0.42777,0.98008 -0.59887,2.08269 -0.42777,3.18527 0.34222,2.32769 1.53997,2.94025 2.3955,2.94025 0.0855,0 0.1711,0 0.25667,0 0.3422,-0.12251 0.59886,-0.61256 0.59886,-1.10259 -0.0855,-0.49005 -0.42776,-0.85758 -0.76998,-0.85758 -0.17109,0 -0.94108,0 -1.1122,-1.34761 -0.0855,-0.61256 0,-1.2251 0.25666,-1.71514 0.25667,-0.49004 0.59888,-0.73506 1.02666,-0.85757 0.51332,-0.12251 1.11218,0.12251 1.62551,0.61255 0.51333,0.49004 1.11219,1.47012 1.28331,3.18526 0,0 0,0 0,0 -0.0855,4.65539 -0.25666,8.82074 -1.02665,11.39345 -0.94109,3.30778 -2.65216,3.67531 -3.76436,2.94025 -1.11221,-0.61255 -1.88219,-2.32769 -1.2833,-4.16535 0.51332,-1.83765 1.53997,-2.81773 2.3955,-2.32769 0.34221,0.24502 0.76999,0 0.85554,-0.49004 0.1711,-0.49003 0,-1.10259 -0.34222,-1.22511 -1.62552,-0.98008 -3.33658,0.49005 -4.19212,3.4303 -0.85555,3.06276 0.42776,5.75798 2.05328,6.73805 0.51332,0.36753 1.36885,0.49005 1.88217,0.49005 1.79664,0 2.90884,-1.96017 4.2777,-4.28786 l 0,12.98608 -5.64655,0 c -0.34221,0 -0.68443,0.49003 -0.68443,0.98008 0,0.49004 0.34222,0.98008 0.68443,0.98008 l 5.64655,0 0,5.88049 -5.47545,0 c -0.34221,0 0,0.61256 0,1.1026 l 0,7.84065 c 0,0.49004 -0.34221,0.85757 0,0.85757 l 5.47545,0 c 0.34221,0 1.36885,-0.24501 1.36885,-0.85757 l 0,-7.10559 4.10658,0 0,6.86057 c 0,0.49004 0.34221,0.98007 0.68443,0.98007 0.34222,0 0.68444,-0.49003 0.68444,-0.98007 l 0,-6.86057 7.44315,0 c -1.88217,0 -2.30994,3.55278 -2.48105,4.7779 -0.1711,1.96016 0.42777,4.04283 1.53997,5.26794 0.59887,0.73506 1.36886,1.10258 2.13884,1.10258 0.42776,0 0.94109,-0.1225 1.36886,-0.36752 1.02664,-0.61255 1.71108,-1.47014 2.2244,-2.57272 0.42776,-1.10259 0.51331,-2.32769 0.1711,-3.43028 -0.1711,-0.49004 -0.51332,-0.73507 -0.94109,-0.49004 -0.34222,0.24502 -0.51332,0.73506 -0.34222,1.2251 0.17112,0.73507 0.0856,1.34761 -0.0855,1.71514 -0.25667,0.73506 -0.85553,1.34761 -1.53996,1.71515 -1.02664,0.61255 -1.79663,0 -2.13884,-0.36754 -0.68444,-0.73507 -1.1122,-2.08267 -1.02666,-3.43029 0.17112,-1.47012 0.94111,-2.81774 2.22441,-3.55279 1.36885,-0.85757 3.25104,-1.47012 5.38987,-1.47012 l 2.99439,0 c 0.94109,0 1.53996,1.2251 1.79663,1.83766 0.34222,0.73505 0.51331,1.71513 0.42776,2.4502 -0.0855,0.61255 -0.25666,1.10259 -0.59887,1.47012 -0.34221,0.36754 -0.76998,0.49003 -1.19775,0.36754 -1.02665,-0.36754 -1.02665,-1.34763 -0.9411,-1.59264 0.0856,-0.49005 -0.1711,-0.98009 -0.59886,-1.10261 -0.34222,-0.12249 -0.68444,0.24503 -0.77,0.85759 -0.0855,1.10259 0.17111,3.18526 2.0533,3.79781 0.1711,0.12251 0.42776,0.12251 0.59887,0.12251 0.59887,0 1.1122,-0.24503 1.62553,-0.73506 0.68441,-0.61255 1.02663,-1.59263 1.19774,-2.69523 0.17112,-1.2251 -0.0855,-2.69522 -0.68442,-3.92032 -0.0856,-0.24502 -0.25667,-0.61255 -0.34222,-0.61255 l 6.41653,0 0,7.1056 c 0,0.49003 0.1711,0.85756 0.59886,0.85756 l 185.39486,0 c 0.34221,0 0.76999,-0.24503 0.76999,-0.85756 l 0,-7.1056 6.24541,0 c -0.0855,0 -0.25666,0.49003 -0.34222,0.61255 -0.59887,1.2251 -0.85554,2.5727 -0.68442,3.92032 0.1711,1.22511 0.59887,2.08268 1.19775,2.81775 0.51332,0.49003 1.02664,0.73505 1.62552,0.73505 0.17111,0 0.42777,0 0.59887,-0.12251 1.88219,-0.61254 2.13884,-2.69522 2.05329,-3.79781 -0.0855,-0.49005 -0.42777,-0.85758 -0.76999,-0.85758 -0.34221,0.12251 -0.59886,0.61256 -0.59886,1.1026 0,0.1225 0.0855,1.2251 -0.9411,1.59262 -0.42777,0.12252 -0.85554,0 -1.19775,-0.36752 -0.34221,-0.36753 -0.51333,-0.85758 -0.59887,-1.47012 -0.0855,-0.73507 0.0855,-1.71515 0.42776,-2.45022 0.34222,-0.61254 0.85554,-1.83764 1.79663,-1.83764 l 2.99439,0 c 2.13883,0 4.10657,0.61254 5.38987,1.47013 1.28331,0.73505 2.13884,2.08266 2.22441,3.55279 0.0855,1.2251 -0.25667,2.5727 -1.02667,3.43028 -0.34221,0.36753 -1.11219,0.98008 -2.13883,0.36753 -0.68443,-0.36753 -1.2833,-0.98009 -1.53997,-1.71514 -0.17109,-0.36753 -0.34222,-0.98009 -0.0855,-1.71514 0.17111,-0.49005 0,-1.10259 -0.34222,-1.2251 -0.34221,-0.24503 -0.76998,0 -0.85553,0.49003 -0.34222,1.1026 -0.25666,2.3277 0.1711,3.43029 0.42776,1.10259 1.19776,1.96017 2.22441,2.57271 0.42776,0.24502 0.94108,0.36754 1.36885,0.36754 0.76998,0 1.45441,-0.36754 2.13884,-0.98008 1.1122,-1.22511 1.71109,-3.30778 1.53996,-5.26794 -0.0855,-1.1026 -0.59886,-4.7779 -2.48106,-4.7779 l 7.69984,0 0,6.86057 c 0,0.49004 0.34222,0.98007 0.68444,0.98007 0.34221,0 0.68443,-0.49003 0.68443,-0.98007 l 0,-6.86057 4.10657,0 0,7.10559 c 0,0.49003 0.76999,0.85757 1.1122,0.85757 l 5.47543,0 c 0.34222,0 0.25667,-0.24502 0.25667,-0.85757 l 0,-7.84065 c 0,-0.49004 0.0855,-1.1026 -0.25667,-1.1026 l -5.21877,0 0,-5.88049 5.38988,0 c 0.34221,0 0.68443,-0.49005 0.68443,-0.98008 0,-0.49004 -0.34222,-0.98009 -0.68443,-0.98009 l -5.38988,0 0,-12.98608 c 1.36886,2.3277 2.3955,4.28786 4.19213,4.28786 0.51333,0 1.1122,-0.12252 1.62552,-0.49003 1.62551,-0.98009 2.99435,-3.67531 2.13889,-6.73807 -0.85562,-2.94023 -2.56666,-4.41038 -4.19218,-3.43028 -0.34221,0.24502 -0.51333,0.73506 -0.34221,1.2251 0.1711,0.49004 0.51333,0.73506 0.94109,0.49004 0.85553,-0.49004 1.88219,0.49004 2.39545,2.32769 0.59897,1.96017 -0.25662,3.5528 -1.28325,4.16535 -1.1122,0.73507 -2.82327,0.36753 -3.76437,-2.94025 -0.76998,-2.69522 -1.02663,-6.86057 -1.02663,-11.39345 0,0 0,0 0,0 0.17109,-1.71514 0.76998,-2.69522 1.2833,-3.18526 0.51331,-0.49004 1.1122,-0.73506 1.62551,-0.61255 0.42777,0.12251 0.76999,0.36753 1.02665,0.85757 0.25665,0.49004 0.34221,1.10258 0.25665,1.71514 -0.25665,1.47012 -0.94107,1.47012 -1.11219,1.34761 -0.34221,-0.12251 -0.68442,0.24502 -0.76998,0.85757 -0.0856,0.49004 0.1711,0.98009 0.59887,1.1026 0.0855,0 0.17111,0 0.25667,0 0.76998,0 1.96773,-0.61256 2.39551,-2.94025 0.1711,-1.10259 0,-2.32769 -0.42778,-3.18526 -0.42777,-0.98008 -1.11219,-1.47013 -1.88217,-1.71515 -0.85554,-0.24502 -1.88219,0.12251 -2.65219,0.98008 -0.17109,0.24502 -0.3422,0.36754 -0.51331,0.61256 0,-1.22511 0,-2.94025 0,-4.16535 0,-1.71515 0,-3.67531 0,-5.63547 l 4.53435,0 c 0.34221,0 0.25666,0.49004 0.25666,0 l 0,-264.62208 c 0,-0.49004 0.0855,-2.69523 -0.25666,-2.69523 l -4.53435,0 c 0,0 0,-2.57271 0,-4.28786 0,-1.2251 0,-2.08267 0,-3.30777 0.17111,0.24502 0.34222,0.61255 0.51331,0.85756 0.68445,0.73507 1.45443,1.10261 2.13886,1.10261 0.1711,0 0.34221,0 0.51333,0 0.85553,-0.24503 1.4544,-0.73507 1.88217,-1.71515 0.42778,-0.98008 0.59888,-2.08268 0.42778,-3.18527 -0.42778,-2.69522 -1.88219,-3.06275 -2.65218,-2.94025 -0.34222,0.12252 -0.59887,0.61256 -0.59887,1.1026 0.0855,0.49004 0.42777,0.85757 0.76998,0.85757 0.17112,0 0.9411,0 1.11219,1.34761 0.0856,0.61254 0,1.2251 -0.25665,1.71515 -0.25666,0.49003 -0.59888,0.73505 -1.02665,0.85757 -0.51331,0.12251 -1.1122,-0.12252 -1.62551,-0.61255 -0.51332,-0.49004 -1.11221,-1.47012 -1.2833,-3.18526 0,0 0,0 0,0 0.0855,-4.6554 0.25665,-8.82074 1.02663,-11.39346 0.9411,-3.30778 2.65217,-3.67531 3.76437,-2.94024 1.11219,0.61255 1.88222,2.32769 1.28325,4.16534 -0.51326,1.71515 -1.53992,2.69523 -2.39545,2.20519 z m -11.20754,286.55141 0,39.32578 -26.86385,0 c -0.34222,0 -0.59888,0.61255 -0.59888,1.10259 l 0,6.86057 c -2.73772,0 -5.64655,-0.36753 -7.27207,-1.2251 -1.53996,-0.85756 -2.65216,-2.20519 -3.16548,-3.92032 -0.34221,-1.22511 -0.42777,-2.69522 0,-3.92033 0.1711,-0.73506 0.68443,-1.96017 1.53996,-2.69523 0.76999,-0.61254 1.71108,-0.61254 2.73772,0 0.68444,0.36753 1.1122,0.98007 1.36886,1.59263 0.17112,0.61256 0.17112,1.34762 0,2.08268 -0.17111,0.49004 0,1.10259 0.34221,1.34761 0.34222,0.24502 0.76998,0 0.94111,-0.49004 0.3422,-1.34761 0.3422,-2.57271 0,-3.6753 -0.34222,-1.10261 -1.1122,-1.96017 -2.0533,-2.57273 -1.79663,-1.10258 -3.16548,-0.49003 -3.93546,0.12252 -0.9411,0.73506 -1.71108,1.96016 -2.13885,3.5528 -0.51333,1.71514 -0.51333,3.55278 0,5.39044 0.42777,1.34762 1.19775,2.32771 3.07993,4.28786 l -167.00081,0 c 1.79664,-1.96015 2.65218,-3.06276 3.07995,-4.28786 0.51331,-1.71514 0.51331,-3.6753 0,-5.39044 -0.42777,-1.59264 -1.19775,-2.81774 -2.13885,-3.5528 -0.85555,-0.61255 -2.13884,-1.2251 -3.93547,-0.12252 -0.9411,0.61256 -1.71107,1.47012 -2.05328,2.57273 -0.34222,1.10259 -0.34222,2.4502 0,3.6753 0.17109,0.49004 0.51331,0.73506 0.94109,0.49004 0.34221,-0.24502 0.51331,-0.73507 0.34221,-1.2251 -0.25667,-0.73507 -0.25667,-1.47012 0,-2.08267 0.25665,-0.61256 0.68443,-1.22511 1.36885,-1.59264 1.02665,-0.61255 1.96774,-0.61255 2.73772,0 0.85554,0.73507 1.36885,1.96017 1.53998,2.69522 0.34221,1.2251 0.34221,2.69522 0,3.92034 -0.51334,1.71514 -1.53998,2.94025 -3.07994,3.92032 -1.62552,0.98008 -4.4488,1.2251 -7.18652,1.2251 l 0,-6.86057 c 0,-0.49004 -0.42777,-1.10258 -0.76998,-1.10258 l -26.69275,0 0,-39.32579 c 0,-0.49004 -0.94109,-1.96016 -1.36886,-1.96016 l -4.10657,0 0,-5.39045 c 0,-1.71515 0,-3.30778 0.34222,-4.41037 0.59886,-2.2052 1.36885,-3.67532 2.5666,-4.41037 0.85553,-0.49005 1.79663,-0.49005 2.65218,0 0.51331,0.24502 1.2833,0.98007 1.79661,2.20517 0.42776,1.10261 0.42776,2.45022 0,3.92035 -0.25666,0.98007 -0.68443,1.59262 -1.1122,1.96015 -0.42776,0.24502 -0.94109,0.24502 -1.45441,0 -0.34221,-0.24501 -0.76998,0 -0.94109,0.49004 -0.17111,0.49005 0,1.1026 0.34222,1.34762 0.94109,0.49004 1.79663,0.49004 2.56661,0 0.76998,-0.49004 1.36886,-1.59264 1.79663,-2.94025 0.76998,-2.57271 0.34221,-4.53288 -0.0855,-5.63547 -0.51333,-1.34761 -1.36887,-2.4502 -2.48106,-3.06276 -1.19776,-0.73505 -2.22441,-0.73505 -3.42215,0 -0.85554,0.49005 -2.48106,1.59264 -2.48106,3.67531 l 0,-236.44473 c 0,2.20519 1.62552,3.18526 2.48106,3.67531 0.59887,0.36754 1.11219,0.61255 1.71107,0.61255 0.59888,0 1.19775,-0.12252 1.79663,-0.49004 1.1122,-0.61256 1.96773,-1.71514 2.48106,-3.06275 0.42776,-1.2251 0.85552,-3.06276 0.0855,-5.63548 -0.42776,-1.3476 -1.02663,-2.45021 -1.79661,-2.94024 -0.76999,-0.49005 -1.71109,-0.49005 -2.56662,0 -0.34221,0.24502 -0.51333,0.73505 -0.34221,1.2251 0.1711,0.49004 0.51332,0.73505 0.94109,0.49004 0.51331,-0.36753 1.02664,-0.36753 1.45441,0 0.42776,0.36753 0.85554,0.98008 1.11219,1.96016 0.42777,1.47013 0.42777,2.81773 0,3.92033 -0.51331,1.22511 -1.36885,1.96016 -1.88217,2.20519 -0.85554,0.49004 -1.88219,0.49004 -2.73772,0 -1.19775,-0.73507 -1.79663,-2.20519 -2.39551,-4.41037 -0.34221,-1.10259 -0.34221,-2.69523 -0.34221,-4.41037 l 0,-8.08567 4.10658,0 c 0.34221,0 1.36886,1.34761 1.36886,0.73506 l 0,-40.06085 26.69275,0 c 0.34221,0 0.76998,0.12252 0.76998,-0.36753 l 0,-6.86057 c 2.73771,0 5.56098,0.36754 7.18651,1.2251 1.53996,0.85757 2.56661,2.2052 3.07993,3.92033 0.34222,1.2251 0.34222,2.69522 0,3.92033 -0.1711,0.73506 -0.68443,1.96015 -1.53997,2.69522 -0.76998,0.61255 -1.71107,0.61255 -2.73772,0 -0.68442,-0.36753 -1.11219,-0.98009 -1.36885,-1.59263 -0.1711,-0.61256 -0.1711,-1.34761 0,-2.08268 0.1711,-0.49003 0,-1.10259 -0.34222,-1.2251 -0.34222,-0.24502 -0.76998,0 -0.85554,0.49005 -0.34221,1.34761 -0.34221,2.57271 0,3.67529 0.34222,1.10261 1.11221,1.96017 2.0533,2.57272 0.76998,0.49004 1.36886,0.61256 1.96774,0.61256 0.85552,0 1.53996,-0.36754 1.96773,-0.73506 0.94108,-0.73507 1.71107,-2.08268 2.13884,-3.5528 0.51332,-1.71514 0.51332,-3.92033 0,-5.75798 -0.42777,-1.34761 -1.19776,-2.69523 -3.07993,-4.6554 l 166.91524,0 c -1.79663,1.96017 -2.65215,3.4303 -3.07992,4.6554 -0.51334,1.71514 -0.51334,3.79782 0,5.51296 0.42777,1.59263 1.19775,2.94024 2.13883,3.67531 0.51332,0.36753 1.1122,0.73505 1.96774,0.73505 0.59887,0 1.2833,-0.1225 1.96774,-0.61254 0.94108,-0.61256 1.71107,-1.47013 2.05328,-2.57272 0.34222,-1.10259 0.34222,-2.4502 0,-3.67531 -0.17111,-0.49004 -0.51332,-0.73507 -0.85553,-0.49004 -0.34221,0.24502 -0.51334,0.73506 -0.34221,1.22511 0.25664,0.73506 0.25664,1.47012 0,2.08267 -0.25667,0.61256 -0.68445,1.2251 -1.36888,1.59263 -1.02663,0.61254 -1.96773,0.61254 -2.7377,0 -0.85555,-0.73506 -1.36887,-1.96016 -1.53998,-2.69522 -0.34221,-1.22512 -0.34221,-2.69523 0,-3.92034 0.51333,-1.71513 1.62553,-2.94024 3.1655,-3.92032 1.62552,-0.98008 4.53434,-1.2251 7.27206,-1.2251 l 0,6.86057 c 0,0.49004 0.17111,0.36753 0.59887,0.36753 l 26.86386,0 0,40.06084 c 0,0.49005 0.76998,-0.73505 1.11219,-0.73505 l 4.36324,0 0,8.08567 c 0,1.71514 -0.1711,3.30778 -0.42776,4.41036 -0.59888,2.20519 -1.45442,3.6753 -2.56661,4.41038 -0.85554,0.49004 -1.79664,0.49004 -2.65217,0 -0.51332,-0.24502 -1.36885,-0.98009 -1.79662,-2.20519 -0.42777,-1.10259 -0.42777,-2.45021 0,-3.92033 0.25665,-0.98008 0.68441,-1.59264 1.11219,-1.96015 0.42777,-0.24503 0.9411,-0.24503 1.45441,0 0.34222,0.24501 0.77,0 0.94109,-0.49005 0.17112,-0.49004 0,-1.10259 -0.34221,-1.2251 -0.94109,-0.49004 -1.79662,-0.49004 -2.56661,0 -0.76999,0.49005 -1.36885,1.59263 -1.79662,2.94025 -0.76999,2.57271 -0.34222,4.53288 0.0855,5.63546 0.51332,1.34762 1.36885,2.45021 2.48106,3.06276 0.59888,0.36754 1.19774,0.49003 1.88218,0.49003 0.68443,0 1.1122,-0.24501 1.71107,-0.61254 0.85553,-0.49004 2.65217,-1.59263 2.65217,-3.67532 l 0,236.19972 c 0,-2.20518 -1.79664,-3.18526 -2.65217,-3.6753 -1.19775,-0.73507 -2.48105,-0.73507 -3.67881,0 -1.1122,0.61255 -1.96774,1.71514 -2.48105,3.06274 -0.42777,1.2251 -0.76999,3.06276 -0.0856,5.63548 0.42778,1.3476 1.02666,2.45021 1.79664,2.94024 0.76998,0.49005 1.71107,0.49005 2.5666,0 0.34222,-0.24502 0.51333,-0.73505 0.34222,-1.34761 -0.1711,-0.49004 -0.51332,-0.73506 -0.85554,-0.49004 -0.51331,0.36753 -1.02664,0.36753 -1.45441,0 -0.42778,-0.36753 -0.85554,-0.98009 -1.11219,-1.96016 -0.42778,-1.47012 -0.42778,-2.81774 0,-3.92032 0.51332,-1.2251 1.36886,-1.96017 1.88217,-2.20519 0.85554,-0.49003 1.88219,-0.49003 2.73772,0 1.19775,0.73506 1.88219,2.20519 2.48106,4.41036 0.34221,1.1026 0.42776,2.69522 0.42776,4.41037 l 0,5.39045 -4.36323,0 c -0.59888,0.24502 -1.36886,1.59264 -1.36886,2.20519 z m 5.47544,-267.43982 -4.10657,0 0,-37.36562 4.10657,0 0,37.36562 z m 1.45441,-53.04692 4.10658,0 0,5.88049 -4.10658,0 0,-5.88049 z m -1.45441,7.84065 0,5.88048 -4.10657,0 0,-5.88048 4.10657,0 z m -5.47544,0 0,5.88048 -26.09386,0 0,-5.26793 c 1.36885,0 2.48105,-0.24502 3.76435,-0.24502 2.82328,0.12251 5.561,-0.36753 8.04206,-0.36753 l 14.28745,0 z m -211.40317,-7.84065 184.02599,0 0,5.88049 -184.02599,0 0,-5.88049 z m -13.51747,7.84065 c 2.48105,0 5.38987,0.49004 8.21315,0.36753 1.2833,0 2.48105,0.24502 3.84992,0.24502 l 0,5.26793 -26.09389,0 0,-5.88048 14.03082,0 z m -24.98169,-1.96016 0,-5.88049 4.10657,0 0,5.88049 -4.10657,0 z m 5.47545,1.96016 4.10657,0 0,5.88048 -4.10657,0 0,-5.88048 z m 4.19212,7.84065 0,37.36562 -4.10657,0 0,-37.36562 4.10657,0 z m -9.66757,302.84527 0,-263.51948 3.25104,0 c 0,3.92032 -0.51332,6.24802 0.85553,8.20818 l 0,249.92086 c -1.36885,1.96017 -0.85553,3.43029 -0.85553,5.39044 l -3.25104,0 z m 5.47545,1.96017 4.10657,0 0,39.32578 -4.10657,0 0,-39.32578 z m -1.36888,55.00709 -4.10657,0 0,-5.88049 4.10657,0 0,5.88049 z m 1.36888,-7.84066 0,-5.88049 4.10657,0 0,5.88049 -4.10657,0 z m 5.56098,0 0,-5.88049 26.09388,0 0,6.003 c -1.36886,0 -2.56661,-0.12251 -3.84992,-0.12251 -2.82327,-0.12251 -5.64654,0 -8.21316,0 l -14.0308,0 z m 211.40317,7.84066 -183.94044,0 0,-5.88049 184.02599,0 0,5.88049 z m 13.26082,-7.84066 c -2.48106,0 -5.30432,-0.12251 -8.04205,0 -1.28331,0 -2.3955,0.12251 -3.76435,0.12251 l 0,-6.003 26.09386,0 0,5.88049 -14.28746,0 z m 25.23834,1.96017 0,5.88049 -4.10658,0 0,-5.88049 4.10658,0 z m -5.56099,-1.96017 -4.10657,0 0,-5.88049 4.10657,0 0,5.88049 z m -4.10657,-7.84065 0,-39.32578 4.10657,0 0,39.32578 -4.10657,0 z m 9.66756,-304.80543 0,263.51948 -3.42215,0 c 0,-1.96015 -0.68443,-3.55279 -0.68443,-5.39044 l 0,-249.92086 c 0,-1.96016 0.59889,-4.16535 0.68443,-8.20818 l 3.42215,0 z" class="st1"/>
 </g>
 </g>
 </svg>
 


