<?xml version="1.0" encoding="utf-8"?>
<?xml-stylesheet type="text/css" href="https://fonts.googleapis.com/css?family=Roboto+Condensed"?>
<svg xmlns:dc="http://purl.org/dc/elements/1.1/" xmlns:cc="http://creativecommons.org/ns#" xmlns:rdf="http://www.w3.org/1999/02/22-rdf-syntax-ns#" xmlns:svg="http://www.w3.org/2000/svg" xmlns="http://www.w3.org/2000/svg" xmlns:xlink="http://www.w3.org/1999/xlink" id="svg2" xml:space="preserve" viewBox="0 0 1600 1000" height="1000px" width="1600px" y="0px" x="0px" version="1.1">
  <metadata id="metadata50">
    <rdf:RDF>
      <cc:Work rdf:about="">
        <dc:format>
          image/svg+xml
        </dc:format>
        <dc:type rdf:resource="http://purl.org/dc/dcmitype/StillImage">
        </dc:type>
        <dc:title>
        </dc:title>
      </cc:Work>
    </rdf:RDF>
  </metadata>
  <defs id="defs48">
    <clipPath clipPathUnits="userSpaceOnUse" id="clipPath4142">
      <path id="jd_bd" d="m 498.40056,242.28821 591.32644,0 0,562.39703 -591.32644,0 z" style="opacity:1;fill:none;fill-opacity:1;fill-rule:nonzero;stroke:#ffc300;stroke-width:1.84429443;stroke-linecap:butt;stroke-linejoin:miter;stroke-miterlimit:4;stroke-dasharray:none;stroke-dashoffset:0;stroke-opacity:1">
      </path>
    </clipPath>
  </defs>
  <image xlink:href="/designs/templates/002001001-0.jpg" transform="matrix(2.6165,0,0,2.6165,15.0452,-23.3027)" id="jd_bg" height="400" width="600">
  </image>
  <g id="jd_nt" clip-path="url(#clipPath4142)" style="fill:#917c6f">
    <g style="fill:#ac9393" id="Layer_2">
      <path style="fill:#ac9393;fill-rule:evenodd;stroke:#ffffff;stroke-width:0.28349999;stroke-miterlimit:10" id="path8" d="m 654.75113,561.36806 c -0.392,4.572 -2.609,6.658 -7.25,7.484 -6.455,1.15 -12.999,2.064 -18.867,5.34 -0.497,0.277 -1.123,0.439 -1.694,0.449 -2.275,0.045 -4.668,0.436 -6.799,-0.127 -1.854,-0.492 -3.229,0.748 -5.077,0.361 -2.383,-0.502 -3.578,-0.744 -3.581,-3.734 -0.002,-2.355 -0.729,-4.816 -0.486,-7.254 0.185,-1.863 0.641,-3.635 3.318,-2.795 1.248,0.395 2.405,-0.316 3.233,-1.133 3.448,-3.395 7.265,-6.053 12.19,-6.777 0.322,-0.051 0.788,-0.369 0.868,-0.654 1.327,-4.738 6.257,-5.145 9.329,-7.773 1.904,-1.633 4.182,-2.875 5.891,-4.674 1.392,-1.465 2.852,-2.713 4.556,-3.723 2.899,-1.721 4.399,-4.193 4.551,-7.617 0.055,-1.252 -0.988,-3.098 1.31,-3.67 0.646,-0.162 0.005,-0.258 -0.092,-0.375 -1.617,-1.938 -1.544,-4.328 -1.946,-6.643 -0.404,-2.336 -2.168,-4.352 -1.911,-6.891 0.481,-4.803 -2.739,-8.942 -2.283,-13.833 0.245,-2.607 0.115,-5.763 1.702,-7.33 2.854,-2.822 2.627,-5.918 2.944,-9.276 0.142,-1.539 0.212,-3.632 2.041,-4.695 0.192,-0.112 0.402,-0.629 0.327,-0.716 -2.133,-2.448 0.437,-3.683 1.37,-5.302 2.864,-4.955 5.285,-10.083 5.447,-15.926 0.087,-3.168 2.3,-4.893 4.229,-6.734 2.635,-2.51 4.254,-5.621 5.307,-8.922 1.262,-3.979 2.415,-7.881 5.668,-10.786 0.467,-0.417 0.594,-1.22 0.854,-1.854 0.299,-0.729 0.374,-1.894 0.888,-2.136 4.638,-2.166 4.738,-7.954 8.645,-10.671 0.536,-0.372 1.113,-1.051 1.192,-1.649 0.806,-6.115 6.826,-8.423 9.523,-13.144 0.18,-0.317 0.589,-0.701 0.908,-0.713 4.778,-0.217 7.21,-4.426 10.928,-6.45 1.796,-0.98 3.064,-2.782 2.972,-5.132 -0.047,-1.183 0.225,-2.241 1.684,-2.311 3.5,-0.175 5.511,-2.705 7.103,-5.174 2.757,-4.274 6.362,-5.704 11.325,-5.871 2.188,-0.075 4.708,-1.934 7.051,-1.789 3.391,0.209 5.015,-2.909 7.919,-3.286 3.071,-0.399 5.993,-1.312 8.692,-2.816 1.662,-0.928 3.503,-0.514 5.2,-0.983 3.431,-0.953 5.686,-4.129 9.206,-4.977 0.26,-0.063 0.494,-0.606 0.582,-0.966 1.25,-5.242 3.603,-9.661 8.251,-12.819 1.836,-1.248 2.016,-4.127 3.353,-5.759 2.425,-2.949 2.398,-6.067 2.258,-9.44 -0.115,-2.765 -0.204,-5.549 0.574,-8.261 0.217,-0.756 0.257,-1.679 0.726,-2.228 3.573,-4.171 3.253,-9.643 3.321,-14.281 0.055,-3.867 0.509,-7.692 0.621,-11.542 0.22,-7.555 3.029,-14.376 5.574,-21.282 0.744,-2.016 2.25,-3.745 4.506,-2.418 1.747,1.028 3.53,2.774 1.392,5.225 -0.556,0.636 0.262,0.679 0.562,0.976 1.806,1.799 3.346,3.695 3.647,6.43 0.542,4.893 2.291,9.533 2.757,14.516 0.277,2.966 1.3,6.035 1.682,9.126 0.175,1.415 1.769,1.764 2.36,2.957 2.203,4.426 5.092,8.692 3.987,13.987 -0.429,2.058 1.23,2.789 1.976,4.007 1.801,2.944 2.742,6.435 2.335,9.396 -0.761,5.504 4.371,9.089 3.605,14.431 -0.349,2.43 2.263,4.012 5.152,4.01 3.246,-0.003 6.477,-0.387 9.745,-0.332 2.181,0.035 4.516,-0.509 6.839,-0.162 1.048,0.155 2.173,0.461 2.353,1.47 0.395,2.223 2.071,2.41 3.708,2.734 1.744,0.349 3.964,-0.145 4.256,2.58 1.457,-0.299 1.879,1.265 3.062,1.659 4.471,1.495 8.585,3.71 11.908,7.153 1.515,1.572 3.493,0.362 5.239,1.003 1.563,0.569 3.206,0.656 4.237,2.225 0.634,0.968 1.666,1.393 2.804,1.442 4.496,0.197 8.193,1.716 10.232,6.063 0.159,0.339 0.387,0.883 0.633,0.913 4.591,0.539 5.274,4.528 6.974,7.687 0.891,1.659 2.58,2.672 3.92,3.937 2.295,2.168 5.09,3.426 7.325,5.16 2.428,1.881 5.252,3.93 7.367,6.495 3.002,3.635 5.335,7.739 7.351,11.883 0.878,1.809 1.762,1.512 2.553,1.255 1.687,-0.549 2.43,-0.307 2.472,1.549 0.038,1.682 1.158,2.083 2.628,2.113 3.218,0.065 6.364,0.312 9.593,0.923 3.326,0.629 7.311,0.112 10.451,-1.215 3.75,-1.584 8.301,-0.945 11.402,-4.159 0.172,-0.18 0.554,-0.227 0.836,-0.22 1.661,0.055 3.885,-0.484 4.845,0.375 1.25,1.12 2.532,-2.206 3.081,0.394 0.125,0.599 0.265,0.287 0.285,-0.052 0.177,-3.017 2.776,-2.508 4.586,-3.171 3.351,-1.228 6.616,-2.79 10.057,-3.653 3.932,-0.988 8.01197,-0.943 11.99597,0.165 0.27,0.075 0.533,0.274 0.733,0.479 1.796,1.866 0.698,9.835 -1.223,11.636 -2.911,2.727 -5.95997,4.84 -10.12697,4.84 -0.851,0 -1.348,0.741 -1.884,1.333 -1.314,1.452 -2.614,2.881 -4.896,2.649 -1.392,-0.14 -2.372,0.941 -3.386,1.657 -3.42,2.42 -7.475,4.414 -9.917,7.615 -2.508,3.281 -4.793,6.157 -8.428,8.428 -2.975,1.856 -5.459,4.701 -8.84,6.045 -2.787,1.108 -5.093,2.308 -4.571,5.873 0.04,0.282 -0.002,0.622 -0.129,0.874 -1.221,2.413 -1.569,4.69 -0.549,7.457 0.947,2.565 0.236,5.554 1.599,8.246 0.821,1.624 0.908,3.992 -0.015,5.491 -1.268,2.048 -0.868,3.715 -0.13,5.571 0.574,1.445 0.769,2.969 0.103,4.324 -0.566,1.148 -0.352,2.101 0.015,3.119 0.691,1.931 0.302,3.777 -0.688,5.409 -1.365,2.258 -1.462,2.196 -0.255,4.648 0.175,0.356 0.487,0.751 0.442,1.09 -0.539,4.209 1.027,8.583 -1.388,12.682 -1.684,2.857 -2.28,5.9 -0.215,9.154 1.742,2.738 -0.029,5.781 -0.331,8.637 -0.188,1.771 -0.889,3.635 -1.513,5.377 -0.658,1.84 -0.724,4.271 -3.699,4.631 -1.433,0.174 -0.911,1.986 -0.937,3.102 -0.057,2.537 0.404,5.01 -2.467,6.783 -0.846,0.521 -1.537,2.705 -0.826,4.838 1.39,4.182 -0.786,7.977 -3.363,11.047 -3.191,3.811 -6.983,7.111 -10.469,10.678 -0.751,0.77 -1.348,1.693 -1.39,2.881 -0.035,1.018 -0.352,2.246 -1.213,2.592 -2.617,1.063 -2.515,3.563 -3.283,5.594 -0.314,0.832 -0.446,1.906 0.489,2.418 2.19,1.195 1.736,2.979 1.452,4.9 -0.369,2.475 0.352,5.045 -0.839,7.484 -0.483,0.99 0.719,1.072 1.373,1.471 1.979,1.191 1.98,2.797 0.483,4.547 -1.56,1.826 -1.05,3.943 0.032,5.779 0.929,1.574 1.757,3.088 1.632,4.973 -0.02,0.287 -0.005,0.646 0.147,0.865 4.681,6.787 3.635,15.395 7.216,22.602 1.35,2.717 -0.544,6.143 -0.03,9.279 0.07,0.439 -0.459,1.102 -0.881,1.475 -1.387,1.223 -9.289,0.568 -10.708,-0.631 -3.398,-2.869 -6.198,-6.174 -8.551,-9.971 -1.043,-1.684 -2.617,-3.199 -5.135,-3.229 -1.457,-0.016 -3.2,-4.908 -2.354,-6.771 0.516,-1.133 0.456,-1.396 -0.452,-2.295 -1.404,-1.391 -1.794,-3.518 -2.093,-5.455 -0.634,-4.086 -2.355,-6 -6.375,-6.094 -2.393,-0.059 -3.026,-1.34 -3.283,-3.307 -0.507,-3.848 -2.805,-4.734 -6.04,-2.494 -4.541,3.148 -9.611,5.283 -14.721,7.299 -1.741,0.688 -3.58,1.047 -4.795,2.74 -0.479,0.668 -1.395,1.258 -2.206,1.418 -6.494,1.287 -11.938,5 -17.829,7.664 -2.186,0.988 -4.416,0.891 -6.596,0.873 -5.008,-0.039 -10.005,0.371 -15,0.447 -2.836,0.041 -5.795,1.561 -8.917,1.434 -5.683,-0.232 -11.322,-0.494 -16.985,-1.479 -3.044,-0.529 -6.437,-0.707 -9.688,-0.291 -2.498,0.318 -4.888,0.41 -7.286,-0.984 -0.496,-0.289 -2.225,-0.527 -3.411,-0.355 -0.292,0.041 -0.743,0.121 -0.868,-0.029 -3.388,-4.076 -8.587,-1.25 -12.54,-3.326 -4.483,-2.352 -9.378,-2.547 -14.376,-2.59 -3.982,-0.035 -7.146,-2.461 -10.01,-5.141 -1.517,-1.418 -3.745,-1.646 -5.309,-3.137 -1.712,-1.627 -4.795,-2.012 -4.441,-5.396 0.06,-0.557 -0.985,-0.645 -1.18,-0.395 -1.62,2.094 -3.029,0.52 -4.296,-0.305 -2.133,-1.387 -3.528,-0.834 -4.049,1.826 -0.055,0.289 -0.13,0.602 -0.294,0.834 -4.503,6.396 -4.823,14.648 -9.416,21.074 -1.367,1.92 -1.846,4.551 -1.639,7.254 0.477,6.162 -4.204,10.852 -10.404,10.855 -1.287,0 -2.587,-0.105 -3.864,0.02 -2.929,0.285 -3.882,-1.811 -4.75,-3.906 -0.404,-0.98 -0.517,-2.111 -0.624,-3.188 -0.354,-3.518 -0.299,-7.32 0.419,-10.482 0.945,-4.158 1.467,-8.857 3.388,-12.406 2.445,-4.508 1.851,-8.787 2.071,-13.248 0.12,-2.463 -0.127,-4.936 0.504,-7.383 0.399,-1.547 -0.474,-2.496 -1.587,-3.734 -3.782,-4.209 -9.182,-6.631 -12.552,-11.072 -3.79,-4.99 -9.605,-7.91 -12.969,-13.045 -2.183,-3.332 -6.779,-5.451 -6.058,-10.504 0.038,-0.256 -0.354,-0.672 -0.646,-0.859 -2.435,-1.561 -3.465,-4.002 -3.992,-6.645 -0.279,-1.404 -0.544,-2.043 -2.221,-1.836 -1.532,0.188 -3.223,-0.062 -4.05,-1.925 z m 168.268,49.672 c 0.494,-1.492 1.022,-2.426 2.602,-2.061 0.746,0.172 1.589,0.061 2.365,-0.07 2.183,-0.363 4.808,0.609 6.158,-2.303 0.444,-0.961 1.564,-0.586 2.298,0.098 1.427,1.33 2.485,1.25 3.32,-0.658 0.317,-0.717 1.088,-1.098 1.922,-1.264 2.033,-0.398 4.091,-0.73 6.077,-1.303 5.519,-1.592 11.08,-2.736 15.748,-6.809 2.473,-2.158 5.12,-4.688 8.805,-5.521 2.984,-0.672 3.519,-2.773 2.81,-5.789 -0.519,-2.219 -2.827,-3.172 -3.363,-5.018 -1.207,-4.129 -3.64,-7.883 -3.53,-12.479 0.037,-1.559 0.771,-3.709 -0.809,-4.982 -2.487,-2.014 -3.88,-4.406 -4.65,-7.576 -0.446,-1.848 -1.075,-3.867 -2.25,-5.662 -1.54,-2.35 -3.212,-5.063 -3.431,-7.734 -0.409,-4.906 -1.962,-9.176 -3.817,-13.68 -1.627,-3.949 -3.092,-8.561 -1.582,-13.22 0.212,-0.656 -0.087,-1.584 -0.392,-2.28 -2.051,-4.698 -4.254,-9.057 -9.066,-11.944 -2.48,-1.487 -4.192,-1.896 -6.874,-1.17 -7.981,2.168 -16.053,4.007 -24.096,5.951 -0.242,0.057 -0.559,-0.098 -0.818,-0.212 -0.973,-0.429 -2.902,-0.434 -3.017,0.047 -0.718,2.994 -3.184,-0.14 -4.324,1.263 -0.09,0.11 0.063,0.389 0.032,0.576 -0.376,2.291 -1.774,3.311 -4.047,3.528 -2.844,0.27 -5.638,0.901 -8.53,0.916 -5.509,0.028 -11.14,0.045 -15.753,3.623 -2.977,2.308 -6.39,3.902 -9.224,6.525 -2.111,1.951 -3.578,3.672 -4.743,6.424 -1.257,2.971 -3.378,5.627 -4.803,8.76 -2.088,4.586 -4.875,8.895 -6.716,13.664 -1.54,3.988 -4.469,7.607 -4.199,12.066 0.272,4.484 -4.618,8.021 -2.051,12.779 0.07,0.127 -0.04,0.402 -0.14,0.559 -1.807,2.762 -2.034,5.896 -2.338,9.064 -0.24,2.49 2.722,7.076 5.242,7.023 2.702,-0.057 4.73,1.025 6.799,2.439 1.048,0.717 2.286,1.705 3.406,1.664 4.216,-0.146 6.172,2.84 8.346,5.396 2.33,-1.469 4.877,-1.514 7.442,-1.244 0.983,0.105 1.889,0.592 2.355,1.604 0.828,1.809 2.368,2.219 4.181,2.146 1.193,-0.047 2.303,0.16 3.423,0.736 3.508,1.801 6.858,3.467 11.188,3.488 5.626,0.023 11.247,1.457 16.866,2.305 3.653,0.553 7.198,0.795 10.461,-1.566 1.724,-1.248 2.702,-0.439 2.717,1.901 z m -58.736,-208.649 c -1.188,-0.214 -1.811,0.24 -2.248,0.713 -3.506,3.835 -7.77,6.041 -13.009,6.09 -0.773,0.007 -0.424,0.442 -0.521,0.671 -1.504,3.548 -4.446,5.763 -7.68,7.308 -2.33,1.113 -4.102,2.912 -6.327,4.039 -4.451,2.261 -6.637,7.765 -12.168,8.458 -0.392,0.05 -0.826,0.322 -0.664,0.804 0.721,2.138 -0.951,2.889 -2.131,4.071 -2.175,2.184 -4.293,4.456 -6.18,6.891 -3.036,3.925 -5.214,8.448 -7.844,12.56 -2.198,3.433 -3.705,6.761 -4.501,10.534 -0.444,2.096 -2.141,3.52 -2.442,5.599 -0.509,3.48 -2.445,6.559 -2.75,10.125 -0.123,1.422 -0.789,2.797 -1.794,3.992 -1.088,1.297 -1.455,2.742 -0.951,4.611 0.679,2.525 0.232,5.13 -1.365,7.328 -0.621,0.854 -0.706,1.729 -0.908,2.702 -0.875,4.224 -0.389,8.485 -0.529,12.724 -0.022,0.709 -1.13,1.892 0.399,2.148 0.948,0.157 1.958,0.132 2.715,-1.125 3.001,-4.985 8.208,-6.197 13.383,-7.161 3.258,-0.608 6.127,-1.826 8.485,-4.082 4.294,-4.102 9.244,-6.544 15.267,-6.537 4.845,0.007 7.243,-2.28 7.669,-7.011 0.724,-8.034 1.659,-16.058 5.686,-23.263 1.629,-2.919 3.216,-5.649 2.093,-9.221 -0.833,-2.66 1.053,-4.691 2.375,-6.679 2.168,-3.261 1.297,-7.662 4.184,-10.634 0.412,-0.424 0.417,-1.29 0.511,-1.968 0.314,-2.193 0.978,-4.177 2.792,-5.648 0.492,-0.399 1.18,-0.711 1.17,-1.592 -0.072,-5.294 2.964,-9.735 4.137,-14.701 0.29,-1.222 0.419,-3.019 2.455,-3.308 1.138,-0.162 0.926,-1.425 0.529,-1.914 -1.769,-2.185 -0.699,-4.268 0.162,-6.524 z m 49.008,17.395 c 0.668,-1.235 0.007,-1.647 -0.724,-2.081 -1.248,-0.741 -2.186,-1.981 -2.453,-3.231 -0.851,-4.012 -2.308,-7.904 -2.38,-12.088 -0.028,-1.642 -0.25,-3.393 -2.068,-4.301 -2.278,-1.141 -3.246,-3.122 -3.124,-5.562 0.042,-0.843 0.033,-1.252 -0.848,-1.475 -0.891,-0.222 -1.821,-0.12 -1.938,0.761 -0.357,2.707 -2.141,4.833 -2.759,7.427 -0.849,3.57 -1.47,7.235 -3.59,10.384 -0.305,0.449 -0.921,0.923 -0.616,1.577 1.135,2.445 -0.604,4.152 -1.577,6.003 -0.412,0.781 -1.123,1.425 -0.92,2.385 0.686,3.249 -0.334,6.467 -0.117,9.718 0.147,2.183 -0.337,4.381 -1.535,6.243 -1.35,2.103 -1.529,4.279 -1.517,6.716 0.01,1.729 1.814,5.067 -2.527,4.778 -0.145,-0.01 -0.394,0.801 -0.514,1.25 -0.314,1.172 -0.953,2.083 -1.816,2.957 -1.322,1.337 -2.056,2.894 -2.343,4.917 -0.342,2.395 1.26,5.022 -0.13,6.966 -1.988,2.787 -3.246,5.372 -2.577,8.927 0.379,2.004 -1.958,2.767 -3.096,4.095 -1.689,1.976 -0.736,5.157 -2.877,7.085 -0.379,0.344 0.047,1.003 0.407,1.297 0.694,0.569 0.894,-0.407 1.263,-0.629 1.123,-0.676 1.819,-1.953 3.505,-1.721 3.318,0.454 6.437,-0.417 9.5,-1.674 1.819,-0.746 3.728,-1.425 5.656,-1.711 1.852,-0.277 3.7,-0.382 5.521,-0.943 1.781,-0.552 3.752,-0.562 5.471,-1.235 1.704,-0.668 3.97,-2.46 4.9,-2.221 2.478,0.634 2.058,-1.754 3.256,-2.15 0.282,-0.095 0.569,-0.17 0.851,-0.259 4.469,-1.438 8.595,-3.952 13.618,-3.598 2.38,0.17 4.314,-1.02 4.683,-3.899 0.534,-4.159 -0.699,-8.161 -2.697,-11.357 -3.054,-4.885 -5.421,-9.766 -6.676,-15.432 -0.801,-3.627 -2.747,-7.116 -4.718,-10.336 -1.533,-2.501 -3.125,-4.734 -2.494,-7.583 z m 101.41,46.753 c -0.491,2.977 -0.491,2.977 -4.389,1.242 0.769,1.659 0.477,2.882 -1.072,3.68 -1.754,0.908 -3.386,2.311 -5.239,2.705 -2.593,0.549 -4.671,2.396 -7.373,2.53 -0.746,0.037 -1.152,-0.412 -1.717,-0.639 -0.137,3.208 -1.811,2.258 -3.555,1.365 -0.472,-0.239 -0.953,0.08 -1.105,0.671 -0.541,2.096 -2.238,2.537 -4.034,2.719 -3.493,0.357 -6.507,2.238 -9.87,3.026 -1.327,0.312 -1.996,0.818 -0.446,2.34 2.332,2.293 4.236,4.833 5.074,8.416 0.693,2.964 2.051,5.634 0.951,8.737 -0.075,0.215 0.007,0.591 0.159,0.759 2.85,3.121 5.674,6.237 4.698,11 -0.043,0.22 0.212,0.566 0.419,0.759 4.506,4.196 4.658,9.803 3.925,15.102 -0.767,5.514 2.021,9.67 3.962,14.104 0.838,1.916 1.375,3.775 0.589,5.213 -0.966,1.756 -0.077,2.02 0.973,2.564 2.482,1.287 5.475,1.771 6.981,4.58 0.297,0.555 0.933,0.41 1.207,-0.09 1.128,-2.049 3.354,-3.736 1.59,-6.631 -1.126,-1.85 -0.532,-3.83 0.883,-5.455 1.327,-1.523 2.11,-3.322 2.732,-5.207 0.618,-1.875 1.379,-3.664 2.308,-5.428 1.931,-3.676 1.39,-8.342 4.523,-11.57 -1.272,-4.42 1.771,-8.532 0.918,-12.956 -0.229,-1.205 -0.215,-2.552 0.703,-3.683 0.682,-0.838 0.449,-1.869 0.265,-2.857 -0.743,-3.927 -1.2,-8.131 0.13,-11.736 1.951,-5.287 0.931,-10.651 1.659,-15.936 0.591,-4.279 -2.857,-6.914 -5.849,-9.324 z m -72.326,-66.119 c 1.168,2.42 0.592,5 0.764,7.522 0.067,0.956 -0.274,2.143 0.726,2.742 2.553,1.532 2.521,3.942 2.012,6.287 -0.245,1.123 0.396,1.512 0.671,2.26 1.606,4.374 4.798,7.882 6.425,12.298 0.855,2.323 1.979,4.783 3.373,6.836 2.176,3.206 4.264,6.045 2.864,10.272 -0.714,2.156 1.499,4.945 3.049,4.471 3.288,-1.008 6.724,-1.711 9.798,-3.171 2.285,-1.088 4.71,-0.933 6.978,-1.799 5.101,-1.946 9.299,-5.838 14.998,-6.567 2.467,-0.317 3.313,-2.909 1.524,-4.144 -2.081,-1.435 -3.318,-3.288 -4.806,-5.192 -1.12,-1.432 -2.238,-3.598 -3.785,-4.276 -3.386,-1.49 -5.244,-4.256 -7.635,-6.697 -1.087,-1.112 -1.507,-3.144 -3.333,-3.403 -4.111,-0.582 -6.512,-3.795 -9.513,-6.058 -0.722,-0.544 -1.298,-1.043 -2.238,-1.218 -5.579,-1.05 -10.342,-3.972 -15.127,-6.796 -2.146,-1.264 -3.457,-4.118 -6.745,-3.367 z m -135.227,171.024 c 0.272,-4.201 0.289,-7.635 1.811,-11.137 1.025,-2.355 1.357,-5.191 2.954,-7.463 0.569,-0.805 0.699,-1.285 0.018,-2.266 -1.041,-1.496 0.264,-6.273 1.589,-7.396 0.399,-0.34 1.562,0.225 1.195,-0.779 -0.282,-0.77 -1.028,-1.063 -1.923,-0.369 -2.645,2.053 -6.013,2.695 -9.052,3.154 -2.979,0.449 -4.269,2.318 -6.208,3.865 -2.984,2.379 -1.395,4.596 -0.27,6.963 0.16,0.34 0.25,0.809 0.155,1.16 -0.789,2.887 0.501,4.813 2.876,6.174 3.045,1.748 3.789,5.414 6.855,8.094 z" stroke-miterlimit="10">
      </path>
    </g>
    <text id="text4155" y="772.80975" x="791.55664" style="font-style:normal;font-variant:normal;font-weight:bold;font-stretch:normal;font-size:50px;line-height:125%;font-family:'Roboto Condensed';-inkscape-font-specification:'Roboto Condensed, Bold';text-align:start;letter-spacing:0px;word-spacing:0px;writing-mode:lr-tb;text-anchor:start;fill:#ac9393;fill-opacity:1;stroke:none;stroke-width:1px;stroke-linecap:butt;stroke-linejoin:miter;stroke-opacity:1">
      <tspan style="font-style:normal;font-variant:normal;font-weight:bold;font-stretch:normal;font-size:50px;line-height:125%;font-family:'Roboto Condensed';-inkscape-font-specification:'Roboto Condensed, Bold';text-align:center;writing-mode:lr-tb;text-anchor:middle;fill:#ac9393" y="772.80975" x="791.55664" id="text01">
        I MAKE MY OWN FREEDOM
      </tspan>
    </text>
  </g>
</svg>