<?xml version="1.0" encoding="utf-8"?>
<?xml-stylesheet type="text/css" href="https://fonts.googleapis.com/css?family=Roboto+Condensed"?>
<svg xmlns:dc="http://purl.org/dc/elements/1.1/" xmlns:cc="http://creativecommons.org/ns#" xmlns:rdf="http://www.w3.org/1999/02/22-rdf-syntax-ns#" xmlns:svg="http://www.w3.org/2000/svg" xmlns="http://www.w3.org/2000/svg" xmlns:xlink="http://www.w3.org/1999/xlink" version="1.1" x="0px" y="0px" width="1600px" height="1000px" viewBox="0 0 1600 1000" xml:space="preserve" id="svg2">
  <metadata id="metadata50">
    <rdf:RDF>
      <cc:Work rdf:about="">
        <dc:format>
          image/svg+xml
        </dc:format>
        <dc:type rdf:resource="http://purl.org/dc/dcmitype/StillImage">
        </dc:type>
        <dc:title>
        </dc:title>
      </cc:Work>
    </rdf:RDF>
  </metadata>
  <defs id="defs48">
    <clipPath id="clipPath4142" clipPathUnits="userSpaceOnUse">
      <path id="jd_bd" d="m 355.44116,242.46606 841.95114,0 0,562.04133 -841.95114,0 z" style="opacity:1;fill:none;fill-opacity:1;fill-rule:nonzero;stroke:#ffc300;stroke-width:2.20000005;stroke-linecap:butt;stroke-linejoin:miter;stroke-miterlimit:4;stroke-dasharray:none;stroke-dashoffset:0;stroke-opacity:1">
      </path>
    </clipPath>
  </defs>
  <image xlink:href="/designs/templates/002000601-0.jpg" transform="matrix(2.6165,0,0,2.6165,15.0452,-23.3027)" id="jd_bg" height="400" width="600">
  </image>
  <g style="fill:#917c6f" clip-path="url(#clipPath4142)" id="jd_nt">
    <g id="Layer_2" style="fill:#aa4400">
      <path fill="#603813" fill-rule="evenodd" stroke="#FFFFFF" stroke-width="0.2835" stroke-miterlimit="10" d="M614.764,543.596   c-0.392,4.572-2.609,6.658-7.25,7.484c-6.455,1.15-12.999,2.064-18.867,5.34c-0.497,0.277-1.123,0.439-1.694,0.449   c-2.275,0.045-4.668,0.436-6.799-0.127c-1.854-0.492-3.229,0.748-5.077,0.361c-2.383-0.502-3.578-0.744-3.581-3.734   c-0.002-2.355-0.729-4.816-0.486-7.254c0.185-1.863,0.641-3.635,3.318-2.795c1.248,0.395,2.405-0.316,3.233-1.133   c3.448-3.395,7.265-6.053,12.19-6.777c0.322-0.051,0.788-0.369,0.868-0.654c1.327-4.738,6.257-5.145,9.329-7.773   c1.904-1.633,4.182-2.875,5.891-4.674c1.392-1.465,2.852-2.713,4.556-3.723c2.899-1.721,4.399-4.193,4.551-7.617   c0.055-1.252-0.988-3.098,1.31-3.67c0.646-0.162,0.005-0.258-0.092-0.375c-1.617-1.938-1.544-4.328-1.946-6.643   c-0.404-2.336-2.168-4.352-1.911-6.891c0.481-4.803-2.739-8.942-2.283-13.833c0.245-2.607,0.115-5.763,1.702-7.33   c2.854-2.822,2.627-5.918,2.944-9.276c0.142-1.539,0.212-3.632,2.041-4.695c0.192-0.112,0.402-0.629,0.327-0.716   c-2.133-2.448,0.437-3.683,1.37-5.302c2.864-4.955,5.285-10.083,5.447-15.926c0.087-3.168,2.3-4.893,4.229-6.734   c2.635-2.51,4.254-5.621,5.307-8.922c1.262-3.979,2.415-7.881,5.668-10.786c0.467-0.417,0.594-1.22,0.854-1.854   c0.299-0.729,0.374-1.894,0.888-2.136c4.638-2.166,4.738-7.954,8.645-10.671c0.536-0.372,1.113-1.051,1.192-1.649   c0.806-6.115,6.826-8.423,9.523-13.144c0.18-0.317,0.589-0.701,0.908-0.713c4.778-0.217,7.21-4.426,10.928-6.45   c1.796-0.98,3.064-2.782,2.972-5.132c-0.047-1.183,0.225-2.241,1.684-2.311c3.5-0.175,5.511-2.705,7.103-5.174   c2.757-4.274,6.362-5.704,11.325-5.871c2.188-0.075,4.708-1.934,7.051-1.789c3.391,0.209,5.015-2.909,7.919-3.286   c3.071-0.399,5.993-1.312,8.692-2.816c1.662-0.928,3.503-0.514,5.2-0.983c3.431-0.953,5.686-4.129,9.206-4.977   c0.26-0.063,0.494-0.606,0.582-0.966c1.25-5.242,3.603-9.661,8.251-12.819c1.836-1.248,2.016-4.127,3.353-5.759   c2.425-2.949,2.398-6.067,2.258-9.44c-0.115-2.765-0.204-5.549,0.574-8.261c0.217-0.756,0.257-1.679,0.726-2.228   c3.573-4.171,3.253-9.643,3.321-14.281c0.055-3.867,0.509-7.692,0.621-11.542c0.22-7.555,3.029-14.376,5.574-21.282   c0.744-2.016,2.25-3.745,4.506-2.418c1.747,1.028,3.53,2.774,1.392,5.225c-0.556,0.636,0.262,0.679,0.562,0.976   c1.806,1.799,3.346,3.695,3.647,6.43c0.542,4.893,2.291,9.533,2.757,14.516c0.277,2.966,1.3,6.035,1.682,9.126   c0.175,1.415,1.769,1.764,2.36,2.957c2.203,4.426,5.092,8.692,3.987,13.987c-0.429,2.058,1.23,2.789,1.976,4.007   c1.801,2.944,2.742,6.435,2.335,9.396c-0.761,5.504,4.371,9.089,3.605,14.431c-0.349,2.43,2.263,4.012,5.152,4.01   c3.246-0.003,6.477-0.387,9.745-0.332c2.181,0.035,4.516-0.509,6.839-0.162c1.048,0.155,2.173,0.461,2.353,1.47   c0.395,2.223,2.071,2.41,3.708,2.734c1.744,0.349,3.964-0.145,4.256,2.58c1.457-0.299,1.879,1.265,3.062,1.659   c4.471,1.495,8.585,3.71,11.908,7.153c1.515,1.572,3.493,0.362,5.239,1.003c1.563,0.569,3.206,0.656,4.237,2.225   c0.634,0.968,1.666,1.393,2.804,1.442c4.496,0.197,8.193,1.716,10.232,6.063c0.159,0.339,0.387,0.883,0.633,0.913   c4.591,0.539,5.274,4.528,6.974,7.687c0.891,1.659,2.58,2.672,3.92,3.937c2.295,2.168,5.09,3.426,7.325,5.16   c2.428,1.881,5.252,3.93,7.367,6.495c3.002,3.635,5.335,7.739,7.351,11.883c0.878,1.809,1.762,1.512,2.553,1.255   c1.687-0.549,2.43-0.307,2.472,1.549c0.038,1.682,1.158,2.083,2.628,2.113c3.218,0.065,6.364,0.312,9.593,0.923   c3.326,0.629,7.311,0.112,10.451-1.215c3.75-1.584,8.301-0.945,11.402-4.159c0.172-0.18,0.554-0.227,0.836-0.22   c1.661,0.055,3.885-0.484,4.845,0.375c1.25,1.12,2.532-2.206,3.081,0.394c0.125,0.599,0.265,0.287,0.285-0.052   c0.177-3.017,2.776-2.508,4.586-3.171c3.351-1.228,6.616-2.79,10.057-3.653c3.932-0.988,8.012-0.943,11.996,0.165   c0.27,0.075,0.533,0.274,0.733,0.479c1.796,1.866,0.698,9.835-1.223,11.636c-2.911,2.727-5.96,4.84-10.127,4.84   c-0.851,0-1.348,0.741-1.884,1.333c-1.314,1.452-2.614,2.881-4.896,2.649c-1.392-0.14-2.372,0.941-3.386,1.657   c-3.42,2.42-7.475,4.414-9.917,7.615c-2.508,3.281-4.793,6.157-8.428,8.428c-2.975,1.856-5.459,4.701-8.84,6.045   c-2.787,1.108-5.093,2.308-4.571,5.873c0.04,0.282-0.002,0.622-0.129,0.874c-1.221,2.413-1.569,4.69-0.549,7.457   c0.947,2.565,0.236,5.554,1.599,8.246c0.821,1.624,0.908,3.992-0.015,5.491c-1.268,2.048-0.868,3.715-0.13,5.571   c0.574,1.445,0.769,2.969,0.103,4.324c-0.566,1.148-0.352,2.101,0.015,3.119c0.691,1.931,0.302,3.777-0.688,5.409   c-1.365,2.258-1.462,2.196-0.255,4.648c0.175,0.356,0.487,0.751,0.442,1.09c-0.539,4.209,1.027,8.583-1.388,12.682   c-1.684,2.857-2.28,5.9-0.215,9.154c1.742,2.738-0.029,5.781-0.331,8.637c-0.188,1.771-0.889,3.635-1.513,5.377   c-0.658,1.84-0.724,4.271-3.699,4.631c-1.433,0.174-0.911,1.986-0.937,3.102c-0.057,2.537,0.404,5.01-2.467,6.783   c-0.846,0.521-1.537,2.705-0.826,4.838c1.39,4.182-0.786,7.977-3.363,11.047c-3.191,3.811-6.983,7.111-10.469,10.678   c-0.751,0.77-1.348,1.693-1.39,2.881c-0.035,1.018-0.352,2.246-1.213,2.592c-2.617,1.063-2.515,3.563-3.283,5.594   c-0.314,0.832-0.446,1.906,0.489,2.418c2.19,1.195,1.736,2.979,1.452,4.9c-0.369,2.475,0.352,5.045-0.839,7.484   c-0.483,0.99,0.719,1.072,1.373,1.471c1.979,1.191,1.98,2.797,0.483,4.547c-1.56,1.826-1.05,3.943,0.032,5.779   c0.929,1.574,1.757,3.088,1.632,4.973c-0.02,0.287-0.005,0.646,0.147,0.865c4.681,6.787,3.635,15.395,7.216,22.602   c1.35,2.717-0.544,6.143-0.03,9.279c0.07,0.439-0.459,1.102-0.881,1.475c-1.387,1.223-9.289,0.568-10.708-0.631   c-3.398-2.869-6.198-6.174-8.551-9.971c-1.043-1.684-2.617-3.199-5.135-3.229c-1.457-0.016-3.2-4.908-2.354-6.771   c0.516-1.133,0.456-1.396-0.452-2.295c-1.404-1.391-1.794-3.518-2.093-5.455c-0.634-4.086-2.355-6-6.375-6.094   c-2.393-0.059-3.026-1.34-3.283-3.307c-0.507-3.848-2.805-4.734-6.04-2.494c-4.541,3.148-9.611,5.283-14.721,7.299   c-1.741,0.688-3.58,1.047-4.795,2.74c-0.479,0.668-1.395,1.258-2.206,1.418c-6.494,1.287-11.938,5-17.829,7.664   c-2.186,0.988-4.416,0.891-6.596,0.873c-5.008-0.039-10.005,0.371-15,0.447c-2.836,0.041-5.795,1.561-8.917,1.434   c-5.683-0.232-11.322-0.494-16.985-1.479c-3.044-0.529-6.437-0.707-9.688-0.291c-2.498,0.318-4.888,0.41-7.286-0.984   c-0.496-0.289-2.225-0.527-3.411-0.355c-0.292,0.041-0.743,0.121-0.868-0.029c-3.388-4.076-8.587-1.25-12.54-3.326   c-4.483-2.352-9.378-2.547-14.376-2.59c-3.982-0.035-7.146-2.461-10.01-5.141c-1.517-1.418-3.745-1.646-5.309-3.137   c-1.712-1.627-4.795-2.012-4.441-5.396c0.06-0.557-0.985-0.645-1.18-0.395c-1.62,2.094-3.029,0.52-4.296-0.305   c-2.133-1.387-3.528-0.834-4.049,1.826c-0.055,0.289-0.13,0.602-0.294,0.834c-4.503,6.396-4.823,14.648-9.416,21.074   c-1.367,1.92-1.846,4.551-1.639,7.254c0.477,6.162-4.204,10.852-10.404,10.855c-1.287,0-2.587-0.105-3.864,0.02   c-2.929,0.285-3.882-1.811-4.75-3.906c-0.404-0.98-0.517-2.111-0.624-3.188c-0.354-3.518-0.299-7.32,0.419-10.482   c0.945-4.158,1.467-8.857,3.388-12.406c2.445-4.508,1.851-8.787,2.071-13.248c0.12-2.463-0.127-4.936,0.504-7.383   c0.399-1.547-0.474-2.496-1.587-3.734c-3.782-4.209-9.182-6.631-12.552-11.072c-3.79-4.99-9.605-7.91-12.969-13.045   c-2.183-3.332-6.779-5.451-6.058-10.504c0.038-0.256-0.354-0.672-0.646-0.859c-2.435-1.561-3.465-4.002-3.992-6.645   c-0.279-1.404-0.544-2.043-2.221-1.836C617.282,545.709,615.591,545.459,614.764,543.596z M783.032,593.268   c0.494-1.492,1.022-2.426,2.602-2.061c0.746,0.172,1.589,0.061,2.365-0.07c2.183-0.363,4.808,0.609,6.158-2.303   c0.444-0.961,1.564-0.586,2.298,0.098c1.427,1.33,2.485,1.25,3.32-0.658c0.317-0.717,1.088-1.098,1.922-1.264   c2.033-0.398,4.091-0.73,6.077-1.303c5.519-1.592,11.08-2.736,15.748-6.809c2.473-2.158,5.12-4.688,8.805-5.521   c2.984-0.672,3.519-2.773,2.81-5.789c-0.519-2.219-2.827-3.172-3.363-5.018c-1.207-4.129-3.64-7.883-3.53-12.479   c0.037-1.559,0.771-3.709-0.809-4.982c-2.487-2.014-3.88-4.406-4.65-7.576c-0.446-1.848-1.075-3.867-2.25-5.662   c-1.54-2.35-3.212-5.063-3.431-7.734c-0.409-4.906-1.962-9.176-3.817-13.68c-1.627-3.949-3.092-8.561-1.582-13.22   c0.212-0.656-0.087-1.584-0.392-2.28c-2.051-4.698-4.254-9.057-9.066-11.944c-2.48-1.487-4.192-1.896-6.874-1.17   c-7.981,2.168-16.053,4.007-24.096,5.951c-0.242,0.057-0.559-0.098-0.818-0.212c-0.973-0.429-2.902-0.434-3.017,0.047   c-0.718,2.994-3.184-0.14-4.324,1.263c-0.09,0.11,0.063,0.389,0.032,0.576c-0.376,2.291-1.774,3.311-4.047,3.528   c-2.844,0.27-5.638,0.901-8.53,0.916c-5.509,0.028-11.14,0.045-15.753,3.623c-2.977,2.308-6.39,3.902-9.224,6.525   c-2.111,1.951-3.578,3.672-4.743,6.424c-1.257,2.971-3.378,5.627-4.803,8.76c-2.088,4.586-4.875,8.895-6.716,13.664   c-1.54,3.988-4.469,7.607-4.199,12.066c0.272,4.484-4.618,8.021-2.051,12.779c0.07,0.127-0.04,0.402-0.14,0.559   c-1.807,2.762-2.034,5.896-2.338,9.064c-0.24,2.49,2.722,7.076,5.242,7.023c2.702-0.057,4.73,1.025,6.799,2.439   c1.048,0.717,2.286,1.705,3.406,1.664c4.216-0.146,6.172,2.84,8.346,5.396c2.33-1.469,4.877-1.514,7.442-1.244   c0.983,0.105,1.889,0.592,2.355,1.604c0.828,1.809,2.368,2.219,4.181,2.146c1.193-0.047,2.303,0.16,3.423,0.736   c3.508,1.801,6.858,3.467,11.188,3.488c5.626,0.023,11.247,1.457,16.866,2.305c3.653,0.553,7.198,0.795,10.461-1.566   C782.039,590.119,783.017,590.928,783.032,593.268z M724.296,384.619c-1.188-0.214-1.811,0.24-2.248,0.713   c-3.506,3.835-7.77,6.041-13.009,6.09c-0.773,0.007-0.424,0.442-0.521,0.671c-1.504,3.548-4.446,5.763-7.68,7.308   c-2.33,1.113-4.102,2.912-6.327,4.039c-4.451,2.261-6.637,7.765-12.168,8.458c-0.392,0.05-0.826,0.322-0.664,0.804   c0.721,2.138-0.951,2.889-2.131,4.071c-2.175,2.184-4.293,4.456-6.18,6.891c-3.036,3.925-5.214,8.448-7.844,12.56   c-2.198,3.433-3.705,6.761-4.501,10.534c-0.444,2.096-2.141,3.52-2.442,5.599c-0.509,3.48-2.445,6.559-2.75,10.125   c-0.123,1.422-0.789,2.797-1.794,3.992c-1.088,1.297-1.455,2.742-0.951,4.611c0.679,2.525,0.232,5.13-1.365,7.328   c-0.621,0.854-0.706,1.729-0.908,2.702c-0.875,4.224-0.389,8.485-0.529,12.724c-0.022,0.709-1.13,1.892,0.399,2.148   c0.948,0.157,1.958,0.132,2.715-1.125c3.001-4.985,8.208-6.197,13.383-7.161c3.258-0.608,6.127-1.826,8.485-4.082   c4.294-4.102,9.244-6.544,15.267-6.537c4.845,0.007,7.243-2.28,7.669-7.011c0.724-8.034,1.659-16.058,5.686-23.263   c1.629-2.919,3.216-5.649,2.093-9.221c-0.833-2.66,1.053-4.691,2.375-6.679c2.168-3.261,1.297-7.662,4.184-10.634   c0.412-0.424,0.417-1.29,0.511-1.968c0.314-2.193,0.978-4.177,2.792-5.648c0.492-0.399,1.18-0.711,1.17-1.592   c-0.072-5.294,2.964-9.735,4.137-14.701c0.29-1.222,0.419-3.019,2.455-3.308c1.138-0.162,0.926-1.425,0.529-1.914   C722.365,388.958,723.435,386.875,724.296,384.619z M773.304,402.014c0.668-1.235,0.007-1.647-0.724-2.081   c-1.248-0.741-2.186-1.981-2.453-3.231c-0.851-4.012-2.308-7.904-2.38-12.088c-0.028-1.642-0.25-3.393-2.068-4.301   c-2.278-1.141-3.246-3.122-3.124-5.562c0.042-0.843,0.033-1.252-0.848-1.475c-0.891-0.222-1.821-0.12-1.938,0.761   c-0.357,2.707-2.141,4.833-2.759,7.427c-0.849,3.57-1.47,7.235-3.59,10.384c-0.305,0.449-0.921,0.923-0.616,1.577   c1.135,2.445-0.604,4.152-1.577,6.003c-0.412,0.781-1.123,1.425-0.92,2.385c0.686,3.249-0.334,6.467-0.117,9.718   c0.147,2.183-0.337,4.381-1.535,6.243c-1.35,2.103-1.529,4.279-1.517,6.716c0.01,1.729,1.814,5.067-2.527,4.778   c-0.145-0.01-0.394,0.801-0.514,1.25c-0.314,1.172-0.953,2.083-1.816,2.957c-1.322,1.337-2.056,2.894-2.343,4.917   c-0.342,2.395,1.26,5.022-0.13,6.966c-1.988,2.787-3.246,5.372-2.577,8.927c0.379,2.004-1.958,2.767-3.096,4.095   c-1.689,1.976-0.736,5.157-2.877,7.085c-0.379,0.344,0.047,1.003,0.407,1.297c0.694,0.569,0.894-0.407,1.263-0.629   c1.123-0.676,1.819-1.953,3.505-1.721c3.318,0.454,6.437-0.417,9.5-1.674c1.819-0.746,3.728-1.425,5.656-1.711   c1.852-0.277,3.7-0.382,5.521-0.943c1.781-0.552,3.752-0.562,5.471-1.235c1.704-0.668,3.97-2.46,4.9-2.221   c2.478,0.634,2.058-1.754,3.256-2.15c0.282-0.095,0.569-0.17,0.851-0.259c4.469-1.438,8.595-3.952,13.618-3.598   c2.38,0.17,4.314-1.02,4.683-3.899c0.534-4.159-0.699-8.161-2.697-11.357c-3.054-4.885-5.421-9.766-6.676-15.432   c-0.801-3.627-2.747-7.116-4.718-10.336C774.265,407.096,772.673,404.863,773.304,402.014z M874.714,448.767   c-0.491,2.977-0.491,2.977-4.389,1.242c0.769,1.659,0.477,2.882-1.072,3.68c-1.754,0.908-3.386,2.311-5.239,2.705   c-2.593,0.549-4.671,2.396-7.373,2.53c-0.746,0.037-1.152-0.412-1.717-0.639c-0.137,3.208-1.811,2.258-3.555,1.365   c-0.472-0.239-0.953,0.08-1.105,0.671c-0.541,2.096-2.238,2.537-4.034,2.719c-3.493,0.357-6.507,2.238-9.87,3.026   c-1.327,0.312-1.996,0.818-0.446,2.34c2.332,2.293,4.236,4.833,5.074,8.416c0.693,2.964,2.051,5.634,0.951,8.737   c-0.075,0.215,0.007,0.591,0.159,0.759c2.85,3.121,5.674,6.237,4.698,11c-0.043,0.22,0.212,0.566,0.419,0.759   c4.506,4.196,4.658,9.803,3.925,15.102c-0.767,5.514,2.021,9.67,3.962,14.104c0.838,1.916,1.375,3.775,0.589,5.213   c-0.966,1.756-0.077,2.02,0.973,2.564c2.482,1.287,5.475,1.771,6.981,4.58c0.297,0.555,0.933,0.41,1.207-0.09   c1.128-2.049,3.354-3.736,1.59-6.631c-1.126-1.85-0.532-3.83,0.883-5.455c1.327-1.523,2.11-3.322,2.732-5.207   c0.618-1.875,1.379-3.664,2.308-5.428c1.931-3.676,1.39-8.342,4.523-11.57c-1.272-4.42,1.771-8.532,0.918-12.956   c-0.229-1.205-0.215-2.552,0.703-3.683c0.682-0.838,0.449-1.869,0.265-2.857c-0.743-3.927-1.2-8.131,0.13-11.736   c1.951-5.287,0.931-10.651,1.659-15.936C881.154,453.812,877.706,451.177,874.714,448.767z M802.388,382.648   c1.168,2.42,0.592,5,0.764,7.522c0.067,0.956-0.274,2.143,0.726,2.742c2.553,1.532,2.521,3.942,2.012,6.287   c-0.245,1.123,0.396,1.512,0.671,2.26c1.606,4.374,4.798,7.882,6.425,12.298c0.855,2.323,1.979,4.783,3.373,6.836   c2.176,3.206,4.264,6.045,2.864,10.272c-0.714,2.156,1.499,4.945,3.049,4.471c3.288-1.008,6.724-1.711,9.798-3.171   c2.285-1.088,4.71-0.933,6.978-1.799c5.101-1.946,9.299-5.838,14.998-6.567c2.467-0.317,3.313-2.909,1.524-4.144   c-2.081-1.435-3.318-3.288-4.806-5.192c-1.12-1.432-2.238-3.598-3.785-4.276c-3.386-1.49-5.244-4.256-7.635-6.697   c-1.087-1.112-1.507-3.144-3.333-3.403c-4.111-0.582-6.512-3.795-9.513-6.058c-0.722-0.544-1.298-1.043-2.238-1.218   c-5.579-1.05-10.342-3.972-15.127-6.796C806.987,384.751,805.676,381.897,802.388,382.648z M667.161,553.672   c0.272-4.201,0.289-7.635,1.811-11.137c1.025-2.355,1.357-5.191,2.954-7.463c0.569-0.805,0.699-1.285,0.018-2.266   c-1.041-1.496,0.264-6.273,1.589-7.396c0.399-0.34,1.562,0.225,1.195-0.779c-0.282-0.77-1.028-1.063-1.923-0.369   c-2.645,2.053-6.013,2.695-9.052,3.154c-2.979,0.449-4.269,2.318-6.208,3.865c-2.984,2.379-1.395,4.596-0.27,6.963   c0.16,0.34,0.25,0.809,0.155,1.16c-0.789,2.887,0.501,4.813,2.876,6.174C663.351,547.326,664.095,550.992,667.161,553.672z" id="path8" style="fill:#aa4400">
      </path>
    </g>
    <text style="font-style:normal;font-weight:normal;font-size:40px;line-height:125%;font-family:sans-serif;letter-spacing:0px;word-spacing:0px;fill:#aa4400;fill-opacity:1;stroke:none;stroke-width:1px;stroke-linecap:butt;stroke-linejoin:miter;stroke-opacity:1;" x="783.53857" y="788.23529" id="text4155">
      <tspan id="text01" x="783.53857" y="788.23529" style="font-style:normal;font-variant:normal;font-weight:bold;font-stretch:normal;font-size:70px;line-height:125%;font-family:'Roboto Condensed';-inkscape-font-specification:'Roboto Condensed, Bold';text-align:center;writing-mode:lr-tb;text-anchor:middle;fill:#aa4400;">
        I MAKE MY OWN FREEDOM
      </tspan>
    </text>
  </g>
</svg>