<?xml version="1.0" encoding="utf-8"?>
<?xml-stylesheet type="text/css" href="https://fonts.googleapis.com/css?family=Anton"?>
<svg xmlns:dc="http://purl.org/dc/elements/1.1/" xmlns:cc="http://creativecommons.org/ns#" xmlns:rdf="http://www.w3.org/1999/02/22-rdf-syntax-ns#" xmlns:svg="http://www.w3.org/2000/svg" xmlns="http://www.w3.org/2000/svg" xmlns:xlink="http://www.w3.org/1999/xlink" id="svg1680" width="1600" height="1000" viewBox="0 0 1600 1000" version="1.1">
  <metadata id="metadata10">
    <rdf:RDF>
      <cc:Work rdf:about="">
        <dc:format>
          image/svg+xml
        </dc:format>
        <dc:type rdf:resource="http://purl.org/dc/dcmitype/StillImage">
        </dc:type>
        <dc:title>
        </dc:title>
      </cc:Work>
    </rdf:RDF>
  </metadata>
  <defs id="defs8">
    <clipPath id="clipPath4312" clipPathUnits="userSpaceOnUse">
      <path style="opacity:1;fill:none;fill-opacity:1;fill-rule:nonzero;stroke:#000000;stroke-width:1.03575492;stroke-linecap:butt;stroke-linejoin:miter;stroke-miterlimit:4;stroke-dasharray:none;stroke-dashoffset:0;stroke-opacity:1" d="m 975.2642,601.1482 276.3827,0 0,278.94063 -276.3827,0 z" id="jd_bd">
      </path>
    </clipPath>
  </defs>
  <image xlink:href="/designs/templates/002000701-0.jpg" id="jd_bg" height="1000" width="1600" style="stroke-width:1;stroke-miterlimit:4;stroke-dasharray:none">
  </image>
  <g id="jd_nt" clip-path="url(#clipPath4312)">
    <g transform="matrix(0.58409675,0,0,0.49794529,887.81233,591.94436)" id="g3" style="fill:#d45500">
      <path d="m 274.029,446.45 c 22.52,27.558 53.999,46.868 89.312,52.448 37.611,5.943 77.667,-1.617 109.335,-23.099 29.928,-20.302 50.635,-51.198 63.158,-84.721 13.557,-36.293 17.831,-76.387 13.965,-114.842 -3.955,-39.343 -17.138,-78.219 -41.033,-109.996 -20.933,-27.837 -49.873,-49.625 -83.732,-58.829 -11.679,-3.175 -23.842,-4.742 -35.939,-4.765 -18.332,0.035 -36.625,3.318 -53.673,10.101 -16.62,6.612 -31.763,16.288 -45.044,28.248 -27.8,25.034 -46.157,59.433 -55.942,95.229 -10.105,36.967 -11.293,76.283 -4.024,113.87 6.742,34.872 21.056,68.749 43.617,96.356 z M 238.413,257.563 c 6.729,-36.491 22.078,-72.093 47.187,-99.638 23.62,-25.912 55.606,-42.954 90.56,-46.085 4.299,-0.385 8.617,-0.553 12.933,-0.561 33.278,0.063 65.09,13.27 90.011,35.316 27.77,24.566 46.088,58.237 55.549,93.861 10.175,38.315 10.359,79.552 1.771,118.111 -7.695,34.549 -23.128,68.005 -48.229,93.217 -12.225,12.279 -26.505,22.054 -42.472,29.02 -16.94,7.391 -35.82,10.907 -54.384,11.335 -18.654,0.43 -37.071,-2.524 -54.495,-9.316 -15.569,-6.069 -30.073,-15.647 -42.302,-27.053 -25.396,-23.687 -41.942,-55.598 -51.269,-88.785 -9.965,-35.45 -11.571,-73.031 -4.86,-109.422 z" id="path5" style="fill:#d45500">
      </path>
      <path d="M 600.49,245.423 C 592.381,200.122 573.569,156.594 544.173,121.024 517.729,89.026 482.38,64.407 442.414,52.705 425.21,47.667 407.246,45.18 389.327,45.15 c -43.802,0.072 -86.409,14.12 -121.218,40.797 -34.751,26.632 -60.088,63.68 -76.072,104.179 -16.824,42.627 -23.3,89.598 -19.884,135.235 3.121,41.693 14.572,83.014 34.346,119.905 19.566,36.502 48.169,68.503 84.524,88.833 40.222,22.493 87.604,28.419 132.793,21.382 42.969,-6.691 82.484,-27.446 112.391,-58.993 29.346,-30.956 48.544,-70.485 59.148,-111.535 11.703,-45.304 13.375,-93.498 5.135,-139.53 z m -2.32,90.639 c -4.211,42.912 -17.016,85.523 -39.851,122.266 -22.161,35.659 -54.476,64.606 -93.69,80.162 -42.659,16.924 -92.443,18.919 -136.286,5.382 -40.037,-12.361 -74.06,-38.885 -98.656,-72.49 -24.705,-33.753 -40.241,-73.759 -47.752,-114.753 -8.053,-43.953 -6.136,-89.768 5.201,-132.968 11.21,-42.716 32.32,-83.242 63.54,-114.746 30.141,-30.416 69.497,-50.678 112.044,-56.302 8.819,-1.166 17.716,-1.694 26.609,-1.709 41.266,0.068 81.04,14.214 113.988,38.872 34.965,26.168 60.889,63.391 76.691,103.852 17.607,45.088 22.874,94.416 18.162,142.434 z" id="path7" style="fill:#d45500">
      </path>
      <path d="m 255.759,433.528 c 18.592,29.078 45.068,52.922 77.536,65.299 35.181,13.411 76.338,12.767 111.541,-0.213 33.125,-12.213 60.085,-36.319 78.67,-66.047 19.385,-31.008 29.697,-67.21 33.168,-103.423 3.872,-40.4 -0.916,-82.01 -15.943,-119.824 -13.324,-33.529 -34.993,-63.939 -64.279,-85.306 -25.305,-18.462 -55.943,-28.942 -87.319,-28.997 -36.036,0.064 -70.515,12.687 -98.184,35.74 -28.161,23.462 -47.703,56.018 -59.207,90.538 -12.083,36.26 -15.563,75.569 -10.732,113.444 4.441,34.812 15.794,69.143 34.749,98.789 z m -9.869,-239.04 c 15.688,-32.26 39.868,-60.705 71.47,-78.213 21.932,-12.151 46.748,-18.18 71.774,-18.224 34.138,0.061 66.893,12.763 93.2,34.318 28.656,23.48 48.77,56.093 60.301,91.056 12.711,38.541 15.218,80.381 9.207,120.417 -5.378,35.818 -18.065,71.091 -39.882,100.243 -21.487,28.71 -52.016,49.259 -87.045,57.28 -36.791,8.424 -76.798,4.152 -109.878,-14.404 -30.437,-17.074 -53.25,-44.989 -68.476,-76.011 -15.526,-31.633 -23.597,-67.038 -24.519,-102.204 -1.027,-39.15 6.684,-78.963 23.848,-114.258 z" id="path9" style="fill:#d45500">
      </path>
      <path d="m 206.602,327.033 c 3.288,36.652 13.714,72.974 31.611,105.198 17.489,31.487 42.918,58.911 75.23,75.392 35.23,17.97 76.892,21.363 115.231,12.73 36.418,-8.201 68.474,-29.115 91.827,-58.072 23.699,-29.385 38.18,-65.438 45.39,-102.272 8.042,-41.084 7.441,-84.229 -2.506,-124.922 -9.349,-38.247 -27.649,-74.641 -54.918,-103.252 -24.469,-25.673 -56.324,-44.254 -91.358,-50.68 -9.204,-1.688 -18.564,-2.513 -27.919,-2.529 -37.694,0.065 -73.874,12.842 -103.293,36.381 -29.809,23.851 -51.01,57.132 -64.072,92.722 -13.891,37.846 -18.82,79.201 -15.223,119.304 z m 15.423,-109.877 c 11.847,-36.527 32.321,-70.726 61.536,-95.966 28.589,-24.7 64.877,-38.551 102.636,-39.265 0.998,-0.019 1.995,-0.024 2.993,-0.026 35.699,0.062 70.096,12.927 98.03,34.974 30.255,23.879 52.074,57.197 65.18,93.208 14.621,40.173 18.522,83.887 13.826,126.248 -4.21,37.975 -15.906,75.687 -36.709,107.916 -20.079,31.108 -49.227,55.775 -84.373,68.008 -37.427,13.027 -80.48,12.786 -117.419,-1.753 -34.045,-13.4 -61.524,-39.318 -80.821,-70.002 -19.696,-31.319 -31.424,-67.574 -36.027,-104.177 -5.011,-39.839 -1.242,-80.966 11.148,-119.165 z" id="path11" style="fill:#d45500">
      </path>
      <path d="m 205.907,236.307 c 0.237,1.632 0.26,3.242 0.114,4.828 3.741,-16.87 9.009,-33.042 15.686,-48.219 -1.642,3.165 -4.381,5.542 -7.404,7.44 -3.438,2.158 -7.608,4.023 -9.974,7.476 -3.046,4.444 -3.278,10.335 -2.05,15.454 1.053,4.387 2.976,8.534 3.628,13.021 z" id="path13" style="fill:#d45500">
      </path>
      <path d="m 190.5,338.044 c 1.273,7.67 7.975,11.31 12.247,17.213 0.901,1.244 1.752,2.591 2.508,4.002 -3.439,-16.448 -5.375,-33.092 -5.808,-49.422 -0.147,0.527 -0.307,1.054 -0.492,1.582 -1.449,4.119 -3.93,7.615 -5.933,11.456 -2.523,4.838 -3.18,9.791 -2.522,15.169 z" id="path15" style="fill:#d45500">
      </path>
      <path d="m 207.6,401.018 c 2.35,2.013 5.342,3.035 7.968,4.614 2.22,1.335 4.226,2.996 5.838,5 -5.418,-12.585 -9.836,-25.661 -13.256,-38.954 -0.242,2.173 -0.865,4.291 -1.654,6.378 -1.391,3.681 -3.009,7.429 -2.991,11.438 0.019,3.976 0.916,8.801 4.095,11.524 z" id="path17" style="fill:#d45500">
      </path>
      <path d="m 347.355,78.226 c 5.417,-0.24 7.958,-3.863 10.579,-8.057 1.537,-2.458 3.361,-4.745 5.746,-6.221 -11.526,1.542 -22.612,4.121 -33.219,7.643 1.931,0.035 3.852,0.47 5.554,1.305 3.678,1.803 6.945,5.525 11.34,5.33 z" id="path19" style="fill:#d45500">
      </path>
      <path d="m 305.859,92.493 c 5.768,0.165 10.911,-4.261 12.608,-9.626 0.891,-2.816 1.421,-6.031 3.485,-8.207 -11.129,4.331 -21.693,9.721 -31.644,16.06 5.449,-1.037 10.179,1.618 15.551,1.773 z" id="path21" style="fill:#d45500">
      </path>
      <path d="m 316.652,91.189 c 9.045,-4.204 18.525,-7.629 28.409,-10.195 -2.726,-0.571 -5.129,-2.102 -7.588,-3.738 -3.605,-2.397 -9.463,-4.348 -13.114,-0.738 -2.651,2.62 -2.532,7.115 -4.288,10.304 -0.855,1.555 -2.032,3.057 -3.419,4.367 z" id="path23" style="fill:#d45500">
      </path>
      <path d="m 279.427,114.746 c 8.943,-7.379 18.54,-13.86 28.741,-19.319 -0.136,0.014 -0.271,0.037 -0.408,0.047 -5.487,0.389 -10.993,-3.13 -16.406,-1.914 -3.264,0.735 -6.333,2.867 -7.779,5.958 -1.052,2.251 -1.347,4.718 -1.722,7.148 -0.413,2.679 -1.15,5.541 -2.426,8.08 z" id="path25" style="fill:#d45500">
      </path>
      <path d="m 201.606,231.404 c -1.314,-4.038 -2.755,-8.084 -2.975,-12.346 -4.504,15.208 -7.778,31.073 -9.739,47.379 2.822,-7.228 10.418,-12.676 12.99,-20.338 1.693,-5.043 1.348,-9.702 -0.276,-14.695 z" id="path27" style="fill:#d45500">
      </path>
      <path d="m 202.64,251.776 c -2.514,4.823 -6.789,8.291 -9.628,12.869 -3.184,5.135 -2.293,9.753 0.182,14.94 2.443,5.118 4.944,10.498 6.249,16.038 0.41,-16.798 2.257,-33.258 5.447,-49.138 -0.588,1.81 -1.357,3.577 -2.25,5.291 z" id="path29" style="fill:#d45500">
      </path>
      <path d="m 247.658,140.732 c 0.053,-4.195 -0.904,-8.84 0.002,-13.039 -7.981,9.168 -15.258,19.117 -21.783,29.725 3.525,-2.969 7.572,-3.498 12.181,-4.411 6.268,-1.242 9.52,-5.974 9.6,-12.275 z" id="path31" style="fill:#d45500">
      </path>
      <path d="m 271.453,121.717 c -3.263,0.853 -7.064,0.596 -10.211,0.781 -2.498,0.148 -5.217,0.226 -7.568,1.185 -2.395,0.976 -3.169,4.153 -3.273,6.478 -0.215,4.785 0.924,9.863 -0.104,14.608 6.501,-8.305 13.564,-16.019 21.156,-23.052 z" id="path33" style="fill:#d45500">
      </path>
      <path d="m 220.504,186.533 c 0.416,-4.773 -0.24,-9.606 -0.093,-14.391 0.069,-2.251 0.224,-4.499 0.706,-6.636 -6.842,12.169 -12.734,25.12 -17.614,38.684 2.831,-2.803 6.389,-4.534 9.688,-6.707 3.902,-2.573 6.892,-6.104 7.313,-10.95 z" id="path35" style="fill:#d45500">
      </path>
      <path d="m 243.106,154.522 c -1.129,0.586 -2.363,1.025 -3.696,1.289 -5.505,1.091 -11.203,1.469 -14.242,7.053 -2.388,4.387 -1.836,10.356 -1.692,15.171 0.134,4.497 0.531,9.007 -1.071,13.305 5.869,-13.093 12.797,-25.428 20.701,-36.818 z" id="path37" style="fill:#d45500">
      </path>
      <path d="m 359.218,73.831 c -1.294,2 -2.76,3.696 -4.523,4.964 10.862,-2.15 22.175,-3.286 33.903,-3.311 -2.422,-0.681 -4.628,-2.082 -6.705,-3.768 -3.581,-2.907 -7.509,-7.123 -12.58,-6.507 -5.302,0.644 -7.464,4.553 -10.095,8.622 z" id="path39" style="fill:#d45500">
      </path>
      <path d="m 512.506,127.777 c -1.227,-0.339 -2.387,-0.803 -3.462,-1.381 8.7,8.559 16.748,18.073 24.033,28.445 -0.42,-2.92 -0.097,-6.027 0.044,-8.931 0.263,-5.436 0.378,-12.198 -5.365,-14.906 -4.768,-2.248 -10.248,-1.841 -15.25,-3.227 z" id="path41" style="fill:#d45500">
      </path>
      <path d="m 438.335,522.527 c 4.431,0.477 8.189,2.339 12.379,3.637 4.851,1.503 9.078,-0.57 12.516,-4.169 3.538,-3.704 5.555,-8.442 8.601,-12.508 0.59,-0.788 1.236,-1.53 1.928,-2.225 -11.87,6.469 -24.773,11.603 -38.718,15.171 1.104,-0.05 2.205,-0.023 3.294,0.094 z" id="path43" style="fill:#d45500">
      </path>
      <path d="m 567.845,209.546 c 3.544,2.077 7.308,4.122 9.8,7.48 -4.498,-14.662 -10.128,-28.541 -16.758,-41.523 0.11,1.374 0.055,2.768 -0.12,4.104 -0.8,6.108 -3.048,12.595 -1.784,18.782 1.099,5.377 4.284,8.473 8.862,11.157 z" id="path45" style="fill:#d45500">
      </path>
      <path d="m 568.656,379.044 c -0.214,-1.579 -0.31,-3.153 -0.255,-4.705 -3.81,15.266 -8.887,30.036 -15.239,43.993 4.195,-4.513 10.841,-6.274 15.218,-10.746 3.417,-3.492 4.741,-7.321 3.837,-12.108 -1.041,-5.513 -2.806,-10.863 -3.561,-16.434 z" id="path47" style="fill:#d45500">
      </path>
      <path d="m 546.988,166.593 c -2.743,-0.69 -5.605,-1.503 -8.046,-2.957 6.272,9.916 11.88,20.528 16.739,31.762 -0.045,-1.681 0.061,-3.365 0.276,-4.992 0.405,-3.077 1.059,-6.102 1.547,-9.164 0.398,-2.489 0.873,-5.395 -0.005,-7.84 -1.731,-4.822 -5.998,-5.675 -10.511,-6.809 z" id="path49" style="fill:#d45500">
      </path>
      <path d="m 535.914,152.596 c 0.112,2.747 0.673,5.265 2.82,7.164 1.801,1.593 4.009,2.525 6.299,3.184 3.595,1.036 7.854,1.522 11.063,3.645 -6.169,-10.93 -13.07,-21.159 -20.615,-30.608 0.012,0.045 0.027,0.085 0.038,0.13 1.389,5.46 0.17,10.957 0.395,16.485 z" id="path51" style="fill:#d45500">
      </path>
      <path d="m 394.492,75.576 c 11.374,0.382 22.519,1.941 33.341,4.597 -1.101,-0.849 -2.084,-1.89 -2.922,-3.108 -2.288,-3.325 -3.795,-7.86 -7.586,-9.826 -4.792,-2.485 -10.103,-1.261 -14.063,2.103 -2.628,2.234 -5.311,5.277 -8.77,6.234 z" id="path53" style="fill:#d45500">
      </path>
      <path d="m 448.965,78.495 c -4.024,1.23 -7.946,3.678 -12.193,4.142 10.646,3.26 20.942,7.593 30.793,12.918 -0.226,-0.252 -0.449,-0.512 -0.666,-0.783 -2.991,-3.719 -4.224,-8.248 -6.125,-12.529 -0.924,-2.079 -1.631,-3.295 -3.948,-3.918 -2.636,-0.708 -5.252,-0.627 -7.861,0.17 z" id="path55" style="fill:#d45500">
      </path>
      <path d="m 424.745,70.949 c 2.15,3.658 4.184,7.906 8.855,8.635 4.948,0.774 9.45,-2.439 13.991,-3.827 1.911,-0.584 4.408,-1.044 6.84,-0.99 -11.421,-4.538 -23.286,-7.902 -35.485,-9.99 2.422,1.43 4.275,3.578 5.799,6.172 z" id="path57" style="fill:#d45500">
      </path>
      <path d="m 480.765,100.837 c -1.639,0.063 -3.204,-0.061 -4.691,-0.37 9.69,5.963 18.895,12.917 27.519,20.771 -0.642,-1.093 -1.142,-2.301 -1.475,-3.622 -1.263,-4.998 0.417,-12.981 -4.601,-16.205 -5.049,-3.245 -11.24,-0.786 -16.752,-0.574 z" id="path59" style="fill:#d45500">
      </path>
      <path d="m 478.715,97.836 c 5.313,0.112 10.905,-2.002 16.175,-0.769 -10.447,-7.552 -21.519,-13.979 -33.089,-19.181 2.204,2.764 2.976,6.726 4.424,9.849 2.423,5.224 6.24,9.969 12.49,10.101 z" id="path61" style="fill:#d45500">
      </path>
      <path d="m 569.501,214.022 c -3.017,-1.82 -6.198,-3.461 -8.734,-5.896 4.713,12.827 8.487,26.367 11.208,40.527 0.295,-2.735 1.112,-5.388 2.343,-8.047 2.179,-4.708 4.635,-9.399 3.68,-14.779 -0.963,-5.425 -3.855,-9.005 -8.497,-11.805 z" id="path63" style="fill:#d45500">
      </path>
      <path d="m 267.507,119.143 c 2.03,-0.17 4.327,-0.276 5.896,-1.727 2.542,-2.353 4.254,-5.103 4.987,-8.505 0.512,-2.378 0.682,-4.827 1.262,-7.19 0.475,-1.936 1.316,-3.816 2.467,-5.469 -9.942,7.1 -19.215,15.177 -27.766,24.106 1.551,-0.433 3.25,-0.623 4.991,-0.753 2.717,-0.204 5.447,-0.234 8.163,-0.462 z" id="path65" style="fill:#d45500">
      </path>
      <path d="m 510.413,123.82 c 5.459,2.621 13.19,2.054 18.744,4.592 -8.237,-9.414 -17.149,-17.954 -26.634,-25.537 0.762,1.46 1.255,3.116 1.458,4.912 0.652,5.745 0.25,13.065 6.432,16.033 z" id="path67" style="fill:#d45500">
      </path>
      <path d="m 392.24,72.939 c 4.114,-0.427 6.902,-4.251 9.977,-6.603 1.894,-1.449 3.997,-2.492 6.218,-3.028 -6.314,-0.691 -12.705,-1.047 -19.16,-1.047 -5.174,0 -10.271,0.206 -15.293,0.599 2.151,0.688 4.151,1.9 6.09,3.45 3.431,2.743 7.319,7.132 12.168,6.629 z" id="path69" style="fill:#d45500">
      </path>
      <path d="m 578.408,261.531 c 2.841,4.103 6.746,7.37 9.492,11.534 0.367,0.557 0.688,1.126 0.973,1.703 -1.419,-15.657 -4.022,-30.735 -7.691,-45.133 -0.061,0.91 -0.182,1.811 -0.373,2.691 -1.013,4.671 -3.822,8.583 -5.185,13.115 -1.689,5.614 -0.532,11.301 2.784,16.09 z" id="path71" style="fill:#d45500">
      </path>
      <path d="m 581.72,295.763 c 2.865,-4.696 6.104,-9.983 5.651,-15.72 -0.382,-4.831 -4.41,-8.365 -7.426,-11.784 -2.278,-2.582 -4.541,-5.382 -6.075,-8.509 2.075,13.835 3.164,28.211 3.164,43.043 0,0.445 -0.004,0.889 -0.006,1.334 1.259,-2.938 3.063,-5.693 4.692,-8.364 z" id="path73" style="fill:#d45500">
      </path>
      <path d="m 571.326,364.578 c 2.72,-4.209 6.597,-7.332 9.827,-11.107 3.82,-4.465 5.95,-10.043 4.724,-15.961 -1.136,-5.486 -4.099,-10.146 -6.724,-15.007 -0.914,-1.691 -1.79,-3.427 -2.464,-5.217 -0.788,16.663 -2.94,33.208 -6.464,49.275 0.321,-0.673 0.683,-1.336 1.101,-1.983 z" id="path75" style="fill:#d45500">
      </path>
      <path d="m 197.025,306.576 c 0.885,-6.397 -0.59,-12.865 -3.208,-18.695 -1.9,-4.232 -4.959,-8.682 -5.767,-13.312 -0.006,-0.035 -0.008,-0.068 -0.014,-0.103 -0.865,9.299 -1.308,18.726 -1.308,28.247 0,8.383 0.385,16.864 1.15,25.381 0.767,-3.16 2.093,-6.094 3.793,-8.977 2.338,-3.964 4.711,-7.89 5.354,-12.541 z" id="path77" style="fill:#d45500">
      </path>
      <path d="m 579.031,314.911 c 2.314,7.249 7.455,13.413 9.417,20.558 1.12,-10.853 1.681,-21.801 1.681,-32.756 0,-5.573 -0.148,-11.086 -0.436,-16.534 -0.009,0.029 -0.015,0.058 -0.024,0.087 -1.543,5.256 -4.652,9.724 -7.392,14.398 -2.569,4.382 -4.888,9.103 -3.246,14.247 z" id="path79" style="fill:#d45500">
      </path>
      <path d="m 519.898,474.754 c -2.053,7.212 -3.437,16.026 -8.001,22.062 12.75,-11.044 23.926,-23.796 33.541,-37.842 -3.623,2.959 -8.251,4.462 -12.637,5.964 -4.984,1.705 -11.309,4.219 -12.903,9.816 z" id="path81" style="fill:#d45500">
      </path>
      <path d="m 572.198,369.662 c -1.77,5.476 -0.332,11.313 1.003,16.731 0.829,3.363 2.025,6.994 2.347,10.577 4.82,-14.763 8.44,-30.104 10.867,-45.744 -1.281,2.222 -2.917,4.251 -4.756,6.157 -3.535,3.665 -7.841,7.268 -9.461,12.279 z" id="path83" style="fill:#d45500">
      </path>
      <path d="m 204.112,375.786 c 1.79,-5.351 1.093,-10.185 -1.582,-15.18 -3.223,-6.017 -9.239,-10.017 -12.647,-15.675 2.286,15.378 5.818,30.734 10.591,45.702 -0.016,-0.594 -0.007,-1.183 0.027,-1.761 0.273,-4.682 2.149,-8.711 3.611,-13.086 z" id="path85" style="fill:#d45500">
      </path>
      <path d="m 282.849,496.678 c -3.612,-3.964 -10.119,-2.916 -14.937,-3.526 -4.244,-0.536 -8.195,-1.973 -10.054,-6.132 -4.051,-9.059 -2.704,-21.445 -11.849,-27.513 -4.426,-2.937 -9.633,-3.274 -14.275,-5.615 -1.001,-0.505 -1.899,-1.123 -2.709,-1.824 16.009,24.977 36.566,46.589 61.683,62.276 -0.992,-1.242 -1.804,-2.693 -2.46,-4.397 -1.616,-4.196 -2.281,-9.846 -5.399,-13.269 z" id="path87" style="fill:#d45500">
      </path>
      <path d="m 377.272,531.283 c -4.734,-2.065 -9.73,-2.324 -14.544,-0.435 -4.387,1.72 -8.522,4.16 -13.255,4.854 -2.554,0.373 -5.216,0.562 -7.721,0.143 14.23,3.479 29.438,5.352 45.632,5.352 1.671,0 3.328,-0.023 4.978,-0.059 -2.064,-0.704 -3.998,-1.736 -5.822,-3.152 -3.028,-2.353 -5.693,-5.144 -9.268,-6.703 z" id="path89" style="fill:#d45500">
      </path>
      <path d="m 311.154,515.172 c 2.427,-0.699 4.802,-1.109 7.109,-0.875 -11.842,-5.18 -22.796,-11.67 -32.865,-19.238 1.694,2.136 2.7,4.903 3.531,7.438 1.453,4.434 2.413,9.927 6.811,12.407 5.256,2.962 9.963,1.837 15.414,0.268 z" id="path91" style="fill:#d45500">
      </path>
      <path d="m 254.983,465.995 c 1.765,4.621 2.549,9.546 3.801,14.317 1.19,4.535 2.469,8.657 7.657,9.591 5.038,0.906 10.402,0.165 15.185,2.24 -9.749,-7.761 -18.63,-16.551 -26.643,-26.148 z" id="path93" style="fill:#d45500">
      </path>
      <path d="m 325.292,521.488 c -1.936,-1.838 -4.279,-3.865 -7.024,-4.261 -2.139,-0.307 -4.275,0.256 -6.312,0.857 -3.906,1.154 -7.996,2.356 -12.044,1.628 12.221,6.637 25.436,11.916 39.643,15.582 -1.318,-0.454 -2.565,-1.13 -3.693,-2.109 -3.983,-3.458 -6.75,-8.072 -10.57,-11.697 z" id="path95" style="fill:#d45500">
      </path>
      <path d="m 348.67,532.789 c 4.753,-0.826 8.796,-3.188 13.255,-4.854 1.152,-0.43 2.297,-0.749 3.432,-0.968 -14.601,-1.732 -28.237,-5.191 -40.908,-10.118 4.066,3.024 7.005,7.126 10.327,10.918 1.465,1.673 3.24,3.931 5.428,4.681 2.549,0.873 5.83,0.799 8.466,0.341 z" id="path97" style="fill:#d45500">
      </path>
      <path d="m 223.023,422.033 c -0.643,-5.483 -3.808,-10.681 -8.557,-13.538 -3.192,-1.92 -7.063,-3.161 -9.645,-5.959 -0.156,-0.169 -0.303,-0.345 -0.451,-0.523 5.374,14.652 11.98,28.826 19.813,42.164 -0.331,-1.111 -0.578,-2.251 -0.739,-3.402 -0.869,-6.247 0.308,-12.517 -0.421,-18.742 z" id="path99" style="fill:#d45500">
      </path>
      <path d="m 230.39,449.328 c 3.635,3.398 9.114,3.582 13.501,5.563 1.488,0.671 2.927,1.493 4.264,2.455 -8.719,-11.678 -16.268,-24.356 -22.649,-37.689 0.693,3.335 0.712,6.752 0.591,10.426 -0.201,6.148 -0.651,14.621 4.293,19.245 z" id="path101" style="fill:#d45500">
      </path>
      <path d="m 486.063,504.239 c -6.075,1.161 -10.392,4.484 -13.595,9.655 -2.846,4.596 -6.529,10.735 -11.49,13.889 16.469,-6.529 31.346,-15.255 44.638,-25.767 -1.092,0.52 -2.282,0.948 -3.589,1.261 -5.276,1.263 -10.684,-0.046 -15.964,0.962 z" id="path103" style="fill:#d45500">
      </path>
      <path d="m 517.355,473.071 c -10.142,10.99 -21.591,20.681 -34.35,28.755 0.741,-0.206 1.493,-0.378 2.256,-0.498 5.242,-0.835 10.842,0.474 15.966,-0.962 6.485,-1.819 10.334,-6.944 12.232,-13.145 1.421,-4.648 2.125,-9.617 3.896,-14.15 z" id="path105" style="fill:#d45500">
      </path>
      <path d="m 549.572,425.868 c -7.104,14.229 -15.594,27.509 -25.479,39.481 2.58,-1.466 5.486,-2.505 7.905,-3.324 5.212,-1.765 11.277,-3.598 14.359,-8.549 2.385,-3.833 3.344,-8.363 3.544,-12.832 0.213,-4.785 -1.05,-9.971 -0.329,-14.776 z" id="path107" style="fill:#d45500">
      </path>
      <path d="m 421.9,526.628 c 1.354,-0.827 2.804,-1.558 4.312,-2.174 -12.243,2.477 -25.239,3.788 -38.997,3.788 -3.596,0 -7.137,-0.104 -10.63,-0.299 3.377,1.226 6.559,3.222 9.451,5.715 3.064,2.64 6.164,4.831 10.279,5.413 5.304,0.751 11.008,0.177 15.199,-3.405 3.494,-2.987 6.423,-6.617 10.386,-9.038 z" id="path109" style="fill:#d45500">
      </path>
      <path d="m 451.604,529.534 c -4.07,-0.928 -7.73,-3.125 -11.882,-3.8 -5.971,-0.971 -12.431,0.684 -17.341,4.193 -3.729,2.665 -6.509,6.414 -10.244,9.056 -0.528,0.375 -1.073,0.712 -1.631,1.018 16.21,-1.705 31.308,-5.204 45.299,-10.259 -1.325,0.177 -2.722,0.13 -4.201,-0.208 z" id="path111" style="fill:#d45500">
      </path>
      <path d="m 552.523,426.381 c -0.401,2.726 0.083,5.187 0.29,7.874 0.375,4.87 0.242,10.411 -1.3,15.337 7.798,-12.74 14.407,-26.399 19.834,-40.702 -3.404,3.475 -8.229,5.879 -12.163,8.399 -3.389,2.171 -6.051,4.958 -6.661,9.092 z" id="path113" style="fill:#d45500">
      </path>
    </g>
    <text style="font-style:normal;font-variant:normal;font-weight:normal;font-stretch:normal;font-size:90px;line-height:125%;font-family:Anton;-inkscape-font-specification:'Anton, Normal';text-align:start;letter-spacing:0px;word-spacing:0px;writing-mode:lr-tb;text-anchor:start;fill:#d45500;fill-opacity:1;stroke:none;stroke-width:1px;stroke-linecap:butt;stroke-linejoin:miter;stroke-opacity:1;" x="1115.9336" y="783.83655" id="text4252">
      <tspan id="text01" x="1115.9336" y="783.83655" style="font-style:normal;font-variant:normal;font-weight:normal;font-stretch:normal;font-size:90px;line-height:125%;font-family:Anton;-inkscape-font-specification:'Anton, Normal';text-align:center;writing-mode:lr-tb;text-anchor:middle;fill:#d45500;">
        WG
      </tspan>
    </text>
  </g>
</svg>